<?xml version="1.0" encoding="UTF-8"?>
<svg width="600" height="800" viewBox="0 0 600 800" fill="none" xmlns="http://www.w3.org/2000/svg">
<g transform="translate(0,800) scale(1,-1)">
<path d="M161 796 c-17 -5 -38 -10 -56 -12 -21 -3 -52 -2 -69 1 -10 2 -31 6
-35 8 -1 0 -1 -1 -1 -3 0 -3 0 -3 11 -5 6 -2 16 -4 21 -5 5 -1 10 -2 10 -2 2
-1 1 -4 0 -5 -6 0 -10 -9 -8 -16 3 -10 16 -12 22 -3 4 6 1 17 -6 19 -2 0 -3 3
-1 4 0 1 6 0 12 0 9 -1 15 -1 30 1 11 0 23 2 27 3 9 1 9 1 9 -1 0 -2 -1 -3 -3
-4 -3 -2 -6 -7 -6 -11 0 -4 4 -10 7 -11 4 -3 8 -2 12 0 4 3 5 5 5 11 0 6 -2
10 -7 12 -3 1 -3 2 -3 4 0 2 1 2 15 6 14 4 26 7 36 11 l5 2 -8 0 c-7 0 -11 -1
-19 -4z m-26 -25 c3 -3 3 -6 2 -10 -3 -5 -10 -5 -13 0 -2 4 -1 7 1 10 3 3 7 3
10 0z m-85 -4 c2 -1 2 -3 2 -6 0 -3 0 -5 -2 -6 -3 -3 -6 -2 -9 1 -3 3 -3 4 -3
6 2 6 8 9 12 5z M196 797 c-5 -4 -6 -8 -4 -14 2 -5 5 -8 11 -8 4 0 5 1 8 3 6 6 5 16
-2 20 -5 3 -9 3 -13 -1z m9 -3 c1 0 3 -2 4 -3 4 -8 -5 -15 -11 -9 -5 5 0 15 7
12z M413 799 c-2 -2 -5 -8 -5 -12 0 -4 3 -9 7 -11 9 -4 19 5 17 15 -1 7
-4 9 -11 9 -3 0 -6 -1 -8 -1z m12 -5 c3 -3 3 -5 2 -9 -1 -4 -6 -6 -9 -4 -5 4
-6 9 -2 13 2 2 7 3 9 0z M445 798 c6 -2 22 -7 34 -10 6 -2 12 -3 12 -4 0 0 2 -3 3 -6 l3 -6
-109 0 c-73 0 -110 0 -111 -1 -2 -1 -2 -3 -2 -56 l0 -56 -4 -2 c-8 -4 -18 -13
-23 -20 -6 -9 -10 -18 -15 -39 -5 -21 -10 -30 -22 -46 -5 -6 -10 -13 -12 -17
-2 -6 -2 -7 -2 -18 0 -6 0 -16 0 -20 1 -12 1 -16 -7 -26 -8 -11 -10 -17 -10
-27 0 -14 5 -27 15 -34 2 -2 4 -3 4 -4 0 0 -2 -7 -4 -15 l-3 -15 -32 0 -31 0
0 5 c1 2 1 8 2 13 0 6 1 9 2 11 2 2 2 4 2 13 0 10 0 10 -3 13 -4 3 -18 7 -30
7 l-4 0 1 4 c1 9 3 17 5 22 l2 6 7 0 c10 1 17 4 25 9 9 7 13 12 22 29 4 8 8
15 9 17 1 1 5 4 9 8 8 6 9 9 7 11 -4 3 -22 1 -35 -4 -19 -7 -36 -23 -43 -41
-3 -6 -5 -17 -5 -22 0 -1 -1 -5 -2 -9 -4 -11 -6 -26 -6 -36 0 -10 0 -13 -2
-13 -3 0 1 59 5 89 1 8 2 14 2 14 0 1 2 2 5 2 14 5 26 19 31 37 1 3 3 11 4 16
0 6 2 17 4 24 3 16 3 18 -2 17 -8 -2 -27 -15 -35 -25 -6 -8 -12 -20 -15 -29
-2 -9 -2 -23 1 -31 2 -8 2 -12 1 -23 -1 -5 -2 -16 -3 -25 -1 -8 -1 -15 -2 -15
0 0 0 5 -1 11 -1 6 -2 15 -3 21 l-2 11 2 5 c3 8 4 23 1 34 -5 19 -18 37 -37
49 -7 5 -15 8 -18 7 -2 -1 -1 -4 3 -13 4 -10 6 -16 8 -31 1 -5 3 -13 4 -17 4
-12 14 -24 27 -31 3 -2 5 -4 5 -4 1 0 2 -8 3 -18 4 -26 8 -77 5 -76 0 1 -1 6
-1 12 -1 6 -2 15 -3 21 -1 6 -2 14 -2 21 -1 9 -1 11 -3 18 -6 13 -11 20 -21
31 -9 8 -12 10 -19 14 -14 7 -26 10 -29 7 -2 -2 -1 -3 4 -10 6 -7 11 -16 15
-30 2 -7 6 -14 7 -17 7 -12 20 -21 34 -24 6 -1 7 -2 8 -3 1 -4 4 -19 3 -20 0
0 -5 -1 -10 -1 -18 -1 -26 -4 -28 -9 0 -1 0 -7 0 -12 0 -7 1 -10 3 -12 1 -2 2
-5 2 -12 1 -5 1 -11 2 -13 l0 -3 -23 0 c-23 0 -24 0 -24 -2 0 -2 1 -2 23 -2
27 0 24 1 25 -8 1 -3 1 -7 2 -8 l0 -2 -25 0 -25 0 0 -2 0 -3 25 0 26 0 2 -4
c3 -8 12 -12 28 -13 9 -1 22 0 29 3 7 2 14 8 15 12 l0 2 26 0 25 0 -11 -14
c-18 -23 -23 -29 -25 -30 -1 -1 -5 -1 -10 -1 -7 1 -9 1 -17 -2 -6 -2 -12 -3
-15 -4 -5 0 -8 -3 -8 -6 1 -2 0 -4 -1 -7 -3 -6 -3 -15 0 -20 1 -1 2 -3 2 -3 0
0 -5 -1 -12 -1 -15 0 -18 -1 -22 -8 -4 -6 -45 -87 -46 -92 -2 -5 0 -9 4 -12 3
-1 6 -2 25 -2 l22 0 0 -3 c1 -1 1 -2 1 -2 0 -1 -3 -1 -6 -2 -29 -6 -27 -26 3
-34 21 -6 53 -6 75 -1 14 3 27 11 29 18 1 5 -5 12 -14 15 l-3 1 3 4 3 4 165 0
164 0 0 -27 0 -28 3 -2 c4 -5 11 -6 23 -6 8 0 12 0 16 2 10 4 10 4 10 35 l0
26 18 0 c23 0 29 2 29 9 0 4 -2 8 -23 39 -37 55 -43 64 -46 65 -3 2 -7 2 -14
2 -6 0 -11 0 -11 1 -1 0 2 1 5 1 5 0 6 0 8 2 2 1 3 2 4 2 2 0 6 5 6 6 0 1 1 3
2 6 3 4 2 11 -1 16 -1 2 -2 5 -1 5 1 3 -3 7 -6 7 -2 1 -8 3 -13 4 -9 3 -12 3
-19 3 l-8 0 -11 11 c-6 6 -13 14 -16 17 l-5 6 84 0 84 0 0 3 0 2 -87 0 -87 0
-8 9 -9 9 43 0 44 0 2 -2 c3 -3 7 -4 11 -1 2 1 4 1 4 0 0 -1 1 -2 3 -4 4 -6
12 -3 14 4 l0 3 35 0 c34 0 35 0 35 2 0 2 -1 2 -35 2 l-34 0 4 2 c10 6 17 19
11 21 -3 1 -11 0 -14 -2 -2 -2 -2 -2 -2 3 -1 8 -3 13 -5 15 -2 2 -2 2 -4 0 -2
-1 -4 -5 -6 -8 l-3 -7 -5 4 c-5 5 -11 7 -13 5 -4 -3 -1 -13 5 -21 2 -3 3 -5 1
-5 -1 0 -2 -2 -3 -3 l-1 -4 -45 0 c-25 0 -45 0 -45 0 0 1 -2 9 -5 19 -3 10 -6
23 -7 29 l-3 11 89 0 c49 0 90 1 92 1 l3 1 0 68 0 69 6 -5 c6 -5 17 -12 18
-12 1 0 1 1 1 2 0 2 -2 4 -8 8 -17 11 -34 33 -46 58 -13 25 -24 64 -34 111 -4
19 -6 27 -11 38 -2 5 -4 10 -4 10 1 0 3 0 6 -1 3 -1 7 -1 8 -1 3 0 4 0 8 -13
13 -33 37 -74 57 -97 4 -3 10 -10 15 -15 8 -7 9 -7 9 -5 0 3 -2 5 -12 16 -19
19 -34 41 -50 71 -4 8 -18 40 -18 41 0 0 8 1 19 1 15 0 18 -1 18 -2 1 -1 2 -7
3 -14 8 -37 24 -92 28 -95 2 -1 3 0 3 2 -1 2 -4 12 -7 24 -8 23 -13 44 -18 65
-5 22 -5 20 1 20 8 2 26 5 30 6 2 1 3 2 3 4 0 2 0 2 -9 0 -19 -4 -30 -5 -50
-5 -27 -1 -50 3 -74 11 -7 2 -12 2 -18 3 l-8 0 4 -2z m57 -38 l2 -7 -104 -1
c-69 0 -103 -1 -104 -2 -1 0 -1 -15 -1 -43 l0 -42 -6 -2 c-4 0 -7 -1 -8 -1 -1
0 -1 6 -2 52 l0 53 110 0 110 0 3 -7z m4 -19 c3 -15 9 -39 14 -57 8 -32 13
-45 25 -68 l6 -13 -1 -7 0 -7 -6 0 c-3 -1 -9 -3 -15 -6 -10 -5 -14 -6 -14 -4
0 1 -1 11 -2 24 -2 24 -3 31 -2 38 1 3 1 4 -1 5 -2 2 -2 3 -2 8 0 5 0 5 -5 10
-2 3 -4 5 -4 6 0 3 -3 2 -4 -1 0 -1 -1 -3 -3 -4 -5 -4 -6 -7 -5 -12 0 -5 0 -6
-2 -6 -3 -2 -4 -7 -2 -10 1 -2 0 -16 -3 -44 -1 -10 -2 -20 -2 -20 0 -1 -1 -1
-2 -1 -1 0 -4 -1 -7 -3 l-6 -3 -45 0 -44 0 0 2 c1 1 1 9 2 18 0 19 -2 29 -8
43 -6 11 -16 22 -26 27 -7 3 -9 4 -16 4 -5 0 -11 1 -14 2 -3 1 -7 2 -9 2 l-3
1 -1 41 0 41 103 0 103 0 1 -6z m-4 -83 c0 0 -2 0 -5 0 -3 0 -5 0 -5 0 0 1 1
2 3 3 l2 2 3 -2 c1 -1 2 -3 2 -3z m-190 -1 c3 -1 5 -3 6 -4 0 -3 3 -2 4 1 0 2
0 2 5 2 19 -2 36 -20 42 -45 2 -7 2 -10 2 -25 -1 -14 -1 -18 -3 -26 -5 -17 -3
-26 6 -41 7 -10 9 -14 10 -22 1 -6 1 -8 -1 -17 -1 -5 -1 -10 -1 -11 0 -2 -2
-1 -5 4 -2 3 -5 6 -6 8 -3 2 -3 3 -3 8 0 6 -1 11 -6 19 -2 4 -5 9 -6 12 -1 5
-3 7 -4 5 -2 -2 1 -10 6 -19 4 -6 5 -10 6 -14 0 -3 0 -5 -1 -5 0 0 -3 1 -6 2
-3 1 -10 3 -16 4 -5 2 -11 3 -12 4 -3 2 -5 5 -5 10 l-1 4 6 3 c8 4 14 10 19
18 7 10 8 14 9 34 1 9 2 17 2 18 0 0 1 -1 2 -1 2 -2 4 -2 4 -1 0 1 -2 5 -5 9
-2 3 -6 10 -9 15 -7 12 -11 16 -17 19 -3 1 -5 3 -5 4 -1 4 -3 3 -4 -1 -4 -10
-15 -20 -31 -28 -4 -2 -11 -7 -16 -10 -7 -7 -16 -12 -26 -16 -11 -3 -16 -11
-18 -27 -2 -11 -4 -17 -10 -24 -9 -11 -10 -17 -7 -30 1 -7 1 -9 0 -14 -1 -4
-2 -9 -4 -13 -4 -9 -5 -15 -8 -31 -1 -8 -3 -14 -3 -14 0 0 -2 2 -3 5 -2 6 -3
15 0 21 1 4 1 8 -1 6 -3 -1 -5 -9 -5 -16 0 -6 0 -8 3 -13 2 -4 4 -7 4 -8 1 -1
1 -2 0 -3 -2 -2 -8 5 -12 13 -3 7 -3 8 -3 16 0 11 1 16 8 25 10 14 11 20 8 37
-2 17 0 28 8 38 15 19 17 23 20 30 2 4 6 15 9 26 6 22 8 28 15 38 9 11 23 20
36 23 6 1 17 0 23 -2z m191 -7 c0 -2 -1 -3 -6 -3 l-5 0 0 3 c0 3 0 3 6 3 5 0
5 0 5 -3z m4 -8 c0 -2 -1 -2 -13 -2 -5 0 -7 0 -7 1 0 2 1 2 10 2 8 0 10 0 10
-1z m-1 -13 l0 -6 -9 0 c-5 0 -9 0 -9 1 0 0 0 3 0 6 l0 5 9 0 9 0 0 -6z m-173
-8 c4 -2 9 -9 12 -14 1 -2 4 -7 7 -11 3 -6 4 -8 3 -10 -1 -1 -2 -10 -2 -19 -1
-18 -2 -23 -9 -33 -8 -12 -19 -19 -30 -19 -6 0 -8 0 -14 3 -14 7 -22 14 -28
26 -3 7 -3 7 -6 6 -7 -1 -14 7 -14 16 0 3 0 3 6 6 5 2 6 2 7 0 2 -2 4 0 4 2
-1 2 0 3 3 5 2 1 6 4 9 6 3 4 4 4 5 3 2 -1 3 -1 6 1 4 1 5 1 9 0 3 -1 5 -2 5
-1 3 2 -3 6 -10 6 -3 0 -3 0 5 4 8 4 18 13 23 20 3 4 5 5 9 3z m174 -5 c0 -2
0 -5 1 -7 l0 -5 -11 0 -11 0 0 3 c0 1 0 5 1 7 l0 5 10 -1 c10 0 10 0 10 -2z
m-366 -5 c-2 -6 -5 -21 -6 -30 -2 -12 -5 -24 -8 -29 -5 -10 -15 -20 -23 -23
-4 -1 -4 -1 0 11 3 13 8 25 15 39 4 7 6 11 5 12 -2 1 -4 -2 -8 -10 -8 -12 -13
-25 -18 -42 l-1 -6 -2 5 c-6 25 12 58 39 72 6 4 7 4 7 1z m-101 -11 c20 -10
36 -29 41 -51 2 -9 2 -19 0 -24 -1 -3 -1 -3 -5 8 -5 17 -15 39 -18 39 -2 0 -1
-2 3 -11 7 -15 16 -42 14 -42 -2 0 -10 6 -14 10 -8 9 -13 22 -15 39 -2 12 -5
20 -9 29 -2 3 -3 6 -2 6 0 0 2 -1 5 -3z m469 -5 c0 -2 0 -5 1 -7 l0 -3 -13 0
-13 0 0 4 c1 2 1 6 1 7 l0 3 12 0 12 0 0 -4z m54 -7 l7 -8 0 -70 0 -70 -90 0
-90 0 -1 7 c-1 3 -3 7 -3 8 0 1 17 1 83 1 45 0 84 0 84 1 2 0 2 7 2 70 0 39 0
70 1 70 0 0 4 -4 7 -9z m-13 -25 l0 -23 -11 0 c-7 0 -13 1 -17 2 -5 1 -8 1
-12 1 -15 -2 -19 -2 -19 -1 0 3 5 8 13 12 5 2 6 4 4 5 -1 1 -8 -2 -13 -6 -3
-1 -6 -5 -7 -8 -2 -4 -3 -4 -6 -3 -3 0 -11 0 -19 1 l-15 0 3 2 c5 3 11 9 14
14 5 8 6 8 29 11 18 1 26 3 37 9 6 4 12 6 17 6 2 0 2 -2 2 -22z m-39 15 c0 0
0 -1 0 -2 -1 0 -9 -1 -22 -2 l-6 -1 0 4 0 3 14 0 c11 0 13 0 14 -2z m-259 -25
c5 -6 5 -9 5 -19 0 -12 -1 -17 -8 -27 -3 -4 -6 -9 -7 -12 -1 -5 -2 -6 -7 -8
-3 -2 -7 -5 -9 -7 l-4 -3 0 5 c1 3 1 6 0 10 -3 8 -2 16 0 20 1 2 3 6 6 9 5 6
8 11 9 19 3 15 4 20 7 23 l2 3 2 -5 c1 -3 3 -6 4 -8z m207 4 c-4 -4 -10 -8
-16 -11 -6 -2 -7 -3 -6 -5 2 -1 17 -3 27 -3 5 0 12 0 17 -1 8 -1 15 -1 26 1 4
1 7 1 12 -1 4 -1 11 -1 19 -1 l12 0 0 -38 0 -38 -82 0 -82 1 0 4 c0 2 1 9 2
14 3 15 1 26 -8 40 -3 5 -7 11 -8 14 -2 6 -3 15 -1 23 l1 5 44 0 c25 0 45 0
45 0 0 0 -1 -2 -2 -4z m-192 -14 c1 -1 3 -5 6 -9 l4 -6 0 -8 c-2 -18 -5 -22
-20 -25 -3 -1 -7 -2 -9 -3 -2 0 -2 0 -1 3 0 1 3 6 6 10 8 11 11 23 9 37 l-1 5
3 -1 c2 0 3 -1 3 -3z m-87 -2 c0 -1 -3 -3 -6 -5 -8 -6 -14 -14 -18 -25 -7 -17
-16 -26 -28 -32 -6 -3 -19 -5 -19 -3 0 1 8 14 12 20 5 6 15 15 22 21 3 2 3 3
2 4 -1 1 -2 1 -5 -1 -10 -7 -26 -24 -31 -34 l-2 -3 1 4 c4 27 36 53 67 54 3 0
5 0 5 0z m-147 -10 c19 -9 36 -31 40 -50 3 -11 2 -11 -3 -1 -3 4 -7 11 -9 14
-9 12 -22 22 -22 18 0 -1 3 -4 8 -9 8 -8 15 -17 21 -30 l4 -8 -4 0 c-6 1 -18
7 -23 12 -6 6 -11 15 -16 30 -4 13 -6 16 -12 24 -3 4 -5 7 -5 7 0 2 15 -4 21
-7z m255 -12 c8 -6 17 -9 24 -9 l7 0 0 -5 c1 -6 4 -11 11 -14 4 -2 5 -2 6 -7
3 -12 2 -21 -3 -29 -10 -17 -34 -18 -50 -2 -5 5 -9 12 -15 26 -5 13 -5 13 -1
13 1 1 5 3 7 5 5 4 7 11 7 21 0 7 0 7 7 1z m-23 -43 c3 -8 7 -16 8 -18 4 -6
13 -14 20 -18 5 -2 7 -2 16 -2 9 0 11 0 15 2 13 7 20 22 17 40 0 5 -1 9 -1 9
1 0 10 -2 10 -3 1 0 2 -7 3 -15 1 -7 3 -16 4 -18 5 -21 7 -39 5 -48 -1 -3 -3
-8 -5 -13 -6 -14 -9 -31 -6 -44 1 -6 1 -6 -1 -9 -3 -3 -9 -5 -20 -8 -11 -3
-39 -3 -52 -1 -14 3 -31 9 -34 12 -1 1 0 4 1 8 2 12 2 24 0 38 -2 15 -1 23 4
32 5 7 6 14 6 27 0 13 -1 22 -5 31 -3 9 -3 10 2 11 7 2 7 2 13 -13z m-20 4 c5
-12 8 -35 5 -46 l-1 -6 -1 4 c0 4 0 5 -2 5 -1 0 -2 -3 -3 -10 -1 -12 -10 -49
-15 -63 -11 -31 -19 -40 -61 -73 -7 -6 -12 -10 -17 -17 -4 -6 -9 -12 -11 -14
-6 -4 -18 -10 -20 -10 -3 1 -2 3 3 5 6 4 8 5 8 7 -1 1 -17 -6 -18 -9 -1 -2 -2
-3 -4 -1 -3 2 -2 4 5 7 6 3 8 5 6 6 -1 0 -5 -2 -10 -4 -7 -4 -12 -5 -12 -3 0
2 3 4 6 5 6 2 11 5 11 7 0 2 -2 1 -11 -3 -7 -3 -7 -3 -9 -1 -4 3 -5 13 -1 18
2 3 4 2 4 -4 0 -13 4 -12 17 2 3 4 4 7 2 7 0 0 -5 0 -10 0 -9 1 -12 2 -11 4 1
1 3 1 5 1 1 0 7 1 12 3 8 3 18 4 24 3 4 -2 10 3 22 19 6 8 15 19 20 24 4 6 9
12 11 14 2 3 4 7 5 11 3 10 12 47 14 60 1 6 3 14 4 19 2 11 6 19 13 26 5 6 14
12 17 12 0 0 2 -2 3 -5z m117 1 c8 -5 15 -14 19 -24 2 -6 4 -13 7 -26 4 -21 6
-28 11 -44 2 -9 5 -16 6 -17 0 -2 13 -15 29 -31 l28 -28 8 0 c6 0 11 -1 17 -2
4 -2 10 -3 13 -4 8 -2 6 -4 -4 -3 -9 0 -10 -1 -9 -5 2 -6 13 -15 15 -12 0 0 1
3 1 6 1 3 1 6 1 6 0 0 1 -1 2 -2 3 -3 5 -8 3 -12 -1 -3 -1 -3 -6 -2 -3 0 -7 1
-9 2 -5 1 -7 1 -7 -1 0 -2 6 -4 12 -5 5 0 7 -2 5 -4 -1 -1 -2 -1 -3 0 -1 0 -4
1 -6 1 -2 1 -7 2 -9 3 -7 1 -8 1 -8 0 0 -2 3 -4 16 -6 5 -1 3 -3 -1 -3 -14 0
-25 5 -36 16 -15 16 -19 19 -37 32 -35 23 -42 31 -52 59 l-6 16 3 8 c2 7 2 8
2 22 -1 12 -1 16 -3 24 -3 7 -8 34 -8 38 0 2 1 1 6 -2z m-283 -52 l0 -4 -7 0
c-4 -1 -10 -2 -13 -2 -4 -1 -6 -1 -9 0 -8 3 -6 6 8 8 4 1 11 2 14 2 l7 0 0 -4z
m38 2 c14 -2 16 -5 9 -7 -3 -2 -5 -2 -12 0 -4 0 -9 1 -12 1 l-4 0 0 4 0 4 6 0
c3 0 9 -1 13 -2z m-37 -11 c0 -1 -1 -1 -2 -1 -1 0 -4 0 -7 0 -4 0 -4 0 -1 1 6
1 10 1 10 0z m27 0 c1 -1 0 -1 -4 -1 -3 0 -5 0 -5 1 0 1 6 1 9 0z m23 -6 c0
-8 -1 -8 -14 -11 -19 -5 -58 -3 -68 3 -2 2 -3 3 -3 8 -1 3 -1 6 -1 6 1 0 3 -1
5 -1 6 -3 25 -5 37 -5 13 0 34 2 40 5 2 1 5 2 5 1 0 0 0 -3 -1 -6z m394 -16
c0 -8 -1 -8 -4 -12 -2 -2 -4 -3 -5 -3 -3 2 1 19 6 26 2 2 3 -3 3 -11z m-20 3
c4 -3 6 -7 6 -12 l0 -4 -3 2 c-4 2 -10 12 -10 16 0 2 0 2 2 1 1 -1 4 -2 5 -3z
m-447 -3 c10 -2 49 -2 60 0 5 1 8 2 9 2 1 -1 -2 -26 -4 -41 -2 -12 -2 -12 -5
-16 -5 -4 -13 -6 -27 -7 -18 0 -29 3 -33 10 -2 3 -3 5 -5 26 -3 26 -3 28 -2
28 0 0 4 -1 7 -2z m486 -5 c0 -2 -9 -11 -13 -12 -4 -1 -9 -1 -9 -1 0 1 3 3 6
6 7 8 16 11 16 7z m-302 -12 l1 -5 -3 0 c-3 0 -3 0 -3 2 1 1 2 4 2 6 2 6 2 5
3 -3z m121 -1 l1 -4 -4 0 c-3 0 -3 0 -3 2 2 5 3 9 4 7 0 -1 1 -3 2 -5z m150
-1 c1 -1 1 -1 -1 -3 -2 -3 -7 -5 -9 -5 -1 1 -1 5 0 7 2 3 8 4 10 1z m12 -7 c1
-2 1 -3 0 -5 -2 -2 -5 -1 -6 3 -2 3 -2 4 0 5 2 1 5 0 6 -3z m-334 -1 c0 -3 -2
-7 -6 -12 l-3 -5 -28 0 -27 0 0 2 c1 1 1 5 2 9 0 3 0 6 1 6 0 1 14 1 31 1 25
0 30 0 30 -1z m52 -3 c0 -3 0 -7 -1 -9 l0 -5 -6 0 c-6 0 -6 0 -6 2 1 1 2 4 3
8 1 3 2 6 3 7 0 1 1 1 4 1 3 0 3 -1 3 -4z m124 -3 c2 -4 3 -8 4 -9 1 -2 1 -2
-7 -2 -9 0 -9 0 -9 7 1 2 1 5 1 7 l0 4 5 0 4 0 2 -7z m-127 -19 c0 -2 0 -4 1
-5 1 -2 -3 -11 -8 -17 -3 -3 -7 -9 -10 -14 -5 -8 -6 -9 -8 -9 -2 0 -6 -1 -8
-3 -3 -1 -8 -3 -10 -3 -2 -1 -7 -2 -10 -2 -3 -1 -7 -2 -9 -2 l-4 -1 5 4 c22
17 41 37 47 50 l2 5 6 0 7 0 -1 -3z m139 -2 c7 -8 18 -18 31 -26 15 -10 29
-20 29 -21 -1 0 -30 2 -39 3 -6 1 -14 2 -19 2 l-9 0 -3 5 c-1 3 -4 9 -7 12 -2
3 -4 7 -4 7 0 1 -1 4 -2 6 -1 3 -1 4 0 7 1 2 2 4 1 6 l0 4 9 0 10 0 3 -5z
m-125 -12 c3 -1 11 -3 16 -5 9 -2 11 -2 33 -2 25 -1 29 0 42 5 l6 3 2 -4 c0
-2 1 -4 1 -4 -1 -2 -10 -7 -20 -9 -17 -4 -47 -4 -66 1 -11 3 -22 8 -25 10 -1
2 -1 2 0 6 1 2 3 3 3 3 1 -1 4 -2 8 -4z m-9 -11 c5 -4 19 -8 32 -11 6 -1 14
-1 27 -1 21 0 30 1 42 6 4 2 8 3 9 4 3 0 12 -14 12 -19 0 -2 1 -2 9 -2 11 0
22 -1 22 -2 0 0 -3 -2 -6 -4 -10 -5 -19 -16 -25 -29 l-6 -10 -8 -6 c-5 -3 -13
-8 -18 -11 -10 -5 -10 -5 -13 -4 -10 4 -13 4 -20 3 l-8 -2 -8 4 c-5 3 -13 7
-19 10 -11 4 -11 4 -14 10 -9 18 -25 32 -39 36 -4 1 -4 1 -3 2 4 2 16 0 26 -3
9 -3 20 -9 25 -14 1 -2 3 -3 4 -3 6 0 -5 11 -18 17 -4 2 -12 5 -17 6 l-9 3 5
7 c4 7 12 16 13 16 0 0 2 -1 5 -3z m256 -25 c0 0 0 -2 -1 -4 l0 -3 -4 3 c-4 4
-4 6 1 5 2 0 4 -1 4 -1z m-63 -3 c6 -2 7 -2 16 -11 10 -10 15 -13 25 -16 l4
-1 0 -7 c0 -14 -9 -25 -30 -35 -11 -6 -25 -9 -54 -14 -5 -1 -12 -3 -16 -3 -5
-1 -17 -3 -27 -5 -11 -2 -28 -6 -39 -8 -26 -5 -32 -6 -56 -7 -16 -2 -21 -2
-25 -4 l-5 -2 0 2 c0 2 -1 2 -9 0 -2 -1 -5 -2 -5 -1 -1 0 1 1 4 2 7 2 10 4 8
5 0 1 -4 0 -8 -1 -8 -2 -12 -2 -13 0 0 2 1 2 4 2 5 0 13 3 13 5 0 2 0 2 -7 0
-4 -1 -5 -1 -6 0 -2 2 1 6 6 8 2 1 6 3 7 4 1 2 5 4 7 5 5 1 7 2 29 1 11 0 12
0 18 3 3 1 9 5 12 8 4 4 7 6 10 7 5 1 13 1 16 -1 2 -1 2 -1 -1 -3 -2 -1 -3 -2
-2 -3 2 -2 19 6 48 24 26 16 41 23 55 25 4 0 7 0 8 1 1 0 5 0 8 0 5 0 7 0 7 1
0 3 -6 3 -18 3 -15 -1 -31 -7 -48 -17 -3 -2 -5 -3 -6 -3 0 0 1 2 3 5 10 16 16
23 27 29 7 3 7 3 20 3 8 0 16 -1 20 -1z m-219 -7 c11 -5 21 -15 28 -27 l2 -4
-3 1 c-2 1 -6 3 -9 4 -16 8 -38 11 -51 9 -7 -1 -11 -3 -9 -5 0 -1 3 -1 7 0 13
2 26 1 39 -3 4 -1 13 -6 22 -10 9 -3 19 -8 23 -10 4 -2 11 -5 15 -7 l8 -4 -5
-5 c-9 -8 -17 -10 -30 -9 -16 2 -26 1 -33 -5 -6 -5 -13 -8 -16 -8 -4 0 -26 5
-36 7 -11 4 -26 11 -32 15 -5 5 -9 13 -9 19 0 5 0 5 5 8 6 3 16 13 22 22 2 3
4 6 5 7 5 4 29 9 42 9 7 -1 9 -1 15 -4z m-109 -1 c0 -1 -6 -8 -7 -8 -1 0 -1 4
0 6 0 1 1 2 4 2 1 0 3 0 3 0z m-15 -30 c2 -2 4 -3 5 -3 2 0 3 0 3 -1 0 -2 6
-4 9 -4 2 0 6 0 9 0 l5 0 0 -5 c0 -16 19 -30 51 -38 10 -2 23 -5 28 -5 2 0 2
-1 2 -3 0 -1 -1 -3 -2 -4 -3 -3 -2 -9 3 -11 1 0 3 -1 5 -2 2 -3 8 -4 14 -4 2
0 6 1 9 3 5 2 9 2 27 4 12 0 23 1 24 1 1 1 6 1 11 2 4 1 13 2 21 4 12 3 13 3
19 1 9 -2 28 -4 45 -5 13 -1 18 -2 25 -4 7 -2 8 -2 11 -1 2 1 4 2 5 2 2 0 8 5
9 9 2 5 -4 13 -11 14 -5 2 -4 3 1 4 8 1 24 6 31 10 21 10 31 21 33 33 l0 5 12
0 c11 0 12 0 14 -2 4 -4 60 -89 63 -95 2 -3 2 -6 -1 -8 -1 0 -10 -1 -21 -1
l-19 0 0 8 c0 6 -1 8 -2 10 -3 2 -8 5 -11 5 -2 0 -2 0 -1 3 2 6 -1 16 -7 22
-4 3 -6 2 -10 -3 -4 -6 -5 -12 -5 -18 1 -4 1 -4 -1 -4 -4 0 -11 -3 -13 -5 -2
-1 -2 -3 -2 -10 l0 -8 -163 0 -163 0 0 2 c2 6 2 9 1 13 -3 6 -7 9 -12 10 -4 0
-5 1 -5 3 -2 6 -9 11 -20 14 -12 2 -22 2 -34 1 -13 -2 -20 -5 -24 -9 -2 -2 -2
-3 -2 -10 0 -4 0 -11 0 -16 l1 -8 -20 0 c-17 0 -20 1 -23 2 -3 2 -3 3 -3 6 1
3 28 59 40 82 9 16 9 16 25 16 11 0 12 0 14 -2z m324 -53 c8 -4 11 -7 10 -10
-1 -2 -5 -1 -11 2 -6 2 -10 2 -8 0 1 -1 7 -4 13 -7 1 0 1 0 -1 -1 -1 0 -4 1
-7 2 -6 2 -8 1 -4 -2 2 -2 2 -2 -3 0 -3 1 -10 2 -15 2 -16 2 -49 5 -50 5 0 1
1 1 14 3 5 1 19 4 31 6 11 2 21 4 21 4 1 0 5 -2 10 -4z m97 -13 c0 -2 1 -5 1
-7 0 -4 -1 -5 -3 -8 l-2 -2 -1 3 c0 3 -1 4 -2 4 -1 0 -2 -2 -2 -4 -1 -2 -1 -2
-2 0 -2 3 -1 10 2 16 l2 5 3 -2 c1 -1 3 -4 4 -5z m-393 -1 c4 -1 10 -5 11 -7
0 0 -1 -1 -2 -2 -2 -1 -3 -1 -5 1 -10 5 -42 5 -53 -1 -4 -2 -5 -2 -7 0 l-2 1
2 3 c3 2 8 5 16 6 6 1 35 0 40 -1z m-6 -10 c11 -2 10 -2 -6 -5 -11 -1 -14 -1
-22 0 -6 1 -11 1 -12 2 -2 1 -2 1 2 2 3 0 5 1 7 1 4 1 26 1 31 0z m16 -25 c-1
-7 -3 -14 -3 -16 -3 -5 -10 -12 -15 -13 -7 -2 -22 -2 -29 0 -14 5 -19 14 -21
40 l0 10 7 -3 c7 -2 9 -2 26 -2 18 -1 24 0 33 4 l4 2 0 -5 c0 -2 -1 -10 -2
-17z m16 17 c5 -3 6 -10 3 -17 -3 -8 -18 -19 -16 -12 0 2 2 3 4 5 5 2 9 9 9
14 0 4 -4 8 -8 8 -2 -1 -2 0 -2 2 0 2 0 2 3 2 2 0 5 -1 7 -2z m356 -2 c1 0 2
-1 2 -2 0 -3 3 -3 4 0 0 2 4 3 10 3 4 0 9 -3 9 -4 -2 -5 -38 -5 -42 0 -3 3 12
6 17 3z m-360 -8 c0 -2 -1 -4 -3 -7 l-4 -3 1 6 c0 7 1 7 3 7 2 0 3 -1 3 -3z
m353 -3 c6 -1 23 -1 29 1 l3 1 0 -32 0 -33 -3 -2 c-7 -5 -30 -5 -37 0 l-3 2 0
33 0 32 3 0 c1 -1 5 -1 8 -2z m-430 -25 c5 -9 17 -14 33 -14 15 0 25 4 30 12
2 3 3 4 8 5 6 1 6 1 11 -1 14 -6 13 -12 -2 -20 -22 -11 -76 -10 -98 1 -4 2 -9
7 -9 10 0 5 12 12 22 12 2 0 3 -1 5 -5z M459 725 c-8 -4 -12 -11 -12 -19 -1 -7 2 -12 7 -16 4 -3 5 -3 11 -4
7 0 12 2 17 6 4 5 6 15 4 22 -2 4 -8 10 -12 11 -5 1 -12 1 -15 0z m18 -7 c1
-1 3 -4 4 -6 2 -4 2 -5 1 -9 -4 -13 -19 -17 -27 -7 -3 4 -3 5 -3 10 0 8 4 14
12 15 4 1 10 0 13 -3z M346 719 c-5 -1 -10 -5 -12 -10 -2 -3 -3 -3 -7 -3 -2 0 -6 -1 -8 -2
-7 -3 -10 -12 -6 -18 3 -5 4 -5 42 -5 39 1 39 1 41 6 2 4 1 7 -3 11 -3 4 -7 6
-13 6 l-5 0 -3 5 c-5 8 -16 13 -26 10z m15 -6 c5 -3 9 -9 9 -13 0 -3 2 -3 6
-1 5 2 9 1 13 -3 3 -4 4 -7 1 -9 -1 -1 -14 -1 -36 -1 -39 0 -38 0 -38 6 0 4 3
8 7 9 1 0 4 0 7 0 5 -1 5 -1 6 2 3 10 15 15 25 10z M423 646 c-1 -1 -3 -2 -4 -3 -2 -2 -2 -2 -6 0 -6 3 -14 2 -13 -2 1
-2 1 -2 3 -1 3 2 8 0 11 -4 3 -3 4 -3 5 1 2 3 6 5 11 5 2 0 3 0 3 1 0 3 -5 4
-10 3z M451 611 c-1 0 -2 -1 -3 -2 -1 -2 -1 -2 -4 0 -3 1 -8 1 -10 -1 -2 -2
-1 -2 4 -3 3 0 5 -1 7 -2 l2 -2 3 3 c1 1 4 3 6 3 2 1 3 2 3 3 -1 2 -4 2 -8 1z M329 645 c0 -2 1 -2 8 -5 7 -3 14 -10 18 -18 3 -7 5 -9 5 -4 0 4 -4
13 -9 17 -7 7 -20 13 -22 10z M310 641 c-12 -2 -19 -7 -31 -23 -10 -14 -18 -21 -29 -24 -3 -1 -2
-4 0 -4 8 0 21 10 30 21 7 10 16 20 20 22 1 1 6 2 11 4 5 1 8 2 8 3 0 2 -3 2
-9 1z M335 593 c-2 -1 -3 -4 -1 -5 1 0 2 0 3 1 1 1 2 1 5 1 7 -2 8 -2 9 0
0 1 -7 4 -11 4 -2 0 -4 -1 -5 -1z M289 571 c0 -1 1 -2 3 -4 2 -2 4 -3 6 -3 4 0 8 2 8 5 0 2 -2 3 -4 0
-3 -2 -5 -1 -7 1 -2 2 -5 3 -6 1z M323 571 c-2 -1 -1 -10 1 -14 2 -4 1 -6 -2 -7 -1 0 -2 -1 -2 -2 0 -2
4 -2 7 -1 3 3 4 6 1 10 -1 2 -2 6 -2 9 0 5 -2 7 -3 5z M335 570 c-2 -1 -1 -4 1 -5 3 -2 8 -1 10 2 1 1 2 3 1 3 0 2 -3 1 -3
0 -1 -2 -5 -2 -7 0 -1 0 -2 1 -2 0z M259 569 c-2 -2 2 -11 5 -11 1 0 1 2 0 6 -1 1 -2 3 -2 4 -1 2 -2 3
-3 1z M303 540 c-1 -2 6 -8 10 -9 7 -1 18 4 15 7 -1 1 -1 1 -3 0 -2 -1 -4
-2 -8 -2 -4 0 -5 0 -8 3 -4 3 -5 4 -6 1z M393 548 c-1 -1 -4 -1 -7 -1 -5 0 -7 -1 -5 -3 1 -1 2 -1 22 -1 11 0
13 1 13 2 0 2 0 2 -17 4 -2 0 -5 0 -6 -1z M419 521 c-5 -2 -6 -2 -10 -1 -4 1 -6 1 -6 -1 0 -4 13 -5 20 -2 2 1
5 2 7 2 1 0 4 -1 6 -2 5 -2 11 -3 18 -1 5 2 7 2 11 0 6 -1 13 -1 15 0 1 0 2 1
2 2 0 2 0 2 -4 2 -2 -1 -6 -1 -8 0 -8 2 -13 2 -17 1 -5 -3 -10 -2 -15 0 -5 3
-12 2 -19 0z M500 506 c-6 -1 -9 -2 -13 -1 -5 0 -6 0 -6 -1 0 -4 11 -5 20 -2 l6 2
7 -2 c7 -3 15 -3 19 0 2 1 2 4 -1 3 -1 0 -3 0 -5 -1 -2 0 -6 1 -11 2 -5 2 -9
3 -9 3 0 0 -4 -1 -7 -3z M448 486 c-3 -1 -8 -2 -12 -2 -6 0 -7 -1 -7 -2 0 -1 1 -2 1 -2 3 -2
13 -1 18 1 6 3 8 2 16 0 8 -3 15 -2 15 1 0 2 -1 2 -5 2 -4 0 -8 1 -11 2 -8 2
-8 2 -15 0z M521 483 c-2 -1 -5 -1 -8 -1 -2 1 -4 1 -5 0 -3 -4 9 -6 16 -3 4 2 4
2 8 1 5 -3 11 -2 12 0 0 2 -2 3 -4 2 -1 0 -4 0 -6 1 -5 2 -8 2 -13 0z M322 478 c-5 -1 -7 -4 -5 -5 1 -1 2 -1 5 0 2 1 6 2 8 2 4 0 4 2 1 3
-3 1 -5 1 -9 0z M277 477 c-1 -2 2 -3 6 -3 2 0 6 -1 9 -1 6 -2 6 -2 6 0 0 1 -1 2 -4
3 -5 2 -16 3 -17 1z M299 385 c-4 -2 -14 -4 -18 -4 -4 0 -5 0 -5 -1 0 -2 7 -3 13 -3 6 1
16 6 16 8 0 2 -2 2 -6 0z M133 283 c-5 -5 -8 -10 -7 -13 1 -1 1 -1 3 1 1 1 2 2 2 3 0 0 2 3 5
6 2 3 4 5 4 6 0 2 -3 1 -7 -3z M463 298 c-1 -1 13 -10 15 -10 2 1 -1 5 -7 8 -5 3 -7 4 -8 2z M372 326 c-1 -1 -1 -2 0 -3 2 -2 15 -1 17 0 1 1 1 2 0 3 -2 1 -16 1
-17 0z M351 290 c-10 -8 -24 -26 -23 -29 2 -2 4 -1 9 7 2 4 8 11 13 16 8 7
10 10 7 10 0 0 -3 -2 -6 -4z M263 289 c0 -1 1 -3 3 -4 8 -6 13 -11 18 -17 2 -4 5 -7 5 -6 4 2 -6
17 -17 24 -7 4 -9 5 -9 3z M535 701 c0 -5 7 -26 16 -46 12 -29 26 -52 40 -66 l9 -9 0 3 c0 3 -1
4 -7 10 -16 18 -35 54 -50 95 -3 10 -5 15 -6 15 -1 0 -2 -1 -2 -2z M17 325 c-2 -3 3 -3 63 -3 58 0 61 1 62 2 0 2 -3 2 -62 2 -36 0 -63
0 -63 -1z M469 325 c0 -1 1 -2 2 -2 2 -1 100 -1 102 0 4 3 -1 3 -52 3 -44 0
-52 0 -52 -1z M0 289 c0 -2 1 -2 35 -2 20 0 36 0 36 1 1 0 0 1 0 2 -1 1 -8 1 -36 1
-34 0 -35 0 -35 -2z M529 290 c-2 -3 1 -3 36 -3 34 0 35 0 35 2 0 2 -1 2 -35 2 -23 0 -36
0 -36 -1z M1 245 c-1 0 -1 -2 -1 -2 1 -2 3 -2 16 -2 12 0 14 0 15 2 1 2 -2 3
-15 3 -8 0 -14 0 -15 -1z M544 245 c-5 -3 1 -4 29 -4 l27 0 0 2 0 3 -28 0 c-21 0 -27 0 -28 -1z M0 196 c0 -3 0 -3 6 -3 7 0 10 1 9 3 -1 2 -2 2 -8 2 -7 0 -7 0 -7 -2z M573 197 c-1 -1 -1 -2 0 -3 1 -1 5 -1 14 -1 l13 0 0 3 0 2 -13 0 c-8
0 -13 0 -14 -1z M444 139 c-4 -4 -6 -9 -6 -15 0 -6 0 -6 -4 -6 -1 -1 -4 -2 -6 -4 l-3
-2 0 -18 c0 -18 0 -18 2 -20 4 -4 10 -5 21 -5 11 -1 18 2 21 6 2 2 2 4 2 20
l0 17 -3 2 c-2 2 -5 3 -7 4 -3 0 -3 0 -3 4 1 5 -1 11 -5 16 -4 5 -6 5 -9 1z
m7 -6 c3 -5 4 -11 1 -14 -2 -3 -3 -3 -3 1 0 4 -2 4 -3 0 -1 -7 -4 -1 -4 6 1 5
4 11 6 11 1 0 2 -2 3 -4z m-7 -22 c2 -3 5 -3 5 -1 0 2 5 4 8 4 3 0 9 -3 9 -4
0 -1 -2 -2 -4 -3 -5 -2 -24 -2 -29 0 -5 2 -4 3 0 6 5 2 8 1 11 -2z m-10 -9 c5
-2 22 -2 28 0 l4 2 0 -13 c0 -14 0 -15 -7 -17 -5 -1 -19 -1 -23 0 -7 2 -7 3
-7 17 0 7 0 13 0 13 1 0 2 -1 5 -2z M282 138 c-4 -2 -7 -2 -13 -2 -9 0 -14 -2 -19 -7 -2 -1 -3 -2 -4 -2
-1 1 -8 -1 -11 -3 -1 -1 -4 -2 -6 -3 -4 -1 -8 -5 -8 -7 0 0 -1 -2 -3 -4 -5 -6
-5 -13 1 -19 3 -4 4 -6 8 -21 5 -22 6 -24 18 -29 33 -16 95 -12 112 7 2 2 5 6
5 9 1 3 3 10 5 16 2 8 4 12 6 15 4 4 4 7 2 15 -1 6 -3 10 -5 11 -2 0 -3 1 -4
3 -2 3 -9 7 -12 7 -1 0 -2 1 -3 2 -2 2 -9 5 -14 5 -3 0 -6 1 -10 3 -7 3 -13 4
-19 3 -3 -1 -5 -1 -8 0 -7 3 -12 3 -18 1z m16 -5 c5 -2 7 -2 9 -1 6 2 15 0 21
-4 2 -1 4 -2 8 -2 5 0 8 -1 12 -5 2 -1 4 -2 6 -2 3 0 8 -3 9 -6 0 -1 2 -3 4
-3 3 -2 3 -2 3 -6 0 -2 0 -4 1 -5 1 0 1 -1 1 -3 0 -3 -5 -8 -10 -9 -2 -1 -4
-2 -5 -4 -3 -4 -10 -7 -17 -7 -4 0 -7 -1 -12 -3 -7 -3 -13 -4 -17 -2 -3 1 -5
1 -12 0 -10 -2 -15 -2 -20 1 -3 1 -6 1 -13 1 -8 0 -9 1 -14 4 -3 2 -6 3 -9 3
-5 0 -7 1 -15 8 -7 7 -9 9 -9 14 0 2 1 3 3 5 2 1 3 3 3 4 0 2 5 6 8 6 1 0 2 1
3 2 2 2 7 4 10 4 3 -1 4 0 7 2 5 6 11 8 17 6 4 -1 5 -1 10 1 7 4 10 4 18 1z
m64 -62 c-6 -20 -7 -21 -16 -26 -12 -6 -28 -9 -49 -9 -22 0 -39 3 -52 9 -7 4
-9 6 -13 22 -2 7 -4 14 -4 14 1 0 3 -1 5 -3 3 -1 7 -2 9 -2 3 0 5 -1 7 -3 4
-3 12 -5 19 -5 4 1 7 1 10 -1 5 -2 16 -3 22 -1 3 1 5 1 10 0 8 -1 13 -1 20 3
3 1 6 2 10 2 8 0 14 2 20 8 2 2 4 4 4 4 1 0 -1 -6 -2 -12z M272 125 c-1 -1 -4 -2 -5 -3 -2 -2 -4 -2 -6 -2 -4 1 -10 -1 -14 -5
-2 -1 -5 -3 -6 -4 -7 -1 -13 -6 -13 -11 0 -3 6 -9 9 -9 2 0 4 -1 7 -3 5 -5 6
-5 18 -7 6 0 13 -2 17 -3 5 -2 6 -2 15 -1 7 1 11 1 15 0 6 -1 13 0 17 2 2 1 6
2 10 2 6 0 9 1 11 3 1 1 4 2 6 3 6 2 12 9 10 14 0 1 -3 4 -6 7 -5 5 -9 7 -14
7 -1 0 -4 1 -6 3 -4 3 -5 4 -12 4 -6 0 -9 0 -12 2 -4 2 -6 2 -11 2 -4 -1 -8
-1 -10 -2 -3 -2 -3 -2 -7 0 -5 2 -9 2 -13 1z m14 -6 c2 -1 4 -1 8 0 6 2 14 3
17 1 2 -1 4 -2 5 -3 2 -2 2 -2 5 -1 5 2 10 1 14 -2 3 -3 5 -4 8 -4 4 0 11 -3
11 -5 0 -1 0 -1 0 -2 0 -1 2 -2 3 -3 3 -2 2 -4 -1 -7 -2 -1 -4 -1 -6 -1 -2 1
-3 2 -3 5 -1 2 -2 4 -3 6 -1 1 -3 3 -5 5 -4 4 -9 5 -13 2 -1 -1 -4 -2 -5 -2
-2 -1 -2 -1 -1 0 0 1 0 2 -1 3 -1 0 -3 2 -5 3 -4 4 -10 4 -14 0 -4 -4 -12 -5
-15 -2 -2 2 -8 3 -10 0 -1 -1 -2 -1 -4 -1 -3 1 -10 -1 -11 -2 0 -1 -1 -2 -4
-1 -4 0 -8 -3 -8 -7 0 -1 -1 -2 -2 -3 -1 -1 -3 -2 -4 -2 -2 -1 -3 -1 -5 0 -7
3 -4 10 5 11 3 0 5 1 8 4 4 4 4 5 10 5 6 0 7 0 10 2 3 3 4 3 8 3 2 -1 6 -1 8
-2z m24 -7 c5 -3 6 -12 2 -12 -2 0 -3 -1 -4 -1 -1 -1 -3 -2 -5 -2 -1 0 -4 -1
-4 -2 -2 -2 -2 -7 0 -10 0 -1 1 -2 1 -3 -1 0 -4 0 -7 -1 l-6 0 2 3 c3 5 2 9
-2 11 -1 1 -4 2 -4 3 -2 2 -8 3 -10 1 -1 -1 -2 -1 -4 2 -1 2 -3 3 -4 3 0 0 -1
0 -1 1 0 2 3 2 7 0 3 -1 4 -1 5 0 1 1 2 2 2 3 0 1 0 2 2 2 2 0 3 -2 4 -5 1 -2
6 -5 7 -4 0 1 0 2 -1 3 -1 2 -1 2 4 3 2 1 3 0 5 -1 3 -3 7 -5 8 -4 3 1 2 2 -1
4 -4 2 -5 4 -3 6 2 1 4 1 7 0z m26 -9 c0 -1 1 -2 2 -2 2 0 4 -2 4 -5 0 -2 -1
-2 -3 -2 -4 0 -5 -3 -2 -4 2 -1 3 -1 5 0 3 1 5 0 3 -2 -1 -2 -10 -3 -14 -2 -2
0 -3 1 -3 3 0 3 -2 7 -5 7 -5 1 -5 7 0 7 2 0 4 1 5 3 3 2 3 2 5 1 1 -1 2 -2 3
-4z m-76 -1 c1 -1 3 -2 5 -2 3 -1 3 -5 -1 -7 -3 -1 -3 -2 -3 -4 1 -3 0 -3 -2
-3 -4 0 -12 4 -12 6 -1 0 0 2 2 3 2 1 3 2 3 4 0 5 3 6 8 3z m21 -9 c2 -3 4 -5
4 -3 0 1 0 1 1 1 2 0 1 -3 -1 -5 -2 -1 -3 -2 -3 -3 0 -1 -2 -1 -10 2 -6 2 -8
4 -6 5 1 1 3 1 5 2 2 1 4 2 4 3 1 2 4 1 6 -2z m35 1 c0 -3 1 -4 3 -3 4 2 7 -4
4 -8 -2 -3 -18 -2 -18 0 0 1 -1 3 -2 4 -1 1 -2 2 -2 3 0 2 1 2 4 2 2 0 4 1 5
2 1 1 2 2 4 2 1 0 2 -1 2 -2z M551 119 c-3 -5 -5 -11 -5 -15 1 -3 0 -3 -3 -5 -2 -1 -4 -2 -5 -3 -1
-1 -1 -9 -1 -17 0 -14 0 -16 2 -17 5 -5 19 -6 27 -3 8 2 8 3 9 20 0 16 0 18
-6 20 -3 2 -3 2 -3 7 -1 8 -6 17 -11 17 0 0 -2 -2 -4 -4z m8 -5 c3 -6 3 -14 0
-14 0 0 -1 1 -1 2 -1 3 -3 2 -4 -1 0 -4 -3 0 -3 5 0 4 3 12 5 12 0 0 2 -2 3
-4z m-7 -19 c1 -1 2 -2 2 -3 0 -3 3 -3 4 -1 1 5 6 6 10 4 3 -1 3 -4 0 -5 -3
-2 -20 -2 -24 0 -4 2 -4 3 1 5 4 2 4 2 7 0z m-1 -11 c6 -1 15 0 18 2 1 0 1 -4
1 -10 l0 -11 -3 -2 c-4 -2 -18 -2 -22 0 l-4 2 0 11 c0 9 0 10 2 10 1 -1 4 -2
8 -2z M0 112 c0 -2 0 -2 14 -2 12 0 15 1 15 2 0 1 -3 2 -15 2 -14 0 -14 0
-14 -2z M173 113 c-1 0 -1 -1 -1 -2 0 -1 3 -1 16 -1 13 0 16 1 16 2 0 1 -3 2
-16 2 -8 0 -15 0 -15 -1z M391 112 c0 -2 0 -2 10 -2 9 0 11 1 11 2 0 1 -2 2 -11 2 -10 0 -10 0
-10 -2z M577 113 c-2 -2 1 -3 12 -3 10 0 11 0 11 2 0 2 -1 2 -11 2 -7 0 -12
0 -12 -1z M108 80 c-18 -7 -24 -9 -29 -8 -5 1 -12 1 -16 -2 -1 -1 -5 -1 -12 -1
-18 0 -29 -1 -31 -3 -1 -2 -1 -2 1 -6 3 -4 42 -42 47 -45 4 -3 8 -3 24 2 l14
3 8 -5 c6 -3 10 -4 13 -4 2 0 13 3 32 10 35 14 42 17 43 19 1 3 -2 5 -17 12
-7 3 -15 7 -17 8 l-3 2 9 3 c13 4 17 7 18 10 0 2 -1 3 -3 5 -2 1 -3 1 -13 0
-6 -1 -16 -3 -22 -5 l-11 -3 -7 4 c-14 8 -17 8 -28 4z m20 -5 c4 -2 8 -4 8 -5
0 0 -5 -2 -10 -4 l-10 -3 -6 1 c-3 1 -8 3 -12 4 l-6 1 13 5 c7 3 13 5 14 5 0
0 4 -2 9 -4z m59 1 c2 -2 -26 -12 -43 -16 -4 0 -12 -2 -17 -4 -10 -3 -11 -3
-13 -7 -6 -10 -17 -14 -28 -8 -6 3 -22 16 -23 19 -1 3 0 5 3 7 4 2 13 1 29 -3
8 -2 17 -5 20 -5 3 0 8 1 22 6 30 10 49 14 50 11z m-129 -15 c0 -3 1 -5 5 -8
6 -7 19 -16 25 -18 12 -3 24 1 29 10 2 4 4 5 7 6 4 1 5 0 16 -5 6 -4 12 -7 13
-8 1 -1 -2 -2 -34 -10 -7 -2 -18 -5 -25 -7 -7 -1 -15 -3 -17 -4 l-5 0 -8 7
c-4 4 -15 15 -24 23 l-16 17 15 0 c20 1 18 1 19 -3z m104 -3 c3 -2 11 -6 19
-9 14 -6 16 -8 15 -8 -1 -1 -28 -11 -52 -20 -8 -3 -16 -6 -17 -6 -2 0 -5 2 -8
3 -4 3 -5 4 -3 4 1 1 7 2 14 4 16 4 31 9 31 10 2 2 -1 4 -13 10 -7 4 -13 8
-12 8 0 0 5 1 11 3 6 2 11 3 11 3 0 0 2 -1 4 -2z M85 57 c-6 -2 -4 -3 5 -4 6 0 8 0 9 1 1 1 1 2 1 3 -1 1 -11 1 -15 0z M95 48 c-8 -2 -8 -2 -6 -3 4 -2 15 0 16 4 0 1 -2 1 -10 -1z M47 50 c0 -2 9 -9 10 -9 2 2 1 3 -3 7 -5 4 -7 5 -7 2z M65 35 c-1 -2 11 -11 13 -9 2 1 0 3 -5 7 -5 3 -7 4 -8 2z M407 56 c-1 0 -3 -2 -4 -4 -2 -2 -3 -3 -6 -3 -12 0 -18 -9 -10 -14 2
-2 3 -3 3 -4 -1 -3 1 -8 3 -9 5 -3 15 0 17 6 2 3 2 3 5 2 7 -2 18 3 18 9 0 3
-1 5 -5 7 -1 1 -3 3 -4 5 -1 2 -3 4 -4 5 -3 1 -9 1 -13 0z m10 -4 c3 -1 4 -4
1 -4 -1 0 -2 -1 -3 -1 -1 -2 -1 -3 6 -3 5 -1 9 -4 7 -7 -2 -2 -8 -3 -11 -3 -4
1 -7 4 -7 6 0 0 -1 2 -3 3 -2 3 -2 3 -1 5 2 4 7 6 11 4z m-18 -8 c1 -1 -6 -7
-8 -6 -1 0 -2 0 -3 1 -1 0 -1 0 0 2 3 3 10 5 11 3z m8 -7 c1 -4 -1 -8 -4 -10
-3 -3 -8 -2 -9 1 -1 2 3 8 6 10 5 3 7 3 7 -1z M502 54 c-2 -1 -5 -3 -6 -5 -2 -2 -3 -3 -7 -3 -11 0 -21 -10 -18 -18
2 -5 11 -8 21 -6 l6 1 3 -3 c1 -2 3 -4 5 -4 5 -2 10 4 9 10 -1 4 -1 4 4 5 5 1
13 8 13 12 1 4 -2 8 -7 11 -5 3 -17 3 -23 0z m21 -4 c2 -1 4 -3 5 -4 1 -4 -4
-9 -12 -11 -3 -1 -4 -1 -6 1 l-3 1 2 2 c2 0 3 2 3 3 0 1 -3 1 -8 0 -2 -1 -3 0
-5 1 -2 2 -1 4 5 7 7 3 13 3 19 0z m-27 -9 c1 -1 1 -2 1 -2 0 -1 -4 -2 -8 -2
-8 -2 -10 -3 -9 -6 1 -1 2 -1 3 -1 16 4 18 4 17 0 -1 -2 -8 -4 -13 -4 -5 0
-11 3 -12 5 0 2 4 7 8 9 5 2 10 3 13 1z m14 -17 c-1 -4 -2 -5 -5 -2 -1 1 -2 3
-2 6 0 6 1 7 4 3 2 -2 3 -4 3 -7z M0 31 c0 -2 0 -2 16 -2 14 0 17 1 17 2 0 1 -3 2 -17 2 -16 0 -16 0
-16 -2z M546 32 c-2 -3 1 -3 27 -3 26 0 27 0 27 2 0 2 -1 2 -27 2 -17 0 -27
0 -27 -1z M211 30 c-2 -1 -3 -3 -4 -4 0 -1 -2 -2 -5 -4 -6 -2 -9 -6 -7 -10 1
-3 7 -5 15 -5 5 0 8 0 8 -1 0 -1 3 -1 7 -1 6 0 15 3 19 6 2 2 2 2 7 0 3 -1 4
-1 5 0 1 2 0 3 -4 5 -3 1 -5 3 -7 6 -2 2 -5 5 -8 6 -5 3 -7 3 -14 4 -7 0 -9 0
-12 -2z m19 -4 c3 -1 7 -3 9 -5 5 -5 5 -6 -2 -9 -5 -3 -15 -4 -15 -2 0 1 -2 2
-10 2 -8 0 -10 0 -12 1 -2 2 0 4 6 7 3 1 5 1 9 0 11 -2 16 -2 16 -1 0 2 -3 4
-11 5 -8 2 -8 2 -6 3 2 2 11 1 16 -1z" fill="black"/>
<path d="M0 796 l1 -3 11 -3 c24 -6 33 -7 56 -8 17 0 23 0 37 2 18 2 39 7 56
12 l11 4 -86 0 -86 0 0 -4z" fill="white"/>
<path d="M175 795 c-7 -2 -19 -6 -27 -8 -15 -4 -16 -4 -16 -6 0 -2 0 -3 3 -4
5 -2 7 -6 7 -12 0 -6 -1 -8 -5 -11 -4 -2 -8 -3 -12 0 -3 1 -7 7 -7 11 0 4 3 9
6 11 2 1 3 2 3 4 0 2 0 2 -9 1 -4 -1 -16 -3 -27 -3 -15 -2 -21 -2 -30 -1 -6 0
-12 1 -12 0 -2 -1 -1 -4 1 -4 7 -2 10 -13 6 -19 -6 -9 -19 -7 -22 3 -2 7 2 16
8 16 1 1 2 4 0 5 0 0 -5 1 -10 2 -5 1 -14 3 -20 5 -5 1 -10 2 -11 2 -1 0 -1
-67 -1 -205 l0 -206 24 0 23 0 0 3 c-1 2 -1 8 -2 13 0 7 -1 10 -2 12 -2 2 -3
5 -3 12 0 5 0 11 0 12 2 5 10 8 28 9 5 0 10 1 10 1 1 1 -2 16 -3 20 -1 1 -2 2
-8 3 -14 3 -27 12 -34 24 -1 3 -5 10 -7 17 -4 14 -9 23 -15 30 -5 7 -6 8 -4
10 3 3 15 0 29 -7 7 -4 10 -6 19 -14 10 -11 15 -18 21 -31 2 -7 2 -9 3 -18 0
-7 1 -15 2 -21 1 -6 2 -15 3 -21 0 -6 1 -11 1 -12 3 -1 -1 50 -5 76 -1 10 -2
18 -3 18 0 0 -2 2 -5 4 -13 7 -23 19 -27 31 -1 4 -3 12 -4 17 -2 15 -4 21 -8
31 -4 9 -5 12 -3 13 3 1 11 -2 18 -7 19 -12 32 -30 37 -49 3 -11 2 -26 -1 -34
l-2 -5 2 -11 c1 -6 2 -15 3 -21 1 -6 1 -11 1 -11 1 0 1 7 2 15 1 9 2 20 3 25
1 11 1 15 -1 23 -3 8 -3 22 -1 31 3 9 9 21 15 29 8 10 27 23 35 25 5 1 5 -1 2
-17 -2 -7 -4 -18 -4 -24 -1 -5 -3 -13 -4 -16 -5 -18 -17 -32 -31 -37 -3 0 -5
-1 -5 -2 0 0 -1 -6 -2 -14 -4 -30 -8 -89 -5 -89 2 0 2 3 2 13 0 10 2 25 6 36
1 4 2 8 2 9 0 5 2 16 5 22 7 18 24 34 43 41 13 5 31 7 35 4 2 -2 1 -5 -7 -11
-4 -4 -8 -7 -9 -8 -1 -2 -5 -9 -9 -17 -9 -17 -13 -22 -22 -29 -8 -5 -15 -8
-25 -9 l-7 0 -2 -6 c-2 -5 -4 -13 -5 -22 l-1 -4 4 0 c12 0 26 -4 30 -7 3 -3 3
-3 3 -13 0 -9 0 -11 -2 -13 -1 -2 -2 -5 -2 -11 -1 -5 -1 -11 -2 -13 l0 -5 31
0 32 0 3 15 c2 8 4 15 4 15 0 1 -2 2 -4 4 -10 7 -15 20 -15 34 0 10 2 16 10
27 8 10 8 14 7 26 0 4 0 14 0 20 0 11 0 12 2 18 2 4 7 11 12 17 12 16 17 25
22 46 5 21 9 30 15 39 5 7 15 16 23 20 l4 2 0 56 c0 53 0 55 2 56 1 1 38 1
111 1 l109 0 -3 6 c-1 4 -4 7 -5 7 -1 1 -8 2 -15 4 -7 2 -18 6 -24 7 -8 3 -12
4 -17 4 l-6 0 2 -2 c9 -10 -2 -28 -14 -22 -4 2 -7 7 -7 11 0 4 3 10 5 12 2 1
-10 1 -103 1 -103 0 -104 0 -101 -2 7 -4 8 -14 2 -20 -3 -2 -4 -3 -8 -3 -6 0
-9 3 -11 8 -2 6 -1 10 4 14 l3 3 -6 0 c-4 0 -9 -1 -18 -5z" fill="white"/>
<path d="M457 800 c1 -1 19 -6 31 -9 19 -4 32 -6 54 -5 20 0 28 1 49 5 l9 2 0
4 0 3 -72 0 c-39 0 -71 0 -71 0z" fill="white"/>
<path d="M416 794 c-4 -4 -3 -9 2 -13 3 -2 8 0 9 4 3 8 -5 15 -11 9z" fill="white"/>
<path d="M198 792 c-3 -3 -3 -7 0 -10 6 -6 15 1 11 9 -3 5 -8 5 -11 1z" fill="white"/>
<path d="M598 787 c-1 0 -24 -5 -31 -6 -6 0 -6 2 -1 -20 5 -21 10 -42 18 -65
3 -12 6 -22 7 -24 0 -2 -1 -3 -3 -2 -4 3 -20 58 -28 95 -1 7 -2 13 -3 14 0 1
-3 2 -18 2 -11 0 -19 -1 -19 -1 0 -1 14 -33 18 -41 16 -30 31 -52 50 -71 l12
-12 0 66 c0 36 0 66 -1 66 0 0 -1 0 -1 -1z" fill="white"/>
<path d="M497 784 c0 0 2 -5 4 -10 5 -11 7 -19 11 -38 13 -65 30 -112 50 -138
9 -13 24 -27 32 -32 l6 -4 0 9 0 8 -9 10 c-10 10 -19 24 -29 41 -10 20 -21 47
-25 63 -2 8 -2 10 0 10 1 0 3 -5 6 -15 15 -41 34 -77 50 -94 l7 -7 0 31 0 32
-9 7 c-5 5 -11 12 -15 15 -20 23 -44 64 -57 97 l-4 13 -6 0 c-4 1 -8 1 -9 2
-2 0 -3 0 -3 0z" fill="white"/>
<path d="M125 771 c-2 -3 -3 -6 -1 -10 3 -5 10 -5 13 0 4 8 -5 16 -12 10z" fill="white"/>
<path d="M41 767 c-1 -1 -2 -3 -3 -5 0 -2 0 -3 3 -6 3 -3 6 -4 9 -1 2 1 2 3 2
6 0 7 -6 10 -11 6z" fill="white"/>
<path d="M279 714 c1 -46 1 -52 2 -52 1 0 4 1 8 1 l6 2 0 42 c0 28 0 43 1 43
1 1 35 2 104 2 l104 1 -2 7 -3 7 -110 0 -110 0 0 -53z" fill="white"/>
<path d="M299 706 l1 -41 3 -1 c2 0 6 -1 9 -2 3 -1 9 -2 14 -2 7 0 9 -1 16 -4
10 -5 20 -16 26 -27 6 -14 8 -24 8 -43 -1 -9 -1 -17 -2 -18 l0 -2 44 0 45 0 6
3 c3 2 6 3 7 3 1 0 2 0 2 1 0 0 1 10 2 20 3 28 4 42 3 44 -2 3 -1 8 2 10 2 0
2 1 2 6 -1 5 0 8 5 12 2 1 3 3 3 4 1 3 4 4 4 1 0 -1 2 -3 4 -6 5 -5 5 -5 5
-10 0 -5 0 -6 2 -8 2 -1 2 -2 1 -5 -1 -7 0 -14 2 -38 1 -13 2 -23 2 -24 0 -2
4 -1 14 4 6 3 12 5 15 6 l6 0 0 7 1 7 -6 13 c-12 23 -17 36 -25 68 -5 18 -11
42 -14 57 l-1 6 -103 0 -103 0 0 -41z m175 19 c4 -1 10 -7 12 -11 2 -7 0 -17
-4 -22 -5 -4 -10 -6 -17 -6 -6 1 -7 1 -11 4 -12 9 -9 28 5 35 3 1 10 1 15 0z
m-109 -8 c3 -2 5 -5 7 -8 l3 -5 5 0 c6 0 10 -2 13 -6 4 -4 5 -7 3 -11 -2 -5
-2 -5 -41 -6 -38 0 -39 0 -42 5 -4 6 -1 15 6 18 2 1 6 2 8 2 4 0 5 0 7 3 6 11
20 14 31 8z m68 -74 c0 -1 -1 -1 -3 -1 -5 0 -9 -2 -11 -5 -1 -4 -2 -4 -5 -1
-3 4 -8 6 -11 4 -2 -1 -2 -1 -3 1 -1 4 7 5 13 2 4 -2 4 -2 6 0 3 4 14 4 14 0z
m26 -33 c0 -1 -1 -2 -3 -3 -2 0 -5 -2 -6 -3 l-3 -3 -2 2 c-2 1 -4 2 -7 2 -5 1
-6 1 -4 3 2 2 7 2 10 1 3 -2 3 -2 4 0 3 3 10 4 11 1z" fill="white"/>
<path d="M464 721 c-8 -1 -12 -7 -12 -15 0 -5 0 -6 3 -10 8 -10 23 -6 27 7 1
4 1 5 -1 9 -3 7 -9 10 -17 9z" fill="white"/>
<path d="M346 714 c-3 -1 -9 -7 -10 -11 -1 -3 -1 -3 -6 -2 -3 0 -6 0 -7 0 -4
-1 -7 -5 -7 -9 0 -6 -1 -6 38 -6 22 0 35 0 36 1 3 2 2 5 -1 9 -4 4 -8 5 -13 3
-4 -2 -6 -2 -6 1 0 1 -1 4 -2 7 -4 6 -13 9 -22 7z" fill="white"/>
<path d="M495 661 c-2 -1 -3 -2 -3 -3 0 0 2 0 5 0 3 0 5 0 5 0 0 0 -1 2 -2 3
l-3 2 -2 -2z" fill="white"/>
<path d="M289 659 c-13 -3 -27 -12 -36 -23 -7 -10 -9 -16 -15 -38 -3 -11 -7
-22 -9 -26 -3 -7 -5 -11 -20 -30 -8 -10 -10 -21 -8 -38 3 -17 2 -23 -8 -37 -7
-9 -8 -14 -8 -25 0 -8 0 -9 3 -16 4 -8 10 -15 12 -13 1 1 1 2 0 3 0 1 -2 4 -4
8 -3 5 -3 7 -3 13 0 7 2 15 5 16 2 2 2 -2 1 -6 -3 -6 -2 -15 0 -21 1 -3 3 -5
3 -5 0 0 2 6 3 14 3 16 4 22 8 31 2 4 3 9 4 13 1 5 1 7 0 14 -3 13 -2 19 7 30
6 7 8 13 10 24 2 16 7 24 18 27 10 4 19 9 26 16 5 3 12 8 16 10 16 8 27 18 31
28 1 4 3 5 4 1 0 -1 2 -3 5 -4 6 -3 10 -7 17 -19 3 -5 7 -12 9 -15 3 -4 5 -8
5 -9 0 -1 -2 -1 -4 1 -1 0 -2 1 -2 1 0 -1 -1 -9 -2 -18 -1 -20 -2 -24 -9 -34
-5 -8 -11 -14 -19 -18 l-6 -3 1 -4 c0 -5 2 -8 5 -10 1 -1 7 -2 12 -4 6 -1 13
-3 16 -4 3 -1 6 -2 6 -2 1 0 1 2 1 5 -1 4 -2 8 -6 14 -5 9 -8 17 -6 19 1 2 3
0 4 -5 1 -3 4 -8 6 -12 5 -8 6 -13 6 -19 0 -5 0 -6 3 -8 1 -2 4 -5 6 -8 3 -5
5 -6 5 -4 0 1 0 6 1 11 2 9 2 11 1 17 -1 8 -3 12 -10 22 -9 15 -11 24 -6 41 2
8 2 12 3 26 0 15 0 18 -2 25 -6 25 -23 43 -42 45 -5 0 -5 0 -5 -2 -1 -3 -4 -4
-4 -1 -2 4 -19 8 -29 6z m52 -17 c10 -4 19 -17 19 -24 0 -5 -2 -3 -5 4 -4 8
-11 15 -18 18 -7 3 -8 3 -8 5 1 1 6 0 12 -3z m-22 -2 c0 -1 -3 -2 -8 -3 -5 -2
-10 -3 -11 -4 -4 -2 -13 -12 -20 -22 -9 -11 -22 -21 -30 -21 -2 0 -3 3 0 4 11
3 19 10 29 24 9 12 14 17 22 20 8 4 18 5 18 2z" fill="white"/>
<path d="M492 650 l0 -3 5 0 c5 0 6 1 6 3 0 3 0 3 -5 3 -6 0 -6 0 -6 -3z" fill="white"/>
<path d="M487 641 c0 -1 2 -1 7 -1 12 0 13 0 13 2 0 1 -2 1 -10 1 -9 0 -10 0
-10 -2z" fill="white"/>
<path d="M488 630 c0 -3 0 -6 0 -6 0 -1 4 -1 9 -1 l9 0 0 6 0 6 -9 0 -9 0 0
-5z" fill="white"/>
<path d="M324 618 c-5 -7 -15 -16 -23 -20 -8 -4 -8 -4 -5 -4 7 0 13 -4 10 -6
0 -1 -2 0 -5 1 -4 1 -5 1 -9 0 -3 -2 -4 -2 -6 -1 -1 1 -2 1 -5 -3 -3 -2 -7 -5
-9 -6 -3 -2 -4 -3 -3 -5 0 -2 -2 -4 -4 -2 -1 2 -2 2 -7 0 -6 -3 -6 -3 -6 -6 0
-9 7 -17 14 -16 3 1 3 1 6 -6 6 -12 14 -19 28 -26 6 -3 8 -3 14 -3 11 0 22 7
30 19 7 10 8 15 9 33 0 9 1 18 2 19 1 2 0 4 -3 10 -3 4 -6 9 -7 11 -4 8 -12
15 -16 15 -1 0 -3 -2 -5 -4z m23 -26 c2 -1 4 -2 4 -2 -1 -2 -2 -2 -9 0 -3 0
-4 0 -5 -1 -2 -1 -4 -1 -4 2 0 3 7 4 14 1z m-52 -22 c2 -2 4 -3 7 -1 2 3 4 2
4 0 0 -3 -4 -5 -8 -5 -2 0 -4 1 -6 3 -3 3 -3 5 -1 5 1 0 3 -1 4 -2z m31 -4 c0
-3 1 -7 2 -9 3 -4 2 -7 -1 -10 -3 -1 -7 -1 -7 1 0 1 1 2 2 2 3 1 4 3 2 7 -2 4
-3 13 -1 14 1 2 3 0 3 -5z m15 2 c1 0 2 1 3 2 0 1 3 2 3 0 1 0 0 -2 -1 -3 -3
-4 -12 -4 -12 1 0 3 1 3 3 2 1 -1 3 -2 4 -2z m-79 0 c0 -1 1 -3 2 -4 1 -4 1
-6 0 -6 -2 0 -6 6 -6 9 0 3 3 4 4 1z m47 -29 c3 -3 4 -3 8 -3 4 0 6 1 8 2 2 1
2 1 3 0 3 -3 -8 -8 -15 -7 -4 1 -11 7 -10 9 1 3 2 2 6 -1z" fill="white"/>
<path d="M487 614 c-1 -2 -1 -6 -1 -7 l0 -3 11 0 11 0 0 5 c-1 2 -1 5 -1 7 0
2 0 2 -10 2 l-10 1 0 -5z" fill="white"/>
<path d="M134 610 c-27 -14 -45 -47 -39 -72 l2 -5 1 6 c5 17 10 30 18 42 4 8
6 11 8 10 1 -1 -1 -5 -5 -12 -7 -14 -12 -26 -15 -39 -4 -12 -4 -12 0 -11 8 3
18 13 23 23 3 5 6 17 8 29 1 9 4 24 6 30 0 3 -1 3 -7 -1z" fill="white"/>
<path d="M37 597 c4 -9 7 -17 9 -29 2 -17 7 -30 15 -39 4 -4 12 -10 14 -10 2
0 -7 27 -14 42 -4 9 -5 11 -3 11 3 0 13 -22 18 -39 4 -11 4 -11 5 -8 2 5 2 15
0 24 -4 18 -15 34 -31 45 -4 3 -14 9 -15 9 -1 0 0 -3 2 -6z" fill="white"/>
<path d="M485 596 c0 -1 0 -5 -1 -7 l0 -4 13 0 13 0 0 3 c-1 2 -1 5 -1 7 l0 4
-12 0 -12 0 0 -3z" fill="white"/>
<path d="M555 527 c0 -63 0 -70 -2 -70 0 -1 -39 -1 -84 -1 -66 0 -83 0 -83 -1
0 -1 2 -5 3 -8 l1 -7 90 0 90 0 0 70 0 70 -7 8 c-3 5 -7 9 -7 9 -1 0 -1 -31
-1 -70z" fill="white"/>
<path d="M542 584 c-2 -1 -7 -3 -11 -5 -11 -6 -19 -8 -37 -9 -23 -3 -24 -3
-29 -11 -3 -5 -9 -11 -14 -14 l-3 -2 15 0 c8 -1 16 -1 19 -1 3 -1 4 -1 6 3 4
9 21 18 21 13 0 -1 -2 -3 -5 -4 -6 -4 -9 -6 -11 -9 -3 -5 -4 -5 17 -2 4 0 7 0
12 -1 4 -1 10 -2 17 -2 l11 0 0 23 c0 25 1 23 -8 21z" fill="white"/>
<path d="M483 577 l0 -4 6 1 c13 1 21 2 22 2 0 1 0 2 0 2 -1 2 -3 2 -14 2
l-14 0 0 -3z" fill="white"/>
<path d="M575 505 l0 -68 -3 -1 c-2 0 -43 -1 -92 -1 l-89 0 3 -11 c1 -6 4 -19
7 -29 3 -10 5 -18 5 -19 0 0 20 0 45 0 l45 0 1 4 c1 1 2 3 3 3 2 0 1 2 -1 5
-6 8 -9 18 -5 21 2 2 8 0 13 -5 l5 -4 3 7 c2 3 4 7 6 8 2 2 2 2 4 0 2 -2 4 -7
5 -15 0 -5 0 -5 2 -3 3 2 11 3 14 2 6 -2 -1 -15 -11 -21 l-4 -2 34 0 35 0 0
90 0 91 -6 3 c-3 2 -9 6 -12 9 l-7 5 0 -69z" fill="white"/>
<path d="M244 563 c-3 -3 -4 -8 -7 -23 -1 -8 -4 -13 -9 -19 -3 -3 -5 -7 -6 -9
-2 -4 -3 -12 0 -20 1 -4 1 -7 0 -10 l0 -5 4 3 c2 2 6 5 9 7 5 2 6 3 7 8 1 3 4
8 7 12 7 10 8 15 8 27 0 10 0 13 -5 19 -1 2 -3 5 -4 8 l-2 5 -2 -3z" fill="white"/>
<path d="M416 561 l-44 0 -1 -5 c-2 -8 -1 -17 1 -23 1 -3 5 -9 8 -14 9 -14 11
-25 8 -40 -1 -5 -2 -12 -2 -14 l0 -4 82 -1 82 0 0 38 0 38 -12 0 c-8 0 -15 0
-19 1 -5 2 -8 2 -12 1 -11 -2 -18 -2 -26 -1 -5 1 -12 1 -17 1 -10 0 -25 2 -27
3 -1 2 0 3 6 5 6 3 12 7 16 11 1 2 2 4 2 4 0 0 -20 0 -45 0z m-6 -14 c5 0 6
-1 6 -2 0 -1 -2 -2 -13 -2 -20 0 -21 0 -22 1 -2 2 0 3 5 3 3 0 6 0 7 1 1 1 4
1 6 1 2 -1 7 -1 11 -2z m28 -26 c5 -2 10 -3 15 0 4 1 9 1 17 -1 2 -1 6 -1 8 0
4 0 4 0 4 -2 0 -1 -1 -2 -2 -2 -2 -1 -9 -1 -15 0 -4 2 -6 2 -11 0 -7 -2 -13
-1 -18 1 -2 1 -5 2 -6 2 -2 0 -5 -1 -7 -2 -7 -3 -20 -2 -20 2 0 2 2 2 6 1 4
-1 5 -1 10 1 7 2 14 3 19 0z m78 -15 c5 -1 9 -2 11 -2 2 1 4 1 5 1 3 1 3 -2 1
-3 -4 -3 -12 -3 -19 0 l-7 2 -6 -2 c-9 -3 -20 -2 -20 2 0 1 1 1 6 1 4 -1 7 0
13 1 3 2 7 3 7 3 0 0 4 -1 9 -3z m-53 -20 c3 -1 7 -2 11 -2 4 0 5 0 5 -2 0 -3
-7 -4 -15 -1 -8 2 -10 3 -16 0 -5 -2 -15 -3 -18 -1 0 0 -1 1 -1 2 0 1 1 2 7 2
4 0 9 1 12 2 7 2 7 2 15 0z m71 -3 c2 -1 5 -1 6 -1 2 1 4 0 4 -2 -1 -2 -7 -3
-12 0 -4 1 -4 1 -8 -1 -7 -3 -19 -1 -16 3 1 1 3 1 5 0 3 0 6 0 8 1 5 2 8 2 13
0z" fill="white"/>
<path d="M262 542 c2 -14 -1 -26 -9 -37 -3 -4 -6 -9 -6 -10 -1 -3 -1 -3 1 -3
2 1 6 2 9 3 15 3 18 7 20 25 l0 8 -4 6 c-3 4 -5 8 -6 9 0 2 -1 3 -3 3 l-3 1 1
-5z" fill="white"/>
<path d="M166 540 c-19 -3 -39 -16 -50 -33 -3 -5 -7 -15 -8 -20 l-1 -4 2 3 c5
10 21 27 31 34 3 2 4 2 5 1 1 -1 1 -2 -2 -4 -7 -6 -17 -15 -22 -21 -4 -6 -12
-19 -12 -20 0 -2 13 0 19 3 12 6 21 15 28 32 4 11 10 19 18 25 3 2 6 4 6 5 0
0 -9 0 -14 -1z" fill="white"/>
<path d="M12 538 c0 0 2 -3 5 -7 6 -8 8 -11 12 -24 5 -15 10 -24 16 -30 5 -5
17 -11 23 -12 l4 0 -4 8 c-6 13 -13 22 -21 30 -5 5 -8 8 -8 9 0 4 13 -6 22
-18 2 -3 6 -10 9 -14 5 -10 6 -10 3 1 -4 19 -21 41 -40 50 -6 3 -21 9 -21 7z" fill="white"/>
<path d="M281 518 c0 -10 -2 -17 -7 -21 -2 -2 -6 -4 -7 -5 -4 0 -4 0 1 -13 6
-14 10 -21 15 -26 16 -16 40 -15 50 2 5 8 6 17 3 29 -1 5 -2 5 -6 7 -7 3 -10
8 -11 14 l0 5 -7 0 c-7 0 -16 3 -24 9 -7 6 -7 6 -7 -1z m50 -40 c3 -1 3 -3 -1
-3 -2 0 -6 -1 -8 -2 -3 -1 -4 -1 -5 0 -3 3 8 7 14 5z m-37 -2 c3 -1 4 -2 4 -3
0 -2 0 -2 -6 0 -3 0 -7 1 -9 1 -4 0 -7 1 -6 3 1 2 12 1 17 -1z" fill="white"/>
<path d="M252 489 c-5 -1 -5 -2 -2 -11 4 -9 5 -18 5 -31 0 -13 -1 -20 -6 -27
-5 -9 -6 -17 -4 -32 2 -14 2 -26 0 -38 -1 -4 -2 -7 -1 -8 3 -3 20 -9 34 -12
13 -2 41 -2 52 1 11 3 17 5 20 8 2 3 2 3 1 9 -3 13 0 30 6 44 2 5 4 10 5 13 2
9 0 27 -5 48 -1 2 -3 11 -4 18 -1 8 -2 15 -3 15 0 1 -9 3 -10 3 0 0 1 -4 1 -9
3 -18 -4 -33 -17 -40 -4 -2 -6 -2 -15 -2 -9 0 -11 0 -16 2 -7 4 -16 12 -20 18
-1 2 -5 10 -8 18 -6 15 -6 15 -13 13z m53 -104 c0 -2 -10 -7 -16 -8 -6 0 -13
1 -13 3 0 1 1 1 5 1 4 0 14 2 18 4 4 2 6 2 6 0z" fill="white"/>
<path d="M237 482 c-3 -1 -8 -5 -12 -9 -7 -7 -11 -15 -13 -26 -1 -5 -3 -13 -4
-19 -2 -13 -11 -50 -14 -60 -1 -4 -3 -8 -5 -11 -2 -2 -7 -8 -11 -14 -5 -5 -14
-16 -20 -24 -12 -16 -18 -21 -22 -19 -6 1 -16 0 -24 -3 -5 -2 -11 -3 -12 -3
-2 0 -4 0 -5 -1 -1 -2 2 -3 11 -4 5 0 10 0 10 0 2 0 1 -3 -2 -7 -13 -14 -17
-15 -17 -2 0 6 -2 7 -4 4 -4 -5 -3 -15 1 -18 2 -2 2 -2 9 1 9 4 11 5 11 3 0
-2 -5 -5 -11 -7 -3 -1 -6 -3 -6 -5 0 -2 5 -1 12 3 5 2 9 4 10 4 2 -1 0 -3 -6
-6 -7 -3 -8 -5 -5 -7 2 -2 3 -1 4 1 1 3 17 10 18 9 0 -2 -2 -3 -8 -7 -5 -2 -6
-4 -3 -5 2 0 14 6 20 10 2 2 7 8 11 14 5 7 10 11 17 17 42 33 50 42 61 73 5
14 14 51 15 63 1 7 2 10 3 10 2 0 2 -1 2 -5 l1 -4 1 6 c2 7 1 25 -1 35 -2 7
-6 16 -7 16 0 0 -3 -1 -5 -3z m-97 -196 c0 -1 -2 -3 -4 -6 -3 -3 -5 -6 -5 -6
0 -1 -1 -2 -2 -3 -2 -2 -2 -2 -3 -1 -1 3 2 8 7 13 4 4 7 5 7 3z" fill="white"/>
<path d="M356 483 c0 -4 5 -31 8 -38 2 -8 2 -12 3 -24 0 -14 0 -15 -2 -22 l-3
-8 6 -16 c10 -28 17 -36 52 -59 18 -13 22 -16 37 -32 11 -11 22 -16 36 -16 4
0 6 2 1 3 -13 2 -16 4 -16 6 0 1 1 1 8 0 2 -1 7 -2 9 -3 2 0 5 -1 6 -1 1 -1 2
-1 3 0 2 2 0 4 -5 4 -6 1 -12 3 -12 5 0 2 2 2 7 1 2 -1 6 -2 9 -2 5 -1 5 -1 6
2 2 4 0 9 -3 12 -1 1 -2 2 -2 2 0 0 0 -3 -1 -6 0 -3 -1 -6 -1 -6 -2 -3 -13 6
-15 12 -1 4 0 5 9 5 10 -1 12 1 4 3 -3 1 -9 2 -13 4 -6 1 -11 2 -17 2 l-8 0
-28 28 c-16 16 -29 29 -29 31 -1 1 -4 8 -6 17 -5 16 -7 23 -11 44 -6 26 -10
34 -18 43 -3 4 -11 10 -13 10 -1 0 -1 -1 -1 -1z m115 -187 c6 -3 9 -7 7 -8 -2
0 -16 9 -15 10 1 2 3 1 8 -2z" fill="white"/>
<path d="M58 431 c-14 -2 -16 -5 -8 -8 3 -1 5 -1 9 0 3 0 9 1 13 2 l7 0 0 4 0
4 -7 0 c-3 0 -10 -1 -14 -2z" fill="white"/>
<path d="M98 429 l0 -4 4 0 c3 0 8 -1 12 -1 7 -2 9 -2 12 0 7 2 5 5 -9 7 -4 1
-10 2 -13 2 l-6 0 0 -4z" fill="white"/>
<path d="M70 420 c-3 -1 -3 -1 1 -1 3 0 6 0 7 0 1 0 2 0 2 1 0 1 -4 1 -10 0z" fill="white"/>
<path d="M98 420 c0 -1 2 -1 5 -1 4 0 5 0 4 1 -3 1 -9 1 -9 0z" fill="white"/>
<path d="M126 419 c-6 -3 -27 -5 -40 -5 -12 0 -31 2 -37 5 -2 0 -4 1 -5 1 0 0
0 -3 1 -6 0 -5 1 -6 3 -8 10 -6 49 -8 68 -3 13 3 14 3 14 11 1 3 1 6 1 6 0 1
-3 0 -5 -1z" fill="white"/>
<path d="M521 409 c-5 -7 -9 -24 -6 -26 1 0 3 1 5 3 3 4 4 4 4 12 0 8 -1 13
-3 11z" fill="white"/>
<path d="M497 403 c0 -4 6 -14 10 -16 l3 -2 0 4 c0 7 -3 11 -11 15 -2 1 -2 1
-2 -1z" fill="white"/>
<path d="M50 394 c1 -12 4 -40 5 -42 2 -11 14 -17 35 -16 14 1 22 3 27 7 3 4
3 4 5 16 2 15 5 40 4 41 -1 0 -4 -1 -9 -2 -11 -2 -50 -2 -60 0 -3 1 -7 2 -7 2
-1 0 -1 -2 0 -6z" fill="white"/>
<path d="M536 393 c-3 -1 -15 -11 -15 -13 0 0 5 0 9 1 3 1 6 3 9 6 6 7 5 10
-3 6z" fill="white"/>
<path d="M238 384 c0 -2 -1 -5 -2 -6 0 -2 0 -2 3 -2 l3 0 -1 5 c-1 8 -1 9 -3
3z" fill="white"/>
<path d="M358 384 c0 -2 -1 -4 -2 -6 0 -2 0 -2 3 -2 l4 0 -1 4 c-1 2 -2 4 -2
5 -1 1 -1 1 -2 -1z" fill="white"/>
<path d="M505 380 c-2 -1 -3 -2 -3 -2 -1 -2 -1 -6 0 -7 2 0 7 2 9 5 2 2 2 2 1
3 -1 2 -5 2 -7 1z" fill="white"/>
<path d="M518 375 c-2 -1 -2 -2 0 -5 1 -4 4 -5 6 -3 3 4 -2 11 -6 8z" fill="white"/>
<path d="M0 363 l0 -9 25 0 25 0 0 2 c-1 1 -1 5 -2 8 -1 9 2 8 -25 8 l-23 0 0
-9z" fill="white"/>
<path d="M129 371 c-1 0 -1 -3 -1 -6 -1 -4 -1 -8 -2 -9 l0 -2 27 0 28 0 3 5
c4 5 6 9 6 12 0 1 -5 1 -30 1 -17 0 -31 0 -31 -1z" fill="white"/>
<path d="M235 371 c-1 -1 -2 -4 -3 -7 -1 -4 -2 -7 -3 -8 0 -2 0 -2 6 -2 l6 0
0 5 c1 2 1 6 1 9 0 3 0 4 -3 4 -3 0 -4 0 -4 -1z" fill="white"/>
<path d="M355 368 c0 -2 0 -5 -1 -7 0 -7 0 -7 9 -7 8 0 8 0 7 2 -1 1 -2 5 -4
9 l-2 7 -4 0 -5 0 0 -4z" fill="white"/>
<path d="M418 363 l8 -9 87 0 87 0 0 9 0 9 -35 0 -35 0 0 -3 c-2 -7 -10 -10
-14 -4 -2 2 -3 3 -3 4 0 1 -2 1 -4 0 -4 -3 -8 -2 -11 1 l-2 2 -44 0 -43 0 9
-9z" fill="white"/>
<path d="M0 320 l0 -29 35 0 c28 0 35 0 36 -1 0 -1 1 -2 0 -2 0 -1 -16 -1 -36
-1 l-35 0 0 -21 0 -20 14 0 c15 0 18 -1 17 -3 -1 -2 -3 -2 -16 -2 l-15 1 0
-22 0 -22 7 0 c6 0 7 0 8 -2 1 -2 -2 -3 -9 -3 l-6 0 0 -39 0 -40 14 0 c12 0
15 -1 15 -2 0 -1 -3 -2 -15 -2 l-14 0 0 -39 0 -38 16 0 c14 0 17 -1 17 -2 0
-1 -3 -2 -17 -2 l-16 0 0 -15 0 -14 300 0 300 0 0 14 0 15 -27 0 c-24 0 -27 1
-27 2 0 1 3 2 27 2 l27 0 0 38 0 39 -12 0 c-9 0 -11 1 -11 2 0 1 2 2 11 2 l12
0 0 40 0 39 -13 0 c-9 0 -13 0 -14 1 -2 3 1 4 14 4 l13 0 0 22 0 21 -27 0
c-22 0 -28 0 -29 1 -5 3 1 4 29 4 l27 0 0 20 0 21 -36 0 c-31 0 -35 1 -35 2 0
1 4 2 35 2 l36 0 0 29 0 29 -84 0 -84 0 5 -6 c3 -3 10 -11 16 -17 l11 -11 8 0
c7 0 10 0 19 -3 5 -1 11 -3 13 -4 3 0 7 -4 6 -7 -1 0 0 -3 1 -5 3 -5 4 -12 1
-16 -1 -3 -2 -5 -2 -6 0 -1 -4 -6 -6 -6 -1 0 -2 -1 -4 -2 -2 -2 -3 -2 -8 -2
-3 0 -6 -1 -5 -1 0 -1 5 -1 11 -1 7 0 11 0 14 -2 3 -1 9 -10 46 -65 21 -31 23
-35 23 -39 0 -7 -6 -9 -29 -9 l-18 0 0 -26 c0 -31 0 -31 -10 -35 -4 -2 -8 -2
-16 -2 -12 0 -19 1 -23 6 l-3 2 0 28 0 27 -164 0 -165 0 -3 -4 -3 -4 3 -1 c9
-3 15 -10 14 -15 -2 -7 -15 -15 -29 -18 -12 -3 -30 -4 -41 -3 -31 2 -46 6 -54
15 -9 9 -2 20 17 23 3 1 6 1 6 2 0 0 0 1 -1 2 l0 3 -22 0 c-19 0 -22 1 -25 2
-4 3 -6 7 -4 12 1 5 42 86 46 92 4 7 7 8 22 8 7 0 12 1 12 1 0 0 -1 2 -2 3 -3
5 -3 14 0 20 1 3 2 5 1 7 0 3 3 6 8 6 3 1 9 2 15 4 8 3 10 3 17 2 5 0 9 0 10
1 2 1 7 7 25 30 l11 14 -25 0 -26 0 0 -2 c-1 -4 -8 -10 -15 -12 -7 -3 -20 -4
-29 -3 -16 1 -25 5 -28 13 l-2 4 -26 0 -25 0 0 -29z m142 4 c-1 -1 -4 -2 -62
-2 -60 0 -65 0 -63 3 0 1 27 1 63 1 59 0 62 0 62 -2z m432 1 c0 -1 0 -2 -1 -2
-2 -1 -100 -1 -102 0 -1 0 -2 1 -2 2 0 1 8 1 52 1 37 0 52 0 53 -1z m-121
-187 c4 -5 6 -11 5 -16 0 -4 0 -4 3 -4 2 -1 5 -2 7 -4 l3 -2 0 -17 c0 -16 0
-18 -2 -20 -3 -4 -10 -7 -21 -6 -11 0 -17 1 -21 5 -2 2 -2 2 -2 20 l0 18 3 2
c2 2 5 3 6 4 4 0 4 0 4 6 0 6 2 11 6 15 3 4 5 4 9 -1z m-153 -1 c3 -1 5 -1 8
0 6 1 12 0 19 -3 4 -2 7 -3 10 -3 5 0 12 -3 14 -5 1 -1 2 -2 3 -2 3 0 10 -4
12 -7 1 -2 2 -3 4 -3 2 -1 4 -5 5 -11 2 -8 2 -11 -2 -15 -2 -3 -4 -7 -6 -15
-2 -6 -4 -13 -5 -16 -2 -10 -11 -16 -28 -21 -12 -4 -27 -5 -44 -5 -19 1 -33 4
-45 10 -12 5 -13 7 -18 29 -4 15 -5 17 -8 21 -6 6 -6 13 -1 19 2 2 3 4 3 4 0
2 4 6 8 7 2 1 5 2 6 3 3 2 10 4 11 3 1 0 2 1 4 2 5 5 10 7 19 7 6 0 9 0 13 2
6 2 11 2 18 -1z m258 -15 c4 -2 7 -10 8 -16 0 -5 0 -5 3 -7 6 -2 6 -4 6 -20
-1 -17 -1 -18 -9 -20 -8 -3 -22 -2 -27 3 -2 1 -2 3 -2 17 0 8 0 16 1 17 1 1 3
2 5 3 3 2 4 2 3 5 0 4 2 10 5 15 3 4 4 5 7 3z m-354 -10 c0 -1 -3 -2 -16 -2
-13 0 -16 0 -16 1 0 1 0 2 1 2 0 1 7 1 15 1 13 0 16 -1 16 -2z m208 0 c0 -1
-2 -2 -11 -2 -10 0 -10 0 -10 2 0 2 0 2 10 2 9 0 11 -1 11 -2z m-286 -31 c2 0
6 -3 10 -5 l7 -4 11 3 c6 2 16 4 22 5 10 1 11 1 13 0 2 -2 3 -3 3 -5 -1 -3 -5
-6 -18 -10 l-9 -3 3 -2 c2 -1 10 -5 17 -8 15 -7 18 -9 17 -12 -1 -2 -8 -5 -43
-19 -19 -7 -30 -10 -32 -10 -3 0 -7 1 -13 4 l-8 5 -14 -3 c-16 -5 -20 -5 -24
-2 -5 3 -44 41 -47 45 -2 4 -2 4 -1 6 2 2 13 3 31 3 7 0 11 0 12 1 4 3 11 3
16 2 5 -1 11 1 29 8 9 3 12 4 18 1z m294 -25 c1 -1 3 -3 4 -5 1 -2 3 -4 4 -5
4 -2 5 -4 5 -7 0 -6 -11 -11 -18 -9 -3 1 -3 1 -5 -2 -2 -6 -12 -9 -17 -6 -2 1
-4 6 -3 9 0 1 -1 2 -3 4 -8 5 -2 14 10 14 3 0 4 1 6 3 1 2 3 4 4 4 4 1 10 1
13 0z m105 -2 c5 -3 8 -7 7 -11 0 -4 -8 -11 -13 -12 -5 -1 -5 -1 -4 -5 1 -6
-4 -12 -9 -10 -2 0 -4 2 -5 4 l-3 3 -6 -1 c-10 -2 -19 1 -21 6 -3 8 7 18 18
18 4 0 5 1 7 3 4 5 9 7 18 7 5 0 8 -1 11 -2z m-288 -26 c3 -1 6 -4 8 -6 2 -3
4 -5 7 -6 4 -2 5 -3 4 -5 -1 -1 -2 -1 -5 0 -5 2 -5 2 -7 0 -4 -3 -13 -6 -19
-6 -4 0 -7 0 -7 1 0 1 -3 1 -8 1 -8 0 -14 2 -15 5 -2 4 1 8 7 10 3 2 5 3 5 4
1 1 2 3 4 4 3 2 5 2 12 2 7 -1 9 -1 14 -4z" fill="white"/>
<path d="M225 344 c-6 -12 -22 -30 -41 -46 -8 -6 -9 -7 -7 -7 2 0 5 1 9 1 3 1
8 2 10 3 2 0 7 2 10 3 2 2 6 3 8 3 2 0 3 1 8 9 3 5 7 11 10 14 5 6 9 15 8 17
-1 1 -1 3 -1 5 l1 3 -7 0 -6 0 -2 -5z" fill="white"/>
<path d="M356 345 c1 -2 0 -4 -1 -6 -1 -3 -1 -4 0 -7 1 -2 2 -5 2 -6 0 0 2 -4
4 -7 3 -3 6 -9 7 -12 l3 -5 9 0 c5 0 13 -1 19 -2 9 -1 38 -3 39 -3 0 1 -14 11
-29 21 -13 8 -24 18 -31 26 l-3 5 -10 0 -9 0 0 -4z m33 -19 c1 -1 1 -2 0 -3
-2 -1 -15 -2 -17 0 -1 1 -1 2 0 3 1 1 15 1 17 0z" fill="white"/>
<path d="M242 333 c-1 -4 -1 -4 0 -6 3 -2 14 -7 25 -10 19 -5 49 -5 66 -1 10
2 19 7 20 9 0 0 -1 2 -1 4 l-2 4 -6 -3 c-13 -5 -17 -6 -42 -5 -22 0 -24 0 -33
2 -8 2 -15 5 -24 9 0 0 -2 -1 -3 -3z" fill="white"/>
<path d="M234 320 c-2 -2 -5 -8 -8 -12 l-5 -7 9 -3 c5 -1 13 -4 17 -6 13 -6
24 -17 18 -17 -1 0 -3 1 -4 3 -5 5 -16 11 -25 14 -10 3 -22 5 -26 3 -1 -1 -1
-1 3 -2 14 -4 30 -18 39 -36 3 -6 3 -6 14 -10 6 -3 14 -7 19 -10 l8 -4 8 2 c7
1 10 1 20 -3 3 -1 3 -1 13 4 5 3 13 8 18 11 l8 6 6 10 c6 13 15 24 25 29 3 2
6 4 6 4 0 1 -11 2 -22 2 -8 0 -9 0 -9 2 0 5 -9 19 -12 19 -1 -1 -5 -2 -9 -4
-12 -5 -21 -6 -42 -6 -13 0 -21 0 -27 1 -13 3 -27 7 -32 11 -3 2 -5 3 -5 3 -1
0 -2 -2 -5 -4z m125 -27 c0 -1 -4 -5 -9 -9 -5 -5 -11 -12 -13 -16 -5 -8 -7 -9
-9 -7 -1 3 13 21 23 29 5 4 6 5 8 3z m-87 -7 c11 -7 21 -22 17 -24 0 -1 -3 2
-5 6 -5 6 -10 11 -18 17 -3 2 -4 5 -2 5 1 0 4 -2 8 -4z" fill="white"/>
<path d="M492 296 c0 0 2 -2 3 -4 l4 -3 0 3 c1 5 1 5 -3 5 -2 0 -4 0 -4 -1z" fill="white"/>
<path d="M397 291 c-11 -6 -17 -13 -27 -29 -2 -3 -3 -5 -3 -5 1 0 3 1 6 3 17
10 33 16 48 17 12 0 18 0 18 -3 0 -1 -2 -1 -7 -1 -3 0 -7 0 -8 0 -1 -1 -4 -1
-8 -1 -14 -2 -29 -9 -55 -25 -29 -18 -46 -26 -48 -24 -1 1 0 2 2 3 3 2 3 2 1
3 -3 2 -11 2 -16 1 -3 -1 -6 -3 -10 -7 -3 -3 -9 -7 -12 -8 -6 -3 -7 -3 -18 -3
-22 1 -24 0 -29 -1 -2 -1 -6 -3 -7 -5 -1 -1 -5 -3 -7 -4 -5 -2 -8 -6 -6 -8 1
-1 2 -1 6 0 7 2 7 2 7 0 0 -2 -8 -5 -13 -5 -3 0 -4 0 -4 -2 1 -2 5 -2 13 0 4
1 8 2 8 1 2 -1 -1 -3 -8 -5 -3 -1 -5 -2 -4 -2 0 -1 3 0 5 1 8 2 9 2 9 0 l0 -2
5 2 c4 2 9 2 25 4 24 1 30 2 56 7 11 2 28 6 39 8 10 2 22 4 27 5 4 0 11 2 16
3 29 5 43 8 54 14 21 10 30 21 30 35 l0 7 -4 1 c-10 3 -15 6 -25 16 -9 9 -10
9 -16 11 -4 0 -12 1 -20 1 -13 0 -13 0 -20 -3z" fill="white"/>
<path d="M183 287 c-12 -2 -19 -4 -22 -6 -1 -1 -3 -4 -5 -7 -6 -9 -16 -19 -22
-22 -5 -3 -5 -3 -5 -8 0 -18 20 -30 62 -39 7 -1 13 -2 15 -2 3 0 10 3 16 8 7
6 17 7 33 5 13 -1 21 1 30 9 l5 5 -8 4 c-4 2 -11 5 -15 7 -4 2 -14 7 -23 10
-9 4 -18 9 -22 10 -13 4 -26 5 -39 3 -4 -1 -7 -1 -7 0 -2 2 2 4 9 5 14 2 35
-1 53 -10 5 -2 8 -3 9 -3 1 1 -7 13 -14 20 -5 4 -10 8 -15 10 -6 3 -8 3 -15 4
-7 0 -12 -1 -20 -3z" fill="white"/>
<path d="M102 283 c-1 -2 -1 -6 0 -6 1 0 7 7 7 8 0 0 -2 0 -3 0 -3 0 -4 -1 -4
-2z" fill="white"/>
<path d="M65 256 c-2 -1 -4 -4 -10 -15 -12 -23 -39 -79 -40 -82 0 -3 0 -4 3
-6 3 -1 6 -2 23 -2 l20 0 -1 8 c0 5 0 12 0 16 0 7 0 8 2 10 4 4 11 7 24 9 12
1 22 1 34 -1 11 -3 18 -8 20 -14 0 -2 1 -3 5 -3 10 -1 15 -11 11 -23 l0 -2
163 0 163 0 0 8 c0 7 0 9 2 10 2 2 9 5 13 5 2 0 2 0 1 4 0 6 1 12 5 18 4 5 6
6 10 3 6 -6 9 -16 7 -22 -1 -3 -1 -3 1 -3 3 0 8 -3 11 -5 1 -2 2 -4 2 -10 l0
-8 19 0 c11 0 20 1 21 1 3 2 3 5 1 8 -3 6 -59 91 -63 95 -2 2 -3 2 -14 2 l-12
0 0 -5 c-2 -12 -12 -23 -33 -33 -7 -4 -23 -9 -31 -10 -5 -1 -6 -2 -1 -4 7 -1
13 -9 11 -14 -1 -4 -7 -9 -9 -9 -1 0 -3 -1 -5 -2 -3 -1 -4 -1 -11 1 -7 2 -12
3 -25 4 -17 1 -36 3 -45 5 -6 2 -7 2 -19 -1 -8 -2 -17 -3 -21 -4 -5 -1 -10 -1
-11 -2 -1 0 -12 -1 -24 -1 -18 -2 -22 -2 -27 -4 -3 -2 -7 -3 -9 -3 -6 0 -12 1
-14 4 -2 1 -4 2 -5 2 -5 2 -6 8 -3 11 1 1 2 3 2 4 0 2 0 3 -2 3 -5 0 -18 3
-28 5 -32 8 -51 22 -51 38 l0 5 -5 0 c-3 0 -7 0 -9 0 -3 0 -9 2 -9 4 0 1 -1 1
-3 1 -1 0 -3 1 -5 3 -2 2 -3 2 -14 2 -7 0 -13 -1 -15 -1z" fill="white"/>
<path d="M387 202 c-12 -2 -26 -5 -31 -6 -13 -2 -14 -2 -14 -3 1 0 34 -3 51
-5 4 0 10 -1 12 -2 5 -1 7 -1 4 0 -3 3 0 3 5 2 3 -1 6 -2 7 -2 2 1 2 1 1 1 -6
3 -12 6 -13 7 -2 2 2 2 8 0 8 -4 13 -3 10 2 -1 2 -17 10 -19 10 0 0 -10 -2
-21 -4z" fill="white"/>
<path d="M506 191 c-3 -6 -4 -13 -2 -16 1 -2 1 -2 2 0 0 2 1 4 2 4 1 0 2 -1 2
-4 l1 -3 2 2 c5 5 4 14 -2 20 l-3 2 -2 -5z" fill="white"/>
<path d="M82 189 c-8 -1 -13 -4 -16 -6 l-2 -3 2 -1 c2 -2 3 -2 7 0 11 6 43 6
53 1 2 -2 3 -2 5 -1 1 1 2 2 2 2 -1 2 -7 6 -11 7 -5 1 -34 2 -40 1z" fill="white"/>
<path d="M85 178 c-2 0 -4 -1 -7 -1 -4 -1 -4 -1 -2 -2 1 -1 6 -1 12 -2 8 -1
11 -1 22 0 16 3 17 3 6 5 -5 1 -27 1 -31 0z" fill="white"/>
<path d="M130 173 c-9 -4 -15 -5 -33 -4 -17 0 -19 0 -26 2 l-7 3 0 -10 c2 -26
7 -35 21 -40 7 -2 22 -2 29 0 5 1 12 8 15 13 2 4 5 27 5 33 l0 5 -4 -2z" fill="white"/>
<path d="M138 170 c0 -2 0 -3 2 -2 4 0 8 -4 8 -8 0 -5 -4 -12 -9 -14 -4 -2 -6
-7 -3 -7 6 0 17 13 17 21 0 7 -5 12 -12 12 -3 0 -3 0 -3 -2z" fill="white"/>
<path d="M489 167 c-2 -1 -3 -1 -2 -2 4 -5 40 -5 42 0 0 1 -5 4 -9 4 -6 0 -10
-1 -10 -3 -1 -3 -4 -3 -4 0 0 1 -1 2 -2 2 -3 2 -13 1 -15 -1z" fill="white"/>
<path d="M139 162 c-1 0 -1 -3 -1 -6 l-1 -6 4 3 c4 5 4 9 0 10 -1 0 -2 0 -2
-1z" fill="white"/>
<path d="M486 127 l0 -33 3 -2 c7 -5 30 -5 37 0 l3 2 0 33 0 32 -3 -1 c-2 -1
-8 -1 -13 -2 -10 0 -13 0 -24 3 l-3 0 0 -32z" fill="white"/>
<path d="M54 136 c-8 -3 -14 -8 -14 -11 0 -3 5 -8 9 -10 22 -11 76 -12 98 -1
15 8 16 14 2 20 -5 2 -5 2 -11 1 -5 -1 -6 -2 -8 -5 -5 -8 -15 -12 -30 -12 -16
0 -28 5 -33 14 -3 6 -5 6 -13 4z" fill="white"/>
<path d="M445 134 c-3 -4 -4 -12 -2 -15 1 -3 3 -3 3 1 1 4 3 4 3 0 0 -2 0 -3
1 -3 2 0 4 4 4 8 0 3 -4 12 -6 12 0 0 -2 -1 -3 -3z" fill="white"/>
<path d="M280 132 c-5 -2 -6 -2 -10 -1 -6 2 -12 0 -17 -6 -3 -2 -4 -3 -7 -2
-3 0 -8 -2 -10 -4 -1 -1 -2 -2 -3 -2 -3 0 -8 -4 -8 -6 0 -1 -1 -3 -3 -4 -2 -2
-3 -3 -3 -5 0 -5 2 -7 9 -14 8 -7 10 -8 15 -8 3 0 6 -1 9 -3 5 -3 6 -4 14 -4
7 0 10 0 13 -1 5 -3 10 -3 20 -1 7 1 9 1 12 0 4 -2 10 -1 17 2 5 2 8 3 12 3 7
0 14 3 17 7 1 2 3 3 5 4 5 1 10 6 10 9 0 2 0 3 -1 3 -1 1 -1 3 -1 5 0 4 0 4
-3 6 -2 0 -4 2 -4 3 -1 3 -6 6 -9 6 -2 0 -4 1 -6 2 -4 4 -7 5 -12 5 -4 0 -6 1
-8 2 -6 4 -15 6 -21 4 -2 -1 -4 -1 -9 1 -8 3 -11 3 -18 -1z m5 -8 c4 -2 4 -2
7 0 2 1 6 1 10 2 5 0 7 0 11 -2 3 -2 6 -2 12 -2 7 0 8 -1 12 -4 2 -2 5 -3 6
-3 5 0 9 -2 14 -7 3 -3 6 -6 6 -7 2 -5 -4 -12 -10 -14 -2 -1 -5 -2 -6 -3 -2
-2 -5 -3 -11 -3 -4 0 -8 -1 -10 -2 -4 -2 -11 -3 -17 -2 -4 1 -8 1 -15 0 -9 -1
-10 -1 -15 1 -4 1 -11 3 -17 3 -12 2 -13 2 -18 7 -3 2 -5 3 -7 3 -3 0 -9 6 -9
9 0 5 6 10 13 11 1 1 4 3 6 4 4 4 10 6 14 5 2 0 4 0 6 2 6 4 11 5 18 2z" fill="white"/>
<path d="M270 118 c-3 -2 -4 -2 -10 -2 -6 0 -6 -1 -10 -5 -3 -3 -5 -4 -8 -4
-9 -1 -12 -8 -5 -11 2 -1 3 -1 5 0 1 0 3 1 4 2 1 1 2 2 2 3 0 4 4 7 8 7 3 -1
4 0 4 1 1 1 8 3 11 2 2 0 3 0 4 1 2 3 8 2 10 0 3 -3 11 -2 15 2 4 4 10 4 14 0
2 -1 4 -3 5 -3 1 -1 1 -2 1 -3 -1 -1 -1 -1 1 0 1 0 4 1 5 2 4 3 9 2 13 -2 2
-2 4 -4 5 -5 1 -2 2 -4 3 -6 0 -3 1 -4 3 -5 2 0 4 0 6 1 3 3 4 5 1 7 -1 1 -3
2 -3 3 0 1 0 1 0 2 0 2 -7 5 -11 5 -3 0 -5 1 -8 4 -4 3 -9 4 -14 2 -3 -1 -3
-1 -5 1 -1 1 -3 2 -5 3 -3 2 -11 1 -17 -1 -4 -1 -6 -1 -8 0 -2 1 -6 1 -8 2 -4
0 -5 0 -8 -3z" fill="white"/>
<path d="M553 114 c-2 -4 -3 -12 -1 -14 2 -1 2 -1 2 1 1 3 3 4 4 1 1 -4 3 -2
3 4 0 3 -3 12 -5 12 0 0 -2 -2 -3 -4z" fill="white"/>
<path d="M433 113 c-4 -3 -5 -4 0 -6 5 -2 24 -2 29 0 2 1 4 2 4 3 0 1 -6 4 -9
4 -3 0 -8 -2 -8 -4 0 -2 -3 -2 -5 1 -3 3 -6 4 -11 2z" fill="white"/>
<path d="M303 112 c-2 -2 -1 -4 3 -6 3 -2 4 -3 1 -4 -1 -1 -5 1 -8 4 -2 1 -3
2 -5 1 -5 -1 -5 -1 -4 -3 1 -1 1 -2 1 -3 -1 -1 -6 2 -7 4 -1 3 -2 5 -4 5 -2 0
-2 -1 -2 -2 0 -1 -1 -2 -2 -3 -1 -1 -2 -1 -5 0 -4 2 -7 2 -7 0 0 -1 1 -1 1 -1
1 0 3 -1 4 -3 2 -3 3 -3 4 -2 2 2 8 1 10 -1 0 -1 3 -2 4 -3 4 -2 5 -6 2 -11
l-2 -3 6 0 c3 1 6 1 7 1 0 1 -1 2 -1 3 -2 3 -2 8 0 10 0 1 3 2 4 2 2 0 4 1 5
2 1 0 2 1 4 1 3 0 4 4 2 8 -3 5 -8 7 -11 4z" fill="white"/>
<path d="M328 106 c-1 -2 -3 -3 -5 -3 -5 0 -5 -6 0 -7 3 0 5 -4 5 -7 0 -2 1
-3 3 -3 4 -1 13 0 14 2 2 2 0 3 -3 2 -2 -1 -3 -1 -5 0 -3 1 -2 4 2 4 2 0 3 0
3 2 0 3 -2 5 -4 5 -1 0 -2 1 -2 2 -1 2 -2 3 -3 4 -2 1 -2 1 -5 -1z" fill="white"/>
<path d="M253 103 c0 -1 -1 -3 -1 -4 0 -2 -1 -3 -3 -4 -2 -1 -3 -3 -2 -3 0 -2
8 -6 12 -6 2 0 3 0 2 3 0 2 0 3 3 4 4 2 4 6 1 7 -2 0 -4 1 -5 2 -3 2 -5 2 -7
1z" fill="white"/>
<path d="M429 91 c0 -14 0 -15 7 -17 4 -1 18 -1 23 0 7 2 7 3 7 17 l0 13 -4
-2 c-6 -2 -23 -2 -28 0 -3 1 -4 2 -5 2 0 0 0 -6 0 -13z" fill="white"/>
<path d="M545 95 c-5 -2 -5 -3 -1 -5 4 -2 21 -2 24 0 3 1 3 4 0 5 -4 2 -9 1
-10 -4 -1 -2 -4 -2 -4 1 0 1 -4 5 -5 5 0 0 -2 -1 -4 -2z" fill="white"/>
<path d="M275 95 c0 -1 -2 -2 -4 -3 -2 -1 -4 -1 -5 -2 -2 -1 0 -3 6 -5 8 -3
10 -3 10 -2 0 1 1 2 3 3 2 2 3 5 1 5 -1 0 -1 0 -1 -1 0 -2 -2 0 -4 3 -2 3 -5
4 -6 2z" fill="white"/>
<path d="M310 94 c-1 -1 -3 -2 -5 -2 -3 0 -4 0 -4 -2 0 -1 1 -2 2 -3 1 -1 2
-3 2 -4 0 -2 16 -3 18 0 3 4 0 10 -4 8 -2 -1 -3 0 -3 3 0 1 -1 2 -2 2 -2 0 -3
-1 -4 -2z" fill="white"/>
<path d="M541 76 l0 -11 4 -2 c4 -2 18 -2 22 0 l3 2 0 11 c0 6 0 10 -1 10 -4
-3 -20 -3 -26 0 -2 0 -2 -1 -2 -10z" fill="white"/>
<path d="M359 79 c-4 -5 -11 -8 -19 -8 -4 0 -7 -1 -10 -2 -7 -4 -12 -4 -20 -3
-5 1 -7 1 -10 0 -6 -2 -17 -1 -22 1 -3 2 -6 2 -10 1 -7 0 -15 2 -19 5 -2 2 -4
3 -7 3 -2 0 -6 1 -9 2 -2 2 -4 3 -5 3 0 0 2 -7 4 -14 4 -16 6 -18 13 -22 13
-6 30 -9 52 -9 21 0 37 3 49 9 9 5 10 6 15 24 4 14 4 16 -2 10z" fill="white"/>
<path d="M105 74 l-13 -5 6 -1 c4 -1 9 -3 12 -4 l6 -1 10 3 c5 2 10 4 10 4 0
1 -16 9 -17 9 -1 0 -7 -2 -14 -5z" fill="white"/>
<path d="M178 76 c-7 -1 -23 -5 -41 -11 -14 -5 -19 -6 -22 -6 -3 0 -12 3 -20
5 -25 6 -34 5 -32 -4 1 -3 17 -16 23 -19 11 -6 22 -2 28 8 2 4 3 4 13 7 5 2
13 4 17 4 17 4 45 14 43 16 0 1 -4 1 -9 0z m-78 -19 c0 -1 0 -2 -1 -3 -1 -1
-3 -1 -9 -1 -9 1 -11 2 -5 4 4 1 14 1 15 0z m5 -8 c-1 -4 -12 -6 -16 -4 -2 1
-2 1 6 3 8 2 10 2 10 1z" fill="white"/>
<path d="M39 64 l-15 0 16 -17 c9 -8 20 -19 24 -23 l8 -7 5 0 c2 1 10 3 17 4
7 2 18 5 25 7 32 8 35 9 34 10 -1 1 -7 4 -13 8 -11 5 -12 6 -16 5 -3 -1 -5 -2
-7 -6 -5 -9 -17 -13 -29 -10 -6 2 -19 11 -25 18 -4 3 -5 5 -5 8 -1 4 1 4 -19
3z m15 -16 c4 -4 5 -5 3 -7 -1 0 -10 7 -10 9 0 3 2 2 7 -2z m19 -15 c5 -4 7
-6 5 -7 -2 -2 -14 7 -13 9 1 2 3 1 8 -2z" fill="white"/>
<path d="M147 57 c-6 -2 -11 -3 -11 -3 -1 0 5 -4 12 -8 12 -6 15 -8 13 -10 0
-1 -15 -6 -31 -10 -7 -2 -13 -3 -14 -4 -2 0 -1 -1 3 -4 3 -1 6 -3 8 -3 1 0 9
3 17 6 24 9 51 19 52 20 1 0 -1 2 -15 8 -8 3 -16 7 -19 9 -2 1 -4 2 -4 2 0 0
-5 -1 -11 -3z" fill="white"/>
<path d="M410 52 c-2 -1 -3 -2 -4 -4 -1 -2 -1 -2 1 -5 2 -1 3 -3 3 -3 0 -2 3
-5 7 -6 3 0 9 1 11 3 2 3 -2 6 -7 7 -7 0 -7 1 -6 3 1 0 2 1 3 1 3 0 2 3 -1 4
-3 1 -4 1 -7 0z" fill="white"/>
<path d="M504 50 c-6 -3 -7 -5 -5 -7 2 -1 3 -2 5 -1 5 1 8 1 8 0 0 -1 -1 -3
-3 -3 l-2 -2 3 -1 c2 -2 3 -2 6 -1 8 2 13 7 12 11 -1 3 -9 6 -14 6 -3 0 -7 -1
-10 -2z" fill="white"/>
<path d="M392 44 c-3 -2 -6 -5 -4 -5 1 -1 2 -1 3 -1 2 -1 9 5 8 6 -1 1 -3 1
-7 0z" fill="white"/>
<path d="M483 40 c-4 -2 -8 -7 -8 -9 1 -2 7 -5 12 -5 5 0 12 2 13 4 1 4 -1 4
-17 0 -1 0 -2 0 -3 1 -1 3 1 4 9 6 4 0 8 1 8 2 1 1 -3 3 -6 3 -2 0 -5 -1 -8
-2z" fill="white"/>
<path d="M400 38 c-3 -2 -7 -8 -6 -10 1 -3 6 -4 9 -1 3 2 5 6 4 10 0 4 -2 4
-7 1z" fill="white"/>
<path d="M504 33 c-2 -1 -1 -9 1 -11 3 -3 4 -2 5 2 0 3 -1 5 -3 7 -1 2 -3 3
-3 2z" fill="white"/>
<path d="M214 27 c-2 -1 -2 -1 6 -3 8 -1 11 -3 11 -5 0 -1 -5 -1 -16 1 -4 1
-6 1 -9 0 -6 -3 -8 -5 -6 -7 2 -1 4 -1 12 -1 8 0 10 -1 10 -2 0 -2 10 -1 15 2
7 3 7 4 2 9 -2 2 -6 4 -9 5 -5 2 -14 3 -16 1z" fill="white"/>
</g>
</svg>
