<?xml version="1.0" encoding="UTF-8"?>
<svg width="600" height="800" viewBox="0 0 600 800" fill="none" xmlns="http://www.w3.org/2000/svg">
<g transform="translate(0,800) scale(1,-1)">
<path d="M284 800 c0 -1 1 -11 2 -23 3 -54 8 -91 17 -128 1 -6 2 -11 2 -12 0
-1 -14 -4 -20 -4 -19 1 -39 -15 -48 -37 -5 -12 -6 -20 -5 -38 1 -27 1 -34 -2
-47 -4 -14 -3 -21 0 -28 2 -6 8 -9 12 -9 3 -1 5 -2 7 -4 5 -4 9 -6 15 -4 3 0
4 0 8 -2 6 -3 13 -3 20 0 6 3 10 2 11 -3 l0 -3 -7 0 c-10 -1 -18 -4 -30 -9
-16 -8 -24 -17 -29 -32 -1 -2 -2 -2 -8 -2 l-8 0 0 53 c-1 47 -1 54 -2 58 -2 6
-2 7 0 7 1 0 3 2 5 4 4 4 4 10 0 14 l-3 4 -15 -1 c-8 0 -16 0 -19 1 l-4 0 0
10 c1 19 -1 35 -7 47 l-2 5 2 3 c4 4 5 7 5 16 l0 8 3 0 c2 1 7 1 11 2 11 0 24
4 25 6 1 3 1 11 -1 22 -3 19 -9 34 -20 44 -6 5 -11 8 -21 12 -6 2 -9 2 -18 2
-22 0 -39 -9 -52 -27 -8 -11 -13 -30 -13 -46 l0 -8 4 -1 c7 -1 22 -4 30 -5 l8
0 -1 -7 c0 -9 1 -14 5 -17 l3 -3 -2 -3 c-5 -6 -8 -24 -8 -43 0 -6 0 -7 -2 -7
0 1 -3 1 -4 1 -4 0 -4 0 -10 12 -3 7 -8 16 -10 20 -5 6 -5 7 -5 10 1 5 0 11
-4 14 -3 3 -8 3 -15 0 -7 -4 -10 -4 -19 1 -15 7 -39 14 -59 16 -6 1 -6 1 -6
-1 0 -2 1 -2 3 -2 13 0 59 -13 59 -16 0 -1 -2 -1 -5 -1 -15 0 -57 -13 -57 -17
0 -1 0 -2 1 -2 0 0 5 2 12 4 21 9 41 13 57 12 8 -1 9 -1 15 2 8 4 10 4 13 1 1
-2 1 -4 2 -9 0 -7 0 -8 4 -14 7 -10 17 -31 20 -42 4 -10 7 -27 7 -39 1 -12 1
-13 6 -15 2 -2 3 -3 3 -6 0 -5 -2 -6 -11 -6 -6 1 -7 1 -13 -2 -14 -7 -36 -15
-48 -17 l-5 0 0 9 c0 8 0 10 -2 14 -4 9 -11 15 -21 17 -4 0 -4 1 -4 3 0 1 0 5
0 10 0 7 0 9 -2 13 -5 10 -15 17 -24 17 -7 0 -10 -1 -10 -3 0 -1 1 -2 7 -1 8
0 14 -2 19 -8 5 -5 8 -12 8 -18 0 -5 -3 -13 -5 -15 l-3 -2 -3 2 c-4 4 -11 7
-17 7 -5 0 -6 0 -6 -2 0 -1 1 -2 2 -1 4 1 13 -2 17 -5 7 -5 10 -12 10 -22 0
-7 0 -8 -3 -13 -4 -7 -11 -11 -20 -12 -4 0 -6 -1 -6 -2 0 -1 3 -2 10 -1 6 1 7
1 9 -1 5 -3 13 -5 20 -4 5 0 9 0 19 -2 15 -4 19 -5 25 -11 11 -10 16 -26 18
-56 l0 -13 -4 -3 c-10 -8 -41 -20 -54 -20 l-3 0 0 18 c-1 29 -5 46 -11 55 -4
5 -7 6 -18 8 -10 2 -11 2 -11 0 0 -1 2 -2 8 -3 10 -1 15 -3 15 -4 0 -1 -5 -3
-12 -6 -8 -4 -11 -5 -11 -7 0 -2 0 -2 6 0 3 2 8 4 11 6 4 1 7 3 8 3 1 2 4 -3
6 -11 3 -9 5 -28 6 -50 l0 -20 -2 -1 c-1 0 -7 -2 -12 -5 -5 -2 -9 -4 -9 -4 -1
0 -1 3 -1 6 0 6 0 7 3 7 3 1 3 4 0 4 -2 0 -3 1 -3 4 -2 7 -1 10 2 10 3 1 2 3
-1 4 -1 0 -2 0 -2 0 -1 0 -1 4 -1 8 -1 6 -1 7 2 8 3 1 2 3 -2 3 -2 0 -3 0 -4
5 -2 5 -2 6 0 7 2 2 1 3 -1 3 -1 0 -3 1 -4 4 l-2 5 0 -7 c0 -4 1 -7 2 -7 0 -1
1 -4 2 -6 1 -5 1 -7 -3 -7 0 0 -1 -1 -1 -2 0 -2 0 -2 3 -1 3 0 4 0 5 -8 l0 -7
-3 0 c-4 -1 -4 -4 1 -4 l3 0 0 -7 c0 -6 0 -6 -3 -7 -3 -1 -2 -4 1 -3 l3 0 0
-7 0 -7 -5 -3 c-3 -2 -5 -3 -5 -4 0 -1 0 -2 0 -2 1 0 9 4 19 9 l18 9 0 -9 c0
-5 1 -16 1 -23 l0 -14 -3 -2 c-2 -1 -11 -6 -19 -10 -12 -7 -16 -10 -16 -11 0
-2 1 -2 7 2 23 13 31 17 31 16 1 0 1 -1 1 -3 0 -2 -2 -4 -20 -15 -14 -9 -19
-13 -19 -14 0 -3 0 -3 21 11 l18 11 0 -4 c1 -3 2 -5 4 -6 7 -4 44 5 55 15 5 4
8 10 8 16 0 9 0 9 38 9 17 1 34 1 38 2 4 0 7 1 7 1 0 -1 -4 -3 -9 -7 -5 -4
-15 -11 -22 -16 -10 -7 -14 -9 -17 -9 -5 -1 -10 -3 -12 -7 -1 -2 -2 -2 -5 -1
-6 1 -13 -2 -17 -6 -3 -3 -4 -4 -8 -4 -5 0 -11 -3 -15 -7 -2 -3 -4 -4 -7 -4
-5 -1 -10 -5 -13 -9 -2 -4 -2 -4 -7 -5 -5 0 -10 -2 -14 -8 -3 -4 -4 -5 -8 -6
-6 -1 -11 -5 -13 -10 -1 -2 -2 -3 -5 -3 -4 -1 -9 -5 -11 -10 -1 -2 -2 -3 -4
-3 -1 0 -2 -1 -2 -2 0 -1 2 -2 7 -1 0 0 1 1 1 3 1 4 7 9 11 10 3 0 4 1 7 5 3
5 6 7 11 8 4 0 5 1 7 5 5 7 8 8 15 9 l5 0 3 5 c3 5 8 8 13 8 3 0 4 1 6 4 3 4
8 7 15 8 3 0 5 1 9 4 5 5 7 5 14 5 5 -1 6 -1 9 3 l4 5 9 0 c7 0 9 0 11 1 4 4
8 5 15 5 5 -1 7 -1 8 1 2 2 6 4 9 4 1 0 3 -1 4 -1 2 -1 3 -1 4 -1 1 2 6 4 7 4
1 -1 1 -4 -2 -13 -2 -7 -4 -14 -5 -17 -1 -2 -2 -4 -2 -4 -1 0 -5 -2 -10 -4 -9
-5 -17 -12 -21 -19 -5 -9 -6 -23 -3 -32 1 -1 -2 -3 -13 -9 -17 -8 -24 -13 -27
-18 -4 -5 -4 -9 -1 -12 1 -1 3 -3 4 -5 1 -2 2 -3 6 -3 7 0 7 0 6 -2 -1 -2 -2
-2 -7 -1 -13 1 -33 -4 -46 -12 -10 -6 -22 -18 -26 -26 -2 -3 -4 -6 -5 -6 -2 0
-8 5 -11 10 -2 5 -2 6 -2 16 0 6 0 12 1 14 2 5 1 10 -3 12 -3 2 -7 0 -12 -6
-11 -12 -15 -29 -9 -41 1 -4 2 -7 2 -9 0 -6 4 -13 10 -16 3 -2 5 -4 5 -5 1 -3
7 -6 14 -7 4 0 6 -1 6 -2 0 -2 9 -13 13 -17 12 -9 26 -13 46 -15 8 -1 18 -2
25 -2 13 -2 17 -1 21 5 2 3 3 5 3 8 0 4 0 5 4 6 3 0 5 0 6 0 3 -3 17 -6 28 -7
11 -1 14 -1 21 -5 10 -4 16 -5 20 -3 4 2 7 8 7 12 0 3 0 3 4 3 14 0 19 15 8
23 -4 4 -9 5 -23 9 -8 2 -12 4 -13 5 -3 4 -2 6 1 7 8 4 14 11 16 20 l1 5 6 0
c4 1 6 1 8 4 3 2 6 3 11 4 4 1 15 5 25 8 l17 5 15 -2 c8 -1 25 -3 38 -5 38 -5
42 -6 53 -9 22 -7 39 -10 59 -12 8 0 10 0 13 2 3 2 10 8 10 9 0 1 1 2 2 4 3 3
3 9 -1 12 -1 1 -2 3 -2 3 0 0 2 1 5 1 8 2 28 8 36 12 4 2 9 5 10 7 10 11 15
31 12 44 -5 19 -19 32 -43 37 -5 2 -9 3 -11 5 -3 3 -23 8 -47 11 -14 2 -16 3
-18 10 -3 6 -3 7 2 8 6 3 12 2 16 0 3 -2 3 -2 6 0 5 2 9 1 13 -1 4 -2 4 -2 8
0 5 1 9 1 13 -1 3 -1 4 -1 10 0 5 1 6 1 10 -1 4 -2 5 -2 10 -1 6 1 6 1 11 -1
4 -2 6 -3 9 -2 4 1 9 0 13 -4 4 -3 4 -3 9 -1 5 1 9 1 14 -3 4 -2 6 -2 11 -2 5
0 6 0 6 1 0 2 -1 2 -3 2 -4 0 -4 0 0 15 2 8 3 14 3 18 0 5 -1 5 -5 -13 -3 -11
-6 -19 -6 -20 -1 0 -3 1 -5 3 -4 3 -11 4 -16 2 -3 -1 -4 -1 -6 1 -4 4 -8 5
-14 5 -4 0 -7 0 -8 1 -5 3 -9 3 -14 2 -4 -1 -5 -1 -7 0 -1 1 -4 2 -7 3 l-4 0
5 10 c3 6 13 27 23 47 l17 37 23 0 c23 0 24 0 24 2 0 2 -1 2 -78 2 -77 0 -78
0 -78 2 -1 1 -1 8 -1 16 -1 8 -1 15 -1 16 0 1 9 2 75 2 l76 0 0 -11 c0 -9 1
-10 3 -12 1 -2 3 -3 3 -3 2 0 1 3 -1 5 -2 3 -2 12 0 40 2 22 2 54 1 42 -1 -3
-2 -13 -2 -20 -1 -12 -2 -15 -3 -15 -2 0 -2 6 -2 124 l0 123 4 -6 c3 -6 4 -6
4 -3 0 2 -2 7 -8 18 -15 28 -25 54 -33 87 -4 15 -5 18 -6 18 -1 0 -2 -1 -2 -1
0 -3 9 -35 11 -45 3 -6 3 -10 3 -19 0 -7 0 -12 0 -12 -1 0 -2 1 -4 2 -8 4 -20
-1 -25 -11 -3 -4 -4 -5 -5 -4 -2 0 -5 0 -8 1 -9 1 -17 -6 -19 -16 0 -4 -1 -4
-3 -4 -11 0 -23 -10 -23 -21 0 -5 3 -12 8 -14 3 -2 5 -3 10 -3 7 0 7 0 9 -3 1
-2 3 -4 5 -6 3 -2 4 -2 9 -2 5 0 7 0 10 1 l3 2 3 -3 c6 -7 18 -8 27 -2 l3 2 0
-50 0 -51 -6 1 c-7 0 -11 -2 -14 -8 -1 -3 -2 -4 -3 -3 -2 0 -5 0 -7 1 -6 0
-10 -3 -13 -8 -1 -3 -1 -3 -3 -2 -1 1 -3 1 -5 1 -3 0 -3 0 -3 2 7 16 -2 32
-18 32 -4 0 -7 -1 -9 -2 -4 -3 -5 -3 -6 1 -1 2 -3 4 -5 6 -7 7 -19 6 -26 -2
-2 -3 -3 -3 -7 -3 l-4 1 0 80 0 80 5 17 c6 19 12 40 14 55 2 10 2 10 0 10 -1
0 -2 -1 -2 -5 -3 -16 -15 -61 -24 -85 -9 -24 -24 -57 -34 -76 -1 -1 -3 -5 -4
-7 -2 -4 -4 -6 -5 -6 -7 0 -14 -3 -19 -5 -9 -4 -10 -4 -19 4 -10 10 -22 15
-35 16 -3 0 -4 1 -5 5 -2 7 -9 42 -11 58 -3 21 -9 86 -9 99 0 1 -1 2 -2 2 -1
0 -2 0 -2 0z m289 -75 c2 -5 6 -14 10 -20 l5 -11 0 -127 0 -128 -9 0 -10 0 0
133 c0 129 0 163 0 162 1 0 2 -4 4 -9z m-396 1 c9 -3 14 -6 21 -12 11 -12 19
-34 19 -53 l0 -7 -5 -1 c-13 -4 -40 -7 -58 -6 -25 2 -50 5 -54 7 -4 2 1 31 7
43 4 7 11 15 18 20 9 6 12 8 20 10 9 3 24 2 32 -1z m385 -6 l3 -1 0 -37 0 -36
-5 -3 c-9 -5 -17 -4 -24 3 l-4 4 -4 -3 c-4 -2 -6 -2 -10 -2 -5 1 -9 4 -11 10
l-1 3 -6 -1 c-8 0 -13 2 -16 6 -4 8 -1 17 7 22 2 0 6 2 10 2 l7 2 0 4 c0 3 1
6 2 7 4 7 13 9 20 5 2 -1 3 -2 4 -2 0 0 1 3 3 6 6 12 15 16 25 11z m-131 -145
l0 -127 -4 4 c-2 3 -6 6 -9 8 l-4 2 0 101 0 100 8 20 c5 11 9 20 9 20 0 0 0
-57 0 -128z m-21 -16 l0 -95 -4 0 c-2 1 -4 2 -5 2 0 1 -1 7 -1 12 -1 6 -2 14
-2 18 l-1 7 3 4 c11 11 9 24 -5 34 -2 1 -3 5 -4 12 -2 9 -2 11 0 12 3 2 7 5 8
7 1 1 1 6 1 10 1 6 1 9 3 12 6 10 2 21 -7 25 -4 1 -4 3 -1 9 5 8 14 26 15 26
0 0 0 -43 0 -95z m-234 84 c2 -3 2 -11 1 -16 -3 -6 -8 -9 -17 -9 -15 0 -23 8
-20 23 l1 3 18 0 c10 0 17 0 17 -1z m149 -13 c18 -6 37 -28 40 -47 1 -4 2 -8
4 -9 1 -1 5 -8 8 -14 7 -13 8 -16 17 -23 3 -3 7 -6 8 -8 2 -5 1 -12 -1 -17 -3
-4 -10 -9 -11 -7 0 0 -1 3 -2 6 -1 5 -4 9 -7 13 -3 2 -3 2 -4 1 0 -1 1 -3 2
-5 6 -7 8 -17 5 -23 -3 -5 -8 -8 -12 -8 -3 0 -4 1 -4 6 0 3 -1 5 -2 5 -1 0 -2
-2 -2 -5 0 -5 -3 -9 -7 -11 -4 -2 -6 -1 -7 3 -1 3 0 5 1 8 2 4 4 14 5 22 1 4
2 5 4 7 8 3 13 11 12 19 -2 9 -6 13 -14 13 -2 0 -4 -1 -7 -3 -5 -4 -11 -5 -24
-3 -10 1 -17 4 -24 8 -7 4 -13 11 -13 15 0 3 -3 3 -10 -2 -11 -7 -20 -19 -24
-31 -1 -5 -1 -5 -5 -5 -2 0 -4 -1 -7 -4 -4 -4 -5 -6 -4 -12 1 -11 13 -25 22
-25 2 0 3 -1 4 -4 3 -6 14 -17 20 -20 6 -3 5 -4 -2 -5 -5 0 -12 2 -14 5 -1 1
-3 4 -3 6 -3 8 -6 5 -4 -4 1 -2 1 -3 -1 -3 -4 -1 -10 2 -13 7 -1 2 -2 6 -3 9
0 4 -1 6 -2 6 -2 0 -2 -5 -1 -11 1 -6 -9 0 -11 7 -2 5 -1 17 2 28 2 8 2 10 1
24 -1 35 0 45 7 60 5 11 17 22 26 27 5 2 7 3 15 3 5 0 11 1 14 1 5 3 21 2 28
0z m70 -15 c7 -3 9 -12 4 -20 -2 -4 -2 -6 -2 -11 0 -11 -4 -16 -12 -16 -2 0
-5 1 -8 3 -6 3 -7 5 -8 12 -1 3 -1 6 -2 7 0 3 4 2 9 -1 3 -1 5 -2 5 -1 2 2 -3
6 -8 7 -3 1 -5 1 -6 2 0 0 -1 1 -1 2 0 2 1 3 3 3 2 1 6 0 8 0 7 -2 8 -2 8 0 0
2 -7 4 -13 4 -4 0 -6 0 -7 2 0 1 -1 2 -1 2 0 1 9 5 14 6 4 2 13 1 17 -1z
m-232 -1 c8 1 8 0 11 -5 4 -10 5 -17 6 -34 0 -12 0 -18 -1 -18 0 0 -5 1 -11 2
-9 3 -14 3 -27 6 l-3 0 0 11 c0 18 3 31 8 37 2 3 2 3 6 2 2 -1 7 -1 11 -1z
m198 -7 c2 -4 2 -5 0 -2 -3 3 -4 5 -2 5 0 0 1 -1 2 -3z m-73 -40 c3 -4 11 -12
18 -15 9 -4 17 -6 30 -6 12 0 12 0 16 3 4 4 8 5 11 2 4 -2 5 -6 5 -11 0 -4 -1
-6 -3 -8 -2 -2 -5 -4 -7 -5 -4 -1 -4 -2 -6 -10 -2 -21 -11 -37 -23 -43 -14 -8
-27 -8 -42 0 -11 6 -18 16 -24 34 -7 23 -6 32 5 47 4 5 16 15 18 15 1 0 2 -1
2 -3z m99 -11 c2 -8 2 -10 0 -6 -2 2 -9 14 -9 15 0 1 2 0 4 0 3 -2 4 -2 5 -9z
m-244 4 c7 0 19 -3 28 -5 8 -2 15 -4 16 -4 0 0 0 0 0 -1 -1 -1 -3 -1 -5 -1 -9
0 -21 -10 -25 -21 -2 -6 -3 -19 -2 -32 l1 -6 -4 1 c-7 1 -8 1 -8 3 0 3 -3 7
-5 9 -3 2 -4 2 -4 15 -1 11 -4 27 -7 37 -3 8 -3 8 1 8 1 -1 8 -2 14 -3z m323
2 c4 -2 10 -8 10 -12 1 -3 3 -4 5 -2 1 2 8 5 13 5 13 0 19 -14 13 -29 -1 -3
-2 -5 -2 -6 1 0 3 0 5 1 4 1 5 1 7 0 2 -1 4 -3 4 -5 1 -1 2 -2 3 -2 1 0 1 1 1
3 -1 5 2 11 6 13 2 1 4 1 6 0 2 -1 4 -2 5 -2 1 -2 3 -1 5 5 4 6 8 9 14 7 l4
-1 0 -49 0 -49 -65 0 -65 0 0 58 0 57 3 0 c2 0 4 -1 5 -2 2 -2 4 -2 4 0 0 3 4
7 8 9 5 2 7 2 11 1z m-245 -13 c3 -3 3 -8 0 -11 -3 -3 -6 -3 -11 2 -2 2 -6 6
-10 7 -3 2 -6 3 -6 4 0 0 6 0 13 0 11 0 12 0 14 -2z m-20 -6 c5 -3 12 -11 14
-17 2 -6 3 -50 3 -115 l0 -62 -12 -7 c-6 -3 -12 -6 -12 -6 -1 0 -1 17 -1 38
l0 37 3 4 c5 6 5 13 4 33 -1 18 -1 18 -4 25 -6 11 -11 14 -28 16 -4 1 -8 1 -8
2 0 0 -1 5 -1 11 -2 21 1 31 13 40 7 5 20 5 29 1z m53 -12 c1 -1 1 -5 2 -9 1
-4 2 -11 4 -16 1 -4 2 -8 2 -8 -1 -1 -6 2 -10 5 -5 5 -8 12 -8 18 0 5 1 7 5 9
3 2 5 2 5 1z m-210 -27 c11 -3 17 -14 16 -28 -1 -9 -4 -14 -11 -18 -5 -3 -6
-3 -13 -3 -7 0 -16 2 -16 4 0 1 2 2 3 4 9 6 12 20 8 32 l-2 6 2 3 c3 2 6 3 13
0z m350 -5 c0 -1 1 -15 3 -27 0 -6 0 -6 -2 -5 -2 0 -7 1 -12 1 l-8 2 -1 4 c-1
7 -2 8 -3 7 -1 -1 -2 -2 -2 -3 1 -7 -1 -9 -8 -9 -6 0 -8 1 -9 6 0 4 0 4 4 5 2
1 5 2 7 4 3 2 4 2 9 2 5 0 6 0 9 3 2 2 5 5 6 7 2 3 3 4 5 4 1 0 2 0 2 -1z
m-227 -14 c14 -1 19 -4 24 -10 5 -8 5 -11 5 -33 l1 -20 -4 -4 c-3 -5 -10 -9
-35 -20 -19 -8 -52 -22 -53 -22 0 0 -1 5 -1 12 -1 22 -6 38 -15 49 -3 5 -4 6
-2 6 1 0 14 5 31 12 16 6 35 13 43 16 14 4 16 5 16 7 0 2 -5 0 -24 -6 -18 -6
-66 -25 -69 -27 -1 0 -3 0 -6 2 -2 1 -9 3 -14 4 -6 1 -11 2 -12 3 0 0 1 2 4 5
6 6 6 6 15 7 11 3 29 9 42 15 10 5 11 5 16 4 5 -1 6 -1 10 1 4 2 8 2 28 -1z
m183 -15 c2 -3 6 -5 9 -5 3 0 3 -3 -1 -10 -4 -7 -8 -11 -17 -15 -6 -3 -8 -3
-15 -3 -13 -1 -22 3 -25 11 -2 4 -1 6 2 6 2 0 3 1 3 5 l0 5 5 0 c14 2 23 7 31
16 l4 5 2 -6 c0 -4 2 -8 2 -9z m41 -6 c4 -1 7 -2 8 -2 0 -1 -1 -5 -3 -10 -7
-17 -8 -31 -5 -51 2 -14 5 -36 5 -48 1 -5 1 -15 2 -23 2 -22 1 -23 -16 -27
-30 -8 -59 -9 -83 -3 -9 2 -9 3 -10 16 -1 10 -1 11 -5 22 -16 35 -16 38 -16
76 1 15 1 28 2 30 0 3 1 4 9 6 4 2 10 3 12 4 5 0 5 0 5 -2 0 -3 4 -10 7 -13
12 -9 34 -9 48 2 6 5 11 12 13 20 l2 5 9 0 c4 -1 11 -2 16 -2z m24 -6 c11 -6
18 -20 23 -45 2 -14 3 -89 1 -102 -3 -24 -11 -39 -48 -89 -9 -13 -18 -26 -21
-31 -5 -10 -6 -11 -20 -17 -4 -2 -11 -6 -15 -9 -8 -6 -12 -8 -14 -7 -1 1 2 4
7 9 5 4 8 7 5 7 -1 0 -10 -7 -15 -12 -4 -5 -8 -6 -9 -4 -2 1 7 13 15 19 5 4 6
6 3 7 -3 0 -18 -16 -21 -21 -4 -10 -7 -4 -3 7 2 4 4 7 10 13 6 6 7 8 6 9 -3 0
-8 -4 -14 -12 -2 -3 -4 -6 -4 -6 0 -1 -1 -1 -1 -1 -3 0 -3 3 -1 8 7 14 27 24
49 26 1 1 2 1 3 2 2 1 10 16 25 50 7 16 16 33 19 39 8 14 8 14 6 46 -2 25 -3
31 -6 53 -3 22 -3 36 2 51 5 13 7 14 18 10z m-150 -23 c0 -5 0 -18 0 -30 0
-23 1 -31 5 -43 l2 -7 -3 -9 c-17 -64 -28 -93 -43 -122 -15 -29 -13 -25 -14
-39 0 -16 -2 -22 -7 -26 -3 -2 -5 0 -5 6 0 8 -3 11 -9 9 -2 -1 -10 -6 -18 -11
-7 -5 -14 -9 -16 -10 -7 -1 -5 8 4 16 3 3 4 4 1 4 -3 0 -11 -10 -13 -15 0 -3
-9 -10 -11 -10 -1 0 -2 1 -2 2 0 3 9 16 15 22 4 3 6 6 6 7 -1 1 -1 1 -4 -1 -5
-3 -15 -15 -21 -27 0 -1 -2 -2 -3 -2 -3 0 -3 3 3 12 7 12 13 17 25 23 6 2 13
6 17 7 3 1 7 3 8 4 3 3 8 16 16 48 4 13 9 30 12 37 11 33 11 34 20 85 5 34 7
43 11 53 5 11 10 18 19 23 6 4 6 4 5 -6z m329 -8 c0 -5 0 -9 -1 -10 0 -1 -16
-1 -76 -1 l-76 1 -2 9 c-2 5 -3 9 -2 9 0 0 35 1 79 1 l79 0 -1 -9z m-362 -26
c-1 -6 -2 -14 -3 -18 l-1 -7 -4 0 -3 0 0 18 0 17 7 0 7 0 -3 -10z m-42 -12 l0
-20 -32 -16 c-31 -16 -52 -25 -53 -25 0 1 -1 31 -1 37 1 6 1 7 4 8 9 3 53 22
65 28 8 4 15 7 16 7 1 0 1 -4 1 -19z m34 -33 c-1 -9 -3 -19 -3 -23 l-1 -7 -10
-8 c-6 -4 -12 -8 -15 -10 -3 -3 -4 -3 -3 -1 1 1 1 7 1 13 l0 11 5 3 c3 1 9 5
14 8 l9 5 0 12 c0 12 0 13 2 13 2 0 3 0 3 0 1 0 0 -7 -2 -16z m248 13 c-9 -12
-27 -35 -27 -35 -1 0 -1 9 -1 20 l0 19 16 0 15 0 -3 -4z m77 4 c0 -1 -2 -5 -5
-10 -2 -5 -9 -19 -14 -31 -15 -33 -27 -55 -28 -55 -1 0 -3 1 -6 2 -3 1 -4 1
-10 0 -4 -1 -7 -1 -9 0 -2 1 -6 1 -10 1 -5 -1 -8 0 -11 1 -4 2 -9 1 -15 -1 -7
-2 -7 -1 -3 10 3 10 4 17 6 29 l0 8 15 19 c7 10 15 20 17 23 l3 4 35 0 c19 0
35 0 35 0z m-359 -36 c-1 -16 -1 -29 -2 -29 0 -1 -4 -1 -7 -2 l-7 0 0 19 c0
22 0 23 -8 25 l-4 1 13 7 c7 4 14 7 14 7 1 0 1 -11 1 -28z m-88 -22 c1 -26 1
-26 -1 -30 -4 -8 -16 -14 -35 -19 -9 -2 -21 -3 -23 -1 0 1 -1 21 -2 57 l-1 20
5 0 c15 2 37 10 49 17 l7 5 0 -12 c0 -6 0 -23 1 -37z m178 22 c3 -7 5 -14 6
-17 0 -7 1 -6 -16 -24 -14 -14 -16 -15 -13 -5 6 18 10 34 13 44 4 13 4 14 4
14 1 0 3 -6 6 -12z m-112 8 c2 -2 2 -3 2 -21 0 -17 0 -17 -1 -7 -1 12 -1 14
-5 15 -1 0 -11 0 -21 0 -11 0 -20 0 -20 0 1 0 7 3 16 7 13 7 15 8 21 8 5 0 6
0 8 -2z m-51 -18 c-1 0 -1 -6 -1 -12 l0 -11 -3 0 c-2 0 -4 0 -5 -1 -2 -1 -2 0
-2 6 -2 14 -2 14 4 17 6 3 7 4 7 1z m47 0 c2 -2 3 -16 1 -19 -1 -2 -2 -2 -14
-2 -7 -1 -16 -1 -21 -1 -4 -1 -8 -1 -9 0 -1 1 -2 19 -1 21 1 1 4 2 14 2 25 1
29 1 30 -1z m52 -16 c-1 -4 -3 -12 -5 -17 l-4 -9 -4 -1 c-2 0 -4 -1 -6 -2 -1
-1 -2 -1 -5 0 -3 1 -9 0 -12 -3 -2 -1 -4 -2 -8 -1 -5 0 -7 0 -11 -2 -3 -2 -6
-4 -7 -4 -2 -1 -4 -1 -3 0 2 2 67 48 67 48 0 -1 -1 -4 -2 -9z m70 -6 c0 -1 2
-3 4 -5 4 -4 4 -4 4 -10 l0 -6 -7 1 c-4 0 -7 0 -10 -1 -3 -2 -4 -2 -7 -1 -1 1
-3 2 -4 2 0 0 -1 0 -1 1 0 1 19 21 20 21 1 0 1 -1 1 -2z m106 -4 c0 0 -3 -7
-7 -15 l-7 -14 -9 -3 c-11 -2 -17 -3 -16 -1 1 4 -5 9 -7 7 -1 -1 -1 -2 1 -3 1
-1 2 -3 2 -4 1 -2 1 -2 -6 -2 -14 0 -38 6 -43 11 -1 1 -2 3 -2 10 -1 5 -1 9
-1 9 1 0 4 -1 9 -1 10 -3 30 -3 43 -2 11 1 34 6 38 8 4 1 5 1 5 0z m-121 -22
c3 -1 3 -1 7 1 5 2 9 3 14 1 3 -2 4 -4 1 -6 -1 0 -3 -3 -4 -5 -3 -8 -6 -9 -26
-11 -7 -1 -14 -1 -15 -2 -3 0 -3 2 1 12 3 8 4 9 8 11 5 2 8 2 14 -1z m164 -11
c1 -3 3 -7 4 -8 1 -2 9 -4 27 -7 13 -2 33 -7 35 -9 2 -2 0 -2 -4 -1 -2 0 -5 1
-7 1 -5 0 -20 -4 -29 -7 -10 -4 -24 -13 -30 -19 -3 -4 -5 -5 -10 -7 -9 -3 -28
-10 -38 -15 -4 -2 -7 -3 -7 -2 0 0 10 14 22 31 12 17 25 35 28 40 3 6 6 10 6
10 0 0 2 -3 3 -7z m-127 1 c5 -2 12 -4 16 -4 10 -3 29 -2 41 0 6 1 10 2 10 2
1 -1 -23 -50 -25 -53 -2 -3 -4 -3 -12 -5 -5 -1 -12 -3 -14 -4 l-5 -2 -5 3 c-3
2 -10 5 -15 8 -7 3 -12 6 -15 9 -11 9 -24 17 -36 21 -4 1 -7 2 -7 3 0 0 1 2 1
3 l2 4 17 1 c9 1 18 2 20 3 5 1 10 6 12 10 1 2 2 4 2 4 2 1 2 1 13 -3z m-113
-27 c-1 -1 -3 -10 -6 -19 -7 -24 -7 -25 -13 -28 -3 -1 -7 -2 -8 -3 -3 0 -3 0
-4 4 -4 18 4 34 22 43 8 4 9 5 9 3z m53 -2 c8 -2 20 -9 27 -14 l4 -4 -10 3
c-8 3 -12 3 -22 4 -7 0 -13 1 -13 1 0 1 5 13 6 13 0 0 3 -1 8 -3z m249 -1 c2
-1 3 -1 5 0 5 2 16 0 28 -6 10 -5 16 -11 21 -20 3 -7 4 -8 4 -18 0 -12 -3 -21
-9 -29 -5 -6 -16 -12 -32 -16 -19 -6 -25 -6 -32 -5 -4 1 -9 2 -12 2 -8 0 -11
1 -23 10 -16 13 -25 15 -42 9 -11 -3 -17 -3 -27 2 -4 2 -9 5 -10 6 l-3 3 3 4
c2 2 4 4 4 5 1 2 11 7 32 15 38 15 64 20 89 15 10 -1 12 -1 10 1 -5 5 -42 5
-63 0 -3 -1 -5 -1 -5 -1 0 2 12 10 19 14 8 4 22 8 32 10 8 1 8 1 11 -1z m-234
-16 c16 -5 49 -18 51 -21 0 -1 -1 -2 -2 -3 -5 -3 -14 -12 -16 -17 -3 -6 -3 -9
0 -12 3 -2 3 -2 2 -6 -1 -3 -1 -5 0 -7 1 -2 2 -3 8 -3 4 -1 7 -1 9 0 2 1 3 1
5 1 3 -2 9 1 16 7 4 3 10 6 15 9 8 3 10 4 12 2 7 -5 16 -9 21 -11 8 -3 9 -2
26 2 13 4 19 2 34 -9 12 -9 16 -11 28 -12 16 -1 27 -7 24 -13 -1 -2 -2 -2 -11
0 -4 1 -5 1 -6 0 -2 -1 0 -3 3 -3 3 0 10 -3 10 -4 0 -2 -2 -2 -5 -1 -3 2 -8 3
-8 1 0 -1 2 -2 5 -3 5 -3 3 -4 -2 -2 -5 1 -7 0 -4 -2 2 -2 2 -2 -15 0 -18 2
-31 5 -47 10 -9 3 -19 5 -28 6 -78 10 -78 10 -101 15 -17 3 -39 10 -42 13 -2
1 -4 5 -6 8 -5 8 -13 16 -19 19 l-4 2 0 5 c1 7 14 31 18 31 5 1 23 0 29 -2z
m-43 -40 c9 -5 13 -11 21 -27 4 -8 9 -17 11 -19 4 -5 4 -9 1 -12 -2 -3 -5 -4
-9 -3 -2 0 -3 1 -4 3 0 2 -2 5 -3 7 -3 4 -4 6 -4 11 -1 8 -4 17 -6 17 -1 0 -1
-3 1 -10 0 -3 1 -7 1 -10 0 -3 1 -5 3 -7 4 -5 5 -7 5 -14 0 -14 -11 -24 -31
-27 -10 -2 -18 0 -28 5 l-7 3 0 8 c0 5 -1 12 -2 17 -1 4 -2 10 -3 14 0 8 -1 8
-3 7 -2 -2 -1 -8 3 -22 2 -13 3 -17 0 -23 -6 -13 -27 -11 -33 2 -1 4 -1 6 0
10 1 3 2 10 2 15 2 12 4 15 10 20 5 3 6 4 8 2 4 -2 8 0 23 11 11 7 17 10 19
10 1 -1 1 -2 1 -6 0 -7 2 -10 7 -10 7 0 13 12 13 24 0 3 0 6 1 6 0 0 2 -1 3
-2z m-88 -16 c-2 -3 -4 -7 -5 -8 -1 -2 -3 -3 -4 -3 -2 0 -1 4 1 7 2 3 9 9 10
9 1 0 0 -2 -2 -5z m147 -22 c7 -1 14 -3 16 -3 3 -1 4 -1 3 -2 0 0 -7 -3 -14
-5 -26 -8 -25 -8 -25 -3 0 1 -2 4 -4 7 -3 4 -9 14 -9 15 0 1 4 -1 10 -3 5 -1
15 -4 23 -6z m-243 -3 c0 -2 0 -8 -1 -13 -1 -6 -1 -8 0 -14 3 -8 7 -15 12 -18
5 -3 5 -3 4 -6 0 -2 0 -7 0 -12 l0 -9 -4 0 c-4 0 -10 3 -11 6 0 1 -1 2 -1 2
-2 0 -10 6 -12 10 -3 5 -3 5 1 4 3 0 3 2 0 5 -2 1 -4 4 -5 7 -2 5 -2 7 -2 14
1 7 1 9 4 15 4 7 11 14 14 14 1 0 1 -2 1 -5z m93 -4 l4 0 -1 -7 c0 -4 -1 -9
-2 -13 -1 -8 -1 -13 1 -18 4 -7 10 -11 20 -11 6 0 11 2 15 6 l3 3 5 -3 c8 -5
17 -7 28 -7 6 1 11 1 13 2 2 0 2 0 3 -3 2 -5 5 -6 18 -10 18 -4 24 -8 25 -15
1 -2 0 -2 -1 -2 -2 0 -2 0 -2 -3 0 -5 -2 -5 -3 -1 -2 6 -6 8 -5 3 2 -6 2 -7
-1 -6 -1 0 -4 2 -6 4 -3 4 -12 8 -23 11 -5 1 -9 2 -9 3 0 0 1 1 1 3 2 2 2 3 1
4 -2 1 -2 1 -3 -2 -5 -9 -14 -7 -23 6 -2 2 -2 2 -3 1 -1 -3 3 -9 8 -12 3 -3 5
-3 13 -4 11 -1 19 -3 27 -7 7 -3 8 -4 11 -10 l1 -3 -2 1 c-3 3 -4 2 -2 -3 2
-5 1 -7 -3 -8 -3 -1 -7 0 -20 5 -5 3 -9 3 -19 4 -18 1 -27 5 -37 14 -3 3 -5 4
-5 3 -2 -1 0 -4 5 -8 6 -4 0 -6 -9 -2 -3 1 -9 2 -12 3 -4 1 -7 1 -7 1 0 0 1 2
1 5 3 5 2 19 0 26 -4 12 -9 19 -21 24 -5 2 -7 3 -15 3 -11 0 -17 -2 -19 -6 -1
-2 1 -2 6 0 12 5 26 2 36 -7 15 -14 16 -43 1 -50 -2 -1 -4 -2 -4 -3 0 -2 5 -1
9 2 3 3 4 3 10 2 10 -2 19 -5 20 -8 0 -1 1 -3 0 -4 -1 -2 -1 -2 -3 0 -4 5 -5
3 -2 -3 2 -3 2 -3 0 -4 -3 -1 -3 -1 -5 2 -1 2 -3 3 -4 3 -1 0 -1 -1 1 -5 0 -2
0 -2 -1 -2 -1 1 -8 1 -15 2 -30 2 -38 4 -50 10 -28 13 -32 45 -10 70 13 14 31
22 57 25 0 0 2 0 4 -1z M521 681 c-1 -3 1 -5 3 -5 1 0 2 1 2 3 0 3 -4 4 -5 2z M544 680 c-1 -3 1 -5 3 -5 2 0 2 1 2 3 -1 3 -4 4 -5 2z M528 668 c-1 -1 1 -5 3 -6 3 -2 8 -1 10 1 2 2 3 5 1 5 -1 0 -2 -1 -3
-1 -2 -3 -6 -2 -7 0 -1 2 -3 3 -4 1z M265 610 c-6 -2 -13 -9 -13 -11 0 -3 1 -2 6 2 2 2 6 5 9 6 5 2 6 4 3
5 -1 0 -3 -1 -5 -2z M283 599 c-2 -4 -6 -9 -11 -14 -8 -9 -9 -11 -7 -12 1 -1 14 13 19 21
4 5 5 10 3 10 -1 0 -3 -2 -4 -5z M319 602 c-2 -1 -1 -3 5 -5 6 -3 17 -6 19 -4 2 1 1 3 -2 3 -3 0 -14
3 -18 5 -2 1 -4 2 -4 1z M298 588 c0 -2 6 -11 10 -15 2 -2 7 -5 11 -6 5 -3 8 -3 16 -4 9 0 18
2 18 4 0 1 -1 1 -3 1 -1 0 -7 0 -13 0 -11 0 -12 0 -18 3 -6 3 -14 10 -17 15
-1 3 -4 4 -4 2z M253 583 c-5 -7 -9 -37 -4 -37 0 0 1 0 1 1 0 11 1 20 3 26 2 5 3 9 3
10 0 1 -1 1 -3 0z M357 545 c-2 -3 -2 -8 0 -8 1 0 2 1 2 2 0 1 1 3 1 4 1 1 1 3 -1 3 0
0 -1 -1 -2 -1z M310 540 c0 0 -1 -1 -1 -2 0 -1 1 -1 4 -1 2 1 5 0 7 -1 5 -2 7 1 2 3
-3 2 -9 2 -12 1z M270 533 c-4 -1 -6 -4 -5 -5 1 0 3 0 5 1 2 1 5 2 8 2 4 -1 5 2 2 3
-4 1 -6 1 -10 -1z M317 520 c-1 -3 0 -7 1 -9 2 -2 4 1 4 5 0 6 -3 8 -5 4z M275 511 c0 -4 1 -4 2 -4 3 0 4 2 3 6 -1 1 -2 2 -3 2 -2 0 -2 -1 -2
-4z M296 513 c-1 0 -1 -2 0 -4 1 -2 1 -3 0 -5 -3 -4 -2 -5 0 -8 3 -3 7
-3 8 -1 0 2 0 2 -2 2 -3 0 -4 2 -3 5 3 5 -1 16 -3 11z M314 487 c-2 -2 -6 -4 -9 -4 -1 0 -4 1 -5 2 -2 0 -4 1 -5 1 -1 -1 -1
-1 1 -3 3 -4 11 -4 17 -1 3 1 5 5 5 6 -1 1 -3 1 -4 -1z M452 529 c-1 -1 -2 -3 -2 -3 0 0 -1 -1 -3 -2 -2 -1 -2 -2 -2 -4 1 -4
3 -5 3 -2 0 3 0 3 3 3 3 0 3 0 3 3 0 2 0 3 2 4 3 2 4 0 5 -5 0 -2 1 -3 2 -3 2
0 2 7 0 10 -3 3 -8 3 -11 -1z M482 516 c-2 0 -3 -2 -3 -2 0 -1 -1 -1 -3 -1 -2 1 -3 1 -6 -1 -2 -3
-2 -3 -1 -5 1 -3 3 -3 3 -1 -1 5 1 5 5 2 2 -3 4 -2 4 2 0 2 3 4 6 3 2 0 3 -2
3 -7 0 -3 1 -4 3 -4 3 0 3 -1 3 -3 0 -2 0 -3 -1 -3 -2 -2 -1 -3 1 -3 5 0 5 8
1 11 -2 2 -3 3 -3 6 -1 6 -7 9 -12 6z M535 501 c-1 -1 -2 -3 -2 -4 0 -1 -1 -1 -2 -1 -4 1 -8 -5 -5 -9 1 -2
3 0 2 2 0 3 2 5 4 3 2 -3 4 -2 4 1 0 2 2 6 3 7 3 2 6 -3 5 -9 0 -3 1 -4 3 -1
2 3 0 11 -2 12 -4 3 -8 2 -10 -1z M468 475 c-1 -1 -2 -2 -2 -3 -1 -2 -2 -2 -3 -2 -2 1 -7 -3 -7 -6 0
-2 2 -5 4 -5 1 0 1 0 0 3 -1 4 1 6 4 4 3 -2 4 -1 4 1 0 2 1 4 2 5 2 2 2 2 4 1
2 -2 2 -3 2 -6 0 -3 0 -4 1 -4 1 0 2 1 2 5 0 4 0 5 -2 7 -2 2 -7 3 -9 0z M520 468 c-1 -2 -2 -3 -2 -4 0 -1 -1 -1 -3 -1 -1 0 -3 -1 -4 -1 -2
-3 -1 -9 2 -9 1 0 1 1 1 3 -1 3 -1 3 1 3 1 0 2 -1 2 -1 1 -2 4 0 4 2 0 4 2 6
5 6 2 0 3 -1 4 -4 1 -4 1 -4 5 -4 3 0 3 -1 3 -4 0 -5 2 -5 4 -1 1 3 1 3 0 6
-1 1 -3 2 -5 3 -2 0 -4 1 -5 3 -2 5 -8 7 -12 3z M305 411 c-1 -1 -2 -3 -2 -4 -1 -1 -2 -4 -3 -7 l-1 -6 -8 -4 c-11 -5
-11 -8 0 -15 7 -4 8 -6 8 -15 0 -3 1 -5 2 -6 3 -3 4 -2 12 5 l6 5 9 -2 c4 0 9
-1 9 -1 0 0 3 -4 7 -8 7 -8 9 -10 15 -8 3 1 7 5 8 8 1 1 2 2 2 2 2 0 8 6 9 10
3 6 3 18 0 24 -7 13 -22 18 -40 13 -4 -1 -9 -2 -11 -2 -4 -1 -5 -1 -8 4 -4 6
-8 10 -11 10 0 0 -2 -1 -3 -3z m9 -6 c2 -2 5 -6 6 -7 l3 -3 6 1 c4 1 7 2 7 1
1 -1 0 -4 -2 -8 l-3 -7 2 -7 c2 -8 3 -10 1 -10 -2 0 -12 2 -14 3 -1 0 -4 -2
-9 -6 -4 -3 -7 -6 -7 -5 -1 0 -1 4 -2 8 0 3 -1 7 -1 8 0 1 -4 3 -7 5 -4 2 -6
4 -6 5 0 1 3 3 7 5 l7 4 2 7 c3 9 4 11 5 11 0 0 3 -2 5 -5z m49 -7 c5 -2 12
-9 13 -14 1 -2 1 -4 1 -5 -1 0 -2 1 -4 2 -9 6 -25 10 -32 7 -3 -1 -3 -1 -3 1
1 1 1 4 2 7 0 3 1 4 4 4 5 1 14 0 19 -2z m2 -17 c3 -2 8 -4 9 -5 2 -3 3 -7 1
-10 -2 -4 -6 -8 -8 -8 0 0 -4 2 -8 6 -8 5 -18 11 -21 11 -2 0 -3 3 -3 6 0 3 6
4 15 4 6 0 9 -1 15 -4z m-18 -14 c9 -5 16 -11 16 -13 0 -2 -5 -6 -8 -6 -2 0
-16 15 -16 18 0 1 0 3 -1 3 -1 3 2 2 9 -2z M66 337 c-1 -1 -3 -3 -4 -4 -1 -3 -1 -10 0 -14 2 -2 7 -6 10 -6 2 0
2 -2 -2 -6 -6 -5 -7 -9 -5 -14 2 -6 7 -9 13 -8 4 1 10 7 13 13 3 6 3 18 0 25
-2 6 -4 8 -9 12 -5 3 -12 4 -16 2z m11 -3 c14 -6 17 -31 6 -41 -7 -7 -15 -4
-15 4 0 3 1 4 5 8 3 3 5 6 5 7 0 1 -3 3 -6 4 -6 4 -8 7 -8 11 1 5 4 7 9 8 1 0
3 -1 4 -1z M129 321 c-1 0 -1 -2 -1 -4 0 -4 2 -6 5 -4 1 1 2 1 3 1 2 -1 2 -1 3
0 2 2 1 4 -2 5 -1 0 -2 0 -2 -1 0 -1 0 -2 -1 -2 -1 0 -1 1 -1 2 0 2 -1 3 -2 3
-2 1 -2 1 -2 0z M147 318 c0 -4 0 -5 3 -4 2 0 3 6 1 6 -1 0 -2 0 -2 1 0 1 0 1 -1 1
-1 0 -1 -2 -1 -4z M154 320 c-1 -2 0 -6 2 -6 2 0 2 1 2 3 -1 4 -2 5 -4 3z M141 319 c0 0 1 -1 1 -1 1 -1 1 -1 0 -2 -2 -1 0 -4 2 -3 3 1 2 6 -1
7 -1 0 -2 0 -2 -1z M219 145 c-2 -1 -1 -6 1 -8 2 -3 6 -2 7 1 0 5 -6 10 -8 7z M185 132 c-3 -2 1 -9 5 -11 2 -2 3 -2 4 0 2 1 -1 10 -4 11 -2 1 -4 1
-5 0z M218 122 c-7 -4 -7 -9 -1 -10 3 -1 4 -2 4 -3 0 -1 1 -2 2 -2 0 0 1 1
1 2 0 2 1 4 2 6 2 5 -2 9 -8 7z M227 108 c-4 -3 -10 -6 -16 -7 -5 0 -6 0 -9 2 -5 3 -6 4 -6 2 0 -2 5
-6 9 -7 4 -1 12 0 17 3 4 2 9 6 9 8 0 2 -2 2 -4 -1z M230 47 c-1 0 4 -10 5 -9 2 0 1 3 -1 7 -2 3 -3 4 -4 2z M376 793 c-2 -12 -10 -65 -10 -67 0 -1 1 -2 2 -2 1 0 2 3 3 13 4 27
9 59 10 61 0 2 0 2 -2 2 -1 0 -2 -1 -3 -7z M424 788 c-1 -6 -4 -18 -7 -27 -2 -10 -4 -16 -3 -16 2 -3 4 2 11 32
7 25 6 23 4 23 -2 0 -2 -2 -5 -12z M583 796 c5 -34 10 -62 14 -76 l3 -7 0 5 c0 3 -2 12 -3 20 -3 14 -8
42 -10 56 0 5 0 6 -2 6 -2 0 -2 0 -2 -4z M339 793 c-2 -4 -4 -28 -5 -57 0 -31 1 -53 4 -81 1 -14 2 -16 3 -16
2 0 2 0 2 6 -7 57 -7 105 -2 140 2 7 2 10 0 10 -1 0 -1 -1 -2 -2z M1 786 c0 0 -1 -1 -1 -2 0 -1 3 -1 36 -1 35 0 36 0 38 -2 l3 -2 0
-42 0 -42 -2 -2 -2 -3 -33 -1 c-22 0 -34 0 -36 1 -4 1 -4 1 -4 -1 l1 -2 36 -1
c39 0 39 0 42 6 2 3 2 7 2 44 0 43 0 44 -5 48 -2 2 -4 2 -38 3 -19 0 -36 0
-37 -1z M11 773 c-2 -1 -4 -3 -5 -5 -2 -3 -2 -6 -1 -33 0 -17 1 -31 1 -32 2
-4 7 -5 31 -5 25 0 28 1 31 6 1 3 0 59 -2 64 -2 6 -5 6 -29 7 -20 0 -23 0 -26
-2z m49 -3 c1 -1 3 -3 3 -4 1 -1 1 -16 2 -32 l0 -29 -2 -1 c-2 -2 -6 -2 -27
-2 -19 0 -24 0 -26 1 -1 2 -2 3 -2 32 l0 31 2 3 3 2 22 0 c17 0 23 0 25 -1z M29 758 c-7 -4 -12 -13 -12 -20 0 -5 3 -8 8 -8 l4 0 -1 -6 c-1 -13 0
-14 9 -14 8 1 10 3 10 10 0 2 0 6 -1 7 0 3 0 3 5 3 7 1 8 3 8 9 0 3 -1 6 -3
10 -7 11 -18 15 -27 9z m15 -2 c6 -3 12 -12 12 -17 0 -5 -2 -6 -18 -5 -9 0
-16 0 -16 1 -3 2 2 15 7 19 6 4 9 5 15 2z m-2 -27 c1 0 1 -4 2 -7 0 -5 0 -6
-2 -7 -1 -1 -4 -1 -6 -1 l-4 1 0 6 c0 4 0 7 0 8 1 1 10 1 10 0z M389 721 c0 -1 -2 -10 -5 -21 -3 -11 -10 -33 -16 -49 -7 -21 -9 -29
-8 -30 1 -1 1 -1 2 0 2 2 31 95 31 100 0 0 -1 1 -2 1 0 0 -1 -1 -2 -1z M598 634 c-2 -3 -3 -8 -1 -14 0 -3 1 -8 1 -12 0 -4 1 -7 1 -8 1 -2 1
5 1 16 0 11 0 19 -1 19 0 0 0 -1 -1 -1z M599 560 c0 -3 0 -4 1 -3 0 2 0 4 0 6 -1 1 -1 0 -1 -3z M52 428 c-3 -2 -6 -7 -6 -10 0 -4 4 -9 7 -11 7 -3 7 -3 3 -7 -5 -6
-6 -12 -3 -18 5 -8 19 -4 25 8 2 4 3 6 3 14 0 9 -1 10 -4 15 -4 7 -10 10 -17
11 -4 0 -6 0 -8 -2z m14 -4 c14 -6 16 -27 4 -38 -3 -3 -7 -5 -10 -4 -7 2 -7
10 1 17 2 2 3 4 3 5 0 0 -2 2 -5 4 -4 2 -7 4 -7 5 -3 3 -2 8 0 11 5 4 7 4 14
0z M535 244 c-1 -1 2 -6 4 -6 1 0 1 2 0 5 -1 2 -3 3 -4 1z M545 240 c-2 -3 0 -5 3 -2 2 2 2 4 0 4 -1 0 -2 -1 -3 -2z M554 238 c-3 -3 -1 -5 2 -2 3 2 4 4 2 4 -1 0 -3 -1 -4 -2z M140 236 c0 -2 2 -7 3 -7 2 0 1 7 -1 8 0 0 -1 0 -2 -1z M148 234 c-1 -3 -1 -3 0 -3 2 0 5 4 4 5 -1 2 -3 1 -4 -2z M132 233 c0 -3 5 -6 6 -5 1 1 1 2 -1 3 -3 3 -5 4 -5 2z M598 200 c0 -2 0 -4 0 -4 0 -1 0 -2 1 -2 1 0 1 1 1 4 0 5 -2 7 -2 2z M590 200 c0 -3 2 -6 3 -6 1 0 1 4 0 6 0 3 -3 2 -3 0z M69 179 c-2 -4 -2 -5 0 -5 2 0 4 4 4 7 0 3 -2 2 -4 -2z M60 179 c0 -4 3 -7 4 -5 0 1 0 3 0 4 -1 2 -1 4 -1 4 0 0 -1 0 -1 0
-1 0 -2 -1 -2 -3z M52 177 c0 -3 5 -6 7 -6 1 1 1 1 -2 4 -3 3 -5 4 -5 2z M575 120 c1 -5 4 -5 4 0 0 3 -1 4 -2 4 -2 0 -2 0 -2 -4z M567 121 c0 -2 4 -6 5 -6 2 0 1 3 -1 5 -2 3 -4 4 -4 1z M583 119 c-3 -4 -1 -6 2 -2 2 2 3 3 3 4 -2 2 -2 1 -5 -2z M352 88 c-5 -2 -10 -7 -13 -13 -3 -5 -3 -5 -7 -5 -6 0 -10 -7 -7 -13
2 -3 7 -5 12 -5 2 0 4 0 4 -1 -5 -9 -5 -11 -5 -18 0 -6 0 -7 2 -11 4 -5 10 -9
18 -12 9 -2 29 -2 37 1 7 3 17 9 20 13 4 5 8 15 9 20 3 16 -10 29 -17 16 -2
-2 -3 -3 -6 -4 -5 -1 -19 -2 -20 -1 -1 0 0 2 1 5 4 7 2 18 -4 23 -5 6 -16 8
-24 5z m17 -4 c11 -6 13 -19 4 -28 -1 -2 -3 -4 -3 -5 0 -1 2 -1 3 0 1 0 7 0
13 0 14 1 16 1 22 7 4 5 5 5 8 1 7 -9 -1 -31 -14 -40 -8 -5 -18 -7 -32 -7 -13
1 -20 3 -26 9 -7 7 -7 17 0 27 2 3 3 6 2 6 0 1 -3 1 -6 1 -7 0 -12 2 -12 5 -1
4 1 6 4 6 5 0 7 2 9 6 3 6 6 9 9 11 8 4 13 4 19 1z M348 67 c-1 -2 0 -5 2 -5 1 0 2 2 2 4 0 2 0 3 -2 3 -1 0 -2 -1 -2 -2z M363 36 c-3 -4 -3 -6 0 -10 3 -4 8 -5 15 -5 9 1 18 7 18 13 0 3 -3 5
-6 5 -4 -1 -4 -2 -1 -3 3 -1 4 -3 2 -6 -2 -2 -9 -5 -15 -5 -9 0 -13 4 -10 10
2 3 2 4 0 4 -1 0 -2 -1 -3 -3z M293 84 c0 -3 0 -4 2 -4 1 0 1 1 1 4 0 3 0 4 -1 4 -2 0 -2 -1 -2 -4z M284 87 c0 -1 1 -3 2 -4 1 -4 4 -5 4 -3 0 4 -2 7 -4 7 -1 0 -2 0 -2
0z M441 86 c-1 0 -1 -2 -1 -4 0 -2 0 -3 2 -3 1 0 1 1 1 4 0 4 -1 5 -2 3z M301 84 c-2 -2 -3 -5 -1 -5 1 0 5 5 4 6 0 1 -2 1 -3 -1z M431 84 c0 -2 3 -7 4 -7 2 1 1 5 0 7 -1 1 -4 1 -4 0z M448 83 c-2 -2 -3 -6 -1 -6 1 0 5 6 4 7 0 1 -2 1 -3 -1z M523 53 c-2 -1 -1 -7 0 -8 2 -1 3 0 3 4 0 3 -2 6 -3 4z M531 52 c-1 -2 -2 -7 -1 -7 1 -1 4 3 4 5 0 2 -2 3 -3 2z M514 50 c0 -3 3 -7 5 -7 3 0 2 1 -1 5 -2 3 -3 3 -4 2z M6 38 c-2 -3 -1 -7 0 -7 2 0 4 6 2 8 0 1 -2 1 -2 -1z M0 34 c0 -2 0 -4 1 -4 2 0 2 2 1 5 l-2 3 0 -4z M13 34 c-3 -5 -1 -6 2 -2 2 2 3 4 2 4 -1 2 -3 1 -4 -2z" fill="black"/>
<path d="M0 793 l0 -6 37 -1 c35 0 37 0 39 -2 5 -4 5 -5 5 -48 0 -37 0 -41 -2
-44 -3 -6 -3 -6 -43 -6 l-36 1 0 -24 0 -23 6 -1 c20 -2 44 -9 59 -16 9 -5 12
-5 19 -1 7 3 12 3 15 0 4 -3 5 -9 4 -14 0 -3 0 -4 5 -10 2 -4 7 -13 10 -20 6
-12 6 -12 10 -12 1 0 4 0 4 -1 2 0 2 1 2 7 0 19 3 37 8 43 l2 3 -3 3 c-4 3 -5
8 -5 17 l1 7 -8 0 c-8 1 -23 4 -30 5 l-4 1 0 8 c0 16 5 35 13 46 13 18 30 27
52 27 9 0 12 0 18 -2 10 -4 15 -7 21 -12 11 -10 17 -25 20 -44 2 -11 2 -19 1
-22 -1 -2 -14 -6 -25 -6 -4 -1 -9 -1 -11 -2 l-3 0 0 -8 c0 -9 -1 -12 -5 -16
l-2 -3 2 -5 c6 -12 8 -28 7 -47 l0 -10 4 0 c3 -1 11 -1 19 -1 l15 1 3 -4 c4
-4 4 -10 0 -14 -2 -2 -4 -4 -5 -4 -2 0 -2 -1 0 -7 1 -4 1 -11 2 -58 l0 -53 8
0 c6 0 7 0 8 2 5 15 13 24 29 32 12 5 20 8 30 9 l7 0 0 3 c-1 5 -5 6 -11 3 -7
-3 -14 -3 -20 0 -4 2 -5 2 -8 2 -6 -2 -10 0 -15 4 -2 2 -4 3 -7 4 -4 0 -10 3
-12 9 -3 7 -4 14 0 28 3 13 3 20 2 47 -1 18 0 26 5 38 9 22 29 38 48 37 6 0
20 3 20 4 0 1 -1 6 -2 12 -9 37 -14 74 -17 128 -1 12 -2 22 -2 23 0 0 -64 0
-142 0 l-142 0 0 -7z" fill="white"/>
<path d="M288 798 c0 -13 6 -78 9 -99 2 -16 9 -51 11 -58 1 -4 2 -5 5 -5 13
-1 25 -6 35 -16 9 -8 10 -8 19 -4 5 2 12 5 19 5 1 0 3 2 5 6 1 2 3 6 4 7 10
19 25 52 34 76 9 24 21 69 24 85 l0 5 -11 0 -11 0 -1 -3 c-1 -7 -9 -38 -11
-44 -2 -8 -3 -10 -5 -8 -1 0 0 5 3 13 3 11 10 40 10 41 0 1 -10 1 -23 1 l-23
0 0 -2 c-1 -2 -6 -34 -10 -61 -1 -11 -2 -13 -3 -13 -2 0 -2 0 -2 6 1 6 10 62
11 67 l0 3 -44 0 -45 0 0 -2z m54 -4 c1 -1 0 -5 -1 -9 -5 -35 -5 -83 2 -140 0
-6 0 -6 -2 -6 -1 0 -2 2 -3 16 -3 28 -4 50 -4 81 1 37 3 59 7 59 0 0 1 -1 1
-1z m51 -73 c0 -5 -29 -98 -31 -100 -1 -1 -1 -1 -2 0 -1 1 1 9 8 30 6 16 13
38 16 49 6 23 6 22 7 22 1 0 2 -1 2 -1z" fill="white"/>
<path d="M456 791 c-3 -15 -9 -36 -15 -56 l-5 -17 0 -80 0 -80 4 -1 c4 0 5 0
7 3 7 8 19 9 26 2 2 -2 4 -4 5 -6 1 -4 2 -4 6 -1 2 1 5 2 9 2 16 0 25 -16 18
-32 0 -2 0 -2 3 -2 2 0 4 0 5 -1 2 -1 2 -1 3 2 3 5 7 8 13 8 2 -1 5 -1 7 -1 1
-1 2 0 3 3 3 6 7 8 14 8 l6 -1 0 51 0 50 -3 -2 c-9 -6 -21 -5 -27 2 l-3 3 -3
-2 c-3 -1 -5 -1 -10 -1 -5 0 -6 0 -9 2 -2 2 -4 4 -5 6 -2 3 -2 3 -9 3 -5 0 -7
1 -10 3 -5 2 -8 9 -8 14 0 11 12 21 23 21 2 0 3 0 3 4 2 10 10 17 19 16 3 -1
6 -1 8 -1 1 -1 2 0 5 4 5 10 17 15 25 11 2 -1 3 -2 4 -2 0 0 0 5 0 12 0 10 0
12 -3 22 -2 6 -6 19 -8 27 l-3 16 -47 0 -47 0 -1 -9z" fill="white"/>
<path d="M555 798 c0 -1 2 -11 5 -22 9 -32 16 -51 31 -79 l9 -16 0 15 c0 14 0
16 -3 25 -5 18 -9 40 -14 75 l0 4 -14 0 c-13 0 -14 0 -14 -2z" fill="white"/>
<path d="M588 794 c1 -18 9 -62 11 -68 1 -1 1 15 1 36 l0 38 -7 0 -6 0 1 -6z" fill="white"/>
<path d="M1 782 c-1 0 -1 -21 -1 -46 0 -42 0 -45 2 -46 1 0 17 0 36 0 l35 0 2
3 2 2 0 42 0 42 -3 2 c-2 2 -3 2 -37 2 -20 0 -36 0 -36 -1z m61 -9 c5 -3 6 -6
6 -37 1 -33 1 -33 -5 -36 -3 -2 -7 -2 -26 -2 -24 0 -29 1 -31 5 0 1 -1 15 -1
32 -1 42 -3 40 32 40 19 0 22 -1 25 -2z" fill="white"/>
<path d="M10 769 l-2 -3 0 -31 c0 -29 1 -30 2 -32 2 -1 7 -1 26 -1 21 0 25 0
27 2 l2 1 0 29 c-1 16 -1 31 -2 32 -1 4 -4 5 -28 5 l-22 0 -3 -2z m38 -11 c6
-5 11 -13 11 -19 0 -6 -1 -8 -8 -9 -5 0 -5 0 -5 -3 1 -1 1 -5 1 -7 0 -7 -2 -9
-10 -10 -9 0 -10 1 -9 14 l1 6 -4 0 c-5 0 -8 3 -8 8 0 7 5 16 12 20 6 4 12 4
19 0z" fill="white"/>
<path d="M35 757 c-4 -1 -9 -5 -11 -10 -3 -5 -4 -11 -2 -12 0 -1 7 -1 16 -1
16 -1 18 0 18 5 0 5 -6 14 -12 17 -5 2 -6 2 -9 1z" fill="white"/>
<path d="M569 720 c0 -8 0 -74 0 -148 l0 -133 10 0 9 0 0 128 0 127 -5 11 c-4
6 -8 15 -10 20 -2 5 -3 9 -4 9 0 0 0 -6 0 -14z" fill="white"/>
<path d="M32 729 c0 -1 0 -4 0 -8 l0 -6 4 -1 c2 0 5 0 6 1 2 1 2 2 2 7 -1 3
-1 7 -2 7 0 1 -9 1 -10 0z" fill="white"/>
<path d="M145 727 c-8 -2 -11 -4 -20 -10 -7 -5 -14 -13 -18 -20 -6 -12 -11
-41 -7 -43 4 -2 29 -5 54 -7 18 -1 45 2 58 6 l5 1 0 7 c0 12 -3 26 -9 37 -9
20 -24 30 -46 31 -7 0 -11 0 -17 -2z" fill="white"/>
<path d="M548 721 c-4 -2 -8 -6 -11 -12 -2 -3 -3 -6 -3 -6 -1 0 -2 1 -4 2 -7
4 -16 2 -20 -5 -1 -1 -2 -4 -2 -7 l0 -4 -7 -2 c-4 0 -8 -2 -10 -2 -8 -5 -11
-14 -7 -22 3 -4 8 -6 16 -6 l6 1 1 -3 c2 -6 6 -9 11 -10 4 0 6 0 10 2 l4 3 4
-4 c7 -7 15 -8 24 -3 l5 3 0 36 0 37 -3 1 c-4 2 -10 2 -14 1z m-22 -42 c0 -2
-1 -3 -2 -3 -2 0 -4 2 -3 5 1 2 5 1 5 -2z m23 -1 c0 -2 0 -3 -2 -3 -2 0 -4 2
-3 5 1 2 4 1 5 -2z m-17 -11 c1 -2 5 -3 7 0 1 0 2 1 3 1 2 0 1 -3 -1 -5 -2 -2
-7 -3 -10 -1 -2 1 -4 5 -3 6 1 2 3 1 4 -1z" fill="white"/>
<path d="M422 683 l-8 -20 0 -100 0 -101 4 -2 c3 -2 7 -5 9 -8 l4 -4 0 127 c0
71 0 128 0 128 0 0 -4 -9 -9 -20z" fill="white"/>
<path d="M592 563 c0 -118 0 -124 2 -124 1 0 2 2 2 10 1 4 2 15 2 23 2 11 2
23 2 70 -1 53 -2 71 -4 80 -1 5 0 10 3 12 1 1 1 5 1 20 l0 19 -4 7 -4 6 0
-123z" fill="white"/>
<path d="M403 643 c-8 -15 -10 -20 -10 -21 0 -1 1 -2 3 -3 9 -4 13 -15 7 -25
-2 -3 -2 -6 -3 -12 0 -4 0 -9 -1 -10 -1 -2 -5 -5 -8 -7 -2 -1 -2 -3 0 -12 1
-7 2 -11 4 -12 8 -6 12 -12 12 -20 0 -5 -2 -9 -7 -14 l-3 -4 1 -7 c0 -4 1 -12
2 -18 0 -5 1 -11 1 -12 1 0 3 -1 5 -2 l4 0 0 95 c0 52 0 95 0 95 -1 0 -3 -5
-7 -11z" fill="white"/>
<path d="M140 641 c-3 -15 5 -23 20 -23 9 0 14 3 17 9 1 5 1 13 -1 16 0 1 -7
1 -17 1 l-18 0 -1 -3z" fill="white"/>
<path d="M0 620 l0 -17 8 4 c17 7 38 12 49 12 3 0 5 0 5 1 0 3 -46 16 -59 16
l-3 0 0 -16z" fill="white"/>
<path d="M297 630 c-3 0 -9 -1 -14 -1 -8 0 -10 -1 -15 -3 -9 -5 -21 -16 -26
-27 -7 -15 -8 -25 -7 -60 1 -14 1 -16 -1 -24 -3 -11 -4 -23 -2 -28 2 -7 12
-13 11 -7 -1 6 -1 11 1 11 1 0 2 -2 2 -6 1 -3 2 -7 3 -9 3 -5 9 -8 13 -7 2 0
2 1 1 3 -2 9 1 12 4 4 0 -2 2 -5 3 -6 2 -3 9 -5 14 -5 7 1 8 2 2 5 -6 3 -17
14 -20 20 -1 3 -2 4 -4 4 -9 0 -21 14 -22 25 -1 6 0 8 4 12 3 3 5 4 7 4 4 0 4
0 5 5 4 12 13 24 24 31 7 5 10 5 10 2 0 -4 6 -11 13 -15 7 -4 14 -7 24 -8 13
-2 19 -1 24 3 3 2 5 3 7 3 8 0 12 -4 14 -13 1 -8 -4 -16 -12 -19 -2 -2 -3 -3
-4 -7 -1 -8 -3 -18 -5 -22 -1 -3 -2 -5 -1 -8 1 -4 3 -5 7 -3 4 2 7 6 7 11 0 3
1 5 2 5 1 0 2 -2 2 -5 0 -5 1 -6 4 -6 4 0 9 3 12 8 3 6 1 16 -5 23 -1 2 -2 4
-2 5 1 1 1 1 4 -1 3 -4 6 -8 7 -13 1 -3 2 -6 2 -6 1 -2 8 3 11 7 2 5 3 12 1
17 -1 2 -5 5 -8 8 -9 7 -10 10 -17 23 -3 6 -7 13 -8 14 -2 1 -3 5 -4 9 -3 19
-22 41 -40 47 -7 2 -23 3 -28 0z m-25 -20 c0 0 -2 -2 -5 -3 -3 -1 -7 -4 -9 -6
-5 -4 -6 -5 -6 -2 0 2 7 9 13 11 4 2 6 2 7 0z m16 -8 c0 -2 -2 -5 -4 -8 -5 -8
-18 -22 -19 -21 -2 1 -1 3 7 12 5 5 9 10 11 14 2 5 5 7 5 3z m45 -4 c3 -1 7
-2 8 -2 3 0 4 -2 2 -3 -3 -2 -25 5 -25 7 0 3 1 3 5 1 2 -1 6 -3 10 -3z m-31
-12 c3 -5 11 -12 17 -15 6 -3 7 -3 18 -3 6 0 12 0 13 0 2 0 3 0 3 -1 0 -2 -9
-4 -18 -4 -8 1 -11 1 -16 4 -4 1 -9 4 -11 6 -4 4 -10 13 -10 15 0 2 3 1 4 -2z
m-46 -3 c0 -1 -1 -5 -3 -10 -2 -6 -3 -15 -3 -26 0 -1 -1 -1 -1 -1 -5 0 -1 30
4 37 2 1 3 1 3 0z" fill="white"/>
<path d="M85 618 c-6 -3 -7 -3 -15 -2 -16 1 -36 -3 -58 -12 l-12 -4 0 -25 0
-24 7 1 c6 0 8 0 12 -2 6 -3 12 -9 15 -15 2 -4 2 -6 2 -13 0 -5 0 -9 0 -10 0
-2 0 -3 4 -3 10 -2 17 -8 21 -17 2 -4 2 -6 2 -14 l0 -9 5 0 c12 2 34 10 48 17
6 3 7 3 13 2 9 0 11 1 11 6 0 3 -1 4 -3 6 -5 2 -5 3 -6 15 0 12 -3 29 -7 39
-3 11 -13 32 -20 42 -4 6 -4 7 -4 14 -1 5 -1 7 -2 9 -3 3 -5 3 -13 -1z" fill="white"/>
<path d="M378 616 c-5 -1 -14 -5 -14 -6 0 0 1 -1 1 -2 1 -2 3 -2 7 -2 6 0 13
-2 13 -4 0 -2 -1 -2 -8 0 -2 0 -6 1 -8 0 -2 0 -3 -1 -3 -3 0 -1 1 -2 1 -2 1
-1 3 -1 6 -2 5 -1 10 -5 8 -7 0 -1 -2 0 -5 1 -5 3 -9 4 -9 1 1 -1 1 -4 2 -7 1
-7 2 -9 8 -12 3 -2 6 -3 8 -3 8 0 12 5 12 16 0 5 0 7 2 11 5 8 3 17 -4 20 -4
2 -13 3 -17 1z" fill="white"/>
<path d="M146 613 c-5 -6 -8 -19 -8 -37 l0 -11 3 0 c13 -3 18 -3 27 -6 6 -1
11 -2 11 -2 1 0 1 6 1 18 -1 17 -2 24 -6 34 -3 5 -3 6 -11 5 -4 0 -9 0 -11 1
-4 1 -4 1 -6 -2z" fill="white"/>
<path d="M358 609 c0 0 1 -2 2 -3 2 -3 3 -1 1 2 -2 2 -3 3 -3 1z" fill="white"/>
<path d="M279 565 c-10 -7 -18 -18 -20 -29 -2 -8 3 -29 10 -43 9 -18 31 -29
50 -24 19 5 30 22 33 48 2 8 2 9 6 10 2 1 5 3 7 5 5 5 4 15 -2 19 -3 3 -7 2
-11 -2 -4 -3 -4 -3 -16 -3 -13 0 -21 2 -30 6 -7 3 -15 11 -18 15 0 2 -1 3 -2
3 0 0 -4 -2 -7 -5z m82 -20 c0 -1 0 -2 -1 -2 0 -1 -1 -3 -1 -4 -1 -4 -4 -3 -3
1 0 4 3 8 5 5z m-39 -6 c5 -2 3 -5 -2 -3 -2 1 -5 2 -7 1 -3 0 -4 0 -4 1 0 1 1
2 1 2 3 1 9 1 12 -1z m-42 -5 c3 -1 2 -4 -2 -3 -3 0 -6 -1 -8 -2 -2 -1 -4 -1
-5 -1 -1 1 1 4 5 5 4 2 6 2 10 1z m41 -13 c1 -2 1 -8 0 -10 -3 -2 -6 4 -4 9 1
2 2 3 4 1z m-41 -8 c1 -4 0 -6 -3 -6 -1 0 -2 0 -2 4 0 3 0 4 2 4 1 0 2 -1 3
-2z m19 -1 c1 -2 1 -8 0 -10 -1 -3 0 -5 3 -5 2 0 2 0 2 -2 -1 -2 -5 -2 -8 1
-2 3 -3 4 0 8 1 2 1 3 0 5 -2 5 1 7 3 3z m19 -24 c0 -1 -2 -5 -5 -6 -6 -3 -14
-3 -17 1 -2 2 -2 2 -1 3 1 0 3 -1 5 -1 1 -1 4 -2 5 -2 3 0 7 2 9 4 1 2 3 2 4
1z" fill="white"/>
<path d="M378 565 c0 -1 7 -13 9 -15 2 -4 2 -2 0 6 -1 7 -2 7 -5 9 -2 0 -4 1
-4 0z" fill="white"/>
<path d="M126 562 c0 0 1 -3 2 -7 3 -10 6 -26 7 -37 0 -13 1 -13 4 -15 2 -2 5
-6 5 -9 0 -2 1 -2 8 -3 l4 -1 -1 6 c-1 13 0 26 2 32 4 11 16 21 25 21 2 0 4 0
5 1 0 1 0 1 0 1 -1 0 -8 2 -16 4 -9 2 -21 5 -28 5 -6 1 -13 2 -14 3 -2 0 -3 0
-3 -1z" fill="white"/>
<path d="M455 561 c-4 -2 -8 -6 -8 -9 0 -2 -2 -2 -4 0 -1 1 -3 2 -5 2 l-3 0 0
-57 0 -58 65 0 65 0 0 49 0 49 -4 1 c-6 2 -10 -1 -14 -7 -2 -6 -4 -7 -5 -5 -1
0 -3 1 -5 2 -2 1 -4 1 -6 0 -4 -2 -7 -8 -6 -13 0 -2 0 -3 -1 -3 -1 0 -2 1 -3
2 0 2 -2 4 -4 5 -2 1 -3 1 -7 0 -2 -1 -4 -1 -5 -1 0 1 1 3 2 6 6 15 0 29 -13
29 -5 0 -12 -3 -13 -5 -2 -2 -4 -1 -5 2 -1 6 -9 13 -15 13 -1 0 -3 -1 -6 -2z
m8 -31 c2 -3 2 -10 0 -10 -1 0 -2 1 -2 3 -1 5 -2 7 -5 5 -2 -1 -2 -2 -2 -4 0
-3 0 -3 -3 -3 -3 0 -3 0 -3 -3 0 -3 -2 -2 -3 2 0 2 0 3 2 4 2 1 3 2 3 2 0 0 1
2 2 3 3 4 8 4 11 1z m28 -15 c1 -1 2 -3 3 -5 0 -3 1 -4 3 -6 4 -3 4 -11 -1
-11 -2 0 -3 1 -1 3 1 0 1 1 1 3 0 2 0 3 -3 3 -2 0 -3 1 -3 4 0 5 -1 7 -3 7 -3
1 -6 -1 -6 -3 0 -4 -2 -5 -4 -2 -4 3 -6 3 -5 -2 0 -2 -2 -2 -3 1 -1 2 -1 2 1
5 3 2 4 2 6 1 2 0 3 0 3 1 0 2 5 4 8 3 1 0 3 -1 4 -2z m54 -13 c2 -1 4 -9 2
-12 -2 -3 -3 -2 -3 1 1 6 -2 11 -5 9 -1 -1 -3 -5 -3 -7 0 -3 -2 -4 -4 -1 -2 2
-4 0 -4 -3 1 -2 -1 -4 -2 -2 -3 4 1 10 5 9 1 0 2 0 2 1 0 1 1 3 2 4 2 3 6 4
10 1z m-68 -27 c2 -2 2 -3 2 -7 0 -4 -1 -5 -2 -5 -1 0 -1 1 -1 4 0 3 0 4 -2 6
-2 1 -2 1 -4 -1 -1 -1 -2 -3 -2 -5 0 -2 -1 -3 -4 -1 -3 2 -5 0 -4 -4 1 -3 1
-3 0 -3 -2 0 -4 3 -4 5 0 3 5 7 7 6 1 0 2 0 3 2 2 5 7 7 11 3z m52 -6 c1 -1 3
-2 3 -4 1 -2 3 -3 5 -3 2 -1 4 -2 5 -3 1 -3 1 -3 0 -6 -2 -4 -4 -4 -4 1 0 3 0
4 -3 4 -4 0 -4 0 -5 4 -1 3 -2 4 -4 4 -3 0 -5 -2 -5 -6 0 -2 -3 -4 -4 -2 0 0
-1 1 -2 1 -2 0 -2 0 -1 -3 0 -2 0 -3 -1 -3 -1 0 -3 2 -3 5 0 3 2 5 5 5 2 0 3
0 3 1 0 2 5 6 7 6 1 0 3 0 4 -1z" fill="white"/>
<path d="M194 551 c0 -1 3 -2 6 -4 4 -1 8 -5 10 -7 5 -5 8 -5 11 -2 3 3 3 8 0
11 -2 2 -3 2 -14 2 -7 0 -13 0 -13 0z" fill="white"/>
<path d="M1 547 c-1 0 -1 -4 -1 -17 l0 -16 6 0 c6 0 13 -3 17 -7 l3 -2 3 2 c2
2 5 10 5 15 0 9 -7 20 -15 24 -4 2 -15 3 -18 1z" fill="white"/>
<path d="M178 545 c-4 -2 -6 -3 -11 -7 -7 -7 -10 -18 -8 -36 0 -6 1 -11 1 -11
0 -1 4 -1 8 -2 17 -2 22 -5 28 -16 3 -7 3 -7 4 -25 1 -20 1 -27 -4 -33 l-3 -4
0 -37 c0 -21 0 -38 1 -38 0 0 6 3 12 6 l12 7 0 62 c0 65 -1 109 -3 115 -2 6
-9 14 -14 17 -6 3 -17 4 -23 2z" fill="white"/>
<path d="M249 530 c-4 -2 -5 -4 -5 -9 0 -6 3 -13 8 -18 4 -3 9 -6 10 -5 0 0
-1 4 -2 8 -2 5 -3 12 -4 16 -2 11 -2 11 -7 8z" fill="white"/>
<path d="M1 510 c-1 0 -1 -12 -1 -26 l0 -25 6 0 c9 1 16 5 20 12 3 5 3 6 3 13
0 12 -5 21 -15 25 -4 1 -12 2 -13 1z" fill="white"/>
<path d="M31 504 l-2 -3 2 -6 c4 -12 1 -26 -8 -32 -1 -2 -3 -3 -3 -4 0 -2 9
-4 16 -4 7 0 8 0 13 3 7 4 10 9 11 18 1 14 -5 25 -16 28 -7 3 -10 2 -13 0z" fill="white"/>
<path d="M387 496 c-1 -2 -4 -5 -6 -7 -3 -3 -4 -3 -9 -3 -5 0 -6 0 -9 -2 -2
-2 -5 -3 -7 -4 -4 -1 -4 -1 -4 -5 1 -5 3 -6 9 -6 7 0 9 2 8 9 0 1 1 2 2 3 1 1
2 0 3 -7 l1 -4 8 -2 c5 0 10 -1 12 -1 2 -1 2 -1 2 5 -2 12 -3 26 -3 27 0 1 -1
1 -2 1 -2 0 -3 -1 -5 -4z" fill="white"/>
<path d="M139 486 c-4 -2 -5 -2 -10 -1 -5 1 -6 1 -16 -4 -13 -6 -31 -12 -42
-15 -9 -1 -9 -1 -15 -7 -3 -3 -4 -5 -4 -5 1 -1 6 -2 12 -3 5 -1 12 -3 14 -4 3
-2 5 -2 6 -2 3 2 51 21 69 27 19 6 24 8 24 6 0 -2 -2 -3 -16 -7 -8 -3 -27 -10
-43 -16 -17 -7 -30 -12 -31 -12 -2 0 -1 -1 2 -6 9 -11 14 -27 15 -49 0 -7 1
-12 1 -12 1 0 34 14 53 22 25 11 32 15 35 20 l4 4 -1 20 c0 22 0 25 -5 33 -5
6 -10 9 -24 10 -20 3 -24 3 -28 1z" fill="white"/>
<path d="M342 480 c-8 -9 -17 -14 -31 -16 l-5 0 0 -5 c0 -4 -1 -5 -3 -5 -3 0
-4 -2 -2 -6 3 -8 12 -12 25 -11 7 0 9 0 15 3 9 4 13 8 17 15 4 7 4 10 1 10 -6
0 -10 4 -11 14 l-2 6 -4 -5z" fill="white"/>
<path d="M364 461 c-2 -8 -7 -15 -13 -20 -14 -11 -36 -11 -48 -2 -3 3 -7 10
-7 13 0 2 0 2 -5 2 -2 -1 -8 -2 -12 -4 -8 -2 -9 -3 -9 -6 -1 -2 -1 -15 -2 -30
0 -38 0 -41 16 -76 4 -11 4 -12 5 -22 1 -13 1 -14 10 -16 13 -3 22 -4 38 -4
17 1 29 2 45 7 17 4 18 5 16 27 -1 8 -1 18 -2 23 0 12 -3 34 -5 48 -3 20 -2
34 5 51 2 5 3 9 3 10 -1 1 -15 3 -24 4 l-9 0 -2 -5z m-51 -49 c1 -2 4 -5 6 -8
3 -5 4 -5 8 -4 2 0 7 1 11 2 18 5 33 0 40 -13 3 -6 3 -18 0 -24 -1 -4 -7 -10
-9 -10 0 0 -1 -1 -2 -2 -1 -3 -5 -7 -8 -8 -6 -2 -8 0 -15 8 -4 4 -7 8 -7 8 0
0 -5 1 -9 1 l-9 2 -6 -5 c-8 -7 -9 -8 -12 -5 -1 1 -2 3 -2 6 0 9 -1 11 -8 15
-11 7 -11 10 0 15 l8 4 1 6 c1 3 2 6 3 7 0 3 4 7 5 7 1 0 3 -1 5 -2z" fill="white"/>
<path d="M402 457 c-3 -3 -7 -15 -8 -22 -2 -9 -1 -23 1 -38 3 -22 4 -28 6 -53
2 -32 2 -32 -6 -46 -3 -6 -12 -23 -19 -39 -15 -34 -23 -49 -25 -50 -1 -1 -2
-1 -3 -2 -22 -2 -42 -12 -49 -26 -2 -5 -2 -8 1 -8 0 0 1 0 1 1 0 0 2 3 4 6 6
8 11 12 14 12 1 -1 0 -3 -6 -9 -6 -6 -8 -9 -10 -13 -4 -11 -1 -17 3 -7 3 5 18
21 21 21 3 -1 2 -3 -3 -7 -8 -6 -17 -18 -15 -19 1 -2 5 -1 9 4 5 5 14 12 15
12 3 0 0 -3 -5 -7 -5 -5 -8 -8 -7 -9 2 -1 6 1 14 7 4 3 11 7 15 9 14 6 15 7
20 17 3 5 12 18 21 31 37 50 45 65 48 89 2 13 1 88 -1 102 -5 25 -12 39 -23
45 -7 3 -11 3 -13 -1z" fill="white"/>
<path d="M8 456 c-2 0 -5 0 -6 0 -2 0 -2 -1 -2 -13 l0 -14 10 -1 c12 -3 15 -4
19 -9 6 -9 10 -26 11 -55 l0 -18 3 0 c13 0 44 12 54 20 l4 3 0 13 c-2 30 -7
46 -18 56 -6 6 -10 7 -25 11 -10 2 -14 2 -19 2 -7 -1 -16 1 -20 4 -2 2 -4 2
-11 1z m62 -30 c3 -1 6 -5 7 -7 3 -5 4 -6 4 -15 0 -8 -1 -10 -3 -14 -6 -12
-20 -16 -25 -8 -3 6 -2 12 3 18 4 4 4 4 -3 7 -3 2 -7 7 -7 11 0 3 3 8 6 10 4
3 13 2 18 -2z" fill="white"/>
<path d="M598 427 c-2 -27 -2 -33 0 -35 2 -1 2 0 2 26 0 16 0 28 0 28 -1 0 -1
-9 -2 -19z" fill="white"/>
<path d="M260 441 c-9 -5 -14 -12 -19 -23 -4 -10 -6 -19 -11 -53 -9 -51 -9
-52 -20 -85 -3 -7 -8 -24 -12 -37 -8 -32 -13 -45 -16 -48 -1 -1 -5 -3 -8 -4
-4 -1 -11 -5 -17 -7 -12 -6 -18 -11 -25 -23 -6 -9 -6 -12 -3 -12 1 0 3 1 3 2
6 12 16 24 21 27 3 2 3 2 4 1 0 -1 -2 -4 -6 -7 -6 -6 -15 -19 -15 -22 0 -1 1
-2 2 -2 2 0 11 7 11 10 2 5 10 15 13 15 3 0 2 -1 -1 -4 -9 -8 -11 -17 -4 -16
2 1 9 5 16 10 8 5 16 10 18 11 6 2 9 -1 9 -9 0 -6 2 -8 5 -6 5 4 7 10 7 26 1
14 -1 10 14 39 15 29 26 58 43 122 l3 9 -2 7 c-4 12 -5 20 -5 43 0 12 0 25 0
30 1 10 1 10 -5 6z" fill="white"/>
<path d="M437 435 c-1 0 0 -4 2 -9 l2 -9 76 -1 c60 0 76 0 76 1 1 1 1 5 1 10
l1 9 -79 0 c-44 0 -79 -1 -79 -1z" fill="white"/>
<path d="M56 426 c-3 -1 -6 -4 -6 -7 0 -5 2 -7 9 -11 3 -2 5 -4 5 -4 0 -1 -1
-3 -3 -5 -8 -7 -8 -15 -1 -17 3 -1 7 1 10 4 12 11 10 32 -4 38 -5 3 -7 3 -10
2z" fill="white"/>
<path d="M0 417 l0 -8 8 4 c5 2 10 4 12 5 2 0 3 1 3 2 0 1 -6 3 -16 4 l-7 2 0
-9z" fill="white"/>
<path d="M24 416 c0 0 -6 -3 -12 -6 -6 -2 -11 -5 -12 -6 0 0 1 -3 2 -5 1 -4 3
-5 4 -5 2 0 3 -1 1 -3 -2 -1 -2 -2 0 -7 1 -5 2 -5 4 -5 4 0 5 -2 2 -3 -3 -1
-3 -2 -2 -8 0 -4 0 -8 1 -8 0 0 1 0 2 0 3 -1 4 -3 1 -4 -3 0 -4 -3 -2 -10 0
-3 1 -4 3 -4 3 0 3 -3 -1 -4 -2 0 -2 -1 -2 -7 0 -3 0 -6 1 -6 0 0 4 2 9 4 5 3
11 5 12 5 l2 1 0 20 c-1 11 -2 25 -3 32 -2 19 -6 32 -10 29z" fill="white"/>
<path d="M442 413 c0 -1 0 -4 0 -7 1 -3 1 -10 1 -16 0 -6 0 -11 1 -12 0 -1 14
-1 78 -1 l78 0 0 5 c0 3 0 4 -3 7 -3 3 -4 3 -4 13 l0 11 -76 0 c-41 0 -75 0
-75 0z" fill="white"/>
<path d="M221 394 l0 -18 3 0 4 0 1 7 c1 4 2 12 3 18 l3 10 -7 0 -7 0 0 -17z" fill="white"/>
<path d="M307 408 c-1 -1 -2 -6 -3 -9 l-2 -7 -7 -4 c-4 -2 -7 -4 -7 -5 0 -1 2
-3 6 -5 3 -2 7 -4 7 -5 0 -1 1 -5 1 -8 1 -4 1 -8 2 -8 0 -1 3 2 7 5 5 4 8 6 9
6 2 -1 12 -3 14 -3 2 0 1 2 -1 10 l-2 7 3 7 c2 4 3 7 2 8 0 1 -3 0 -7 -1 l-6
-1 -3 3 c-1 1 -4 5 -6 7 -5 6 -6 6 -7 3z" fill="white"/>
<path d="M173 401 c-12 -6 -56 -25 -65 -28 -3 -1 -3 -2 -4 -8 0 -6 1 -36 1
-37 1 0 22 9 53 25 l32 16 0 20 c0 15 0 19 -1 19 -1 0 -8 -3 -16 -7z" fill="white"/>
<path d="M344 400 c-3 0 -4 -1 -4 -4 -1 -3 -1 -6 -2 -7 0 -2 0 -2 3 -1 7 3 23
-1 32 -7 2 -1 3 -2 4 -2 0 1 0 3 -1 5 -1 5 -8 12 -13 14 -5 2 -14 3 -19 2z" fill="white"/>
<path d="M0 383 c0 -7 1 -8 4 -6 1 1 1 2 0 6 -2 8 -4 8 -4 0z" fill="white"/>
<path d="M338 384 c-2 -1 -3 -2 -3 -3 0 -3 1 -6 3 -6 3 0 13 -6 21 -11 4 -4 8
-6 8 -6 2 0 6 4 8 8 2 3 1 7 -1 10 -1 1 -6 3 -9 5 -6 3 -9 4 -15 4 -5 0 -10
-1 -12 -1z" fill="white"/>
<path d="M1 372 c-1 0 -1 -6 -1 -27 0 -15 0 -27 1 -27 0 0 2 1 5 2 l4 3 0 7 0
7 -3 0 c-3 -1 -4 2 -1 3 3 1 3 1 3 7 l0 7 -3 0 c-5 0 -5 3 -1 4 l3 0 0 7 c-1
3 -1 7 -2 7 0 1 -3 1 -5 0z" fill="white"/>
<path d="M223 372 c-2 0 -2 -1 -2 -13 l0 -12 -5 -3 c-3 -2 -9 -5 -14 -8 l-8
-5 -1 -12 c0 -7 0 -13 0 -13 0 0 6 4 13 10 l14 10 1 7 c4 26 6 39 5 39 0 0 -1
0 -3 0z" fill="white"/>
<path d="M444 354 c0 -11 0 -20 1 -20 0 0 18 23 27 35 l3 4 -15 0 -16 0 0 -19z" fill="white"/>
<path d="M476 369 c-2 -3 -10 -13 -17 -23 l-15 -19 0 -8 c-2 -12 -3 -19 -6
-29 -4 -11 -4 -12 3 -10 6 2 11 3 15 1 3 -1 6 -2 11 -1 4 0 8 0 10 -1 2 -1 5
-1 9 0 6 1 7 1 10 0 3 -1 5 -2 6 -2 1 0 13 22 28 55 5 12 12 26 14 31 3 5 5 9
5 10 0 0 -16 0 -35 0 l-35 0 -3 -4z" fill="white"/>
<path d="M549 365 c-18 -38 -27 -59 -34 -71 l-7 -15 4 0 c3 -1 6 -2 7 -3 2 -1
3 -1 7 0 5 1 9 1 14 -2 1 -1 4 -1 8 -1 6 0 10 -1 14 -5 2 -2 3 -2 6 -1 5 2 12
1 17 -2 2 -2 4 -3 4 -2 0 0 3 9 6 20 l5 19 0 35 0 36 -24 0 -23 0 -4 -8z" fill="white"/>
<path d="M338 369 c1 0 1 -2 1 -3 0 -3 14 -18 16 -18 3 0 8 4 8 6 0 2 -7 8
-16 13 -7 4 -10 5 -9 2z" fill="white"/>
<path d="M175 358 l-13 -7 4 -1 c8 -2 8 -3 8 -25 l0 -19 7 0 c3 1 7 1 7 2 1 1
3 57 1 57 0 0 -7 -3 -14 -7z" fill="white"/>
<path d="M94 359 c-12 -7 -34 -15 -49 -17 l-5 0 1 -20 c1 -36 2 -56 2 -57 2
-2 14 -1 23 1 19 5 31 11 35 19 2 4 2 4 1 30 -1 14 -1 31 -1 37 l0 12 -7 -5z
m-12 -24 c5 -4 7 -6 9 -12 3 -7 3 -19 0 -25 -3 -6 -9 -12 -13 -13 -6 -1 -11 2
-13 8 -2 5 -1 9 5 14 4 4 4 6 2 6 -3 0 -8 4 -10 6 -1 4 -1 11 0 14 4 6 13 7
20 2z" fill="white"/>
<path d="M274 348 c-1 -1 -2 -7 -4 -13 -3 -10 -7 -26 -13 -44 -3 -10 -1 -9 13
5 17 18 16 17 16 24 -1 3 -3 10 -6 17 -6 13 -6 13 -6 11z" fill="white"/>
<path d="M139 339 c-9 -4 -15 -7 -16 -7 0 0 9 0 20 0 10 0 20 0 21 0 4 -1 4
-3 5 -15 1 -10 1 -10 1 7 0 23 0 23 -10 23 -6 0 -8 -1 -21 -8z" fill="white"/>
<path d="M71 334 c-4 0 -6 -3 -7 -7 0 -4 2 -7 8 -11 3 -1 6 -3 6 -4 0 -1 -2
-4 -5 -7 -4 -4 -5 -5 -5 -8 0 -8 8 -11 15 -4 11 10 8 35 -6 41 -3 1 -3 1 -6 0z" fill="white"/>
<path d="M18 323 l-18 -9 0 -25 0 -24 7 4 c4 2 13 7 19 10 l12 7 0 11 c0 6 0
17 -1 23 l0 12 -19 -9z" fill="white"/>
<path d="M110 326 c-6 -3 -6 -3 -4 -17 0 -6 0 -7 2 -6 1 1 3 1 5 1 l3 0 0 11
c0 6 0 12 1 12 0 3 -1 2 -7 -1z" fill="white"/>
<path d="M134 328 c-10 0 -13 -1 -14 -2 -1 -2 0 -20 1 -21 1 -1 5 -1 9 0 5 0
14 0 21 1 12 0 13 0 14 2 2 3 1 17 -1 19 -1 2 -5 2 -30 1z m-3 -7 c1 0 2 -1 2
-3 0 -1 0 -2 1 -2 1 0 1 1 1 2 0 1 1 1 2 1 3 -1 4 -3 2 -5 -1 -1 -1 -1 -3 0
-1 0 -2 0 -3 -1 -3 -2 -5 0 -5 4 0 5 1 5 3 4z m18 0 c0 -1 1 -1 2 -1 2 0 1 -6
-1 -6 -1 -1 -2 -1 -2 0 -1 1 -1 8 0 8 1 0 1 0 1 -1z m9 -4 c0 -2 0 -3 -2 -3
-2 0 -3 4 -2 6 2 2 3 1 4 -3z m-12 0 c0 -3 -2 -5 -4 -3 -1 1 -1 1 0 2 1 1 1 1
0 2 -2 1 -1 2 1 2 2 0 3 -1 3 -3z" fill="white"/>
<path d="M184 296 c-18 -13 -33 -23 -33 -24 -1 -1 1 -1 3 0 1 0 4 2 7 4 4 2 6
2 11 2 4 -1 6 0 8 1 3 3 9 4 12 3 3 -1 4 -1 5 0 2 1 4 2 6 2 l4 1 4 9 c3 9 7
25 7 26 0 0 -15 -11 -34 -24z" fill="white"/>
<path d="M275 297 c-6 -6 -10 -11 -10 -11 0 -1 1 -1 1 -1 1 0 3 -1 4 -2 3 -1
4 -1 7 1 3 1 6 1 10 1 l7 -1 0 6 c0 6 0 6 -4 10 -2 2 -4 4 -4 5 0 1 0 2 -1 2
0 0 -5 -5 -10 -10z" fill="white"/>
<path d="M182 303 c-3 0 -20 -1 -38 -2 -38 0 -38 0 -38 -9 0 -6 -3 -12 -8 -16
-11 -10 -48 -19 -55 -15 -2 1 -3 3 -4 6 l0 4 -20 -12 -19 -12 0 -29 0 -29 2 0
c2 0 3 1 4 3 2 5 7 9 11 10 3 0 4 1 5 3 2 5 7 9 13 10 4 1 5 2 8 6 4 6 9 8 14
8 5 1 5 1 7 5 3 4 8 8 13 9 3 0 5 1 7 4 4 4 10 7 15 7 4 0 5 1 8 4 4 4 11 7
17 6 3 -1 4 -1 5 1 2 4 7 6 12 7 3 0 7 2 17 9 7 5 16 12 21 15 10 7 11 8 9 8
0 0 -3 -1 -6 -1z" fill="white"/>
<path d="M387 301 c-4 -2 -27 -7 -38 -8 -13 -1 -33 -1 -43 2 -5 0 -8 1 -9 1 0
0 0 -4 1 -9 0 -7 1 -9 2 -10 5 -5 29 -11 43 -11 7 0 7 0 6 2 0 1 -1 3 -2 4 -2
1 -2 2 -1 3 2 2 8 -3 7 -7 -1 -2 5 -1 16 1 l9 3 7 14 c4 8 7 15 7 15 0 1 -1 1
-5 0z" fill="white"/>
<path d="M597 276 c-4 -14 -4 -14 0 -14 l3 0 0 12 c0 7 0 12 0 12 -1 0 -2 -5
-3 -10z" fill="white"/>
<path d="M19 271 l-18 -10 -1 -5 0 -5 2 1 c1 1 10 7 20 12 15 10 17 12 17 14
0 2 0 3 -1 3 0 1 -9 -4 -19 -10z" fill="white"/>
<path d="M257 280 c-4 -2 -5 -3 -8 -11 -4 -10 -4 -12 -1 -12 1 1 8 1 15 2 20
2 23 3 26 11 1 2 3 5 4 5 3 2 2 4 -1 6 -5 2 -9 1 -14 -1 -4 -2 -4 -2 -7 -1 -6
3 -9 3 -14 1z" fill="white"/>
<path d="M199 279 c-3 -2 -4 -2 -6 -1 -1 0 -3 1 -4 1 -3 0 -7 -2 -9 -4 -1 -2
-3 -2 -8 -1 -7 0 -11 -1 -15 -5 -2 -1 -4 -1 -11 -1 l-9 0 -4 -5 c-3 -4 -4 -4
-9 -3 -7 0 -9 0 -14 -5 -4 -3 -6 -4 -9 -4 -7 -1 -12 -4 -15 -8 -2 -3 -3 -4 -6
-4 -5 0 -10 -3 -13 -8 l-3 -5 -5 0 c-7 -1 -10 -2 -15 -9 -2 -4 -3 -5 -7 -5 -5
-1 -8 -3 -11 -8 -3 -4 -4 -5 -7 -5 -4 -1 -10 -6 -11 -10 0 -3 0 -3 -5 -3 l-2
0 -1 -74 c0 -67 0 -74 2 -77 1 -3 1 -3 0 -5 -2 -1 -2 -3 -2 -15 l0 -15 300 0
300 0 0 97 c0 83 0 97 -1 97 -2 1 -2 2 -1 5 0 2 1 4 1 4 1 0 1 13 1 28 l0 28
-7 0 c-4 0 -6 0 -10 2 -5 4 -9 4 -14 3 -5 -2 -5 -2 -9 1 -4 4 -9 5 -13 4 -3
-1 -5 0 -9 2 -5 2 -5 2 -11 1 -5 -1 -6 -1 -10 1 -4 2 -5 2 -10 1 -6 -1 -7 -1
-10 0 -4 2 -8 2 -13 1 -4 -2 -4 -2 -8 0 -4 2 -8 3 -13 1 -3 -2 -3 -2 -6 0 -4
2 -10 3 -16 0 -5 -1 -5 -2 -2 -8 2 -7 4 -8 18 -10 24 -3 44 -8 47 -11 2 -2 6
-3 11 -5 24 -5 38 -18 43 -37 3 -13 -2 -33 -12 -44 -1 -2 -6 -5 -10 -7 -8 -4
-28 -10 -36 -12 -3 0 -5 -1 -5 -1 0 0 1 -2 3 -3 3 -3 3 -9 0 -12 -1 -2 -2 -3
-2 -4 0 -1 -7 -7 -10 -9 -3 -2 -5 -2 -13 -2 -20 2 -37 5 -59 12 -11 3 -15 4
-53 9 -13 2 -30 4 -38 5 l-15 2 -17 -5 c-10 -3 -21 -7 -25 -8 -5 -1 -8 -2 -11
-4 -2 -3 -4 -3 -8 -4 l-6 0 -1 -5 c-2 -9 -8 -16 -16 -20 -3 -1 -4 -3 -1 -7 1
-1 5 -3 13 -5 14 -4 19 -5 23 -9 11 -8 6 -23 -8 -23 -4 0 -4 0 -4 -3 0 -4 -3
-10 -7 -12 -4 -2 -10 -1 -20 3 -7 4 -10 4 -21 5 -11 1 -25 4 -28 7 -1 0 -3 0
-6 0 -4 -1 -4 -2 -4 -6 0 -3 -1 -5 -3 -8 -4 -6 -8 -7 -21 -5 -7 0 -17 1 -25 2
-20 2 -34 6 -46 15 -4 4 -13 15 -13 17 0 1 -2 2 -6 2 -7 1 -13 4 -14 7 0 1 -2
3 -5 5 -6 3 -10 10 -10 16 0 2 -1 5 -2 9 -6 12 -2 29 9 41 5 6 9 8 12 6 4 -2
5 -7 3 -12 -1 -2 -1 -8 -1 -14 0 -10 0 -11 2 -16 3 -5 9 -10 11 -10 1 0 3 3 5
6 4 8 16 20 26 26 13 8 33 13 46 12 5 -1 6 -1 7 1 1 2 1 2 -6 2 -4 0 -5 1 -6
3 -1 2 -3 4 -4 5 -3 3 -3 7 1 12 3 5 10 10 27 18 11 6 14 8 13 9 -3 9 -2 23 3
32 4 7 12 14 21 19 5 2 9 4 10 4 0 0 1 2 2 4 1 3 3 10 5 17 2 6 3 12 3 12 -1
2 -3 1 -6 -1z m340 -36 c1 -3 1 -5 0 -5 -2 0 -5 5 -4 6 1 2 3 1 4 -1z m10 -2
c1 0 0 -2 -1 -3 -3 -3 -5 -1 -3 2 2 2 3 3 4 1z m10 -2 c0 -1 -1 -2 -3 -3 -3
-3 -5 -1 -2 2 3 2 5 3 5 1z m-415 -6 c0 -2 0 -4 -1 -4 -1 0 -3 5 -3 7 1 2 3 0
4 -3z m8 3 c1 -1 -2 -5 -4 -5 -1 0 -1 0 0 3 1 3 3 4 4 2z m-15 -5 c2 -1 2 -2
1 -3 -1 -1 -6 2 -6 5 0 2 2 1 5 -2z m456 -31 c1 -2 1 -6 0 -6 -1 0 -3 3 -3 6
0 2 3 3 3 0z m-520 -19 c0 -3 -2 -7 -4 -7 -2 0 -2 1 0 5 2 4 4 5 4 2z m-10 1
c0 0 0 -2 1 -4 1 -4 0 -6 -3 -4 -1 3 -1 8 1 8 0 0 1 0 1 0z m-6 -7 c3 -3 3 -3
2 -4 -2 0 -7 3 -7 6 0 2 2 1 5 -2z m522 -55 c0 -5 -3 -5 -4 0 0 4 0 4 2 4 1 0
2 -1 2 -4z m-8 0 c2 -2 3 -5 1 -5 -1 0 -5 4 -5 6 0 3 2 2 4 -1z m17 1 c0 -1
-1 -2 -3 -4 -3 -4 -5 -2 -2 2 3 3 3 4 5 2z m-218 -34 c5 -2 9 -6 11 -10 2 -5
1 -13 -1 -17 -1 -3 -2 -5 -1 -5 1 -1 15 0 20 1 3 1 4 2 6 4 7 13 20 0 17 -16
-1 -5 -5 -15 -9 -20 -3 -4 -13 -10 -20 -13 -8 -3 -28 -3 -37 -1 -8 3 -14 7
-18 12 -2 4 -2 5 -2 11 0 7 0 9 5 18 0 1 -2 1 -4 1 -5 0 -10 2 -12 5 -3 6 1
13 7 13 4 0 4 0 7 5 3 6 8 11 13 13 5 1 13 1 18 -1z m-74 -3 c0 -3 0 -4 -1 -4
-2 0 -2 1 -2 4 0 3 0 4 2 4 1 0 1 -1 1 -4z m-7 0 c2 -6 -1 -7 -3 -1 -2 4 -2 4
0 4 1 0 2 -1 3 -3z m154 -1 c0 -3 0 -4 -1 -4 -2 0 -2 1 -2 3 0 2 0 4 1 4 1 2
2 1 2 -3z m-139 2 c1 -1 -3 -6 -4 -6 -2 0 -1 3 1 5 1 2 3 2 3 1z m131 -1 c1
-2 2 -6 0 -7 -1 0 -4 5 -4 7 0 1 3 1 4 0z m16 0 c1 -1 -3 -7 -4 -7 -2 0 -1 4
1 6 1 2 3 2 3 1z m75 -35 c0 -4 -1 -5 -3 -4 -1 1 -2 7 0 8 1 2 3 -1 3 -4z m8
1 c0 -2 -3 -6 -4 -5 -1 0 0 5 1 7 1 1 3 0 3 -2z m-13 -6 c0 -1 -1 -1 -2 -1 -2
0 -5 4 -5 7 1 1 2 1 4 -2 2 -2 3 -3 3 -4z m-513 -5 c1 -1 1 -3 0 -4 0 -5 -3
-5 -3 -1 0 5 2 8 3 5z m9 -3 c1 0 0 -2 -2 -4 -3 -4 -5 -3 -2 2 1 3 3 4 4 2z" fill="white"/>
<path d="M426 265 c-3 -5 -16 -23 -28 -40 -12 -17 -22 -31 -22 -31 0 -1 3 0 7
2 10 5 29 12 38 15 5 2 7 3 10 7 6 6 20 15 30 19 9 3 24 7 29 7 2 0 5 -1 7 -1
4 -1 6 -1 4 1 -2 2 -22 7 -35 9 -18 3 -26 5 -27 7 -1 1 -3 5 -4 8 -1 4 -3 7
-3 7 0 0 -3 -4 -6 -10z" fill="white"/>
<path d="M295 272 c0 0 -1 -2 -2 -4 -2 -4 -7 -9 -12 -10 -2 -1 -11 -2 -20 -3
l-17 -1 -2 -4 c0 -1 -1 -3 -1 -3 0 -1 3 -2 7 -3 12 -4 25 -12 36 -21 3 -3 8
-6 15 -9 5 -3 12 -6 15 -8 l5 -3 5 2 c2 1 9 3 14 4 8 2 10 2 12 5 2 3 26 52
25 53 0 0 -4 -1 -10 -2 -12 -2 -31 -3 -41 0 -4 0 -11 2 -16 4 -11 4 -11 4 -13
3z" fill="white"/>
<path d="M186 239 c-18 -9 -26 -25 -22 -43 1 -4 1 -4 4 -4 1 1 5 2 8 3 6 3 6
4 13 28 3 9 5 18 6 19 0 2 -1 1 -9 -3z" fill="white"/>
<path d="M237 237 c-2 -4 -3 -7 -3 -7 0 0 6 -1 13 -1 10 -1 14 -1 21 -3 4 -2
8 -3 9 -3 0 1 -11 9 -17 12 -3 2 -19 8 -20 8 -1 0 -2 -3 -3 -6z" fill="white"/>
<path d="M486 240 c-10 -2 -24 -6 -32 -10 -7 -4 -19 -12 -19 -14 0 0 2 0 5 1
21 5 58 5 63 0 2 -2 0 -2 -10 -1 -25 5 -51 0 -89 -15 -21 -8 -31 -13 -32 -15
0 -1 -2 -3 -4 -5 l-3 -4 3 -3 c1 -1 6 -4 10 -6 10 -5 16 -5 27 -2 17 6 26 4
42 -9 12 -9 15 -10 23 -10 3 0 8 -1 12 -2 7 -1 13 -1 32 5 16 4 27 10 32 16 6
8 9 17 9 29 0 10 -1 11 -4 18 -5 9 -11 15 -21 20 -12 6 -23 8 -28 6 -2 -1 -3
-1 -5 0 -3 2 -3 2 -11 1z" fill="white"/>
<path d="M234 225 c-4 0 -17 -24 -18 -31 l0 -5 4 -2 c6 -3 14 -11 19 -19 2 -3
4 -7 6 -8 3 -3 25 -10 42 -13 23 -5 23 -5 101 -15 9 -1 19 -3 28 -6 16 -5 29
-8 47 -10 17 -2 17 -2 15 0 -3 2 -1 3 4 2 5 -2 7 -1 2 2 -3 1 -5 2 -5 3 0 2 5
1 8 -1 3 -1 5 -1 5 1 0 1 -7 4 -10 4 -3 0 -5 2 -3 3 1 1 2 1 6 0 9 -2 10 -2
11 0 3 6 -8 12 -24 13 -12 1 -16 3 -28 12 -15 11 -21 13 -34 9 -17 -4 -18 -5
-26 -2 -5 2 -14 6 -21 11 -2 2 -4 1 -12 -2 -5 -3 -11 -6 -15 -9 -7 -6 -13 -9
-16 -7 -2 0 -3 0 -5 -1 -2 -1 -5 -1 -9 0 -6 0 -7 1 -8 3 -1 2 -1 4 0 7 1 4 1
4 -2 6 -3 3 -3 6 0 12 2 5 11 14 16 17 1 1 2 2 2 3 -2 3 -35 16 -51 21 -6 2
-24 3 -29 2z" fill="white"/>
<path d="M216 179 c0 -12 -6 -24 -13 -24 -5 0 -7 3 -7 10 0 4 0 5 -1 6 -2 0
-8 -3 -19 -10 -15 -11 -19 -13 -23 -11 -2 2 -3 1 -8 -2 -6 -5 -8 -8 -10 -20 0
-5 -1 -12 -2 -15 -1 -4 -1 -6 0 -10 6 -13 27 -15 33 -2 3 6 2 10 0 23 -4 14
-5 20 -3 22 2 1 3 1 3 -7 1 -4 2 -10 3 -14 1 -5 2 -12 2 -17 l0 -8 7 -3 c10
-5 18 -7 28 -5 20 3 31 13 31 27 0 7 -1 9 -5 14 -2 2 -3 4 -3 7 0 3 -1 7 -1
10 -2 7 -2 10 -1 10 2 0 5 -9 6 -17 0 -5 1 -7 4 -11 1 -2 3 -5 3 -7 2 -5 9 -5
13 0 3 3 3 7 -1 12 -2 2 -7 11 -11 19 -6 12 -9 17 -13 20 -4 5 -10 9 -11 9 -1
0 -1 -3 -1 -6z m9 -36 c3 -3 2 -7 -1 -8 -3 0 -6 3 -6 7 0 5 4 6 7 1z m-35 -11
c3 -1 6 -10 4 -11 -3 -4 -10 3 -10 9 0 3 2 4 6 2z m36 -12 c1 -2 1 -3 0 -5 -1
-2 -2 -4 -2 -6 0 -1 -1 -2 -1 -2 -1 0 -2 1 -2 2 0 1 -1 2 -4 3 -6 1 -6 6 1 10
4 1 7 0 8 -2z m5 -11 c0 -2 -5 -6 -9 -8 -5 -3 -13 -4 -17 -3 -4 1 -9 5 -9 7 0
2 1 1 6 -2 3 -2 4 -2 9 -2 6 1 12 4 16 7 2 3 4 3 4 1z" fill="white"/>
<path d="M130 169 c-5 -4 -8 -8 -8 -11 0 -3 3 -3 5 1 1 1 3 5 5 8 2 3 3 5 2 5
0 0 -2 -1 -4 -3z" fill="white"/>
<path d="M246 154 c0 -1 6 -11 9 -15 2 -3 4 -6 4 -7 0 -5 -1 -5 25 3 7 2 14 5
14 5 1 1 0 1 -3 2 -10 1 -30 6 -39 9 -6 2 -10 4 -10 3z" fill="white"/>
<path d="M29 143 c-3 -2 -6 -7 -8 -10 -3 -6 -3 -8 -4 -15 0 -7 0 -9 2 -14 1
-3 3 -6 5 -7 3 -3 3 -5 0 -5 -4 1 -4 1 -1 -4 2 -4 10 -10 12 -10 0 0 1 -1 1
-2 1 -3 7 -6 11 -6 l4 0 0 9 c0 5 0 10 0 12 1 3 1 3 -4 6 -5 3 -9 10 -12 18
-1 6 -1 8 0 14 3 18 2 21 -6 14z" fill="white"/>
<path d="M117 138 c-29 -4 -56 -24 -62 -47 -5 -20 4 -38 23 -47 12 -6 20 -8
50 -10 7 -1 14 -1 15 -2 1 0 1 0 1 2 -2 4 -2 5 -1 5 1 0 3 -1 4 -3 2 -3 2 -3
5 -2 2 1 2 1 0 4 -3 6 -2 8 2 3 2 -2 2 -2 3 0 1 1 0 3 0 4 -1 3 -10 6 -20 8
-6 1 -7 1 -10 -2 -4 -3 -9 -4 -9 -2 0 1 2 2 4 3 11 6 14 24 6 41 -7 15 -27 23
-43 16 -5 -2 -7 -2 -6 0 2 4 8 6 19 6 8 0 10 -1 15 -3 12 -5 17 -12 21 -24 2
-7 3 -21 0 -26 0 -3 -1 -5 -1 -5 0 0 3 0 7 -1 3 -1 9 -2 12 -3 9 -4 15 -2 9 2
-5 4 -7 7 -5 8 0 1 2 0 5 -3 10 -9 19 -13 37 -14 10 -1 14 -1 19 -4 13 -5 17
-6 20 -5 4 1 5 3 3 8 -1 4 -1 6 1 4 3 -2 2 1 0 5 -4 6 -19 11 -36 13 -8 1 -10
1 -13 4 -5 3 -9 9 -8 12 1 1 1 1 3 -1 7 -10 14 -14 19 -11 1 1 3 3 4 5 1 3 1
3 3 2 1 -1 1 -2 -1 -4 0 -2 -1 -3 -1 -3 0 -1 4 -2 9 -3 11 -3 20 -7 23 -11 2
-2 5 -4 6 -4 3 -1 3 0 1 6 -1 5 3 3 5 -3 1 -4 3 -4 3 1 0 3 0 3 2 3 1 0 2 0 1
2 -1 7 -7 11 -25 15 -13 4 -16 5 -18 10 -1 3 -1 3 -3 3 -2 -1 -7 -1 -13 -2
-11 0 -20 2 -28 7 l-5 3 -3 -3 c-4 -4 -9 -6 -15 -6 -10 0 -16 4 -20 11 -2 5
-2 10 -1 18 1 4 2 9 2 13 l1 7 -4 0 c-2 1 -4 1 -4 1 -1 0 -4 -1 -8 -1z m117
-93 c2 -4 3 -7 1 -7 -1 -1 -6 9 -5 9 1 2 2 1 4 -2z" fill="white"/>
<path d="M356 85 c-7 -2 -11 -6 -15 -13 -2 -4 -4 -6 -9 -6 -3 0 -5 -2 -4 -6 0
-3 5 -5 12 -5 3 0 6 0 6 -1 1 0 0 -3 -2 -6 -7 -10 -7 -20 0 -27 6 -6 13 -8 26
-9 14 0 24 2 32 7 13 9 21 31 14 40 -3 4 -4 4 -8 -1 -6 -6 -8 -6 -22 -7 -6 0
-12 0 -13 0 -1 -1 -3 -1 -3 0 0 1 2 3 3 5 9 9 7 22 -4 28 -4 2 -8 2 -13 1z
m-4 -19 c-1 -4 -3 -5 -4 -2 -1 2 0 5 2 5 2 0 2 -1 2 -3z m15 -28 c1 0 0 -2 -1
-3 -3 -6 1 -10 10 -10 6 0 13 3 15 5 2 3 1 5 -2 6 -3 1 -3 2 1 3 3 0 6 -2 6
-5 0 -6 -9 -12 -18 -13 -7 0 -12 1 -15 5 -3 4 -3 6 0 10 2 3 3 4 4 2z" fill="white"/>
</g>
</svg>
