<?xml version="1.0" encoding="UTF-8"?>
<svg width="600" height="800" viewBox="0 0 600 800" fill="none" xmlns="http://www.w3.org/2000/svg">
<g transform="translate(0,800) scale(1,-1)">
<path d="M36 793 c0 -5 0 -8 0 -8 -4 0 -19 6 -35 14 -1 0 -1 -1 -1 -3 0 -2 1
-3 9 -7 l8 -4 -8 -7 c-7 -6 -9 -8 -9 -10 0 -2 0 -3 0 -3 1 0 18 14 21 17 1 0
2 1 2 1 2 0 13 -3 14 -4 0 -1 2 -6 3 -12 1 -6 3 -15 5 -20 3 -8 4 -10 6 -10 2
0 4 2 12 11 5 6 11 14 14 18 l6 8 6 0 6 0 0 -104 c0 -58 0 -105 -1 -105 0 -1
-4 -1 -9 -2 l-8 0 0 3 c1 2 1 4 1 6 1 2 2 4 3 6 1 2 2 5 3 9 0 6 0 7 -2 9 -2
1 -4 2 -18 2 l-15 0 0 3 0 4 6 -1 c8 0 12 1 17 6 5 4 9 10 10 16 0 4 0 4 -2 5
-9 2 -21 -4 -27 -13 l-3 -4 0 7 0 8 8 3 c12 6 17 11 22 20 3 6 3 8 3 16 l1 9
-4 0 c-4 0 -12 -3 -19 -8 -7 -4 -10 -8 -13 -15 l-2 -4 -1 5 c-2 7 -6 15 -11
20 -5 5 -17 11 -21 11 -3 0 -4 -1 -5 -10 -2 -21 10 -37 29 -41 l6 -1 1 -6 c0
-3 1 -7 1 -8 0 -3 0 -3 -4 3 -3 3 -6 7 -8 8 -8 6 -19 8 -27 6 -5 -1 -6 -2 -6
-4 l0 -3 4 2 c5 1 12 1 18 -1 4 -1 7 -3 11 -7 4 -3 6 -6 6 -7 0 0 -3 1 -6 3
-3 1 -8 2 -10 3 -3 0 -3 0 -1 -2 1 0 5 -3 9 -5 4 -2 7 -4 8 -5 1 -1 1 -1 -7
-1 -10 1 -17 4 -26 12 l-6 6 0 -3 c0 -3 1 -5 5 -8 10 -9 25 -14 36 -11 l3 1 0
-5 0 -4 -13 0 c-13 0 -13 0 -16 -2 -1 -2 -2 -4 -2 -6 0 -3 3 -11 4 -13 2 -2 4
-16 3 -17 0 -1 -5 -1 -10 -2 -9 0 -10 -1 -10 -3 l0 -2 10 0 c6 1 11 1 11 2 1
0 2 -2 4 -4 2 -5 6 -6 25 -6 14 0 16 0 19 2 4 1 5 2 6 6 1 2 2 4 2 4 0 1 5 1
10 2 7 1 10 1 18 0 14 -3 13 -3 13 -7 0 -3 0 -4 -2 -4 -1 -1 -17 -2 -34 -4
-38 -4 -69 -7 -77 -8 -4 0 -5 -1 -5 -3 0 -2 0 -2 3 -2 1 1 12 2 24 3 12 1 26
2 32 3 5 1 18 2 29 3 11 1 22 2 24 3 l5 0 -1 -4 c0 -3 0 -5 -1 -5 0 0 -6 -1
-13 -1 -12 -1 -31 -3 -87 -10 l-15 -1 0 -3 c0 -3 0 -3 2 -3 4 0 15 -10 15 -13
0 0 -3 -1 -7 -1 -9 -1 -10 -2 -10 -5 0 -2 0 -2 3 -1 6 1 17 2 17 1 2 -1 8 -22
9 -29 1 -6 1 -7 0 -9 -5 -5 -4 -11 1 -17 l3 -4 -7 -1 c-3 -1 -11 -3 -16 -4 -9
-1 -10 -1 -10 -4 0 -2 0 -2 2 -2 1 1 6 1 10 2 3 1 8 1 10 2 2 0 1 -1 -4 -5 -4
-3 -10 -8 -13 -12 -4 -5 -5 -7 -5 -11 l0 -4 3 4 c5 8 15 18 24 24 10 6 13 8
14 6 1 0 0 -2 -3 -5 -6 -6 -13 -17 -13 -19 0 -4 3 -2 8 6 3 4 7 9 9 11 3 3 3
3 7 2 2 0 5 -1 6 -1 3 0 3 0 2 -2 -1 -7 6 -16 13 -16 3 0 5 1 8 4 3 3 3 3 3 8
0 4 -2 7 -3 10 -2 2 -3 4 -3 5 1 0 3 -1 6 -1 15 -5 35 -25 42 -41 7 -15 10
-35 6 -47 -1 -7 -1 -11 0 -11 1 0 2 1 3 3 2 4 3 3 4 -2 0 -4 0 -5 -4 -9 -5 -5
-15 -9 -30 -13 -11 -2 -12 -2 -43 -2 -25 0 -35 0 -44 1 -6 1 -12 2 -13 3 -2 0
-2 0 -2 -2 0 -2 1 -3 5 -6 7 -4 20 -13 29 -21 l8 -6 -6 -1 c-5 -1 -6 0 -12 3
-4 3 -8 4 -11 5 -5 0 -5 0 -9 -4 l-4 -4 0 -8 c0 -5 1 -10 1 -12 1 -3 1 -3 0
-4 0 0 -1 -2 -1 -4 l0 -5 6 -1 6 -1 0 -12 c0 -6 0 -11 -1 -11 0 0 -3 1 -6 1
-2 1 -5 2 -5 2 0 0 0 -1 0 -2 0 -3 1 -3 6 -5 l6 -1 0 -26 0 -25 -6 1 c-6 0 -6
0 -6 -2 0 -1 1 -2 2 -2 l3 -1 -3 -2 c-2 -1 -3 -7 -1 -6 4 2 14 8 18 10 2 2 4
3 4 3 12 -18 18 -25 29 -30 11 -6 16 -7 29 -7 6 0 11 -1 11 -1 -1 -1 -20 -11
-23 -12 l-4 -2 -11 6 c-16 7 -41 21 -52 29 -2 1 -2 1 -2 -2 0 -2 1 -3 13 -11
19 -11 47 -25 51 -26 4 0 12 3 28 13 12 8 15 9 20 4 3 -3 4 -4 2 -11 -5 -18 1
-28 20 -31 14 -3 40 1 41 5 0 1 -2 3 -6 6 -3 2 -6 4 -6 4 0 0 2 2 4 5 8 7 7 8
-11 8 -13 0 -15 0 -19 2 -3 1 -5 3 -6 4 -1 3 -1 9 0 17 3 10 1 13 -6 16 -4 2
-6 2 -13 2 -20 -1 -25 -1 -29 2 -5 2 -10 7 -10 8 0 1 15 8 25 13 4 1 7 3 8 4
1 1 2 7 2 22 l1 21 8 4 c4 2 14 6 22 9 14 5 16 7 16 8 0 2 -7 1 -16 -3 -5 -2
-10 -4 -10 -4 0 1 1 5 1 11 3 15 3 38 0 46 l-2 7 4 1 c3 1 9 3 16 5 6 2 11 3
12 4 3 0 2 -4 -1 -7 -2 -3 -2 -4 -2 -15 1 -12 1 -13 4 -21 4 -9 8 -14 14 -17
l4 -2 -10 -10 -10 -11 0 -9 c0 -9 0 -9 -4 -15 -16 -22 -10 -50 15 -67 20 -13
46 -14 68 -2 3 1 6 3 6 3 0 0 2 -3 4 -6 7 -16 20 -24 43 -31 9 -2 11 -2 30 -2
18 0 20 0 29 2 11 4 20 8 26 14 6 5 9 6 15 8 6 2 11 1 18 -2 10 -5 19 -15 18
-20 -1 -3 -1 -3 -10 0 -5 1 -9 1 -16 1 -8 -1 -10 -1 -16 -4 -12 -6 -15 -13
-10 -23 3 -6 8 -10 15 -13 4 -2 6 -2 17 -2 10 0 13 0 19 2 4 2 7 3 7 2 2 -2 1
-6 -3 -9 -6 -6 -14 -9 -28 -13 -41 -9 -43 -10 -43 -13 0 -1 1 -2 4 -3 l4 -1 0
-6 c0 -6 1 -8 3 -8 3 0 43 13 50 17 8 4 16 10 19 17 4 9 2 23 -3 25 -2 0 -6
-1 -10 -3 -10 -3 -24 -4 -32 -2 -6 2 -15 9 -14 10 0 1 3 1 6 0 13 -2 28 -1 40
5 14 6 19 13 19 25 0 7 -1 12 -6 17 -2 2 -3 4 -3 4 0 1 8 4 17 9 26 13 32 14
53 12 5 -1 20 -2 32 -3 26 -1 30 -1 35 4 3 3 4 7 2 10 -1 1 -5 3 -8 4 -5 2 -8
4 -11 7 -4 4 -6 5 -18 12 -5 3 -9 5 -8 5 0 0 10 -2 21 -4 l21 -4 7 2 c4 1 10
4 14 6 l7 4 0 23 c0 16 0 19 -1 12 0 -6 -1 -11 -2 -12 -1 -1 -14 -2 -17 -1 -2
1 -2 2 -2 8 0 4 1 9 1 11 0 2 1 3 6 3 2 0 7 2 10 2 4 2 5 2 5 5 l0 3 -4 -2
c-3 -1 -7 -2 -10 -3 -7 -2 -7 -1 -6 7 l1 6 4 1 c3 1 7 2 10 2 4 2 5 3 5 5 0 2
0 2 -7 0 -9 -3 -10 -3 -5 2 4 5 4 5 10 3 2 0 2 0 2 2 0 1 -1 2 -3 3 -4 1 -4 1
-4 5 0 6 -2 11 -5 13 -6 3 -16 0 -23 -6 -4 -3 -4 -3 -7 -2 -1 1 -3 1 -6 1 -3
-1 -4 -1 -4 2 -1 3 -7 10 -11 12 -5 2 -10 2 -14 -1 -3 -2 -5 -6 -6 -12 l0 -5
-6 -2 c-8 -2 -8 -3 -9 -15 0 -8 0 -10 1 -13 2 -4 3 -20 1 -34 l0 -8 -8 4 c-5
3 -7 4 -6 5 1 3 1 19 0 26 -2 9 -7 27 -13 38 l-4 10 1 5 c3 7 4 14 4 17 0 2 1
3 1 4 1 0 6 -1 12 -2 9 -2 48 -9 77 -15 14 -2 27 -5 30 -6 2 0 2 0 2 2 0 3 1
3 -19 7 -9 2 -30 5 -45 8 -57 11 -57 11 -57 13 1 1 1 3 1 5 l0 4 7 -2 c3 0 14
-2 24 -4 10 -2 33 -6 53 -10 19 -4 35 -7 35 -7 1 0 1 1 1 2 0 2 -1 3 -4 3 -3
1 -20 4 -40 8 -20 4 -38 7 -42 8 -14 2 -33 6 -34 6 0 1 0 2 1 3 0 2 1 4 5 5 2
1 4 2 4 2 1 0 0 -1 0 -3 0 -2 0 -4 2 -5 2 -2 10 -5 21 -7 6 -1 7 -1 12 1 6 2
7 2 7 0 1 -3 9 -5 28 -9 5 0 9 -1 11 0 4 1 5 1 6 -1 2 -2 5 -3 11 -4 5 -1 9
-2 10 -3 2 0 2 0 2 2 0 3 -1 3 -6 4 -3 1 -7 2 -9 2 l-4 1 0 22 1 23 2 -1 c1 0
6 0 9 0 7 -1 7 -1 7 1 0 1 -1 2 -2 2 -1 1 -14 3 -15 3 -1 0 -1 14 0 28 l0 11
3 0 c2 -1 6 -1 9 -2 5 0 5 0 5 2 0 1 0 2 0 2 0 0 -4 1 -8 1 -8 1 -8 2 -8 5 0
2 0 3 8 5 7 3 8 4 8 6 0 1 0 2 0 2 -1 0 -29 -9 -30 -10 -2 -1 -2 -1 -2 0 0 3
-3 4 -12 6 -4 0 -8 1 -9 1 0 1 14 6 23 8 5 2 7 2 15 1 13 -2 15 -1 15 1 0 3 0
3 -12 4 -7 1 -16 1 -20 2 -5 1 -21 2 -35 4 -29 2 -54 5 -55 5 -1 2 -3 9 -3 10
1 0 27 -2 67 -7 12 -1 29 -3 37 -4 8 0 16 -1 18 -2 3 0 3 0 3 2 0 2 -1 3 -1 3
-1 0 -10 1 -20 2 -9 1 -24 3 -32 4 -9 0 -23 2 -32 3 -9 1 -22 2 -29 3 -11 1
-14 2 -15 3 -1 1 -4 5 -7 9 l-6 7 3 1 c5 2 5 1 5 -4 0 -4 0 -5 2 -5 2 -1 39
-6 56 -9 6 0 22 -2 34 -4 20 -2 23 -3 27 -1 7 2 9 4 10 8 0 3 1 4 3 4 1 0 2 1
2 2 0 1 -1 2 -2 2 -2 0 -2 0 -1 8 0 4 1 8 2 9 1 1 1 4 0 4 -1 0 -1 2 0 8 1 4
1 19 1 33 l0 27 -2 0 c-3 0 -25 2 -68 5 -14 1 -35 3 -46 4 -12 0 -28 2 -36 2
l-15 2 -1 5 0 6 5 0 c2 -1 12 -1 21 -2 8 -1 25 -2 36 -2 11 -1 28 -2 38 -3 22
-1 58 -4 64 -4 4 -1 4 -1 4 1 0 3 3 3 -29 6 -9 0 -19 1 -22 1 l-5 0 6 1 c3 0
8 2 11 3 4 1 6 2 6 2 1 0 1 -2 2 -3 l1 -3 12 0 c9 0 14 0 15 -1 3 -2 3 0 2 7
-2 9 -2 10 0 10 0 0 1 1 1 3 0 1 -1 2 -2 2 -1 0 -2 1 -2 3 -1 2 -5 28 -7 46
-1 8 -1 9 3 9 1 0 3 0 5 1 2 1 3 2 3 4 0 2 0 2 -3 1 -1 0 -4 -1 -6 -1 l-4 -1
0 6 c-1 9 -1 8 2 9 11 3 11 3 11 6 0 2 0 2 -2 2 -1 -1 -3 -1 -6 -2 -2 -1 -5
-1 -6 -2 -1 0 -1 1 -1 3 0 3 0 3 8 5 l7 2 0 5 0 4 -11 1 c-6 0 -43 0 -83 0
l-72 0 0 5 0 6 83 0 83 0 0 2 c0 2 -1 3 -2 3 -1 1 -2 2 -2 8 -1 4 -2 12 -3 18
0 6 -2 17 -3 24 -2 18 -2 18 -5 18 -2 0 -2 0 -2 -3 1 -2 2 -11 3 -19 1 -9 3
-21 4 -27 0 -7 1 -13 1 -15 l0 -4 -11 0 -10 0 0 34 1 34 -18 0 -18 0 0 -14 c0
-7 0 -23 -1 -34 l0 -20 -9 0 -8 0 0 7 c-1 3 -1 13 -1 20 0 8 0 20 -1 27 0 14
0 14 -3 14 -2 0 -2 0 -2 -4 l0 -3 -11 -1 -11 0 0 4 0 4 -17 0 c-16 0 -16 0
-17 -2 0 -1 0 -17 0 -34 l0 -32 -5 0 c-3 -1 -8 -1 -11 -1 l-5 0 0 35 0 34 -2
0 -3 0 0 -60 c0 -33 0 -64 -1 -69 l0 -8 -2 4 c-1 2 -4 7 -5 9 l-3 5 0 58 c0
32 0 58 -1 59 0 1 -1 2 -2 2 -2 0 -2 -2 -2 -50 0 -28 0 -53 -1 -57 l0 -7 -3 4
c-2 1 -5 4 -7 6 l-4 3 2 3 c7 7 10 22 7 34 -3 9 -8 20 -13 25 -9 8 -22 13 -38
13 l-9 0 0 13 0 13 -2 0 -3 0 0 -14 0 -14 -4 -1 c-5 -1 -17 -7 -18 -9 0 -1 -1
-1 -2 -1 -1 0 -1 3 -1 20 0 18 0 19 -2 19 -2 0 -2 -2 -2 -23 -1 -23 -1 -23 -4
-29 -4 -9 -5 -17 -2 -23 1 -3 2 -5 2 -6 0 0 -2 0 -4 -1 -6 0 -19 -5 -26 -8 -4
-1 -6 -2 -7 -2 0 1 2 6 4 13 2 6 5 13 5 15 1 1 3 8 4 14 4 10 9 33 11 45 0 5
0 5 -2 5 -3 0 -3 0 -3 -5 -2 -15 -9 -40 -17 -64 -4 -14 -8 -25 -8 -26 0 0 -4
-5 -9 -10 -6 -6 -11 -12 -14 -17 -2 -4 -6 -10 -9 -12 -5 -6 -13 -20 -13 -22 0
-2 -4 -6 -10 -12 -13 -13 -18 -15 -30 -16 l-9 0 3 4 c13 16 30 49 41 81 5 15
11 39 13 57 4 25 5 32 5 37 0 4 0 5 -2 5 -2 0 -3 -1 -3 -13 -3 -26 -8 -55 -16
-80 -10 -31 -30 -70 -44 -87 l-3 -3 -6 1 c-3 1 -6 1 -6 2 -1 0 0 2 1 3 6 11
19 40 26 61 8 23 14 48 16 67 1 5 0 7 -2 2 -8 -36 -16 -63 -26 -89 -8 -19 -18
-41 -20 -42 -3 0 -9 3 -10 6 -3 4 -4 27 -4 73 0 39 0 43 1 44 1 1 2 5 4 12 0
5 2 13 3 16 0 4 1 9 1 11 0 3 0 3 4 5 3 1 5 2 5 2 0 -1 5 -3 11 -7 l10 -5 0
-4 c0 -15 -4 -56 -8 -73 -1 -9 -1 -13 0 -13 3 0 9 37 12 71 1 8 1 15 1 15 1 0
4 -2 8 -3 15 -8 16 -6 9 21 -1 6 -2 7 -4 7 -3 0 -4 1 1 -14 2 -9 2 -12 1 -12
-1 0 -35 19 -35 20 0 0 2 1 5 3 l5 3 -5 0 c-3 0 -6 0 -7 -1 -2 -2 -19 -9 -20
-9 0 0 0 2 0 5 0 5 0 5 -2 5 -3 0 -3 0 -3 -6 l0 -6 -7 -2 c-9 -3 -19 -5 -22
-5 l-3 0 0 10 c0 8 0 9 -2 9 -2 0 -2 -1 -2 -10 l0 -10 -7 -1 c-7 0 -31 1 -40
3 l-5 2 -1 5 c-1 2 -1 6 -2 8 0 2 -1 3 -2 3 -2 0 -2 0 -2 -7z m448 -3 l0 -6
-13 0 -13 0 0 5 c0 3 0 6 1 6 0 1 6 1 12 1 l13 0 0 -6z m82 3 l0 -3 -13 0
c-12 0 -13 0 -13 2 0 2 0 2 9 2 5 1 9 1 11 1 4 1 6 1 6 -2z m-55 -19 c0 -15 1
-14 -13 -14 l-9 0 0 13 0 13 3 0 c2 0 7 1 11 1 l8 0 0 -13z m-373 9 c0 -3 -5
-32 -6 -32 0 -1 -6 5 -13 12 l-12 12 3 1 c1 1 8 3 15 4 14 4 13 4 13 3z m427
-12 l0 -14 -8 0 c-4 -1 -10 -1 -12 -2 l-5 0 0 14 0 15 13 0 12 0 0 -13z m-82
7 c1 -1 1 -12 1 -24 l1 -22 -14 0 -13 0 0 3 c1 2 1 12 1 24 l0 20 12 0 c9 0
12 0 12 -1z m-426 -3 c5 0 11 -1 13 -1 3 0 5 0 5 -1 0 -2 -21 -29 -23 -29 -1
0 -5 11 -7 23 -3 11 -3 11 1 11 1 -1 6 -2 11 -3z m46 -3 c1 -1 7 -8 14 -15
l12 -12 0 -51 c1 -28 1 -54 2 -57 1 -6 0 -7 -3 -8 -2 -1 -2 -15 -1 -20 1 -2 2
-5 2 -5 0 -1 -1 -8 -3 -15 -2 -8 -4 -18 -5 -21 -2 -8 -1 -8 -13 -5 l-8 1 0 29
c-1 44 -1 182 0 182 0 0 2 -1 3 -3z m271 -6 c4 -2 8 -3 8 -4 1 0 -3 0 -8 0
-12 0 -18 -2 -24 -9 -6 -7 -8 -13 -8 -22 1 -3 1 -8 1 -9 1 -2 1 -2 -4 -1 -5 0
-7 2 -10 8 -3 5 -3 18 0 24 3 6 9 12 14 14 5 3 20 2 31 -1z m-48 -8 c-6 -9 -6
-20 -2 -31 2 -3 3 -5 3 -6 0 0 -3 0 -7 0 -6 0 -7 1 -8 4 -5 9 -1 21 9 31 7 7
9 8 5 2z m50 -3 c4 -4 6 -10 6 -18 0 -7 -2 -13 -6 -19 -4 -5 -3 -5 -15 -2 -4
1 -7 3 -9 4 -3 2 -5 7 -5 13 0 11 8 21 18 24 7 1 8 1 11 -2z m11 1 c6 -3 8 -5
10 -12 3 -8 3 -14 0 -20 -2 -5 -8 -10 -15 -12 -5 -3 -7 -2 -3 3 6 8 8 12 8 23
0 9 -1 11 -3 15 -2 4 -2 5 3 3z m124 -3 l0 -4 -9 0 c-6 0 -11 0 -11 0 -1 0 -2
1 -2 3 l0 3 7 0 c4 0 9 1 11 1 4 0 4 0 4 -3z m54 -11 l0 -10 -13 0 -13 0 0 9
0 9 4 0 c3 1 7 1 11 1 4 0 8 1 9 1 2 0 2 0 2 -10z m-54 1 c0 -1 0 -4 1 -6 l0
-5 -11 0 -11 0 0 5 c-1 3 -1 6 0 6 0 1 5 1 11 1 8 0 10 0 10 -1z m-110 -29
c-1 -4 -2 -6 -5 -8 -2 -2 -4 -3 -4 -3 -1 0 -7 3 -7 4 0 0 3 2 6 3 4 3 6 5 8 8
3 5 4 4 2 -4z m-83 -4 c-5 -5 -8 -9 -10 -13 -5 -11 -4 -14 2 -5 6 11 20 24 26
24 5 0 22 -3 24 -5 1 0 3 -3 5 -6 2 -5 2 -6 2 -14 -1 -7 -1 -12 -3 -17 -3 -8
-4 -10 -2 -10 1 0 6 8 8 15 3 7 3 20 1 25 -1 2 -2 4 -2 5 1 1 13 -7 16 -10 13
-16 12 -32 -1 -53 -2 -3 -4 -6 -4 -7 1 -1 8 6 11 11 8 12 10 29 6 39 -1 2 -2
4 -2 5 0 0 3 -2 6 -5 4 -4 7 -7 9 -12 3 -6 4 -7 4 -19 0 -14 -1 -21 -5 -31 -3
-7 -3 -9 1 -4 6 7 9 21 9 35 0 5 0 9 0 9 0 0 4 -9 6 -15 2 -7 2 -9 2 -23 -1
-9 -2 -19 -2 -23 -2 -6 -6 -19 -6 -19 -1 0 -1 3 -1 6 0 10 -5 15 -15 15 -6 0
-11 -3 -15 -11 -1 -3 -3 -6 -3 -7 -2 -4 -18 10 -20 18 -1 2 -1 3 -1 4 1 0 3 0
5 -1 8 -2 18 -1 23 4 2 3 1 3 -5 1 -4 -2 -6 -2 -11 -2 -18 2 -35 17 -37 35 -1
8 -4 8 -4 -1 0 -7 3 -14 9 -21 6 -8 5 -9 -4 -7 -20 5 -34 18 -43 36 -3 7 -6 9
-7 4 -4 -19 -15 -38 -27 -45 -3 -2 -13 -6 -15 -6 0 0 3 3 6 7 8 8 13 16 16 26
2 6 2 6 1 6 -1 0 -3 -2 -4 -5 -6 -14 -16 -26 -26 -33 -4 -3 -7 -6 -7 -6 1 -1
2 -1 4 -1 l4 0 1 -10 c1 -5 2 -10 2 -10 -1 -1 -9 3 -13 6 -9 9 -14 28 -9 46 3
14 13 28 23 35 4 2 7 5 9 6 1 1 1 1 -3 1 -3 -1 -5 -1 -5 0 0 1 7 10 14 16 9 9
21 15 37 19 10 3 26 5 27 4 0 0 -3 -3 -7 -6z m191 -23 c0 -13 0 -23 -1 -23 -1
0 -5 5 -5 6 0 0 1 1 2 1 1 1 2 2 2 4 0 3 -1 5 -9 13 -2 2 -5 6 -7 9 -4 6 -7 8
-11 10 -3 0 -5 -2 -9 -8 -2 -2 -6 -7 -10 -11 -8 -10 -9 -13 -4 -15 l3 -2 -4
-3 c-2 -2 -4 -4 -6 -5 -3 -2 -4 -6 -1 -9 1 -1 2 -2 3 -2 1 -1 0 -2 -3 -5 -5
-5 -5 -9 -1 -12 2 -2 3 -2 9 -2 4 1 8 1 10 2 4 0 4 0 4 -2 l0 -3 -9 0 c-11 0
-12 -1 -12 -10 0 -4 1 -8 1 -10 1 -3 2 -5 1 -5 0 -1 -9 -2 -15 -2 l-5 0 0 14
c0 7 0 31 1 53 l0 40 38 0 38 0 0 -23z m77 20 c-23 -6 -27 -7 -28 -10 -1 -2
-2 -2 -10 -2 -14 0 -13 1 -15 -10 -1 -4 -2 -14 -3 -22 -1 -9 -3 -23 -4 -33 -1
-10 -3 -18 -3 -19 0 0 -3 -1 -5 -1 l-4 0 0 13 c0 16 0 13 -1 54 l0 33 41 0 41
0 -9 -3z m-102 -8 c1 -1 3 -4 4 -7 2 -2 5 -6 8 -10 3 -3 6 -6 6 -6 0 -1 -7 -1
-9 0 -3 1 -5 1 -4 -1 0 -1 5 -6 10 -10 l10 -8 -4 -1 c-2 0 -6 1 -9 2 -10 3 -8
-1 3 -8 8 -5 12 -9 10 -11 -1 -1 -4 -1 -8 -1 -6 0 -9 1 -14 4 -1 1 -2 1 -5 -1
-3 -2 -6 -3 -10 0 -3 1 -3 1 -6 -1 -2 -1 -5 -2 -7 -2 -4 -1 -9 0 -9 2 0 1 8 9
14 12 5 4 7 6 5 8 0 0 -2 0 -4 -1 -3 -1 -7 -1 -9 -2 l-4 0 3 3 c6 6 18 17 18
18 0 2 -3 2 -6 1 -2 -1 -5 -2 -7 -2 -2 0 -2 0 5 7 4 4 8 10 10 12 3 6 6 6 9 3z
m97 -10 c2 -21 11 -84 13 -88 0 -1 -1 -2 -10 -2 -6 -1 -10 -1 -11 -1 0 1 -1
10 -3 21 -3 28 -5 42 -6 55 -1 6 -2 14 -2 16 l0 5 7 3 c11 3 10 4 12 -9z m-24
0 c0 0 0 -3 0 -6 -2 -6 -1 -6 -13 -5 l-7 1 1 5 c0 7 0 7 10 6 5 0 9 -1 9 -1z
m-535 -11 c6 -4 12 -10 15 -16 2 -4 6 -22 6 -23 -1 -1 -13 3 -17 5 -4 3 -10
10 -12 16 0 3 -1 9 -1 13 0 9 1 10 9 5z m531 -6 c2 0 2 -3 0 -13 l0 -3 -8 1
c-5 0 -9 1 -9 1 -1 0 -1 4 0 9 l0 7 8 0 c4 -1 9 -1 9 -2z m-474 -6 c-1 -13 -8
-22 -21 -29 l-5 -2 2 3 c1 2 4 6 7 9 2 4 4 7 3 7 0 2 -6 -4 -12 -12 -2 -3 -4
-6 -5 -6 -1 1 2 11 5 17 3 6 9 12 18 17 4 1 8 3 8 3 0 0 0 -3 0 -7z m485 -31
c2 -14 3 -27 3 -28 0 -2 -1 -2 -7 -4 -4 -1 -7 -2 -7 -2 -1 1 0 5 3 35 1 9 3
25 3 30 0 4 2 -5 5 -31z m-11 16 c0 0 -5 -47 -6 -51 0 0 -4 0 -12 1 l-7 1 0 8
c1 7 5 39 6 42 0 0 3 0 9 0 5 -1 10 -1 10 -1z m-245 -18 c12 -12 26 -18 41
-19 9 0 10 0 10 -3 0 -1 1 -4 3 -8 3 -6 10 -14 16 -17 2 -1 3 -2 2 -3 -1 -3
-1 -4 1 -5 1 0 8 10 12 19 4 7 14 9 19 4 5 -6 2 -23 -6 -31 -5 -6 -13 -9 -20
-9 -6 0 -6 -1 -7 -4 -2 -5 -10 -18 -16 -25 -8 -11 -21 -19 -35 -24 -9 -3 -19
-3 -28 0 -23 7 -39 26 -46 56 -2 7 -7 37 -7 39 0 1 2 1 4 2 15 4 27 14 35 29
2 4 4 9 5 12 1 2 1 4 2 4 0 1 2 -2 4 -5 2 -3 7 -9 11 -12z m178 0 c0 -4 0 -4
-4 -4 -3 0 -5 1 -6 2 -2 1 -2 1 4 3 5 3 6 2 6 -1z m17 0 l6 0 0 -12 c0 -11 0
-12 -2 -12 -2 0 -2 0 -1 4 1 5 1 12 0 14 -1 2 -4 2 -9 3 -6 0 -7 1 -7 2 0 2 0
2 3 2 2 -1 6 -1 10 -1z m-287 -8 c-1 -24 8 -40 25 -46 l5 -2 2 -7 c2 -11 8
-28 13 -37 5 -8 13 -16 19 -21 5 -3 5 -4 2 -5 -5 -2 -18 -11 -24 -17 -4 -3 -7
-6 -7 -6 0 1 -7 1 -14 2 -20 2 -18 0 -18 12 -1 13 -5 35 -10 54 -4 18 -4 19
-9 30 -4 9 -4 9 -3 13 2 4 2 10 1 16 l-2 4 4 2 c2 1 7 5 10 8 3 3 6 6 6 6 0 0
0 -3 0 -6z m-141 -1 c-2 -7 -8 -13 -14 -15 -4 -1 -7 -1 -7 1 0 1 5 8 8 10 3 4
9 6 12 6 2 0 2 0 1 -2z m60 -1 c6 -6 21 -11 39 -12 7 0 12 0 14 1 5 2 6 1 6
-7 0 -5 0 -6 -2 -8 -3 -3 -6 -4 -20 -3 -10 0 -14 0 -20 2 -15 4 -21 12 -21 24
0 3 0 6 1 6 0 0 2 -1 3 -3z m367 -3 c0 -8 -2 -13 -5 -17 l-4 -3 -10 -1 c-6 0
-13 0 -15 1 -4 1 -9 5 -11 8 -1 2 -3 14 -2 16 0 1 6 1 24 1 l23 0 0 -5z m21
-18 c0 -3 4 -5 13 -6 l6 -1 -5 0 c-6 0 -38 2 -39 2 0 1 1 2 2 4 2 1 3 3 3 3 0
1 5 1 10 1 l10 0 0 -3z m-67 -2 c-1 0 -3 0 -4 0 -1 1 0 1 2 1 2 0 3 0 2 -1z
m-315 -5 c5 -3 6 -4 6 -5 -1 -4 -6 -37 -7 -45 l0 -8 -3 0 c-2 -1 -6 -1 -9 -2
l-6 0 0 5 c0 10 10 59 12 59 0 0 3 -2 7 -4z m-62 -4 c0 0 0 -3 0 -6 -1 -5 -3
-6 -19 -8 -9 -1 -14 -1 -23 0 -13 1 -15 2 -17 5 -1 2 -2 9 -1 10 0 1 11 1 30
1 25 0 29 0 30 -2z m348 -84 c-1 0 -3 1 -6 2 l-4 2 0 32 0 32 5 9 5 9 0 -43
c0 -23 0 -43 0 -43z m-262 81 c6 0 6 0 8 -5 2 -5 8 -22 9 -28 2 -8 3 -6 3 2
-1 6 -5 21 -8 29 -1 1 0 2 3 2 3 1 6 1 8 2 3 0 3 0 6 -7 8 -15 18 -57 20 -81
l0 -7 -3 8 c-12 28 -25 36 -55 35 l-11 -1 0 4 c0 5 1 16 4 35 l2 14 4 0 c2 -1
7 -1 10 -2z m291 -9 c13 -1 17 -2 17 -3 0 0 -1 -7 -1 -15 -1 -7 -3 -23 -3 -35
-3 -31 -2 -28 -9 -31 l-7 -2 -10 5 -11 6 0 38 0 39 4 0 c2 -1 11 -2 20 -2z
m50 -4 c21 -2 46 -4 74 -6 l9 0 0 -4 c0 -2 0 -7 -1 -12 0 -4 -1 -14 -2 -21 -1
-8 -1 -19 -2 -23 -1 -5 -1 -14 -2 -20 -2 -19 -1 -18 -6 -17 -16 2 -63 7 -76 9
-9 2 -19 3 -22 4 -3 0 -6 0 -7 1 -1 1 3 54 6 82 1 8 2 9 3 9 1 0 13 -1 26 -2z
m-471 -3 c9 -1 19 -1 29 0 5 1 10 2 10 2 0 -1 -2 -15 -4 -19 -2 -5 -5 -5 -21
-5 -19 -1 -20 0 -23 12 -3 11 -3 12 0 12 1 -1 5 -1 9 -2z m564 -5 c0 -1 -2
-24 -4 -42 -1 -5 -2 -18 -3 -29 -1 -17 -2 -20 -4 -22 -3 -2 -3 -1 -3 4 1 6 3
19 5 45 1 12 3 27 3 32 1 5 1 10 1 11 0 1 1 2 3 2 1 0 2 -1 2 -1z m-188 -50
l0 -5 -10 3 c-18 5 -22 8 -25 18 -1 5 -1 5 3 14 l5 9 4 0 c6 0 15 3 20 7 l4 4
0 -23 c0 -13 0 -25 -1 -27z m-236 14 c7 -1 17 -6 18 -8 0 0 -3 -1 -9 -1 -5 -1
-15 -2 -22 -3 l-14 -1 -7 6 -6 7 8 0 c4 1 8 1 10 1 5 1 15 1 22 -1z m203 -11
c2 -2 7 -5 12 -7 4 -1 8 -2 8 -3 0 0 -2 -5 -5 -11 -6 -11 -9 -15 -17 -20 -19
-10 -40 -12 -56 -4 -6 2 -14 9 -14 12 -1 1 0 4 0 8 l2 6 5 0 6 0 1 -5 c1 -2 2
-5 2 -6 0 -1 1 -2 1 -3 3 -2 4 3 3 9 -1 3 -1 5 -1 6 0 0 4 1 9 3 10 4 23 12
30 20 3 4 6 7 6 7 0 1 1 -1 2 -4 1 -3 4 -6 6 -8z m-244 5 c8 -8 8 -8 -2 -8 -5
-1 -16 -2 -25 -3 -22 -3 -20 -3 -26 4 -5 6 -5 7 -3 7 3 1 34 4 44 4 7 0 7 0
12 -4z m-60 -7 c5 -4 6 -6 5 -7 0 0 -11 -2 -23 -3 -12 -2 -24 -4 -27 -4 l-5
-1 -4 6 c-2 3 -5 6 -6 6 -1 1 -2 1 -2 2 0 0 5 1 11 2 6 1 17 2 25 3 21 3 19 3
26 -4z m126 -4 c4 -6 8 -18 12 -31 4 -13 5 -18 3 -18 -3 -1 -47 -8 -48 -8 0 1
-1 5 -2 11 -3 15 -6 24 -10 34 -2 5 -4 10 -5 11 0 1 10 2 36 4 6 0 11 1 11 1
1 0 2 -2 3 -4z m-50 -13 c4 -10 11 -33 11 -41 l1 -4 -5 -1 c-3 -1 -11 -2 -17
-3 -10 -2 -11 -2 -13 -1 -3 3 -8 3 -16 1 -5 -1 -8 -2 -9 -2 0 0 -1 5 -1 11 -3
12 -9 37 -11 42 -1 2 -1 4 0 4 1 0 7 1 15 2 7 1 19 2 26 2 7 1 13 1 14 1 0 -1
3 -5 5 -11z m264 5 c4 -2 9 -3 9 -4 1 0 0 -3 -2 -7 -11 -21 -17 -45 -22 -77 0
-4 -3 -6 -10 -7 -5 -1 -14 1 -15 3 -1 2 2 21 5 34 2 7 5 18 8 26 6 15 15 35
17 35 0 0 5 -1 10 -3z m-117 -2 c4 -2 6 -3 6 -4 -2 -4 -5 -26 -7 -36 0 -7 -1
-20 -1 -29 0 -16 0 -17 -2 -18 -5 -3 -17 0 -18 4 -2 3 -1 35 0 44 2 10 7 29
11 37 2 4 2 5 4 4 1 0 4 -1 7 -2z m-211 -4 c3 -8 8 -28 10 -40 1 -9 1 -11 0
-12 -1 0 -5 -1 -10 -2 l-8 -1 -3 3 -3 2 5 6 c5 4 6 7 6 12 1 5 0 7 -4 11 -3 3
-4 4 -8 4 -3 0 -6 1 -8 3 -10 7 -25 2 -27 -9 0 -3 0 -7 1 -9 1 -3 1 -5 1 -6
-2 -1 -4 4 -4 9 -1 6 -7 24 -8 26 -1 0 -1 1 -1 1 1 1 26 5 40 6 6 1 11 1 11 2
0 0 2 0 4 0 4 0 4 -1 6 -6z m193 -1 c0 0 -1 -4 -2 -8 -6 -16 -9 -39 -9 -62 l0
-9 -2 7 c-1 9 -2 10 -3 10 -1 0 -1 -2 -1 -8 1 -10 4 -28 6 -40 1 -6 1 -10 1
-10 -1 -1 -21 4 -29 7 -10 4 -27 13 -27 15 0 1 12 26 25 51 8 16 16 29 21 34
4 4 18 14 19 14 1 0 1 0 1 -1z m160 -4 c27 -14 36 -30 43 -75 3 -19 6 -42 6
-46 0 -4 -2 -6 -11 -9 -14 -5 -40 -5 -54 0 l-6 2 -1 6 c0 5 1 38 3 53 0 5 0 7
-1 7 -1 0 -2 -1 -2 -3 -2 -4 -4 -26 -4 -36 0 -11 -1 -11 -3 -1 -3 11 -4 24 -3
33 1 17 8 43 18 64 5 11 4 11 15 5z m-379 -13 c1 -1 3 -3 3 -3 1 -2 2 -2 6 -1
4 0 5 0 7 -2 2 -3 3 -6 3 -10 -1 -3 -13 -15 -15 -15 -3 0 -5 7 -3 12 0 3 1 5
0 5 -2 4 -5 -4 -5 -11 1 -3 1 -6 1 -7 1 -1 1 -2 0 -2 -1 -1 -3 1 -5 5 -2 3 -6
7 -8 10 -2 3 -3 5 -3 9 0 5 2 9 5 10 5 3 10 2 14 0z m172 0 l4 0 -4 -4 c-3 -2
-6 -6 -8 -9 l-2 -4 -1 3 c-1 1 -2 5 -2 9 l-2 6 5 0 c3 -1 7 -1 10 -1z m77 -6
c18 -15 45 -15 69 0 3 2 5 3 5 3 1 0 -1 -6 -4 -13 -2 -7 -5 -16 -5 -20 l-2 -8
-10 -1 c-13 -1 -59 3 -61 5 -1 1 -1 9 2 33 0 3 0 5 1 5 0 0 2 -2 5 -4z m-62 3
c0 -1 -2 -4 -5 -9 -2 -4 -7 -12 -10 -18 -3 -6 -6 -11 -6 -11 0 0 -1 3 -2 7 -1
7 -1 8 1 12 5 11 13 19 19 19 2 0 3 0 3 0z m-27 -33 l2 -14 -8 -16 -7 -16 -9
-3 c-14 -4 -23 -6 -23 -5 -1 1 -1 6 -1 11 -1 4 -2 17 -4 28 -1 11 -2 20 -2 21
1 0 43 8 47 8 3 0 3 0 5 -14z m-178 11 c3 -1 11 -12 10 -13 -1 0 -4 -1 -9 -1
-7 0 -8 0 -10 3 -4 3 -4 6 -1 10 3 2 6 3 10 1z m450 -7 l5 0 0 -38 c-1 -35 -1
-38 -3 -49 l-3 -11 -5 -3 -5 -2 0 7 0 7 6 3 c3 1 6 3 6 4 1 3 1 3 -1 15 -1 4
-2 12 -3 19 -1 13 -6 38 -7 43 -2 6 -1 7 2 7 2 -1 6 -1 8 -2z m-329 -2 c2 -7
6 -45 6 -51 l1 -6 -4 -1 c-3 -1 -11 -3 -18 -5 -8 -1 -14 -3 -14 -3 -1 0 -1 1
-1 3 -2 4 -9 18 -13 24 -2 2 -6 7 -9 11 l-6 6 -1 9 c0 5 -1 10 0 10 1 1 12 4
15 4 5 0 6 -1 3 -10 -3 -7 -3 -8 -2 -11 1 -2 3 -5 6 -6 5 -3 5 -4 5 -9 0 -5 1
-6 3 -5 1 1 1 3 1 7 0 6 0 7 -7 11 -4 3 -4 6 -1 14 l3 6 14 2 c19 4 19 4 19 0z
m356 0 c6 -1 10 -2 9 -2 0 0 -4 -2 -9 -3 l-9 -3 -2 -6 c-1 -3 -2 -10 -4 -16
l-2 -11 0 21 0 21 3 0 c2 0 8 -1 14 -1z m-449 -3 c2 -1 3 -2 3 -3 0 -6 -16
-12 -24 -9 -6 2 -3 5 13 11 5 2 5 2 8 1z m483 0 c6 -1 11 -2 10 -2 -1 -1 -6
-2 -11 -4 -6 -2 -12 -3 -13 -4 -3 -1 -5 -1 -12 1 l-8 2 8 3 c5 2 9 3 10 4 2 1
2 1 16 0z m-454 -7 c0 -2 0 -5 1 -6 0 -3 -1 -2 -7 2 -3 2 -7 4 -9 4 -4 2 -3 2
5 4 9 1 9 2 10 -4z m225 -4 c6 -1 19 -1 29 -1 l18 0 0 -3 c-1 -2 -1 -7 -2 -11
0 -6 0 -7 2 -9 4 -4 19 -6 26 -2 2 1 4 2 4 2 0 0 0 -2 1 -5 1 -9 3 -18 6 -26
2 -4 3 -8 3 -10 0 -3 2 -6 6 -8 l3 -1 0 -16 c0 -9 0 -17 -1 -18 0 0 -2 -2 -5
-3 -2 -1 -13 -8 -23 -14 -37 -23 -46 -29 -50 -30 -2 0 -10 1 -19 2 -14 1 -28
1 -36 -1 -2 0 -3 1 -5 6 l-3 5 5 7 c6 9 11 18 11 19 -1 1 -3 9 -6 19 -8 24
-13 41 -15 53 -1 11 -1 26 0 26 8 -4 15 -5 21 -3 5 2 6 3 6 14 l0 10 6 0 c4
-1 11 -2 18 -2z m195 -1 c3 0 7 -1 10 -2 l6 -1 0 -6 c-1 -4 -1 -8 -2 -9 0 -2
0 -2 -14 1 l-9 2 1 4 c1 7 2 12 3 12 1 0 3 0 5 -1z m-444 -8 c3 -5 2 -8 -2
-11 -5 -3 -11 2 -11 10 0 3 0 4 5 6 5 2 6 2 8 -5z m474 2 c1 -1 1 -1 -2 -2 -4
-2 -5 -3 -3 -4 0 -1 3 0 16 3 2 0 2 0 2 -9 l0 -9 -8 -1 c-6 0 -8 -1 -9 -2 -1
-1 -2 -8 -2 -31 0 -33 -1 -30 10 -27 4 1 7 2 7 2 0 0 0 -4 0 -8 l0 -9 -3 0
c-5 0 -18 3 -20 4 -1 1 -1 5 -1 29 1 27 2 59 4 64 0 2 0 2 4 1 2 0 4 -1 5 -1z
m28 -43 c-1 -21 -1 -42 -1 -46 l0 -8 -4 -1 c-2 0 -5 -1 -6 -1 -2 0 -2 -7 0 63
l1 27 5 3 c3 1 6 2 6 1 0 0 0 -17 -1 -38z m-48 25 c1 0 2 0 2 -1 1 -1 -2 -15
-2 -15 -1 0 -22 4 -23 4 -1 1 -1 2 2 13 l1 4 9 -3 c5 -1 10 -2 11 -2z m32 -33
l0 -24 -7 -2 -6 -2 0 26 0 26 7 0 6 0 0 -24z m-346 17 c2 -1 4 -3 4 -3 0 -3
-4 -12 -5 -13 0 0 -6 2 -13 4 -7 2 -15 5 -17 5 l-4 1 9 3 c4 1 11 3 14 4 7 2
7 2 12 -1z m303 -3 c6 -1 10 -2 10 -2 0 -1 -2 -13 -5 -26 -4 -20 -6 -25 -7
-26 -2 0 -14 2 -18 5 -4 1 -4 -2 2 30 4 21 5 22 6 22 2 -1 7 -2 12 -3z m-271
-12 c8 -2 16 -4 21 -4 1 0 3 0 3 -1 0 -2 -9 -26 -13 -35 -7 -14 -14 -25 -23
-37 l-7 -9 -1 6 c-1 5 -2 8 -3 11 -3 4 -9 8 -14 10 -2 0 -3 1 -6 10 l-3 9 7
13 c6 11 12 26 15 35 1 2 2 1 9 -2 5 -2 11 -5 15 -6z m-63 4 c6 -2 13 -4 15
-5 l3 -1 -3 -1 c-8 -1 -44 -10 -56 -14 -7 -2 -7 -2 -8 8 0 5 -1 9 -1 9 1 0 35
8 36 8 1 -1 7 -2 14 -4z m347 -23 l0 -19 -3 -1 c-5 -1 -5 -1 -4 3 4 21 7 37 8
37 0 -1 0 -9 -1 -20z m-320 13 c1 -1 0 -3 -5 -15 l-7 -14 -3 6 c-6 10 -14 13
-19 6 -2 -2 -2 -4 -2 -9 l0 -6 -2 2 c-4 3 -12 8 -20 12 -4 2 -7 4 -6 4 2 1 53
14 56 14 4 1 6 1 8 0z m64 -15 l2 -4 -4 -2 c-3 -1 -5 -2 -5 -2 0 1 5 13 6 13
0 0 1 -2 1 -5z m200 -29 c-1 -17 -3 -27 -6 -32 -4 -8 -14 -15 -33 -22 -12 -5
-44 -16 -60 -21 -7 -2 -17 -6 -20 -8 -12 -6 -16 -7 -35 -8 -10 -1 -19 -1 -20
-2 -1 0 -6 -2 -9 -3 -8 -3 -18 -4 -17 -2 0 2 24 13 30 15 7 2 5 3 -4 3 -9 -1
-20 -5 -30 -11 -6 -4 -7 -4 -8 -2 -2 1 -2 2 -2 2 9 8 23 15 33 18 9 2 9 5 1 4
-9 -1 -15 -4 -28 -12 -7 -5 -11 -7 -12 -6 -3 0 -3 0 2 6 6 7 20 15 32 18 7 2
7 3 1 3 -11 0 -26 -7 -36 -17 -4 -4 -6 -6 -7 -5 -3 1 -2 4 6 11 6 6 9 9 17 12
5 3 12 6 16 7 7 1 24 2 36 0 4 -1 10 -1 14 -1 6 0 8 0 14 3 4 2 12 7 18 11 18
12 50 31 54 33 3 1 6 1 14 1 6 -1 11 -1 11 0 0 2 -6 3 -14 4 l-8 1 0 15 c0 9
0 16 0 16 0 0 3 -1 6 -1 7 -1 34 -1 40 0 l5 2 0 -9 c0 -5 0 -15 -1 -23z m-325
22 c12 -6 28 -18 28 -20 0 -1 -2 -2 -4 -3 -3 -1 -6 -3 -8 -4 -2 -3 -5 -4 -21
-9 l-18 -6 -3 3 c-2 2 -3 4 -3 4 0 1 2 2 6 4 7 3 10 6 12 11 3 6 2 11 -2 14
-2 2 -3 3 -2 7 1 4 1 4 4 3 2 0 7 -2 11 -4z m37 2 c4 -2 12 -22 17 -39 3 -9 3
-10 2 -15 -1 -3 -2 -6 -2 -6 -1 0 -10 15 -16 28 -5 10 -9 21 -9 27 0 3 3 7 4
7 1 0 3 -1 4 -2z m97 -20 c3 -8 5 -16 5 -16 0 -1 -3 -6 -7 -12 l-7 -10 -3 2
c-4 2 -11 1 -15 -2 -2 -1 -4 -2 -4 -2 -1 0 -1 3 -1 7 0 4 0 9 -1 11 -1 3 -1 4
3 11 3 4 7 11 9 15 3 8 3 8 8 10 3 0 5 2 6 2 1 2 2 0 7 -16z m-101 -14 c2 -3
5 -8 7 -12 4 -7 4 -7 -1 0 -2 2 -4 4 -5 4 -4 0 2 -9 9 -15 10 -8 13 -12 9 -14
-4 -1 -18 6 -23 13 -1 1 -4 6 -6 10 -6 10 -5 16 2 19 5 2 6 1 8 -5z m31 -5 c2
-2 4 -4 6 -8 3 -6 4 -9 1 -16 -2 -9 -7 -12 -12 -9 -1 2 -1 2 0 11 1 5 3 10 4
13 1 5 1 6 -1 4 -2 -1 -2 -1 -3 1 -1 2 -1 6 0 6 0 0 2 -1 5 -2z m-96 -3 c2 -2
3 -3 3 -3 -1 -1 -5 -2 -32 -10 -14 -4 -14 -4 -16 -2 -2 3 -6 5 -10 5 -5 0 -12
-4 -15 -9 -2 -2 -4 -4 -4 -4 0 0 -3 2 -6 4 -2 2 -9 7 -14 11 -5 4 -9 7 -9 8 0
0 5 -1 11 -1 5 -1 22 -1 37 -1 26 0 28 0 38 2 14 4 14 4 17 0z m130 -15 c0 -7
0 -8 -3 -10 -2 -2 -4 -2 -10 -2 -4 0 -8 0 -8 1 0 0 3 3 6 7 3 4 7 9 9 12 l4 5
1 -3 c0 -1 1 -6 1 -10z m-79 7 c6 -12 14 -20 20 -22 4 0 3 -2 -1 -3 -4 0 -10
3 -17 8 -7 5 -10 8 -10 13 0 3 2 9 4 9 0 0 2 -2 4 -5z m-43 -6 c3 -11 2 -33
-1 -53 l-1 -6 -7 -2 c-4 -2 -8 -3 -8 -3 -1 0 -1 1 -1 3 1 1 1 5 2 8 1 6 1 26
-1 28 0 1 -7 2 -15 3 -8 1 -15 2 -15 2 -1 0 -1 3 -1 7 l-1 6 12 3 c7 2 17 5
23 7 5 2 10 3 11 3 1 0 2 -3 3 -6z m-59 -2 c4 -3 6 -8 6 -16 0 -8 0 -8 -3 -11
-4 -3 -9 -5 -15 -5 -3 0 -3 0 -3 3 0 2 1 3 5 6 3 2 5 4 5 4 0 3 -1 2 -7 -1 -2
-1 -4 -2 -4 -2 -1 0 -2 2 -3 4 -3 5 -2 7 4 14 7 6 11 8 15 4z m469 -1 c5 -3
12 -17 8 -17 -1 0 -3 2 -6 3 -4 3 -7 4 -7 2 0 -1 3 -4 8 -6 l4 -2 -3 -1 c-5
-3 -12 -4 -15 -3 -2 2 -4 6 -4 12 0 12 6 17 15 12z m-264 -3 c3 -2 6 -7 6 -10
0 -1 -1 -3 -3 -3 -8 -3 -19 -9 -25 -15 -3 -3 -4 -4 -4 -2 0 1 -1 3 -2 4 -2 2
-2 2 0 9 2 3 4 7 7 10 10 9 14 11 21 7z m201 -10 c5 -12 12 -33 13 -42 1 -7 1
-11 0 -16 -1 -6 -2 -8 -5 -11 -2 -3 -5 -7 -7 -10 -9 -13 -24 -20 -59 -28 l-8
-2 -2 5 c-4 8 -14 17 -29 25 -11 5 -35 14 -44 16 -7 2 -9 3 -9 4 0 1 0 4 0 6
l0 5 7 0 c10 1 17 3 26 8 3 2 15 6 25 9 35 12 56 20 72 28 4 2 7 3 8 3 0 0 1
-5 3 -10 1 -6 2 -13 3 -21 0 -11 1 -11 2 -9 2 4 2 21 -1 32 -3 11 -3 11 -1 14
1 1 2 2 2 2 0 0 2 -3 4 -8z m113 6 c4 -4 2 -14 -3 -18 -3 -3 -7 -3 -14 0 -5 2
-6 4 -2 4 4 0 10 2 10 4 0 1 -3 1 -9 0 -3 -1 -4 0 -4 1 0 3 4 6 11 9 7 2 8 3
11 0z m-419 -5 c7 -5 11 -7 16 -8 4 0 5 -1 3 -4 -1 -3 -6 -3 -11 0 -4 2 -13
10 -13 12 0 0 0 2 -1 2 -1 3 1 2 6 -2z m-145 -1 c3 -2 6 -5 8 -7 2 -5 3 -7 0
-7 -1 1 -4 1 -7 2 -5 0 -6 0 -6 -1 0 -1 2 -2 7 -3 4 -1 8 -3 9 -4 1 -1 1 -1
-2 -2 -7 -3 -15 -4 -18 -3 -6 3 -10 13 -9 21 2 9 9 10 18 4z m535 -2 c3 -2 3
-7 0 -8 -3 -1 -7 0 -8 2 -1 2 0 6 3 7 2 1 2 1 5 -1z m-323 0 l7 0 -1 -3 c-1
-1 -3 -3 -5 -4 -2 -1 -3 -2 -3 -3 0 0 -1 -1 -2 -2 -1 -2 -1 -2 -6 4 -5 5 -6 6
-4 7 1 2 2 2 4 2 2 -1 6 -1 10 -1z m-191 -3 c5 -4 6 -13 1 -16 -3 -2 -6 0 -6
4 0 1 -1 5 -3 8 -1 3 -2 5 -2 6 0 1 8 0 10 -2z m161 1 c1 -1 4 -8 6 -15 l2 -5
-3 0 c-3 0 -7 2 -11 7 -5 5 -5 7 -4 11 2 2 3 3 5 3 2 0 4 0 5 -1z m314 -4 c1
-3 1 -3 -3 -3 -6 1 -7 2 -6 3 0 1 5 3 7 3 0 0 1 -1 2 -3z m-299 -4 c3 -4 4 -6
5 -11 0 -4 0 -5 -1 -6 -2 -2 -5 2 -8 11 -2 5 -3 10 -4 11 -1 3 4 0 8 -5z
m-130 2 c13 -2 13 -2 5 -5 -13 -6 -13 -6 -17 -5 -3 1 -5 1 -5 2 0 0 1 2 3 4 2
1 3 4 3 4 0 1 2 1 11 0z m465 -5 c2 0 4 1 5 1 1 1 2 1 4 0 2 -1 7 -3 11 -4 l8
-2 -13 1 c-15 0 -34 3 -30 4 1 1 3 2 4 3 1 2 1 2 4 -1 2 -1 4 -2 7 -2z m-317
2 c-1 -1 -1 -1 -1 0 0 1 1 2 2 1 0 0 0 -1 -1 -1z m-64 -2 c2 -1 5 -2 8 -2 4 0
5 0 2 -3 -2 -3 -6 -2 -11 1 -3 3 -6 7 -4 7 0 0 2 -1 5 -3z m345 -1 c14 -3 41
-8 49 -9 l8 0 0 -5 c0 -8 -1 -9 -5 -9 -12 0 -43 5 -59 9 l-4 1 0 8 c0 4 0 7 1
7 0 0 5 -1 10 -2z m-412 -11 l0 -11 -10 -4 c-7 -3 -10 -3 -10 -3 -1 1 -1 6 -1
11 l-1 9 10 5 c6 3 11 5 11 5 1 0 1 -5 1 -12z m135 7 c1 -2 1 -10 -1 -13 -3
-3 -11 0 -11 6 0 4 0 5 2 7 3 2 7 2 10 0z m-168 -4 c1 0 0 -1 -5 -3 l-5 -2 -8
3 c-6 2 -7 2 -5 3 2 1 22 1 23 -1z m127 -1 c2 -2 5 -3 7 -3 6 0 6 -1 1 -5 l-5
-4 -11 2 c-5 1 -10 2 -11 2 -1 1 5 7 9 9 4 1 5 1 10 -1z m-150 -3 c3 -1 5 -2
5 -3 -1 0 -16 -5 -17 -5 -2 0 -6 1 -11 2 l-9 2 9 3 c10 4 14 4 23 1z m-42 0
c1 -1 1 -1 0 -1 -1 1 -3 1 -3 1 -1 0 -1 0 0 1 0 1 2 1 3 -1z m71 -2 c1 0 1 -5
2 -9 l0 -9 -7 -2 -6 -3 -1 5 c-1 3 -1 8 -1 11 l0 5 5 2 c7 2 8 2 8 0z m-18 -6
c1 -1 1 -5 1 -10 l1 -9 -11 -4 c-6 -2 -11 -4 -11 -3 -1 0 -1 5 -1 11 l0 10 10
4 c12 4 11 3 11 1z m163 0 c-2 -3 -11 -11 -15 -12 -4 -1 -8 -1 -10 0 -1 1 1 3
9 10 6 4 7 4 12 4 5 0 5 0 4 -2z m294 -1 c3 0 10 -2 15 -3 6 0 10 -1 11 -1 3
-7 17 -20 25 -23 4 -2 4 -2 4 -6 0 -6 -2 -23 -2 -24 -1 0 -44 8 -50 10 -3 1
-7 3 -8 5 l-4 3 0 13 c0 14 1 28 2 28 0 0 3 -1 7 -2z m-488 -3 l5 -1 0 -11 c1
-7 1 -12 1 -12 0 0 -5 1 -10 3 l-9 2 0 11 0 11 4 0 c2 -1 6 -2 9 -3z m159 1
l9 -1 -3 -3 c-3 -4 -3 -7 2 -9 l5 -2 -4 0 c-3 1 -11 2 -18 3 -8 1 -15 1 -15 2
0 0 2 3 6 6 4 4 6 6 8 6 1 -1 5 -1 10 -2z m45 1 c1 0 0 -2 -3 -7 -2 -3 -5 -8
-7 -11 -2 -5 -2 -6 -2 -20 0 -8 0 -23 0 -33 l1 -18 -6 0 c-10 2 -11 2 -11 5
-1 3 -1 66 0 68 0 0 3 1 5 2 3 1 6 3 11 8 6 6 9 8 12 6z m17 -5 c5 -3 8 -6 8
-6 0 -3 -4 -5 -6 -4 -5 1 -14 11 -12 14 1 2 3 1 10 -4z m316 -1 l7 0 -1 -8 c0
-5 0 -9 -1 -9 -1 -1 -21 16 -21 18 0 1 2 1 5 1 2 -1 8 -1 11 -2z m-464 -25 l0
-25 -9 -4 c-4 -2 -8 -4 -8 -4 0 0 -1 11 -1 25 l0 26 8 3 c7 3 10 4 11 4 0 0
-1 -12 -1 -25z m138 20 c4 -6 8 -9 14 -9 3 0 4 0 7 4 3 3 3 3 5 1 3 -1 3 -1 1
-4 -3 -5 -4 -6 -12 -5 -19 2 -28 3 -28 4 0 1 8 13 9 13 0 0 2 -2 4 -4z m77
-16 l0 -18 -3 -4 -4 -5 0 12 c-1 7 -1 17 -1 22 l0 10 4 0 4 0 0 -17z m-13 -9
l1 -24 -11 -14 c-5 -7 -10 -13 -11 -13 0 0 1 9 1 20 1 10 1 22 1 26 l0 8 8 10
c5 5 9 10 9 10 0 1 0 1 1 1 0 0 1 -11 1 -24z m-14 16 c-6 -9 -5 -8 -20 -5 l-2
0 3 4 c3 3 4 3 9 3 3 0 8 1 10 2 2 1 5 2 5 2 0 0 -2 -3 -5 -6z m-210 -20 l0
-26 -6 -3 c-4 -3 -6 -4 -7 -3 -1 1 -1 7 -1 26 l0 26 6 2 c4 2 7 3 7 3 1 0 1
-11 1 -25z m103 21 c6 0 13 -1 14 -2 l3 0 0 -33 c0 -31 -1 -32 -3 -32 -2 0
-30 4 -31 5 0 0 -1 7 -1 16 -1 9 -1 24 -2 33 l0 16 4 0 c2 -1 9 -2 16 -3z
m-121 -35 l0 -11 -5 6 c-5 7 -8 9 -13 9 l-4 0 0 10 c0 5 0 10 1 10 0 0 5 2 11
4 l10 4 0 -11 c0 -5 0 -15 0 -21z m179 27 c5 -1 16 -2 23 -3 8 0 15 -1 15 -2
1 0 0 -49 -1 -58 l0 -4 -10 0 c-10 1 -40 4 -41 4 0 0 0 5 0 10 l-1 10 6 -5 c3
-3 7 -6 8 -6 3 0 12 7 19 14 9 10 10 19 2 25 -3 3 -10 3 -13 0 l-3 -2 -4 2
c-4 3 -9 4 -13 1 l-3 -1 0 6 c0 9 1 11 4 11 1 -1 7 -1 12 -2z m-215 -1 l9 -2
0 -8 c2 -14 2 -13 -6 -18 -7 -4 -9 -7 -9 -11 0 -2 -1 -3 -2 -4 -2 -1 -2 0 -2
22 0 13 0 23 1 23 0 0 4 -1 9 -2z m306 -2 c9 -2 31 -11 42 -16 13 -7 23 -15
25 -22 2 -4 3 -4 -7 -6 -18 -4 -43 -14 -52 -22 -3 -2 -3 -3 -2 -4 1 0 4 1 9 4
18 10 29 14 64 21 20 5 19 5 26 -5 5 -6 8 -14 8 -19 0 -2 -1 -4 -3 -5 -2 -1
-5 -3 -7 -4 l-3 -2 -5 2 c-5 2 -7 3 -17 3 l-13 0 -8 -5 c-5 -2 -12 -7 -16 -10
-7 -6 -15 -10 -27 -13 -7 -2 -10 -2 -27 -2 -17 0 -21 0 -27 2 -23 6 -36 15
-42 30 -1 3 -2 6 -1 6 0 0 6 0 14 -1 12 -1 15 -1 17 0 2 2 32 38 38 48 4 5 4
6 4 14 0 5 0 8 1 8 1 0 5 -1 9 -2z m264 -8 c0 -4 0 -8 0 -8 -1 0 -19 -9 -20
-9 -1 0 0 20 0 23 1 0 5 1 11 1 l10 0 -1 -7z m-102 4 c2 -1 7 -5 12 -9 10 -8
19 -14 28 -19 9 -5 17 -10 19 -13 1 -2 3 -3 5 -4 1 0 5 -2 7 -2 4 -2 5 -3 5
-5 0 -1 -1 -2 -3 -4 -3 -1 -6 -1 -18 -1 -15 1 -46 3 -54 5 -9 1 -26 -3 -39
-11 l-6 -3 -1 6 c-2 8 -5 14 -10 20 -3 3 -4 5 -4 6 1 0 4 1 8 2 17 6 28 13 35
24 6 10 9 12 16 8z m-334 -26 c0 -18 1 -23 2 -24 2 -2 17 -5 53 -9 13 -2 25
-3 25 -3 2 0 -1 -2 -5 -5 -9 -4 -17 -6 -27 -7 -17 -1 -32 5 -45 17 -12 13 -16
29 -10 45 2 6 5 10 6 10 0 -1 0 -11 1 -24z m80 13 c3 -3 5 -4 7 -1 1 0 3 2 4
3 8 3 13 -7 8 -14 -2 -4 -17 -17 -19 -17 0 0 -4 3 -7 7 l-7 7 0 7 c0 7 1 7 4
10 4 2 6 2 10 -2z m-191 -11 c2 -1 6 -6 9 -10 3 -4 9 -10 12 -14 10 -9 17 -10
36 -9 11 1 17 0 20 -4 1 -2 1 -3 0 -11 -4 -17 0 -24 17 -26 5 -1 9 -1 14 0 3
0 6 1 6 0 0 0 -2 -2 -4 -4 -2 -2 -4 -5 -4 -5 0 -1 3 -3 6 -4 5 -3 5 -3 3 -4
-1 -1 -9 -1 -18 -1 -15 0 -16 0 -21 2 -9 5 -11 10 -7 24 l1 8 -2 4 c-4 6 -9 7
-18 7 -27 -3 -31 -2 -43 3 -11 5 -21 15 -29 29 l-3 7 2 3 c3 3 14 8 18 8 2 0
4 -1 5 -3z m374 -54 c14 -7 20 -18 15 -30 -2 -5 -8 -10 -12 -12 l-3 -1 4 5 c2
4 3 6 3 11 0 7 -3 13 -8 17 -5 5 -12 8 -19 10 -4 1 -4 1 -2 2 5 2 17 0 22 -2z
m-7 -31 c7 -2 8 -3 5 -6 -2 -2 -2 -2 -9 0 -11 2 -23 1 -31 -5 -6 -4 -7 1 0 6
7 6 21 7 35 5z m-4 -11 c5 0 4 -2 -3 -4 -8 -3 -26 -2 -26 0 0 1 7 4 11 5 5 1
10 1 18 -1z m22 -37 c-2 -6 -9 -12 -16 -16 -6 -3 -19 -7 -39 -13 -4 -2 -8 -3
-8 -3 -1 0 -1 3 -1 6 0 5 0 6 -2 7 -2 1 0 2 21 6 26 5 37 10 43 17 4 4 5 3 2
-4z M341 707 c-2 -2 -6 -9 -9 -17 -2 -7 -3 -10 -1 -10 1 0 13 27 13 28 0
2 -2 1 -3 -1z M318 608 c-1 0 -2 -1 -3 -2 -1 -2 1 -3 7 -2 6 1 14 0 18 -3 4 -3 7 0
3 3 -4 4 -16 6 -25 4z M264 603 c-4 -2 -8 -6 -8 -7 0 -2 3 -2 6 0 3 2 10 4 14 3 3 0 4 1 2
4 -2 1 -11 1 -14 0z M398 594 c-1 0 -3 -2 -4 -4 -1 -2 -1 -2 0 -6 3 -4 2 -8 0 -11 -1 -1
-2 -3 -2 -4 0 -2 4 0 7 3 2 2 2 3 2 7 -2 11 -2 10 2 11 4 1 5 3 2 4 -4 1 -4 1
-7 0z M325 579 c-2 -2 -3 -6 -1 -9 3 -6 10 -4 10 3 0 7 -5 11 -9 6z M268 577 c-2 -4 -1 -8 3 -11 2 -2 2 -2 4 -1 3 1 3 2 3 5 0 8 -6 12
-10 7z M295 577 c-1 -1 -1 -4 -2 -6 0 -3 -1 -8 -3 -10 -2 -6 -3 -8 0 -11 1
-2 8 -5 11 -4 4 1 3 3 -2 5 -3 1 -5 2 -6 2 0 1 1 3 2 5 2 4 2 6 2 12 0 5 0 7
-1 8 0 0 -1 0 -1 -1z M319 537 c-6 -3 -7 -3 -13 -3 -4 0 -8 0 -10 0 -3 1 -3 1 -3 0 1 -2 9
-6 12 -6 8 0 21 7 20 11 0 2 -1 1 -6 -2z M235 558 c-4 -2 -5 -4 -2 -4 2 0 8 3 8 5 0 1 -2 1 -6 -1z M239 515 c0 -2 11 -4 12 -2 0 0 -1 1 -2 2 -3 1 -10 1 -10 0z M161 574 c-2 -2 -2 -18 -1 -18 1 0 2 3 3 10 0 6 -1 10 -2 8z M445 549 c-2 -3 -3 -5 -1 -5 2 0 6 4 6 6 0 2 -2 1 -5 -1z M452 530 c-3 -3 -3 -4 0 -4 2 0 6 4 5 6 -2 2 -3 1 -5 -2z M493 562 c-2 -1 -2 -4 -3 -14 -3 -23 -4 -35 -4 -43 0 -9 0 -9 2 -11
1 0 8 -2 15 -2 31 -4 56 -7 58 -7 1 1 2 2 2 3 1 2 8 60 8 65 0 4 2 3 -34 7
-45 3 -42 3 -44 2z m23 -5 c7 -1 22 -3 31 -3 10 -1 18 -2 19 -2 0 -1 0 -6 -1
-12 -2 -21 -5 -48 -6 -49 0 -1 -2 -1 -7 -1 -8 1 -31 4 -50 7 l-12 1 0 3 c0 2
1 10 1 18 1 7 2 18 3 25 0 6 1 11 2 12 0 2 2 2 20 1z M511 544 c-7 -5 -9 -13 -5 -22 3 -6 16 -20 20 -21 2 0 10 5 19 14 8
8 10 16 7 24 -3 6 -12 8 -18 3 l-4 -2 -4 3 c-4 4 -10 4 -15 1z m14 -6 c3 -4 5
-5 7 -2 2 2 7 4 10 4 7 0 9 -9 3 -17 -3 -4 -9 -10 -16 -15 l-3 -2 -3 4 c-14
13 -17 21 -11 28 3 4 8 4 13 0z M124 484 c0 -2 10 -8 11 -7 2 0 -1 4 -5 6 -4 2 -6 3 -6 1z M385 432 c-5 -1 -8 -4 -8 -10 0 -7 7 -10 14 -6 2 0 3 2 4 3 1 3 1 8
0 10 -2 2 -7 4 -10 3z m4 -5 c2 -1 3 -5 1 -7 -1 -1 -3 -1 -5 -1 -2 0 -3 1 -3
3 0 2 0 4 2 5 2 1 3 1 5 0z M282 438 c-5 -2 -7 -12 -4 -16 2 -3 3 -3 7 -3 6 1 9 5 9 11 -1 7 -6
10 -12 8z m6 -6 c1 -2 1 -4 1 -5 -1 -2 -2 -3 -4 -3 -4 0 -5 4 -3 8 2 3 5 3 6
0z M195 422 c-2 -2 -3 -3 -3 -4 1 -1 7 3 8 5 0 3 -2 2 -5 -1z M302 389 c-3 -3 0 -28 4 -37 7 -16 26 -27 45 -27 20 0 34 11 36 29 0
7 -1 26 -3 29 -1 2 -3 2 -16 2 -17 0 -39 2 -51 4 -9 1 -13 1 -15 0z m41 -8 c9
-1 21 -1 27 -1 9 0 10 0 11 -2 1 -3 1 -27 -1 -31 -5 -14 -23 -21 -40 -17 -7 2
-16 8 -22 13 -7 7 -11 16 -12 33 l0 10 10 -2 c6 -1 18 -2 27 -3z M303 307 c0 0 3 -1 6 -3 6 -3 22 -6 30 -6 3 0 7 1 6 2 0 1 -6 2 -13
2 -6 1 -15 3 -19 4 -9 2 -10 2 -10 1z M416 242 c0 0 2 -2 5 -3 3 -2 7 -5 10 -8 5 -5 9 -6 9 -4 0 1 -10 12
-14 13 -3 2 -10 4 -10 2z M390 223 c0 -1 7 -7 10 -8 4 -1 4 2 0 5 -5 3 -10 5 -10 3z M525 223 c-5 -3 -6 -8 -3 -13 4 -9 19 -11 23 -3 1 4 1 10 -1 13 -3 5
-13 7 -19 3z m13 -4 c3 0 4 -4 3 -8 -1 -4 -7 -5 -13 -2 -3 2 -3 3 -3 5 0 3 1
4 4 5 2 1 4 2 5 2 1 -1 3 -1 4 -2z M42 170 c0 -1 3 -5 7 -7 4 -2 3 3 -1 6 -3 2 -5 2 -6 1z M599 798 c0 -2 0 -3 1 -2 0 1 0 3 0 3 -1 1 -1 0 -1 -1z M247 761 c-1 -1 -1 -4 -2 -8 -1 -3 -2 -11 -4 -16 -6 -19 -8 -29 -8
-30 1 0 2 0 2 1 2 2 11 31 12 38 1 6 1 18 0 15z M16 730 c-2 -2 -1 -10 1 -12 2 -2 3 -2 6 0 5 4 2 13 -3 13 -2 0 -3
-1 -4 -1z m6 -6 c0 -2 0 -3 -1 -3 -2 0 -3 3 -2 5 1 2 2 0 3 -2z M55 710 c-3 -4 -4 -6 -1 -8 3 -3 7 -2 9 1 3 5 3 7 0 8 -3 3 -6 2 -8
-1z m6 -2 c0 -2 -2 -4 -3 -4 -2 0 -3 1 -1 3 1 1 4 1 4 1z M95 404 c-4 -5 0 -14 8 -14 4 0 7 3 7 8 0 5 -3 8 -9 9 -3 0 -4 0 -6
-3z m9 -3 c2 -1 3 -4 1 -6 -4 -3 -9 3 -7 6 1 2 3 2 6 0z M44 402 c-10 -5 -4 -21 7 -17 7 2 9 10 4 15 -3 3 -6 4 -11 2z m8 -5
c0 -1 1 -2 1 -3 0 -2 -3 -5 -5 -5 -2 0 -5 3 -5 5 0 3 6 5 9 3z M4 397 c-4 -4 -4 -8 0 -12 6 -6 18 3 14 10 -3 6 -10 6 -14 2z m10 -4
c0 -2 -3 -6 -5 -6 -3 0 -4 3 -3 6 1 1 2 2 4 2 2 0 3 -1 4 -2z M72 374 c-3 -1 -5 -7 -5 -10 2 -5 5 -8 10 -8 4 0 7 2 9 6 2 4 1 7 -2
11 -3 2 -7 3 -12 1z m9 -5 c3 -3 0 -9 -4 -9 -5 0 -7 7 -3 9 2 2 4 2 7 0z M18 360 c-5 -6 0 -15 8 -15 7 0 12 10 6 15 -3 3 -10 3 -14 0z m11 -4
c2 -1 2 -2 1 -3 -2 -5 -8 -5 -9 0 -1 4 5 7 8 3z M111 352 c-2 -1 -3 -3 -4 -6 0 -3 0 -4 2 -6 4 -3 11 -3 15 0 3 4 3 9
0 12 -3 4 -9 4 -13 0z m10 -4 c1 -2 1 -2 -1 -4 -1 -1 -2 -2 -3 -2 -5 0 -6 3
-3 7 2 3 5 3 7 -1z M60 331 c-4 -1 -8 -5 -8 -9 0 -4 2 -5 9 -5 4 0 5 0 7 3 5 6 0 13 -8
11z m5 -5 c3 -2 3 -2 -1 -4 -3 -2 -4 -2 -6 -1 -3 1 -2 4 1 6 3 1 3 1 6 -1z M489 294 c-1 -1 1 -2 7 -3 5 0 6 0 6 1 0 1 -1 2 -2 2 -2 1 -11 1 -11
0z M134 226 c0 -1 8 -5 9 -5 2 2 1 3 -2 4 -3 2 -7 3 -7 1z M125 213 c0 -1 5 -6 8 -7 4 -1 4 1 0 4 -4 3 -7 4 -8 3z M126 187 c-5 -2 -7 -3 -5 -4 2 -1 9 1 10 2 1 2 -1 3 -5 2z M595 173 c-3 -2 -4 -4 -2 -4 3 0 7 2 7 4 0 3 -2 2 -5 0z M597 152 c-1 -1 0 -3 2 -3 0 0 1 1 1 2 0 2 -2 3 -3 1z M508 138 c-1 -2 -1 -2 0 -3 3 0 10 1 11 3 0 2 -9 1 -11 0z M576 135 c-7 -1 -12 -4 -15 -7 -5 -6 -2 -15 7 -18 4 -1 10 -8 12 -13
5 -12 -1 -18 -16 -14 -6 2 -16 2 -20 1 -9 -4 -9 -13 -1 -20 4 -4 5 -4 8 0 3 3
5 3 22 2 11 -1 17 0 23 4 4 2 4 3 4 7 l0 4 -2 -3 c-5 -8 -14 -10 -27 -8 -11 2
-16 1 -20 -1 l-4 -3 -2 3 c-6 6 -3 12 8 12 3 0 7 -1 11 -1 11 -4 18 -2 22 4 2
5 1 11 -5 19 l-1 3 2 0 c7 -3 13 -5 15 -8 l3 -2 0 3 c0 3 -1 4 -3 6 -2 1 -6 3
-9 4 -10 2 -15 4 -17 5 -1 2 -1 2 5 5 6 3 8 3 15 4 8 0 9 1 9 2 0 1 -1 2 -2 3
-1 1 -1 1 0 4 1 2 1 3 -1 4 -2 1 -14 1 -21 -1z m15 -3 c0 -1 0 -2 1 -3 0 -1
-2 -2 -7 -3 -8 -1 -15 -4 -17 -6 -2 -3 -4 -2 -4 0 -2 5 5 10 19 12 8 1 8 1 8
0z M484 130 c-5 -2 -7 -5 -7 -9 0 -4 -1 -5 -5 -9 l-5 -5 0 -19 1 -19 3
-3 c5 -4 13 -6 23 -6 8 1 10 1 15 3 2 2 5 4 6 6 1 1 1 9 1 19 0 18 -1 22 -6
25 -3 2 -4 3 -4 6 0 5 -2 7 -5 10 -4 2 -11 3 -17 1z m13 -4 c2 -1 2 -1 1 -3
-3 -1 -12 -1 -14 0 -1 1 -1 1 2 2 3 2 7 2 11 1z m4 -8 c0 -4 -3 -5 -9 -5 -7 0
-10 1 -10 4 0 2 0 2 2 1 4 -1 11 0 14 1 2 1 3 1 3 -1z m-10 -9 c4 0 8 0 10 1
4 2 4 2 6 0 4 -4 4 -6 0 -8 -4 -2 -6 -2 -14 -2 -9 0 -19 2 -21 4 0 1 1 3 3 5
3 3 3 3 7 1 2 0 6 -1 9 -1z m-11 -13 c6 -1 21 -1 26 1 2 0 4 1 5 1 0 0 0 -2 0
-5 l0 -5 -5 -2 c-7 -2 -23 -2 -29 0 -4 2 -5 2 -5 7 0 6 0 6 2 6 1 -1 3 -2 6
-3z m-2 -15 c7 -2 23 -2 29 0 l4 2 0 -7 0 -6 -5 -3 c-7 -3 -16 -4 -24 -2 -8 3
-10 5 -10 12 0 3 0 6 0 6 0 0 3 -1 6 -2z M4 117 c-3 -1 -4 -2 -4 -5 l0 -3 4 2 c6 4 17 3 24 0 8 -4 12 -8 16
-17 l4 -7 -2 -3 -2 -2 -10 2 c-13 3 -28 8 -31 11 l-3 2 0 -3 c0 -4 2 -5 11 -9
l8 -2 -7 -1 c-9 -1 -12 -2 -12 -5 0 -2 0 -2 6 -1 3 1 12 2 21 2 l15 1 2 -3 c0
-2 1 -3 1 -4 -4 -3 -21 -14 -25 -16 -5 -1 -14 -1 -18 0 -2 1 -2 1 -2 -2 0 -2
1 -3 4 -3 5 -2 14 0 20 2 3 2 10 6 14 10 5 3 11 7 12 7 3 1 6 -1 20 -7 17 -9
26 -12 32 -12 8 0 10 4 5 7 -18 11 -19 11 -16 12 10 1 27 4 28 5 2 2 1 4 -2 5
-6 3 -29 5 -46 5 -9 0 -16 0 -17 1 0 0 -3 5 -5 10 -6 10 -11 15 -19 19 -6 3
-20 4 -26 2z m50 -36 c3 -4 -1 -8 -5 -6 -3 2 -2 7 2 7 1 0 2 -1 3 -1z m46 -2
c6 -1 11 -1 11 -2 0 0 -6 -1 -12 -1 -12 -2 -20 -2 -32 -2 l-7 0 0 3 c0 3 0 3
6 3 8 1 20 0 34 -1z m-10 -15 c14 -8 15 -9 7 -7 -7 1 -12 3 -24 9 l-8 4 7 0
c6 0 7 0 18 -6z M534 115 c0 -1 3 -3 6 -4 4 0 5 1 3 3 -2 2 -9 3 -9 1z M89 110 c0 -2 3 -4 7 -6 2 -1 3 -1 4 1 1 1 0 1 -4 3 -6 3 -7 4 -7 2z M13 108 c-10 -5 -1 -15 13 -15 8 0 11 2 9 7 0 2 -2 3 -7 6 -7 3 -10
4 -15 2z m11 -5 c5 -2 8 -4 7 -5 -1 -1 -14 1 -16 3 -2 1 -2 2 -1 2 2 1 6 1 10
0z M225 102 c-37 -17 -62 -33 -60 -37 1 -2 15 -8 40 -17 6 -3 17 -7 23
-10 l12 -4 7 5 c4 3 11 9 16 13 5 4 15 12 23 18 10 8 15 13 15 14 0 1 -1 3 -4
4 -7 3 -52 18 -57 19 -5 0 -7 0 -15 -5z m24 -3 c15 -4 44 -14 45 -15 1 0 -48
-41 -54 -44 0 -1 -11 3 -24 8 -13 5 -28 11 -34 14 -6 2 -11 4 -11 4 1 3 22 16
42 25 11 6 23 12 24 12 0 0 5 -2 12 -4z M221 85 c-2 -1 -3 -3 -4 -5 0 -4 2 -16 4 -17 2 -2 17 -1 24 2 10 4
13 11 7 15 -3 2 -7 3 -12 1 -3 -1 -4 -1 -4 1 -4 6 -10 8 -15 3z m10 -6 c1 -2
2 -3 2 -4 1 0 3 1 7 2 7 1 10 0 10 -3 -1 -4 -14 -9 -23 -8 -3 0 -4 1 -4 6 -2
8 0 11 4 11 2 0 3 -1 4 -4z M342 86 c0 -2 8 -3 10 -2 4 1 1 3 -4 3 -5 0 -6 0 -6 -1z M8 73 c-10 -5 -3 -15 8 -12 5 1 12 8 12 10 0 2 -1 3 -8 3 -6 0 -10
-1 -12 -1z m13 -4 c1 0 0 -1 -3 -2 -7 -3 -12 -2 -9 1 3 2 10 3 12 1z M142 71 c-4 -2 -2 -3 3 -3 6 1 8 1 7 3 -1 1 -7 1 -10 0z M333 71 c-6 -2 -10 -4 -15 -8 l-5 -4 -6 3 c-4 2 -6 2 -8 1 -4 -1 -7
-5 -5 -8 1 -3 7 -6 13 -8 7 -2 10 -1 23 7 11 7 14 7 14 3 1 -4 3 -5 7 -2 7 5
8 11 2 15 -4 2 -14 3 -20 1z m18 -5 c1 -2 1 -4 -1 -6 -1 -1 -1 -2 -3 2 -1 3
-1 3 -5 3 -4 -1 -9 -3 -20 -10 -8 -5 -12 -5 -19 -1 -5 2 -6 4 -3 6 2 0 3 0 5
-2 1 -1 4 -3 5 -3 3 -2 3 -2 8 2 5 5 12 9 18 10 4 1 13 1 15 -1z M462 48 c-2 -2 0 -3 5 -4 5 0 6 1 4 3 -2 1 -9 2 -9 1z M510 41 c-23 -8 -47 -17 -63 -23 -9 -4 -10 -5 -10 -12 0 -6 0 -6 3
-6 2 0 2 0 2 3 l0 3 6 -3 c4 -2 7 -3 10 -3 l4 0 -7 4 c-4 3 -9 5 -9 5 -1 1 -2
1 -2 2 0 0 7 3 15 6 25 10 21 10 35 4 7 -3 13 -6 13 -6 1 0 -7 -4 -17 -8 l-18
-6 5 -1 c5 0 8 1 23 6 10 4 19 7 19 7 1 0 3 -1 4 -3 l3 -2 -9 -4 -9 -3 5 -1
c3 0 7 1 10 2 4 1 5 1 8 0 2 -1 6 -2 8 -2 l5 0 -5 3 -5 3 6 1 c6 1 6 1 14 -3
6 -3 9 -4 13 -4 l5 0 -12 6 c-12 5 -12 6 -10 7 1 1 9 4 18 6 l15 5 7 -3 c4 -2
8 -3 9 -4 1 0 1 1 1 2 0 2 -2 3 -14 9 -28 14 -46 21 -49 21 -2 0 -14 -4 -27
-8z m42 -3 l11 -4 -11 -4 c-9 -3 -11 -4 -13 -3 -2 1 -5 1 -9 0 -7 -1 -10 -1
-20 5 l-5 2 14 5 c10 3 16 5 19 5 2 -1 8 -3 14 -6z m-47 -9 c4 -2 9 -4 11 -5
5 -2 5 -4 1 -6 -3 -1 -4 -1 -13 3 -6 3 -12 5 -13 6 l-3 1 4 2 c2 1 5 2 5 2 1
0 4 -2 8 -3z m69 0 l3 -2 -13 -4 c-14 -5 -14 -5 -15 -3 -1 1 -1 3 0 3 1 1 19
8 21 8 0 0 2 -1 4 -2z m-30 -8 c3 -3 3 -5 -1 -8 -5 -4 -16 -2 -19 3 -1 1 -1 3
0 3 2 4 16 5 20 2z M45 47 c-6 -2 -11 -9 -11 -16 0 -3 0 -4 -10 -7 -5 -2 -13 -5 -17 -6
l-7 -3 0 -8 c0 -5 0 -6 1 -3 0 3 1 4 1 4 1 -1 4 -2 7 -3 4 -1 6 -2 6 -3 0 -1
2 -2 12 -2 l13 0 -8 3 c-5 1 -8 3 -7 3 0 0 4 2 9 4 7 3 8 4 11 2 1 -1 6 -2 9
-2 l7 0 -7 -3 c-4 -2 -9 -4 -10 -5 l-2 -2 4 0 c2 0 8 2 14 4 12 5 15 5 26 0 6
-2 7 -3 5 -3 -1 -1 1 -1 5 -1 5 0 9 1 14 3 3 1 7 2 7 2 1 0 1 -1 1 -2 0 -2 1
-3 2 -3 1 0 2 1 2 4 0 3 1 3 8 6 5 2 9 3 10 3 1 0 1 -2 1 -6 0 -7 0 -7 3 -7 2
0 2 0 2 8 0 4 0 8 -1 9 -1 1 -6 3 -15 6 l-14 5 1 4 c1 5 -1 10 -4 12 -7 5 -16
3 -25 -6 -6 -6 -6 -6 -9 -5 -2 1 -4 1 -5 1 -1 -1 -2 0 -4 2 -3 5 -8 9 -13 11
-5 1 -7 1 -12 0z m13 -6 c4 -2 10 -8 10 -11 0 0 0 -2 -1 -3 -1 -2 -1 -2 -4 -1
-3 2 -11 3 -10 1 0 -1 2 -2 5 -4 6 -2 7 -4 7 -6 0 -3 -9 -4 -16 -1 -7 2 -9 5
-10 13 0 7 1 9 5 12 4 3 9 3 14 0z m53 -1 c2 -3 2 -9 -1 -15 -3 -5 -4 -6 -7
-8 -8 -4 -15 -2 -14 2 0 2 2 3 5 5 9 4 9 8 0 4 -6 -2 -6 -2 -7 0 -2 3 8 12 16
14 3 1 5 0 8 -2z m-29 -14 c2 -3 2 -10 0 -12 -2 -3 -9 -2 -11 0 -2 2 -2 3 -1
8 2 7 8 9 12 4z m-46 -5 c1 -2 0 -2 -4 -2 -2 1 -2 1 -1 3 3 1 4 1 5 -1z m89
-1 c5 -1 10 -3 10 -3 1 0 -3 -2 -8 -3 l-9 -3 -4 2 -4 2 3 4 c1 2 3 4 3 4 0 0
4 -1 9 -3z m-94 -4 c2 -1 2 -1 -6 -5 l-9 -3 -6 1 c-3 1 -5 2 -5 3 0 0 4 1 8 3
7 3 12 3 18 1z m80 -6 c2 -1 2 -1 -3 -3 -7 -2 -9 -2 -17 0 -7 3 -7 4 3 4 3 0
6 0 8 1 1 1 2 1 9 -2z M139 46 c1 -2 8 -4 9 -2 2 2 0 3 -5 3 -3 0 -4 0 -4 -1z M587 42 c-3 -1 -1 -3 4 -4 4 0 7 1 5 3 -1 1 -7 2 -9 1z M180 33 c-12 -4 -16 -15 -7 -21 4 -3 13 -4 19 -4 6 1 12 7 12 13 0 9
-12 16 -24 12z m18 -7 c2 -4 2 -7 -1 -10 -3 -3 -14 -4 -19 -1 -5 2 -6 4 -4 8
1 3 8 6 16 6 4 -1 6 -1 8 -3z M181 25 c-5 -3 2 -9 8 -7 4 1 6 3 4 6 -1 2 -9 3 -12 1z M301 32 c-2 -1 -10 -3 -18 -5 -8 -3 -22 -7 -31 -9 -9 -3 -17 -6 -19
-6 l-2 -2 5 0 c4 0 10 1 14 2 5 2 12 4 16 4 7 2 7 2 10 0 2 -1 4 -3 6 -4 1 -2
3 -2 5 -2 l3 1 -6 4 c-3 3 -6 5 -5 5 1 1 24 8 26 8 1 0 8 -4 16 -9 12 -8 15
-9 18 -9 3 0 3 1 -14 11 -10 6 -18 11 -19 12 -1 0 -3 -1 -5 -1z M0 30 c0 0 0 -1 0 -2 1 -1 6 2 6 3 0 2 -5 1 -6 -1z M596 2 l-4 -2 4 0 c3 0 4 0 4 2 0 1 0 2 0 2 0 0 -2 -1 -4 -2z" fill="black"/>
<path d="M1 799 c5 -4 30 -14 35 -14 0 0 0 3 0 7 l0 8 -18 0 c-13 0 -18 0 -17
-1z" fill="white"/>
<path d="M41 795 c1 -11 1 -11 7 -13 9 -2 33 -3 40 -3 l7 1 0 10 0 10 -27 0
-28 0 1 -5z" fill="white"/>
<path d="M99 791 l0 -10 3 0 c3 0 13 2 22 5 l7 2 0 6 0 6 -16 0 -16 0 0 -9z" fill="white"/>
<path d="M136 795 c0 -3 0 -5 0 -5 2 0 20 8 20 9 1 1 -2 1 -9 1 l-11 0 0 -5z" fill="white"/>
<path d="M163 797 c-2 -1 -4 -3 -4 -3 -1 -1 33 -20 34 -20 1 0 1 3 -1 12 -2 5
-3 10 -3 11 l-1 3 -10 0 c-10 0 -11 0 -15 -3z" fill="white"/>
<path d="M195 791 c7 -24 6 -27 -9 -19 -4 1 -7 3 -8 3 0 0 0 -7 -1 -15 -3 -34
-9 -71 -12 -71 -1 0 -1 4 0 13 4 17 8 58 8 73 l0 4 -10 5 c-6 4 -11 6 -11 7 0
0 -2 -1 -5 -2 -4 -2 -4 -2 -4 -5 0 -2 -1 -7 -1 -11 -1 -3 -3 -11 -3 -16 -2 -7
-3 -11 -4 -12 -1 -1 -1 -5 -1 -44 0 -46 1 -69 4 -73 1 -3 7 -6 10 -6 2 1 12
23 20 42 10 26 18 53 26 89 2 5 3 3 2 -2 -2 -19 -8 -44 -16 -67 -7 -21 -20
-50 -26 -61 -1 -1 -2 -3 -1 -3 0 -1 3 -1 6 -2 l6 -1 3 3 c14 17 34 56 44 87 8
25 13 54 16 80 0 3 0 8 1 10 l0 3 -18 0 -18 0 2 -9z" fill="white"/>
<path d="M233 795 c0 -5 -1 -12 -5 -37 -2 -18 -8 -42 -13 -57 -11 -32 -28 -65
-41 -81 l-3 -4 9 0 c12 1 17 3 30 16 6 6 10 10 10 12 0 2 8 16 13 22 3 2 7 8
9 12 3 5 8 11 14 17 5 5 9 10 9 10 0 1 4 12 8 26 8 24 15 49 17 64 l0 5 -28 0
-29 0 0 -5z m14 -49 c-1 -7 -10 -36 -12 -38 0 -1 -1 -1 -2 -1 0 1 2 11 8 30 2
5 3 13 4 16 1 4 1 7 2 8 1 3 1 -9 0 -15z" fill="white"/>
<path d="M294 789 c-4 -21 -9 -39 -18 -65 -2 -6 -4 -12 -4 -13 -1 -3 -1 -3 1
-2 1 0 4 1 5 2 4 1 21 7 26 7 2 1 4 1 4 1 0 1 -1 3 -2 6 -3 6 -2 14 2 23 3 6
3 6 4 29 l0 23 -8 0 -9 0 -1 -11z" fill="white"/>
<path d="M316 781 c0 -17 0 -20 1 -20 1 0 2 0 2 1 1 2 13 8 18 9 l4 1 0 14 0
14 -12 0 -13 0 0 -19z" fill="white"/>
<path d="M346 787 l0 -13 9 0 c16 0 29 -5 38 -13 5 -5 10 -16 13 -25 3 -12 0
-27 -7 -34 l-2 -3 4 -3 c2 -2 5 -5 7 -6 l3 -4 0 7 c1 4 1 29 1 57 l0 50 -33 0
-33 0 0 -13z" fill="white"/>
<path d="M417 741 l0 -60 3 -5 c1 -2 4 -7 5 -9 l2 -4 0 8 c1 5 1 36 1 69 l0
60 -6 0 -5 0 0 -59z" fill="white"/>
<path d="M433 766 l0 -35 5 0 c3 0 8 0 11 1 l5 0 0 32 c0 17 0 33 0 34 1 2 1
2 -10 2 l-11 0 0 -34z" fill="white"/>
<path d="M488 796 l0 -4 11 0 c6 0 11 0 11 0 0 1 0 3 0 4 l0 4 -11 0 -11 0 0
-4z" fill="white"/>
<path d="M516 775 c0 -13 0 -29 1 -34 l0 -9 8 0 9 0 0 20 c1 11 1 27 1 34 l0
14 -10 0 -10 0 1 -25z" fill="white"/>
<path d="M571 792 c-1 -5 -1 -20 -1 -34 l0 -26 11 0 10 0 0 4 c0 2 0 7 -1 11
0 3 -2 14 -3 23 -1 9 -3 20 -3 23 l-1 7 -6 0 -6 0 0 -8z" fill="white"/>
<path d="M589 797 c0 -2 1 -9 1 -15 1 -7 3 -18 4 -25 0 -7 1 -15 2 -18 0 -5 1
-7 2 -7 2 0 2 2 2 30 0 17 0 32 -1 34 l0 4 -6 0 -5 0 1 -3z" fill="white"/>
<path d="M459 795 c-1 0 -1 -3 -1 -6 l0 -5 13 0 13 0 0 6 0 6 -13 0 c-6 0 -12
0 -12 -1z" fill="white"/>
<path d="M560 795 c-2 0 -6 0 -11 -1 -9 0 -9 0 -9 -2 0 -2 1 -2 13 -2 l13 0 0
3 c0 3 -2 3 -6 2z" fill="white"/>
<path d="M0 782 c0 -13 -1 -13 10 -3 l7 6 -8 4 c-5 2 -8 4 -9 4 0 0 0 -5 0
-11z" fill="white"/>
<path d="M492 786 l-3 0 0 -13 0 -13 9 0 c14 0 13 -1 13 14 l0 13 -8 0 c-4 0
-9 -1 -11 -1z" fill="white"/>
<path d="M125 780 c-7 -1 -14 -3 -15 -4 l-3 -1 12 -12 c7 -7 13 -13 13 -12 1
0 6 29 6 32 0 1 1 1 -13 -3z" fill="white"/>
<path d="M540 769 l0 -14 5 0 c2 1 8 1 12 2 l8 0 0 14 0 13 -12 0 -13 0 0 -15z" fill="white"/>
<path d="M19 780 c-2 -2 -7 -6 -11 -9 l-8 -6 0 -65 0 -65 5 2 c9 2 20 0 28 -6
2 -1 5 -5 8 -8 4 -6 4 -6 4 -3 0 1 -1 5 -1 8 l-1 6 -6 1 c-19 4 -31 20 -29 41
1 9 2 10 5 10 4 0 16 -6 21 -11 5 -5 9 -13 11 -20 l1 -5 2 4 c3 7 6 11 13 15
7 5 15 8 19 8 l4 0 -1 -9 c0 -8 0 -10 -3 -16 -5 -9 -10 -14 -22 -20 l-8 -3 0
-8 0 -7 3 4 c6 9 18 15 27 13 2 -1 2 -1 2 -5 -1 -6 -5 -12 -10 -16 -5 -5 -9
-6 -17 -6 l-6 1 0 -4 0 -3 15 0 c14 0 16 -1 18 -2 2 -2 2 -3 2 -9 -1 -4 -2 -7
-3 -9 -1 -2 -2 -4 -3 -6 0 -2 0 -4 -1 -6 l0 -3 8 0 c5 1 9 1 9 2 1 0 1 47 1
105 l0 104 -6 0 -6 0 -6 -8 c-3 -4 -9 -12 -14 -18 -8 -9 -10 -11 -12 -11 -2 0
-3 2 -6 10 -2 5 -4 14 -5 20 -1 6 -3 11 -3 12 -1 1 -12 4 -14 4 0 0 -2 -1 -4
-3z m5 -51 c2 -3 2 -9 -1 -11 -3 -2 -4 -2 -6 0 -2 2 -3 10 -1 12 2 2 5 1 8 -1z
m39 -18 c3 -1 3 -3 0 -8 -2 -3 -6 -4 -9 -1 -3 2 -2 4 1 8 2 3 5 4 8 1z" fill="white"/>
<path d="M459 759 c0 -12 0 -22 -1 -24 l0 -3 13 0 14 0 -1 22 c0 12 0 23 -1
24 0 1 -3 1 -12 1 l-12 0 0 -20z" fill="white"/>
<path d="M43 777 c0 -6 8 -33 9 -33 2 0 23 27 23 29 0 1 -2 1 -5 1 -4 0 -16 2
-24 4 -2 0 -3 0 -3 -1z" fill="white"/>
<path d="M99 698 c0 -42 0 -90 1 -105 l0 -29 8 -1 c12 -3 11 -3 13 5 1 3 3 13
5 21 2 7 3 14 3 15 0 0 -1 3 -2 5 -1 5 -1 19 1 20 3 1 4 2 3 8 -1 3 -1 29 -2
57 l0 51 -12 12 c-7 7 -13 14 -14 15 -1 2 -3 3 -3 3 -1 0 -1 -30 -1 -77z" fill="white"/>
<path d="M343 767 c-5 -2 -11 -8 -14 -14 -3 -6 -3 -19 0 -24 3 -6 5 -8 10 -8
5 -1 5 -1 4 1 0 1 0 6 -1 9 0 9 2 16 8 22 5 6 10 8 23 9 l10 1 -9 2 c-11 4
-25 5 -31 2z" fill="white"/>
<path d="M321 756 c-10 -10 -14 -22 -9 -31 1 -3 2 -4 8 -4 4 0 7 0 7 0 0 1 -1
3 -3 6 -4 11 -4 22 2 31 4 6 2 5 -5 -2z" fill="white"/>
<path d="M365 757 c-10 -3 -18 -13 -18 -24 0 -6 2 -11 5 -13 2 -1 5 -3 9 -4
12 -3 11 -3 15 2 4 6 6 12 6 19 0 8 -2 14 -6 18 -3 3 -4 3 -11 2z" fill="white"/>
<path d="M384 753 c2 -4 3 -6 3 -15 0 -11 -2 -15 -8 -23 -4 -5 -2 -6 3 -3 7 2
13 7 15 12 3 6 3 12 0 20 -2 7 -4 9 -10 12 -5 2 -5 1 -3 -3z" fill="white"/>
<path d="M496 755 l-7 0 0 -3 c0 -2 1 -3 2 -3 0 0 5 0 11 0 l9 0 0 4 c0 3 0 3
-4 3 -2 0 -7 -1 -11 -1z" fill="white"/>
<path d="M554 751 c-4 0 -8 0 -11 -1 l-4 0 0 -9 0 -9 13 0 13 0 0 10 c0 10 0
10 -2 10 -1 0 -5 -1 -9 -1z" fill="white"/>
<path d="M490 743 c-1 0 -1 -3 0 -6 l0 -5 11 0 11 0 0 5 c-1 2 -1 5 -1 6 0 1
-2 1 -10 1 -6 0 -11 0 -11 -1z" fill="white"/>
<path d="M19 726 c-1 -2 0 -5 2 -5 1 0 1 1 1 3 -1 2 -2 4 -3 2z" fill="white"/>
<path d="M433 726 c0 -1 0 -4 0 -6 l1 -4 83 0 83 0 0 5 0 6 -83 0 c-70 0 -83
0 -84 -1z" fill="white"/>
<path d="M399 718 c-2 -3 -4 -5 -8 -8 -3 -1 -6 -3 -6 -3 0 -1 6 -4 7 -4 0 0 2
1 4 3 3 2 4 4 5 8 2 8 1 9 -2 4z" fill="white"/>
<path d="M317 716 c-11 -1 -29 -6 -40 -12 -6 -3 -11 -6 -16 -11 -7 -6 -14 -15
-14 -16 0 -1 2 -1 5 0 4 0 4 0 3 -1 -2 -1 -5 -4 -9 -6 -7 -4 -14 -13 -19 -22
-10 -20 -8 -48 5 -59 4 -3 12 -7 13 -6 0 0 -1 5 -2 10 l-1 10 -4 0 c-2 0 -3 0
-4 1 0 0 3 3 7 6 10 7 20 19 26 33 1 3 3 5 4 5 1 0 1 0 -1 -6 -3 -10 -8 -18
-16 -26 -3 -4 -6 -7 -6 -7 2 0 12 4 15 6 12 7 23 26 27 45 1 5 4 3 7 -4 9 -18
23 -31 43 -36 9 -2 10 -1 4 7 -6 7 -9 14 -9 21 0 9 3 9 4 1 2 -18 19 -33 37
-35 5 0 7 0 11 2 6 2 7 2 5 -1 -5 -5 -15 -6 -23 -4 -2 1 -4 1 -5 1 0 -1 0 -2
1 -4 2 -8 18 -22 20 -18 0 1 2 4 3 7 4 8 9 11 15 11 10 0 15 -5 15 -15 0 -3 0
-6 1 -6 0 0 4 13 6 19 0 4 1 14 2 23 0 14 0 16 -2 23 -1 4 -3 9 -4 11 l-2 4 0
-10 c0 -15 -4 -29 -9 -35 -4 -3 -4 -1 -1 5 4 10 5 17 5 31 0 12 -1 13 -4 19
-2 5 -5 8 -9 12 -3 3 -6 5 -6 5 0 -1 1 -3 2 -5 4 -10 2 -27 -6 -39 -3 -5 -10
-12 -11 -11 0 1 2 4 4 7 13 21 14 37 1 53 -3 3 -15 11 -16 10 0 -1 1 -3 2 -5
2 -5 2 -18 -1 -25 -2 -7 -7 -15 -8 -15 -2 0 -1 2 2 10 2 5 2 10 3 17 0 8 0 9
-2 14 -2 3 -4 6 -5 6 -2 2 -19 5 -24 5 -6 0 -20 -13 -26 -24 -6 -9 -7 -6 -2 5
2 4 5 8 10 13 4 3 7 6 7 6 0 0 -4 0 -8 0z m27 -8 c0 -1 -12 -28 -13 -28 -2 0
-1 3 1 10 3 8 7 15 9 17 1 2 3 3 3 1z" fill="white"/>
<path d="M433 670 c-1 -22 -1 -46 -1 -53 l0 -14 5 0 c6 0 15 1 15 2 1 0 0 2
-1 5 0 2 -1 6 -1 10 0 9 1 10 12 10 l9 0 0 3 c0 2 0 2 -4 2 -2 -1 -6 -1 -10
-2 -6 0 -7 0 -9 2 -4 3 -4 7 1 12 3 3 4 4 3 5 -1 0 -2 1 -3 2 -3 3 -2 7 1 9 2
1 4 3 6 5 l4 3 -3 2 c-5 2 -4 5 4 15 4 4 8 9 10 11 4 6 6 8 9 8 4 -2 7 -4 11
-10 2 -3 5 -7 7 -9 8 -8 9 -10 9 -13 0 -2 -1 -3 -2 -4 -1 0 -2 -1 -2 -1 0 -1
4 -6 5 -6 1 0 1 10 1 23 l0 23 -38 0 -38 0 0 -40z" fill="white"/>
<path d="M513 677 c1 -41 1 -38 1 -54 l0 -13 4 0 c2 0 5 1 5 1 0 1 2 9 3 19 1
10 3 24 4 33 1 8 2 18 3 22 2 11 1 10 15 10 8 0 9 0 10 2 1 3 5 4 28 10 l9 3
-41 0 -41 0 0 -33z" fill="white"/>
<path d="M57 707 c-2 -2 -1 -3 1 -3 1 0 3 2 3 4 0 0 -3 0 -4 -1z" fill="white"/>
<path d="M591 704 c-6 -2 -6 -2 -6 -5 0 -2 0 -3 0 -3 1 0 2 0 4 1 1 0 4 1 7 2
4 1 4 1 4 4 0 3 0 4 -9 1z" fill="white"/>
<path d="M475 696 c-2 -2 -6 -8 -10 -12 -7 -7 -7 -7 -5 -7 2 0 5 1 7 2 3 1 6
1 6 -1 0 -1 -12 -12 -18 -18 l-3 -3 4 0 c2 1 6 1 9 2 2 1 4 1 4 1 2 -2 0 -4
-5 -8 -6 -3 -14 -11 -14 -12 0 -2 5 -3 9 -2 2 0 5 1 7 2 3 2 3 2 6 1 4 -3 7
-2 10 0 3 2 4 2 5 1 5 -3 8 -4 14 -4 4 0 7 0 8 1 2 2 -2 6 -10 11 -11 7 -13
11 -3 8 3 -1 7 -2 9 -2 l4 1 -10 8 c-5 4 -10 9 -10 10 -1 2 1 2 4 1 2 -1 9 -1
9 0 0 0 -3 3 -6 6 -3 4 -6 8 -8 10 -6 11 -8 11 -13 4z" fill="white"/>
<path d="M569 698 l-7 -3 0 -5 c0 -2 1 -10 2 -16 1 -13 3 -27 6 -55 2 -11 3
-20 3 -21 1 0 5 0 11 1 9 0 10 1 10 2 -2 4 -11 67 -13 88 -2 13 -1 12 -12 9z" fill="white"/>
<path d="M592 693 c-3 -1 -6 -2 -6 -3 0 0 0 -3 1 -7 l0 -6 3 1 c2 0 5 1 7 1
l3 1 0 8 c0 4 0 7 -1 7 0 0 -3 -1 -7 -2z" fill="white"/>
<path d="M539 690 c-1 -1 -1 -4 -1 -6 l-1 -5 7 -1 c12 -1 11 -1 13 5 0 3 0 6
0 6 -1 1 -18 2 -18 1z" fill="white"/>
<path d="M13 673 c0 -4 1 -10 1 -13 2 -6 8 -13 12 -16 4 -2 16 -6 17 -5 0 1
-4 19 -6 23 -3 6 -9 12 -15 16 -8 5 -9 4 -9 -5z" fill="white"/>
<path d="M594 673 c-3 0 -5 -1 -6 -1 0 -1 1 -5 5 -33 3 -24 3 -24 5 -24 2 0 2
1 2 30 0 17 0 30 -1 30 0 0 -3 -1 -5 -2z" fill="white"/>
<path d="M536 667 c-1 -5 -1 -9 0 -9 0 0 4 -1 9 -1 l8 -1 0 3 c2 10 2 13 0 13
0 1 -5 1 -9 2 l-8 0 0 -7z" fill="white"/>
<path d="M71 670 c-9 -5 -15 -11 -18 -17 -3 -6 -6 -16 -5 -17 1 0 3 3 5 6 6 8
12 14 12 12 1 0 -2 -4 -5 -9 -3 -5 -6 -9 -6 -9 1 0 9 4 14 8 6 5 10 13 11 22
0 4 0 7 0 7 0 0 -4 -2 -8 -3z" fill="white"/>
<path d="M559 666 c0 -5 -2 -21 -3 -30 -3 -30 -4 -34 -3 -35 0 0 3 1 7 2 6 2
7 2 7 4 0 3 -6 52 -7 57 0 3 -1 4 -1 2z" fill="white"/>
<path d="M534 652 c-1 -3 -5 -35 -6 -42 l0 -8 7 -1 c8 -1 12 -1 12 -1 1 4 6
51 6 51 0 0 -5 0 -10 1 -6 0 -9 0 -9 0z" fill="white"/>
<path d="M293 650 c-1 0 -1 -2 -2 -4 -1 -3 -3 -8 -5 -12 -8 -15 -20 -25 -35
-29 -2 -1 -4 -1 -4 -2 0 -2 5 -32 7 -39 7 -30 23 -49 46 -56 9 -3 19 -3 28 0
14 5 27 13 35 24 6 7 14 20 16 25 1 3 1 4 7 4 7 0 15 3 20 9 8 8 11 25 6 31
-5 5 -15 3 -19 -4 -4 -9 -11 -19 -12 -19 -2 1 -2 2 -1 5 1 1 0 2 -2 3 -6 3
-13 11 -16 17 -2 4 -3 7 -3 8 0 3 -1 3 -10 3 -10 1 -18 3 -28 8 -8 5 -19 15
-24 23 -2 3 -4 6 -4 5z m44 -42 c5 -2 8 -5 8 -7 0 -1 -2 -1 -5 0 -4 3 -12 4
-18 3 -6 -1 -8 0 -7 2 1 1 2 2 3 2 5 1 16 1 19 0z m-59 -5 c2 -3 1 -4 -2 -4
-4 1 -11 -1 -14 -3 -3 -2 -6 -2 -6 0 0 1 4 5 8 7 3 1 12 1 14 0z m127 -9 c3
-1 2 -3 -2 -4 -4 -1 -4 0 -2 -11 0 -4 0 -5 -2 -7 -3 -3 -7 -5 -7 -3 0 1 1 3 2
4 2 3 3 7 0 11 -1 4 -1 4 0 6 2 3 5 5 7 5 1 0 2 0 4 -1z m-73 -15 c3 -4 2 -10
0 -12 -5 -2 -9 2 -9 8 0 5 6 8 9 4z m-56 -2 c1 -1 2 -3 2 -7 0 -3 0 -4 -3 -5
-2 -1 -2 -1 -4 1 -4 3 -5 7 -3 11 2 3 5 3 8 0z m21 -7 c0 -6 0 -8 -2 -12 -1
-2 -2 -4 -2 -5 1 0 3 -1 6 -2 5 -2 6 -4 2 -5 -3 -1 -10 2 -11 4 -3 3 -2 5 0
11 2 2 3 7 3 10 1 6 2 7 3 7 1 -1 1 -3 1 -8z m24 -36 c-4 -3 -11 -6 -16 -6 -3
0 -11 4 -12 6 0 1 0 1 3 0 2 0 6 0 10 0 6 0 7 0 13 3 5 3 6 4 6 2 0 -1 -1 -3
-4 -5z" fill="white"/>
<path d="M480 634 c-6 -2 -6 -2 -4 -3 1 -1 3 -2 6 -2 4 0 4 0 4 4 0 3 -1 4 -6
1z" fill="white"/>
<path d="M490 632 c0 -1 1 -2 7 -2 5 -1 8 -1 9 -3 1 -2 1 -9 0 -14 -1 -4 -1
-4 1 -4 2 0 2 1 2 12 l0 12 -6 0 c-4 0 -8 0 -10 1 -3 0 -3 0 -3 -2z" fill="white"/>
<path d="M4 632 c-1 -1 -3 -2 -4 -2 -1 -2 11 -13 18 -16 5 -3 8 -3 14 -4 8 0
8 0 7 1 -1 1 -4 3 -8 5 -4 2 -8 5 -9 5 -2 2 -2 2 1 2 2 -1 7 -2 10 -3 3 -2 6
-3 6 -3 0 1 -2 4 -6 7 -4 4 -7 6 -11 7 -6 2 -13 2 -18 1z" fill="white"/>
<path d="M209 624 c-3 -3 -7 -6 -9 -7 l-4 -2 2 -4 c1 -6 1 -12 -1 -16 -1 -4
-1 -4 3 -13 5 -11 5 -12 9 -30 5 -19 9 -41 10 -54 0 -12 -2 -10 18 -12 7 -1
14 -1 14 -2 0 0 3 3 7 6 6 6 19 15 24 17 3 1 3 2 -2 5 -6 5 -14 13 -19 21 -5
9 -11 26 -13 37 l-2 7 -5 2 c-6 2 -13 7 -17 12 -6 8 -8 16 -8 29 0 5 -1 8 -2
9 0 0 -3 -2 -5 -5z m32 -65 c0 -2 -6 -5 -8 -5 -3 0 -2 2 2 4 4 2 6 2 6 1z m8
-44 c1 -1 2 -2 2 -2 -1 -2 -12 0 -12 2 0 1 7 1 10 0z" fill="white"/>
<path d="M68 624 c-4 -2 -9 -6 -12 -10 -1 -2 -2 -4 -2 -4 0 -2 3 -2 7 -1 6 2
12 8 14 15 1 2 1 2 -1 2 -1 0 -4 -1 -6 -2z" fill="white"/>
<path d="M131 620 c0 -12 6 -20 21 -24 6 -2 10 -2 20 -2 14 -1 17 0 20 3 2 2
2 3 2 8 0 8 -1 9 -6 7 -2 -1 -7 -1 -14 -1 -18 1 -33 6 -39 12 -1 2 -3 3 -3 3
-1 0 -1 -3 -1 -6z" fill="white"/>
<path d="M455 624 c-1 -2 1 -14 2 -16 2 -3 7 -7 11 -8 2 -1 9 -1 15 -1 l10 1
4 3 c3 4 5 9 5 17 l0 5 -23 0 c-18 0 -24 0 -24 -1z" fill="white"/>
<path d="M0 589 l0 -32 10 1 c5 1 10 1 10 2 1 1 -1 15 -3 17 -1 2 -4 10 -4 13
0 2 1 4 2 6 3 2 3 2 16 2 l13 0 0 4 0 5 -3 -1 c-11 -3 -26 2 -36 11 l-5 4 0
-32z" fill="white"/>
<path d="M597 608 c0 -1 1 -4 1 -6 l2 -5 0 6 c0 6 0 7 -1 7 -1 0 -2 -1 -2 -2z" fill="white"/>
<path d="M503 604 c0 0 -1 -2 -3 -3 -1 -2 -2 -3 -2 -4 1 0 33 -2 39 -2 l5 0
-6 1 c-9 1 -13 3 -13 6 l0 3 -10 0 c-5 0 -10 0 -10 -1z" fill="white"/>
<path d="M561 598 c-3 -1 -8 -3 -11 -3 l-6 -1 5 0 c5 0 21 -1 45 -4 3 0 6 0 6
1 0 2 -6 3 -18 3 l-12 0 -1 3 c-1 2 -2 3 -2 3 0 0 -3 -1 -6 -2z" fill="white"/>
<path d="M132 596 c-3 -10 -10 -49 -10 -56 l0 -5 6 0 c3 1 7 1 9 2 l3 0 0 8
c1 8 6 41 7 45 0 1 -1 2 -6 5 -4 2 -7 4 -7 4 -1 0 -1 -1 -2 -3z" fill="white"/>
<path d="M432 591 l1 -5 15 -2 c8 0 24 -2 36 -2 11 -1 32 -3 46 -4 43 -3 65
-5 68 -5 2 0 2 0 2 6 0 6 0 6 -3 6 -4 1 -39 3 -65 5 -10 1 -27 2 -38 3 -11 0
-28 1 -36 2 -9 1 -19 1 -21 2 l-5 0 0 -6z" fill="white"/>
<path d="M19 592 c-1 -1 0 -8 1 -10 2 -3 4 -4 17 -5 9 -1 14 -1 23 0 16 2 18
3 19 8 1 8 3 8 -30 8 -19 0 -30 0 -30 -1z" fill="white"/>
<path d="M422 584 l-5 -9 0 -32 0 -32 4 -2 c3 -1 5 -2 6 -2 0 0 0 20 0 43 l0
43 -5 -9z" fill="white"/>
<path d="M149 576 c-3 -19 -4 -30 -4 -35 l0 -4 11 1 c30 1 43 -7 55 -35 l3 -8
0 7 c-2 24 -12 66 -20 81 -3 7 -3 7 -6 7 -2 -1 -5 -1 -8 -2 -3 0 -4 -1 -3 -2
3 -8 7 -23 8 -29 0 -8 -1 -10 -3 -2 -1 6 -7 23 -9 28 -2 5 -2 5 -8 5 -3 1 -8
1 -10 2 l-4 0 -2 -14z m14 -10 c-1 -7 -2 -10 -3 -10 -1 0 -1 16 1 18 1 2 2 -2
2 -8z" fill="white"/>
<path d="M432 542 l0 -38 11 -6 10 -5 7 2 c7 3 6 0 9 31 0 12 2 28 3 35 0 8 1
15 1 15 0 1 -4 2 -17 3 -9 0 -18 1 -20 2 l-4 0 0 -39z m18 8 c0 -2 -4 -6 -6
-6 -2 0 -1 2 1 5 3 2 5 3 5 1z m7 -18 c1 -2 -3 -6 -5 -6 -3 0 -3 1 0 4 2 3 3
4 5 2z" fill="white"/>
<path d="M477 568 c-3 -28 -7 -81 -6 -82 1 -1 4 -1 7 -1 3 -1 13 -2 22 -4 13
-2 60 -7 76 -9 5 -1 4 -2 6 17 1 6 1 15 2 20 1 4 1 15 2 23 1 7 2 17 2 21 1 5
1 10 1 12 l0 4 -9 0 c-28 2 -53 4 -74 6 -13 1 -25 2 -26 2 -1 0 -2 -1 -3 -9z
m60 -8 c36 -4 34 -3 34 -7 0 -5 -7 -63 -8 -65 0 -1 -1 -2 -2 -3 -2 0 -27 3
-58 7 -7 0 -14 2 -15 2 -2 2 -2 2 -2 11 0 8 1 20 4 43 1 10 1 13 3 14 2 1 -1
1 44 -2z" fill="white"/>
<path d="M24 572 c0 -1 1 -5 2 -10 3 -12 4 -13 23 -12 16 0 19 0 21 5 2 4 4
18 4 19 0 0 -5 -1 -10 -2 -13 -2 -25 -1 -38 2 -1 0 -2 0 -2 -2z" fill="white"/>
<path d="M594 566 c0 -1 0 -6 -1 -11 0 -5 -2 -20 -3 -32 -2 -26 -4 -39 -5 -45
0 -5 0 -6 3 -4 2 2 3 5 4 22 1 11 2 24 3 29 2 18 4 41 4 42 0 0 -1 1 -2 1 -2
0 -3 -1 -3 -2z" fill="white"/>
<path d="M408 563 c-5 -4 -14 -7 -20 -7 l-4 0 -5 -9 c-4 -9 -4 -9 -3 -14 3
-10 7 -13 25 -18 l10 -3 0 5 c1 2 1 14 1 27 l0 23 -4 -4z" fill="white"/>
<path d="M85 559 c-8 -1 -8 -1 -10 -6 -1 -4 -2 -5 -6 -6 -3 -2 -5 -2 -19 -2
-19 0 -23 1 -25 6 -2 2 -3 4 -4 4 0 -1 -5 -1 -11 -2 l-10 0 0 -9 0 -8 5 0 c8
1 39 4 77 8 17 2 33 3 34 4 2 0 2 1 2 4 0 4 1 4 -13 6 -9 2 -10 2 -20 1z" fill="white"/>
<path d="M496 556 c-1 -1 -2 -6 -2 -12 -1 -7 -2 -18 -3 -25 0 -8 -1 -16 -1
-18 l0 -3 12 -1 c19 -3 42 -6 50 -7 5 0 7 0 7 1 1 1 4 28 6 49 1 6 1 11 1 12
-1 0 -9 1 -19 2 -9 0 -24 2 -31 3 -18 1 -20 1 -20 -1z m30 -13 l4 -3 4 2 c6 5
15 3 18 -3 3 -8 1 -16 -7 -24 -9 -9 -17 -14 -19 -14 -4 1 -17 15 -20 21 -2 6
-3 11 0 16 4 8 14 10 20 5z" fill="white"/>
<path d="M111 542 c-1 0 -11 -1 -22 -2 -12 -1 -26 -2 -31 -3 -5 -1 -19 -2 -31
-3 -29 -3 -27 -2 -27 -8 0 -5 0 -5 17 -2 28 3 73 8 85 9 7 0 13 1 13 1 1 0 1
2 1 5 1 4 1 4 -2 4 -1 0 -3 0 -3 -1z" fill="white"/>
<path d="M512 538 c-6 -7 -3 -15 11 -28 l3 -4 3 2 c7 5 13 11 16 15 6 8 4 17
-3 17 -3 0 -8 -2 -10 -4 -2 -3 -4 -2 -7 2 -5 4 -10 4 -13 0z" fill="white"/>
<path d="M153 532 c-2 0 -6 0 -10 -1 l-8 0 6 -7 7 -6 14 1 c7 1 17 2 22 3 6 0
9 1 9 1 -1 2 -11 7 -18 8 -7 2 -17 2 -22 1z" fill="white"/>
<path d="M370 532 c0 0 -3 -3 -6 -7 -7 -8 -20 -16 -30 -20 -5 -2 -9 -3 -9 -3
0 -1 0 -3 1 -6 1 -6 0 -11 -3 -9 0 1 -1 2 -1 3 0 1 -1 4 -2 6 l-1 5 -6 0 -5 0
-2 -6 c0 -4 -1 -7 0 -8 0 -3 8 -10 14 -12 16 -8 37 -6 56 4 8 5 11 9 17 20 3
6 5 11 5 11 0 1 -4 2 -8 3 -10 4 -15 8 -18 15 -1 3 -2 5 -2 4z" fill="white"/>
<path d="M98 527 c-10 0 -19 -1 -20 -2 -2 0 -2 -1 3 -7 6 -7 4 -7 26 -4 9 1
20 2 25 3 10 0 10 0 2 8 -5 4 -5 4 -12 4 -3 0 -14 -1 -24 -2z" fill="white"/>
<path d="M48 522 c-8 -1 -19 -2 -25 -3 -6 -1 -11 -2 -11 -2 0 -1 1 -1 2 -2 1
0 4 -3 6 -6 l4 -6 5 1 c3 0 15 2 27 4 12 1 23 3 23 3 1 1 0 3 -5 7 -7 7 -5 7
-26 4z" fill="white"/>
<path d="M186 517 c-26 -2 -36 -3 -36 -4 1 -1 3 -6 5 -11 4 -10 7 -19 10 -34
1 -6 2 -10 2 -11 1 0 45 7 48 8 2 0 1 5 -3 18 -5 18 -13 35 -15 35 0 0 -5 -1
-11 -1z" fill="white"/>
<path d="M599 512 c-1 -6 -1 -8 1 -7 0 1 0 3 0 7 l0 6 -1 -6z" fill="white"/>
<path d="M0 508 c0 -7 0 -8 2 -8 1 1 5 1 8 2 4 0 7 1 7 1 0 3 -11 13 -15 13
-2 0 -2 0 -2 -8z" fill="white"/>
<path d="M131 511 c-7 0 -19 -1 -26 -2 -8 -1 -14 -2 -15 -2 -1 0 -1 -2 0 -4 2
-5 8 -30 11 -42 0 -6 1 -11 1 -11 1 0 4 1 9 2 8 2 13 2 16 -1 2 -1 3 -1 13 1
6 1 14 2 17 3 l5 1 -1 4 c-1 12 -12 49 -16 52 -1 0 -7 0 -14 -1z m-1 -28 c4
-2 7 -6 5 -6 0 -1 -3 0 -6 2 -8 5 -6 8 1 4z" fill="white"/>
<path d="M398 498 c-8 -14 -15 -35 -19 -50 -3 -13 -6 -32 -5 -34 1 -2 10 -4
15 -3 7 1 10 3 10 7 5 32 11 56 22 77 2 4 3 7 2 7 -1 1 -17 7 -19 7 -1 0 -3
-5 -6 -11z m-3 -69 c1 -2 1 -7 0 -10 -3 -5 -11 -6 -15 -3 -4 3 -4 12 1 15 4 2
11 2 14 -2z" fill="white"/>
<path d="M286 502 c-4 -8 -9 -27 -11 -37 -1 -9 -2 -41 0 -44 1 -4 13 -7 18 -4
2 1 2 2 2 18 0 9 1 22 1 29 2 10 5 32 7 36 0 1 -2 2 -6 4 -3 1 -6 2 -7 2 -2 1
-2 0 -4 -4z m5 -65 c1 -2 2 -4 3 -7 0 -6 -3 -10 -9 -11 -4 0 -5 0 -7 3 -4 6 1
17 8 17 1 0 3 -1 5 -2z" fill="white"/>
<path d="M76 506 c0 -1 -5 -1 -11 -2 -14 -1 -39 -5 -40 -6 0 0 0 -1 1 -1 1 -2
7 -20 8 -26 0 -5 2 -10 4 -9 0 1 0 3 -1 6 -1 2 -1 6 -1 9 2 11 17 16 27 9 2
-2 5 -3 8 -3 4 0 5 -1 8 -4 4 -4 5 -6 4 -11 0 -5 -1 -8 -6 -12 l-5 -6 3 -2 3
-3 8 1 c5 1 9 2 10 2 1 1 1 3 0 12 -2 12 -7 32 -10 40 -2 5 -2 6 -6 6 -2 0 -4
0 -4 0z" fill="white"/>
<path d="M598 500 c-1 0 -1 -4 -1 -8 -1 -8 -1 -8 1 -8 2 0 2 1 2 9 0 7 -1 10
-2 7z" fill="white"/>
<path d="M270 494 c-17 -13 -20 -16 -48 -75 -5 -9 -9 -18 -9 -18 0 -2 17 -11
27 -15 8 -3 28 -8 29 -7 0 0 0 4 -1 10 -2 12 -5 30 -6 40 0 6 0 8 1 8 1 0 2
-1 3 -10 l2 -7 0 9 c0 23 3 46 9 62 1 4 2 8 2 8 0 2 -2 1 -9 -5z" fill="white"/>
<path d="M424 490 c-10 -21 -17 -47 -18 -64 -1 -9 0 -22 3 -33 2 -10 3 -10 3
1 0 10 2 32 4 36 0 2 1 3 2 3 1 0 1 -2 1 -7 -2 -15 -3 -48 -3 -53 l1 -6 6 -2
c18 -6 51 -4 63 4 3 2 3 4 0 24 -6 43 -10 59 -17 73 -6 13 -14 21 -30 29 -11
6 -10 6 -15 -5z" fill="white"/>
<path d="M12 497 c-4 -1 -9 -1 -10 -2 l-2 0 0 -32 c0 -24 0 -31 1 -31 2 0 15
3 25 5 l7 1 -3 4 c-5 6 -6 12 -1 18 1 1 1 4 0 10 -2 9 -8 27 -10 28 0 0 -4 -1
-7 -1z" fill="white"/>
<path d="M461 491 l-3 -1 6 -7 c3 -4 6 -8 7 -9 1 -1 4 -2 15 -3 7 -1 20 -2 29
-3 9 -1 23 -3 32 -3 8 -1 23 -3 32 -4 10 -1 19 -2 20 -2 1 0 1 2 1 11 0 10 0
10 -2 10 -2 0 -3 -1 -3 -4 -1 -4 -3 -6 -10 -8 -4 -2 -7 -1 -27 1 -12 2 -28 4
-34 4 -17 3 -54 8 -56 9 -2 0 -2 1 -2 5 0 5 0 6 -5 4z" fill="white"/>
<path d="M46 482 c-3 -1 -5 -5 -5 -10 0 -4 1 -6 3 -9 2 -3 6 -7 8 -10 2 -4 4
-6 5 -5 1 0 1 1 0 2 0 1 0 4 -1 7 0 7 3 15 5 11 1 0 0 -2 0 -5 -2 -5 0 -12 3
-12 2 0 14 12 15 15 0 4 -1 7 -3 10 -2 2 -3 2 -7 2 -4 -1 -5 -1 -6 1 -1 2 -7
5 -10 5 -2 0 -5 -1 -7 -2z" fill="white"/>
<path d="M219 477 c0 -4 1 -8 2 -9 l1 -3 2 4 c2 3 5 7 8 9 l4 4 -4 0 c-3 0 -7
0 -10 1 l-5 0 2 -6z" fill="white"/>
<path d="M303 475 c-3 -24 -3 -32 -2 -33 2 -2 48 -6 61 -5 l10 1 2 8 c0 4 3
13 5 20 3 7 5 13 4 13 0 0 -2 -1 -5 -3 -24 -15 -51 -15 -69 0 -3 2 -5 4 -5 4
-1 0 -1 -2 -1 -5z" fill="white"/>
<path d="M238 477 c-5 -3 -10 -10 -13 -17 -2 -4 -2 -5 -1 -12 1 -4 2 -7 2 -7
0 0 3 5 6 11 3 6 8 14 10 18 3 5 5 8 5 9 0 1 -6 0 -9 -2z" fill="white"/>
<path d="M475 467 c0 -1 3 -9 3 -10 1 0 25 -3 55 -5 14 -2 30 -3 35 -4 35 -4
32 -4 32 1 0 6 2 5 -21 7 -8 1 -25 3 -37 5 -56 6 -67 7 -67 6z" fill="white"/>
<path d="M191 456 c-12 -2 -22 -4 -23 -4 0 -1 1 -10 2 -21 2 -11 3 -24 4 -28
0 -5 0 -10 1 -11 0 -1 9 1 23 5 l9 3 7 16 8 16 -2 14 c-2 14 -2 14 -5 14 -1 0
-12 -2 -24 -4z m9 -33 c-1 -2 -7 -6 -8 -5 -1 1 5 7 7 7 1 0 1 -1 1 -2z" fill="white"/>
<path d="M32 456 c-3 -4 -3 -7 1 -10 2 -3 3 -3 10 -3 5 0 8 1 9 1 1 1 -7 12
-10 13 -4 2 -7 1 -10 -1z" fill="white"/>
<path d="M481 450 c0 -1 0 -3 1 -5 1 -5 6 -30 7 -43 1 -7 2 -15 3 -19 2 -12 2
-12 1 -15 0 -1 -3 -3 -6 -4 l-6 -3 0 -7 0 -7 5 2 5 3 3 11 c2 11 2 14 3 49 l0
38 -5 0 c-2 1 -6 1 -8 2 -2 0 -3 0 -3 -2z" fill="white"/>
<path d="M144 448 l-14 -2 -3 -6 c-3 -8 -3 -11 1 -14 7 -4 7 -5 7 -11 0 -4 0
-6 -1 -7 -2 -1 -3 0 -3 5 0 5 0 6 -5 9 -3 1 -5 4 -6 6 -1 3 -1 4 2 11 3 9 2
10 -3 10 -3 0 -14 -3 -15 -4 -1 0 0 -5 0 -10 l1 -9 6 -6 c3 -4 7 -9 9 -11 4
-6 11 -20 13 -24 0 -2 0 -3 1 -3 0 0 6 2 14 3 7 2 15 4 18 5 l4 1 -1 6 c0 6
-4 44 -6 51 0 4 0 4 -19 0z" fill="white"/>
<path d="M502 428 l0 -21 2 11 c2 6 3 13 4 16 l2 6 9 3 c5 1 9 3 9 3 1 1 -17
3 -23 3 l-3 0 0 -21z" fill="white"/>
<path d="M62 444 c-16 -6 -19 -9 -13 -11 8 -3 24 3 24 9 0 1 -1 2 -3 3 -3 1
-3 1 -8 -1z" fill="white"/>
<path d="M537 445 c-1 -1 -5 -2 -10 -4 l-8 -3 8 -2 c7 -2 9 -2 12 -1 1 1 7 2
13 4 5 2 10 3 11 4 1 0 -4 1 -10 2 -14 1 -14 1 -16 0z" fill="white"/>
<path d="M89 442 c-8 -2 -9 -2 -5 -4 2 0 6 -2 9 -4 6 -4 7 -5 7 -2 -1 1 -1 4
-1 6 -1 6 -1 5 -10 4z" fill="white"/>
<path d="M562 438 c-15 -5 -16 -6 -12 -6 16 -3 18 -4 18 -7 0 0 2 0 8 2 4 2
11 4 16 6 7 2 8 2 8 4 0 3 -1 3 -7 3 -4 1 -10 1 -13 1 -6 1 -8 0 -18 -3z" fill="white"/>
<path d="M75 435 c0 0 1 -2 3 -4 1 -3 3 -6 3 -10 0 -5 0 -5 -3 -8 -3 -3 -5 -4
-8 -4 -7 0 -14 9 -13 16 1 2 1 2 -2 2 -1 0 -4 1 -6 1 -4 1 -4 1 -7 -2 -2 -2
-6 -7 -9 -11 -5 -8 -8 -10 -8 -6 0 2 7 13 13 19 3 3 4 5 3 5 -1 2 -4 0 -14 -6
-9 -6 -19 -16 -24 -24 l-3 -4 0 -41 c0 -38 0 -41 2 -41 1 -1 7 -2 13 -3 9 -1
19 -1 44 -1 31 0 32 0 43 2 15 4 25 8 30 13 4 4 4 5 4 9 -1 5 -2 6 -4 2 -1 -2
-2 -3 -3 -3 -1 0 -1 4 1 11 4 17 -2 42 -13 58 -5 7 -16 18 -24 23 -6 5 -18 9
-18 7z m33 -31 c1 -2 2 -3 2 -6 0 -5 -3 -8 -7 -8 -8 0 -12 9 -8 14 2 3 3 3 6
3 2 -1 5 -2 7 -3z m-53 -4 c5 -5 3 -13 -4 -15 -6 -2 -12 2 -12 8 0 4 2 7 5 9
5 2 8 1 11 -2z m-41 -1 c8 -4 5 -14 -4 -16 -3 0 -4 0 -6 2 -4 4 -4 8 0 12 3 3
6 4 10 2z m70 -26 c3 -4 4 -7 2 -11 -2 -4 -5 -6 -9 -6 -7 0 -12 7 -9 14 3 5
11 7 16 3z m-52 -13 c6 -5 1 -15 -6 -15 -8 0 -13 9 -8 15 4 3 11 3 14 0z m92
-8 c3 -3 3 -8 0 -12 -4 -3 -11 -3 -15 0 -2 2 -2 3 -2 6 2 8 12 12 17 6z m-56
-23 c3 -2 2 -6 0 -9 -2 -3 -3 -3 -7 -3 -7 0 -9 1 -9 5 0 4 4 8 8 9 2 1 6 0 8
-2z" fill="white"/>
<path d="M300 426 c0 -11 -1 -12 -6 -14 -6 -2 -13 -1 -21 3 -1 0 -1 -15 0 -26
2 -12 7 -29 15 -53 3 -10 5 -18 6 -19 0 -1 -5 -10 -11 -19 l-5 -7 3 -5 c2 -5
3 -6 5 -6 8 2 22 2 36 1 9 -1 17 -2 19 -2 4 1 13 7 50 30 10 6 21 13 23 14 3
1 5 3 5 3 1 1 1 9 1 18 l0 16 -3 1 c-4 2 -6 5 -6 8 0 2 -1 6 -3 10 -3 8 -5 17
-6 26 -1 3 -1 5 -1 5 0 0 -2 -1 -4 -2 -7 -4 -22 -2 -26 2 -2 2 -2 3 -2 9 1 4
1 9 2 11 l0 3 -18 0 c-17 0 -30 1 -47 3 l-6 0 0 -10z m17 -37 c12 -2 34 -4 51
-4 13 0 15 0 16 -2 2 -3 3 -22 3 -29 -2 -18 -16 -29 -36 -29 -19 0 -38 11 -45
27 -4 9 -7 34 -4 37 2 1 6 1 15 0z m-4 -83 c4 -1 13 -3 19 -4 7 0 13 -1 13 -2
1 -1 -3 -2 -6 -2 -8 0 -24 3 -30 6 -5 3 -7 4 -5 4 0 0 4 -1 9 -2z" fill="white"/>
<path d="M282 432 c-2 -4 -1 -8 3 -8 2 0 3 1 4 3 0 3 -1 7 -3 7 -1 0 -3 -1 -4
-2z" fill="white"/>
<path d="M512 430 c0 -2 -1 -5 -1 -8 l-1 -4 9 -2 c14 -3 14 -3 14 -1 1 1 1 5
2 9 l0 6 -6 1 c-3 1 -7 2 -10 2 -6 1 -6 1 -7 -3z" fill="white"/>
<path d="M67 430 c-5 -2 -5 -3 -5 -6 0 -8 6 -13 11 -10 4 3 5 6 2 11 -2 7 -3
7 -8 5z" fill="white"/>
<path d="M16 430 c-3 -1 -8 -2 -11 -2 l-5 -1 0 -10 0 -9 5 6 c3 4 9 9 12 12 4
3 7 5 6 5 -1 0 -4 -1 -7 -1z" fill="white"/>
<path d="M591 427 c-7 -2 -7 -3 -7 -5 0 -4 0 -4 12 -5 l4 -1 0 7 c0 4 0 7 -1
7 0 0 -4 -1 -8 -3z" fill="white"/>
<path d="M540 427 c-2 -5 -3 -37 -4 -64 0 -24 0 -28 1 -29 2 -1 15 -4 20 -4
l3 0 0 9 c0 4 0 8 0 8 0 0 -3 -1 -7 -2 -11 -3 -10 -6 -10 27 0 23 1 30 2 31 1
1 3 2 9 2 l8 1 0 9 c0 9 0 9 -2 9 -13 -3 -16 -4 -16 -3 -2 1 -1 2 3 4 4 1 3 2
-3 3 -4 1 -4 1 -4 -1z" fill="white"/>
<path d="M384 427 c-2 -1 -2 -3 -2 -5 0 -2 1 -3 3 -3 2 0 4 0 5 1 2 2 1 6 -1
7 -2 1 -3 1 -5 0z" fill="white"/>
<path d="M572 421 l-5 -3 -1 -27 c-2 -70 -2 -63 0 -63 1 0 4 1 6 1 l4 1 0 8
c0 4 0 25 1 46 1 21 1 38 1 38 0 1 -3 0 -6 -1z" fill="white"/>
<path d="M508 410 c-3 -11 -3 -12 -2 -13 1 0 22 -4 23 -4 0 0 3 14 2 15 0 1
-1 1 -2 1 -1 0 -6 1 -11 2 l-9 3 -1 -4z" fill="white"/>
<path d="M583 403 c-1 -14 -1 -28 0 -28 1 0 14 -2 15 -3 2 0 2 1 2 20 l0 20
-5 0 c-3 1 -7 1 -9 2 l-3 0 0 -11z" fill="white"/>
<path d="M98 401 c-2 -3 3 -9 7 -6 2 2 1 5 -1 6 -3 2 -5 2 -6 0z" fill="white"/>
<path d="M548 374 l0 -26 6 2 7 2 0 24 0 24 -6 0 -7 0 0 -26z" fill="white"/>
<path d="M45 396 c-1 0 -2 -2 -2 -2 0 -2 3 -5 5 -5 2 0 5 3 5 5 0 4 -6 5 -8 2z" fill="white"/>
<path d="M203 394 c-3 -1 -10 -3 -14 -4 l-9 -3 4 -1 c2 0 10 -3 17 -5 7 -2 13
-4 13 -4 1 1 5 10 5 13 0 1 -7 6 -9 6 -1 0 -4 -1 -7 -2z" fill="white"/>
<path d="M6 393 c-2 -5 4 -8 7 -4 2 4 1 6 -3 6 -2 0 -3 -1 -4 -2z" fill="white"/>
<path d="M500 371 c-6 -32 -6 -29 -2 -30 4 -3 16 -5 18 -5 1 1 3 6 7 26 3 13
5 25 5 26 0 0 -4 1 -10 2 -5 1 -10 2 -12 3 -1 0 -2 -1 -6 -22z" fill="white"/>
<path d="M223 386 c-3 -9 -9 -24 -15 -35 l-7 -13 3 -9 c3 -9 4 -10 6 -10 5 -2
11 -6 14 -10 1 -3 2 -6 3 -11 l1 -6 7 9 c9 12 16 23 23 37 4 9 13 33 13 35 0
1 -2 1 -3 1 -8 0 -23 4 -36 10 -7 3 -8 4 -9 2z" fill="white"/>
<path d="M152 382 c-10 -2 -18 -4 -18 -4 0 0 1 -4 1 -9 1 -10 1 -10 8 -8 12 4
48 13 56 14 l3 1 -3 1 c-3 1 -26 8 -29 9 -1 0 -9 -2 -18 -4z" fill="white"/>
<path d="M306 376 c1 -17 5 -26 12 -33 6 -5 15 -11 22 -13 17 -4 35 3 40 17 2
4 2 28 1 31 -1 2 -2 2 -11 2 -16 0 -42 2 -54 4 l-10 2 0 -10z" fill="white"/>
<path d="M528 363 c-5 -25 -5 -25 -4 -25 0 0 2 0 4 1 l3 1 0 19 c1 11 1 19 1
20 0 0 -2 -7 -4 -16z" fill="white"/>
<path d="M203 372 c-3 0 -54 -13 -56 -14 -1 0 2 -2 6 -4 8 -4 16 -9 20 -12 l2
-2 0 6 c0 5 0 7 2 9 5 7 13 4 19 -6 l3 -6 7 14 c8 16 7 17 -3 15z" fill="white"/>
<path d="M74 369 c-4 -2 -2 -9 3 -9 3 0 5 3 5 5 0 4 -5 7 -8 4z" fill="white"/>
<path d="M582 369 c-1 0 -1 -10 -1 -22 0 -20 0 -22 2 -22 2 -1 16 -4 17 -4 0
0 0 11 0 23 l0 24 -6 0 c-4 1 -8 1 -9 2 -1 0 -3 0 -3 -1z" fill="white"/>
<path d="M271 356 c-2 -4 -3 -6 -3 -7 0 0 2 1 5 2 l4 2 -2 4 c0 3 -1 5 -1 5
-1 0 -2 -3 -3 -6z" fill="white"/>
<path d="M471 358 c-6 -1 -33 -1 -40 0 -3 0 -6 1 -6 1 0 0 0 -7 0 -16 l0 -15
8 -1 c8 -1 14 -2 14 -4 0 -1 -5 -1 -11 0 -8 0 -11 0 -14 -1 -4 -2 -36 -21 -54
-33 -6 -4 -14 -9 -18 -11 -6 -3 -8 -3 -14 -3 -4 0 -10 0 -14 1 -12 2 -29 1
-36 0 -4 -1 -11 -4 -16 -7 -8 -3 -11 -6 -17 -12 -8 -7 -9 -10 -6 -11 1 -1 3 1
7 5 10 10 25 17 36 17 6 0 6 -1 -1 -3 -12 -3 -26 -11 -32 -18 -5 -6 -5 -6 -2
-6 1 -1 5 1 12 6 13 8 19 11 28 12 8 1 8 -2 -1 -4 -10 -3 -24 -10 -33 -18 0 0
0 -1 2 -2 1 -2 2 -2 8 2 10 6 21 10 30 11 9 0 11 -1 4 -3 -6 -2 -30 -13 -30
-15 -1 -2 9 -1 17 2 3 1 8 3 9 3 1 1 10 1 20 2 19 1 23 2 35 8 3 2 13 6 20 8
16 5 48 16 60 21 19 7 29 14 33 22 1 2 3 7 3 11 2 9 4 34 4 44 l0 9 -5 -2z" fill="white"/>
<path d="M22 357 c-2 -2 -1 -7 2 -7 2 -1 5 0 6 3 2 4 -5 7 -8 4z" fill="white"/>
<path d="M135 351 c-1 -4 0 -5 2 -7 4 -3 5 -8 2 -14 -2 -5 -5 -8 -12 -11 -4
-2 -6 -3 -6 -4 0 0 1 -2 3 -4 l3 -3 18 6 c16 5 19 6 21 9 2 1 5 3 8 4 2 1 4 2
4 3 0 4 -29 22 -39 24 -3 1 -3 1 -4 -3z" fill="white"/>
<path d="M181 352 c-1 -1 -2 -3 -2 -5 0 -6 4 -17 9 -27 6 -13 15 -28 16 -28 0
0 1 3 2 6 1 5 1 6 -2 15 -5 17 -13 37 -17 39 -3 3 -5 2 -6 0z" fill="white"/>
<path d="M114 349 c-3 -4 -2 -7 3 -7 1 0 2 1 3 2 2 2 2 2 1 4 -2 4 -5 4 -7 1z" fill="white"/>
<path d="M277 348 c-1 0 -3 -2 -6 -2 -5 -2 -5 -2 -8 -10 -2 -4 -6 -11 -9 -15
-4 -7 -4 -8 -3 -11 1 -2 1 -7 1 -11 0 -4 0 -7 1 -7 0 0 2 1 4 2 4 3 11 4 15 2
l3 -2 7 10 c4 6 7 11 7 12 0 1 -10 31 -11 32 0 1 -1 1 -1 0z" fill="white"/>
<path d="M485 345 c-3 -1 -4 -3 -4 -5 -1 -1 -1 -2 -1 -3 1 0 22 -4 24 -4 1 0
-1 1 -4 2 -8 2 -10 5 -10 9 1 3 1 3 -5 1z" fill="white"/>
<path d="M526 333 c-2 0 -5 -2 -7 -2 -4 -1 -4 -1 -1 -1 1 0 18 -3 38 -7 19 -4
37 -7 40 -7 7 -1 3 0 -7 3 -7 1 -10 2 -12 4 -1 2 -2 2 -6 1 -2 -1 -6 0 -11 0
-19 4 -27 6 -28 9 0 2 -1 2 -6 0z" fill="white"/>
<path d="M480 329 c0 -2 0 -4 -1 -5 0 -2 0 -2 57 -13 15 -3 36 -6 45 -8 8 -2
16 -3 17 -4 2 0 2 1 2 5 0 3 0 6 -1 6 0 0 -16 3 -35 7 -20 4 -43 8 -53 10 -10
2 -21 4 -24 4 l-7 2 0 -4z" fill="white"/>
<path d="M59 327 c-3 -2 -4 -5 -1 -6 2 -1 3 -1 6 1 4 2 4 2 1 4 -3 2 -3 2 -6
1z" fill="white"/>
<path d="M175 323 c-7 -3 -8 -9 -2 -19 2 -4 5 -9 6 -10 5 -7 19 -14 23 -13 4
2 1 6 -9 14 -7 6 -13 15 -9 15 1 0 3 -1 3 -3 4 -5 3 -1 -2 8 -5 9 -5 10 -10 8z" fill="white"/>
<path d="M479 316 c-1 0 -1 -2 -1 -3 0 -3 -1 -10 -4 -17 l-1 -5 4 -10 c6 -11
11 -29 13 -38 1 -7 1 -23 0 -26 -1 -1 1 -2 6 -5 l8 -4 0 8 c2 14 1 30 -1 34
-1 3 -1 5 -1 13 1 12 1 13 9 15 l6 2 0 5 c1 6 3 10 6 12 4 3 9 3 14 1 4 -2 10
-9 11 -12 0 -3 1 -3 4 -2 3 0 5 0 6 -1 3 -1 3 -1 7 2 7 6 17 9 23 6 3 -2 5 -7
5 -13 0 -3 0 -4 3 -5 2 -1 3 -1 4 -1 0 0 0 5 0 11 0 9 0 11 -2 11 -3 1 -16 4
-30 6 -30 6 -68 13 -77 15 -10 2 -11 2 -12 1z m21 -22 c1 0 2 -1 2 -2 0 -1 -1
-1 -6 -1 -6 1 -8 2 -7 3 0 1 9 1 11 0z" fill="white"/>
<path d="M208 313 c0 -1 0 -3 1 -4 1 -2 1 -2 3 -1 2 2 2 1 1 -4 -1 -3 -3 -8
-4 -13 -1 -9 -1 -9 0 -11 5 -3 10 0 12 9 3 7 2 10 -1 16 -2 4 -4 6 -6 8 -5 2
-6 3 -6 0z" fill="white"/>
<path d="M150 311 c-6 -2 -13 -5 -16 -5 l-6 -2 2 -7 c3 -8 3 -31 0 -46 0 -6
-1 -10 -1 -11 0 0 5 2 10 4 9 4 16 5 16 3 0 -1 -2 -3 -16 -8 -8 -3 -18 -7 -22
-9 l-8 -4 -1 -21 c0 -15 -1 -21 -2 -22 -1 -1 -4 -3 -8 -4 -10 -5 -25 -12 -25
-13 0 -1 5 -6 10 -8 4 -3 9 -3 29 -2 7 0 9 0 13 -2 7 -3 9 -6 6 -16 -1 -8 -1
-14 0 -17 1 -1 3 -3 6 -4 4 -2 6 -2 19 -2 18 0 19 -1 11 -8 -2 -3 -4 -5 -4 -5
0 0 3 -2 6 -4 4 -3 6 -5 6 -6 -1 -2 -11 -5 -24 -6 -20 -1 -32 3 -38 13 -1 4
-1 11 1 19 2 7 1 8 -2 11 -5 5 -8 4 -20 -4 -16 -10 -24 -13 -28 -13 -4 1 -34
16 -51 27 -7 4 -12 7 -13 7 0 0 0 -7 0 -15 l0 -16 4 2 c6 2 20 1 26 -2 8 -4
13 -9 19 -19 2 -5 5 -10 5 -10 1 -1 8 -1 17 -1 17 0 40 -2 46 -5 3 -1 4 -3 2
-5 -1 -1 -18 -4 -28 -5 -3 -1 -2 -1 16 -12 5 -3 3 -7 -5 -7 -6 0 -15 3 -32 12
-14 6 -17 8 -20 7 -1 0 -7 -4 -12 -7 -4 -4 -11 -8 -14 -10 -6 -3 -15 -4 -20
-2 l-4 1 0 -10 0 -11 3 1 c4 0 4 -2 0 -3 -3 -1 -3 -2 -3 -8 0 -5 0 -6 1 -6 5
3 23 9 27 11 6 1 6 2 6 5 0 7 5 14 12 16 8 2 18 -2 24 -10 2 -3 3 -4 4 -3 1 0
3 0 5 -1 3 -1 3 -1 9 5 9 9 18 11 25 6 3 -2 5 -7 4 -12 l-1 -4 14 -5 c9 -3 14
-5 15 -6 1 -1 1 -5 1 -9 l0 -8 146 0 145 0 0 6 c0 7 1 8 10 12 14 6 49 18 68
25 20 6 21 6 25 5 5 -1 38 -16 51 -22 4 -2 8 -4 8 -4 1 0 1 11 1 25 l0 25 -2
-1 c-7 -5 -14 -6 -36 -5 -7 0 -8 0 -11 -2 -3 -4 -4 -4 -8 0 -8 7 -8 16 1 20 4
1 14 1 20 -1 15 -4 21 2 16 14 -2 5 -8 12 -12 13 -6 2 -9 6 -9 11 0 4 0 5 3 7
5 5 14 8 25 9 10 0 13 -1 11 -5 -1 -3 -1 -4 1 -4 1 -1 1 1 1 10 0 10 0 11 -2
11 -1 1 -2 1 -2 2 0 1 1 1 2 2 2 0 2 1 2 9 0 8 0 9 -2 8 -3 -1 -6 -1 -6 0 0 1
5 5 7 5 1 0 1 2 1 9 l0 9 -8 -5 c-5 -2 -11 -5 -14 -6 l-6 -1 -21 4 c-11 2 -21
4 -21 4 -1 0 3 -2 8 -5 12 -7 14 -8 18 -12 3 -3 6 -5 11 -7 3 -1 7 -3 8 -4 2
-3 1 -7 -2 -10 -5 -5 -9 -5 -35 -4 -12 1 -27 2 -32 3 -21 2 -27 1 -53 -12 -9
-5 -17 -8 -17 -9 0 0 1 -2 3 -4 5 -5 6 -10 6 -17 0 -12 -5 -19 -19 -25 -12 -6
-27 -7 -40 -5 -3 1 -6 1 -6 0 -1 -1 8 -8 14 -10 8 -2 22 -1 32 2 4 2 8 3 10 3
5 -2 7 -16 3 -25 -3 -7 -11 -13 -19 -17 -7 -4 -47 -17 -50 -17 -2 0 -3 2 -3 8
l0 6 -4 1 c-3 1 -4 2 -4 3 0 3 2 4 43 13 14 4 22 7 28 13 4 3 5 7 3 9 0 1 -3
0 -7 -2 -6 -2 -9 -2 -19 -2 -11 0 -13 0 -17 2 -7 3 -12 7 -15 13 -5 10 -2 17
10 23 6 3 8 3 16 4 7 0 11 0 16 -1 9 -3 9 -3 10 0 1 5 -8 15 -18 20 -7 3 -12
4 -18 2 -6 -2 -9 -3 -15 -8 -6 -6 -15 -10 -26 -14 -9 -2 -11 -2 -29 -2 -19 0
-21 0 -30 2 -23 7 -36 15 -43 31 -2 3 -4 6 -4 6 0 0 -3 -2 -6 -3 -22 -12 -48
-11 -68 2 -25 17 -31 45 -15 67 4 6 4 6 4 15 l0 9 10 11 10 10 -4 2 c-6 3 -10
8 -14 17 -3 8 -3 9 -4 21 0 11 0 12 2 15 3 2 4 7 2 7 0 0 -5 -2 -11 -3z m-9
-86 c3 -1 4 -2 2 -4 -1 0 -9 4 -9 5 0 2 4 1 7 -1z m-8 -15 c4 -3 4 -5 0 -4 -3
1 -8 6 -8 7 1 1 4 0 8 -3z m-2 -25 c-1 -1 -8 -3 -10 -2 -2 1 0 2 5 4 4 1 6 0
5 -2z m388 -47 c-1 -2 -8 -3 -11 -3 -1 1 -1 1 0 3 2 1 11 2 11 0z m-18 -9 c3
-3 5 -5 5 -10 0 -3 1 -4 4 -6 5 -3 6 -7 6 -25 0 -10 0 -18 -1 -19 -1 -2 -4 -4
-6 -6 -5 -2 -7 -2 -15 -3 -10 0 -18 2 -23 6 l-3 3 -1 19 0 19 5 5 c4 4 5 5 5
9 0 3 1 5 2 6 5 4 17 5 22 2z m42 -15 c2 -2 1 -3 -3 -3 -3 1 -6 3 -6 4 0 2 7
1 9 -1z m-447 -6 c4 -2 5 -2 4 -3 -1 -2 -2 -2 -4 -1 -4 2 -7 4 -7 6 0 2 1 1 7
-2z m173 -10 c27 -9 32 -11 32 -14 0 -1 -5 -6 -15 -14 -8 -6 -18 -14 -23 -18
-5 -4 -12 -10 -16 -13 l-7 -5 -12 4 c-6 3 -17 7 -23 10 -25 9 -39 15 -40 17
-1 3 15 15 38 27 26 13 31 15 37 15 2 -1 15 -4 29 -9z m85 -13 c0 -1 -3 -2 -8
-1 -2 0 -4 1 -4 2 0 1 1 1 6 1 3 0 6 -1 6 -2z m-202 -14 c1 -2 -1 -2 -7 -3 -3
0 -5 0 -5 1 0 2 10 4 12 2z m201 -1 c6 -4 5 -10 -2 -15 -4 -3 -6 -2 -7 2 0 4
-3 4 -14 -3 -13 -8 -16 -9 -23 -7 -6 2 -12 5 -13 8 -2 3 1 7 5 8 2 1 4 1 8 -1
l6 -3 5 4 c9 6 15 9 25 9 5 0 7 -1 10 -2z m118 -23 c2 -2 1 -3 -4 -3 -5 1 -7
2 -5 4 0 1 7 0 9 -1z m-323 -1 c1 -1 1 -1 0 -2 -1 -2 -8 0 -9 2 0 1 7 1 9 0z
m448 -5 c2 -2 -1 -3 -5 -3 -5 1 -7 3 -4 4 2 1 8 0 9 -1z m-402 -8 c5 -1 10 -7
10 -12 0 -4 -1 -5 -4 -8 -4 -5 -10 -6 -18 -4 -8 2 -12 5 -13 9 -3 11 10 18 25
15z m131 -12 c17 -10 17 -11 14 -11 -3 0 -6 1 -18 9 -8 5 -15 9 -16 9 -2 0
-25 -7 -26 -8 -1 0 2 -2 5 -5 l6 -4 -3 -1 c-2 0 -4 0 -5 2 -2 1 -4 3 -6 4 -3
2 -3 2 -10 0 -4 0 -11 -2 -16 -4 -4 -1 -10 -2 -14 -2 l-5 0 2 2 c2 0 10 3 19
6 9 2 23 6 31 9 20 6 21 6 23 6 1 -1 9 -6 19 -12z" fill="white"/>
<path d="M101 310 c-10 -2 -12 -2 -38 -2 -15 0 -32 0 -37 1 -6 0 -11 1 -11 1
0 -1 4 -4 9 -8 5 -4 12 -9 14 -11 3 -2 6 -4 6 -4 0 0 2 2 4 4 3 5 10 9 15 9 4
0 8 -2 10 -5 2 -2 2 -2 16 2 27 8 31 9 32 10 1 1 -6 6 -7 6 -2 0 -7 -1 -13 -3z" fill="white"/>
<path d="M0 297 l0 -16 4 4 c4 4 4 4 9 4 3 -1 7 -2 11 -5 6 -3 7 -4 13 -3 l6
1 -10 7 c-10 8 -24 19 -30 21 l-3 2 0 -15z" fill="white"/>
<path d="M242 303 c-2 -3 -6 -8 -9 -12 -3 -4 -6 -7 -6 -7 0 -1 4 -1 8 -1 6 0
8 0 10 2 3 2 3 3 3 10 0 4 -1 9 -1 10 l-1 3 -4 -5z" fill="white"/>
<path d="M163 304 c-3 -4 -2 -9 0 -12 5 -7 20 -15 25 -15 4 1 5 3 1 3 -6 2
-14 10 -20 22 -2 3 -4 5 -4 5 -1 0 -2 -1 -2 -3z" fill="white"/>
<path d="M112 299 c-6 -2 -16 -5 -23 -7 l-12 -3 1 -6 c0 -4 0 -7 1 -7 0 0 7
-1 15 -2 8 -1 15 -2 15 -3 2 -2 2 -22 1 -28 -1 -3 -1 -7 -2 -8 0 -2 0 -3 1 -3
0 0 4 1 8 3 l7 2 1 6 c4 25 3 58 -2 59 -1 0 -6 -1 -11 -3z" fill="white"/>
<path d="M58 295 c-2 -1 -10 -9 -11 -12 -1 -2 -1 -4 1 -7 1 -2 2 -4 3 -4 0 0
2 1 4 2 6 3 7 4 7 1 0 0 -2 -2 -5 -4 -4 -3 -5 -4 -5 -6 0 -3 0 -3 3 -3 6 0 11
2 15 5 3 3 3 3 3 11 0 8 -2 13 -6 16 -2 2 -5 2 -9 1z" fill="white"/>
<path d="M526 294 c-6 -4 -7 -22 -1 -25 3 -1 10 0 15 3 l3 1 -4 2 c-5 2 -8 5
-8 6 0 2 3 1 7 -2 3 -1 5 -3 6 -3 2 0 1 4 -2 10 -4 7 -11 11 -16 8z" fill="white"/>
<path d="M260 290 c-7 -4 -14 -12 -16 -17 -2 -7 -2 -7 0 -9 1 -1 2 -3 2 -4 0
-2 1 -1 4 2 6 6 17 12 25 15 2 0 3 2 3 3 0 3 -3 8 -6 10 -4 2 -9 3 -12 0z" fill="white"/>
<path d="M467 286 c-2 -3 -2 -3 1 -14 3 -11 3 -28 1 -32 -1 -2 -2 -2 -2 9 -1
8 -2 15 -3 21 -2 5 -3 10 -3 10 -1 0 -4 -1 -8 -3 -16 -8 -37 -16 -72 -28 -10
-3 -22 -7 -25 -9 -9 -5 -16 -7 -26 -8 l-7 0 0 -5 c0 -2 0 -5 0 -6 0 -1 2 -2 9
-4 9 -2 33 -11 44 -16 15 -8 25 -17 29 -25 l2 -5 8 2 c17 4 33 8 41 12 6 4 14
10 18 16 2 3 5 7 7 10 3 3 4 5 5 11 2 10 0 21 -5 37 -4 12 -11 29 -12 29 0 0
-1 -1 -2 -2z m-41 -46 c4 -1 14 -12 14 -13 0 -2 -4 -1 -9 4 -3 3 -7 6 -10 8
-3 1 -5 3 -5 3 0 2 7 0 10 -2z m-26 -20 c4 -3 4 -6 0 -5 -3 1 -10 7 -10 8 0 2
5 0 10 -3z" fill="white"/>
<path d="M575 286 c-7 -3 -11 -6 -11 -9 0 -1 1 -2 4 -1 6 1 9 1 9 0 0 -2 -6
-4 -10 -4 -4 0 -3 -2 2 -4 7 -3 11 -3 14 0 5 4 7 14 3 18 -3 3 -4 2 -11 0z" fill="white"/>
<path d="M161 283 c1 0 1 -2 1 -2 0 -2 9 -10 13 -12 5 -3 10 -3 11 0 2 3 1 4
-3 4 -5 1 -9 3 -16 8 -5 4 -7 5 -6 2z" fill="white"/>
<path d="M7 282 c-6 -6 -2 -24 6 -27 3 -1 11 0 18 3 3 1 3 1 2 2 -1 1 -5 3 -9
4 -5 1 -7 2 -7 3 0 1 1 1 6 1 3 -1 6 -1 7 -2 3 0 2 2 0 7 -5 8 -18 14 -23 9z" fill="white"/>
<path d="M552 279 c-3 -1 -4 -5 -3 -7 1 -2 5 -3 8 -2 3 1 3 6 0 8 -3 2 -3 2
-5 1z" fill="white"/>
<path d="M220 277 c-2 -1 -1 -2 4 -7 5 -6 5 -6 6 -4 1 1 2 2 2 2 0 1 1 2 3 3
2 1 4 3 5 4 l1 3 -7 0 c-4 0 -8 0 -10 1 -2 0 -3 0 -4 -2z" fill="white"/>
<path d="M33 277 c0 -1 1 -3 2 -6 2 -3 3 -7 3 -8 0 -4 3 -6 6 -4 5 3 4 12 -1
16 -2 2 -10 3 -10 2z" fill="white"/>
<path d="M194 274 c-1 -4 -1 -6 4 -11 4 -5 8 -7 11 -7 l3 0 -2 5 c-2 7 -5 14
-6 15 -1 1 -3 1 -5 1 -2 0 -3 -1 -5 -3z" fill="white"/>
<path d="M512 274 c-4 -1 -5 -3 -2 -3 3 -1 9 -2 9 -2 0 2 -2 6 -3 6 0 0 -2 -1
-4 -1z" fill="white"/>
<path d="M211 273 c1 -1 2 -6 4 -11 3 -9 6 -13 8 -11 1 1 1 2 1 6 -1 5 -2 7
-5 11 -4 5 -9 8 -8 5z" fill="white"/>
<path d="M78 270 c0 0 -1 -3 -3 -4 -2 -2 -3 -4 -3 -4 0 -1 2 -1 5 -2 4 -1 4
-1 17 5 8 3 8 3 -5 5 -9 1 -11 1 -11 0z" fill="white"/>
<path d="M543 268 c-1 -1 -3 -2 -4 -3 -4 -1 15 -4 30 -4 l13 -1 -8 2 c-4 1 -9
3 -11 4 -2 1 -3 1 -4 0 -2 -2 -9 -1 -12 1 -3 3 -3 3 -4 1z" fill="white"/>
<path d="M588 265 c-3 -3 -4 -4 -3 -4 4 0 15 4 15 5 0 1 -6 4 -8 4 0 0 -2 -2
-4 -5z" fill="white"/>
<path d="M168 266 c2 -3 8 -8 11 -8 2 0 6 3 6 4 0 1 -2 1 -4 1 -3 0 -6 1 -8 2
-5 3 -6 4 -5 1z" fill="white"/>
<path d="M507 259 l0 -8 4 -1 c16 -4 47 -9 59 -9 4 0 5 1 5 9 l0 5 -8 0 c-8 1
-35 6 -49 9 -5 1 -10 2 -10 2 -1 0 -1 -3 -1 -7z" fill="white"/>
<path d="M94 260 l-10 -5 1 -9 c0 -5 0 -10 1 -11 0 0 3 0 10 3 l10 4 0 11 c0
7 0 12 -1 12 0 0 -5 -2 -11 -5z" fill="white"/>
<path d="M231 260 c-2 -2 -2 -3 -2 -7 0 -6 8 -9 11 -6 2 3 2 11 1 13 -3 2 -7
2 -10 0z" fill="white"/>
<path d="M595 258 c-3 0 -7 -1 -9 -2 l-5 -1 -1 -6 c-1 -8 -1 -9 6 -7 3 1 7 2
10 3 l4 2 0 6 c0 4 0 7 -1 7 0 0 -2 -1 -4 -2z" fill="white"/>
<path d="M50 257 c-2 -1 -1 -1 5 -3 l8 -3 5 2 c5 2 6 3 5 3 -1 2 -21 2 -23 1z" fill="white"/>
<path d="M190 256 c-4 -2 -10 -8 -9 -9 1 0 6 -1 11 -2 l11 -2 5 4 c5 4 5 5 -1
5 -2 0 -5 1 -7 3 -5 2 -6 2 -10 1z" fill="white"/>
<path d="M27 251 l-9 -3 9 -2 c5 -1 9 -2 11 -2 1 0 16 5 17 5 0 1 -9 4 -14 5
-4 0 -6 0 -14 -3z" fill="white"/>
<path d="M71 250 l-5 -2 0 -5 c0 -3 0 -8 1 -11 l1 -5 6 3 7 2 0 9 c-1 12 -1
12 -10 9z" fill="white"/>
<path d="M0 237 l0 -11 5 -1 c3 -1 6 -2 6 -2 1 0 1 5 1 11 l0 12 -5 1 c-3 0
-6 1 -6 1 -1 0 -1 -5 -1 -11z" fill="white"/>
<path d="M50 243 l-10 -4 0 -10 c0 -6 0 -11 1 -11 0 -1 5 1 11 3 l11 4 -1 9
c0 9 -1 12 -2 12 0 0 -5 -2 -10 -3z" fill="white"/>
<path d="M208 242 c-8 -7 -10 -9 -9 -10 2 -1 6 -1 10 0 4 1 13 9 15 12 1 2 1
2 -4 2 -5 0 -6 0 -12 -4z" fill="white"/>
<path d="M510 237 c-1 -4 -1 -13 -1 -20 l0 -13 4 -3 c1 -2 5 -4 8 -5 6 -2 49
-10 50 -10 0 1 2 18 2 24 0 4 0 4 -4 6 -8 3 -22 16 -25 23 -1 0 -5 1 -11 1 -5
1 -12 3 -15 3 -4 1 -7 2 -7 2 0 0 -1 -3 -1 -8z m30 -13 c4 -3 6 -6 6 -10 0
-10 -8 -15 -19 -10 -8 4 -9 14 -2 19 4 2 11 3 15 1z" fill="white"/>
<path d="M17 232 l0 -11 9 -2 c5 -2 10 -3 10 -3 0 0 0 5 -1 12 l0 11 -5 1 c-3
1 -7 2 -9 3 l-4 0 0 -11z" fill="white"/>
<path d="M171 237 c-4 -3 -6 -6 -6 -6 0 -1 7 -1 15 -2 7 -1 15 -2 18 -3 l4 0
-5 2 c-5 2 -5 5 -2 9 l3 3 -9 1 c-5 1 -9 1 -10 2 -2 0 -4 -2 -8 -6z" fill="white"/>
<path d="M222 236 c-5 -5 -8 -7 -11 -8 -2 -1 -5 -2 -5 -2 -1 -2 -1 -65 0 -68
0 -3 1 -3 11 -5 l6 0 -1 18 c0 10 0 25 0 33 0 14 0 15 2 20 2 3 5 8 7 11 3 5
4 7 3 7 -3 2 -6 0 -12 -6z" fill="white"/>
<path d="M241 241 c-2 -3 7 -13 12 -14 2 -1 6 1 6 4 0 1 -15 11 -17 11 0 0 -1
0 -1 -1z" fill="white"/>
<path d="M595 239 c-3 0 -7 -1 -10 -2 -5 0 -6 -1 -6 -4 0 -1 -1 -6 -1 -10 0
-6 0 -7 2 -8 2 0 16 0 17 0 1 1 4 26 2 26 0 0 -2 -1 -4 -2z" fill="white"/>
<path d="M551 237 c0 -2 20 -19 21 -18 1 0 1 4 1 9 l1 8 -7 0 c-3 1 -9 1 -11
2 -3 0 -5 0 -5 -1z" fill="white"/>
<path d="M102 235 c-1 0 -5 -2 -9 -3 l-8 -3 0 -26 c0 -14 1 -25 1 -25 0 0 4 2
8 4 l9 4 0 25 c0 13 1 25 1 25 0 0 -1 0 -2 -1z" fill="white"/>
<path d="M232 229 c-2 -3 -4 -7 -4 -7 0 -1 9 -2 28 -4 8 -1 9 0 12 5 2 3 2 3
-1 4 -2 2 -2 2 -5 -1 -3 -4 -4 -4 -7 -4 -6 0 -10 3 -14 9 -2 2 -4 4 -4 4 -1 0
-3 -3 -5 -6z" fill="white"/>
<path d="M310 222 c0 -5 0 -15 1 -22 l0 -12 4 5 3 4 0 18 0 17 -4 0 -4 0 0
-10z" fill="white"/>
<path d="M303 229 c0 0 -4 -5 -9 -10 l-8 -10 0 -8 c0 -4 0 -16 -1 -26 0 -11
-1 -20 -1 -20 1 0 6 6 11 13 l11 14 -1 24 c0 13 -1 24 -1 24 -1 0 -1 0 -1 -1z" fill="white"/>
<path d="M73 224 l-6 -2 0 -26 c0 -19 0 -25 1 -26 1 -1 3 0 7 3 l6 3 0 26 c0
14 0 25 -1 25 0 0 -3 -1 -7 -3z" fill="white"/>
<path d="M290 226 c-2 -1 -6 -2 -9 -2 -5 0 -6 0 -9 -3 l-3 -4 2 0 c1 -1 5 -1
8 -2 l6 -1 3 4 c4 5 7 9 6 9 0 0 -2 -1 -4 -1z" fill="white"/>
<path d="M164 210 c1 -9 1 -24 2 -33 0 -9 1 -16 1 -16 1 -1 29 -5 31 -5 2 0 3
1 3 32 l0 33 -3 0 c-1 1 -8 2 -14 2 -7 1 -14 2 -16 3 l-4 0 0 -16z" fill="white"/>
<path d="M0 195 l0 -27 2 0 c1 0 4 0 6 -1 l4 0 0 25 0 26 -4 1 c-3 0 -5 1 -6
2 -2 0 -2 -2 -2 -26z" fill="white"/>
<path d="M529 219 c-3 -1 -4 -2 -4 -5 0 -2 0 -3 3 -5 6 -3 12 -2 13 2 1 4 0 8
-3 8 -1 1 -3 1 -4 2 -1 0 -3 -1 -5 -2z" fill="white"/>
<path d="M53 216 c-6 -2 -11 -4 -11 -4 -1 0 -1 -5 -1 -10 l0 -10 4 0 c5 0 8
-2 13 -9 l5 -6 0 11 c0 6 0 16 0 21 l0 11 -10 -4z" fill="white"/>
<path d="M227 215 c-1 -1 -1 -5 -1 -9 l0 -6 3 1 c4 3 9 2 13 -1 l4 -2 3 2 c3
3 10 3 13 0 8 -6 7 -15 -2 -25 -7 -7 -16 -14 -19 -14 -1 0 -5 3 -8 6 l-6 5 1
-10 c0 -5 0 -10 0 -10 1 0 31 -3 41 -4 l10 0 0 4 c1 9 2 58 1 58 0 1 -7 2 -15
2 -7 1 -18 2 -23 3 -5 1 -11 1 -12 2 -2 0 -3 0 -3 -2z" fill="white"/>
<path d="M17 193 c0 -22 0 -23 2 -22 1 1 2 2 2 4 0 4 2 7 9 11 8 5 8 4 6 18
l0 8 -9 2 c-5 1 -9 2 -9 2 -1 0 -1 -10 -1 -23z" fill="white"/>
<path d="M323 206 c0 -8 0 -9 -4 -14 -6 -10 -36 -46 -38 -48 -2 -1 -5 -1 -17
0 -8 1 -14 1 -14 1 -1 0 0 -3 1 -6 6 -15 19 -24 42 -30 6 -2 10 -2 27 -2 17 0
20 0 27 2 12 3 20 7 27 13 4 3 11 8 16 10 l8 5 13 0 c10 0 12 -1 17 -3 l5 -2
3 2 c2 1 5 3 7 4 2 1 3 3 3 5 0 5 -3 13 -8 19 -7 10 -6 10 -26 5 -35 -7 -46
-11 -64 -21 -5 -3 -8 -4 -9 -4 -1 1 -1 2 2 4 9 8 34 18 52 22 10 2 9 2 7 6 -2
7 -12 15 -25 22 -15 7 -45 18 -51 18 -1 0 -1 -3 -1 -8z" fill="white"/>
<path d="M577 210 c0 -3 -1 -23 0 -23 1 0 19 9 20 9 0 0 0 4 0 8 l1 7 -10 0
c-6 0 -10 -1 -11 -1z" fill="white"/>
<path d="M485 208 c-1 0 -4 -4 -6 -8 -7 -11 -18 -18 -35 -24 -4 -1 -7 -2 -8
-2 0 -1 1 -3 4 -6 5 -6 8 -12 10 -20 l1 -6 6 3 c13 8 30 12 39 11 8 -2 39 -4
54 -5 12 0 15 0 18 1 2 2 3 3 3 4 0 2 -1 3 -5 5 -2 0 -6 2 -7 2 -2 1 -4 2 -5
4 -2 3 -10 8 -19 13 -9 5 -18 11 -28 19 -13 11 -17 13 -22 9z" fill="white"/>
<path d="M158 204 c-6 -8 -8 -22 -6 -31 2 -10 5 -14 12 -22 13 -12 28 -18 45
-17 10 1 18 3 27 7 4 3 7 5 5 5 0 0 -12 1 -25 3 -36 4 -51 7 -53 9 -1 1 -2 6
-2 24 -1 13 -1 23 -1 24 -1 0 -2 -1 -2 -2z" fill="white"/>
<path d="M231 197 c-3 -3 -4 -3 -4 -10 l0 -7 7 -7 c3 -4 7 -7 7 -7 2 0 17 13
19 17 5 7 0 17 -8 14 -1 -1 -3 -3 -4 -3 -2 -3 -4 -2 -7 1 -4 4 -6 4 -10 2z" fill="white"/>
<path d="M35 184 c-3 -2 -7 -4 -8 -5 l-2 -3 3 -7 c8 -14 18 -24 29 -29 12 -5
16 -6 43 -3 9 0 14 -1 18 -7 l2 -4 -1 -8 c-4 -14 -2 -19 7 -24 5 -2 6 -2 21
-2 9 0 17 0 18 1 2 1 2 1 -3 4 -3 1 -6 3 -6 4 0 0 2 3 4 5 2 2 4 4 4 4 0 1 -3
0 -6 0 -5 -1 -9 -1 -14 0 -17 2 -21 9 -17 26 1 8 1 9 0 11 -3 4 -9 5 -20 4
-19 -1 -26 0 -36 9 -3 4 -9 10 -12 14 -12 15 -13 15 -24 10z m13 -15 c2 -1 4
-5 3 -6 0 -1 -2 0 -6 3 -5 4 -2 7 3 3z" fill="white"/>
<path d="M19 165 c-2 -1 -7 -4 -11 -6 -5 -3 -8 -5 -8 -6 1 -2 32 -20 55 -32
l10 -5 4 2 c3 1 22 11 23 12 0 0 -5 1 -11 1 -13 0 -18 1 -29 7 -10 5 -16 11
-23 21 -3 5 -6 9 -6 9 0 0 -2 -1 -4 -3z" fill="white"/>
<path d="M402 132 c-2 -1 -2 -1 2 -2 7 -2 14 -5 19 -10 8 -7 11 -19 5 -27 -3
-5 -3 -6 2 -3 5 3 8 6 9 10 7 16 -7 31 -27 33 -4 0 -9 0 -10 -1z" fill="white"/>
<path d="M583 132 c-14 -2 -21 -7 -19 -12 0 -2 2 -3 4 0 2 2 9 5 17 6 5 1 7 2
7 3 -1 1 -1 2 -1 3 0 1 0 1 -8 0z" fill="white"/>
<path d="M486 125 c-3 -1 -3 -1 -2 -2 2 -1 11 -1 14 0 1 2 1 2 -1 3 -4 1 -8 1
-11 -1z" fill="white"/>
<path d="M584 122 c-4 -1 -9 -3 -13 -6 -2 -1 3 -3 13 -6 4 -1 9 -3 12 -5 l4
-2 0 10 0 10 -6 0 c-4 0 -8 -1 -10 -1z" fill="white"/>
<path d="M498 119 c-3 -1 -10 -2 -14 -1 -2 1 -2 1 -2 -1 0 -3 3 -4 10 -4 6 0
9 1 9 5 0 2 -1 2 -3 1z" fill="white"/>
<path d="M8 113 c-1 0 -4 -1 -5 -2 -3 -2 -3 -3 -3 -8 0 -5 0 -6 3 -8 3 -3 18
-8 31 -11 l10 -2 2 2 2 3 -4 7 c-4 9 -8 13 -15 16 -6 3 -15 5 -21 3z m20 -7
c5 -3 7 -4 7 -6 2 -5 -1 -7 -9 -7 -14 0 -23 10 -13 15 5 2 8 1 15 -2z" fill="white"/>
<path d="M475 109 c-2 -2 -3 -4 -3 -5 2 -2 12 -4 21 -4 15 -1 21 4 14 10 -2 2
-2 2 -6 0 -4 -2 -14 -2 -19 0 -4 2 -4 2 -7 -1z" fill="white"/>
<path d="M581 103 c6 -8 7 -14 5 -19 -4 -6 -11 -8 -22 -4 -17 4 -28 -2 -19
-11 l2 -3 4 3 c4 2 9 3 20 1 13 -2 22 0 27 8 2 3 2 5 2 10 0 7 0 8 -3 10 -2 3
-8 5 -15 8 l-2 0 1 -3z" fill="white"/>
<path d="M14 103 c-2 -1 3 -4 10 -5 7 -1 9 0 6 2 -5 3 -13 5 -16 3z" fill="white"/>
<path d="M230 100 c-21 -11 -30 -15 -38 -20 -11 -6 -20 -12 -21 -14 0 0 5 -2
11 -4 6 -3 21 -9 34 -14 13 -5 24 -9 24 -8 6 3 55 44 54 44 -1 2 -56 19 -57
19 0 0 -3 -2 -7 -3z m2 -14 c2 -2 3 -3 4 -4 0 -2 1 -2 4 -1 5 2 9 1 12 -1 6
-4 3 -11 -7 -15 -7 -3 -22 -4 -24 -2 -2 1 -4 13 -4 17 1 4 6 8 10 8 2 0 4 -1
5 -2z" fill="white"/>
<path d="M391 98 c-3 0 -7 -2 -9 -4 -7 -5 -6 -10 0 -6 8 6 20 7 31 5 7 -2 7
-2 9 0 3 3 2 4 -5 6 -9 1 -20 1 -26 -1z" fill="white"/>
<path d="M472 93 c0 -5 1 -5 5 -7 6 -2 22 -2 29 0 l5 2 0 5 c0 3 0 5 0 5 -1 0
-3 -1 -5 -1 -8 -3 -23 -2 -32 2 -2 0 -2 0 -2 -6z" fill="white"/>
<path d="M0 85 l0 -6 5 2 c3 0 7 1 9 1 l5 0 -4 2 c-2 1 -6 2 -9 4 l-6 3 0 -6z" fill="white"/>
<path d="M395 89 c-4 -1 -11 -4 -11 -5 0 -2 18 -3 26 0 7 2 8 4 3 4 -8 2 -13
2 -18 1z" fill="white"/>
<path d="M223 81 c-1 -2 -1 -5 0 -9 0 -5 1 -6 4 -6 9 -1 22 4 23 8 0 3 -3 4
-10 3 -4 -1 -6 -2 -7 -2 0 1 -1 2 -2 4 -2 5 -6 5 -8 2z" fill="white"/>
<path d="M472 77 c0 -7 2 -9 10 -12 8 -2 17 -1 24 2 l5 3 0 6 0 7 -4 -2 c-6
-2 -22 -2 -29 0 -3 1 -6 2 -6 2 0 0 0 -3 0 -6z" fill="white"/>
<path d="M48 81 c-3 -3 1 -8 5 -6 4 1 2 7 -2 7 -1 0 -2 -1 -3 -1z" fill="white"/>
<path d="M66 80 c-6 0 -6 0 -6 -3 l0 -3 7 0 c12 0 20 0 32 2 6 0 12 1 12 1 1
2 -35 4 -45 3z" fill="white"/>
<path d="M23 78 c-8 0 -16 -1 -19 -2 l-4 -1 0 -9 0 -9 3 -1 c5 -2 12 -1 18 1
4 1 18 11 23 15 1 0 0 2 -1 4 -1 2 -2 3 -3 3 -2 0 -9 -1 -17 -1z m5 -7 c0 -2
-7 -9 -12 -10 -8 -2 -15 2 -12 8 2 3 6 5 16 5 7 0 8 -1 8 -3z" fill="white"/>
<path d="M13 69 c-5 -1 -6 -4 -2 -4 4 0 12 3 10 4 -2 1 -5 1 -8 0z" fill="white"/>
<path d="M74 65 c11 -5 23 -9 26 -9 3 0 2 1 -10 8 -11 6 -12 6 -18 6 l-7 0 9
-5z" fill="white"/>
<path d="M336 67 c-6 -1 -13 -5 -18 -10 -5 -4 -5 -4 -8 -2 -1 0 -4 2 -5 3 -2
2 -3 2 -5 2 -3 -2 -2 -4 3 -6 7 -4 11 -4 19 1 11 7 16 9 20 10 4 0 4 0 5 -3 2
-4 2 -3 3 -2 2 2 2 4 1 6 -2 2 -11 2 -15 1z" fill="white"/>
<path d="M433 55 c-6 -7 -17 -12 -43 -17 -21 -4 -23 -5 -21 -6 2 -1 2 -2 2 -7
0 -3 0 -6 1 -6 0 0 13 4 28 9 17 5 24 9 29 14 5 5 9 12 8 15 0 1 -2 0 -4 -2z" fill="white"/>
<path d="M519 39 l-14 -5 5 -2 c10 -6 13 -6 20 -5 4 1 7 1 9 0 2 -1 4 0 13 3
l11 4 -11 4 c-6 3 -12 5 -14 6 -3 0 -9 -2 -19 -5z" fill="white"/>
<path d="M44 41 c-4 -3 -5 -5 -5 -12 1 -8 3 -11 10 -13 7 -3 16 -2 16 1 0 2
-1 4 -7 6 -3 2 -5 3 -5 4 -1 2 7 1 10 -1 3 -1 3 -1 4 1 2 3 1 5 -2 9 -6 7 -15
9 -21 5z" fill="white"/>
<path d="M103 42 c-8 -2 -18 -11 -16 -14 1 -2 1 -2 7 0 9 4 9 0 0 -4 -3 -2 -5
-3 -5 -5 -1 -4 6 -6 14 -2 3 2 4 3 7 8 5 11 2 19 -7 17z" fill="white"/>
<path d="M492 30 l-4 -2 3 -1 c1 -1 7 -3 13 -6 9 -4 10 -4 13 -3 4 2 4 4 -1 6
-2 1 -7 3 -11 5 -4 1 -7 3 -8 3 0 0 -3 -1 -5 -2z" fill="white"/>
<path d="M559 27 c-5 -2 -10 -3 -10 -4 -1 0 -1 -2 0 -3 1 -2 1 -2 15 3 l13 4
-3 2 c-2 1 -4 2 -4 2 -1 0 -6 -2 -11 -4z" fill="white"/>
<path d="M73 27 c-2 -2 -4 -7 -4 -10 0 -2 4 -5 8 -5 5 0 6 2 7 7 0 5 -2 9 -7
10 -2 0 -3 0 -4 -2z" fill="white"/>
<path d="M180 27 c-4 -1 -6 -2 -6 -4 -2 -4 -1 -6 4 -8 5 -3 16 -2 19 1 3 3 3
6 1 10 -3 3 -11 4 -18 1z m13 -3 c2 -3 0 -5 -4 -6 -6 -2 -13 4 -8 7 3 2 11 1
12 -1z" fill="white"/>
<path d="M465 20 c-9 -3 -17 -7 -18 -7 -3 -1 -4 -3 -1 -4 0 0 5 -2 9 -5 5 -3
9 -4 11 -4 5 0 43 14 41 15 -1 1 -25 11 -26 11 0 0 -7 -3 -16 -6z" fill="white"/>
<path d="M566 19 c-7 -2 -15 -5 -16 -6 -2 -2 -2 -2 10 -7 12 -6 13 -6 22 -6 7
0 10 0 13 2 l5 2 0 6 0 7 -8 3 c-5 2 -9 4 -10 4 -1 0 -8 -2 -16 -5z" fill="white"/>
<path d="M31 22 c-1 -2 -1 -2 1 -3 4 0 5 0 4 2 -1 2 -2 2 -5 1z" fill="white"/>
<path d="M113 19 l-3 -4 4 -2 4 -2 9 3 c5 1 9 3 8 3 0 1 -18 6 -19 6 0 0 -2
-2 -3 -4z" fill="white"/>
<path d="M527 22 c-4 -2 -4 -3 -3 -6 3 -5 14 -7 19 -3 6 4 2 9 -7 10 -3 0 -7
-1 -9 -1z" fill="white"/>
<path d="M13 15 c-4 -2 -8 -3 -8 -3 0 -1 2 -2 5 -3 l6 -1 9 3 c8 4 8 4 6 5 -6
2 -11 2 -18 -1z" fill="white"/>
<path d="M33 10 c-4 -2 -8 -4 -9 -4 0 -1 4 -2 9 -3 8 -3 8 -3 11 -1 1 1 6 3
10 5 l7 3 -7 0 c-3 0 -8 1 -10 2 -2 2 -3 1 -11 -2z" fill="white"/>
<path d="M102 12 c-2 -1 -5 -1 -8 -1 -10 0 -10 -1 -3 -4 8 -2 10 -2 17 0 5 2
5 2 3 3 -7 3 -8 3 -9 2z" fill="white"/>
<path d="M130 10 c-7 -3 -8 -3 -8 -6 l0 -4 9 0 10 0 0 7 c0 7 0 7 -11 3z" fill="white"/>
<path d="M501 7 l-17 -6 11 -1 c11 0 12 0 21 4 l10 4 -3 2 c-1 2 -3 3 -4 3 -1
0 -9 -3 -18 -6z" fill="white"/>
<path d="M1 4 l0 -4 7 0 c6 0 7 0 7 2 0 1 -2 2 -6 3 -3 1 -6 2 -7 3 -1 0 -1
-1 -1 -4z" fill="white"/>
<path d="M60 4 l-9 -4 19 0 c11 0 20 0 21 1 2 0 1 1 -5 3 -11 5 -15 5 -26 0z" fill="white"/>
<path d="M539 7 l-5 -1 5 -3 c4 -3 5 -3 14 -3 l9 0 -8 4 c-4 2 -8 4 -8 4 -1 0
-4 -1 -7 -1z" fill="white"/>
<path d="M442 3 c0 -3 0 -3 5 -3 3 0 5 0 5 0 0 1 -2 2 -5 4 l-5 2 0 -3z" fill="white"/>
<path d="M110 2 l-6 -2 7 0 c7 0 7 0 7 3 0 3 -1 3 -8 -1z" fill="white"/>
<path d="M523 1 c-3 -1 -3 -1 4 -1 7 0 7 0 5 2 -4 1 -6 1 -9 -1z" fill="white"/>
</g>
</svg>
