<?xml version="1.0" encoding="UTF-8"?>
<svg width="600" height="800" viewBox="0 0 600 800" fill="none" xmlns="http://www.w3.org/2000/svg">
<g transform="translate(0,800) scale(1,-1)">
<path d="M36 614 c0 -153 -1 -185 -2 -186 -1 0 -9 -3 -18 -5 -12 -3 -16 -5
-16 -6 0 -1 1 -1 2 -1 7 2 43 10 48 11 l5 0 0 -4 0 -4 -6 -1 c-7 -1 -12 -4
-15 -10 -3 -6 -3 -13 0 -21 1 -3 2 -6 2 -6 0 0 -8 -2 -18 -5 -13 -4 -18 -6
-18 -7 0 -2 0 -2 2 -1 6 1 28 8 32 9 4 2 4 2 8 -2 4 -3 10 -5 16 -6 2 0 4 -3
5 -6 3 -6 4 -7 9 -9 8 -4 21 -6 34 -4 13 1 18 4 21 9 3 7 7 23 9 38 0 8 1 15
2 15 0 1 7 2 10 1 5 -1 6 -3 4 -8 -5 -12 -26 -59 -27 -60 -2 -2 -39 -13 -43
-13 -3 0 -70 12 -80 15 -1 0 -2 0 -2 -2 0 -1 5 -2 36 -8 19 -4 36 -8 37 -8 2
-1 -30 -11 -36 -11 -4 0 -13 2 -35 7 -2 0 -2 0 -2 -2 0 -1 2 -2 5 -2 6 -2 7
-3 7 -9 0 -4 -1 -5 -6 -7 -4 -2 -6 -4 -6 -5 0 -2 2 -1 10 3 6 3 20 8 32 12 16
5 71 22 79 25 3 0 -6 -15 -36 -62 -16 -25 -30 -47 -32 -51 l-4 -6 0 4 c-1 38
-3 52 -13 61 -7 7 -19 11 -29 10 -7 -2 -4 -3 5 -3 8 -1 10 -1 15 -4 9 -5 15
-14 17 -29 1 -5 1 -17 1 -27 l0 -19 -4 -10 c-11 -24 -13 -47 -8 -64 l2 -6 -6
-19 c-9 -29 -9 -38 2 -45 l4 -3 0 -34 c0 -29 0 -33 2 -33 1 0 1 2 1 9 0 5 0 9
0 9 0 0 6 -2 13 -4 l13 -4 -1 -5 c0 -4 0 -5 2 -5 1 0 2 2 2 5 0 2 0 4 1 4 0 0
7 -2 15 -5 11 -2 18 -4 21 -4 l6 0 -11 3 c-16 5 -60 18 -60 18 -1 0 -1 10 -1
22 0 22 0 22 2 22 5 0 11 -5 13 -12 2 -7 4 -11 9 -16 6 -5 11 -7 24 -10 12 -3
15 -4 23 -12 6 -7 12 -11 22 -13 7 -2 55 -2 51 0 -6 2 -14 3 -25 2 -23 -2 -37
2 -47 14 -5 6 -11 9 -23 12 -18 4 -27 11 -30 23 -2 8 -4 10 -14 14 -18 8 -20
11 -15 31 6 29 28 80 52 121 39 65 68 87 112 87 l11 0 20 -11 c11 -6 22 -13
24 -15 2 -1 5 -3 5 -3 3 0 -1 -2 -11 -5 -23 -9 -41 -19 -56 -34 -12 -12 -30
-35 -27 -35 1 0 4 4 8 10 10 13 26 29 37 36 12 8 29 16 45 22 33 10 47 11 66
1 8 -4 18 -11 39 -29 18 -14 35 -27 46 -35 5 -2 8 -5 9 -5 0 0 -4 -1 -9 -2 -9
-2 -17 -6 -27 -11 -6 -4 -6 -4 -15 -3 -23 1 -46 -11 -58 -31 -1 -2 -5 -5 -8
-8 -10 -7 -21 -22 -21 -29 0 -2 1 -5 2 -8 l2 -4 -7 -8 c-12 -15 -18 -28 -18
-40 0 -3 0 -12 0 -19 1 -17 0 -23 -5 -34 -4 -6 -4 -6 -1 -6 1 0 2 1 5 8 2 4 4
11 5 15 1 6 8 29 9 30 0 0 3 -1 8 -2 21 -7 94 -27 128 -34 26 -6 39 -8 51 -8
17 0 21 1 81 33 42 21 46 24 50 29 3 3 4 6 3 6 -1 0 -3 -2 -5 -4 -5 -6 -4 -5
-49 -29 -38 -20 -58 -29 -69 -32 -17 -4 -55 4 -159 33 -19 5 -35 10 -36 10 -2
1 -2 2 -1 4 1 3 1 4 0 4 -1 0 -4 -6 -8 -15 -2 -8 -3 -8 -3 -5 -1 4 -1 16 0 22
1 8 8 20 15 30 3 4 6 8 7 8 0 0 1 -1 3 -1 3 -3 8 -2 11 0 l2 3 0 -6 c-1 -3 -1
-7 -1 -9 0 -4 0 -4 -7 -8 -10 -7 -13 -12 -11 -19 2 -5 5 -7 13 -8 8 -2 14 0
21 4 l5 3 4 -1 c6 -3 17 -4 22 -2 4 1 5 0 3 -3 -2 -2 -2 -8 0 -11 4 -6 16 -8
27 -6 l6 1 4 -4 c10 -10 22 -13 46 -13 20 -1 26 1 44 11 17 8 24 11 41 15 15
5 23 9 30 15 6 7 10 14 12 23 1 4 2 7 2 7 3 0 18 -5 24 -7 11 -5 12 -8 14 -32
1 -16 1 -28 -1 -33 -3 -6 -8 -11 -16 -17 -6 -4 -7 -5 -5 -5 2 0 5 2 9 4 3 2 6
4 7 4 0 0 0 -2 0 -4 0 -3 0 -4 2 -4 1 0 1 1 1 5 0 5 1 8 4 14 l3 7 1 41 c1 47
1 76 -1 84 -4 16 -15 24 -37 25 -7 0 -10 0 -12 -1 -2 -1 -1 -2 10 -2 10 -1 14
-1 18 -3 8 -3 15 -10 17 -15 2 -9 4 -67 2 -80 l-1 -5 0 3 c-1 6 -4 11 -7 13
-3 2 -13 6 -24 9 -4 1 -7 3 -8 4 -1 0 -2 3 -2 6 -2 11 -9 20 -18 27 -3 2 -6 4
-6 4 0 1 1 7 2 15 4 26 9 33 40 52 6 3 16 9 22 12 5 4 10 7 10 8 0 2 0 1 -8
-3 -4 -2 -7 -3 -7 -3 -1 1 -11 43 -11 44 1 0 6 -1 12 -2 13 -3 14 -3 14 -2 0
2 -4 3 -20 6 -4 1 -7 2 -8 3 0 2 -3 12 -7 23 -4 17 -5 24 -6 34 -1 14 -6 44
-11 61 -10 38 -25 69 -48 99 -6 8 -7 8 -9 20 -11 43 -29 87 -51 120 -4 6 -7
11 -7 12 0 1 48 0 72 -2 33 -3 40 -3 69 -8 28 -4 26 -3 26 -1 0 0 0 1 -1 1 0
0 -11 2 -25 3 -41 6 -64 8 -109 10 -16 1 -30 1 -32 1 -2 0 -5 2 -15 12 -18 19
-33 28 -53 33 -35 9 -83 -6 -112 -34 -9 -9 -16 -17 -24 -30 l-5 -8 -10 -2
c-32 -4 -46 -20 -56 -66 -7 -38 -11 -68 -13 -112 l0 -15 -4 0 -4 0 0 5 c0 7
-1 8 -9 11 -8 3 -19 4 -39 3 -19 -1 -22 -1 -28 -5 -8 -3 -7 -15 -7 128 0 114
0 129 2 133 1 4 1 5 -1 10 -1 6 -1 7 0 23 1 9 3 19 4 23 3 13 12 27 21 29 7 2
15 -1 19 -7 l2 -3 -4 -5 -4 -4 0 -52 0 -52 3 -3 c2 -2 3 -2 11 -2 10 0 18 2
35 7 20 7 48 22 60 33 6 5 12 13 12 15 0 4 2 2 -67 55 -10 8 -20 15 -22 15 -2
1 -4 1 -7 0 -5 -1 -6 -1 -9 4 -6 9 -15 14 -25 14 -5 0 -14 -4 -20 -8 -9 -6
-17 -21 -21 -39 0 -5 -1 -15 -2 -24 -1 -32 -2 -17 -2 30 0 43 0 49 -1 49 -2 0
-2 -22 -2 -186z m58 172 c6 -2 10 -6 13 -10 3 -5 3 -6 0 -7 -2 0 -3 1 -7 4
-11 11 -20 11 -32 0 -10 -11 -13 -20 -16 -49 l-1 -19 -4 0 -3 0 0 10 c0 17 4
40 9 51 9 18 28 27 41 20z m33 -16 c2 -1 7 -5 13 -10 7 -5 23 -17 37 -28 14
-10 25 -19 25 -20 1 -1 -1 -1 -4 -1 -25 0 -71 -21 -94 -43 l-8 -7 0 48 0 49 2
2 c4 3 13 9 18 10 4 2 8 2 11 0z m81 -64 c6 -2 -4 -13 -19 -23 -21 -14 -46
-25 -67 -29 -7 -2 -18 -2 -22 -1 -10 2 18 27 48 41 9 4 24 10 33 12 7 1 25 1
27 0z m-155 -6 c2 -4 0 -8 -5 -8 -5 0 -7 2 -7 5 0 3 2 5 7 5 3 0 4 -1 5 -2z
m-12 -140 c0 -85 0 -130 -1 -130 -1 -1 -1 43 -1 129 0 87 0 131 1 131 1 0 1
-44 1 -130z m10 0 l0 -129 -3 -1 -3 -1 0 130 0 130 3 0 3 0 0 -129z m315 120
c27 -8 50 -27 71 -59 20 -30 37 -70 48 -112 7 -27 8 -45 3 -57 -3 -7 -3 -9 0
-5 4 5 6 13 7 25 l0 11 5 -6 c20 -26 35 -58 44 -94 4 -16 9 -41 11 -53 2 -17
0 -50 -5 -81 -1 -6 -2 -12 -2 -12 0 0 0 0 1 0 2 0 8 34 10 53 0 6 1 8 1 6 1
-1 5 -19 11 -40 6 -21 10 -39 10 -40 1 0 -5 -5 -13 -9 -15 -10 -28 -19 -32
-24 -7 -8 -10 -18 -12 -36 -1 -6 -1 -10 -1 -10 -1 0 -12 5 -16 6 -6 3 -7 5
-14 16 -14 25 -38 39 -69 43 -6 1 -10 1 -11 2 -4 1 -15 19 -19 30 -3 9 -5 17
-6 43 -2 22 -4 32 -9 44 -2 3 -3 6 -3 6 2 1 19 -4 26 -8 18 -9 26 -17 44 -47
6 -10 13 -21 16 -25 7 -9 21 -23 28 -28 9 -6 7 -3 -3 7 -6 5 -13 12 -17 16 -6
7 -37 58 -37 59 1 0 11 -4 19 -8 10 -4 23 -13 30 -21 4 -3 7 -5 7 -5 4 0 -4 9
-18 19 -9 6 -23 14 -33 17 -6 2 -11 5 -15 8 -7 4 -18 11 -22 13 -2 1 -3 1 -3
2 0 2 15 13 24 17 6 4 7 6 1 3 -6 -2 -15 -7 -21 -13 -9 -7 -9 -7 -10 -5 -1 1
6 20 13 34 11 21 20 34 45 64 12 14 19 24 19 26 0 2 -2 1 -5 -4 -1 -3 -8 -11
-14 -18 -32 -37 -51 -67 -59 -92 l-2 -9 -6 0 c-8 1 -10 2 -11 4 -1 3 -1 24 0
29 1 5 1 8 -1 5 -2 -3 -3 -16 -3 -23 l1 -6 -7 7 c-4 4 -9 8 -11 9 -4 2 -4 4
-3 10 4 14 9 24 26 51 17 26 23 39 29 66 4 22 3 47 -4 69 -9 33 -35 76 -56 97
-11 10 -25 15 -42 14 -30 -2 -59 -25 -69 -54 -3 -11 -3 -25 -1 -36 4 -15 3
-28 -4 -44 -5 -14 -7 -22 -5 -29 1 -9 5 -15 12 -22 l6 -6 -6 -14 c-7 -13 -8
-18 -6 -16 1 0 4 7 8 15 l8 14 5 -5 5 -6 -5 -3 c-13 -9 -18 -15 -29 -36 -4 -8
-7 -15 -8 -15 0 0 -3 3 -8 6 -9 7 -22 16 -25 16 -1 0 -3 -1 -4 -2 -2 -1 -12
-3 -12 -2 0 0 12 21 21 35 18 31 22 43 33 106 8 48 14 61 37 84 18 17 40 29
65 34 12 3 37 2 47 -1z m-43 -25 c16 -5 29 -19 49 -52 14 -24 23 -45 27 -65 3
-13 4 -37 2 -48 -3 -15 -4 -20 -5 -20 0 0 -2 2 -3 5 -3 5 -3 7 -3 15 0 9 -1
12 -3 5 -1 -5 0 -13 1 -18 1 -2 3 -5 5 -8 3 -4 3 -3 0 -14 -1 -1 -2 -1 -5 1
-7 3 -11 6 -14 12 -2 5 -2 6 -2 14 1 7 2 11 5 21 9 22 8 36 -1 57 -2 5 -3 8
-3 9 0 0 5 -5 10 -10 4 -5 9 -10 9 -10 2 0 -5 10 -10 16 -9 8 -12 11 -30 20
-24 13 -32 19 -38 30 -2 4 -3 6 -3 15 l0 11 -3 -5 c-6 -10 -28 -41 -33 -46 -3
-3 -8 -7 -10 -8 -4 -3 -4 -3 -2 -3 4 0 11 5 16 10 2 3 8 12 14 20 6 8 11 16
12 16 2 2 2 2 2 -2 2 -10 10 -21 23 -30 4 -2 13 -7 21 -11 l14 -7 4 -9 c2 -5
5 -12 7 -16 3 -8 3 -10 3 -19 1 -18 -2 -25 -13 -35 -19 -18 -39 -28 -51 -25
-12 1 -29 12 -40 23 -10 10 -13 18 -16 36 -2 8 -4 20 -6 26 -2 6 -4 12 -4 13
0 2 2 4 7 8 4 3 9 9 12 12 5 8 11 19 11 22 -1 2 -1 2 -3 -2 -8 -15 -17 -27
-28 -34 -7 -4 -7 -4 -5 -5 1 -1 2 -1 2 -1 0 0 2 -7 4 -16 3 -8 6 -20 6 -25 3
-18 7 -27 18 -37 4 -5 20 -16 22 -17 2 -1 -1 -7 -5 -11 l-4 -4 0 5 c-1 7 -4
13 -8 16 -4 5 -5 3 -1 -3 4 -6 6 -13 5 -19 -1 -2 -3 -7 -5 -11 -6 -8 -6 -11 0
-4 2 2 6 7 9 10 2 3 5 5 5 5 0 0 1 -2 1 -5 1 -9 5 -15 13 -22 11 -9 16 -13 17
-13 1 0 3 2 4 5 6 9 20 21 40 35 l6 4 5 -4 c2 -2 6 -4 9 -5 2 -1 4 -3 4 -3 0
0 -4 -2 -8 -5 -22 -11 -47 -26 -47 -28 0 -1 2 0 26 13 12 7 24 13 25 14 l2 0
-2 -4 c-1 -3 -8 -14 -16 -25 -15 -24 -21 -36 -24 -48 -2 -8 -3 -9 -4 -8 -1 0
-2 1 -3 1 0 1 -3 9 -6 19 -6 19 -6 20 -9 20 -2 1 -4 3 -6 5 -4 5 -10 6 -23 6
-16 -2 -30 -5 -47 -13 -2 0 -2 0 -2 13 1 8 1 14 0 14 -1 0 -2 -6 -3 -17 l0
-12 -7 -6 c-4 -3 -8 -5 -8 -5 -1 0 -3 4 -7 8 l-5 8 1 5 c3 8 10 22 15 29 4 6
14 16 19 19 3 1 3 1 4 0 2 -3 2 -10 1 -13 -1 -2 -1 -3 1 -3 4 0 4 14 0 22 -3
5 -5 7 -15 16 -5 4 -11 10 -13 13 -3 4 -3 6 -4 12 0 8 1 13 8 32 4 13 5 24 2
38 -4 20 -2 32 5 46 9 17 25 31 42 38 13 4 30 5 41 1z m-100 -49 c-2 -2 -6
-24 -10 -48 -10 -58 -11 -62 -40 -112 -7 -13 -14 -24 -15 -25 -2 -1 -3 -3 -3
-5 0 -2 0 -2 -4 0 -4 1 -4 -1 -1 41 4 43 5 55 10 79 11 52 23 68 55 71 7 1 8
0 8 -1z m146 -122 c-1 -5 -1 -10 0 -12 2 -7 2 -7 -9 -15 -6 -3 -14 -9 -18 -13
-5 -3 -8 -6 -8 -6 -1 0 -3 3 -5 6 l-4 5 1 3 c2 3 2 6 0 12 0 1 0 2 5 3 10 4
28 16 36 24 1 2 2 3 3 3 0 0 -1 -5 -1 -10z m-59 -16 l9 -3 0 -7 c1 -6 1 -7 6
-14 3 -5 5 -8 5 -9 1 -1 -7 -13 -8 -13 -2 0 -12 8 -17 13 -6 7 -9 13 -9 20 0
7 3 16 4 16 1 -1 5 -2 10 -3z m14 -11 l0 -3 -1 3 c0 1 -1 3 -1 5 0 1 0 1 1 0
1 -1 1 -3 1 -5z m-208 -25 c10 -1 17 -3 18 -6 0 0 -2 -1 -4 -2 -5 -2 -5 -2 -8
-1 -2 2 -7 2 -22 3 -16 0 -20 0 -25 -1 -7 -2 -7 -2 -11 0 -4 1 -4 1 -2 3 1 2
10 4 19 5 7 1 25 1 35 -1z m-5 -10 c5 0 6 -1 4 -1 -3 -1 -30 -1 -34 0 l-3 0 4
1 c5 1 20 1 29 0z m71 -1 c14 -7 31 -21 38 -33 6 -8 7 -12 5 -13 -3 -2 -4 -1
-10 5 -8 7 -17 15 -37 28 -8 5 -14 9 -14 10 0 0 1 0 2 1 2 1 9 -2 21 -10 12
-8 23 -17 29 -25 6 -8 8 -8 3 -1 -5 10 -18 21 -35 31 -10 6 -10 6 -8 7 2 2 2
2 6 0z m-115 -1 c17 -5 40 -5 59 0 4 0 7 1 8 1 0 -1 -1 -17 -4 -35 -1 -14 -5
-26 -9 -29 -5 -4 -18 -6 -33 -4 -15 2 -21 5 -23 17 -4 12 -8 52 -6 52 1 0 4
-1 8 -2z m-12 -8 c0 -2 0 -3 -2 -3 -6 0 -11 -5 -11 -11 0 -8 4 -13 12 -18 4
-2 6 -3 6 -5 0 -3 0 -3 -2 -3 -4 0 -12 4 -16 8 -5 5 -6 9 -6 17 -1 11 3 16 13
18 5 1 5 1 6 -3z m116 -4 c7 -4 19 -12 27 -18 14 -10 14 -11 16 -16 1 -4 8
-24 16 -46 8 -22 14 -39 14 -40 0 0 -45 24 -46 24 0 1 1 2 3 2 4 2 8 11 9 19
1 7 0 10 -6 12 -3 2 -4 3 -4 4 1 1 1 3 0 4 -1 3 -3 4 -17 9 -6 3 -7 3 -8 8
-14 38 -17 46 -16 46 0 0 6 -4 12 -8z m-6 -20 c4 -11 7 -20 7 -21 1 -1 0 -2
-2 -4 -5 -3 -5 -6 -3 -9 1 -3 2 -5 1 -8 0 -4 0 -5 1 -7 1 -2 2 -4 2 -8 0 -3 1
-5 2 -6 1 -1 2 -4 2 -5 1 -2 2 -5 3 -6 4 -3 3 -4 -9 -7 -6 -2 -14 -4 -18 -6
-5 -2 -7 -3 -7 -2 -1 2 -2 16 -2 28 1 11 1 15 6 31 0 1 0 1 -2 -1 -1 -1 -3 -6
-4 -10 -2 -7 -2 -11 -2 -24 0 -9 0 -19 0 -22 l1 -5 -5 -3 c-7 -5 -24 -23 -34
-35 -7 -9 -8 -11 -11 -11 -2 0 -4 0 -6 2 -1 2 -2 3 -3 3 -5 0 -7 -5 -7 -12 1
-7 2 -8 6 -8 4 1 5 4 -12 -26 -11 -21 -12 -23 -14 -22 -3 2 -7 0 -9 -4 -1 -4
-1 -6 1 -11 l1 -5 -5 -12 c-3 -6 -6 -12 -6 -12 -2 -2 -3 11 -3 23 1 16 4 27
12 45 7 13 13 23 45 73 30 46 40 66 57 106 5 12 9 21 10 21 0 0 3 -9 7 -20z
m146 17 c1 -1 3 -2 3 -2 0 0 -4 0 -8 0 -10 0 -28 -2 -40 -6 -9 -2 -25 -9 -29
-13 -3 -3 -3 -2 8 3 18 8 38 13 56 13 20 0 19 -1 -5 -6 -25 -5 -44 -9 -57 -14
-5 -2 -10 -3 -10 -3 -1 1 10 11 15 14 19 12 56 20 67 14z m-255 -5 c2 -11 1
-12 -2 -13 -5 -1 -5 -1 -7 6 -2 3 -2 6 -2 7 1 3 5 6 9 6 1 0 2 -1 2 -6z m277
-31 c4 -15 7 -27 7 -27 0 0 -5 1 -11 3 -14 4 -24 6 -31 6 -8 0 -11 -1 -10 -6
1 -2 1 -3 0 -3 -1 0 -3 -1 -4 -1 -3 -1 -3 -2 -3 -7 0 -7 1 -10 6 -13 1 -1 2
-3 2 -4 0 -5 4 -9 17 -18 13 -9 14 -10 11 -10 -7 -2 -49 -8 -50 -8 0 0 -7 22
-16 48 l-16 47 7 2 c16 5 74 17 79 17 l3 0 9 -26z m-275 14 c0 -1 -1 -1 -2 -1
0 1 -1 1 -2 1 0 0 0 0 1 1 0 2 3 1 3 -1z m181 -29 c3 -10 11 -31 16 -46 7 -21
9 -28 8 -28 -2 -1 -8 -1 -11 0 -2 2 -2 3 -20 52 -7 20 -13 37 -13 38 -1 1 0 1
3 1 2 0 5 0 6 1 1 0 3 1 4 1 0 0 4 -8 7 -19z m-54 5 c8 -3 15 -9 11 -11 -3 0
-23 4 -25 6 -2 2 -3 4 -1 6 2 2 7 1 15 -1z m164 -8 c7 -5 19 -18 23 -26 6 -10
7 -17 7 -27 -1 -9 -4 -19 -8 -21 -6 -3 -27 3 -43 12 -15 8 -35 23 -35 26 0 0
7 -3 15 -7 9 -4 16 -8 17 -8 4 0 -1 3 -14 10 -20 12 -24 14 -26 17 -2 4 -3 4
22 -6 19 -8 26 -10 23 -7 -1 1 -11 6 -23 11 -21 8 -25 11 -22 13 3 2 7 1 29
-6 12 -4 22 -7 23 -7 1 2 -2 3 -20 9 -25 9 -30 12 -23 14 4 1 16 -1 36 -7 19
-6 26 -7 19 -4 -3 2 -5 5 -7 14 -2 6 -2 6 7 0z m-161 -6 c15 -2 19 -4 19 -7 0
-1 -1 -2 -1 -2 -3 -1 -30 2 -33 4 -3 2 -2 8 2 8 0 0 6 -1 13 -3z m5 -12 c12
-1 14 -2 14 -4 0 -3 -6 -4 -17 -4 -11 0 -12 0 -14 2 -4 4 -2 8 3 8 2 -1 8 -1
14 -2z m9 -12 c0 -4 -5 -5 -13 -5 -8 0 -11 1 -10 4 1 3 23 3 23 1z m-178 -4
c4 -1 7 -2 7 -2 0 -1 -14 -6 -15 -6 -1 0 -1 2 -1 5 0 2 0 4 1 4 1 0 4 -1 8 -1z
m170 -6 c0 -1 -2 -1 -5 -1 -5 0 -7 1 -3 2 3 1 8 0 8 -1z m190 -41 l1 -14 -6 3
c-7 3 -14 7 -19 11 l-3 3 4 0 c10 -2 14 1 19 13 l2 8 1 -5 c0 -2 1 -11 1 -19z
m-48 11 c8 -3 13 -6 19 -11 6 -5 12 -9 20 -13 l11 -5 1 -6 c2 -11 5 -18 10
-26 3 -5 5 -9 5 -10 0 -1 -26 18 -51 39 -12 10 -24 19 -26 21 -7 4 -19 10 -23
11 -2 0 -4 1 -4 1 -1 0 5 1 13 2 7 1 14 2 14 2 0 0 5 -2 11 -5z m-252 -36 c0
-3 0 -3 5 -2 4 2 4 1 1 -2 -2 -3 -7 -6 -9 -6 -3 0 -4 8 -2 11 3 3 4 3 5 -1z
m348 -48 c4 0 11 -2 15 -4 33 -12 53 -41 57 -79 1 -14 2 -16 3 -16 2 0 0 25
-3 36 -1 4 -2 8 -2 8 0 0 2 -1 4 -2 3 -1 7 -3 10 -4 20 -8 30 -19 31 -38 1
-13 -4 -24 -13 -32 -6 -6 -12 -9 -29 -14 -16 -5 -22 -7 -40 -16 -17 -9 -24
-11 -42 -10 -25 0 -41 6 -47 17 -2 4 -2 6 -2 13 0 7 0 8 7 22 l8 15 4 0 c6 0
9 2 15 9 9 12 13 25 9 31 -3 3 -27 19 -32 20 -2 1 -6 3 -9 5 -3 2 -7 5 -10 6
-6 3 -18 6 -25 6 -6 0 -16 -3 -22 -7 -6 -3 -14 -8 -15 -8 -2 0 5 9 10 14 7 6
18 11 29 14 14 3 35 -1 49 -9 5 -4 16 -14 19 -19 3 -4 3 -2 1 3 -4 9 -21 22
-35 25 -3 1 -5 2 -5 2 0 1 10 6 17 9 13 5 29 6 43 3z m-378 -18 c0 -1 -1 -4
-2 -7 l-2 -4 -1 5 c0 5 1 8 4 8 0 0 1 -1 1 -2z m297 -13 c7 -1 13 -4 19 -8 l4
-3 -4 -2 c-4 -2 -7 -5 -3 -4 5 2 14 2 18 1 4 -2 26 -16 29 -19 0 -2 1 -4 1 -5
0 -8 -11 -27 -17 -29 -7 -3 -14 3 -18 16 -5 17 -6 19 -7 20 -2 0 -1 -1 2 -14
3 -9 4 -14 7 -18 l4 -6 -2 -4 c-6 -11 -7 -12 -11 -14 -3 -1 -10 -4 -17 -8 -24
-12 -36 -11 -54 4 -7 6 -8 9 -8 22 2 25 3 33 4 36 2 4 2 4 0 4 -2 -1 -5 -7 -6
-15 -1 -10 -5 -17 -9 -17 -4 0 -9 9 -9 16 0 4 1 6 4 11 8 12 16 18 27 21 3 2
9 4 13 7 8 5 9 6 16 8 8 1 9 1 17 0z m-58 -88 c2 -3 5 -7 8 -9 3 -2 6 -5 6 -5
0 -2 -10 -6 -15 -6 -5 0 -8 3 -6 7 1 2 1 2 -1 2 -1 0 -2 -2 -2 -4 0 -5 -2 -5
-6 -2 -3 4 -3 8 2 13 3 3 9 8 11 8 0 0 2 -2 3 -4z m81 -6 c-3 -7 -4 -13 -4
-21 l1 -8 -6 -1 c-6 -1 -8 -1 -6 4 1 2 1 3 0 3 -2 0 -3 -2 -3 -5 0 -3 -1 -3
-5 -2 -4 1 -5 5 -3 9 1 1 2 2 2 3 -2 1 -5 -3 -5 -6 0 -2 -2 -2 -3 0 -2 3 0 7
8 13 6 4 21 13 23 13 1 0 1 -1 1 -2z M377 652 c-2 -1 -3 -1 -5 0 -3 1 -3 1 -5 0 -2 -1 -3 -3 -3 -3 0 -4
11 -13 16 -13 2 0 3 0 3 1 0 0 0 4 1 7 1 5 1 8 0 9 -2 1 -4 1 -7 -1z m4 -3 c1
-2 -1 -10 -2 -10 -2 0 -12 8 -11 10 1 0 3 0 5 -1 3 -2 3 -2 5 0 0 1 1 2 1 2 0
2 2 1 2 -1z M404 618 c7 -14 13 -30 17 -46 0 -2 2 -3 2 -1 0 1 -1 7 -3 13 -3 13
-15 40 -17 41 -2 0 -2 -1 1 -7z M420 615 c-2 -1 -1 -4 1 -8 2 -4 9 -8 11 -7 3 1 5 12 3 15 -2 1 -6 1
-7 0 0 -1 -1 -1 -2 0 -2 1 -5 1 -6 0z m8 -5 c0 0 1 1 2 1 2 3 3 1 2 -3 0 -5
-1 -5 -4 -3 -3 2 -5 4 -5 6 0 2 0 2 2 1 1 -1 2 -2 3 -2z M451 555 c4 -20 1 -42 -8 -66 -5 -13 -5 -14 -4 -14 3 0 13 28 16 44
2 15 0 40 -3 40 -1 0 -1 -2 -1 -4z M417 553 c0 -1 -1 -3 -1 -4 0 -5 12 -16 15 -15 2 1 5 11 5 15 0 1 -1
3 -1 4 -2 2 -7 1 -8 -1 0 -1 0 -1 -3 0 -2 2 -5 2 -7 1z m6 -4 c1 0 2 -2 3 -2
2 -1 2 -1 3 1 1 3 3 4 4 2 1 -3 -2 -12 -4 -12 -2 0 -9 8 -9 10 0 3 1 4 3 1z M474 497 c-1 -1 -2 -1 -4 0 -3 1 -4 1 -6 -1 -1 -2 -1 -3 0 -6 1 -3
10 -12 12 -12 3 0 8 17 6 20 -2 1 -5 1 -8 -1z m5 -4 c0 -2 -1 -5 -2 -7 -1 -4
-1 -4 -3 -3 -4 2 -8 9 -7 11 1 0 2 0 4 -1 3 -1 3 -1 5 1 2 3 3 3 3 -1z M214 466 c-1 -5 -5 -16 -9 -26 -3 -9 -6 -18 -6 -19 0 -8 16 35 19 49
1 7 -2 4 -4 -4z M411 466 c-3 -3 -3 -8 0 -14 4 -8 5 -9 10 -6 5 4 10 11 10 15 0 4 -2
6 -7 4 -3 -1 -4 -1 -5 0 -3 3 -6 3 -8 1z m7 -5 c3 -3 3 -3 4 -1 3 3 5 3 5 -1
0 -2 -9 -13 -10 -11 -2 2 -5 12 -4 14 0 3 2 2 5 -1z M501 431 c-3 -5 0 -12 5 -18 l3 -2 3 3 c6 5 9 16 5 18 -1 0 -2 0 -4
-1 -2 0 -3 0 -5 1 -4 2 -6 1 -7 -1z m6 -3 c2 -4 3 -4 6 -1 1 1 2 2 2 1 1 -2
-1 -7 -4 -10 -2 -3 -3 -3 -4 -1 -2 3 -4 8 -4 11 1 3 2 3 4 0z M394 407 c-3 -3 -2 -12 3 -17 3 -3 3 -3 6 -2 4 2 8 7 9 11 2 4 2 4 1
7 -2 2 -5 3 -8 1 -1 -2 -2 -2 -4 0 -3 2 -5 3 -7 0z m7 -5 l2 -2 3 2 c3 3 3 3
4 2 0 -2 -3 -7 -7 -11 l-3 -3 -2 3 c-3 7 -3 12 -1 12 1 0 2 -1 4 -3z M450 392 c-4 -3 -2 -15 4 -20 2 -2 2 -2 5 -1 1 1 4 4 7 6 3 4 4 6 4
9 0 5 -4 7 -8 5 -1 -1 -2 -1 -5 1 -3 2 -4 3 -7 0z m7 -5 l2 -2 3 2 4 2 0 -2
c1 -2 -1 -7 -6 -11 l-3 -3 -2 2 c-2 3 -4 8 -4 12 0 4 3 4 6 0z M521 386 c-1 0 -2 -3 -2 -6 -5 -16 -12 -28 -22 -37 -15 -15 -35 -23
-64 -26 -8 0 -8 -2 0 -2 18 0 51 12 64 24 11 10 22 28 24 41 1 6 1 8 0 6z M479 353 c-9 -7 -37 -19 -43 -19 0 0 -1 0 -1 -1 0 -1 1 -1 2 -1 3 0
21 7 30 11 8 3 20 11 20 13 0 2 -3 1 -8 -3z M527 353 c-2 -3 -1 -7 2 -13 4 -6 6 -8 9 -5 3 4 8 13 8 15 0 1 -1 3
-2 4 -3 1 -3 1 -6 0 -2 -2 -2 -2 -4 -1 -2 3 -6 2 -7 0z m11 -4 c3 3 3 3 4 2 0
-3 -3 -10 -5 -12 -2 -2 -2 -2 -4 1 -3 4 -4 9 -3 11 0 1 1 1 3 -2 l3 -3 2 3z M483 310 c-2 -2 -1 -9 1 -13 3 -5 7 -10 9 -10 1 0 10 9 11 13 2 5 -2
10 -7 7 -2 -1 -3 -1 -5 1 -3 3 -7 4 -9 2z m5 -3 c1 0 3 -2 4 -3 1 -4 3 -4 5
-1 2 2 4 3 4 1 1 -2 -4 -9 -7 -12 -2 -2 -2 -2 -4 1 -3 4 -5 10 -5 13 1 2 1 2
3 1z M531 285 c-4 -17 -9 -27 -19 -41 -5 -8 -6 -10 -4 -10 1 0 13 18 17
26 6 11 10 27 8 28 0 1 -1 -1 -2 -3z M406 287 c-5 -1 -5 -11 -1 -19 3 -7 5 -8 12 -1 5 4 8 10 7 14 -1 2
-5 4 -8 2 -1 -1 -2 0 -4 2 -3 3 -3 3 -6 2z m5 -7 c2 -4 3 -4 6 -1 2 2 3 3 3 0
2 -3 -7 -15 -10 -13 -4 2 -6 14 -4 17 2 2 3 1 5 -3z M437 233 c-2 -2 -2 -4 -1 -9 2 -5 8 -13 11 -13 2 0 7 5 9 10 3 4 3 8
1 10 -2 2 -3 2 -6 1 -2 -2 -3 -2 -5 0 -3 3 -7 3 -9 1z m14 -6 c3 4 5 3 4 -2
-1 -3 -7 -11 -8 -11 -1 0 -6 7 -8 11 -1 4 -1 5 1 6 1 1 2 1 5 -3 l3 -3 3 2z M523 231 c-2 -1 -2 -2 -2 -6 1 -6 7 -13 10 -14 4 0 11 9 11 15 0 4
-3 5 -7 4 -2 -1 -3 -1 -5 1 -3 2 -4 3 -7 0z m11 -6 c1 1 3 2 3 2 4 0 1 -6 -4
-11 l-3 -3 -3 7 c-3 5 -3 6 -2 8 1 2 1 2 4 -1 4 -4 4 -4 5 -2z M498 184 c-1 -2 -1 -3 1 -7 2 -4 8 -9 12 -10 2 -1 4 2 7 9 1 6 1 6 0
8 -2 3 -6 4 -8 2 -1 -2 -2 -2 -4 0 -4 2 -7 1 -8 -2z m8 -2 c2 -4 3 -4 5 0 2 2
2 2 4 1 1 -2 1 -3 0 -6 0 -2 -2 -4 -2 -5 -2 -2 -2 -2 -4 -1 -7 5 -11 13 -6 13
0 0 2 -1 3 -2z M319 648 c-2 -2 -7 -8 -5 -8 0 0 3 2 6 4 4 5 4 6 -1 4z M314 579 c-1 -1 -2 -2 -2 -3 -1 -1 1 -1 7 0 8 0 9 0 16 -2 5 -2 8 -3
9 -3 1 2 -2 4 -9 6 -8 3 -17 4 -21 2z M260 570 c-4 -2 -6 -4 -5 -6 1 0 2 1 4 2 2 1 6 2 10 2 3 1 6 2 6 3 0
1 -10 1 -15 -1z M287 552 c4 -7 4 -14 0 -25 -2 -7 -2 -7 0 -10 2 -3 8 -5 13 -5 7 1 6
3 -2 5 -9 2 -10 2 -7 10 4 10 3 23 -3 29 -3 4 -4 2 -1 -4z M340 551 c-2 -1 -7 -1 -10 -1 -6 1 -7 1 -7 -1 0 -6 13 -7 19 -1 2 2
3 4 1 4 0 0 -2 -1 -3 -1z M266 542 c-1 -2 4 -5 8 -5 5 0 10 3 10 6 0 0 -4 1 -9 1 -6 0 -8 -1
-9 -2z M246 518 c-1 -1 -1 -7 -1 -13 0 -10 0 -11 2 -16 2 -4 6 -10 10 -13 4
-4 8 -9 9 -11 3 -4 5 -13 4 -18 0 -6 2 -4 3 2 2 8 -2 16 -15 31 -3 4 -6 9 -8
12 -2 5 -2 6 -2 17 0 7 0 12 -1 12 0 0 -1 -1 -1 -3z M319 501 c-5 -2 -7 -2 -16 -2 -8 0 -10 -1 -8 -2 2 -1 9 -2 15 -2 6 1
16 5 16 7 0 3 -2 2 -7 -1z M282 424 c1 -2 2 -5 2 -6 l2 -2 0 2 c0 3 -2 9 -4 9 0 0 0 -2 0 -3z M113 305 c-3 -4 -2 -17 2 -19 4 -1 16 8 16 13 0 2 -3 4 -6 4 -1 -1
-3 0 -4 1 -2 2 -6 3 -8 1z m6 -5 c1 -2 1 -2 4 -1 3 0 4 0 4 -1 0 -2 -10 -9
-11 -8 -1 1 -1 8 -1 11 1 3 2 3 4 -1z M368 249 c-3 -2 -2 -6 3 -13 2 -3 5 -5 6 -5 1 0 3 2 4 5 5 8 3 15 -3
12 -2 -1 -3 -1 -4 0 -2 1 -5 2 -6 1z m8 -7 c1 1 2 1 2 2 0 1 1 1 2 1 0 0 1 -1
1 -2 0 -2 -3 -9 -4 -9 -2 0 -7 8 -7 10 l0 2 2 -2 c2 -1 4 -2 4 -2z M435 173 c9 -9 13 -19 15 -36 0 -8 2 -8 2 1 0 14 -5 27 -13 36 -8 7
-11 7 -4 -1z M428 135 c7 -18 7 -35 -1 -49 -2 -3 -6 -10 -10 -15 -4 -5 -8 -10 -9
-12 -2 -8 3 -15 11 -16 3 0 4 0 4 1 0 0 -1 1 -2 1 -3 0 -9 4 -10 7 -1 4 0 8 9
19 12 14 16 25 16 40 0 9 -2 17 -5 22 -1 3 -4 4 -3 2z M481 122 c-4 -12 -6 -17 -9 -22 -7 -10 -13 -15 -34 -26 -10 -5 -13
-8 -10 -8 2 0 27 14 32 18 7 4 13 12 17 19 4 7 6 17 5 19 -1 1 -1 1 -1 0z M521 113 c0 0 1 -2 2 -4 1 -4 1 -13 0 -18 -1 -5 -7 -12 -12 -16 -7
-4 -14 -7 -29 -10 -18 -4 -25 -6 -32 -10 -8 -5 -6 -6 3 -2 5 3 13 5 22 8 34 8
39 10 45 18 7 9 9 22 5 31 -2 4 -4 5 -4 3z M299 107 c0 -1 2 -3 4 -4 3 -2 4 -2 7 0 5 2 5 4 -2 4 -3 0 -6 0 -7 0
-2 1 -2 1 -2 0z M342 104 c0 -1 2 -2 5 -3 3 -1 4 -1 8 0 4 2 6 6 2 4 -3 -1 -9 -1 -12
0 -3 1 -3 1 -3 -1z M313 92 c-3 -2 -3 -7 0 -9 4 -3 10 -4 14 -1 7 5 4 12 -7 12 -3 0 -5
-1 -7 -2z M318 74 c-1 -3 -4 -3 -7 -1 -2 0 -2 0 -1 -1 1 -2 2 -2 7 -2 3 1 6 0
9 -1 4 -2 8 -1 11 1 2 2 2 2 1 1 -7 -2 -13 -1 -16 3 -2 3 -2 2 -4 0z M291 757 l0 -43 2 0 c1 -1 14 -1 27 -1 13 -1 45 -2 71 -3 64 -3 89
-3 104 -3 l13 0 0 46 c0 41 0 47 -1 47 -2 0 -2 -6 -2 -46 l0 -45 -6 0 c-20 1
-86 3 -105 4 -13 1 -40 1 -60 2 -21 1 -38 1 -39 2 -1 0 -1 9 -1 41 0 37 0 42
-1 42 -2 0 -2 -5 -2 -43z M317 770 c0 -18 0 -30 1 -31 1 -2 2 -2 10 -2 5 0 40 -1 79 -2 38 -1
70 -1 71 -1 2 1 2 3 2 33 0 29 0 33 -1 33 -2 0 -2 -4 -2 -32 l0 -31 -29 0
c-88 2 -124 3 -126 4 l-2 0 0 30 c0 25 0 29 -1 29 -2 0 -2 -4 -2 -30z M582 596 c-12 -15 -25 -50 -32 -85 -4 -21 -4 -23 -3 -23 1 0 2 4 3
10 8 39 18 69 30 90 6 10 7 14 2 8z M95 536 c-8 -12 -7 -18 5 -28 4 -3 8 -7 9 -9 3 -6 0 -12 -7 -18 -5
-4 -8 -9 -8 -13 0 -3 1 -4 8 -13 2 -4 3 -5 3 -9 0 -6 2 -6 3 -1 0 4 -2 10 -7
17 -2 2 -4 5 -4 6 0 4 3 8 8 12 5 4 8 9 8 14 0 5 -3 10 -10 16 -11 8 -12 14
-5 25 3 6 4 7 2 7 0 0 -3 -3 -5 -6z M84 487 c-12 -14 -12 -20 0 -32 4 -5 6 -9 6 -13 0 -2 0 -3 1 -2 1 0
1 2 1 5 0 5 -2 8 -9 15 -4 4 -6 10 -4 14 1 2 3 7 6 10 3 4 5 8 5 8 0 2 -2 1
-6 -5z M170 290 c-3 -2 -3 -7 0 -13 3 -7 4 -7 9 -5 7 2 13 7 13 11 0 3 -4 5
-8 5 -2 -1 -3 -1 -5 1 -2 3 -6 4 -9 1z m7 -3 c1 -1 1 -2 1 -3 1 -2 1 -2 3 -1
3 1 7 1 8 -1 0 -1 -12 -9 -14 -9 0 0 -2 3 -3 6 -2 5 -2 5 0 8 1 2 4 2 5 0z M122 254 c-5 -2 -6 -10 -1 -17 1 -2 3 -4 4 -4 2 -1 9 3 13 7 3 3 4 4
4 7 0 4 -2 5 -7 4 -3 0 -4 0 -5 1 -2 2 -5 3 -8 2z m6 -5 c1 -4 2 -5 4 -2 2 1
7 2 7 0 0 -3 -4 -7 -9 -9 -2 -2 -4 -3 -4 -3 -1 0 -2 2 -3 4 -3 6 -3 9 0 11 3
2 3 3 5 -1z M246 253 c-6 -2 -5 -14 2 -21 4 -4 5 -4 10 0 5 3 10 9 10 12 0 5 -5
8 -9 6 -3 -1 -3 -1 -5 1 -3 2 -6 3 -8 2z m7 -6 c0 -2 1 -3 2 -3 0 0 1 1 3 2 3
3 6 2 7 -1 0 -2 -5 -8 -10 -11 l-3 -2 -2 2 c-2 3 -5 12 -5 14 1 3 6 2 8 -1z M314 249 c-3 -1 -3 -5 -1 -11 2 -5 7 -10 9 -10 2 0 10 11 10 13 0 4
-2 5 -6 5 -1 -1 -3 0 -5 1 -3 3 -4 3 -7 2z m6 -5 c2 -3 3 -3 5 -2 2 1 4 1 4
-1 0 -2 -7 -10 -8 -10 -1 0 -6 10 -6 13 0 4 2 4 5 0z M346 218 c17 -19 21 -23 22 -23 2 0 1 1 -10 13 -9 11 -14 15 -17 15
0 0 2 -2 5 -5z M190 211 c-3 -1 -4 -3 -4 -9 0 -6 3 -14 5 -15 5 -1 20 10 20 15 0 4
-4 6 -10 4 -2 0 -3 0 -3 1 0 2 -4 5 -5 5 -1 0 -2 0 -3 -1z m5 -6 c2 -4 1 -4 6
-2 4 2 6 1 6 -2 -1 -3 -11 -10 -13 -10 -2 1 -6 10 -5 13 0 0 0 2 0 3 1 2 5 1
6 -2z M93 208 c-3 -4 -9 -19 -13 -32 -6 -18 -10 -37 -14 -59 -5 -27 -5 -28
-4 -28 1 1 3 9 6 24 7 37 13 61 23 85 4 10 5 15 2 10z M290 202 c-2 -2 -1 -9 2 -15 1 -3 3 -6 4 -6 1 0 4 2 8 5 4 4 6 5 6 8
0 5 -2 6 -6 6 -3 -1 -4 -1 -6 1 -2 2 -6 3 -8 1z m8 -5 c1 -3 2 -4 4 -1 2 2 5
1 5 -1 0 -2 -2 -4 -5 -7 -2 -2 -5 -4 -5 -4 -1 0 -5 12 -5 15 0 2 4 1 6 -2z M118 196 c-3 -4 -3 -12 0 -18 2 -5 4 -6 8 -4 8 3 14 10 14 15 0 3 -3
5 -7 5 -2 -1 -4 -1 -6 1 -4 4 -5 4 -9 1z m8 -6 c0 -3 1 -4 4 -2 1 1 3 2 4 2 5
0 1 -7 -7 -12 -4 -3 -5 -2 -6 2 -4 8 -2 16 3 14 1 -1 2 -2 2 -4z M237 167 c-4 -4 0 -18 5 -21 2 -2 3 -2 6 0 8 4 13 14 10 18 -1 1 -8
2 -9 0 0 -1 -1 0 -3 2 -3 3 -7 4 -9 1z m9 -7 c0 -3 1 -4 3 -1 1 1 3 2 4 2 2 1
2 1 2 -1 0 -3 -3 -7 -7 -11 -3 -2 -3 -2 -5 0 -4 5 -5 13 -3 16 2 1 5 -1 6 -5z M205 152 c-1 -1 -7 -28 -11 -43 -4 -21 -12 -84 -11 -86 1 0 1 0 2 0
0 1 2 11 3 24 2 12 4 27 5 32 1 11 12 68 14 72 0 2 -1 3 -2 1z M159 142 c-2 -3 -2 -7 1 -14 3 -6 5 -8 8 -8 4 2 10 7 12 11 2 5 2 5
1 8 -2 2 -5 3 -8 1 -1 -1 -3 0 -5 2 -4 3 -6 3 -9 0z m8 -5 l3 -3 3 2 c7 5 6
-3 -2 -10 -5 -4 -5 -4 -8 4 -2 4 -3 9 -1 10 1 2 3 0 5 -3z M138 137 c-1 -4 -3 -10 -4 -13 -2 -8 -15 -48 -21 -68 -4 -12 -5 -17
-3 -15 1 1 20 58 27 84 2 6 3 12 3 14 -1 3 -1 3 -2 -2z M92 132 c-3 -4 -2 -10 1 -16 1 -3 3 -5 4 -5 6 0 17 10 17 14 0 5 -4
7 -8 5 -2 -1 -3 -1 -5 1 -3 4 -7 4 -9 1z m8 -4 c1 -2 1 -4 2 -4 0 0 2 1 4 2 1
1 3 2 4 2 3 -2 -1 -8 -9 -13 l-4 -2 -2 5 c-2 5 -3 11 -1 12 0 1 1 1 3 1 1 0 2
-1 3 -3z M43 128 c-2 -3 -3 -8 -3 -11 2 -7 3 -8 6 -8 4 0 12 5 14 9 2 3 2 3 1
6 -2 2 -3 2 -5 1 -3 0 -3 0 -5 2 -3 4 -5 4 -8 1z m6 -5 c0 -3 2 -3 5 -2 4 2 4
2 4 0 0 -2 -4 -6 -10 -8 -3 -2 -3 -2 -3 0 -1 4 -1 11 0 12 2 1 3 1 4 -2z M222 99 c-4 -1 -5 -8 -2 -13 2 -5 6 -10 8 -10 5 0 14 11 14 16 0 4
-4 6 -8 4 -3 -1 -4 -1 -5 1 -3 2 -5 3 -7 2z m5 -6 c3 -4 4 -4 7 -1 2 2 4 3 4
1 1 -2 -4 -10 -7 -12 -3 -2 -3 -2 -6 2 -3 4 -5 10 -3 12 1 2 3 1 5 -2z M65 72 c-4 -3 -4 -10 0 -16 1 -3 3 -6 4 -6 2 -2 6 0 12 6 4 4 5 6 5
8 0 5 -5 7 -9 5 -2 -1 -2 0 -4 1 -3 3 -6 4 -8 2z m6 -6 l2 -4 2 2 c3 3 7 3 7
0 0 -1 0 -3 -1 -4 -1 -2 -9 -8 -10 -8 -1 0 -5 7 -5 11 -1 3 1 7 3 7 1 0 2 -2
2 -4z M141 70 c-2 -3 -1 -8 3 -15 3 -7 5 -7 12 -2 5 4 7 8 7 13 -1 3 -5 5
-8 3 -1 -1 -2 0 -4 2 -3 3 -7 3 -10 -1z m8 -4 l3 -3 3 2 c4 3 5 2 5 -1 0 -1
-2 -4 -5 -7 l-5 -5 -2 2 c-3 3 -5 12 -4 14 1 3 3 2 5 -2z M206 29 c-5 -3 0 -16 7 -20 5 -3 16 11 15 17 -2 3 -4 4 -9 3 -3 -2
-3 -2 -6 0 -3 2 -4 2 -7 0z m7 -4 l3 -3 2 2 c1 1 3 2 4 2 2 0 2 0 2 -4 -1 -4
-8 -12 -10 -11 -2 2 -7 10 -7 13 0 5 2 5 6 1z M456 2 c-1 -1 -1 -2 1 -2 0 0 1 0 1 1 0 1 -2 2 -2 1z" fill="black"/>
<path d="M0 610 c0 -105 0 -191 1 -191 2 0 33 9 34 9 0 1 1 85 1 187 l0 185
-18 0 -18 0 0 -190z" fill="white"/>
<path d="M39 751 c0 -47 1 -62 2 -30 1 9 2 19 2 24 4 18 12 33 21 39 6 4 15 8
20 8 10 0 19 -5 25 -14 3 -5 4 -5 9 -4 3 1 5 1 7 0 2 0 12 -7 22 -15 69 -53
67 -51 67 -55 0 -2 -6 -10 -12 -15 -12 -11 -40 -26 -60 -33 -17 -5 -25 -7 -35
-7 -8 0 -9 0 -11 2 l-3 3 0 52 0 52 4 4 4 5 -2 3 c-4 6 -12 9 -19 7 -9 -2 -18
-16 -21 -29 -1 -4 -3 -14 -4 -23 -1 -16 -1 -17 0 -23 2 -5 2 -6 1 -10 -2 -4
-2 -19 -2 -133 0 -143 -1 -131 7 -128 6 4 9 4 28 5 20 1 31 0 39 -3 8 -3 9 -4
9 -11 l0 -5 4 0 4 0 0 15 c2 44 6 74 13 112 10 46 24 62 56 66 l10 2 5 8 c8
13 15 21 24 30 29 28 77 43 112 34 20 -5 35 -14 53 -33 10 -10 13 -12 15 -12
2 0 16 0 32 -1 45 -2 68 -4 109 -10 14 -1 25 -3 25 -3 1 0 1 39 1 88 l0 87
-46 0 -46 0 0 -47 0 -46 -13 0 c-15 0 -40 0 -104 3 -26 1 -58 2 -71 3 -13 0
-26 0 -27 1 l-2 0 0 43 0 43 -126 0 -126 0 0 -49z m62 -210 c0 0 -2 -3 -3 -6
-7 -11 -6 -17 5 -25 7 -6 10 -11 10 -16 0 -5 -3 -10 -8 -14 -5 -4 -8 -8 -8
-12 0 -1 2 -4 4 -6 5 -7 7 -13 7 -17 -1 -5 -3 -5 -3 1 0 4 -1 5 -3 9 -7 9 -8
10 -8 13 0 4 3 9 8 13 7 6 10 12 7 18 -1 2 -5 6 -9 9 -8 7 -11 11 -10 17 1 6
11 21 11 16z m-11 -49 c0 0 -2 -4 -5 -8 -3 -3 -5 -8 -6 -10 -2 -4 0 -10 4 -14
7 -7 9 -10 9 -15 0 -3 0 -5 -1 -5 -1 -1 -1 0 -1 2 0 4 -2 8 -6 13 -12 12 -12
18 0 32 4 6 6 7 6 5z" fill="white"/>
<path d="M294 758 c0 -32 0 -41 1 -41 1 -1 18 -1 39 -2 20 -1 47 -1 60 -2 19
-1 85 -3 105 -4 l6 0 0 45 0 46 -12 0 -13 0 0 -33 c0 -30 0 -32 -2 -33 -1 0
-33 0 -71 1 -39 1 -74 2 -79 2 -8 0 -9 0 -10 2 -1 1 -1 13 -1 31 l0 30 -11 0
-12 0 0 -42z" fill="white"/>
<path d="M320 771 l0 -30 2 0 c2 -1 38 -2 126 -4 l29 0 0 31 0 32 -78 0 -79 0
0 -29z" fill="white"/>
<path d="M78 788 c-15 -4 -25 -17 -29 -36 -3 -12 -5 -27 -5 -37 l0 -10 3 0 4
0 1 19 c3 29 6 38 16 49 12 11 21 11 32 0 4 -3 5 -4 7 -4 3 1 3 2 0 7 -7 10
-19 15 -29 12z" fill="white"/>
<path d="M116 770 c-5 -1 -14 -7 -18 -10 l-2 -2 0 -49 0 -48 8 7 c19 18 52 36
79 41 5 1 12 2 15 2 3 0 5 0 4 1 0 1 -11 10 -25 20 -14 11 -30 23 -37 28 -15
12 -17 13 -24 10z" fill="white"/>
<path d="M181 706 c-9 -2 -24 -8 -33 -12 -30 -14 -58 -39 -48 -41 4 -1 15 -1
22 1 21 4 46 15 67 29 15 10 25 21 19 23 -2 1 -20 1 -27 0z" fill="white"/>
<path d="M43 701 c-3 -1 -3 -7 0 -8 4 -2 11 0 11 4 0 3 -2 5 -6 5 -2 0 -4 -1
-5 -1z" fill="white"/>
<path d="M39 559 c0 -86 0 -130 1 -129 1 0 1 45 1 130 0 86 0 130 -1 130 -1 0
-1 -44 -1 -131z" fill="white"/>
<path d="M45 559 l0 -130 3 1 3 1 0 129 0 129 -3 0 -3 0 0 -130z" fill="white"/>
<path d="M319 681 c-25 -5 -47 -17 -65 -34 -23 -23 -29 -36 -37 -84 -11 -63
-15 -75 -33 -106 -9 -14 -21 -35 -21 -35 0 -1 10 1 12 2 1 1 3 2 4 2 3 0 16
-9 25 -16 5 -3 8 -6 8 -6 1 0 4 7 8 15 11 21 16 27 29 36 l5 3 -5 6 -5 5 -8
-14 c-4 -8 -7 -15 -8 -15 -2 -2 -1 3 6 16 l6 14 -6 6 c-7 7 -11 13 -12 22 -2
7 0 15 5 29 7 16 8 29 4 44 -2 11 -2 25 1 36 6 18 19 33 37 44 19 11 44 13 61
5 21 -10 57 -64 69 -106 7 -22 8 -47 4 -69 -6 -27 -12 -40 -29 -66 -17 -27
-22 -37 -26 -51 -1 -6 -1 -8 3 -10 2 -1 7 -5 11 -9 l7 -7 -1 6 c0 7 1 20 3 23
2 3 2 0 1 -5 -1 -5 -1 -26 0 -29 1 -2 3 -3 11 -4 l6 0 2 9 c8 25 27 55 59 92
6 7 13 15 14 18 3 5 5 6 5 4 0 -2 -7 -12 -19 -26 -25 -30 -34 -43 -45 -64 -7
-14 -14 -33 -13 -34 1 -2 1 -2 10 5 6 6 15 11 21 13 6 3 5 1 -1 -3 -9 -4 -24
-15 -24 -17 0 -1 1 -1 3 -2 4 -2 15 -9 22 -13 4 -3 9 -6 15 -8 10 -3 24 -11
33 -17 14 -10 22 -19 18 -19 0 0 -3 2 -7 5 -7 8 -20 17 -30 21 -8 4 -18 8 -19
8 0 -1 31 -52 37 -59 4 -4 11 -11 17 -16 10 -10 12 -13 3 -7 -7 5 -21 19 -28
28 -3 4 -10 15 -16 25 -18 30 -26 38 -44 47 -7 4 -24 9 -26 8 0 0 1 -3 3 -6 5
-12 7 -22 9 -44 1 -26 3 -34 6 -43 4 -11 15 -29 19 -30 1 -1 5 -1 11 -2 31 -4
55 -18 69 -43 7 -11 8 -13 14 -16 4 -1 15 -6 16 -6 0 0 0 4 1 10 2 18 5 28 12
36 4 5 17 14 32 24 8 4 14 9 13 9 0 1 -4 19 -10 40 -6 21 -10 39 -11 40 0 2
-1 0 -1 -6 -2 -19 -8 -53 -10 -53 -1 0 -1 0 -1 0 0 0 1 6 2 12 5 31 7 64 5 81
-2 12 -7 37 -11 53 -9 36 -24 68 -44 94 l-5 6 0 -11 c-1 -12 -3 -20 -7 -25 -3
-4 -3 -2 0 5 5 12 4 30 -3 57 -11 42 -28 82 -48 112 -21 32 -44 51 -71 59 -10
3 -35 4 -47 1z m65 -28 c1 -1 1 -4 0 -9 -1 -3 -1 -7 -1 -7 0 -1 -1 -1 -3 -1
-5 0 -16 9 -16 13 0 0 1 2 3 3 2 1 2 1 5 0 2 -1 3 -1 5 0 3 2 5 2 7 1z m27
-44 c6 -13 12 -32 12 -38 0 -2 -2 -1 -2 1 -4 16 -10 32 -17 46 -3 6 -3 7 -1 7
1 0 4 -5 8 -16z m15 6 c1 -1 2 -1 2 0 1 1 5 1 7 0 2 -3 0 -14 -3 -15 -2 -1 -9
3 -11 7 -2 4 -3 7 -1 8 1 1 4 1 6 0z m28 -60 c2 -6 2 -25 1 -36 -3 -16 -13
-44 -16 -44 -1 0 -1 1 4 14 9 24 12 46 8 66 0 2 0 4 1 4 0 0 1 -2 2 -4z m-30
-3 c3 -1 3 -1 3 0 1 2 6 3 8 1 0 -1 1 -3 1 -4 0 -4 -3 -14 -5 -15 -3 -1 -15
10 -15 15 0 5 4 6 8 3z m58 -54 c2 -3 -3 -20 -6 -20 -2 0 -11 9 -12 12 -1 3
-1 4 0 6 2 2 3 2 6 1 2 -1 3 -1 4 0 3 2 6 2 8 1z m-264 -28 c-2 -10 -14 -46
-18 -49 -2 -3 -1 1 5 19 4 10 8 21 9 26 2 8 5 11 4 4z m201 -5 c1 -1 2 -1 5 0
5 2 7 0 7 -4 0 -4 -5 -11 -10 -15 -3 -2 -4 -2 -6 -1 -2 2 -6 11 -6 15 0 7 5
10 10 5z m89 -33 c2 -1 3 -1 5 -1 2 1 3 1 4 1 4 -2 1 -13 -5 -18 l-3 -3 -3 2
c-5 6 -8 13 -5 18 1 2 3 3 7 1z m-107 -25 c2 -2 3 -2 4 0 3 2 6 1 8 -1 1 -3 1
-3 -1 -7 -1 -4 -5 -9 -9 -11 -3 -1 -3 -1 -6 2 -5 5 -6 14 -3 17 2 3 4 2 7 0z
m56 -15 c3 -2 4 -2 5 -1 4 2 8 0 8 -5 0 -3 -1 -5 -4 -9 -3 -2 -6 -5 -7 -6 -3
-1 -3 -1 -5 1 -6 5 -8 17 -4 20 3 3 4 2 7 0z m64 -12 c-2 -13 -13 -31 -24 -41
-13 -12 -46 -24 -64 -24 -8 0 -8 2 0 2 29 3 49 11 64 26 10 9 17 21 22 37 1 6
2 7 3 7 0 -1 0 -4 -1 -7z m-34 -24 c0 -2 -12 -10 -20 -13 -9 -4 -27 -11 -30
-11 -1 0 -2 0 -2 1 0 1 1 1 1 1 6 0 34 12 43 19 5 4 8 5 8 3z m47 -3 c2 -1 2
-1 4 1 3 1 3 1 6 0 3 -3 3 -5 -1 -11 -5 -8 -7 -10 -9 -9 -3 1 -8 11 -8 14 0 6
5 9 8 5z m-42 -45 c2 -2 3 -2 5 -1 5 3 9 -2 7 -7 -1 -4 -10 -13 -11 -13 -2 0
-6 5 -9 10 -2 4 -3 11 -1 13 2 2 6 1 9 -2z m42 -24 c-1 -7 -5 -17 -9 -24 -4
-8 -16 -26 -17 -26 -2 0 -1 2 4 10 10 14 15 24 19 41 1 5 3 4 3 -1z m-122 1
c2 -2 3 -3 4 -2 3 2 7 0 8 -2 1 -4 -2 -10 -7 -14 -7 -7 -9 -6 -12 1 -4 8 -4
18 1 19 3 1 3 1 6 -2z m34 -53 c2 -2 3 -2 5 0 3 1 4 1 6 -1 2 -2 2 -6 -1 -10
-2 -5 -7 -10 -9 -10 -3 0 -9 8 -11 13 -1 5 -1 7 1 9 2 2 6 2 9 -1z m84 -1 c2
-2 3 -2 5 -1 4 1 7 0 7 -4 0 -4 -1 -6 -5 -11 -3 -3 -4 -4 -6 -4 -3 1 -9 8 -10
14 0 4 0 5 2 6 3 3 4 2 7 0z m-24 -45 c2 -2 3 -2 4 0 2 2 6 1 8 -2 1 -2 1 -2
0 -8 -3 -7 -5 -10 -7 -9 -4 1 -10 6 -12 10 -2 4 -2 5 -1 7 1 3 4 4 8 2z" fill="white"/>
<path d="M294 657 c-9 -2 -14 -4 -22 -8 -12 -7 -25 -20 -32 -33 -7 -14 -9 -26
-5 -46 3 -14 2 -25 -2 -38 -7 -19 -8 -24 -8 -32 1 -6 1 -8 4 -12 2 -3 8 -9 13
-13 10 -9 12 -11 15 -16 4 -8 4 -22 0 -22 -2 0 -2 1 -1 3 1 3 1 10 -1 13 -1 1
-1 1 -4 0 -5 -3 -15 -13 -19 -19 -5 -7 -12 -21 -15 -29 l-1 -5 5 -8 c4 -4 6
-8 7 -8 0 0 4 2 8 5 l7 6 0 12 c1 11 2 17 3 17 1 0 1 -6 0 -14 0 -13 0 -13 2
-13 17 8 31 11 47 13 13 0 19 -1 23 -6 2 -2 4 -4 6 -5 3 0 3 -1 9 -20 3 -10 6
-18 6 -19 1 0 2 -1 3 -1 1 -1 2 0 4 8 3 12 9 24 24 48 8 11 15 22 16 25 l2 4
-2 0 c-1 -1 -13 -7 -25 -14 -24 -13 -26 -14 -26 -13 0 2 25 17 47 28 4 3 8 5
8 5 0 0 -2 2 -4 3 -3 1 -7 3 -9 5 l-5 4 -6 -4 c-20 -14 -34 -26 -40 -35 -1 -3
-3 -5 -4 -5 -1 0 -6 4 -17 13 -8 7 -12 13 -13 22 0 3 -1 5 -1 5 0 0 -3 -2 -5
-5 -3 -3 -7 -8 -9 -10 -6 -7 -6 -4 0 4 2 4 4 9 5 11 1 6 -1 13 -5 19 -4 6 -3
8 1 3 4 -3 7 -9 8 -16 l0 -5 4 4 c4 4 7 10 5 11 -2 1 -18 12 -22 17 -11 10
-15 19 -18 37 0 5 -3 17 -6 25 -2 9 -4 16 -4 16 0 0 -1 0 -2 1 -2 1 -2 1 5 5
11 7 20 19 28 34 2 4 2 4 3 2 0 -3 -6 -14 -11 -22 -3 -3 -8 -9 -12 -12 -5 -4
-7 -6 -7 -8 0 -1 2 -7 4 -13 2 -6 4 -18 6 -26 3 -18 6 -26 16 -36 11 -11 28
-22 40 -23 12 -3 32 7 51 25 11 10 14 17 13 35 0 9 0 11 -3 19 -2 4 -5 11 -7
16 l-4 9 -14 7 c-8 4 -17 9 -21 11 -13 9 -21 20 -23 30 0 4 0 4 -2 2 -1 0 -6
-8 -12 -16 -6 -8 -12 -17 -14 -20 -5 -5 -12 -10 -16 -10 -2 0 -2 0 2 3 2 1 7
5 10 8 5 5 27 36 33 46 l3 5 0 -11 c0 -9 1 -11 3 -15 6 -11 14 -17 38 -30 18
-9 21 -12 30 -20 5 -6 12 -16 10 -16 0 0 -5 5 -9 10 -5 5 -10 10 -10 10 0 -1
1 -4 3 -9 9 -21 10 -35 1 -57 -3 -10 -4 -14 -5 -21 0 -8 0 -9 2 -14 3 -6 7 -9
14 -12 3 -2 4 -2 5 -1 3 11 3 10 0 14 -2 3 -4 6 -5 8 -1 5 -2 13 -1 18 2 7 3
4 3 -5 0 -8 0 -10 3 -15 1 -3 3 -5 3 -5 1 0 2 5 5 20 2 11 1 35 -2 48 -4 20
-13 41 -27 65 -15 24 -27 39 -38 47 -10 7 -26 9 -40 7z m26 -13 c-3 -2 -6 -4
-6 -4 -2 0 3 6 5 8 5 2 5 1 1 -4z m15 -67 c7 -2 10 -4 9 -6 -1 0 -4 1 -9 3 -7
2 -8 2 -16 2 -6 -1 -8 -1 -7 0 1 5 12 5 23 1z m-60 -6 c0 -1 -3 -2 -6 -3 -4 0
-8 -1 -10 -2 -3 -2 -5 -2 -4 0 1 3 9 6 15 6 3 0 5 -1 5 -1z m13 -15 c6 -6 7
-19 3 -29 -3 -8 -2 -8 7 -10 8 -2 9 -4 2 -5 -5 0 -11 2 -13 5 -2 3 -2 3 0 10
4 11 4 18 0 25 -3 6 -2 8 1 4z m56 -5 c0 0 -1 -2 -2 -3 -6 -6 -19 -5 -19 1 0
2 1 2 7 1 3 0 8 0 10 1 3 1 4 1 4 0z m-60 -8 c0 -5 -11 -8 -16 -4 -4 3 -2 5 7
5 5 0 9 -1 9 -1z m-36 -34 c0 -11 0 -12 2 -17 2 -3 5 -8 8 -12 13 -15 17 -23
15 -31 -1 -6 -3 -8 -3 -2 1 5 -1 14 -4 18 -1 2 -5 7 -9 11 -4 3 -8 9 -10 13
-2 5 -2 6 -2 16 0 9 1 16 2 16 1 0 1 -5 1 -12z m78 -7 c0 -2 -10 -6 -16 -7 -6
0 -13 1 -15 2 -2 1 0 2 8 2 9 0 11 0 16 2 5 3 7 4 7 1z m-42 -78 c1 -2 2 -4 2
-6 l0 -2 -2 2 c-1 2 -3 9 -2 9 1 0 2 -1 2 -3z" fill="white"/>
<path d="M379 650 c0 0 -1 -1 -1 -2 -2 -2 -2 -2 -5 0 -2 1 -4 1 -5 1 -1 -2 9
-10 11 -10 1 0 3 8 2 10 0 2 -2 3 -2 1z" fill="white"/>
<path d="M433 635 c0 -1 3 -6 7 -12 22 -33 40 -77 51 -120 2 -12 3 -12 9 -20
23 -30 38 -61 48 -99 5 -17 10 -47 11 -61 1 -10 2 -17 6 -34 4 -11 7 -21 7
-23 1 -1 4 -2 13 -4 6 -1 12 -2 13 -3 l2 0 0 181 c0 133 0 182 -1 182 -1 0
-12 2 -25 3 -29 5 -36 5 -69 8 -24 2 -72 3 -72 2z m147 -47 c-12 -21 -22 -51
-30 -90 -1 -6 -2 -10 -3 -10 -1 0 -1 2 3 23 7 35 20 70 32 85 5 6 4 2 -2 -8z" fill="white"/>
<path d="M423 611 c0 -2 2 -4 5 -6 3 -2 4 -2 4 3 1 4 0 6 -2 3 -2 -1 -3 -1 -5
1 -2 1 -2 1 -2 -1z" fill="white"/>
<path d="M215 607 c-27 -3 -41 -17 -50 -50 -8 -33 -11 -49 -15 -100 -3 -42 -3
-40 1 -41 4 -2 4 -2 4 0 0 2 1 4 3 5 1 1 8 12 15 25 29 50 30 54 40 112 4 24
8 46 10 48 0 1 -1 2 -8 1z" fill="white"/>
<path d="M420 548 c0 -2 7 -10 9 -10 2 0 5 9 4 12 -1 2 -3 1 -4 -2 -1 -2 -1
-2 -3 -1 -1 0 -2 2 -3 2 -2 3 -3 2 -3 -1z" fill="white"/>
<path d="M476 494 c-2 -2 -2 -2 -5 -1 -2 1 -3 1 -4 1 -1 -2 3 -9 7 -11 2 -1 2
-1 3 3 2 4 3 10 1 10 0 0 -1 -1 -2 -2z" fill="white"/>
<path d="M367 491 c-8 -8 -26 -20 -36 -24 -5 -1 -5 -2 -5 -3 2 -6 2 -9 0 -12
l-1 -3 4 -5 c2 -3 4 -6 5 -6 0 0 3 3 8 6 4 4 12 10 18 13 11 8 11 8 9 15 -1 2
-1 7 0 12 0 5 1 10 1 10 -1 0 -2 -1 -3 -3z" fill="white"/>
<path d="M298 466 c-3 -7 -2 -16 0 -21 1 -2 4 -7 7 -10 5 -5 15 -13 17 -13 1
0 9 12 8 13 0 1 -2 4 -5 9 -5 7 -5 8 -6 14 l0 7 -9 3 c-5 1 -9 2 -10 3 0 0 -1
-2 -2 -5z" fill="white"/>
<path d="M413 462 c-1 -2 2 -12 4 -14 1 -2 10 9 10 11 0 4 -2 4 -5 1 -1 -2 -1
-2 -4 1 -3 3 -5 4 -5 1z" fill="white"/>
<path d="M81 433 c-9 -1 -18 -3 -19 -5 -2 -2 -2 -2 2 -3 4 -2 4 -2 11 0 5 1 9
1 25 1 15 -1 20 -1 22 -3 3 -1 3 -1 8 1 2 1 4 2 4 2 -2 5 -35 10 -53 7z" fill="white"/>
<path d="M503 428 c0 -3 2 -8 4 -11 1 -2 2 -2 4 1 3 3 5 8 4 10 0 1 -1 0 -2
-1 -3 -3 -4 -3 -6 1 -2 3 -3 3 -4 0z" fill="white"/>
<path d="M38 424 c-6 -1 -17 -3 -25 -5 l-13 -3 0 -23 0 -23 4 1 c9 3 32 10 32
10 0 0 -1 3 -2 6 -3 8 -3 15 0 21 3 6 8 9 15 10 l6 1 0 4 c0 4 0 4 -3 4 -1 0
-8 -1 -14 -3z" fill="white"/>
<path d="M82 422 l-4 -1 3 0 c4 -1 31 -1 34 0 6 2 -24 3 -33 1z" fill="white"/>
<path d="M176 421 c-2 -1 -2 -1 8 -7 17 -10 30 -21 35 -31 5 -7 3 -7 -3 1 -6
8 -17 17 -29 25 -12 8 -19 11 -21 10 -1 -1 -2 -1 -2 -1 0 -1 6 -5 14 -10 20
-13 29 -21 37 -28 6 -6 7 -7 10 -5 2 1 1 5 -5 13 -7 12 -24 26 -38 33 -4 2 -4
2 -6 0z" fill="white"/>
<path d="M59 410 c2 -24 5 -44 9 -49 3 -4 9 -7 20 -8 15 -2 28 0 33 4 4 3 8
15 9 29 3 18 4 34 4 35 -1 0 -4 -1 -8 -1 -19 -5 -42 -5 -59 0 -4 1 -7 2 -8 2
0 0 0 -6 0 -12z" fill="white"/>
<path d="M49 415 c-10 -2 -14 -7 -13 -18 0 -8 1 -12 6 -17 4 -4 12 -8 16 -8 2
0 2 0 2 3 0 2 -2 3 -6 5 -8 5 -12 10 -12 18 0 6 5 11 11 11 2 0 2 1 2 3 -1 4
-1 4 -6 3z" fill="white"/>
<path d="M166 395 c4 -11 8 -23 9 -25 1 -5 2 -5 8 -8 14 -5 16 -6 17 -9 1 -1
1 -3 0 -4 0 -1 1 -2 4 -4 6 -2 7 -5 6 -12 -1 -8 -5 -17 -9 -19 -2 0 -3 -1 -3
-2 1 0 46 -24 46 -24 0 1 -6 18 -14 40 -8 22 -15 42 -16 46 -2 5 -2 6 -16 16
-12 9 -38 26 -39 26 -1 0 3 -9 7 -21z" fill="white"/>
<path d="M141 413 c-1 0 -3 0 -3 -1 -1 0 -2 -7 -2 -14 -2 -16 -6 -32 -9 -39
-3 -5 -8 -8 -21 -9 -13 -2 -26 0 -34 4 -5 2 -6 3 -9 9 -1 3 -3 6 -5 6 -6 1
-12 3 -16 6 -4 4 -4 4 -8 3 -4 -2 -19 -6 -29 -10 l-5 -1 0 -10 c0 -10 0 -10 2
-10 10 -3 77 -15 80 -15 4 0 41 11 43 13 1 1 22 48 27 60 2 5 1 7 -4 8 -2 1
-4 1 -4 1 0 0 -2 0 -3 -1z" fill="white"/>
<path d="M148 387 c-17 -40 -27 -60 -57 -106 -32 -50 -38 -60 -45 -73 -8 -18
-11 -29 -12 -45 0 -12 1 -25 3 -23 0 0 3 6 6 12 l5 12 -1 5 c-2 5 -2 7 -1 11
2 4 6 6 9 4 2 -1 3 1 14 22 17 30 16 27 12 26 -4 0 -5 1 -6 8 0 7 2 12 7 12 1
0 2 -1 3 -3 2 -2 4 -2 6 -2 3 0 4 2 11 11 10 12 27 30 34 35 l5 3 -1 5 c0 3 0
13 0 22 0 13 0 17 2 24 1 4 3 9 4 10 2 2 2 2 2 1 -5 -16 -5 -20 -6 -31 0 -12
1 -26 2 -28 0 -1 2 0 7 2 4 2 12 4 18 6 12 3 13 4 9 7 -1 1 -2 4 -3 6 0 1 -1
4 -2 5 -1 1 -2 3 -2 6 0 4 -1 6 -2 8 -1 2 -1 3 -1 7 1 3 0 5 -1 8 -2 3 -2 6 3
9 2 2 3 3 2 4 0 1 -3 10 -7 21 -4 11 -7 20 -7 20 -1 0 -5 -9 -10 -21z m-27
-83 c1 -1 3 -2 4 -1 3 0 6 -2 6 -4 0 -5 -12 -14 -16 -13 -4 2 -5 15 -2 19 2 2
6 1 8 -1z" fill="white"/>
<path d="M288 406 c-15 -2 -33 -8 -44 -15 -5 -3 -16 -13 -15 -14 0 0 5 1 10 3
13 5 32 9 57 14 24 5 25 6 5 6 -18 0 -38 -5 -56 -13 -11 -5 -11 -6 -8 -3 4 4
20 11 29 13 12 4 30 6 40 6 4 0 8 0 8 0 0 0 -2 1 -3 2 -4 2 -11 2 -23 1z" fill="white"/>
<path d="M49 404 c-4 -2 -5 -5 -2 -11 2 -7 2 -7 7 -6 3 1 4 2 2 13 0 5 -1 6
-2 6 -2 0 -4 -1 -5 -2z" fill="white"/>
<path d="M396 404 c-1 -2 0 -6 2 -11 l2 -3 3 3 c4 4 7 9 7 11 -1 1 -1 1 -4 -2
l-3 -2 -2 2 c-3 3 -5 4 -5 2z" fill="white"/>
<path d="M290 389 c-29 -6 -36 -8 -48 -11 l-7 -2 16 -47 c9 -26 16 -48 16 -48
1 0 43 6 50 8 3 0 2 1 -11 10 -13 9 -17 13 -17 18 0 1 -1 3 -2 4 -5 3 -6 6 -6
13 0 5 0 6 3 7 1 0 3 1 4 1 1 0 1 1 0 3 -1 5 2 6 10 6 7 0 17 -2 31 -6 6 -2
11 -3 11 -3 0 0 -3 12 -7 27 l-9 26 -3 0 c-1 0 -15 -3 -31 -6z" fill="white"/>
<path d="M452 389 c-2 -1 0 -10 3 -14 l2 -2 3 3 c5 4 7 9 6 11 l0 2 -4 -2 -3
-2 -2 2 c-2 3 -4 4 -5 2z" fill="white"/>
<path d="M228 372 c-1 -1 -4 -1 -6 -1 -3 0 -4 0 -3 -1 0 -1 6 -18 13 -38 18
-49 18 -50 20 -52 3 -1 9 -1 11 0 1 0 -1 7 -8 28 -5 15 -13 36 -16 46 -3 11
-7 19 -7 19 -1 0 -3 -1 -4 -1z" fill="white"/>
<path d="M170 360 c-2 -2 -1 -4 1 -6 2 -2 22 -6 25 -6 4 2 -3 8 -11 11 -8 2
-13 3 -15 1z" fill="white"/>
<path d="M342 351 c2 -9 4 -12 7 -14 7 -3 0 -2 -19 4 -20 6 -32 8 -36 7 -7 -2
-2 -5 23 -14 18 -6 21 -7 20 -9 -1 0 -11 3 -23 7 -22 7 -26 8 -29 6 -3 -2 1
-5 22 -13 12 -5 22 -10 23 -11 3 -3 -4 -1 -23 7 -25 10 -24 10 -22 6 2 -3 6
-5 26 -17 13 -7 18 -10 14 -10 -1 0 -8 4 -17 8 -8 4 -15 7 -15 7 0 -3 20 -18
35 -26 16 -9 37 -15 43 -12 4 2 7 12 8 21 0 10 -1 17 -7 27 -4 8 -16 21 -23
26 -9 6 -9 6 -7 0z" fill="white"/>
<path d="M530 351 c-1 -2 0 -7 3 -11 2 -3 2 -3 4 -1 2 2 5 9 5 12 -1 1 -1 1
-4 -2 l-2 -3 -3 3 c-2 3 -3 3 -3 2z" fill="white"/>
<path d="M172 347 c-2 -2 -1 -6 1 -7 3 -2 30 -5 33 -4 2 1 1 4 -2 5 -3 2 -26
7 -29 7 -1 0 -2 -1 -3 -1z" fill="white"/>
<path d="M0 334 c0 -8 0 -9 2 -9 23 -6 31 -7 35 -7 7 0 39 10 35 11 -3 1 -69
14 -71 14 -1 0 -1 -2 -1 -9z" fill="white"/>
<path d="M92 331 c-16 -6 -39 -13 -50 -16 -12 -4 -26 -9 -32 -12 l-10 -5 0
-149 0 -149 18 0 17 0 0 33 0 34 -4 3 c-7 4 -9 8 -8 18 0 6 1 10 6 27 l6 19
-2 6 c-5 17 -3 40 8 64 l4 10 0 19 c0 10 0 22 -1 27 -2 15 -8 24 -17 29 -5 3
-7 3 -15 4 -9 0 -12 1 -5 3 10 1 22 -3 29 -10 10 -9 12 -23 13 -61 l0 -4 4 6
c2 4 16 26 32 51 26 40 39 62 37 62 0 0 -14 -4 -30 -9z" fill="white"/>
<path d="M175 334 c-2 -2 -1 -5 1 -7 2 -2 3 -2 14 -2 11 0 17 1 17 4 0 2 -2 3
-14 4 -6 1 -12 1 -14 2 -1 0 -3 -1 -4 -1z" fill="white"/>
<path d="M0 312 c0 -6 0 -10 1 -10 0 0 3 1 6 3 4 2 5 3 5 7 0 3 0 6 -1 6 -1 1
-3 2 -6 3 l-5 1 0 -10z" fill="white"/>
<path d="M179 320 c-1 -3 2 -4 10 -4 8 0 13 1 13 5 0 2 -22 2 -23 -1z" fill="white"/>
<path d="M15 314 c0 -3 0 -5 1 -5 1 0 15 5 15 6 0 1 -12 3 -15 3 -1 0 -1 -2
-1 -4z" fill="white"/>
<path d="M186 312 c-4 -1 -2 -2 3 -2 3 0 5 0 5 1 0 1 -5 2 -8 1z" fill="white"/>
<path d="M485 306 c0 -3 2 -9 5 -13 2 -3 2 -3 4 -1 3 3 8 10 7 12 0 2 -2 1 -4
-1 -2 -3 -4 -3 -5 1 -2 2 -4 4 -6 4 0 0 0 -1 -1 -2z" fill="white"/>
<path d="M171 304 c-33 -7 -58 -30 -91 -85 -24 -41 -46 -92 -52 -121 -5 -20
-3 -23 15 -31 10 -4 12 -6 14 -14 3 -12 12 -19 30 -23 12 -3 18 -6 23 -12 3
-3 7 -7 10 -8 10 -6 17 -7 43 -6 10 0 12 0 18 -2 5 -2 7 -2 33 -2 l27 1 3 6
c5 10 6 16 5 33 0 7 0 16 0 19 0 12 6 25 18 40 l7 8 -2 4 c-1 3 -2 6 -2 8 0 7
11 22 21 29 3 3 7 6 8 8 7 11 15 19 28 25 9 4 19 6 30 6 9 -1 9 -1 15 3 10 5
18 9 27 11 5 1 9 2 9 2 -1 0 -4 3 -9 5 -11 8 -28 21 -46 35 -35 30 -46 36 -66
36 -20 0 -61 -15 -84 -30 -11 -7 -27 -23 -37 -36 -4 -6 -7 -10 -8 -10 -3 0 15
23 27 35 15 15 33 25 56 34 10 3 14 5 11 5 0 0 -3 2 -5 3 -2 2 -13 9 -24 15
l-20 11 -12 0 c-7 0 -15 -1 -20 -2z m8 -15 c2 -2 3 -2 5 -1 4 0 8 -2 8 -5 0
-5 -15 -15 -19 -12 -2 2 -5 10 -5 14 0 7 7 9 11 4z m-49 -37 c1 -1 2 -1 5 -1
5 1 7 0 7 -4 0 -3 -1 -4 -4 -7 -4 -4 -11 -8 -13 -7 -1 0 -3 2 -4 4 -3 5 -4 11
-2 14 2 4 8 5 11 1z m124 -1 c2 -2 2 -2 5 -1 4 2 9 -1 9 -6 0 -4 -11 -15 -16
-15 -2 0 -6 5 -8 10 -5 11 1 19 10 12z m67 -4 c2 -1 4 -2 5 -1 4 0 6 -1 6 -5
0 -2 -8 -13 -10 -13 -4 0 -12 13 -11 18 1 2 4 4 6 4 1 0 2 -1 4 -3z m24 -25
c2 -2 23 -24 24 -26 0 -1 0 -1 -1 -1 -1 0 -5 4 -9 9 -20 21 -20 20 -14 18z
m-149 -12 c1 0 2 -2 2 -3 0 -1 1 -1 3 -1 6 2 10 0 10 -4 0 -5 -15 -16 -20 -15
-4 2 -7 18 -4 22 3 3 6 4 9 1z m-105 -12 c-10 -24 -16 -48 -23 -85 -3 -15 -5
-23 -6 -24 -1 0 -1 1 4 28 4 22 8 41 14 59 4 13 10 28 13 32 3 5 2 0 -2 -10z
m207 3 c2 -2 3 -2 6 -1 4 0 6 -1 6 -6 0 -3 -2 -4 -6 -8 -4 -3 -7 -5 -8 -5 -1
0 -3 3 -4 6 -3 6 -4 13 -2 15 2 2 6 1 8 -1z m-171 -6 c2 -2 4 -2 6 -1 4 0 7
-2 7 -5 0 -5 -6 -12 -14 -15 -4 -2 -6 -1 -8 4 -3 6 -3 14 0 18 4 3 5 3 9 -1z
m119 -29 c2 -2 3 -3 3 -2 1 2 8 1 9 0 3 -4 -2 -14 -10 -18 -3 -2 -4 -2 -6 0
-5 3 -9 17 -5 21 2 3 6 2 9 -1z m-39 -15 c-2 -4 -13 -61 -14 -72 -1 -5 -3 -20
-5 -32 -1 -13 -3 -23 -3 -24 -1 0 -1 0 -2 0 -1 2 7 65 11 86 4 15 10 42 11 43
1 2 2 1 2 -1z m-39 -9 c2 -2 4 -3 5 -2 3 2 6 1 8 -1 1 -3 1 -3 -1 -8 -2 -4 -8
-9 -12 -11 -3 0 -5 2 -8 8 -3 7 -3 11 -1 14 3 3 5 3 9 0z m-31 -17 c-7 -26
-26 -83 -27 -84 -2 -2 -1 3 3 15 6 20 19 60 21 68 5 18 5 19 6 15 0 -2 -1 -8
-3 -14z m-36 6 c2 -2 3 -2 5 -1 4 2 8 0 8 -5 0 -4 -11 -14 -17 -14 -3 0 -7 9
-7 14 0 9 6 12 11 6z m-50 -4 c2 -2 2 -2 5 -2 2 1 3 1 5 -1 1 -3 1 -3 -1 -6
-2 -4 -10 -9 -14 -9 -3 0 -4 1 -6 8 -1 5 3 13 7 13 1 0 3 -1 4 -3z m178 -30
c1 -2 2 -2 5 -1 4 2 8 0 8 -4 0 -5 -9 -16 -14 -16 -4 0 -10 11 -10 16 0 7 5
10 11 5z m-156 -27 c2 -1 2 -2 4 -1 4 2 9 0 9 -5 0 -2 -1 -4 -5 -8 -6 -6 -10
-8 -12 -6 -1 0 -3 3 -4 6 -3 4 -3 6 -3 10 1 7 6 9 11 4z m78 1 c2 -2 3 -3 4
-2 1 1 3 1 5 0 3 -1 4 -5 2 -9 -2 -4 -11 -11 -13 -11 -3 1 -8 10 -9 15 -1 8 6
12 11 7z m62 -42 c3 -2 3 -2 6 0 5 1 7 0 9 -3 1 -6 -10 -20 -15 -17 -7 4 -12
17 -7 20 3 2 4 2 7 0z" fill="white"/>
<path d="M115 301 c0 -3 0 -10 1 -11 1 -1 11 6 11 8 0 1 -1 1 -4 1 -3 -1 -3
-1 -4 1 -2 4 -3 4 -4 1z" fill="white"/>
<path d="M380 286 c-5 -12 -9 -15 -19 -13 l-4 0 3 -3 c5 -4 12 -8 19 -11 l6
-3 -1 14 c0 8 -1 17 -1 19 l-1 5 -2 -8z" fill="white"/>
<path d="M172 287 c-2 -3 -2 -3 0 -8 1 -3 3 -6 3 -6 2 0 14 8 14 9 -1 2 -5 2
-8 1 -2 -1 -2 -1 -3 1 -1 5 -4 6 -6 3z" fill="white"/>
<path d="M311 284 c-8 -1 -14 -2 -13 -2 0 0 2 -1 4 -1 4 -1 16 -7 23 -11 2 -2
14 -11 26 -21 25 -21 51 -40 51 -39 0 1 -2 5 -5 10 -5 8 -8 15 -10 26 l-1 6
-11 5 c-8 4 -14 8 -20 13 -6 5 -11 8 -19 11 -6 3 -11 5 -11 5 0 0 -7 -1 -14
-2z m63 -36 c1 -1 2 -1 4 0 6 3 8 -4 3 -12 -1 -3 -3 -5 -4 -5 -2 0 -11 11 -11
14 0 4 4 6 8 3z" fill="white"/>
<path d="M406 283 c-2 -3 0 -15 4 -17 3 -2 12 10 10 13 0 3 -1 2 -3 0 -3 -3
-4 -3 -6 1 -2 4 -3 5 -5 3z" fill="white"/>
<path d="M574 260 c0 -1 10 -42 11 -43 0 0 3 1 8 4 l7 4 0 15 0 16 -11 2 c-6
1 -12 2 -13 3 -1 0 -2 0 -2 -1z" fill="white"/>
<path d="M123 250 c-3 -2 -3 -5 0 -11 1 -2 2 -4 3 -4 0 0 2 1 4 3 5 2 9 6 9 9
0 2 -5 1 -7 0 -2 -3 -3 -2 -4 2 -2 4 -2 3 -5 1z" fill="white"/>
<path d="M245 248 c0 -2 3 -11 5 -14 l2 -2 3 2 c5 3 10 9 10 11 -1 3 -4 4 -7
1 -2 -1 -3 -2 -3 -2 -1 0 -2 1 -2 3 -2 3 -7 4 -8 1z" fill="white"/>
<path d="M79 246 c-2 -3 -1 -11 2 -11 2 0 7 3 9 6 3 3 3 4 -1 2 -5 -1 -5 -1
-5 2 -1 4 -2 4 -5 1z" fill="white"/>
<path d="M316 246 c-2 -1 -1 -5 2 -10 1 -3 3 -5 3 -5 1 0 8 8 8 10 0 2 -2 2
-4 1 -2 -1 -3 -1 -5 2 -2 3 -3 4 -4 2z" fill="white"/>
<path d="M370 244 c0 -2 5 -10 7 -10 1 0 4 7 4 9 0 1 -1 2 -1 2 -1 0 -2 0 -2
-1 0 -2 -3 -2 -6 0 l-2 2 0 -2z" fill="white"/>
<path d="M440 231 c-2 -1 -2 -2 -1 -6 2 -4 7 -11 8 -11 1 0 7 8 8 11 1 5 -1 6
-4 2 l-3 -2 -3 3 c-3 4 -4 4 -5 3z" fill="white"/>
<path d="M525 228 c-1 -2 -1 -3 2 -8 l3 -7 3 3 c5 5 8 11 4 11 0 0 -2 -1 -3
-2 -1 -2 -1 -2 -5 2 -3 3 -3 3 -4 1z" fill="white"/>
<path d="M588 214 c-50 -28 -56 -34 -60 -63 -1 -8 -2 -14 -2 -15 0 0 3 -2 6
-4 9 -7 16 -16 18 -27 0 -3 1 -6 2 -6 1 -1 4 -3 8 -4 11 -3 21 -7 24 -9 3 -2
6 -7 7 -13 l0 -3 1 5 c2 13 0 71 -2 80 -2 5 -9 12 -17 15 -4 2 -8 2 -18 3 -11
0 -12 1 -10 2 2 1 5 1 12 1 22 -1 33 -9 37 -25 2 -8 2 -37 1 -84 l-1 -41 -3
-7 c-3 -6 -4 -9 -4 -14 l0 -5 7 0 6 0 0 111 c0 60 0 110 0 110 0 0 -6 -3 -12
-7z" fill="white"/>
<path d="M189 207 c0 -1 0 -3 0 -3 -1 -3 3 -12 5 -13 2 0 12 7 13 10 0 3 -2 4
-6 2 -5 -2 -4 -2 -6 2 -1 3 -5 4 -6 2z" fill="white"/>
<path d="M292 199 c0 -3 4 -15 5 -15 0 0 3 2 5 4 3 3 5 5 5 7 0 2 -3 3 -5 1
-2 -3 -3 -2 -4 1 -2 3 -6 4 -6 2z" fill="white"/>
<path d="M401 198 c-10 -3 -29 -11 -29 -13 0 0 2 -1 5 -2 14 -3 31 -16 35 -25
2 -5 2 -7 -1 -3 -3 5 -14 15 -19 19 -8 5 -19 8 -31 9 -9 1 -11 1 -18 0 -11 -3
-22 -8 -29 -14 -5 -5 -12 -14 -10 -14 1 0 9 5 15 8 6 4 16 7 22 7 7 0 19 -3
25 -6 3 -1 7 -4 10 -6 3 -2 7 -4 9 -5 5 -1 29 -17 32 -20 4 -6 0 -19 -9 -31
-6 -7 -9 -9 -15 -9 l-4 0 -8 -15 c-7 -14 -7 -15 -7 -22 0 -7 0 -9 2 -13 6 -11
22 -17 47 -17 18 -1 25 1 42 10 18 9 24 11 40 16 17 5 23 8 29 14 9 8 14 19
13 32 -1 19 -11 30 -31 38 -3 1 -7 3 -10 4 -2 1 -4 2 -4 2 0 0 1 -4 2 -8 3
-11 5 -36 3 -36 -1 0 -2 2 -3 16 -4 38 -24 67 -57 79 -16 6 -33 8 -46 5z m38
-24 c8 -9 13 -22 13 -36 0 -9 -2 -9 -2 -1 -2 17 -6 27 -15 36 -7 8 -4 8 4 1z
m-8 -41 c3 -5 5 -13 5 -22 0 -15 -4 -26 -16 -40 -9 -11 -10 -15 -9 -19 1 -3 7
-7 10 -7 1 0 2 -1 2 -1 0 -1 -1 -1 -4 -1 -8 1 -13 8 -11 16 1 2 5 7 9 12 4 5
8 12 10 15 8 14 8 31 1 49 -1 2 2 1 3 -2z m50 -19 c-3 -11 -11 -23 -21 -30 -5
-4 -30 -18 -32 -18 -3 0 0 3 10 8 29 15 35 22 43 48 0 1 0 1 1 0 1 -1 0 -4 -1
-8z m44 -4 c4 -9 2 -22 -5 -31 -6 -8 -11 -10 -45 -18 -9 -3 -17 -5 -22 -8 -9
-4 -11 -3 -3 2 7 4 14 6 32 10 15 3 22 6 29 10 5 4 11 11 12 16 1 5 1 14 0 18
-2 4 -2 5 -1 5 1 0 2 -2 3 -4z" fill="white"/>
<path d="M121 193 c-2 -2 -2 -8 0 -13 1 -4 2 -5 6 -2 8 5 12 12 7 12 -1 0 -3
-1 -4 -2 -3 -2 -4 -1 -4 2 0 4 -3 6 -5 3z" fill="white"/>
<path d="M501 183 c-2 -2 2 -8 8 -12 2 -1 2 -1 4 1 0 1 2 3 2 5 1 3 1 4 0 6
-2 1 -2 1 -4 -1 -2 -4 -3 -4 -5 0 -2 2 -4 3 -5 1z" fill="white"/>
<path d="M50 180 c-1 -1 -1 -4 -1 -7 l1 -5 2 4 c1 3 2 6 2 7 0 2 -2 3 -4 1z" fill="white"/>
<path d="M334 166 c-7 -2 -8 -3 -16 -8 -4 -3 -10 -5 -13 -7 -11 -3 -19 -9 -27
-21 -3 -5 -4 -7 -4 -11 0 -7 5 -16 9 -16 4 0 8 7 9 17 1 8 4 14 6 15 2 0 2 0
0 -4 -1 -3 -2 -11 -4 -36 0 -9 0 -11 1 -14 4 -7 16 -16 26 -19 10 -2 19 -1 35
7 7 4 14 7 17 8 4 2 5 3 11 14 l2 4 -4 6 c-3 4 -4 9 -7 18 -3 13 -4 14 -2 14
1 -1 2 -3 7 -20 4 -13 11 -19 18 -16 6 2 17 21 17 29 0 1 -1 3 -1 5 -3 3 -25
17 -29 19 -4 1 -13 1 -18 -1 -4 -1 -1 2 3 4 l4 2 -4 3 c-6 4 -12 7 -19 8 -8 1
-9 1 -17 0z m-26 -59 c7 0 7 -2 2 -4 -3 -2 -4 -2 -7 0 -2 1 -4 3 -4 4 0 1 0 1
2 0 1 0 4 0 7 0z m43 -2 c2 0 5 0 6 0 4 2 2 -2 -2 -4 -4 -1 -5 -1 -8 0 -3 1
-5 2 -5 3 0 2 0 2 3 1 1 0 4 0 6 0z m-23 -13 c4 -3 4 -7 -1 -10 -9 -6 -22 4
-14 10 3 3 12 3 15 0z m-6 -18 c3 -4 9 -5 16 -3 1 1 1 1 -1 -1 -3 -2 -7 -3
-11 -1 -3 1 -6 2 -9 1 -5 0 -6 0 -7 2 -1 1 -1 1 1 1 3 -2 6 -2 7 1 2 2 2 3 4
0z" fill="white"/>
<path d="M240 165 c-2 -3 -1 -11 3 -16 2 -2 2 -2 5 0 4 4 7 8 7 11 0 2 0 2 -2
1 -1 0 -3 -1 -4 -2 -2 -3 -3 -2 -3 1 -1 4 -4 6 -6 5z" fill="white"/>
<path d="M162 140 c-2 -1 -1 -6 1 -10 3 -8 3 -8 8 -4 8 7 9 15 2 10 l-3 -2 -3
3 c-2 3 -4 5 -5 3z" fill="white"/>
<path d="M94 130 c-2 -1 -1 -7 1 -12 l2 -5 4 2 c8 5 12 11 9 13 -1 0 -3 -1 -4
-2 -2 -1 -4 -2 -4 -2 -1 0 -1 2 -2 4 -1 2 -2 3 -3 3 -2 0 -3 0 -3 -1z" fill="white"/>
<path d="M45 125 c-1 -1 -1 -8 0 -12 0 -2 0 -2 3 0 6 2 10 6 10 8 0 2 0 2 -4
0 -3 -1 -5 -1 -5 2 -1 3 -2 3 -4 2z" fill="white"/>
<path d="M289 102 c-3 -2 -9 -3 -11 0 -2 0 -3 1 -3 1 -1 0 -4 -4 -7 -8 -7 -10
-14 -22 -15 -30 -1 -6 -1 -18 0 -22 0 -3 1 -3 3 5 4 9 7 15 8 15 1 0 1 -1 0
-4 -1 -2 -1 -3 1 -4 1 0 17 -5 36 -10 104 -29 142 -37 159 -33 11 3 31 12 69
32 45 24 44 23 49 29 2 2 4 4 5 4 1 0 0 -3 -3 -6 -4 -5 -8 -8 -50 -29 -60 -32
-64 -33 -81 -33 -12 0 -25 2 -51 8 -34 7 -107 27 -128 34 -5 1 -8 2 -8 2 -1
-1 -8 -24 -9 -30 -2 -6 -3 -11 -8 -22 0 -1 21 -1 105 -1 99 0 105 0 105 2 1 1
1 1 2 0 2 -2 5 -2 55 -2 l54 0 7 5 c8 6 13 11 16 17 2 5 2 17 1 33 -2 24 -3
27 -14 32 -6 2 -21 7 -24 7 0 0 -1 -3 -2 -7 -2 -9 -6 -16 -12 -23 -7 -6 -15
-10 -30 -15 -17 -4 -24 -7 -41 -15 -18 -10 -24 -12 -44 -11 -24 0 -36 3 -46
13 l-4 4 -6 -1 c-11 -2 -23 0 -27 6 -2 3 -2 9 0 11 2 3 1 4 -3 3 -5 -2 -16 -1
-22 2 l-4 1 -5 -3 c-7 -4 -13 -6 -21 -4 -8 1 -11 3 -13 8 -2 7 1 12 11 19 l7
4 0 9 c1 4 1 8 1 9 -1 0 -1 -1 -2 -2z" fill="white"/>
<path d="M222 95 c-2 -2 0 -8 3 -12 3 -4 3 -4 6 -2 3 2 8 10 7 12 0 2 -2 1 -4
-1 -3 -3 -4 -3 -7 1 -2 3 -4 4 -5 2z" fill="white"/>
<path d="M286 80 c-2 -1 -5 -4 -7 -6 -5 -5 -5 -9 -2 -13 4 -3 6 -3 6 2 0 2 1
4 2 4 2 0 2 0 1 -2 -2 -4 1 -7 6 -7 5 0 15 4 15 6 0 0 -3 3 -6 5 -3 2 -6 6 -8
9 -1 2 -3 4 -3 4 0 0 -2 -1 -4 -2z" fill="white"/>
<path d="M365 70 c-5 -2 -12 -6 -15 -9 -8 -6 -10 -10 -8 -13 1 -2 3 -2 3 0 0
3 3 7 5 6 0 -1 -1 -2 -2 -3 -2 -4 -1 -8 3 -9 4 -1 5 -1 5 2 0 3 1 5 3 5 1 0 1
-1 0 -3 -2 -5 0 -5 6 -4 l6 1 -1 8 c0 8 1 14 4 21 0 3 -1 2 -9 -2z" fill="white"/>
<path d="M66 68 c-1 -1 -1 -3 0 -5 0 -4 4 -11 5 -11 1 0 9 6 10 8 1 1 1 3 1 4
0 3 -4 3 -7 0 l-2 -2 -2 4 c-1 4 -3 5 -5 2z" fill="white"/>
<path d="M144 68 c-1 -2 1 -11 4 -14 l2 -2 5 5 c3 3 5 6 5 7 0 3 -1 4 -5 1
l-3 -2 -3 3 c-2 4 -4 5 -5 2z" fill="white"/>
<path d="M38 43 c0 -12 0 -22 1 -22 0 0 40 -12 60 -18 11 -3 12 -3 26 -3 13 0
14 0 10 1 -7 1 -15 4 -19 7 -2 1 -6 5 -8 8 -7 6 -10 8 -22 11 -13 3 -18 5 -24
10 -5 5 -7 9 -9 16 -2 7 -8 12 -13 12 -2 0 -2 0 -2 -22z" fill="white"/>
<path d="M208 27 c-2 -2 2 -13 6 -16 2 -1 9 7 10 11 0 4 0 4 -2 4 -1 0 -3 -1
-4 -2 l-2 -2 -3 3 c-2 3 -4 4 -5 2z" fill="white"/>
<path d="M38 9 l0 -9 12 0 13 0 1 3 c1 7 0 7 -13 11 -7 2 -13 4 -13 4 0 0 0
-4 0 -9z" fill="white"/>
<path d="M67 5 l-1 -5 16 0 c8 0 15 0 15 0 -1 1 -28 9 -29 9 -1 0 -1 -2 -1 -4z" fill="white"/>
<path d="M577 4 l-6 -4 6 0 7 0 0 4 c0 2 0 4 -1 4 0 0 -3 -2 -6 -4z" fill="white"/>
<path d="M158 0 c3 0 9 0 12 0 3 0 0 1 -6 1 -7 0 -10 -1 -6 -1z" fill="white"/>
</g>
</svg>
