<?xml version="1.0" encoding="UTF-8"?>
<svg width="600" height="800" viewBox="0 0 600 800" fill="none" xmlns="http://www.w3.org/2000/svg">
<g transform="translate(0,800) scale(1,-1)">
<path d="M22 799 c0 0 -1 -6 -2 -13 -1 -8 -3 -20 -4 -29 -1 -13 -1 -16 0 -19
2 -5 1 -5 17 -5 13 -1 56 -4 72 -6 6 -1 17 -1 24 -2 7 -1 20 -2 28 -2 7 -1 17
-2 22 -3 5 0 18 -1 30 -2 40 -4 52 -4 53 -3 1 1 2 4 3 8 3 16 9 41 14 56 4 9
4 13 3 13 0 1 -9 2 -20 3 -11 1 -25 3 -32 4 -7 0 -20 1 -29 1 -8 0 -14 0 -12
-1 1 0 16 -1 32 -3 40 -4 58 -6 59 -6 0 -1 -2 -5 -4 -10 -4 -12 -9 -30 -13
-48 l-2 -15 -6 0 c-3 1 -14 2 -25 3 -11 0 -27 2 -36 3 -15 1 -51 4 -75 6 -7 1
-14 1 -15 1 -3 1 -27 3 -57 5 -26 3 -27 3 -28 6 -1 2 -1 6 4 41 1 9 2 16 2 17
0 1 -3 2 -3 0z M35 798 c-1 -2 -2 -12 -4 -32 -2 -14 -2 -16 0 -18 1 -3 2 -3 25 -4
10 -1 25 -3 34 -4 9 0 18 -1 22 -2 22 -1 42 -3 50 -4 4 -1 22 -2 39 -4 29 -3
31 -3 33 -1 2 1 3 3 3 6 1 6 5 30 6 36 1 7 0 10 -3 11 -2 1 -34 5 -73 8 -15 2
-34 4 -42 5 -40 4 -57 5 -72 5 -15 0 -17 0 -18 -2z m31 -1 c11 -1 32 -3 46 -5
13 -1 32 -3 41 -4 8 0 18 -1 20 -1 8 -1 35 -4 50 -5 8 -1 15 -2 16 -3 1 -2 1
-2 -2 -28 -2 -10 -4 -18 -5 -19 -1 -1 0 -2 -53 4 -37 3 -56 5 -76 6 -38 3 -69
7 -70 8 -1 1 -1 3 0 5 0 3 0 9 1 15 1 13 3 24 4 27 1 3 2 3 28 0z M80 778 c-2 -2 -3 -7 -1 -12 1 -3 12 -13 14 -13 2 0 12 6 14 10 4 5
5 9 3 13 0 1 -2 3 -2 3 -2 2 -8 1 -11 -1 -3 -1 -3 -1 -6 1 -3 3 -8 3 -11 -1z
m11 -2 c4 -4 5 -5 6 -2 0 0 2 2 3 3 3 1 3 1 6 0 1 -2 2 -3 2 -5 0 -3 -1 -5 -7
-10 -3 -3 -7 -6 -7 -6 -1 0 -4 3 -7 6 -5 5 -6 6 -6 9 0 4 3 8 5 8 1 0 3 -2 5
-3z M156 770 c-1 0 -1 -1 0 -1 2 -1 62 -6 63 -6 1 2 -3 3 -7 3 -3 0 -9 0
-14 1 -5 1 -15 1 -22 2 -7 1 -15 1 -17 2 -1 0 -3 0 -3 -1z M154 755 c1 -1 7 -2 22 -4 25 -2 32 -3 33 -1 0 0 -12 2 -49 5 -5 1
-6 1 -6 0z M417 798 c9 -1 18 -2 21 -2 3 -1 4 -1 5 1 l2 3 -23 0 -22 0 17 -2z M453 789 c-4 -6 -7 -11 -8 -12 -1 0 -11 1 -37 4 -70 7 -100 10 -101
9 -2 -1 -6 -10 -9 -18 -6 -15 -11 -33 -15 -55 l-1 -11 -6 0 c-3 1 -12 1 -21 2
-8 1 -21 2 -28 3 -7 0 -31 2 -54 4 -23 2 -48 4 -57 5 -9 1 -18 1 -20 2 -15 1
-89 7 -94 7 -1 0 -2 -1 -2 -1 0 -2 3 -2 19 -3 11 -1 80 -7 93 -8 6 0 15 -1 20
-2 4 0 16 -1 25 -2 9 0 25 -2 36 -2 20 -2 42 -4 74 -6 9 -1 24 -2 31 -3 7 -1
20 -2 28 -3 24 -2 47 -4 65 -5 10 -1 28 -3 40 -4 12 -1 26 -2 30 -3 8 0 8 0 8
-3 0 -7 4 -12 10 -12 5 0 5 -1 2 -5 -5 -8 -5 -11 -6 -86 -1 -40 -1 -73 -2 -74
0 -1 -2 0 -6 4 l-6 5 1 66 c0 36 0 69 0 73 0 12 -4 20 -13 24 -2 2 -12 3 -36
5 -43 4 -95 9 -110 10 -18 2 -24 2 -30 -2 -6 -3 -11 -10 -13 -18 0 -3 -1 -25
-1 -49 -1 -34 -1 -44 -3 -48 -1 -5 -1 -16 0 -20 1 -3 2 -13 1 -57 l0 -54 -3
-7 c-2 -4 -5 -10 -8 -13 -6 -8 -9 -14 -9 -20 0 -3 0 -4 -3 -6 -2 0 -5 -3 -7
-6 -3 -3 -6 -6 -8 -7 -10 -3 -17 -17 -15 -27 l1 -4 -6 -6 c-3 -3 -6 -7 -7 -8
0 -3 0 -3 -17 -6 -12 -2 -29 -7 -36 -11 -15 -7 -22 -16 -28 -39 -6 -21 -15
-44 -29 -80 l-5 -12 -5 -1 c-2 -1 -11 -2 -19 -3 -8 -1 -15 -2 -15 -2 0 1 1 6
3 12 4 9 39 148 48 187 l2 8 23 0 c12 1 39 1 60 2 40 1 40 1 48 7 2 2 5 6 7 9
l2 7 1 82 c2 190 2 179 0 183 -6 12 -12 15 -33 17 -36 3 -70 5 -80 6 -10 1
-39 3 -91 7 -11 1 -21 2 -24 3 -3 0 -4 0 -4 -2 0 -2 2 -2 50 -6 13 -1 39 -3
56 -5 17 -1 49 -3 70 -5 20 -2 39 -3 40 -4 5 -2 9 -5 12 -11 l2 -6 0 -31 c0
-18 -1 -75 -1 -128 -1 -106 -1 -103 -6 -110 -6 -7 -10 -8 -35 -9 -40 -2 -95
-3 -96 -2 -2 1 0 4 3 4 2 1 25 1 52 2 l49 1 6 3 c10 5 16 15 18 26 1 4 1 36 1
77 0 39 0 87 1 107 0 39 0 49 -4 57 -3 6 -14 15 -19 16 -1 1 -17 2 -35 3 -19
2 -38 3 -44 4 -13 1 -88 7 -110 9 -9 0 -10 0 -10 -1 0 -2 2 -3 15 -3 6 -1 22
-2 35 -3 13 -1 33 -3 45 -4 11 0 32 -2 45 -3 13 -1 30 -3 37 -3 18 -1 20 -2
26 -5 6 -3 10 -9 13 -16 2 -5 2 -7 2 -68 0 -117 -1 -165 -3 -171 -2 -7 -7 -15
-14 -18 l-5 -3 -31 -1 c-17 -1 -41 -1 -52 -1 l-20 0 0 17 c0 19 -1 28 -6 38
-5 10 -11 15 -22 19 -10 3 -24 5 -42 5 -20 0 -23 0 -23 -3 0 -2 0 -2 5 -1 8 1
34 0 44 -1 22 -4 32 -11 37 -27 2 -5 2 -10 3 -21 l0 -14 -8 1 c-4 0 -8 1 -8 1
0 1 -1 7 -1 14 -1 26 -7 32 -35 35 -11 1 -32 1 -35 0 -1 -1 -2 -2 -2 -3 0 -2
0 -2 3 -1 5 1 28 1 39 0 15 -3 20 -6 23 -13 2 -4 4 -17 3 -17 -1 0 -3 1 -6 2
-11 5 -30 8 -51 10 -10 0 -11 0 -11 -2 0 -2 1 -2 15 -3 8 0 18 -2 23 -2 10 -2
26 -7 26 -8 0 0 -2 -2 -4 -3 -5 -3 -10 -10 -13 -16 -1 -2 -4 -11 -7 -21 -4
-10 -7 -19 -8 -20 -1 -3 -1 -4 0 -4 2 0 4 6 15 37 4 12 9 19 15 22 5 3 6 3 6
-1 0 -2 1 -4 2 -6 l1 -4 -3 -4 c-5 -5 -6 -7 -11 -22 -8 -27 -11 -35 -20 -53
-20 -46 -30 -85 -30 -116 0 -7 0 -14 1 -16 0 -3 1 -6 2 -8 l0 -3 -4 3 c-5 4
-6 5 -6 2 0 -1 2 -3 4 -4 5 -4 4 -5 -1 -3 -2 1 -3 1 -3 0 0 -1 2 -3 5 -4 6 -2
8 -5 8 -12 0 -7 -2 -11 -8 -12 -4 -1 -5 -2 -5 -3 0 -2 2 -2 8 0 1 0 2 0 2 0 0
-2 -3 -7 -6 -10 -2 -2 -4 -4 -4 -5 0 -1 1 -1 4 1 4 2 5 4 8 10 4 6 4 7 8 7 5
0 14 1 33 4 7 1 14 2 14 2 2 0 0 -12 -4 -20 -5 -15 -5 -17 6 -23 4 -3 7 -4 7
-5 0 0 -17 -3 -48 -9 -15 -2 -27 -4 -27 -5 -1 0 -1 -3 -1 -3 0 0 5 1 12 2 6 1
20 4 31 6 11 1 24 4 29 5 5 1 10 2 10 1 0 0 0 -1 -1 -2 -1 -3 -1 -3 -5 -2 -4
0 -5 0 -7 -3 -2 -2 -3 -4 -3 -4 0 -1 -1 -1 -2 -1 -3 0 -6 -3 -7 -7 -1 -4 -8
-11 -11 -11 -1 0 -4 -2 -7 -5 -3 -2 -7 -5 -9 -5 -7 -2 -13 -6 -16 -9 -6 -10
-8 -22 -4 -28 5 -7 16 -11 31 -12 l10 0 0 -6 c1 -6 4 -10 11 -14 11 -5 31 -7
44 -5 4 1 8 1 10 2 3 0 9 1 14 3 9 3 11 4 15 8 5 5 7 6 12 4 3 -1 5 -1 8 0 8
2 21 8 24 11 3 3 3 4 3 12 0 4 0 10 -1 12 -1 5 -5 25 -5 27 0 1 1 2 6 2 12 2
14 3 16 18 1 5 1 9 2 9 0 0 4 -2 9 -4 5 -3 17 -9 28 -14 11 -5 23 -11 28 -13
41 -19 55 -26 56 -26 0 0 9 -4 20 -10 23 -12 26 -12 39 -9 6 2 8 2 9 0 1 -1 1
-1 -1 -2 -2 -1 -4 -1 -4 -1 -1 0 -7 -2 -14 -4 -7 -2 -23 -6 -36 -10 -14 -3
-30 -8 -37 -10 -7 -2 -17 -4 -23 -6 -7 -2 -14 -4 -16 -4 l-4 -2 4 0 c3 0 12 2
42 10 4 2 33 9 47 13 4 1 8 2 10 3 1 1 7 2 14 4 6 2 12 4 15 4 2 1 5 2 7 2 2
0 8 -2 10 -4 2 -2 2 -2 -5 -4 -10 -3 -39 -11 -42 -12 -12 -3 -24 -6 -31 -8 -5
-2 -12 -4 -17 -5 -8 -2 -8 -3 -4 -3 3 0 9 1 18 4 16 4 43 12 65 18 19 5 22 6
22 9 0 1 -9 6 -16 9 -2 1 0 2 11 5 11 3 36 10 40 11 1 0 2 -1 3 -11 3 -14 6
-25 9 -29 6 -8 23 -13 45 -13 23 0 38 5 43 16 4 9 7 26 9 47 1 9 2 14 3 15 2
0 11 -3 14 -6 2 -1 3 -2 4 -2 1 1 2 13 2 24 0 8 0 10 -2 15 -3 6 -10 13 -15
15 -3 1 -2 2 5 5 3 1 6 2 7 1 2 -1 13 -5 16 -5 2 -1 3 -1 3 0 0 1 -2 2 -6 4
-3 0 -7 2 -9 2 -2 1 -3 2 -3 2 0 1 2 2 3 4 2 2 5 5 5 7 2 3 3 4 5 2 0 0 2 -1
3 -1 3 -2 3 2 -1 3 -2 0 -3 1 -3 2 0 1 1 3 3 6 2 2 3 5 3 6 0 2 0 2 -3 -1 -2
-1 -5 -6 -7 -10 -5 -10 -13 -18 -21 -20 -3 -2 -10 -3 -15 -3 l-10 0 -4 -5
c-10 -9 -15 -13 -16 -13 -1 2 8 16 16 25 10 11 15 16 24 21 4 2 7 4 8 5 1 0 3
1 5 1 3 1 5 3 2 3 -3 0 -18 -7 -26 -13 -7 -5 -15 -13 -15 -15 0 -1 -1 -1 -1
-1 -2 0 -2 1 -2 6 0 7 1 8 7 10 7 2 22 17 17 17 0 0 -3 -2 -5 -5 -5 -5 -14
-11 -16 -10 -1 1 3 7 7 11 6 7 18 11 28 10 9 -1 18 -4 23 -6 4 -2 4 -2 4 0 0
1 -1 3 -4 4 -5 2 -20 6 -26 6 -4 0 -4 0 -3 2 0 1 1 4 3 8 1 3 2 6 2 7 0 0 6
-1 13 -3 15 -3 15 -3 15 -2 0 1 -2 2 -4 3 -5 1 -17 4 -20 4 -2 1 -3 1 -3 11 0
6 0 12 1 15 1 3 2 6 1 6 0 1 -3 0 -6 -1 -3 -1 -6 -2 -7 -2 -5 0 -18 -4 -24 -6
-3 -2 -8 -5 -11 -8 l-4 -4 -6 6 c-7 8 -13 12 -21 13 -9 1 -11 1 -17 -5 l-4 -4
-6 1 c-3 1 -9 2 -14 3 -4 1 -11 3 -15 3 -4 1 -8 2 -8 3 0 0 2 2 4 3 6 3 10 8
14 15 3 7 4 11 7 26 1 7 2 13 2 14 0 0 3 -1 5 -1 3 -1 13 -4 24 -6 11 -2 35
-6 54 -10 42 -8 56 -11 57 -11 1 0 1 1 1 2 0 1 -1 2 -2 2 -2 0 -25 4 -48 9 -8
2 -22 4 -30 6 -38 7 -60 12 -61 13 -1 3 2 3 21 -1 30 -6 33 -6 39 -6 4 1 5 0
9 -2 2 -2 3 -3 4 -3 0 0 9 -2 19 -4 21 -4 46 -8 48 -8 0 0 1 1 1 2 0 1 -1 2
-8 3 -11 1 -28 4 -46 8 -13 3 -15 3 -17 6 -4 4 -5 10 -5 17 1 7 2 9 5 7 3 -3
7 -4 21 -7 36 -6 50 -7 50 -3 0 1 -1 1 -5 1 -7 -1 -55 6 -63 9 -2 2 -3 2 -3 4
1 3 8 7 20 9 20 4 26 6 28 13 1 1 1 7 1 13 0 32 11 98 20 126 2 5 3 15 1 11
-1 -3 -3 -3 -6 0 l-2 3 1 6 c1 3 4 8 5 11 2 3 3 7 3 9 l0 3 -21 0 c-28 -1 -39
-3 -51 -13 -9 -8 -19 -24 -26 -45 -2 -6 -3 -12 -4 -12 0 0 -2 0 -3 1 l-4 2 -1
16 c0 8 0 27 0 42 1 14 2 51 2 83 1 41 1 57 2 60 2 6 5 8 9 10 4 2 5 2 25 1
11 -1 29 -3 39 -4 9 0 21 -1 25 -2 7 0 8 0 8 1 0 1 0 2 0 2 0 0 -24 2 -58 5
-17 1 -39 2 -42 1 -3 -1 -7 -6 -9 -13 -2 -4 -2 -9 -2 -20 0 -27 -2 -148 -3
-150 0 -1 -1 1 -3 4 -1 3 -3 7 -4 8 -2 3 -3 10 -1 102 2 56 2 59 4 63 1 2 3 5
4 6 3 3 4 3 10 3 3 0 9 1 12 1 3 1 7 1 10 1 6 0 64 -4 78 -5 3 -1 4 -1 4 1 0
1 -1 2 -1 2 -1 0 -10 1 -20 1 -43 4 -53 4 -57 4 -5 0 -5 1 -4 5 0 2 0 2 11 2
7 -1 17 -2 24 -2 6 -1 18 -1 26 -2 7 -1 15 -1 17 -2 3 0 4 0 4 1 0 2 -4 2 -29
4 -17 0 -19 2 -3 2 7 0 14 0 15 1 2 1 5 6 5 9 0 2 -1 5 -2 8 -1 5 -2 6 -10 25
-6 12 -6 12 -6 22 l0 10 5 0 c2 -1 7 -1 11 -2 4 0 8 0 10 -1 4 0 4 0 4 2 0 1
-1 2 -1 2 -3 0 -22 2 -25 3 -2 0 -2 0 -1 5 0 2 0 5 1 5 0 0 14 -1 23 -3 3 0 3
0 3 2 0 1 -1 2 -1 2 -1 0 -7 1 -14 1 -9 1 -14 2 -14 3 -2 2 -10 3 -13 2 -2 -1
-8 -1 -25 2 -23 2 -25 3 -25 8 0 2 0 2 5 2 6 -1 33 -4 46 -6 21 -3 38 -5 40
-5 0 0 1 1 1 2 0 1 -3 2 -32 5 -17 2 -36 5 -41 6 -6 0 -12 1 -14 1 -4 0 -5 0
-5 2 0 1 -1 2 -2 2 -2 0 -2 -1 -2 -14 l0 -15 -5 1 c-2 0 -5 0 -6 1 -1 0 -1 4
-1 13 0 11 0 14 -1 14 -1 0 -2 -3 -3 -14 l0 -14 -3 0 c-4 1 -29 4 -33 4 -3 0
-3 2 1 5 1 1 2 3 2 4 0 0 2 3 4 6 4 8 5 9 2 9 -1 0 -3 -3 -8 -11z m-100 -6
c19 -2 49 -5 67 -7 17 -2 33 -3 37 -4 4 0 11 -1 16 -2 5 0 10 -1 11 -1 2 -1
-1 -5 -6 -7 -3 -1 -6 -3 -8 -4 -22 -9 -43 -14 -76 -16 -8 -1 -18 -1 -22 -2
l-7 0 -2 4 c-3 8 -11 11 -19 7 -5 -3 -7 -9 -8 -20 0 -9 0 -10 2 -14 3 -6 6 -8
13 -8 6 0 10 3 12 9 1 3 2 5 3 5 1 0 6 0 12 1 6 0 14 1 19 2 8 0 26 3 42 5 8
2 18 5 37 11 5 2 10 3 10 3 1 0 1 -4 1 -9 0 -8 0 -10 -3 -15 -1 -4 -5 -12 -8
-19 l-5 -12 -7 1 c-30 2 -68 5 -130 11 -11 1 -27 2 -34 3 -8 1 -15 1 -15 1 0
1 5 30 7 38 4 17 12 38 16 43 1 1 3 1 5 1 2 -1 20 -3 40 -5z m171 -3 c4 0 12
-1 19 -2 7 -1 13 -2 14 -2 3 -1 3 -9 0 -10 -1 0 -49 5 -49 5 -1 0 0 3 0 6 l0
6 5 -1 c2 -1 7 -1 11 -2z m45 -5 c1 -3 0 -8 -1 -11 -1 -1 -2 -2 -4 -2 l-4 0 2
4 c1 4 1 8 0 10 -1 2 -1 2 2 2 3 0 4 0 5 -3z m-66 -8 c2 -2 3 -8 1 -11 -1 -1
-3 -1 -6 -1 -3 0 -4 -1 -7 -3 -3 -3 -4 -3 -6 3 -2 7 1 13 5 7 1 -3 4 -5 5 -4
0 0 0 2 -1 4 -1 2 -2 4 -3 4 -1 1 -2 1 -1 2 0 2 11 1 13 -1z m25 -2 c6 -1 14
-2 19 -2 l9 -2 -1 -10 0 -11 -6 -12 c-14 -28 -16 -34 -11 -40 l3 -2 -9 1 c-5
0 -10 0 -11 0 -2 0 -3 1 -4 2 -1 3 -10 25 -13 32 -3 6 -3 7 -3 18 0 10 0 11 2
12 3 2 6 7 6 12 l0 4 4 0 c2 -1 8 -1 15 -2z m38 -14 l0 -7 -3 0 c-2 0 -3 0 -4
0 0 1 0 14 1 14 0 1 2 1 3 1 2 0 3 -1 3 -8z m-84 5 c2 -7 2 -6 -4 -8 -3 -2 -6
-3 -7 -3 -3 -2 -22 -8 -27 -9 -18 -3 -32 -5 -61 -8 -32 -3 -36 -2 -33 5 l1 3
17 1 c36 2 38 2 60 5 11 2 12 2 28 7 10 3 11 4 17 7 5 3 8 3 9 0z m-125 -8 c2
-2 4 -7 3 -8 0 -1 -1 -1 -3 -1 -7 1 -9 0 -10 -3 -3 -5 -2 -8 1 -11 3 -3 5 -4
9 -3 2 1 3 1 3 0 0 -5 -5 -10 -10 -10 -4 0 -8 3 -9 7 -3 6 -1 22 3 27 3 4 9 5
13 2z m141 0 c-1 0 -1 -5 -1 -9 l0 -9 -4 0 -3 0 1 9 c0 9 1 11 5 11 2 0 2 0 2
-2z m69 -10 c4 -8 13 -30 15 -35 3 -7 3 -10 0 -13 -2 -2 -4 -2 -20 -2 -12 0
-18 0 -20 1 -4 2 -4 8 2 20 15 33 15 32 19 32 2 0 3 -1 4 -3z m-67 -17 c7 -16
13 -32 14 -36 0 -3 0 -4 -2 -6 -2 -3 -4 -3 -18 -3 -14 -1 -16 -1 -18 1 -1 1
-3 3 -3 4 0 3 4 17 7 21 0 1 2 4 2 6 1 2 3 7 5 11 4 7 4 8 7 8 3 0 3 -1 6 -6z
m-185 -32 c14 -1 33 -3 43 -4 10 0 24 -2 33 -2 8 -1 21 -2 30 -3 26 -2 31 -4
36 -13 l2 -6 -1 -71 c-1 -39 -1 -72 -1 -72 -1 0 -2 0 -3 1 l-2 1 0 66 c1 61 1
66 -1 71 -2 7 -6 12 -12 15 -1 0 -11 2 -21 2 -10 1 -25 3 -34 3 -10 1 -23 2
-30 3 -8 1 -26 2 -42 4 -15 1 -31 2 -34 2 -7 0 -8 1 -2 4 6 3 7 2 39 -1z m-8
-9 c17 -1 36 -2 42 -3 13 -1 56 -5 72 -6 15 -1 18 -2 23 -7 4 -5 5 -9 5 -24 1
-20 0 -118 -1 -118 0 -1 -2 0 -5 1 -4 1 -12 1 -25 2 -23 0 -37 -1 -47 -5 -8
-3 -8 -3 -10 -2 -1 1 -4 2 -7 3 -7 0 -8 1 -9 11 0 5 0 5 5 6 2 1 3 1 3 0 0 -1
1 -3 2 -4 3 -2 3 -4 4 -8 0 -5 0 -5 2 -3 2 3 1 8 -2 11 -4 5 -4 5 0 5 5 0 13
5 16 10 l3 4 3 -3 c3 -3 7 -4 10 -4 2 1 2 3 0 4 -2 0 -3 2 -4 3 -1 3 -1 9 0
14 1 2 2 6 3 9 0 4 1 5 2 5 1 0 4 2 6 4 2 2 3 3 3 3 0 0 1 -1 2 -2 1 -3 7 -7
10 -7 1 0 3 0 5 1 3 1 3 4 -1 5 -3 0 -6 3 -6 7 0 2 1 5 2 8 2 2 3 6 3 8 1 4
-1 15 -2 16 -1 0 -1 3 -1 6 -1 4 -2 7 -3 10 -3 4 -2 5 2 2 6 -4 7 -10 4 -15
-1 -2 -1 -4 1 -3 3 1 4 9 3 13 -2 6 -9 10 -17 11 -3 1 -5 2 -6 4 -2 3 -8 6
-12 6 -2 0 -4 1 -5 2 -7 6 -24 5 -29 -2 0 -1 -2 -2 -3 -2 -2 0 -7 -4 -8 -7 -2
-2 -2 -3 -4 -2 -2 0 -6 0 -10 -1 -4 -1 -11 -2 -15 -2 -10 -1 -17 -5 -24 -12
-6 -7 -12 -18 -12 -22 0 -5 -4 -11 -12 -20 -1 -1 -1 14 -1 39 1 36 1 41 3 46
1 5 2 7 4 7 4 1 3 1 38 -2z m60 -20 c0 -1 -1 -1 -1 -1 -3 0 -8 -6 -9 -10 l-2
-5 -5 0 c-6 0 -8 0 -8 2 0 2 5 7 7 7 1 0 4 2 7 4 3 3 5 4 8 4 1 0 3 0 3 -1z
m9 -3 c1 0 0 -2 -2 -3 -4 -3 -7 -8 -7 -12 0 -3 0 -3 -3 -2 -1 1 -3 3 -4 3 -3
4 6 15 12 15 2 0 4 0 4 -1z m14 -5 c2 0 3 -1 3 -1 0 -1 -2 -1 -5 -2 -5 -1 -7
-2 -10 -6 -2 -2 -4 -5 -4 -6 0 -1 -1 -1 -2 -1 -3 1 -3 7 0 11 5 6 12 9 18 5z
m11 -8 c4 -2 7 -5 8 -10 0 -3 -1 -4 -3 -2 -1 2 -10 6 -13 6 -5 0 -10 -2 -13
-5 -3 -3 -3 -3 -4 -1 0 1 1 3 1 5 5 8 15 11 24 7z m-55 -4 c2 -1 6 -5 9 -8 10
-10 14 -21 14 -37 1 -8 1 -11 2 -12 3 -1 2 -2 -2 -1 -2 1 -5 1 -6 1 -5 -1 -10
-7 -12 -13 -1 -3 -2 -5 -3 -5 -2 0 -3 -2 0 -2 0 -1 1 -2 1 -4 0 -6 2 -11 5
-13 2 -2 3 -3 3 -4 -1 -1 -9 3 -12 6 -7 9 -4 28 6 36 2 2 4 3 6 3 2 0 2 0 2 8
0 21 -14 41 -32 45 -8 2 -5 3 5 3 6 -1 10 -2 14 -3z m-28 -1 c1 -2 1 -2 0 -2
-1 0 -2 -1 -2 -1 1 -2 2 -2 9 0 5 0 10 -2 10 -5 -1 -1 -1 -2 1 -1 5 1 15 -11
18 -24 3 -13 2 -17 -3 -14 -3 3 -5 2 -2 0 3 -2 3 -3 -2 -6 l-3 -3 0 5 c2 12
-4 29 -11 36 -4 4 -5 3 -2 -1 9 -11 12 -29 8 -48 -3 -11 -3 -25 -1 -35 2 -4 2
-8 2 -10 -1 -3 -1 -4 -7 13 -5 13 -5 19 -2 29 1 5 1 10 1 19 0 10 0 12 -2 18
-4 11 -10 16 -14 13 -3 -1 -3 -1 -5 1 -7 6 -15 0 -26 -20 0 -2 -4 -7 -8 -12
-4 -5 -8 -12 -9 -15 -4 -6 -6 -17 -6 -21 1 -2 1 -2 0 -1 -3 3 -4 12 -3 17 1 6
6 16 12 23 7 8 14 18 17 23 5 8 9 12 16 13 3 1 4 1 6 -1 2 -3 5 -4 5 -2 0 0
-1 1 -3 3 -3 2 -4 3 -8 3 -6 0 -11 -4 -19 -15 -6 -10 -8 -10 -4 -2 4 7 10 15
15 19 8 5 18 6 22 4z m45 -2 l5 -2 -4 -1 c-3 -1 -4 0 -7 2 -2 1 -4 2 -5 2 0 0
-1 1 -1 1 0 2 5 1 12 -2z m39 -6 c4 -2 5 -3 7 -7 4 -9 5 -13 2 -21 -3 -8 -3
-15 0 -18 1 -1 1 -2 1 -3 -2 -1 -6 4 -8 7 -1 4 -1 5 1 9 1 2 2 7 3 10 1 11
-10 21 -20 17 -5 -2 -7 -1 -8 2 0 2 -1 2 4 5 5 3 11 3 18 -1z m-29 -1 c3 -4 3
-5 -1 -8 l-2 -3 2 1 c4 0 4 -1 3 -8 -2 -7 -3 -7 -5 2 0 3 -3 8 -6 14 -1 2 -1
2 0 3 3 2 6 1 9 -1z m25 -9 c4 -3 6 -6 6 -11 0 -5 -2 -10 -3 -9 -1 0 -2 2 -3
4 -1 3 -2 4 -4 2 -1 -2 -1 -2 0 -3 3 0 2 -3 0 -6 -2 -1 -2 -1 -3 0 -1 1 -1 3
-1 4 0 2 -1 5 -2 7 -1 3 -2 6 -3 9 0 5 2 5 8 -1 5 -5 7 -4 2 2 -2 2 -3 3 -3 4
0 1 4 0 6 -2z m-83 -2 c4 0 6 -1 8 -4 3 -4 6 -14 6 -19 0 -4 0 -4 -2 -4 -9 3
-11 1 -4 -2 7 -3 7 -4 4 -18 -1 -5 -2 -11 -2 -12 0 -4 3 -14 6 -20 l2 -6 -3
-9 c-1 -5 -2 -9 -2 -11 1 -4 6 -9 8 -9 2 0 2 0 1 -2 -5 -3 -15 -7 -19 -7 -5 0
-9 2 -10 6 0 3 1 5 4 6 2 0 2 0 2 7 0 3 0 8 0 10 0 3 0 4 4 7 6 5 8 7 4 6 -9
-3 -19 -4 -24 -4 -4 1 -5 2 -9 6 -3 3 -7 8 -8 11 -4 6 -4 10 -3 28 1 9 2 9 5
14 4 5 5 6 10 4 3 -2 2 2 0 4 -2 0 -3 2 -3 2 0 2 8 14 11 16 2 2 3 2 5 2 2 -1
6 -1 9 -2z m67 -4 c1 -3 1 -5 0 -11 -1 -8 -3 -16 -5 -18 -4 -4 -6 14 -2 19 2
3 3 6 3 11 0 5 2 5 4 -1z m3 -29 c0 -3 -2 -7 -3 -8 -1 -3 -1 -4 1 -2 3 2 3 -1
2 -6 -2 -6 -2 -15 -1 -17 2 -3 0 -3 -2 0 -2 3 -2 9 0 12 1 3 2 9 0 6 0 -1 -1
1 -3 5 -1 6 -2 7 0 8 1 2 5 13 5 15 0 5 2 4 2 -1 1 -5 1 -8 -1 -12z m14 7 c-2
-6 -9 -12 -9 -7 0 5 1 8 4 9 4 2 5 1 5 -2z m-125 -18 c-1 -9 -1 -18 2 -23 2
-4 2 -5 1 -11 -1 -7 -4 -13 -6 -15 -2 -1 -2 -1 -1 1 2 5 1 12 -2 17 -4 9 -3
19 3 32 3 5 4 5 3 -1z m99 3 c8 -9 3 -29 -8 -33 -4 -1 -9 1 -11 6 -3 5 -2 14
1 20 5 8 13 11 18 7z m-27 -36 c0 -1 -1 -1 -2 -1 -1 0 -2 1 -3 3 -2 5 -1 5 2
2 2 -2 3 -4 3 -4z m-79 -5 c1 -2 1 -6 0 -8 -2 -8 -2 -10 1 -11 3 -1 7 0 7 2 0
1 -1 1 -1 1 -3 0 -2 1 1 5 3 4 5 11 5 15 l0 4 2 -3 c6 -8 10 -11 19 -11 4 -1
7 -1 7 -1 1 -1 3 -8 3 -10 0 -3 -1 -3 -4 -4 -2 -1 -6 -3 -7 -4 -2 -2 -6 -5
-10 -7 -3 -2 -8 -6 -10 -9 -4 -4 -11 -17 -13 -24 -2 -6 -6 -16 -6 -16 0 1 0
21 0 46 l0 45 3 -3 c2 -2 3 -5 3 -7z m69 -17 c-1 -2 -2 -4 -3 -5 0 -2 -1 -2
-1 2 0 2 1 5 2 8 1 3 1 3 2 1 1 -2 1 -3 0 -6z m8 2 c0 -1 1 -3 3 -5 3 -3 3 -3
1 -5 -1 -1 -3 -3 -5 -4 l-3 -2 -2 2 c-3 3 -3 4 1 12 2 4 4 6 4 5 1 -1 1 -2 1
-3z m87 -1 c26 -3 44 -17 53 -41 3 -10 3 -11 -1 -10 -3 0 -4 0 -8 0 -2 -1 -3
-1 -5 2 -1 2 -2 5 -3 7 0 5 -3 13 -8 18 -8 10 -20 14 -40 16 -13 0 -33 -1 -39
-4 -5 -1 -9 0 -12 3 -1 2 -1 2 3 4 11 5 39 7 60 5z m164 -5 c1 0 -1 -4 -2 -8
-2 -5 -5 -11 -6 -14 l-1 -6 -6 1 c-8 1 -30 0 -40 -1 -4 -1 -8 -1 -9 -1 0 1 1
3 2 5 3 4 9 9 14 11 2 1 4 3 6 7 2 2 3 5 4 6 3 1 36 2 38 0z m-234 -3 c3 -2 4
-4 3 -5 -1 0 -2 -1 -3 -1 -1 0 -2 0 -2 -1 0 0 -1 -1 -2 -2 -3 -1 -3 -1 -5 2
l-2 2 3 3 c3 3 3 3 1 5 -1 1 -1 1 1 1 1 0 4 -2 6 -4z m190 -2 c-1 -2 -3 -3 -7
-5 -8 -4 -13 -9 -17 -17 -1 -3 -4 -7 -5 -9 -3 -2 -3 -3 -6 -2 -2 1 -3 2 -3 2
8 17 18 28 28 32 3 1 7 2 8 2 3 0 3 0 2 -3z m-244 0 c0 -1 -5 -7 -7 -7 -2 0
-1 2 2 5 3 3 5 4 5 2z m126 -4 c4 0 8 -2 11 -3 l4 -1 0 -7 c0 -4 0 -7 -1 -7 0
-1 -1 0 -3 0 -5 2 -26 4 -41 4 l-15 0 -3 4 c-1 3 -2 6 -3 7 -2 2 0 3 11 4 8 1
34 1 40 -1z m-82 -3 l2 -3 -2 -2 c-3 -3 -4 -2 -6 1 -1 2 -1 3 0 4 2 3 3 2 6 0z
m25 0 c5 -3 5 -5 1 -3 -5 2 -10 0 -18 -8 -11 -11 -19 -30 -26 -58 -4 -12 -5
-16 -7 -16 -2 0 3 26 9 40 7 20 14 32 22 40 8 7 13 9 19 5z m-73 -6 c-3 -2 -3
-2 -4 -1 -2 3 -1 4 2 5 3 2 4 2 4 0 0 -1 -1 -2 -2 -4z m-7 2 c0 -8 5 -16 12
-18 8 -3 21 1 33 8 3 2 6 4 7 4 0 0 -1 -2 -2 -4 -7 -10 -19 -39 -22 -51 0 -2
-1 -9 -2 -15 -1 -7 -2 -11 -3 -13 -1 -2 -2 -5 -3 -8 0 -5 -1 -6 -2 -6 -1 0 -3
0 -4 -1 -2 -1 -2 -1 -3 1 0 1 -1 2 -2 3 -1 2 -3 9 -4 17 0 6 -2 8 -2 4 0 -5 3
-20 4 -22 1 -1 1 -2 0 -4 -1 -2 -2 -2 -4 -2 -5 1 -18 0 -20 -1 -2 -1 -3 -1 -4
-1 0 1 0 3 1 5 1 3 1 8 0 19 -1 16 -1 20 4 49 3 12 3 16 1 14 -1 0 -2 -5 -3
-11 -3 -14 -4 -19 -5 -18 -1 0 -1 1 -1 3 0 1 -1 5 -2 8 -1 6 -1 6 1 12 4 9 8
17 11 21 3 3 12 10 13 10 1 0 1 -1 1 -3z m48 -2 l2 -3 -4 -2 c-2 -1 -4 -2 -4
-1 -1 2 -1 6 0 7 2 3 4 2 6 -1z m38 -5 c6 -8 11 -21 13 -38 2 -9 2 -21 2 -25
0 -1 -1 2 -3 7 -3 8 -9 19 -12 21 -3 2 -3 0 0 -3 4 -5 8 -12 11 -21 4 -9 5
-23 3 -39 -1 -15 -4 -22 -12 -37 -8 -16 -17 -25 -28 -30 -6 -3 -8 -3 -15 -3
-9 0 -21 2 -19 3 3 2 0 2 -11 0 -14 -2 -24 -1 -34 3 -8 3 -11 5 -14 15 -2 8
-6 19 -7 20 -3 1 2 11 8 15 6 4 17 8 23 9 9 1 13 -1 22 -10 8 -9 9 -8 1 2 -5
6 -5 6 -3 8 0 1 2 2 4 3 4 2 7 0 11 -6 2 -5 11 -12 17 -15 3 -2 3 -2 5 -1 1 2
1 2 -1 5 -4 8 -10 14 -18 17 -4 1 -5 3 -5 9 0 3 1 5 7 12 8 9 13 17 12 18 -1
0 -1 -1 -2 -1 0 -1 -1 -2 -1 -2 -2 0 -1 5 4 19 2 6 5 13 5 16 3 8 10 20 17 27
9 9 14 10 20 2z m-75 4 c1 -1 1 -3 -1 -5 l-3 -4 -1 2 c-2 2 -2 3 0 5 3 3 3 3
5 2z m148 -1 c2 -3 2 -9 0 -10 -2 -1 -3 2 -4 7 0 6 2 7 4 3z m-120 -1 c0 -2 1
-3 1 -3 1 0 1 0 1 -1 0 -1 -7 -5 -8 -5 -1 0 -1 2 -1 4 0 4 0 5 2 6 4 1 4 1 5
-1z m-20 -5 c-1 -1 -1 -3 -2 -4 0 -1 -1 -2 -3 -2 -5 0 -6 3 -1 8 2 2 6 1 6 -2z
m10 -2 l0 -4 -4 0 c-3 -1 -5 -1 -5 0 0 0 0 2 0 4 1 2 2 3 3 4 4 2 5 1 6 -4z
m106 -1 c6 -2 12 -7 14 -11 4 -7 3 -15 -2 -37 -8 -34 -14 -63 -19 -93 -2 -13
-4 -22 -4 -22 0 1 -1 4 -1 7 -1 3 -2 10 -4 15 -2 6 -3 13 -4 25 -6 53 -12 94
-18 109 -1 3 -2 7 -2 8 0 1 4 1 18 1 10 -1 20 -1 22 -2z m161 0 c1 -1 2 -2 3
-2 2 0 2 0 1 -5 -3 -7 -11 -39 -15 -62 -3 -17 -6 -50 -7 -73 -1 -6 -1 -7 -3
-9 -1 -1 -3 -2 -3 -2 -1 0 -1 26 0 39 1 17 4 34 6 49 1 6 3 14 3 17 2 10 9 38
11 46 2 3 2 4 4 2z m-144 -3 c8 -3 14 -6 17 -11 1 -2 3 -4 4 -5 1 -3 1 -3 -1
-6 -2 -2 -5 -13 -9 -27 -1 -5 -2 -10 -3 -12 -1 -3 -4 -19 -9 -40 -2 -10 -3
-13 -8 -43 -3 -18 -4 -22 -6 -37 -5 -29 -10 -37 -25 -38 -3 -1 -9 -1 -13 -2
-7 -1 -17 -2 -41 -4 -26 -2 -40 -5 -46 -10 -8 -8 -10 -12 -10 -23 0 -5 -1 -9
-1 -9 -1 0 -10 3 -19 6 -27 8 -41 12 -43 13 -2 0 -2 1 -1 2 0 1 1 3 1 6 0 5 0
4 11 5 3 1 8 2 10 3 2 1 6 2 8 2 2 0 7 1 10 1 5 2 27 6 41 7 2 1 8 2 12 3 7 2
8 2 13 1 14 -4 35 -5 57 -1 23 4 29 12 26 38 0 5 0 11 0 14 1 2 2 10 3 17 5
36 12 67 21 110 4 13 4 21 3 27 -1 5 -2 7 -6 11 -3 3 -5 5 -4 5 1 0 4 -2 8 -3z
m15 1 c2 -3 0 -4 -2 -3 -1 1 -2 2 -1 3 0 3 1 2 3 0z m120 -1 c1 0 0 -3 -1 -7
-4 -16 -10 -44 -12 -58 -1 -8 -3 -15 -3 -15 -1 -1 -14 -1 -32 0 -30 1 -31 1
-31 3 0 7 6 35 10 48 4 13 6 18 10 22 6 5 11 7 25 8 11 1 33 0 34 -1z m-67
-10 c1 0 0 -3 -1 -6 -4 -9 -11 -39 -14 -55 0 -3 -1 -6 -1 -7 -2 -2 -6 0 -6 2
0 10 11 55 15 64 2 2 3 3 4 3 2 0 3 0 3 -1z m-31 -9 c3 -2 2 -8 0 -19 -1 -5
-3 -16 -5 -26 -2 -10 -5 -19 -5 -21 -2 -7 -8 -37 -11 -54 -3 -17 -5 -28 -10
-56 -5 -36 -8 -43 -19 -50 -2 -1 -9 -3 -16 -4 -7 -1 -16 -3 -20 -3 -25 -5 -96
-16 -97 -16 -2 1 -2 2 -2 7 0 3 1 8 1 11 2 5 8 12 13 15 6 3 29 6 55 9 46 4
45 4 50 7 9 4 13 14 17 37 1 9 3 23 9 54 2 9 3 17 3 20 1 2 2 7 3 12 9 41 15
63 17 67 4 11 11 16 17 10z m-216 -7 c0 -1 1 -5 2 -8 1 -4 1 -11 1 -29 0 -29
0 -31 -7 -35 -6 -3 -11 -9 -13 -15 -1 -3 -2 -4 -7 -5 -4 -2 -5 -2 -7 -1 -4 3
-10 4 -14 3 -3 -1 -6 -2 -9 -6 -3 -3 -6 -5 -6 -5 -2 0 -3 8 -1 13 1 5 7 12 10
13 5 1 10 5 13 9 5 9 18 11 29 4 7 -3 8 -3 3 1 -4 4 -12 6 -18 6 -4 0 -4 0 -4
3 0 5 3 11 7 16 6 7 8 12 12 23 6 15 7 17 8 16 1 0 1 -1 1 -3z m228 -12 c0 -1
0 -3 -1 -4 -1 -2 -1 -2 -4 -1 -3 1 -3 2 -2 7 l0 3 4 -2 c2 -1 3 -2 3 -3z m-2
-9 c0 0 -1 -3 -1 -5 0 -2 -2 -9 -2 -14 -1 -6 -2 -11 -3 -11 0 -1 -2 -1 -4 -1
-3 0 -3 1 -3 4 0 1 1 8 2 15 2 7 3 12 3 13 0 0 7 -1 8 -1z m-91 -40 c1 -13 2
-25 3 -27 2 -13 2 -14 -1 -14 -1 -1 -2 0 -2 0 -1 0 -1 6 -2 14 -1 15 -2 54 -1
51 1 -1 2 -12 3 -24z m-317 20 c2 -2 2 -2 1 -11 -1 -11 -2 -16 -19 -83 -7 -28
-17 -65 -21 -83 -11 -46 -14 -53 -21 -62 -3 -4 -11 -10 -12 -9 0 0 0 2 1 3 2
5 1 12 -3 25 l-3 13 0 16 c1 32 12 72 31 113 6 12 10 24 17 45 9 27 13 33 25
34 1 0 3 -1 4 -1z m447 -17 c18 0 33 -1 33 -1 0 0 0 -3 -1 -5 l0 -5 -7 0 c-4
1 -23 2 -43 3 -23 1 -37 2 -37 3 0 1 0 3 0 4 1 2 1 4 1 4 0 0 5 0 11 0 6 -1
26 -2 43 -3z m-53 -31 l0 -22 -3 0 c-7 -2 -10 -2 -10 -2 0 1 8 40 9 44 0 1 1
2 2 2 1 0 2 -3 2 -22z m-149 18 c4 -3 9 -10 9 -13 -1 -3 -18 12 -18 15 0 1 5
0 9 -2z m155 -17 c0 -11 0 -21 -1 -21 -1 -3 -2 1 -2 20 0 20 0 21 2 21 2 0 2
-1 1 -20z m10 13 c0 -3 0 -11 -1 -17 0 -10 0 -12 -2 -14 -4 -5 -4 -3 -3 17 0
10 0 19 1 20 1 0 2 0 4 0 2 0 2 0 1 -6z m38 4 c16 0 30 -1 30 -2 0 0 0 -9 -1
-20 -1 -19 -1 -19 -3 -19 -8 3 -53 8 -56 7 -5 -2 0 -4 9 -4 2 0 11 -1 20 -2 9
-1 18 -2 21 -3 3 0 6 -1 7 -1 2 -1 3 -5 1 -8 -1 -2 -2 -3 -15 -5 -7 -2 -16 -3
-18 -3 -2 0 -6 -1 -9 -1 -6 -2 -16 -1 -38 2 -8 2 -15 3 -16 3 -1 0 -1 1 -1 5
1 2 1 4 1 5 0 0 5 1 11 2 10 2 18 5 20 8 1 1 2 6 2 17 1 18 1 21 4 21 2 0 16
-1 31 -2z m-135 -24 c0 -7 0 -8 -2 -11 -2 -3 -8 -5 -13 -5 -2 0 -1 3 4 11 2 4
5 10 6 14 l2 6 1 -3 c1 -2 1 -7 2 -12z m-175 2 c0 -1 -5 -6 -7 -6 -3 0 -2 2 2
5 3 2 5 3 5 1z m7 0 c2 -2 -2 -6 -5 -6 -4 0 -4 1 0 4 2 3 4 4 5 2z m23 -2 c0
0 -3 -2 -6 -3 -3 0 -6 -2 -7 -2 0 0 -1 0 -1 1 0 1 2 2 4 3 3 1 5 1 6 1 1 1 4
1 4 0z m-18 -1 c1 -1 -1 -4 -3 -4 -2 0 -3 1 0 3 1 2 2 2 3 1z m20 -5 c0 -1 -3
-3 -7 -4 -6 -2 -7 -2 -8 0 -2 2 0 3 6 6 6 2 7 2 8 0 0 -1 1 -2 1 -2z m-27 -2
c6 -1 8 -2 8 -3 0 -1 1 -5 3 -10 2 -5 3 -9 2 -9 0 -1 -9 -3 -16 -3 -4 0 -9 -1
-11 -1 -5 -2 -9 -2 -9 -1 0 1 2 3 4 5 1 1 3 3 3 3 0 3 -12 -4 -13 -8 -2 -4 -3
-2 -2 2 1 4 4 9 9 12 2 2 3 4 3 4 0 2 -3 1 -8 -4 -3 -3 -5 -6 -6 -9 -1 -4 -3
-5 -3 -1 0 3 4 11 7 15 4 3 6 5 14 7 5 2 6 2 15 1z m29 -2 c0 -1 0 -2 1 -2 0
-1 -1 -2 -4 -3 -3 -1 -6 -2 -8 -3 -4 -1 -5 -1 -5 2 0 2 2 3 9 5 3 1 7 1 7 1z
m151 -5 c4 -9 10 -39 10 -55 0 -10 -2 -16 -8 -19 -14 -8 -58 -10 -73 -4 -7 3
-10 12 -10 41 l0 11 3 -1 c6 -1 17 0 22 1 3 1 8 4 12 7 6 4 6 4 9 2 3 -1 6 -1
10 1 2 1 5 3 7 4 2 0 4 2 4 3 0 1 0 1 -1 1 0 0 -4 -2 -7 -4 -5 -2 -8 -3 -10
-3 -2 1 -3 1 -3 2 -1 0 1 2 2 4 3 4 4 4 11 5 7 1 9 2 11 5 5 4 9 4 11 -1z
m-148 -4 c0 -2 0 -3 -3 -4 -1 0 -5 -1 -7 -2 -4 -1 -5 -1 -6 0 -2 3 -1 5 6 7 8
2 9 2 10 -1z m3 -7 c1 -4 1 -4 -9 -5 -7 0 -7 0 -7 2 0 1 2 2 6 3 6 3 8 2 10 0z
m-74 -6 c0 -2 0 -4 1 -4 3 -2 0 -4 -9 -7 -5 -2 -11 -4 -14 -6 -7 -4 -14 -12
-18 -19 -2 -4 -3 -7 -4 -7 0 0 -1 2 -2 5 0 7 -1 8 -2 4 0 -2 1 -6 1 -9 2 -6 2
-6 0 -15 -3 -12 -3 -12 -4 -10 0 1 -1 5 -2 10 -1 8 -3 12 -3 6 0 -4 2 -14 4
-20 1 -2 1 -5 -1 -14 -2 -11 -2 -12 -7 -25 -3 -10 -5 -16 -13 -36 -5 -14 -8
-26 -8 -36 0 -8 0 -8 -10 -5 -7 2 -10 3 -10 1 0 -1 14 -5 17 -5 3 0 3 -1 2 -4
-1 -1 -2 -5 -3 -8 -2 -6 -2 -6 -5 -6 -8 1 -31 10 -35 15 l-3 3 3 8 c1 4 3 8 4
9 0 0 1 3 1 6 0 4 2 9 7 22 3 10 7 19 8 20 1 3 19 51 21 57 1 3 3 9 5 15 6 22
12 35 20 41 8 6 22 11 45 15 15 4 14 4 14 -1z m13 -4 c-1 -1 -1 -1 -1 0 0 1 1
2 2 1 0 0 0 -1 -1 -1z m73 -1 c4 -1 21 -3 24 -2 6 1 24 -14 24 -20 0 -3 -1 -4
-4 -1 -3 2 -28 15 -29 15 -2 0 0 -2 4 -4 2 -1 7 -3 11 -5 16 -9 17 -10 13 -13
-1 -1 -1 -1 0 -1 1 0 2 0 3 1 0 1 1 1 1 1 1 0 2 -2 2 -8 1 -6 2 -10 3 -13 1
-3 2 -5 2 -5 0 -1 -13 -4 -22 -5 -17 -3 -29 -5 -37 -7 -4 -1 -9 -2 -11 -1 -2
0 -4 0 -7 -2 -8 -4 -19 -5 -21 -1 0 1 -1 2 -1 2 -2 0 -3 -3 -2 -5 1 -1 1 -4 1
-7 0 -4 0 -5 -4 -9 -5 -4 -5 -4 -5 -10 0 -17 -6 -55 -12 -75 -2 -6 -2 -10 -2
-17 0 -8 0 -11 -2 -14 -1 -2 -2 -4 -1 -5 1 -1 -2 -18 -3 -20 -1 -1 -7 -3 -15
-3 l-6 0 0 2 c0 4 -2 4 -2 1 -1 -3 -2 -3 -6 -3 -14 0 -35 6 -54 15 -13 6 -13
6 -9 21 1 3 3 6 4 7 0 0 1 1 0 2 -1 2 0 19 2 27 1 3 5 16 9 28 10 25 14 37 16
49 6 31 10 45 13 51 6 11 15 19 25 22 20 8 45 13 73 14 17 1 20 0 25 -2z m197
1 c31 -6 39 -7 46 -5 3 1 6 2 7 2 2 0 2 0 0 -2 -4 -4 -7 -13 -7 -21 1 -4 1 -7
1 -8 2 -3 -4 -3 -16 -1 -6 1 -15 3 -20 4 -8 1 -21 4 -24 5 -1 0 -1 1 -1 2 1 1
1 5 2 9 2 14 3 17 5 16 1 0 4 -1 7 -1z m-155 -3 c2 -1 1 -4 -1 -4 -1 0 -3 1
-4 3 l-3 2 3 0 c2 0 4 0 5 -1z m5 -5 c0 -1 -1 -3 -2 -3 -1 0 -2 3 -1 5 2 2 3
1 3 -2z m-73 -92 c19 -6 46 -14 48 -14 1 0 2 -8 1 -9 0 0 -2 0 -4 1 -13 4 -22
7 -42 13 -12 4 -24 7 -25 8 -5 1 -2 8 3 7 1 -1 10 -3 19 -6z m176 3 c-1 -5 -3
-7 -7 -8 -4 -2 -22 -5 -74 -13 -11 -2 -24 -4 -30 -5 -10 -1 -10 -1 -12 1 0 1
-1 3 -1 4 0 3 1 3 4 4 4 0 19 2 40 6 9 2 26 4 39 6 12 2 25 5 29 5 4 1 9 2 10
2 3 0 3 0 2 -2z m143 -3 c0 -1 -1 -8 -1 -15 -1 -14 -2 -20 -6 -27 -2 -4 -4 -5
-7 -6 -3 -1 -7 -3 -10 -5 -4 -3 -10 -10 -10 -13 0 0 -2 -3 -4 -5 -2 -3 -5 -6
-6 -8 l-2 -4 0 4 c0 2 0 5 0 7 -1 1 -1 2 1 2 2 1 4 4 4 9 2 10 12 29 21 40 3
3 5 6 5 7 0 0 -2 -1 -4 -3 -5 -4 -13 -16 -17 -24 l-3 -6 0 7 c-1 4 -2 10 -3
14 -2 8 -2 10 4 14 7 5 11 7 24 11 13 3 15 3 14 1z m-119 -4 c11 -2 20 -4 21
-4 0 -1 0 -3 -3 -7 -5 -10 -5 -19 -2 -30 l3 -7 -3 -4 c-4 -3 -4 -3 -10 0 -2 0
-5 1 -6 1 -2 1 -8 2 -13 4 -30 9 -43 13 -44 13 -1 0 -2 1 -3 1 -2 1 -2 2 -1 4
1 2 1 2 10 -1 8 -3 33 -10 50 -15 9 -2 19 -4 18 -2 -1 0 -10 3 -19 6 -10 3
-22 6 -27 8 -5 1 -13 3 -19 5 -7 2 -12 3 -12 4 0 0 2 12 3 13 0 1 6 2 14 3 14
2 17 4 21 9 1 2 2 4 3 4 0 0 8 -2 19 -5z m57 -2 c4 -3 8 -7 9 -8 5 -5 11 -23
11 -31 0 -9 -3 -17 -10 -28 l-5 -7 0 -9 c0 -5 0 -10 1 -12 0 -8 0 -28 -1 -32
0 -2 0 -5 -1 -7 -1 -8 -1 0 -2 25 0 34 0 31 0 37 0 6 -4 28 -7 38 -4 16 -6 23
-7 23 -1 2 -1 0 1 -8 1 -4 1 -6 0 -7 -1 0 0 -2 1 -4 2 -2 3 -6 4 -9 2 -10 6
-33 6 -36 l0 -3 -3 3 c-1 2 -4 4 -5 5 -2 1 -7 4 -12 8 -8 6 -9 7 -12 13 -1 3
-3 8 -5 11 -1 3 -2 6 -2 11 0 7 0 8 4 16 5 9 9 15 12 16 2 0 6 1 9 1 7 0 7 0
14 -6z m-272 -1 l9 -3 -1 -27 c0 -15 0 -27 0 -27 -1 -1 -26 -5 -27 -5 0 1 1 7
2 14 2 7 4 21 5 32 1 10 3 19 3 19 0 0 4 -1 9 -3z m26 -8 c29 -10 34 -11 40
-12 l7 0 0 -30 c0 -17 0 -30 -1 -30 0 0 -30 11 -44 17 -7 2 -13 4 -14 5 -2 0
-2 1 -2 10 1 5 1 17 1 26 0 14 0 17 1 17 1 0 6 -2 12 -3z m127 -1 c0 -2 -3
-16 -5 -28 -2 -7 -5 -27 -10 -56 l-3 -12 -17 -4 c-9 -1 -19 -4 -23 -5 -3 -1
-6 -1 -7 -1 0 1 0 95 1 96 0 1 8 2 18 4 9 1 23 3 30 5 17 2 16 2 16 1z m-68
-58 l0 -48 -4 0 c-2 1 -4 1 -4 2 -1 0 -1 21 -1 47 l1 45 3 1 c1 0 3 1 4 1 1 0
1 -10 1 -48z m-246 37 c0 -1 -1 -4 -3 -8 -2 -4 -3 -6 -4 -6 -2 -1 -6 -1 -10
-2 -4 -1 -10 -2 -12 -2 -8 -1 -20 -2 -20 -2 0 1 2 3 4 6 3 3 5 6 5 7 0 1 8 2
18 4 9 1 17 2 18 2 1 1 4 1 4 1z m349 -13 c18 -5 35 -10 36 -10 5 -2 3 -4 -5
-6 -4 -1 -8 -2 -9 -3 -4 -2 -14 -11 -18 -16 -4 -6 -9 -18 -8 -19 0 -1 3 -1 6
0 3 3 9 3 16 1 8 -2 8 -2 4 -6 -4 -4 -7 -11 -7 -17 0 -2 0 -4 -1 -4 0 0 -4 1
-8 3 -11 4 -40 15 -46 17 -3 1 -6 2 -7 2 -1 1 0 6 5 36 3 16 6 32 7 32 1 0 16
-4 35 -10z m51 -10 c3 -5 4 -7 12 -11 2 -2 6 -5 7 -6 1 -2 3 -3 4 -3 2 0 7 -5
8 -10 2 -6 3 -27 1 -27 0 1 -1 2 -1 2 0 3 -7 15 -9 17 -1 1 -2 3 -2 5 0 2 -6
13 -9 18 -3 3 -7 6 -14 8 -5 2 -5 2 -5 4 0 2 4 8 5 8 0 0 1 -2 3 -5z m-227 -9
c0 0 -2 -1 -4 -1 -2 -1 -9 -2 -15 -3 -15 -2 -14 -2 -14 -1 0 1 1 2 3 2 2 1 7
2 12 2 10 2 18 2 18 1z m224 -1 c6 -2 11 -7 14 -13 4 -7 5 -10 2 -8 -6 5 -22
10 -30 8 -6 -1 -6 -2 1 -2 14 0 24 -4 33 -14 8 -7 12 -15 14 -25 2 -7 3 -16 1
-15 -1 0 -1 1 -1 3 0 4 -4 17 -7 24 -3 7 -6 11 -9 9 -10 -7 -18 -6 -39 2 -10
3 -11 3 -18 3 -5 -1 -8 -1 -8 0 0 0 1 2 2 4 2 4 10 13 16 18 8 6 21 9 29 6z
m-214 -2 c3 -1 15 -6 26 -10 11 -4 22 -8 23 -8 2 -1 2 -1 2 -14 l-1 -13 -3 -2
c-11 -3 -10 -9 0 -13 8 -3 14 -2 28 1 6 2 20 5 30 7 19 3 22 5 21 8 0 2 0 2 3
1 1 0 3 -1 4 -1 1 -1 8 -3 15 -6 7 -2 13 -5 14 -5 0 0 2 -1 5 -2 2 -1 6 -2 9
-3 l4 -2 0 -7 c0 -8 1 -9 7 -6 7 4 8 4 8 -3 1 -3 1 -6 1 -7 -1 0 -32 -8 -57
-14 -12 -3 -18 -4 -21 -4 -1 1 -7 3 -12 5 -5 2 -17 8 -28 13 -11 6 -25 12 -31
15 -20 9 -81 37 -87 39 l-6 3 0 7 c-1 9 1 14 5 15 9 1 32 5 34 7 1 0 2 1 2 1
0 0 2 -1 5 -2z m263 -11 c-1 -2 -2 -7 -3 -10 l-2 -4 0 7 c0 5 0 7 1 10 3 5 4
4 4 -3z m10 -11 c-1 0 -3 -3 -4 -4 0 -2 -2 -5 -3 -7 -1 -1 -3 -5 -3 -8 -3 -9
-4 -10 -4 -2 0 9 4 24 7 27 1 1 3 5 5 7 l3 5 0 -8 c0 -6 0 -8 -1 -10z m35 -8
c6 -3 11 -8 14 -14 2 -5 3 -7 3 -15 0 -5 -1 -11 -1 -13 l-1 -4 -4 2 c-2 1 -8
3 -13 4 -20 4 -31 13 -31 26 0 7 1 7 10 6 9 -1 15 -5 22 -13 7 -7 9 -8 5 -2
-6 9 -17 17 -23 17 -6 0 -6 5 0 7 8 2 13 2 19 -1z m-341 -7 c5 -3 10 -5 10 -5
1 0 7 -3 15 -6 7 -4 27 -13 44 -21 16 -7 35 -16 41 -19 6 -3 11 -5 12 -5 0 0
6 -3 13 -6 7 -3 14 -6 17 -7 3 0 23 4 53 12 18 5 24 6 24 5 1 0 1 -2 1 -4 0
-3 -1 -4 -3 -4 -1 0 -10 -2 -19 -5 -10 -2 -19 -5 -21 -5 -2 -1 -6 -2 -9 -3
-13 -3 -24 -5 -27 -4 -2 0 -10 3 -17 7 -7 4 -22 11 -33 16 -25 12 -30 14 -40
19 -8 4 -14 6 -36 17 -5 2 -16 7 -24 11 -8 3 -15 7 -15 7 -1 1 1 5 2 5 0 0 6
-2 12 -5z m270 0 c1 -2 2 -4 2 -5 0 0 -2 1 -5 2 -2 1 -4 2 -5 2 -2 0 -1 1 2 3
4 2 4 2 6 -2z m-399 0 c4 -1 7 -2 7 -2 3 -6 7 -10 11 -11 1 -1 1 -1 0 -3 -2
-4 -4 -4 -4 -1 0 3 -2 5 -3 4 0 -1 -1 -3 -1 -5 -1 -4 -2 -5 -9 -2 -5 2 -5 2
-5 6 0 3 -1 4 -4 7 -4 3 -4 4 -3 6 2 3 1 3 11 1z m369 -1 c3 -1 6 -2 6 -2 1
-1 -1 -2 -3 -3 -5 -2 -14 -10 -13 -11 0 -1 3 1 6 3 9 8 19 11 26 10 6 -1 7 -3
4 -5 -1 -1 -3 -4 -5 -7 -2 -2 -5 -6 -7 -7 -5 -4 -14 -7 -20 -7 -2 0 -7 -1 -10
-2 -3 -1 -6 -2 -6 -2 -1 0 -1 5 -1 11 1 12 2 15 7 21 4 3 4 4 16 1z m-86 -4
c3 -2 3 -3 -3 -4 -17 -4 -43 -9 -51 -11 l-9 -2 -7 2 c-9 3 -10 5 -4 7 3 1 4 0
7 -1 5 -3 12 -3 31 1 27 6 29 7 31 9 2 1 2 1 5 -1z m-297 -3 c7 -4 8 -8 1 -11
-4 -2 -4 -2 -7 0 -2 1 -6 1 -10 1 -3 0 -6 1 -6 2 0 1 2 3 5 3 2 0 3 1 4 2 0 2
2 4 3 5 2 2 4 2 10 -2z m447 1 c1 -1 0 -3 -2 -5 -3 -2 -5 -7 -7 -12 -3 -7 -5
-11 -5 -8 0 3 4 15 7 18 5 8 6 9 7 7z m-30 -4 c0 0 0 -1 -1 0 -1 0 -1 1 -1 1
0 1 0 1 1 1 1 0 1 -1 1 -2z m-2 -3 c3 -4 8 -16 8 -19 0 -2 -2 -1 -3 2 -1 4 -3
8 -7 13 -3 4 -3 6 -1 6 1 0 2 -1 3 -2z m-373 -3 c1 -2 1 -2 -2 -2 -3 0 -4 0
-3 2 0 1 2 1 5 0z m404 0 c0 0 -1 -3 -2 -6 -2 -2 -3 -6 -4 -7 0 -3 -3 -5 -3
-3 0 1 4 11 6 14 1 3 3 4 3 2z m-34 -6 c2 -3 4 -7 5 -8 0 -3 0 -3 -3 -2 -7 0
-19 2 -19 3 -1 0 1 1 3 3 2 1 5 4 6 5 2 2 4 4 4 4 1 0 3 -2 4 -5z m39 3 c1 -1
3 -4 6 -6 2 -2 4 -4 4 -5 -1 -1 -17 -3 -17 -2 -1 0 0 3 1 6 1 2 3 6 3 7 1 3 3
3 3 0z m-467 -1 c1 -1 2 -1 3 0 2 1 3 1 6 -1 l5 -2 3 2 c5 3 6 3 11 0 6 -4 11
-4 15 -3 4 2 4 2 4 0 0 -1 -1 -2 -2 -2 -2 0 -7 -4 -8 -8 0 -3 -8 -11 -13 -13
-2 -1 -5 -3 -7 -5 -2 -3 -5 -5 -9 -6 -3 -1 -7 -3 -10 -5 -5 -2 -7 -2 -7 0 0 1
-2 4 -3 7 -2 3 -4 6 -4 7 0 0 1 2 3 4 2 2 2 3 1 5 -1 2 -8 6 -11 6 -1 0 -1 0
0 2 1 3 5 2 11 -2 6 -4 7 -4 10 -3 2 2 2 2 0 4 0 1 -3 3 -6 4 -5 3 -6 3 -3 5
2 2 3 1 8 -1 5 -3 7 -4 6 -5 0 -3 1 -2 4 0 l3 3 -3 3 c-3 2 -3 2 -2 0 1 -1 1
-2 1 -2 -1 -1 -12 4 -12 5 0 1 1 1 2 1 1 1 3 1 3 1 1 0 1 0 1 -1z m74 -3 c5
-2 22 -6 27 -6 4 0 4 0 4 -2 0 -4 -5 -8 -10 -8 -6 -1 -9 -1 -15 3 -4 2 -5 3
-5 5 0 1 -2 4 -4 7 -4 4 -4 4 -2 4 1 -1 4 -2 5 -3z m-9 -2 c6 -3 9 -9 5 -9 -1
0 -3 -1 -5 -2 -3 -3 -5 -4 -7 -2 -2 2 -9 4 -11 3 -2 -1 -6 0 -6 1 0 3 3 4 5 3
2 -1 2 -1 4 4 1 2 3 5 3 5 2 1 7 0 12 -3z m-73 -6 c4 -2 5 -4 3 -4 -1 0 -9 5
-9 6 0 1 2 0 6 -2z m123 0 c1 0 1 -2 1 -4 1 -2 1 -3 -2 -7 -2 -2 -4 -4 -4 -4
0 -2 3 -1 5 2 3 4 4 2 4 -8 0 -6 0 -8 -2 -10 -2 -2 -11 -6 -19 -7 -7 -2 -16
-5 -24 -10 -11 -5 -28 -11 -31 -10 -1 1 -2 2 -2 4 -1 1 -2 5 -4 7 -4 5 -5 8
-2 11 1 1 2 2 2 3 0 1 -11 9 -14 10 -2 0 -2 0 0 2 1 1 2 2 2 2 1 0 13 -7 15
-9 2 -2 2 -2 3 -1 1 1 2 2 4 2 1 1 2 2 3 3 2 2 -2 3 -5 0 l-3 -2 -6 4 c-3 2
-6 4 -6 4 1 1 1 1 2 1 0 0 2 0 5 0 4 -1 4 -1 -2 3 -1 1 -1 1 0 2 2 2 3 2 11
-3 7 -3 9 -4 10 -3 1 0 3 1 4 1 1 0 0 2 -3 5 -6 5 -5 6 2 3 l4 -2 4 3 5 2 7
-3 c8 -4 14 -4 21 -2 5 2 10 7 10 10 0 1 1 2 2 2 2 0 3 0 3 -1z m297 -2 c11
-3 28 -5 45 -3 8 0 17 2 20 3 4 1 5 1 11 -1 l6 -1 0 -10 c-1 -19 -6 -44 -10
-51 -2 -5 -6 -8 -13 -11 -6 -2 -8 -2 -21 -3 -24 -1 -40 3 -46 11 -5 5 -9 23
-12 49 -1 17 -1 18 3 17 2 0 4 0 5 1 4 1 5 1 12 -1z m-431 -4 c4 -3 5 -4 4 -6
-1 -1 -3 0 -7 2 -3 2 -5 4 -5 4 0 1 5 1 8 0z m70 -5 c5 -3 6 -5 3 -5 -2 0 -14
7 -13 8 1 2 6 1 10 -3z m-75 0 c6 -3 6 -4 6 -7 -1 -2 0 -4 2 -8 2 -2 4 -5 4
-6 0 -2 -4 -3 -11 -2 -14 1 -25 5 -27 9 -3 6 2 12 12 15 7 2 7 2 14 -1z m-19
-22 c8 -3 15 -4 25 -4 5 0 9 0 9 0 0 -1 -1 -4 -3 -7 -3 -6 -3 -6 -7 -6 -7 0
-13 0 -19 2 -13 4 -18 10 -17 18 l1 5 4 -3 c2 -2 5 -4 7 -5z m68 6 c1 -1 4 -2
6 -4 l3 -2 -2 -3 c-3 -4 -3 -7 2 -12 3 -5 5 -9 4 -10 0 -1 -19 -1 -25 0 -8 2
-18 6 -19 9 -3 4 -2 7 2 11 4 4 16 9 17 7 2 -1 7 -1 7 0 0 1 -1 1 -2 2 -2 0
-2 1 -1 2 1 1 4 1 8 0z m97 -12 c0 -10 -1 -12 -11 -14 -3 -1 -7 -3 -9 -4 -5
-2 -8 -3 -10 0 -3 3 -10 0 -16 -6 -3 -4 -7 -6 -10 -6 -1 0 -3 -1 -6 -2 -3 -2
-5 -2 -8 -2 -4 1 -6 1 -7 -1 -1 -1 -5 -1 -12 -2 -17 -1 -34 4 -41 11 -3 2 -3
3 -3 8 0 7 1 9 3 6 5 -5 17 -10 29 -11 17 -1 36 3 55 12 8 4 16 7 23 9 12 3
20 7 21 10 1 3 2 0 2 -8z M350 744 c0 -1 0 -2 1 -2 2 -1 4 0 4 1 -1 2 -4 2 -5 1z M349 717 c0 -1 1 -1 2 -1 1 0 2 0 2 1 0 1 0 2 -2 2 -2 0 -2 -1 -2 -2z M559 728 c-3 -5 -14 -29 -14 -32 0 -4 2 -4 18 -4 15 1 16 2 15 6 -1
6 -14 33 -15 33 -1 0 -3 -1 -4 -3z m5 -5 c0 -1 2 -6 4 -9 3 -8 7 -17 7 -18 0
0 -6 0 -13 0 -7 0 -13 0 -13 1 0 2 12 28 13 28 1 0 1 -1 2 -2z M488 707 c-8 -17 -10 -23 -9 -25 1 -2 2 -2 13 -2 14 0 16 1 17 4 0 2
-6 19 -11 27 -4 7 -5 6 -10 -4z m11 -8 c3 -6 5 -10 5 -10 0 -1 -5 0 -10 0 -7
0 -10 1 -10 1 1 1 3 6 5 11 2 6 5 10 5 9 0 0 3 -5 5 -11z m6 -14 c0 -1 -21 -2
-22 -1 -3 2 1 2 11 2 6 0 11 -1 11 -1z M317 629 c0 -1 0 -1 0 -2 1 0 6 1 6 2 0 1 -5 1 -6 0z M283 581 c-2 -1 -1 -3 1 -3 2 0 4 -1 5 -2 3 -2 4 1 1 4 -2 2 -6 3 -7
1z M313 574 c-2 -1 -1 -3 2 -3 1 0 4 -1 5 -2 3 -2 4 -2 4 1 0 3 -9 6
-11 4z M293 571 c-2 -2 -3 -6 -1 -6 1 0 5 6 5 8 0 2 -1 1 -4 -2z M290 554 c0 -2 5 -6 8 -6 4 0 7 2 6 3 0 1 -1 1 -2 0 -3 -1 -7 0 -9 2
-2 2 -3 3 -3 1z M356 510 c0 0 1 -1 2 -1 1 -1 1 -1 0 0 -1 2 -2 2 -2 1z M369 494 c0 -1 4 -5 5 -5 0 1 -1 2 -2 4 -2 1 -3 2 -3 1z M374 482 c1 -1 1 -6 2 -10 1 -10 2 -10 2 0 -1 5 -1 9 -2 10 -1 3 -2
2 -2 0z M367 458 c-8 -3 -28 -21 -26 -23 1 0 4 3 8 7 7 7 17 14 21 15 2 1 3
1 3 2 0 1 -2 1 -6 -1z M318 371 c0 -1 0 -1 1 -1 1 0 1 0 1 1 -1 1 -1 1 -2 1 0 0 0 0 0 -1z M250 407 c-1 -1 -1 -1 4 0 5 0 5 0 9 -4 3 -3 5 -5 5 -4 1 1 -3 6 -6
8 -3 2 -10 3 -12 0z M394 320 c-1 -4 -6 -9 -8 -9 -1 0 -4 2 -7 4 -8 5 -9 3 -1 -2 7 -6 8
-6 11 -3 2 1 8 10 8 12 0 2 -2 1 -3 -2z M365 321 c0 -1 5 -7 6 -7 1 1 -3 8 -5 8 0 0 -1 0 -1 -1z M342 313 c1 -1 2 -7 3 -12 2 -11 4 -15 3 -5 -1 9 -4 20 -5 20 -1 0
-1 -1 -1 -3z M74 153 c0 -1 8 -6 10 -6 2 0 1 2 -4 4 -5 3 -6 3 -6 2z M304 290 c0 0 -1 -1 -1 -1 0 -1 2 -1 5 0 1 2 1 2 0 2 -2 0 -3 0 -4
-1z M295 288 c-2 0 -3 -1 -3 -1 0 -2 6 -1 7 1 0 0 0 1 -1 1 0 0 -2 0 -3
-1z M273 285 c-12 -1 -17 -4 -6 -3 13 2 20 3 18 4 0 0 -6 0 -12 -1z M195 283 c0 -3 2 -9 7 -19 l5 -10 -2 -5 c-2 -8 -3 -12 -2 -12 1 -1 2
1 2 4 0 3 3 11 4 11 0 0 2 -3 4 -6 2 -3 5 -5 5 -4 1 0 0 3 -5 10 -4 6 -4 6 -3
9 2 3 3 7 1 7 -1 0 -1 -1 -1 -2 0 -1 0 -3 -1 -4 -1 -1 -1 -1 -3 1 -2 3 -9 18
-9 20 0 1 0 1 -1 1 -1 0 -1 -1 -1 -1z M212 283 c0 -1 1 -2 2 -2 0 -1 1 -1 1 0 0 0 -1 1 -1 2 -2 1 -2 1 -2
0z M244 282 c-3 0 -6 -1 -6 -1 0 -1 10 -1 14 0 1 0 2 1 2 1 0 1 -1 1 -2
1 -1 0 -5 -1 -8 -1z M222 279 c-3 -1 -8 -4 -8 -5 0 -1 1 -1 4 1 1 1 5 2 7 3 2 0 4 1 5 1
0 1 -3 1 -8 0z M218 272 c0 -2 7 -11 9 -11 2 0 1 1 -3 6 -4 6 -6 7 -6 5z M200 225 c0 -2 -1 -7 -2 -10 -1 -8 2 -5 3 4 1 3 1 8 2 9 0 1 0 2 -1
2 0 0 -1 -2 -2 -5z M178 227 c0 -8 5 -36 10 -55 l3 -12 -3 -13 c-4 -17 -4 -20 -3 -20 0
0 1 3 2 6 1 4 2 9 3 12 0 2 1 6 1 8 1 1 1 4 1 5 1 2 1 4 0 7 -1 3 0 5 2 15 1
6 2 12 2 13 -1 1 -1 1 -1 -1 -2 -8 -4 -16 -5 -16 -1 -1 -1 -1 -1 -1 0 0 -1 6
-2 12 -3 12 -6 26 -7 35 0 3 -1 6 -1 7 -1 0 -1 -1 -1 -2z M198 207 c-1 0 -1 -3 -1 -5 -1 -7 0 -5 1 2 1 4 1 5 0 3z M120 131 c1 -2 17 -9 26 -12 5 -2 12 -4 17 -4 15 -3 41 -3 40 0 -1 0
-5 0 -11 0 -9 0 -9 0 -9 2 1 1 1 3 2 4 0 1 0 2 -1 2 0 1 -1 -1 -2 -3 -1 -4 -1
-5 -5 -5 -10 -1 -31 5 -48 13 -8 4 -11 5 -9 3z M182 110 c-2 -4 -2 -10 -1 -10 1 0 1 0 1 1 0 0 0 2 1 5 0 2 0 4 0 5
-1 0 -1 0 -1 -1z M512 172 c-1 -3 -3 -5 -2 -5 1 -1 2 0 4 5 3 5 2 6 -2 0z M499 174 c1 -1 2 -2 2 -2 1 0 1 1 0 2 -1 0 -2 1 -2 1 -1 0 -1 -1 0
-1z M79 89 c0 -1 1 -1 1 -1 1 0 1 1 0 2 -1 0 -1 0 -1 -1z M85 87 c-2 -2 -3 -3 -3 -3 1 -1 6 2 6 4 0 1 0 1 -3 -1z M65 75 c-4 -3 -6 -5 -4 -5 1 0 11 6 11 7 0 1 -1 1 -7 -2z M135 69 c-2 -2 -3 -3 -3 -4 1 0 7 5 7 6 0 2 -2 1 -4 -2z M172 66 c-2 -3 -3 -6 -2 -6 1 0 5 6 5 7 0 2 -2 1 -3 -1z M108 65 c1 0 3 -1 3 0 1 0 -2 2 -3 2 -1 0 -1 -1 0 -2z M125 61 c-1 -2 -2 -3 -1 -3 0 -1 5 3 5 4 0 2 -2 1 -4 -1z M114 52 c-2 -1 -4 -3 -4 -3 0 -1 2 -1 3 1 1 0 2 1 2 1 1 0 3 1 4 2 2
3 0 2 -5 -1z M512 649 c0 -1 -1 -27 -1 -58 l-1 -56 2 -1 c2 -1 9 -2 37 -2 32 -1
35 -1 36 1 2 1 2 8 3 56 0 51 0 54 -2 56 -1 2 -3 2 -19 3 -10 1 -24 2 -31 2
-21 1 -23 1 -24 -1z m25 -2 c12 -1 27 -2 33 -3 7 0 13 -1 13 -1 2 -1 2 -9 1
-55 l0 -53 -30 0 c-17 0 -33 0 -35 1 l-5 1 0 55 c0 49 0 56 1 56 1 0 10 -1 22
-1z M523 638 c0 -2 2 -2 6 -2 4 1 4 3 -1 3 -3 0 -5 0 -5 -1z M559 635 c-1 -1 4 -2 11 -2 6 0 8 0 6 1 -1 2 -17 3 -17 1z M543 634 c0 -1 -2 -3 -3 -6 -1 -3 -3 -4 -4 -4 -4 0 -9 -2 -9 -3 0 -1
2 -3 3 -6 4 -3 4 -4 3 -9 -1 -5 -1 -7 0 -7 2 -1 2 -1 10 4 2 1 2 1 3 0 2 -3 7
-5 9 -5 1 1 1 2 1 7 -1 5 -1 5 3 9 1 3 3 5 3 6 0 1 -2 2 -5 2 -4 1 -5 2 -8 8
-3 5 -4 6 -6 4z m5 -9 c1 -4 2 -5 5 -5 5 -1 5 -2 2 -5 -3 -2 -3 -3 -3 -7 0 -3
0 -5 -1 -5 0 0 -2 1 -3 2 l-3 2 -4 -2 c-2 -1 -4 -2 -4 -2 -1 0 -1 2 0 5 0 5 0
5 -3 9 l-3 3 2 0 c5 0 8 2 10 5 0 2 1 4 2 4 0 0 2 -2 3 -4z M524 585 c0 -1 0 -1 0 -2 1 0 40 -2 48 -2 2 0 3 1 3 1 0 1 -4 2 -22
2 -12 1 -24 1 -25 2 -2 0 -3 0 -4 -1z M524 574 c0 -2 3 -2 26 -2 16 0 23 0 24 1 0 0 -4 1 -13 1 -18 1 -37
1 -37 0z M524 562 c1 -1 7 -2 25 -2 14 0 25 0 25 1 0 1 -25 2 -42 2 -6 0 -8 0
-8 -1z M525 550 c-1 0 -1 -1 0 -1 0 -1 11 -1 24 -1 18 0 23 0 24 1 0 1 -4 1
-19 1 -11 0 -21 0 -23 1 -3 0 -5 0 -6 -1z M0 382 c0 -1 4 -2 8 -4 7 -2 13 -5 17 -9 3 -3 4 -2 2 1 -3 4 -8 8
-17 10 -8 3 -10 4 -10 2z M18 341 c-9 -19 -18 -43 -18 -49 0 -4 0 -4 4 7 2 6 5 16 7 21 4 8 5
11 12 26 2 4 2 7 2 8 -1 0 -4 -6 -7 -13z M582 337 c-1 -1 -1 -1 0 -2 1 -1 3 -1 5 -1 1 0 5 0 8 -1 4 0 5 0 5 1
0 1 -1 2 -3 2 -8 2 -14 2 -15 1z M598 290 c0 -3 0 -8 1 -10 1 -3 1 -2 1 6 0 5 0 9 0 9 -1 0 -1 -2 -2
-5z M561 34 c-1 0 0 -1 1 -2 4 -2 37 -15 38 -15 1 2 -3 4 -19 11 -10 4
-18 7 -19 7 0 0 -1 0 -1 -1z" fill="black"/>
<path d="M0 765 l0 -36 16 -1 c28 -2 64 -5 75 -6 5 0 16 -1 25 -2 9 -1 34 -3
57 -5 23 -2 47 -4 54 -4 7 -1 20 -2 28 -3 9 -1 18 -1 21 -2 l6 0 1 11 c4 22 9
40 15 55 3 8 7 17 9 18 1 1 33 -2 101 -9 35 -4 37 -5 39 -2 2 2 12 20 12 20 0
1 -3 1 -7 1 -6 0 -7 0 -9 -2 l-1 -3 -17 2 c-15 2 -22 2 -110 3 -103 0 -100 0
-54 -5 11 -1 21 -2 21 -3 1 0 1 -4 -3 -13 -5 -15 -11 -40 -14 -56 -1 -4 -2 -7
-3 -8 -1 -1 -13 -1 -53 3 -12 1 -25 2 -30 2 -5 1 -15 2 -22 3 -8 0 -21 1 -28
2 -7 1 -18 1 -24 2 -16 2 -59 5 -72 6 -16 0 -15 0 -17 5 -1 3 -1 6 0 19 1 9 3
21 4 29 1 7 2 13 2 13 0 1 -5 1 -11 1 l-11 0 0 -35z" fill="white"/>
<path d="M25 799 c0 -1 -1 -8 -2 -17 -5 -35 -5 -39 -4 -41 1 -3 2 -3 28 -6 30
-2 54 -4 57 -5 1 0 8 0 15 -1 24 -2 60 -5 75 -6 9 -1 25 -3 36 -3 11 -1 22 -2
25 -3 l6 0 2 15 c4 18 9 36 13 48 2 5 4 9 4 10 0 0 -7 1 -15 1 -9 1 -28 3 -44
5 -28 3 -29 3 -88 4 l-59 0 18 -2 c10 -1 25 -3 33 -3 8 -1 27 -3 42 -5 39 -3
71 -7 73 -8 3 -1 4 -4 3 -11 -1 -6 -5 -30 -6 -36 0 -3 -1 -5 -3 -6 -2 -2 -4
-2 -33 1 -17 2 -35 3 -39 4 -8 1 -28 3 -50 4 -4 1 -13 2 -22 2 -9 1 -24 3 -34
4 -23 1 -24 1 -25 4 -2 2 -2 4 0 18 2 20 3 30 4 32 1 2 0 2 -4 2 -4 0 -6 0 -6
-1z" fill="white"/>
<path d="M459 793 c-2 -4 -4 -8 -4 -8 0 -1 -1 -3 -2 -4 -4 -3 -4 -5 -1 -5 4 0
29 -3 33 -4 l3 0 0 11 c1 5 1 12 1 14 l0 3 -13 0 -12 0 -5 -7z" fill="white"/>
<path d="M492 786 c0 -9 0 -13 1 -13 1 -1 4 -1 6 -1 l5 -1 0 15 0 14 -6 0 -6
0 0 -14z" fill="white"/>
<path d="M508 798 c0 -2 1 -2 4 -2 3 0 9 -1 16 -2 15 -2 68 -8 70 -8 2 0 2 1
2 7 l0 7 -46 0 c-45 0 -46 0 -46 -2z" fill="white"/>
<path d="M38 797 c-1 -3 -3 -14 -4 -27 -1 -6 -1 -12 -1 -15 -1 -2 -1 -4 0 -5
1 -1 32 -5 70 -8 20 -1 39 -3 76 -6 53 -6 52 -5 53 -4 1 1 3 9 5 19 3 26 3 26
2 28 -1 1 -8 2 -16 3 -15 1 -42 4 -50 5 -2 0 -12 1 -20 1 -9 1 -28 3 -41 4
-78 8 -73 8 -74 5z m53 -18 c3 -2 3 -2 6 -1 3 2 9 3 11 1 0 0 2 -2 2 -3 2 -4
1 -8 -3 -13 -2 -4 -12 -10 -14 -10 -2 0 -13 10 -14 13 -4 11 4 19 12 13z m85
-10 c7 -1 17 -1 22 -2 5 -1 11 -1 14 -1 4 0 8 -1 7 -3 -1 0 -61 5 -63 6 -2 1
0 2 3 2 2 -1 10 -1 17 -2z m12 -16 c12 -2 21 -3 21 -3 -1 -2 -8 -1 -33 1 -15
2 -21 3 -22 4 0 1 1 1 6 0 4 0 16 -1 28 -2z" fill="white"/>
<path d="M508 791 c0 -5 2 -6 25 -8 17 -3 23 -3 25 -2 3 1 11 0 13 -2 0 -1 5
-2 14 -3 7 0 13 -1 14 -1 1 0 1 1 1 3 l0 4 -9 1 c-12 2 -28 3 -45 5 -7 1 -18
3 -23 4 -14 2 -15 2 -15 -1z" fill="white"/>
<path d="M308 787 c-4 -5 -12 -26 -16 -43 -2 -8 -7 -37 -7 -38 0 0 7 0 15 -1
7 -1 23 -2 34 -3 62 -6 100 -9 130 -11 l7 -1 5 12 c3 7 7 15 8 19 3 5 3 7 3
15 0 5 0 9 -1 9 0 0 -5 -1 -10 -3 -19 -6 -29 -9 -37 -11 -16 -2 -34 -5 -42 -5
-5 -1 -13 -2 -19 -2 -6 -1 -11 -1 -12 -1 -1 0 -2 -2 -3 -5 -2 -6 -6 -9 -12 -9
-7 0 -10 2 -13 8 -2 4 -2 5 -2 14 1 11 3 17 8 20 8 4 16 1 19 -7 l2 -4 7 0 c4
1 14 1 22 2 33 2 54 7 76 16 2 1 5 3 8 4 5 2 8 6 6 7 -1 0 -6 1 -11 1 -5 1
-12 2 -16 2 -4 1 -20 2 -37 4 -31 3 -100 11 -107 12 -2 0 -4 0 -5 -1z" fill="white"/>
<path d="M508 777 c0 -3 -1 -6 0 -6 0 0 48 -5 49 -5 3 1 3 9 0 10 -1 0 -7 1
-14 2 -12 1 -19 2 -30 4 l-5 1 0 -6z" fill="white"/>
<path d="M83 777 c-1 -1 -2 -3 -2 -6 0 -3 1 -4 6 -9 3 -3 6 -6 7 -6 0 0 4 3 7
6 6 5 7 7 7 10 0 2 -1 3 -2 5 -3 1 -3 1 -6 0 -1 -1 -3 -3 -3 -3 -1 -3 -2 -2
-6 2 -4 4 -5 4 -8 1z" fill="white"/>
<path d="M562 776 c1 -2 1 -6 0 -10 l-2 -4 4 0 c2 0 3 1 4 2 1 3 2 8 1 11 -1
3 -2 3 -5 3 -3 0 -3 0 -2 -2z" fill="white"/>
<path d="M573 769 c-1 -2 -1 -5 0 -5 0 0 21 -3 25 -3 2 0 2 0 2 5 0 6 2 5 -15
7 -12 1 -12 2 -12 -4z" fill="white"/>
<path d="M490 768 c-1 -1 0 -1 1 -2 1 0 2 -2 3 -4 1 -2 1 -4 1 -4 -1 -1 -4 1
-5 4 -4 6 -7 0 -5 -7 2 -6 3 -6 6 -3 3 2 4 3 7 3 3 0 5 0 6 1 2 3 1 9 -1 11
-2 2 -13 3 -13 1z" fill="white"/>
<path d="M509 763 c0 -5 -3 -10 -6 -12 -2 -1 -2 -2 -2 -12 0 -11 0 -12 3 -18
3 -7 12 -29 13 -32 1 -1 2 -2 4 -2 1 0 6 0 11 0 l9 -1 -3 2 c-5 6 -3 12 11 40
l6 12 0 11 1 10 -9 2 c-5 0 -13 1 -19 2 -7 1 -13 1 -15 2 l-4 0 0 -4z" fill="white"/>
<path d="M570 750 c0 -10 0 -10 6 -22 8 -19 9 -20 10 -25 1 -3 2 -6 2 -8 0 -3
-3 -8 -5 -9 -1 -1 -8 -1 -15 -1 -16 0 -14 -2 3 -2 7 -1 16 -1 21 -2 l8 0 0 38
0 38 -4 0 c-2 1 -6 1 -10 1 -4 1 -9 1 -11 2 l-5 0 0 -10z" fill="white"/>
<path d="M560 758 c-1 0 -1 -13 -1 -14 1 0 2 0 4 0 l3 0 0 7 c0 7 -1 8 -3 8
-1 0 -3 0 -3 -1z" fill="white"/>
<path d="M473 756 c-6 -3 -7 -4 -17 -7 -16 -5 -17 -5 -28 -7 -22 -3 -24 -3
-60 -5 l-17 -1 -1 -3 c-3 -7 1 -8 33 -5 29 3 43 5 61 8 5 1 24 7 27 9 1 0 4 1
7 3 6 2 6 1 4 8 -1 3 -4 3 -9 0z" fill="white"/>
<path d="M348 749 c-5 -2 -8 -8 -9 -19 0 -8 2 -14 6 -17 5 -2 12 0 14 4 2 5 1
6 -2 5 -4 -1 -6 0 -9 3 -3 3 -4 6 -1 11 1 3 3 4 10 3 2 0 3 0 3 1 1 1 -1 6 -3
8 -2 1 -7 2 -9 1z m7 -6 c0 -1 -2 -2 -4 -1 -1 0 -1 1 -1 2 1 1 4 1 5 -1z m-2
-26 c0 -1 -1 -1 -2 -1 -1 0 -2 0 -2 1 0 1 0 2 2 2 2 0 2 -1 2 -2z" fill="white"/>
<path d="M492 749 c0 -1 -1 -5 -1 -10 l-1 -9 3 0 4 0 0 9 c0 4 0 9 1 9 0 2 0
2 -2 2 -2 0 -3 -1 -4 -1z" fill="white"/>
<path d="M559 739 c-2 -1 -4 -6 -15 -30 -6 -12 -6 -18 -2 -20 2 -1 8 -1 20 -1
16 0 18 0 20 2 4 4 3 8 -8 32 -9 20 -8 19 -11 19 -1 0 -3 -1 -4 -2z m12 -24
c7 -16 8 -19 7 -21 0 -1 -5 -1 -15 -2 -20 0 -21 0 -14 15 9 20 11 24 14 24 1
0 4 -6 8 -16z" fill="white"/>
<path d="M487 719 c-2 -4 -4 -9 -5 -11 0 -2 -2 -5 -2 -6 -3 -4 -7 -18 -7 -21
0 -1 2 -3 3 -4 2 -2 4 -2 18 -1 14 0 16 0 18 3 3 3 2 8 -4 23 -10 24 -11 25
-14 25 -3 0 -3 -1 -7 -8z m11 -8 c5 -8 11 -25 11 -27 -1 -3 -3 -4 -17 -4 -11
0 -12 0 -13 2 -1 2 1 8 9 25 5 10 6 11 10 4z" fill="white"/>
<path d="M0 722 c0 -4 0 -4 4 -4 3 -1 13 -2 24 -3 52 -4 81 -6 91 -7 10 -1 44
-3 80 -6 21 -2 27 -5 33 -17 2 -4 2 7 0 -183 l-1 -82 -2 -7 c-2 -3 -5 -7 -7
-9 -8 -6 -8 -6 -48 -7 -21 -1 -48 -1 -60 -2 l-23 0 -2 -8 c-9 -39 -44 -178
-48 -187 -2 -6 -3 -11 -3 -12 0 0 7 1 15 2 8 1 17 2 19 3 l5 1 5 12 c14 36 23
59 29 80 6 23 13 32 28 39 7 4 24 9 36 11 17 3 17 3 17 6 1 1 4 5 7 8 l6 6 -1
4 c-2 10 5 24 15 27 2 1 5 4 8 7 2 3 5 6 7 6 3 2 3 3 3 6 0 6 3 12 9 20 3 3 6
9 8 13 l3 7 0 54 c1 44 0 54 -1 57 -1 4 -1 15 0 20 2 4 2 14 3 48 0 24 1 46 1
49 2 8 7 15 13 18 6 4 12 4 30 2 15 -1 67 -6 110 -10 24 -2 34 -3 36 -5 9 -4
13 -12 13 -24 0 -4 0 -37 0 -73 l-1 -66 6 -5 c4 -4 6 -5 6 -4 1 1 1 34 2 74 1
75 1 78 6 86 3 4 3 5 -2 5 -6 0 -10 5 -10 12 0 3 0 3 -8 3 -4 1 -18 2 -30 3
-12 1 -30 3 -40 4 -18 1 -41 3 -65 5 -8 1 -21 2 -28 3 -7 1 -22 2 -31 3 -32 2
-54 4 -74 6 -11 0 -27 2 -36 2 -9 1 -21 2 -25 2 -5 1 -14 2 -20 2 -13 1 -82 7
-93 8 -4 0 -10 0 -13 1 l-6 0 0 -4z" fill="white"/>
<path d="M557 716 c-5 -11 -8 -18 -8 -19 0 -1 6 -1 13 -1 7 0 13 0 13 0 0 1
-4 10 -7 18 -2 3 -4 8 -4 9 -1 1 -1 2 -2 2 0 0 -2 -4 -5 -9z" fill="white"/>
<path d="M0 711 l0 -3 10 0 c22 -2 97 -8 110 -9 6 -1 25 -2 44 -4 18 -1 34 -2
35 -3 5 -1 16 -10 19 -16 4 -8 4 -18 4 -57 -1 -20 -1 -68 -1 -107 0 -41 0 -73
-1 -77 -2 -11 -8 -21 -18 -26 l-6 -3 -49 -1 c-27 -1 -50 -1 -52 -2 -3 0 -5 -3
-3 -4 1 -1 56 0 96 2 25 1 29 2 35 9 5 7 5 4 6 110 0 53 1 110 1 128 l0 31 -2
6 c-3 6 -7 9 -12 11 -1 1 -20 2 -40 4 -21 2 -53 4 -70 5 -74 6 -95 8 -100 9
l-6 0 0 -3z" fill="white"/>
<path d="M489 701 c-2 -5 -4 -10 -5 -11 0 0 3 -1 10 -1 5 0 10 -1 10 0 0 0 -9
20 -10 21 0 1 -3 -3 -5 -9z" fill="white"/>
<path d="M0 596 l0 -109 18 0 c26 0 45 -3 56 -9 8 -5 15 -16 17 -29 2 -6 2
-12 2 -24 l0 -17 20 0 c11 0 35 0 52 1 l31 1 5 3 c7 3 12 11 14 18 2 6 3 54 3
171 0 61 0 63 -2 68 -3 7 -7 13 -13 16 -6 3 -8 4 -26 5 -7 0 -24 2 -37 3 -13
1 -34 3 -45 3 -12 1 -32 3 -45 4 -13 1 -29 2 -35 3 -6 0 -12 0 -13 1 -2 0 -2
-6 -2 -109z" fill="white"/>
<path d="M276 690 c-6 -3 -5 -4 2 -4 3 0 19 -1 34 -2 16 -2 34 -3 42 -4 7 -1
20 -2 30 -3 9 0 24 -2 34 -3 10 0 20 -2 21 -2 6 -3 10 -8 12 -15 2 -5 2 -10 1
-71 l0 -66 2 -1 c1 -1 2 -1 3 -1 0 0 0 33 1 72 l1 71 -2 6 c-5 9 -10 11 -36
13 -9 1 -22 2 -30 3 -9 0 -23 2 -33 2 -10 1 -29 3 -43 4 -32 3 -33 4 -39 1z" fill="white"/>
<path d="M482 686 c0 -1 0 -1 1 -2 1 -1 22 0 22 1 0 1 -22 2 -23 1z" fill="white"/>
<path d="M518 682 c-1 -4 -1 -5 4 -5 4 0 14 0 57 -4 10 0 19 -1 20 -1 0 0 1 1
1 3 0 3 0 3 -21 5 -8 1 -20 1 -26 2 -7 0 -17 1 -24 2 -11 0 -11 0 -11 -2z" fill="white"/>
<path d="M269 682 c-2 0 -3 -2 -4 -7 -2 -5 -2 -10 -3 -46 0 -25 0 -40 1 -39 8
9 12 15 12 20 0 4 6 15 12 22 7 7 14 11 24 12 4 0 11 1 15 2 4 1 8 1 10 1 2
-1 2 0 4 2 1 3 6 7 8 7 1 0 3 1 3 2 5 7 22 8 29 2 1 -1 3 -2 5 -2 4 0 10 -3
12 -6 1 -2 3 -3 6 -4 8 -1 15 -5 17 -11 2 -4 0 -12 -3 -13 -2 0 -2 -1 -1 -5 1
-7 0 -13 -2 -19 -2 -3 -3 -6 -3 -8 0 -4 3 -7 6 -7 4 -1 4 -4 1 -5 -2 -1 -4 -1
-5 -1 -3 0 -9 4 -10 7 -1 1 -2 2 -2 2 0 0 -1 -1 -3 -3 -2 -2 -5 -4 -6 -4 -1 0
-2 -1 -2 -5 -1 -3 -2 -7 -3 -9 -1 -5 -1 -11 0 -14 1 -1 2 -3 4 -3 2 -1 2 -3 0
-4 -3 0 -7 1 -10 4 l-3 3 -3 -4 c-3 -5 -11 -10 -16 -10 -4 0 -4 0 0 -5 3 -3 4
-8 2 -11 -2 -2 -2 -2 -2 3 -1 4 -1 6 -4 8 -1 1 -2 3 -2 4 0 1 -1 1 -3 0 -5 -1
-5 -1 -5 -6 1 -10 2 -11 9 -11 3 -1 6 -2 7 -3 2 -1 2 -1 10 2 10 4 24 5 47 5
13 -1 21 -1 25 -2 3 -1 5 -2 5 -1 1 0 2 98 1 118 0 15 -1 19 -5 24 -5 5 -8 6
-23 7 -16 1 -59 5 -72 6 -14 1 -74 6 -76 6 -1 0 -3 -1 -4 -1z" fill="white"/>
<path d="M513 674 c-1 -1 -7 -1 -13 -2 -13 0 -14 -1 -18 -9 -2 -4 -2 -7 -4
-63 -2 -92 -1 -99 1 -102 1 -1 3 -5 4 -8 2 -3 3 -5 3 -4 1 2 3 123 3 150 0 11
0 16 2 20 2 7 6 12 9 13 3 1 26 0 41 -1 6 0 20 -2 31 -2 11 -1 21 -2 24 -2 4
-1 4 -1 4 2 0 1 -1 2 -2 2 -3 1 -36 4 -58 5 -9 1 -18 1 -20 1 -3 1 -6 1 -7 0z" fill="white"/>
<path d="M502 665 c-2 -1 -5 -3 -5 -4 -4 -7 -4 -9 -5 -66 0 -32 -1 -69 -2 -83
0 -15 0 -34 0 -42 l1 -16 4 -2 c1 -1 3 -1 3 -1 1 0 2 6 4 12 7 21 17 37 26 45
12 10 23 12 51 13 l21 0 0 69 0 70 -7 0 c-4 1 -16 2 -27 3 -11 0 -27 2 -37 2
-22 2 -23 2 -27 0z m34 -15 c7 0 21 -1 31 -2 16 -1 18 -1 19 -3 2 -2 2 -5 2
-56 -1 -48 -1 -55 -3 -56 -1 -2 -4 -2 -36 -1 -28 0 -35 1 -37 2 l-2 1 1 56 c0
31 1 57 1 58 1 2 3 2 24 1z" fill="white"/>
<path d="M356 657 c-3 -2 -6 -4 -7 -4 -2 0 -7 -5 -7 -7 0 -2 2 -2 8 -2 l5 0 2
5 c1 4 6 10 9 10 0 0 1 0 1 1 0 1 -2 1 -3 1 -3 0 -5 -1 -8 -4z" fill="white"/>
<path d="M365 654 c-5 -4 -7 -8 -5 -11 1 0 3 -2 4 -3 3 -1 3 -1 3 2 0 4 3 9 7
12 4 3 3 4 -2 4 -2 0 -4 -1 -7 -4z" fill="white"/>
<path d="M378 653 c-4 -2 -8 -9 -8 -13 1 -4 4 -6 4 -3 0 1 2 4 4 6 3 4 5 5 10
6 3 1 5 1 5 2 0 0 -1 1 -3 1 -4 2 -7 2 -12 1z" fill="white"/>
<path d="M515 647 c-1 0 -1 -25 -1 -55 l0 -55 5 -1 c2 -1 18 -1 35 -1 l30 0 0
53 c1 46 1 54 -1 55 0 0 -6 1 -13 1 -6 1 -21 2 -33 3 -12 0 -21 1 -22 1 0 0 0
0 0 -1z m17 -9 c0 -1 -6 -2 -8 -2 -2 2 -1 3 4 3 2 0 4 0 4 -1z m44 -4 c2 -1 0
-1 -6 -1 -7 0 -12 1 -11 2 0 2 16 1 17 -1z m-27 -4 c3 -6 4 -7 8 -8 3 0 5 -1
5 -2 0 -1 -2 -3 -3 -6 -4 -4 -4 -4 -3 -9 0 -5 0 -6 -1 -7 -2 0 -7 2 -9 5 -1 1
-1 1 -3 0 -8 -5 -8 -5 -10 -4 -1 0 -1 2 0 7 1 5 1 6 -3 9 -1 3 -3 5 -3 6 0 1
5 3 9 3 1 0 3 1 4 4 4 8 5 9 9 2z m4 -46 c18 0 22 -1 22 -2 0 0 -1 -1 -3 -1
-8 0 -47 2 -48 2 -1 2 1 3 4 3 1 -1 13 -1 25 -2z m8 -10 c9 0 13 -1 13 -1 -1
-1 -8 -1 -24 -1 -23 0 -26 0 -26 2 0 1 19 1 37 0z m-4 -12 c10 0 17 -1 17 -1
0 -1 -11 -1 -25 -1 -18 0 -24 1 -25 2 0 1 8 1 33 0z m-3 -12 c15 0 19 0 19 -1
-1 -1 -6 -1 -24 -1 -13 0 -24 0 -24 1 -2 1 2 2 6 2 2 -1 12 -1 23 -1z" fill="white"/>
<path d="M386 644 c-6 -2 -11 -8 -10 -12 1 -2 1 -2 4 1 3 3 8 5 13 5 3 0 12
-4 13 -6 2 -2 3 -1 3 2 -1 5 -4 8 -8 10 -5 2 -10 3 -15 0z" fill="white"/>
<path d="M408 644 c0 -1 1 -3 2 -5 1 -2 2 -5 3 -9 0 -6 1 -7 3 -4 3 4 3 10 -3
15 -3 3 -5 4 -5 3z" fill="white"/>
<path d="M323 642 c-1 0 1 -1 4 -2 18 -4 32 -24 32 -45 0 -8 0 -8 -2 -8 -2 0
-4 -1 -6 -3 -10 -8 -13 -27 -6 -36 3 -3 11 -7 12 -6 0 1 -1 2 -3 4 -3 2 -5 7
-5 13 0 2 -1 3 -1 4 -3 0 -2 2 0 2 1 0 2 2 3 5 2 6 7 12 12 13 1 0 4 0 6 -1 4
-1 5 0 2 1 -1 1 -1 4 -2 12 0 16 -4 27 -14 37 -7 8 -12 10 -23 11 -5 0 -9 0
-9 -1z" fill="white"/>
<path d="M305 639 c-10 -3 -19 -12 -24 -23 -4 -8 -2 -8 4 2 8 11 13 15 19 15
4 0 5 -1 8 -3 2 -2 3 -3 3 -3 0 -2 -3 -1 -5 2 -2 2 -3 2 -6 1 -7 -1 -11 -5
-16 -13 -3 -5 -10 -15 -17 -23 -6 -7 -11 -17 -12 -23 -1 -5 0 -14 3 -17 1 -1
1 -1 0 1 0 4 2 15 6 21 1 3 5 10 9 15 4 5 8 10 8 12 11 20 19 26 26 20 2 -2 2
-2 5 -1 4 3 10 -2 14 -13 2 -6 2 -8 2 -18 0 -9 0 -14 -1 -19 -3 -10 -3 -16 2
-29 6 -17 6 -16 7 -13 0 2 0 6 -2 10 -2 10 -2 24 1 35 4 19 1 37 -8 48 -3 4
-2 5 2 1 7 -7 13 -24 11 -36 l0 -5 3 3 c5 3 5 4 2 6 -3 2 -1 3 2 0 5 -3 6 1 3
14 -3 13 -13 25 -18 24 -2 -1 -2 0 -1 1 0 3 -5 5 -10 5 -7 -2 -8 -2 -9 0 0 0
1 1 2 1 1 0 1 0 0 2 -3 1 -8 1 -13 0z m18 -10 c0 -1 -5 -2 -6 -2 0 1 0 1 0 2
1 1 6 1 6 0z" fill="white"/>
<path d="M351 639 c0 0 1 -1 1 -1 1 0 3 -1 5 -2 3 -2 4 -3 7 -2 l4 1 -5 2 c-7
3 -12 4 -12 2z" fill="white"/>
<path d="M384 632 c-5 -3 -4 -3 -4 -5 1 -3 3 -4 8 -2 10 4 21 -6 20 -17 -1 -3
-2 -8 -3 -10 -2 -4 -2 -5 -1 -9 2 -3 6 -8 8 -7 0 1 0 2 -1 3 -3 3 -3 10 0 18
3 8 2 12 -2 21 -2 4 -3 5 -7 7 -7 4 -13 4 -18 1z" fill="white"/>
<path d="M364 631 c-1 -1 -1 -1 0 -3 3 -6 6 -11 6 -14 2 -9 3 -9 5 -2 1 7 1 8
-3 8 l-2 -1 2 3 c4 3 4 4 1 8 -3 2 -6 3 -9 1z" fill="white"/>
<path d="M543 625 c-2 -3 -5 -5 -10 -5 l-2 0 3 -3 c3 -4 3 -4 3 -9 -1 -3 -1
-5 0 -5 0 0 2 1 4 2 l4 2 3 -2 c1 -1 3 -2 3 -2 1 0 1 2 1 5 0 4 0 5 3 7 3 3 3
4 -2 5 -3 0 -4 1 -5 5 -1 2 -3 4 -3 4 -1 0 -2 -2 -2 -4z" fill="white"/>
<path d="M392 623 c0 -1 1 -2 3 -4 5 -6 3 -7 -2 -2 -6 6 -8 6 -8 1 1 -3 2 -6
3 -9 1 -2 2 -5 2 -7 0 -1 0 -3 1 -4 1 -1 1 -1 3 0 2 3 3 6 0 6 -1 1 -1 1 0 3
2 2 3 1 4 -2 1 -2 2 -4 3 -4 1 -1 3 4 3 9 0 5 -2 8 -6 11 -2 2 -6 3 -6 2z" fill="white"/>
<path d="M301 619 c-3 -2 -11 -14 -11 -16 0 0 1 -2 3 -2 2 -2 3 -6 0 -4 -5 2
-6 1 -10 -4 -3 -5 -4 -5 -5 -14 -1 -18 -1 -22 3 -28 1 -3 5 -8 8 -11 4 -4 5
-5 9 -6 5 0 15 1 24 4 4 1 2 -1 -4 -6 -4 -3 -4 -4 -4 -7 0 -2 0 -7 0 -10 0 -7
0 -7 -2 -7 -3 -1 -4 -3 -4 -6 1 -4 5 -6 10 -6 4 0 14 4 19 7 1 2 1 2 -1 2 -2
0 -7 5 -8 9 0 2 1 6 2 11 l3 9 -2 6 c-3 6 -6 16 -6 20 0 1 1 7 2 12 3 14 3 15
-4 18 -7 3 -5 5 4 2 2 0 2 0 2 4 0 5 -3 15 -6 19 -2 3 -4 4 -8 4 -3 1 -7 1 -9
2 -2 0 -3 0 -5 -2z m-11 -39 c3 -3 2 -6 -1 -4 -1 1 -3 2 -5 2 -2 0 -3 2 -1 3
1 2 5 1 7 -1z m31 -7 c3 -2 4 -4 2 -5 0 -1 -1 0 -3 1 -1 1 -4 2 -5 2 -2 0 -3
1 -3 1 0 4 4 4 9 1z m-24 0 c0 -2 -4 -8 -5 -8 -2 0 -1 4 1 6 3 3 4 4 4 2z m-4
-20 c2 -2 6 -3 9 -2 1 1 2 1 2 0 1 -1 -2 -3 -6 -3 -3 0 -8 4 -8 6 0 2 1 1 3
-1z" fill="white"/>
<path d="M378 616 c0 -5 -1 -8 -3 -11 -4 -5 -2 -23 2 -19 2 2 4 10 5 18 1 6 1
8 0 11 -2 6 -4 6 -4 1z" fill="white"/>
<path d="M385 602 c-1 0 -1 -1 -1 -3 0 -2 -4 -13 -5 -15 -2 -1 -1 -2 0 -8 2
-4 3 -6 3 -5 2 3 1 -3 0 -6 -2 -3 -2 -9 0 -12 2 -3 4 -3 2 0 -1 2 -1 11 1 17
1 5 1 8 -2 6 -2 -2 -2 -1 -1 2 3 5 5 14 4 20 0 3 -1 5 -1 4z" fill="white"/>
<path d="M394 595 c-3 -1 -4 -4 -4 -9 0 -5 7 1 9 7 0 3 -1 4 -5 2z" fill="white"/>
<path d="M271 576 c-6 -13 -7 -23 -2 -32 2 -5 2 -6 2 -12 -1 -3 0 -6 0 -5 2 1
5 8 6 14 1 6 1 7 -1 11 -3 5 -3 14 -2 23 1 6 0 6 -3 1z" fill="white"/>
<path d="M361 578 c-7 -5 -11 -19 -7 -27 2 -5 7 -7 11 -6 8 3 15 18 11 28 -3
7 -9 9 -15 5z" fill="white"/>
<path d="M340 548 c0 -3 2 -7 4 -7 3 0 3 1 -1 5 -2 2 -3 3 -3 2z" fill="white"/>
<path d="M261 502 c0 -25 0 -45 0 -46 0 0 4 10 6 16 2 7 9 20 13 24 2 3 7 7
10 9 4 2 8 5 10 7 1 1 5 3 7 4 3 1 4 1 4 4 0 2 -2 9 -3 10 0 0 -3 0 -7 1 -9 0
-13 3 -19 11 l-2 3 0 -4 c0 -4 -2 -11 -5 -15 -3 -4 -4 -5 -1 -5 0 0 1 0 1 -1
0 -2 -4 -3 -7 -2 -3 1 -3 3 -1 11 1 6 1 11 -3 15 l-3 3 0 -45z" fill="white"/>
<path d="M334 525 c-1 -3 -2 -6 -2 -8 0 -4 1 -4 1 -2 1 1 2 3 3 5 1 3 1 4 0 6
-1 2 -1 2 -2 -1z" fill="white"/>
<path d="M339 520 c-4 -8 -4 -9 -1 -12 l2 -2 3 2 c2 1 4 3 5 4 2 2 2 2 -1 5
-2 2 -3 4 -3 5 0 1 0 2 -1 3 0 1 -2 -1 -4 -5z" fill="white"/>
<path d="M395 521 c-11 -1 -18 -3 -24 -5 -4 -2 -4 -2 -3 -4 3 -3 7 -4 12 -3 6
3 26 4 39 4 20 -2 32 -6 40 -16 5 -5 8 -13 8 -18 1 -2 2 -5 3 -7 2 -3 3 -3 5
-2 4 0 5 0 8 0 4 -1 4 0 1 10 -7 18 -20 31 -36 37 -12 5 -33 6 -53 4z" fill="white"/>
<path d="M568 517 c-5 0 -10 -1 -11 -1 -1 -1 -2 -4 -4 -6 -2 -4 -4 -6 -6 -7
-5 -2 -11 -7 -14 -11 -1 -2 -2 -4 -2 -5 1 0 5 0 9 1 10 1 32 2 40 1 l6 -1 1 6
c1 3 4 9 6 14 1 4 3 8 2 8 -1 1 -15 2 -27 1z" fill="white"/>
<path d="M354 516 c2 -2 2 -2 -1 -5 l-3 -3 2 -2 c2 -3 2 -3 5 -2 1 1 2 2 2 2
0 1 1 1 2 1 1 0 2 1 3 1 1 1 0 3 -3 5 -2 2 -5 4 -6 4 -2 0 -2 0 -1 -1z m4 -7
c1 -1 1 -1 0 0 -1 0 -2 1 -2 1 0 1 1 1 2 -1z" fill="white"/>
<path d="M541 512 c-10 -4 -20 -15 -28 -32 0 0 1 -1 3 -2 3 -1 3 0 6 2 1 2 4
6 5 9 4 8 9 13 17 17 4 2 6 3 7 5 1 3 1 3 -2 3 -1 0 -5 -1 -8 -2z" fill="white"/>
<path d="M596 507 c-1 -3 -3 -8 -4 -11 -1 -4 -1 -4 2 -7 5 -5 6 -1 6 15 l0 10
-4 -7z" fill="white"/>
<path d="M302 509 c-3 -3 -4 -5 -2 -5 2 0 7 6 7 7 0 2 -2 1 -5 -2z" fill="white"/>
<path d="M393 508 c-11 -1 -13 -2 -11 -4 1 -1 2 -4 3 -7 l3 -4 15 0 c15 0 36
-2 41 -4 2 0 3 -1 3 0 1 0 1 3 1 7 l0 7 -4 1 c-10 4 -17 5 -33 5 -9 0 -17 0
-18 -1z" fill="white"/>
<path d="M345 504 c-1 -1 -1 -2 0 -4 2 -3 3 -4 6 -1 l2 2 -2 3 c-3 2 -4 3 -6
0z" fill="white"/>
<path d="M365 504 c-16 -8 -35 -46 -39 -81 -1 -2 -1 -4 0 -4 2 0 3 4 7 16 7
28 15 47 26 58 8 8 13 10 18 8 4 -2 4 0 -1 3 -4 2 -7 3 -11 0z" fill="white"/>
<path d="M301 502 c-3 -1 -4 -2 -2 -5 1 -1 1 -1 4 1 1 2 2 3 2 4 0 2 -1 2 -4
0z" fill="white"/>
<path d="M290 500 c-8 -7 -13 -13 -19 -28 -2 -6 -2 -6 -1 -12 1 -3 2 -7 2 -8
0 -2 0 -3 1 -3 1 -1 2 4 5 18 1 6 2 11 3 11 2 2 2 -2 -1 -14 -5 -29 -5 -33 -4
-49 1 -11 1 -16 0 -19 -1 -2 -1 -4 -1 -5 1 0 2 0 4 1 2 1 15 2 20 1 2 0 3 0 4
2 1 2 1 3 0 4 -1 2 -4 17 -4 22 0 4 2 2 2 -4 1 -8 3 -15 4 -17 1 -1 2 -2 2 -3
1 -2 1 -2 3 -1 1 1 3 1 4 1 1 0 2 1 2 6 1 3 2 6 3 8 1 2 2 6 3 13 1 6 2 13 2
15 3 12 15 41 22 51 1 2 2 4 2 4 -1 0 -4 -2 -7 -4 -12 -7 -25 -11 -33 -8 -7 2
-12 10 -12 18 0 2 0 3 -1 3 0 0 -3 -2 -5 -3z" fill="white"/>
<path d="M338 499 c-1 -1 -1 -5 0 -7 0 -1 2 0 4 1 l4 2 -2 3 c-2 3 -4 4 -6 1z" fill="white"/>
<path d="M371 498 c-8 -2 -22 -21 -26 -34 0 -3 -3 -10 -5 -16 -5 -14 -6 -19
-4 -19 0 0 1 1 1 2 1 0 1 1 2 1 1 -1 -4 -9 -12 -18 -6 -7 -7 -9 -7 -12 0 -6 1
-8 5 -9 8 -3 14 -9 18 -17 2 -3 2 -3 1 -5 -2 -1 -2 -1 -5 1 -6 3 -15 10 -17
15 -4 6 -7 8 -11 6 -2 -1 -4 -2 -4 -3 -2 -2 -2 -2 3 -8 8 -10 7 -11 -1 -2 -9
9 -13 11 -22 10 -6 -1 -17 -5 -23 -9 -6 -4 -11 -14 -8 -15 1 -1 5 -12 7 -20 3
-10 6 -12 14 -15 10 -4 20 -5 34 -3 11 2 14 2 11 0 -2 -1 10 -3 19 -3 7 0 9 0
15 3 11 5 20 14 28 30 8 15 11 22 12 37 2 16 1 30 -3 39 -3 9 -7 16 -11 21 -3
3 -3 5 0 3 3 -2 9 -13 12 -21 2 -5 3 -8 3 -7 1 13 -4 44 -10 55 -5 11 -10 14
-16 13z m3 -9 c-1 0 -2 1 -3 2 -3 4 -2 5 1 2 1 -2 2 -3 2 -4z m2 -7 c1 -1 1
-5 2 -10 0 -10 -1 -10 -2 0 -1 4 -1 9 -2 10 0 2 1 3 2 0z m-3 -23 c0 -1 -1 -1
-3 -2 -4 -1 -14 -8 -21 -15 -4 -4 -7 -7 -8 -7 -1 1 9 12 16 17 9 7 16 10 16 7z
m-53 -88 c0 -1 0 -1 -1 -1 -1 0 -1 0 -1 1 0 1 0 1 0 1 1 0 1 0 2 -1z" fill="white"/>
<path d="M302 495 c-2 -2 -2 -3 0 -5 l1 -2 3 4 c2 2 2 4 1 5 -2 1 -2 1 -5 -2z" fill="white"/>
<path d="M451 493 c1 -5 2 -8 4 -7 4 2 1 12 -2 12 -1 0 -2 -2 -2 -5z" fill="white"/>
<path d="M330 496 c-2 -1 -2 -2 -2 -6 0 -2 0 -4 1 -4 1 0 8 4 8 5 0 1 0 1 -1
1 0 0 -1 1 -1 3 -1 2 -1 2 -5 1z" fill="white"/>
<path d="M309 492 c-5 -5 -4 -8 1 -8 2 0 3 1 3 2 1 1 1 3 2 4 0 3 -4 4 -6 2z" fill="white"/>
<path d="M319 492 c-1 -1 -2 -2 -3 -4 0 -2 0 -4 0 -4 0 -1 2 -1 5 0 l4 0 0 4
c-1 5 -2 6 -6 4z" fill="white"/>
<path d="M391 488 c0 -1 1 -5 2 -8 6 -15 12 -56 18 -109 1 -12 2 -19 4 -25 2
-5 3 -12 4 -15 0 -3 1 -6 1 -7 0 0 2 9 4 22 5 30 11 59 19 93 7 28 6 36 -4 44
-6 4 -10 5 -30 6 -14 0 -18 0 -18 -1z" fill="white"/>
<path d="M588 485 c-2 -8 -9 -36 -11 -46 0 -3 -2 -11 -3 -17 -2 -15 -5 -32 -6
-49 -1 -13 -1 -39 0 -39 0 0 2 1 3 2 2 2 2 3 3 9 1 23 4 56 7 73 4 23 12 55
15 62 1 5 1 5 -1 5 -1 0 -2 1 -3 2 -2 2 -2 1 -4 -2z" fill="white"/>
<path d="M444 482 c4 -4 5 -6 6 -11 1 -6 1 -14 -3 -27 -9 -43 -16 -74 -21
-110 -1 -7 -2 -15 -3 -17 0 -3 0 -9 0 -14 3 -26 -3 -34 -26 -38 -22 -4 -43 -3
-57 1 -5 1 -6 1 -13 -1 -4 -1 -10 -2 -12 -3 -14 -1 -36 -5 -41 -7 -3 0 -8 -1
-10 -1 -2 0 -6 -1 -8 -2 -2 -1 -7 -2 -10 -3 -11 -1 -11 0 -11 -5 0 -3 -1 -5
-1 -6 -1 -1 -1 -2 1 -2 2 -1 16 -5 43 -13 9 -3 18 -6 19 -6 0 0 1 4 1 9 0 11
2 15 10 23 6 5 20 8 46 10 24 2 34 3 41 4 4 1 10 1 13 2 15 1 20 9 25 38 2 15
3 19 6 37 5 30 6 33 8 43 5 21 8 37 9 40 1 2 2 7 3 12 4 14 7 25 9 27 2 3 2 3
1 6 -1 1 -3 3 -4 5 -3 5 -9 8 -17 11 -4 1 -7 3 -8 3 -1 0 1 -2 4 -5z" fill="white"/>
<path d="M460 485 c-1 -1 0 -2 1 -3 2 -1 4 0 2 3 -2 2 -3 3 -3 0z" fill="white"/>
<path d="M549 485 c-23 -1 -28 -6 -35 -30 -4 -13 -10 -41 -10 -48 0 -2 1 -2
31 -3 18 -1 31 -1 32 0 0 0 2 7 3 15 2 14 8 42 12 58 1 4 2 7 1 7 -1 1 -23 2
-34 1z" fill="white"/>
<path d="M14 483 c-3 0 -7 0 -10 -1 l-4 0 0 -6 c0 -6 0 -6 2 -5 3 1 24 1 35 0
28 -3 34 -9 35 -35 0 -7 1 -13 1 -14 0 0 4 -1 8 -1 l8 -1 0 14 c-1 11 -1 16
-3 21 -5 16 -15 23 -36 26 -9 2 -28 3 -36 2z" fill="white"/>
<path d="M598 478 c-10 -33 -20 -94 -20 -126 0 -6 0 -12 -1 -13 -2 -7 -8 -9
-28 -13 -12 -2 -19 -6 -20 -9 0 -2 1 -2 3 -4 8 -3 56 -10 63 -9 l5 0 0 15 0
14 -8 0 c-9 1 -11 2 -11 3 0 2 3 2 11 1 4 0 8 -1 8 -1 0 1 0 33 0 73 0 61 -1
72 -2 69z" fill="white"/>
<path d="M509 472 c-4 -9 -15 -54 -15 -64 0 -2 4 -4 6 -2 0 1 1 4 1 7 3 16 10
46 14 55 2 6 2 7 -2 7 -1 0 -2 -1 -4 -3z" fill="white"/>
<path d="M3 467 c-2 -1 -3 -1 -3 -9 l0 -9 11 0 c21 -2 40 -5 51 -10 3 -1 5 -2
6 -2 1 0 -1 13 -3 17 -3 7 -8 10 -23 13 -10 1 -34 1 -39 0z" fill="white"/>
<path d="M476 467 c-7 -4 -9 -10 -20 -59 -6 -24 -7 -29 -8 -32 0 -3 -1 -11 -3
-20 -6 -31 -8 -45 -9 -54 -4 -23 -8 -33 -17 -37 -5 -3 -4 -3 -50 -7 -26 -3
-49 -6 -55 -9 -5 -3 -11 -10 -13 -15 0 -3 -1 -8 -1 -11 0 -5 0 -6 2 -7 1 0 72
11 97 16 4 0 13 2 20 3 25 4 28 9 35 54 5 28 7 39 10 56 3 17 9 47 11 54 0 2
3 11 5 21 2 10 4 21 5 26 2 11 3 17 0 19 -2 3 -6 3 -9 2z" fill="white"/>
<path d="M266 458 c-1 -2 -3 -8 -6 -13 -4 -11 -6 -16 -12 -23 -4 -5 -7 -11 -7
-16 0 -3 0 -3 4 -3 6 0 14 -2 18 -6 5 -4 4 -4 -3 -1 -11 7 -24 5 -29 -4 -3 -4
-8 -8 -13 -9 -3 -1 -9 -8 -10 -13 -2 -5 -1 -13 1 -13 0 0 3 2 6 5 3 4 6 5 9 6
4 1 10 0 14 -3 2 -1 3 -1 7 1 5 1 6 2 7 5 2 6 7 12 13 15 7 4 7 6 7 35 0 18 0
25 -1 29 -1 3 -2 7 -2 8 0 4 -2 4 -3 0z m-4 -51 c3 -2 7 -7 6 -8 0 -1 -2 1 -5
4 -4 4 -4 4 -9 4 -5 -1 -5 -1 -4 0 2 3 9 2 12 0z" fill="white"/>
<path d="M490 448 c-1 -5 -1 -6 2 -7 3 -1 3 -1 4 1 2 3 1 6 -2 7 l-4 2 0 -3z" fill="white"/>
<path d="M0 414 c0 -27 0 -31 2 -31 2 0 15 -5 19 -8 4 -2 8 -7 7 -8 -1 0 -2 1
-3 2 -4 4 -10 7 -18 10 l-7 2 0 -42 0 -41 6 15 c7 18 18 41 19 41 0 -1 0 -4
-2 -8 -7 -15 -8 -18 -12 -26 -2 -5 -5 -15 -7 -21 l-4 -12 0 -42 c0 -23 0 -42
1 -42 0 0 3 -2 5 -4 l4 -3 0 3 c-1 2 -2 5 -2 8 -1 2 -1 9 -1 16 0 31 10 70 30
116 9 18 12 26 20 53 5 15 6 17 11 22 l3 4 -1 4 c-1 2 -2 4 -2 6 0 4 -1 4 -6
1 -6 -3 -11 -10 -15 -22 -11 -31 -13 -37 -15 -37 -1 0 -1 1 0 4 1 1 4 10 8 20
3 10 6 19 7 21 3 6 8 13 13 16 2 1 4 3 4 3 0 1 -16 6 -26 7 -8 2 -29 4 -35 4
l-3 0 0 -31z" fill="white"/>
<path d="M487 438 c0 -1 -1 -6 -3 -13 -1 -7 -2 -14 -2 -15 0 -3 0 -4 3 -4 2 0
4 0 4 1 1 0 2 5 3 11 0 5 2 12 2 14 0 2 1 5 1 5 -1 0 -8 1 -8 1z" fill="white"/>
<path d="M401 403 c0 -19 2 -45 3 -47 0 0 1 -1 2 0 3 0 3 1 1 14 -1 2 -2 14
-3 27 -1 12 -2 23 -3 24 0 1 0 -7 0 -18z" fill="white"/>
<path d="M78 417 c-8 -2 -13 -10 -20 -33 -7 -21 -11 -33 -17 -45 -19 -41 -30
-81 -31 -113 l0 -16 3 -13 c4 -13 5 -20 3 -25 -1 -1 -1 -3 -1 -3 1 -1 9 5 12
9 7 9 10 16 21 62 4 18 14 55 21 83 17 67 18 72 19 83 1 9 1 9 -1 11 -1 1 -6
1 -9 0z" fill="white"/>
<path d="M480 403 c0 0 0 -2 -1 -4 0 -1 0 -3 0 -4 0 -1 14 -2 37 -3 20 -1 39
-2 43 -3 l7 0 0 5 c1 2 1 5 1 5 0 0 -15 1 -33 1 -17 1 -37 2 -43 3 -6 0 -11 0
-11 0z" fill="white"/>
<path d="M477 389 c-1 -4 -9 -43 -9 -44 0 0 3 0 10 2 l3 0 0 22 c0 19 -1 22
-2 22 -1 0 -2 -1 -2 -2z" fill="white"/>
<path d="M323 389 c0 -3 17 -18 18 -15 0 3 -5 10 -9 13 -4 2 -9 3 -9 2z" fill="white"/>
<path d="M484 369 c0 -19 1 -23 2 -20 1 0 1 10 1 21 1 19 1 20 -1 20 -2 0 -2
-1 -2 -21z" fill="white"/>
<path d="M492 389 c-1 -1 -1 -10 -1 -20 -1 -20 -1 -22 3 -17 2 2 2 4 2 14 1 6
1 14 1 17 1 6 1 6 -1 6 -2 0 -3 0 -4 0z" fill="white"/>
<path d="M501 386 c0 -2 -1 -10 -1 -18 0 -11 -1 -16 -2 -17 -2 -3 -10 -6 -20
-8 -6 -1 -11 -2 -11 -2 0 -1 0 -3 -1 -5 0 -4 0 -5 1 -5 1 0 8 -1 16 -3 22 -3
32 -4 38 -2 3 0 7 1 9 1 2 0 11 1 18 3 13 2 14 3 15 5 2 3 1 7 -1 8 -1 0 -4 1
-7 1 -3 1 -12 2 -21 3 -9 1 -18 2 -20 2 -9 0 -14 2 -9 4 3 1 48 -4 56 -7 2 0
2 0 3 19 1 11 1 20 1 20 0 1 -51 4 -61 4 -1 0 -2 -1 -3 -3z" fill="white"/>
<path d="M395 372 c-1 -4 -4 -10 -6 -14 -5 -8 -6 -11 -4 -11 5 0 11 2 13 5 2
3 2 4 2 11 -1 5 -1 10 -2 12 l-1 3 -2 -6z" fill="white"/>
<path d="M220 364 c-2 -1 -4 -3 -4 -4 -1 -2 4 -1 6 2 5 4 4 5 -2 2z" fill="white"/>
<path d="M227 363 c-4 -3 -4 -4 0 -4 2 0 3 1 4 3 4 4 0 6 -4 1z" fill="white"/>
<path d="M251 363 c-1 0 -3 0 -6 -1 -2 -1 -4 -2 -4 -3 0 -1 1 -1 1 -1 1 0 4 2
7 2 3 1 6 3 6 3 0 1 -3 1 -4 0z" fill="white"/>
<path d="M234 361 c-3 -2 -2 -3 0 -3 2 0 4 3 3 4 -1 1 -2 1 -3 -1z" fill="white"/>
<path d="M248 359 c-6 -3 -8 -4 -6 -6 1 -2 2 -2 8 0 7 2 8 3 6 6 -1 2 -2 2 -8
0z" fill="white"/>
<path d="M215 354 c-8 -2 -10 -4 -14 -7 -3 -4 -7 -12 -7 -15 0 -4 2 -3 3 1 2
6 14 18 14 13 0 0 -1 -2 -3 -4 -5 -3 -8 -8 -9 -12 -1 -4 0 -6 2 -2 1 4 13 11
13 8 0 0 -2 -2 -3 -3 -2 -2 -4 -4 -4 -5 0 -1 4 -1 9 1 2 0 7 1 11 1 7 0 16 2
16 3 1 0 0 4 -2 9 -2 5 -3 9 -3 10 0 1 -2 2 -8 3 -9 1 -10 1 -15 -1z" fill="white"/>
<path d="M252 352 c-7 -2 -9 -3 -9 -5 0 -3 1 -3 5 -2 2 1 5 2 8 3 3 1 4 2 4 3
-1 0 -1 1 -1 2 0 0 -4 0 -7 -1z" fill="white"/>
<path d="M399 349 c-2 -3 -4 -4 -11 -5 -7 -1 -8 -1 -11 -5 -1 -2 -3 -4 -2 -4
0 -1 1 -1 3 -2 2 0 5 1 10 3 3 2 7 4 7 4 1 0 1 0 1 -1 0 -1 -2 -3 -4 -3 -2 -1
-5 -3 -7 -4 -4 -2 -7 -2 -10 -1 -3 2 -3 2 -9 -2 -4 -3 -9 -6 -12 -7 -5 -1 -16
-2 -22 -1 l-3 1 0 -11 c0 -29 3 -38 10 -41 11 -5 40 -5 59 -1 17 4 22 9 22 24
0 16 -6 46 -10 55 -2 5 -6 5 -11 1z m-2 -27 c0 -2 -6 -11 -8 -12 -3 -3 -4 -3
-11 3 -8 5 -7 7 1 2 3 -2 6 -4 7 -4 2 0 7 5 8 9 1 3 3 4 3 2z m-28 -4 c1 -1 2
-3 2 -4 -1 0 -6 6 -6 7 0 2 3 1 4 -3z m-24 -9 c1 -3 2 -9 3 -13 1 -10 -1 -6
-3 5 -1 5 -2 11 -3 12 0 2 0 3 1 3 0 0 1 -3 2 -7z" fill="white"/>
<path d="M252 345 c-7 -2 -8 -4 -6 -7 1 -1 2 -1 6 0 2 1 6 2 7 2 3 1 3 2 3 4
-1 3 -2 3 -10 1z" fill="white"/>
<path d="M255 337 c-4 -1 -6 -2 -6 -3 0 -2 0 -2 7 -2 10 1 10 1 9 5 -2 2 -4 3
-10 0z" fill="white"/>
<path d="M177 332 c-23 -4 -37 -9 -45 -15 -8 -6 -14 -19 -20 -41 -2 -6 -4 -12
-5 -15 -2 -6 -20 -54 -21 -57 -1 -1 -5 -10 -8 -20 -5 -13 -7 -18 -7 -22 0 -3
-1 -6 -1 -6 -1 -1 -3 -5 -4 -9 l-3 -8 3 -3 c4 -5 27 -14 35 -15 3 0 3 0 5 6 1
3 2 7 3 8 1 3 1 4 -2 4 -3 0 -17 4 -17 5 0 2 3 1 10 -1 10 -3 10 -3 10 5 0 10
3 22 8 36 8 20 10 26 13 36 5 13 5 14 7 25 2 9 2 12 1 14 -2 6 -4 16 -4 20 0
6 2 2 3 -6 1 -5 2 -9 2 -10 1 -2 1 -2 4 10 2 9 2 9 0 15 0 3 -1 7 -1 9 1 4 2
3 2 -4 1 -3 2 -5 2 -5 1 0 2 3 4 7 4 7 11 15 18 19 3 2 9 4 14 6 9 3 12 5 9 7
-1 0 -1 2 -1 4 0 5 1 5 -14 1z m-97 -181 c5 -2 6 -4 4 -4 -2 0 -10 5 -10 6 0
1 1 1 6 -2z" fill="white"/>
<path d="M252 328 c-28 -1 -53 -6 -73 -14 -10 -3 -19 -11 -25 -22 -3 -6 -7
-20 -13 -51 -2 -12 -6 -24 -16 -49 -4 -12 -8 -25 -9 -28 -2 -8 -3 -25 -2 -27
1 -1 0 -2 0 -2 -1 -1 -3 -4 -4 -7 -4 -15 -4 -15 9 -21 19 -9 40 -15 54 -15 4
0 5 0 6 3 0 3 2 3 2 -1 l0 -2 6 0 c8 0 14 2 15 3 1 2 4 19 3 20 -1 1 0 3 1 5
2 3 2 6 2 14 0 7 0 11 2 17 6 20 12 58 12 75 0 6 0 6 5 10 4 4 4 5 4 9 0 3 0
6 -1 7 -1 2 0 5 2 5 0 0 1 -1 1 -2 2 -4 13 -3 21 1 3 2 5 2 7 2 2 -1 7 0 11 1
8 2 20 4 37 7 9 1 22 4 22 5 0 0 -1 2 -2 5 -1 3 -2 7 -3 13 0 6 -1 8 -2 8 0 0
-1 0 -1 -1 -1 -1 -2 -1 -3 -1 -1 0 -1 0 0 1 4 3 3 4 -13 13 -4 2 -9 4 -11 5
-4 2 -6 4 -4 4 1 0 26 -13 29 -15 3 -3 4 -2 4 1 0 6 -18 21 -24 20 -3 -1 -20
1 -24 2 -5 2 -8 3 -25 2z m56 -39 c-3 -1 -5 -1 -5 0 0 1 2 2 5 2 1 0 1 0 0 -2z
m-9 -1 c-1 -2 -7 -3 -7 -1 0 0 1 1 3 1 1 1 3 1 3 1 1 0 1 -1 1 -1z m-14 -3
c-2 -1 -24 -4 -24 -2 0 1 23 4 24 3 0 0 0 0 0 -1z m-88 -2 c0 -2 7 -17 9 -20
2 -2 2 -2 3 -1 1 1 1 3 1 4 0 1 0 2 1 2 2 0 1 -4 -1 -7 -1 -3 -1 -3 3 -9 5 -7
6 -10 5 -10 0 -1 -3 1 -5 4 -2 3 -4 6 -4 6 -1 0 -4 -8 -4 -11 0 -3 -1 -5 -2
-4 -1 0 0 4 2 12 l2 5 -5 10 c-7 14 -8 20 -6 20 1 0 1 0 1 -1z m18 -2 c0 -1
-1 -1 -1 0 -1 0 -2 1 -2 2 0 1 0 1 2 0 0 -1 1 -2 1 -2z m39 1 c0 0 -1 -1 -2
-1 -4 -1 -14 -1 -14 0 0 0 3 1 6 1 3 0 7 1 8 1 1 0 2 0 2 -1z m-24 -3 c-1 0
-3 -1 -5 -1 -2 -1 -6 -2 -7 -3 -3 -2 -4 -2 -4 -1 0 1 5 4 8 5 5 1 8 1 8 0z
m-6 -12 c4 -5 5 -6 3 -6 -2 0 -9 9 -9 11 0 2 2 1 6 -5z m-21 -39 c-1 -1 -1 -6
-2 -9 -1 -9 -4 -12 -3 -4 1 8 3 15 4 15 1 0 1 -1 1 -2z m-23 -6 c1 -9 4 -23 7
-35 1 -6 2 -12 2 -12 0 0 0 0 1 1 1 0 3 8 5 16 0 2 0 2 1 1 0 -1 -1 -7 -2 -13
-2 -10 -3 -12 -2 -15 1 -3 1 -5 0 -7 0 -1 0 -4 -1 -5 0 -2 -1 -6 -1 -8 -1 -3
-2 -8 -3 -12 -1 -3 -2 -6 -2 -6 -1 0 -1 3 3 20 l3 13 -3 12 c-4 15 -7 30 -9
43 -1 12 -1 14 0 14 0 -1 1 -4 1 -7z m18 -18 c-1 -7 -2 -9 -1 -2 0 5 1 6 2 6
0 0 0 -2 -1 -4z m-69 -76 c17 -8 38 -14 48 -13 4 0 4 1 5 5 1 2 2 4 2 3 1 0 1
-1 1 -2 -1 -1 -1 -3 -2 -4 0 -2 0 -2 9 -2 6 0 10 0 11 0 1 -3 -25 -3 -40 0 -5
0 -12 2 -17 4 -14 4 -31 13 -26 13 1 0 5 -2 9 -4z m54 -22 c-1 -3 -1 -5 -1 -5
0 -1 0 -1 -1 -1 -1 0 -1 2 0 4 0 6 1 7 2 7 0 -1 0 -3 0 -5z" fill="white"/>
<path d="M464 324 c0 -2 -1 -8 -2 -12 -1 -4 -1 -8 -2 -9 0 -1 0 -2 1 -2 3 -1
16 -4 24 -5 5 -1 14 -3 20 -4 12 -2 18 -2 16 1 0 1 0 4 -1 8 0 8 3 17 7 21 2
2 2 2 0 2 -1 0 -4 -1 -7 -2 -6 -1 -10 -1 -29 2 -18 3 -22 4 -24 4 -1 1 -2 0
-3 -4z" fill="white"/>
<path d="M314 323 c3 -3 5 -4 6 -1 0 2 -2 3 -6 3 l-3 0 3 -2z" fill="white"/>
<path d="M321 321 c-1 -2 0 -5 1 -5 2 1 3 6 1 6 0 0 -1 -1 -2 -1z" fill="white"/>
<path d="M525 313 c-1 -2 -1 -13 0 -17 2 -7 5 -10 13 -11 15 -4 61 -12 62 -11
0 0 -1 3 -1 6 -1 4 -1 6 0 11 2 10 2 10 -4 10 -5 -1 -20 1 -45 5 -14 3 -20 5
-21 7 -1 1 -3 1 -4 0z" fill="white"/>
<path d="M460 296 c0 0 0 -2 0 -2 0 -1 17 -5 60 -13 8 -2 22 -4 30 -6 23 -5
46 -9 48 -9 1 0 2 1 2 2 0 1 -2 2 -13 4 -8 1 -18 3 -23 4 -5 1 -15 3 -21 4
-10 2 -13 3 -15 5 -3 2 -4 2 -10 2 -3 0 -8 0 -11 1 -3 1 -14 3 -24 4 -10 2
-20 4 -21 5 -1 0 -2 0 -2 -1z" fill="white"/>
<path d="M458 285 c-4 -23 -5 -28 -8 -34 -3 -8 -8 -13 -14 -16 -2 -1 -4 -3 -4
-3 0 -1 4 -2 8 -3 4 0 11 -2 15 -3 5 -1 11 -2 14 -3 l6 -1 4 4 c6 6 8 6 17 5
8 -1 14 -5 21 -13 l6 -6 4 4 c3 3 8 6 11 8 6 2 19 6 24 6 1 0 4 1 7 2 3 1 6 2
6 1 1 0 0 -3 -1 -6 -1 -3 -1 -9 -1 -15 l1 -10 3 -1 c3 0 18 -4 21 -5 2 0 2 2
2 33 l0 33 -9 1 c-5 1 -26 5 -46 9 -21 4 -46 9 -57 11 -11 2 -21 5 -24 6 -2 0
-4 1 -5 1 0 0 0 -2 -1 -5z" fill="white"/>
<path d="M228 232 c-3 -2 -2 -5 1 -6 1 -1 13 -4 25 -8 20 -6 29 -9 42 -13 2
-1 4 -1 4 -1 1 1 0 9 -1 9 -2 0 -29 8 -48 14 -20 6 -21 6 -23 5z" fill="white"/>
<path d="M415 230 c-4 0 -17 -3 -29 -5 -13 -2 -30 -4 -39 -6 -21 -4 -36 -6
-40 -6 -3 -1 -4 -1 -4 -4 0 -1 1 -3 1 -4 2 -2 2 -2 12 -1 6 1 19 3 30 5 52 8
70 11 74 13 4 1 6 3 7 8 1 2 1 2 -2 2 -1 0 -6 -1 -10 -2z" fill="white"/>
<path d="M556 226 c-13 -4 -17 -6 -24 -11 -6 -4 -6 -6 -4 -14 1 -4 2 -10 3
-14 l0 -7 3 6 c4 8 12 20 17 24 2 2 4 3 4 3 0 -1 -2 -4 -5 -7 -9 -11 -19 -30
-21 -40 0 -5 -2 -8 -4 -9 -2 0 -2 -1 -1 -2 0 -2 0 -5 0 -7 l0 -4 2 4 c1 2 4 5
6 8 2 2 4 5 4 5 0 3 6 10 10 13 3 2 7 4 10 5 3 1 5 2 7 6 4 7 5 13 6 27 0 7 1
14 1 15 1 2 -1 2 -14 -1z" fill="white"/>
<path d="M429 224 c-4 -5 -7 -7 -21 -9 -8 -1 -14 -2 -14 -3 -1 -1 -3 -13 -3
-13 0 -1 5 -2 12 -4 6 -2 14 -4 19 -5 5 -2 17 -5 27 -8 9 -3 18 -6 19 -6 1 -2
-9 0 -18 2 -17 5 -42 12 -50 15 -9 3 -9 3 -10 1 -1 -2 -1 -3 1 -4 1 0 2 -1 3
-1 1 0 14 -4 44 -13 5 -2 11 -3 13 -4 1 0 4 -1 6 -1 6 -3 6 -3 10 0 l3 4 -3 7
c-3 11 -3 20 2 30 3 4 3 6 3 7 -1 0 -40 9 -40 9 -1 0 -2 -2 -3 -4z" fill="white"/>
<path d="M485 226 c-3 -1 -7 -7 -12 -16 -4 -8 -4 -9 -4 -16 0 -5 1 -8 2 -11 2
-3 4 -8 5 -11 3 -6 4 -7 12 -13 5 -4 10 -7 12 -8 1 -1 4 -3 5 -5 l3 -3 0 3 c0
3 -4 26 -6 36 -1 3 -2 7 -4 9 -1 2 -2 4 -1 4 1 1 1 3 0 7 -2 8 -2 10 -1 8 1 0
3 -7 7 -23 3 -10 7 -32 7 -38 0 -6 0 -3 0 -37 1 -25 1 -33 2 -25 1 2 1 5 1 7
1 4 1 24 1 32 -1 2 -1 7 -1 12 l0 9 5 7 c7 11 10 19 10 28 0 8 -6 26 -11 31
-1 1 -5 5 -9 8 -7 6 -7 6 -14 6 -3 0 -7 -1 -9 -1z m29 -54 c-2 -5 -3 -6 -4 -5
-1 0 1 2 2 5 4 6 5 5 2 0z m-13 2 c1 -1 1 -2 0 -2 0 0 -1 1 -2 2 -1 0 -1 1 0
1 0 0 1 -1 2 -1z" fill="white"/>
<path d="M224 204 c-1 -11 -3 -25 -5 -32 -1 -7 -2 -13 -2 -14 1 0 26 4 27 5 0
0 0 12 0 27 l1 27 -9 3 c-5 2 -9 3 -9 3 0 0 -2 -9 -3 -19z" fill="white"/>
<path d="M249 198 c0 -9 0 -21 -1 -26 0 -9 0 -10 2 -10 1 -1 7 -3 14 -5 14 -6
44 -17 44 -17 1 0 1 13 1 30 l0 30 -7 0 c-6 1 -11 2 -40 12 -6 1 -11 3 -12 3
-1 0 -1 -3 -1 -17z" fill="white"/>
<path d="M373 210 c-7 -2 -21 -4 -30 -5 -10 -2 -18 -3 -18 -4 -1 -1 -1 -95 -1
-96 1 0 4 0 7 1 4 1 14 4 23 5 l17 4 3 12 c5 29 8 49 10 56 2 12 5 26 5 28 0
1 1 1 -16 -1z" fill="white"/>
<path d="M316 200 l-3 -1 -1 -45 c0 -26 0 -47 1 -47 0 -1 2 -1 4 -2 l4 0 0 48
c0 38 0 48 -1 48 -1 0 -3 -1 -4 -1z" fill="white"/>
<path d="M0 197 c0 -2 2 -3 3 -3 4 -2 5 -1 1 2 -3 4 -4 4 -4 1z" fill="white"/>
<path d="M572 199 c0 -1 -5 -13 -5 -15 -1 -2 -1 -2 3 -2 6 0 21 -4 26 -6 l4
-2 0 9 0 10 -12 2 c-6 2 -13 3 -14 4 -1 0 -2 0 -2 0z" fill="white"/>
<path d="M0 178 l0 -13 4 0 c5 1 8 3 9 9 2 7 -1 14 -7 16 -2 1 -4 1 -5 2 -1 0
-1 -3 -1 -14z" fill="white"/>
<path d="M71 189 c-1 0 -9 -1 -18 -2 -10 -2 -18 -3 -18 -4 0 -1 -2 -4 -5 -7
-2 -3 -4 -5 -4 -6 0 0 12 1 20 2 2 0 8 1 12 2 4 1 8 1 10 2 1 0 2 2 4 6 2 4 3
7 3 8 0 0 -3 0 -4 -1z" fill="white"/>
<path d="M386 173 c-3 -14 -4 -15 -7 -38 -2 -11 -3 -15 -2 -16 1 0 4 -1 7 -2
6 -2 35 -13 46 -17 4 -2 8 -3 8 -3 1 0 1 2 1 4 0 6 3 13 7 17 4 4 4 4 -4 6 -7
2 -13 2 -16 -1 -3 -1 -6 -1 -6 0 -1 1 4 13 8 19 4 5 14 14 18 16 1 1 5 2 9 3
8 2 10 4 5 6 -1 0 -18 5 -36 10 -19 6 -34 10 -35 10 0 0 -2 -6 -3 -14z" fill="white"/>
<path d="M561 177 c-10 -3 -12 -4 -16 -8 -4 -5 -8 -11 -7 -12 2 -1 11 5 16 10
2 3 5 5 5 5 2 0 0 -3 -6 -9 -4 -5 -8 -7 -11 -8 -6 -2 -7 -3 -7 -10 0 -5 0 -6
2 -6 0 0 1 0 1 1 0 2 8 10 15 15 8 6 23 13 26 13 3 0 1 -2 -2 -3 -2 0 -4 -1
-5 -1 -1 -1 -4 -3 -8 -5 -9 -5 -14 -10 -24 -21 -8 -9 -17 -23 -16 -25 1 0 6 4
16 13 l4 5 10 0 c5 0 12 1 15 3 8 2 16 10 21 20 2 4 5 9 7 10 2 2 3 4 3 5 0 0
-2 2 -4 3 -9 5 -28 7 -35 5z" fill="white"/>
<path d="M59 171 c-13 -2 -28 -4 -35 -5 l-8 0 -4 -7 c-3 -6 -4 -8 -8 -10 l-4
-2 0 -19 c0 -10 0 -18 1 -18 0 1 12 3 27 5 31 6 48 9 48 9 0 1 -3 2 -7 5 -11
6 -11 8 -6 23 2 5 4 11 4 14 1 7 1 7 -8 5z" fill="white"/>
<path d="M469 169 c-4 -5 -3 -7 3 -9 7 -2 11 -5 14 -8 3 -5 9 -16 9 -18 0 -2
1 -4 2 -5 2 -2 9 -14 9 -17 0 0 1 -1 1 -2 2 0 1 21 -1 27 -1 5 -6 10 -8 10 -1
0 -3 1 -4 3 -1 1 -5 4 -7 6 -8 4 -9 6 -12 11 -2 3 -3 5 -3 5 -1 0 -2 -1 -3 -3z" fill="white"/>
<path d="M4 162 l-4 -1 0 -5 c0 -3 0 -5 1 -5 2 0 9 9 9 11 0 1 0 1 -6 0z" fill="white"/>
<path d="M597 158 c-2 -2 -3 -4 -3 -5 0 -1 5 -3 6 -3 0 1 0 3 0 7 l0 6 -3 -5z" fill="white"/>
<path d="M230 157 c-5 0 -10 -1 -12 -2 -2 0 -3 -1 -3 -2 0 -1 -1 -1 14 1 6 1
13 2 15 3 2 0 4 1 4 1 0 1 -8 1 -18 -1z" fill="white"/>
<path d="M452 156 c-2 -1 -7 -3 -9 -5 -6 -5 -14 -14 -16 -18 -1 -2 -2 -4 -2
-4 0 -1 3 -1 8 0 7 0 8 0 18 -3 21 -8 29 -9 39 -2 3 2 6 -2 9 -9 3 -7 7 -20 7
-24 0 -2 0 -3 1 -3 2 -1 1 8 -1 15 -2 10 -6 18 -14 25 -9 10 -19 14 -33 14 -7
0 -7 1 -1 2 8 2 24 -3 30 -8 3 -2 2 1 -2 8 -3 6 -8 11 -14 13 -5 1 -14 1 -20
-1z" fill="white"/>
<path d="M251 156 c-2 -2 -25 -6 -34 -7 -4 -1 -6 -6 -5 -15 l0 -7 6 -3 c6 -2
67 -30 87 -39 6 -3 20 -9 31 -15 11 -5 23 -11 28 -13 5 -2 11 -4 12 -5 3 0 9
1 21 4 25 6 56 14 57 14 0 1 0 4 -1 7 0 7 -1 7 -8 3 -6 -3 -7 -2 -7 6 l0 7 -4
2 c-3 1 -7 2 -9 3 -3 1 -5 2 -5 2 -1 0 -7 3 -14 5 -7 3 -14 5 -15 6 -1 0 -3 1
-4 1 -3 1 -3 1 -3 -1 1 -3 -2 -5 -21 -8 -10 -2 -24 -5 -30 -7 -14 -3 -20 -4
-28 -1 -10 4 -11 10 0 13 l3 2 1 13 c0 13 0 13 -2 14 -1 0 -12 4 -23 8 -11 4
-23 9 -26 10 -3 1 -5 2 -5 2 0 0 -1 -1 -2 -1z" fill="white"/>
<path d="M517 147 c-1 -3 -1 -5 -1 -10 l0 -7 2 4 c2 7 4 16 2 16 0 1 -2 -1 -3
-3z" fill="white"/>
<path d="M529 146 c-2 -2 -4 -6 -5 -7 -3 -3 -7 -18 -7 -27 0 -8 1 -7 4 2 0 3
2 7 3 8 1 2 3 5 3 7 1 1 3 4 4 4 1 2 1 4 1 10 l0 8 -3 -5z" fill="white"/>
<path d="M590 147 c0 -2 -3 -5 -5 -7 -1 -2 -3 -3 -3 -4 0 0 2 -1 4 -2 3 -1 6
-2 9 -3 2 0 4 -1 5 -1 0 0 0 4 0 8 l0 9 -3 1 c-2 1 -4 2 -4 2 -1 0 -2 -1 -3
-3z" fill="white"/>
<path d="M573 132 c-6 -3 -7 -4 -4 -5 5 -2 12 -9 15 -15 2 -5 2 -7 2 -15 0
-11 -1 -23 -2 -24 -1 0 -2 1 -4 2 -3 3 -12 6 -14 6 -1 -1 -2 -6 -3 -15 -2 -21
-5 -38 -9 -47 -5 -11 -20 -16 -43 -16 -22 0 -39 5 -45 13 -3 4 -6 15 -9 29 -1
10 -2 11 -3 11 -4 -1 -29 -8 -40 -11 -11 -3 -13 -4 -11 -5 7 -3 16 -8 16 -9 0
-3 -3 -4 -22 -9 -17 -5 -44 -12 -62 -18 -8 -2 -14 -3 -14 -4 0 0 63 0 139 0
l140 0 0 8 0 9 -20 7 c-10 5 -19 9 -20 9 -1 3 5 1 21 -5 l19 -8 0 54 0 53 -3
1 c-4 1 -16 5 -17 5 -1 1 -1 1 -7 -1z" fill="white"/>
<path d="M553 127 c-5 -1 -9 -2 -10 -4 -1 -3 0 -4 4 -4 6 0 17 -8 23 -17 4 -6
2 -5 -5 2 -7 8 -13 12 -22 13 -9 1 -10 1 -10 -6 0 -13 11 -22 31 -26 5 -1 11
-3 13 -4 l4 -2 1 4 c0 2 1 8 1 13 0 8 -1 10 -3 15 -6 11 -17 18 -27 16z" fill="white"/>
<path d="M211 121 c-1 -1 -1 -3 0 -3 0 0 7 -4 15 -7 8 -4 19 -9 24 -11 22 -11
28 -13 36 -17 10 -5 15 -7 40 -19 11 -5 26 -12 33 -16 7 -4 15 -7 17 -7 3 -1
14 1 27 4 3 1 7 2 9 3 2 0 11 3 21 5 9 3 18 5 19 5 2 0 3 1 3 4 0 2 0 4 -1 4
0 1 -6 0 -24 -5 -30 -8 -50 -12 -53 -12 -3 1 -10 4 -17 7 -7 3 -13 6 -13 6 -1
0 -6 2 -12 5 -6 3 -25 12 -41 19 -17 8 -37 17 -44 21 -8 3 -14 6 -15 6 0 0 -5
2 -10 5 -6 3 -12 5 -12 5 -1 0 -1 -1 -2 -2z" fill="white"/>
<path d="M71 120 c-5 -1 -14 -3 -20 -4 -12 -2 -35 -6 -46 -8 l-5 -1 0 -54 0
-53 131 0 131 0 15 4 c8 2 16 4 18 5 1 1 7 2 14 4 31 8 60 16 71 19 7 2 13 4
14 4 0 0 2 0 4 1 2 1 2 1 1 2 -1 2 -3 2 -9 0 -13 -3 -16 -3 -39 9 -11 6 -20
10 -20 10 -1 0 -15 7 -56 26 -5 2 -17 8 -28 13 -11 5 -23 11 -28 14 -5 2 -9 4
-9 4 -1 0 -1 -4 -2 -9 -2 -15 -4 -16 -16 -18 -5 0 -6 -1 -6 -2 0 -2 4 -22 5
-27 1 -2 1 -8 1 -12 0 -8 0 -9 -3 -12 -3 -3 -16 -9 -24 -11 -3 -1 -5 -1 -8 0
-5 2 -7 1 -12 -4 -4 -4 -6 -5 -15 -8 -5 -2 -11 -3 -14 -3 -2 -1 -6 -1 -10 -2
-13 -2 -33 0 -44 5 -7 4 -10 8 -11 14 l0 6 -10 0 c-15 1 -26 5 -31 12 -4 6 -2
18 4 28 3 3 9 7 16 9 2 0 6 3 9 5 3 3 6 5 7 5 3 0 10 7 11 11 1 4 4 7 7 7 1 0
2 0 2 1 0 0 1 2 3 4 2 3 3 3 7 3 4 -1 6 1 6 4 0 1 0 1 -11 -1z" fill="white"/>
<path d="M489 120 c-3 -2 -4 -3 -2 -3 1 0 3 -1 5 -2 3 -1 5 -2 5 -2 0 1 -4 9
-5 9 0 0 -2 -1 -3 -2z" fill="white"/>
<path d="M85 117 c-1 -2 -1 -3 3 -6 3 -3 4 -4 4 -7 0 -4 0 -4 5 -6 7 -3 8 -2
9 2 0 2 1 4 1 5 1 1 3 -1 3 -4 0 -3 2 -3 4 1 1 2 1 2 0 3 -4 1 -8 5 -11 11 0
0 -14 4 -16 4 0 0 -1 -1 -2 -3z" fill="white"/>
<path d="M449 116 c-5 -6 -6 -9 -7 -21 0 -6 0 -11 1 -11 0 0 3 1 6 2 3 1 8 2
10 2 6 0 15 3 20 7 2 1 5 5 7 7 2 3 4 6 5 7 3 2 2 4 -4 5 -7 1 -17 -2 -26 -10
-3 -2 -6 -4 -6 -3 -1 1 8 9 13 11 2 1 4 2 3 3 -1 1 -9 3 -15 4 -3 0 -4 0 -7
-3z" fill="white"/>
<path d="M374 114 c-2 -2 -4 -3 -31 -9 -19 -4 -26 -4 -31 -1 -3 1 -4 2 -7 1
-6 -2 -5 -4 4 -7 l7 -2 9 2 c8 2 34 7 51 11 6 1 6 2 3 4 -3 2 -3 2 -5 1z" fill="white"/>
<path d="M72 112 c-1 -1 -3 -3 -3 -5 -1 -1 -2 -2 -4 -2 -3 0 -5 -2 -5 -3 0 -1
3 -2 6 -2 4 0 8 0 10 -1 3 -2 3 -2 7 0 7 3 6 7 -1 11 -6 4 -8 4 -10 2z" fill="white"/>
<path d="M526 110 c-4 -5 -7 -11 -9 -17 -3 -11 -2 -11 3 1 2 5 4 10 7 12 2 2
3 4 2 5 0 1 -1 1 -3 -1z" fill="white"/>
<path d="M492 105 c0 -1 1 -3 3 -5 4 -5 6 -9 7 -13 1 -3 3 -4 3 -2 0 2 -3 10
-5 14 -4 7 -6 9 -8 6z" fill="white"/>
<path d="M119 101 c-1 -2 0 -2 3 -2 3 0 3 0 2 2 -3 1 -5 1 -5 0z" fill="white"/>
<path d="M525 99 c-2 -3 -6 -13 -6 -14 0 -2 3 0 3 3 1 1 2 5 4 7 1 3 2 6 2 6
0 2 -2 1 -3 -2z" fill="white"/>
<path d="M486 96 c-1 -1 -4 -4 -6 -5 -2 -2 -4 -3 -3 -3 0 -1 12 -3 19 -3 3 -1
3 -1 3 2 -1 3 -8 13 -9 13 0 0 -2 -2 -4 -4z" fill="white"/>
<path d="M530 98 c0 -1 -2 -5 -3 -7 -1 -3 -2 -6 -1 -6 0 -1 16 1 17 2 0 1 -2
3 -4 5 -3 2 -5 5 -6 6 0 3 -2 3 -3 0z" fill="white"/>
<path d="M62 97 c-1 0 -2 0 -2 -1 0 -1 11 -6 12 -5 0 0 0 1 -1 2 -1 2 -1 2 2
0 l3 -3 -3 -3 c-3 -2 -4 -3 -4 0 1 1 -1 2 -6 5 -5 2 -6 3 -8 1 -3 -2 -2 -2 3
-5 3 -1 6 -3 6 -4 2 -2 2 -2 0 -4 -3 -1 -4 -1 -10 3 -6 4 -10 5 -11 2 -1 -2
-1 -2 0 -2 3 0 10 -4 11 -6 1 -2 1 -3 -1 -5 -2 -2 -3 -4 -3 -4 0 -1 2 -4 4 -7
1 -3 3 -6 3 -7 0 -2 2 -2 7 0 3 2 7 4 10 5 4 1 7 3 9 6 2 2 5 4 7 5 5 2 13 10
13 13 1 4 6 8 8 8 1 0 2 1 2 2 0 2 0 2 -4 0 -4 -1 -9 -1 -15 3 -5 3 -6 3 -11
0 l-3 -2 -5 2 c-3 2 -4 2 -6 1 -1 -1 -2 -1 -3 0 0 1 0 1 -1 1 0 0 -2 0 -3 -1z
m19 -8 c0 -1 -1 -1 -2 0 0 1 0 1 1 1 1 0 1 -1 1 -1z m7 -1 c0 -2 -5 -5 -6 -4
0 0 1 1 3 3 3 2 3 2 3 1z m-16 -11 c0 -1 -10 -7 -11 -7 -2 0 0 2 4 5 6 3 7 3
7 2z" fill="white"/>
<path d="M137 93 c2 -3 4 -6 4 -7 0 -2 1 -3 5 -5 6 -4 9 -4 15 -3 5 0 10 4 10
8 0 2 0 2 -4 2 -5 0 -22 4 -27 6 -1 1 -4 2 -5 3 -2 0 -2 0 2 -4z" fill="white"/>
<path d="M119 95 c0 0 -2 -3 -3 -5 -2 -5 -2 -5 -4 -4 -2 1 -5 0 -5 -3 0 -1 4
-2 6 -1 2 1 9 -1 11 -3 2 -2 4 -1 7 2 2 1 4 2 5 2 2 0 2 2 1 4 -3 5 -15 10
-18 8z" fill="white"/>
<path d="M52 88 c0 -1 8 -6 9 -6 2 0 1 2 -3 4 -4 2 -6 3 -6 2z" fill="white"/>
<path d="M176 85 c0 -3 -5 -8 -10 -10 -7 -2 -13 -2 -21 2 l-7 3 -5 -2 -4 -3
-4 2 c-7 3 -8 2 -2 -3 3 -3 4 -5 3 -5 -1 0 -3 -1 -4 -1 -1 -1 -3 0 -10 3 -8 5
-9 5 -11 3 -1 -1 -1 -1 0 -2 6 -4 6 -4 2 -3 -3 0 -5 0 -5 0 -1 0 -1 0 -2 -1 0
0 3 -2 6 -4 l6 -4 3 2 c3 3 7 2 5 0 -1 -1 -2 -2 -3 -3 -2 0 -3 -1 -4 -2 -1 -1
-1 -1 -3 1 -2 2 -14 9 -15 9 0 0 -1 -1 -2 -2 -2 -2 -2 -2 0 -2 3 -1 14 -9 14
-10 0 -1 -1 -2 -2 -3 -3 -3 -2 -6 2 -11 2 -2 3 -6 4 -7 0 -2 1 -3 2 -4 3 -1
20 5 31 10 8 5 17 8 24 10 8 1 17 5 19 7 2 2 2 4 2 10 0 10 -1 12 -4 8 -2 -3
-5 -4 -5 -2 0 0 2 2 4 4 3 4 3 5 2 7 0 5 -1 5 -4 5 -1 0 -2 -1 -2 -2z m-37
-14 c0 -1 -6 -6 -7 -6 0 1 1 2 3 4 2 3 4 4 4 2z m36 -4 c0 -1 -4 -7 -5 -7 -1
0 0 3 2 6 1 2 3 3 3 1z m-65 -1 c1 0 1 -1 1 -1 0 -1 -2 0 -3 0 -2 2 0 3 2 1z
m19 -4 c0 -1 -5 -5 -5 -4 -1 0 0 1 1 3 2 2 4 3 4 1z m-10 -9 c-1 -1 -3 -2 -4
-2 0 0 -1 -1 -2 -1 -1 -2 -3 -2 -3 -1 0 1 8 6 9 6 1 0 0 -1 0 -2z" fill="white"/>
<path d="M466 85 c-1 -1 -3 -1 -5 -1 -4 1 -4 0 -3 -17 3 -26 7 -44 12 -49 6
-8 22 -12 46 -11 13 1 15 1 21 3 7 3 11 6 13 11 4 7 9 32 10 51 l0 10 -6 1
c-6 2 -7 2 -11 1 -3 -1 -12 -3 -20 -3 -17 -2 -34 0 -45 3 -7 2 -8 2 -12 1z" fill="white"/>
<path d="M39 80 c0 0 2 -2 5 -4 4 -2 6 -3 7 -2 1 2 0 3 -4 6 -3 1 -8 1 -8 0z" fill="white"/>
<path d="M107 78 c-1 -1 11 -8 13 -8 3 0 2 2 -3 5 -4 4 -9 5 -10 3z" fill="white"/>
<path d="M28 76 c-10 -3 -15 -9 -12 -15 2 -4 13 -8 27 -9 7 -1 11 0 11 2 0 1
-2 4 -4 6 -2 4 -3 6 -2 8 0 3 0 4 -6 7 -7 3 -7 3 -14 1z" fill="white"/>
<path d="M11 56 c-1 -8 4 -14 17 -18 6 -2 12 -2 19 -2 4 0 4 0 7 6 2 3 3 6 3
7 0 0 -4 0 -9 0 -14 0 -25 3 -32 9 l-4 3 -1 -5z" fill="white"/>
<path d="M83 59 c-1 -1 -1 -2 1 -2 1 -1 2 -1 2 -2 0 -1 -5 -1 -7 0 -1 2 -13
-3 -17 -7 -4 -4 -5 -7 -2 -11 1 -3 11 -7 19 -9 6 -1 25 -1 25 0 1 1 -1 5 -4
10 -5 5 -5 8 -2 12 l2 3 -3 2 c-6 5 -12 6 -14 4z" fill="white"/>
<path d="M186 55 c-1 -3 -9 -7 -21 -10 -7 -2 -15 -5 -23 -9 -19 -9 -38 -13
-55 -12 -12 1 -24 6 -29 11 -2 3 -3 1 -3 -6 0 -5 0 -6 3 -8 7 -7 24 -12 41
-11 7 1 11 1 12 2 1 2 3 2 7 1 3 0 5 0 8 2 3 1 5 2 6 2 3 0 7 2 10 6 6 6 13 9
16 6 2 -3 5 -2 10 0 2 1 6 3 9 4 10 2 11 4 11 14 0 8 -1 11 -2 8z" fill="white"/>
<path d="M396 34 c-3 0 -9 -2 -13 -3 -5 -2 -14 -4 -19 -6 -6 -1 -15 -4 -20 -5
-6 -2 -16 -5 -23 -7 -7 -1 -19 -5 -27 -7 -9 -2 -17 -5 -18 -5 -2 -1 4 -1 15
-1 17 0 18 0 28 3 10 3 21 6 36 10 4 1 9 3 11 3 3 1 33 9 42 12 7 2 7 2 5 4
-5 4 -11 5 -17 2z" fill="white"/>
</g>
</svg>
