<?xml version="1.0" encoding="UTF-8"?>
<svg width="600" height="800" viewBox="0 0 600 800" fill="none" xmlns="http://www.w3.org/2000/svg">
<g transform="translate(0,800) scale(1,-1)">
<path d="M419 795 c-7 -9 -8 -13 -9 -24 0 -7 0 -9 2 -14 3 -6 7 -10 14 -13 l4
-2 -6 -4 c-13 -9 -23 -28 -22 -43 1 -7 4 -15 8 -18 3 -3 3 -4 -2 -6 -7 -3 -18
-15 -21 -22 -4 -10 -3 -22 0 -30 8 -18 29 -27 49 -21 4 0 6 1 7 1 0 0 0 -2 -1
-5 -1 -11 5 -20 17 -26 10 -5 24 -5 35 1 4 3 5 3 5 -2 0 -2 1 -6 1 -8 3 -5 10
-12 17 -16 6 -2 8 -2 15 -2 10 0 17 2 25 9 3 3 5 5 5 5 1 0 7 -15 10 -24 5
-19 7 -42 7 -71 l0 -13 -8 0 c-6 0 -9 0 -13 -2 -10 -5 -19 -15 -20 -24 l-1 -3
-8 -1 c-7 0 -9 0 -14 -2 -8 -4 -15 -12 -17 -19 -1 -2 -2 -7 -2 -10 0 -5 0 -5
-2 -5 -3 0 -10 -5 -12 -8 -2 -2 -2 -3 -1 -4 1 -1 2 0 5 3 5 4 9 6 13 6 3 0 3
0 3 2 -3 9 -2 15 3 22 7 9 19 14 28 11 10 -3 9 -3 9 3 0 8 3 14 9 19 7 6 17
10 24 8 l4 -1 -1 -5 c0 -3 0 -15 0 -27 l0 -20 -5 -3 c-8 -5 -15 -14 -15 -21 0
-2 0 -2 -2 -1 -1 0 -6 0 -11 0 -7 0 -9 0 -13 -2 -5 -2 -9 -8 -11 -12 l-1 -4
-9 -1 c-11 -1 -19 -4 -25 -11 -7 -7 -8 -9 -9 -27 l0 -15 -36 1 c-20 0 -37 0
-38 0 0 1 -1 7 0 22 l0 22 -3 3 c-2 2 -4 4 -4 4 0 0 3 1 7 1 l6 2 4 -5 c11
-11 27 -15 38 -9 3 1 7 2 9 2 6 0 9 1 12 4 4 4 2 14 -4 20 -2 3 -2 5 0 5 3 0
8 6 10 11 2 6 1 26 -2 38 -5 15 -11 26 -20 35 l-7 7 2 5 c4 8 5 15 5 28 -1 17
-6 31 -13 42 -3 4 -3 5 -2 7 1 2 1 7 1 11 0 15 -4 23 -12 23 -6 0 -17 -4 -26
-9 l-7 -5 -6 2 c-3 1 -9 2 -14 3 -11 2 -40 1 -50 -1 l-7 -2 -4 3 c-6 5 -14 9
-20 10 -5 1 -6 1 -9 -1 -7 -3 -11 -17 -9 -29 1 -6 1 -7 -4 -13 -9 -14 -13 -26
-14 -41 -1 -16 3 -30 10 -38 2 -2 3 -4 3 -5 -1 -1 -2 -5 -4 -9 -2 -6 -2 -9 -2
-18 -1 -16 2 -21 14 -37 2 -3 5 -7 7 -10 4 -6 13 -14 19 -17 4 -2 5 -2 3 -5
-2 -2 -2 -6 0 -8 1 -2 1 -4 1 -15 -1 -7 -1 -17 -1 -22 l0 -9 -31 0 c-17 0 -31
1 -31 1 -1 0 -1 7 -1 15 0 16 -1 22 -6 27 -5 4 -10 7 -19 8 -19 3 -38 -4 -41
-15 0 -2 -1 -10 -2 -19 l0 -15 -19 0 c-10 0 -26 1 -34 1 l-16 1 0 14 c-1 11
-1 15 -3 19 -3 6 -8 11 -16 14 -5 2 -7 2 -15 2 l-9 -1 -1 4 c-3 5 -7 7 -15 8
-6 0 -8 0 -14 -3 -3 -2 -6 -3 -6 -3 -1 0 -2 11 -3 23 -1 16 -1 23 -1 23 2 1 7
0 10 -2 l3 -2 4 5 c6 7 13 10 23 10 15 0 26 -9 27 -24 0 -7 1 -7 6 -5 9 5 22
1 27 -8 1 -2 1 -5 1 -9 0 -5 0 -5 2 -5 9 1 11 1 15 -1 3 -3 3 -3 3 -7 0 -5 1
-9 3 -9 1 0 1 3 2 7 0 6 0 7 3 11 6 9 18 13 29 8 3 -2 5 -2 5 -1 1 1 1 2 0 3
0 2 3 8 6 11 1 2 5 4 7 6 4 2 5 3 15 3 9 0 10 -1 14 -3 11 -6 16 -17 14 -27 0
-3 0 -6 0 -6 0 -1 3 0 5 1 5 2 13 3 18 1 4 -2 10 -8 11 -12 0 -1 0 -4 0 -6 -1
-4 0 -5 6 -3 5 2 8 1 13 -3 3 -4 5 -3 4 0 -1 4 -7 7 -13 7 -5 0 -5 0 -6 6 -1
6 -9 13 -16 15 -5 1 -12 1 -15 0 -1 -1 -2 0 -2 5 -1 9 -4 15 -10 20 -15 15
-44 11 -53 -8 -2 -5 -2 -5 -5 -4 -1 1 -5 1 -8 1 -9 0 -17 -4 -22 -10 -2 -3 -3
-5 -4 -5 0 0 -1 1 -3 2 -1 1 -5 2 -8 3 -5 0 -5 1 -6 4 0 5 -1 7 -5 11 -6 7
-15 10 -23 8 -5 -2 -6 -2 -6 1 0 8 -8 19 -16 23 -9 4 -23 4 -31 0 -2 -1 -6 -4
-9 -6 -2 -3 -4 -4 -5 -3 -1 0 -4 1 -6 1 l-4 1 -1 7 c0 8 1 26 2 27 1 0 2 -1 4
-2 6 -4 18 -6 26 -4 7 2 14 7 18 13 2 3 3 6 3 7 0 5 1 5 7 3 4 -2 6 -2 14 -2
8 0 9 0 15 3 7 4 11 8 14 16 4 9 2 21 -4 29 -2 2 -3 4 -3 4 0 1 2 2 5 3 14 7
23 23 20 38 -2 13 -10 24 -22 30 -3 1 -6 2 -6 3 0 0 2 2 5 4 6 6 8 11 9 20 1
15 -7 26 -24 31 -3 1 -8 2 -10 2 -5 0 -5 1 -3 4 1 2 1 6 1 11 0 10 -4 19 -14
26 -7 5 -17 8 -25 8 l-6 -1 0 8 c-1 19 -15 32 -36 33 -10 0 -16 -1 -16 -4 0
-2 0 -2 3 -1 2 0 8 1 13 1 7 0 9 -1 14 -3 13 -7 20 -21 17 -34 -1 -3 -1 -5 -1
-6 0 0 4 1 7 2 6 1 8 1 13 0 21 -4 33 -24 24 -41 -1 -3 -2 -6 -2 -6 0 -1 3 -1
9 -1 8 0 10 -1 15 -3 6 -3 12 -8 15 -13 2 -5 2 -17 -1 -23 -2 -5 -7 -10 -12
-12 -5 -3 -5 -4 1 -6 10 -3 19 -9 24 -18 7 -14 5 -29 -6 -39 -5 -5 -12 -9 -15
-9 -4 0 -3 -3 0 -7 7 -7 10 -18 8 -27 -5 -18 -27 -24 -44 -13 -6 3 -7 2 -7 -4
0 -8 -5 -16 -14 -20 -7 -4 -18 -3 -25 0 -3 2 -6 4 -6 4 -1 3 6 19 15 35 11 19
17 31 22 42 2 7 2 7 5 6 7 -1 17 5 17 11 0 3 -3 3 -5 -1 -2 -4 -5 -6 -11 -5
-5 0 -8 2 -8 6 -1 4 -2 4 -6 0 -5 -6 -16 -7 -21 -2 -1 1 -3 1 -4 1 -4 -2 4 -8
11 -8 5 0 5 -1 1 -7 -5 -9 -17 -12 -23 -7 -1 2 -3 4 -3 5 -1 4 -4 4 -5 0 -2
-3 -7 -7 -12 -9 -3 -1 -4 -4 -2 -5 1 0 1 -3 0 -11 -1 -13 -1 -28 0 -24 2 4 5
25 5 31 0 4 0 5 3 7 1 1 3 3 5 4 3 2 3 2 5 0 2 -1 2 -2 2 -16 0 -11 0 -15 1
-16 1 0 10 8 14 14 3 3 5 9 7 12 1 4 4 9 5 11 2 2 4 6 5 8 1 3 2 5 5 6 4 2 4
2 5 0 1 -1 2 -2 2 -3 0 -3 -13 -30 -23 -46 -18 -31 -20 -38 -19 -73 0 -19 0
-29 2 -42 1 -10 2 -19 3 -19 0 -1 2 0 4 1 5 5 11 7 18 7 6 0 6 0 10 -3 1 -2 3
-4 3 -5 0 -1 -2 -3 -5 -4 -10 -5 -13 -12 -14 -33 l0 -12 -5 -1 c-5 -1 -5 0 -7
2 -2 4 -5 5 -10 5 -4 -1 -4 -1 -5 2 -3 8 -7 11 -13 11 -3 0 -4 0 -4 -2 0 -2 1
-2 3 -2 2 0 4 -1 6 -1 2 -2 5 -8 5 -12 0 -5 1 -5 5 -2 2 3 6 3 9 0 3 -2 3 -3
-1 -8 -2 -4 -2 -7 -3 -14 0 -5 0 -10 1 -13 1 -5 7 -10 13 -11 l5 -2 1 -31 0
-31 -6 0 c-3 0 -7 -1 -8 -2 -6 -4 -9 -17 -7 -27 2 -10 7 -14 19 -16 l3 -1 0
-12 c0 -7 0 -11 -1 -11 -1 0 -3 1 -4 2 -3 1 -6 1 -11 1 -7 0 -9 0 -14 -2 -6
-4 -12 -10 -13 -16 -2 -9 -2 -10 0 -12 2 -3 3 -2 4 5 0 11 4 17 14 21 8 2 17
1 24 -4 4 -3 9 -12 9 -17 0 -5 2 -6 5 -2 6 6 14 6 20 -1 2 -2 4 -3 5 -3 0 1 1
3 2 6 1 10 10 16 23 17 6 0 7 0 12 -3 10 -5 15 -17 11 -26 -3 -6 -1 -7 4 -4 4
3 12 3 17 1 6 -4 10 -12 8 -17 -2 -6 1 -7 5 -2 6 6 19 8 28 4 10 -5 13 -16 7
-27 -3 -6 -2 -7 3 -6 5 1 12 -1 14 -4 2 -3 2 -4 1 -9 -1 -1 -1 -3 -1 -4 1 0 3
0 6 1 12 4 24 -3 23 -15 0 -4 0 -4 2 -4 2 0 2 0 2 5 0 6 -3 12 -9 16 -4 3 -7
4 -14 3 -4 0 -4 0 -4 3 0 6 -7 12 -15 12 -3 0 -3 0 -3 2 1 1 1 4 2 7 0 5 3 6
9 6 2 -1 5 -2 8 -5 5 -3 6 -3 6 1 -1 4 1 12 5 16 5 7 14 8 18 3 4 -3 4 -6 2
-16 0 -4 0 -5 1 -5 1 0 3 2 5 3 3 4 9 6 14 6 2 0 3 -1 3 -3 0 -2 -1 -4 -4 -7
-3 -4 -4 -5 -3 -6 2 -3 11 7 11 13 0 7 -8 9 -16 5 -3 -1 -5 -2 -5 -2 -1 0 -1
2 -1 5 0 8 -4 13 -12 14 -4 0 -4 1 -4 4 0 2 0 15 0 29 l0 26 14 -1 c8 0 23 -1
33 -1 l19 0 0 -10 c0 -18 -2 -76 -2 -77 -1 0 -3 0 -5 1 -3 1 -4 1 -6 0 -5 -4
-4 -10 2 -16 5 -5 7 -3 3 3 -4 4 -5 8 -3 9 3 3 11 -3 17 -12 2 -3 3 -5 4 -5 0
0 2 1 3 2 3 4 6 3 10 -3 2 -3 4 -2 3 2 -2 6 -9 9 -14 6 -2 -1 -2 -1 -3 0 0 0
-2 3 -3 5 l-4 5 1 36 c0 19 1 85 1 146 1 62 1 112 2 112 0 2 5 2 8 0 3 -1 6
-1 10 0 2 2 6 2 18 1 18 0 23 -1 26 -2 l3 -1 0 -11 c0 -6 0 -68 -1 -138 l-1
-127 -5 -4 c-5 -5 -7 -11 -7 -15 0 -2 0 -2 -4 -3 -5 0 -6 0 -9 -3 -2 -3 -3 -4
-5 -4 l-3 1 0 20 c-1 20 -1 24 -3 24 -1 -1 -1 -8 -1 -24 0 -13 0 -24 1 -24 0
-1 2 -1 3 0 3 0 4 0 6 -2 3 -2 5 -1 4 3 0 2 1 3 2 4 3 3 6 2 10 -1 3 -2 7 -2
5 1 0 1 -1 3 -1 6 -1 3 -1 4 1 9 3 5 7 8 14 8 7 0 10 -1 13 -7 3 -3 3 -5 4
-10 0 -9 0 -10 5 -6 5 5 10 6 15 3 4 -2 4 -4 3 -10 -1 -1 -1 -2 0 -2 3 0 5 4
5 8 0 8 -15 13 -22 7 -1 -1 -1 -2 -3 6 -1 3 -3 7 -5 10 l-4 4 1 35 c1 19 1 35
1 35 1 1 3 1 6 1 3 0 20 -1 38 -1 l32 -1 0 -9 c0 -5 0 -24 -1 -43 l0 -33 -4 1
c-11 1 -11 -10 0 -25 2 -3 3 -5 3 -6 0 0 -4 1 -7 3 -13 5 -25 3 -25 -4 0 -5 9
-11 16 -11 l4 1 -6 2 c-6 3 -10 6 -10 8 0 6 19 2 30 -6 3 -2 5 -3 7 -1 0 1 -3
6 -7 12 -9 15 -9 15 -9 19 0 4 0 4 3 4 4 0 10 -3 14 -8 4 -6 9 -13 10 -17 1
-4 3 -6 5 -5 0 0 1 3 1 6 2 7 6 13 12 16 5 4 9 4 10 1 2 -3 0 -7 -6 -16 -5 -7
-5 -11 0 -7 9 7 18 11 23 9 4 -2 2 -7 -3 -11 -4 -2 -5 -5 -2 -5 3 0 11 8 12
11 0 4 -2 8 -7 9 -3 1 -5 1 -10 -1 -3 -1 -6 -2 -6 -2 0 1 1 3 2 5 6 14 -8 19
-20 7 -1 -2 -4 -5 -4 -7 -1 -2 -2 -3 -3 -3 0 0 0 9 0 20 1 19 1 23 -2 20 0 -1
-1 -10 -1 -20 l0 -18 -4 5 c-2 3 -6 7 -8 9 l-4 4 0 20 c2 40 3 152 3 205 0 33
0 56 1 58 1 5 8 11 16 15 5 2 6 3 18 3 11 0 12 -1 16 -3 7 -5 10 -9 11 -18 2
-12 -1 -141 -2 -143 -1 0 -3 1 -5 3 -5 5 -12 7 -15 7 -2 -1 -4 -2 -5 -5 -1 -3
-1 -4 0 -10 3 -10 9 -22 16 -31 7 -8 7 -8 7 -14 0 -3 0 -6 0 -6 0 0 -3 1 -6 3
-10 5 -16 4 -18 -3 -1 -6 9 -25 18 -34 5 -4 5 -5 5 -9 0 -3 0 -5 -1 -5 0 -1
-2 0 -5 2 -5 4 -14 7 -18 7 -2 0 -6 -2 -7 -3 -3 -4 1 -13 10 -25 10 -13 25
-25 39 -29 8 -3 13 -9 15 -20 0 -6 0 -6 4 -6 2 0 3 1 6 5 4 7 10 14 15 17 2 2
3 3 3 5 0 2 0 2 -6 -2 -7 -4 -11 -9 -15 -17 -2 -5 -2 -5 -3 -3 -1 4 -1 16 0
20 2 5 3 6 12 11 10 6 12 8 12 12 l0 2 -3 -2 c-3 -3 -14 -11 -14 -11 -1 0 -1
0 -1 1 0 1 16 28 17 29 1 0 1 1 1 3 0 2 0 3 -1 2 -2 -1 -11 -15 -15 -23 l-4
-8 -1 4 c0 3 1 8 3 14 4 11 7 17 13 24 4 3 5 6 5 7 0 2 -1 2 -4 -1 -7 -6 -15
-18 -18 -28 -1 -4 -3 -19 -3 -25 0 -2 0 -2 -1 -1 0 1 -1 9 -1 18 -1 25 1 32
10 40 2 2 7 6 11 9 5 5 6 7 6 9 0 3 -1 3 -9 -6 -8 -8 -10 -10 -10 -8 0 0 4 10
9 21 7 13 10 21 10 23 0 3 0 3 -1 2 -2 -4 -16 -33 -19 -39 -1 -3 -2 -5 -2 -5
-1 1 1 17 3 25 3 9 9 21 15 28 3 4 4 7 4 9 0 2 -1 2 -6 -5 -8 -9 -16 -25 -18
-35 0 -4 -1 -13 -2 -19 0 -13 -1 -16 -2 -16 -1 0 -2 18 -2 36 l0 15 6 7 c11
13 15 25 16 43 1 17 -3 33 -8 34 -4 2 -8 -2 -13 -12 -7 -13 -9 -21 -8 -38 0
-12 0 -17 1 -21 3 -7 4 -24 2 -27 -1 -2 -1 -2 -3 11 -2 13 -7 27 -14 35 l-3 4
1 19 c0 10 1 25 1 33 l1 14 10 -1 c5 0 17 0 25 -1 16 0 16 0 16 2 0 2 -5 3
-30 3 -12 0 -21 0 -21 1 0 0 0 6 0 14 l0 13 16 0 c13 0 16 0 16 1 0 2 -3 2
-16 2 l-15 1 -1 7 0 7 25 0 26 -1 0 3 0 2 -25 0 -25 1 -1 17 c-1 19 -1 21 -7
27 -3 4 -10 7 -15 8 -4 1 -4 4 1 9 4 6 10 8 18 8 4 0 7 -1 10 -3 2 -1 5 -2 5
-2 1 0 1 2 1 5 0 7 1 10 6 16 6 6 13 9 21 9 4 0 8 0 9 -1 2 -1 2 -1 2 1 0 4
-2 4 -11 4 l-8 0 0 3 c1 2 1 22 2 44 0 44 0 60 -4 80 -5 26 -11 39 -29 62 -14
18 -22 30 -21 30 0 1 2 1 4 1 2 1 4 2 5 3 2 2 3 1 7 -4 4 -6 37 -40 39 -40 0
0 0 1 0 2 0 1 0 5 -1 8 -3 39 -5 52 -10 72 -3 12 -3 13 1 13 1 0 3 1 5 2 l3 2
3 -4 c2 -5 5 -16 12 -56 l3 -16 0 12 c0 10 -1 15 -3 30 -2 9 -4 18 -5 19 0 3
0 3 1 3 5 -2 7 -2 7 0 0 1 -1 2 -3 3 -5 1 -10 7 -11 12 -1 2 -1 4 -2 4 0 0 -2
-2 -4 -3 -10 -9 -26 -5 -32 7 -3 5 -5 6 -6 3 -2 -4 9 -15 18 -18 6 -2 6 -1 11
-22 4 -18 9 -60 7 -62 0 -1 -24 24 -30 31 -4 6 -4 7 -4 10 1 5 -1 8 -3 6 0 -1
-1 -2 -1 -3 0 -4 -3 -8 -7 -10 -3 -1 -4 -1 -7 0 -9 2 -9 2 -9 0 0 -1 2 -2 3
-3 2 0 4 -4 6 -7 2 -4 11 -15 19 -25 7 -11 14 -20 14 -20 0 -3 -7 -9 -13 -12
-6 -3 -7 -3 -14 -3 -6 0 -9 0 -13 2 -5 2 -12 9 -15 15 -1 4 -1 11 0 15 1 2 1
3 0 4 -1 1 -2 1 -4 -2 -4 -5 -10 -8 -18 -10 -14 -3 -29 3 -34 15 -2 4 -2 9 0
16 2 5 0 7 -4 5 -10 -6 -25 -7 -36 -1 -13 6 -19 16 -19 30 0 13 6 23 18 31 8
6 8 6 18 3 6 -2 14 -2 17 0 2 2 0 3 -8 3 -11 0 -18 3 -23 12 -8 12 -5 29 7 44
4 5 10 9 18 13 7 2 7 4 0 5 -9 1 -16 6 -20 14 -2 4 -2 6 -2 12 1 9 4 17 11 24
l5 5 -3 0 c-3 0 -4 -1 -8 -5z m-122 -227 c8 -3 12 -5 16 -9 l5 -4 10 2 c21 4
46 4 64 -2 l6 -2 6 4 c8 6 16 9 23 10 7 0 7 0 10 -9 1 -7 1 -14 -1 -20 -1 -3
-1 -4 3 -9 7 -11 11 -24 13 -41 0 -10 -2 -20 -6 -28 l-3 -5 7 -7 c10 -9 16
-19 16 -25 0 -4 -1 -6 -5 -6 -3 0 -5 1 -7 4 -3 2 -5 4 -6 4 -2 0 -2 -2 -1 -5
2 -3 2 -8 1 -10 -3 -3 -10 0 -15 5 -4 7 -7 5 -3 -3 2 -5 1 -8 -1 -11 -3 -4 -6
-4 -12 -1 -9 5 -14 21 -9 33 1 3 3 7 4 8 2 2 2 3 1 4 -2 2 -4 0 -7 -7 -3 -4
-3 -7 -4 -14 0 -8 0 -10 2 -17 5 -16 15 -29 27 -37 l5 -3 -3 -3 c-4 -4 -20
-11 -28 -13 -8 -2 -9 -2 -10 0 -3 4 -4 5 -9 6 -3 1 -6 2 -7 2 -5 0 -13 -3 -17
-7 -4 -3 -5 -4 -15 -2 -3 0 -5 1 -5 1 0 2 -4 6 -8 7 -5 1 -11 1 -16 -1 -3 -1
-3 -1 -9 2 -9 5 -18 15 -22 24 -5 9 -6 15 -6 26 0 8 2 16 5 22 1 2 1 5 1 6 -2
3 -5 -2 -8 -11 -2 -7 -2 -9 -2 -20 1 -13 0 -14 -4 -3 -2 5 -2 8 -2 17 1 10 1
12 4 20 l4 9 -4 4 c-7 7 -10 17 -10 33 0 15 5 30 14 44 l5 6 -1 5 c-2 9 0 21
5 27 3 2 2 2 9 0z m-260 -65 c-4 -6 -11 -16 -12 -16 -1 0 0 18 0 21 1 0 4 1 8
1 l7 0 -3 -6z m434 -90 c4 -14 5 -30 2 -36 -1 -3 -2 -2 -6 6 -5 9 -10 16 -12
15 0 -1 2 -6 7 -14 6 -11 7 -13 6 -15 -4 -4 -13 2 -22 14 -6 8 -10 6 -4 -2 3
-5 11 -13 13 -13 1 0 1 0 1 -1 0 -2 -8 -1 -14 2 -9 4 -17 11 -23 19 -6 8 -6 9
-2 7 9 -3 16 0 18 8 0 4 1 4 2 3 9 -2 14 -1 16 5 0 2 1 3 2 3 5 -1 9 -1 11 1
3 3 4 3 5 -2z m-16 -51 c5 1 6 1 8 -2 4 -3 7 -10 7 -13 0 -8 -12 -9 -22 -3 -3
2 -8 6 -12 8 l-5 6 5 3 5 4 4 -2 c3 -1 6 -1 10 -1z m-119 -9 c1 -1 2 -3 2 -4
0 -2 -7 -9 -10 -9 -3 0 -4 2 -3 6 2 4 0 5 -4 0 -4 -5 -5 -5 -8 -2 -1 2 -1 2 1
5 3 4 8 6 14 6 3 -1 6 -2 8 -2z m99 -4 c3 -3 8 -7 10 -8 5 -3 5 -5 0 -6 -8 -1
-20 3 -28 10 l-4 4 6 3 c4 1 7 3 8 3 1 0 4 -3 8 -6z m-46 3 c3 -3 3 -3 -2 -8
-5 -6 -10 -5 -10 2 1 4 -1 4 -3 -1 -3 -5 -5 -5 -8 -2 -3 3 -2 6 2 9 3 2 4 2
11 2 6 0 8 -1 10 -2z m-29 -8 c0 -2 -1 -2 -10 -2 -8 0 -10 0 -10 1 0 3 2 3 11
3 7 0 9 -1 9 -2z m-268 -2 c7 -3 10 -8 12 -14 1 -3 1 -41 1 -107 l1 -102 -5
-1 c-3 -1 -6 -2 -8 -2 -4 -2 -11 -10 -12 -13 0 -4 -1 -4 -5 -1 -4 2 -13 3 -16
1 -2 -3 -3 -2 -4 2 -1 2 -3 5 -4 8 l-3 4 -1 97 c0 114 0 116 8 123 8 8 25 10
36 5z m136 -1 c6 -1 11 -6 13 -11 1 -4 1 -30 -1 -137 -1 -26 -1 -63 -1 -83 0
-33 0 -35 -2 -36 -4 -3 -8 -8 -10 -14 -1 -3 -1 -6 -2 -6 0 0 -1 1 -3 1 -2 1
-7 2 -10 2 l-6 0 0 16 c0 14 0 17 -1 17 -1 0 -2 -3 -2 -12 0 -7 0 -12 -1 -12
0 0 -2 2 -5 3 -3 3 -6 4 -13 5 -1 0 -1 2 -1 11 0 5 0 62 0 126 1 110 1 117 3
121 2 4 5 7 12 9 7 2 22 3 30 0z m169 -2 c2 -3 2 0 0 -112 -1 -97 -2 -127 -3
-151 l0 -17 -6 0 c-2 0 -5 0 -5 1 0 1 0 8 0 16 1 9 1 59 1 112 0 52 1 108 1
122 l0 27 2 1 c2 0 3 1 4 2 2 2 3 1 6 -1z m-353 -52 l0 -8 -7 -1 c-4 0 -8 0
-8 1 0 0 0 3 1 5 1 7 6 11 10 11 l4 0 0 -8z m134 6 c1 0 1 -5 1 -11 l1 -9 -11
-1 c-7 0 -11 -1 -11 -1 0 -2 8 -3 15 -3 l7 1 0 -9 0 -9 -34 1 c-19 0 -35 0
-36 1 -1 0 -1 3 -1 11 l0 11 14 0 c14 0 18 1 15 3 -1 0 -7 0 -15 0 l-13 1 0 7
c0 4 0 8 0 8 0 1 67 0 68 -1z m131 -2 c1 0 1 -2 1 -6 l0 -6 -21 0 c-19 0 -22
0 -22 -1 0 -1 1 -2 1 -2 3 0 17 -1 29 -1 l13 0 0 -14 0 -13 -12 0 c-7 0 -21 1
-32 1 l-20 1 -1 5 c0 4 0 5 1 5 1 0 7 0 13 0 8 0 12 0 13 1 1 2 -1 3 -14 3
l-12 0 0 14 c0 7 0 14 0 14 1 1 61 0 63 -1z m149 -2 l19 0 0 -23 0 -23 -14 0
c-7 1 -24 1 -36 2 -13 0 -24 0 -25 1 -1 0 -1 2 -1 5 0 3 0 5 1 5 1 0 8 0 16 0
16 0 18 0 16 3 -1 1 -5 1 -17 1 -8 0 -15 0 -15 1 -1 0 -1 3 0 6 l0 5 29 -1
c20 0 29 0 29 1 1 0 0 1 0 2 -1 0 -13 1 -27 1 -15 0 -28 0 -29 1 -2 0 -2 1 -2
7 0 4 0 7 0 7 1 1 29 0 56 -1z m-414 -23 c0 -10 -1 -11 -7 -9 -5 2 -8 6 -9 13
l0 5 8 0 8 0 0 -9z m114 -19 l22 0 0 -29 c0 -16 0 -30 0 -30 -1 -1 -5 -1 -14
-1 -7 1 -23 1 -34 1 -11 1 -21 1 -22 2 -1 0 -1 7 -1 29 0 16 0 29 0 29 1 1 13
0 49 -1z m134 -3 l18 0 0 -31 0 -31 -13 0 c-8 1 -22 1 -33 2 -10 0 -19 1 -20
1 0 0 0 14 1 30 l0 30 15 0 c7 0 22 0 32 -1z m170 -5 l15 0 0 -31 0 -31 -23 1
c-12 0 -29 1 -38 1 l-15 1 0 29 c0 17 0 31 1 31 0 1 25 1 60 -1z m122 -23 c2
-2 4 -16 4 -24 0 -8 -3 -23 -5 -29 -2 -6 -11 -19 -12 -19 -1 0 -1 1 0 3 2 12
5 26 8 37 1 6 3 13 3 13 0 3 -2 2 -3 -1 -3 -6 -8 -25 -9 -32 -2 -13 -3 -14 -4
-4 -2 13 2 35 8 48 5 9 7 11 10 8z m-437 -32 c12 -1 24 -1 27 -1 l6 0 0 -8 0
-7 -10 0 c-9 0 -10 -1 -10 -2 0 -1 2 -2 10 -2 l10 0 0 -4 c0 -2 0 -4 0 -6 l-1
-2 -15 1 c-12 0 -16 0 -16 -1 -2 -2 2 -3 16 -3 l15 0 0 -4 c-1 -4 4 -4 -38 -2
-16 1 -30 2 -31 2 -1 1 -1 4 -1 10 l1 10 14 -1 c11 0 15 0 15 1 1 1 1 1 1 2
-1 0 -8 1 -16 1 l-14 1 -1 7 c0 10 0 10 8 10 4 -1 17 -1 30 -2z m-103 -7 c0
-5 0 -8 0 -9 0 0 -4 0 -9 0 l-9 0 1 4 c1 5 4 11 6 12 2 0 4 1 7 1 l4 0 0 -8z
m487 4 c14 -10 24 -24 28 -45 2 -8 2 -13 1 -11 -1 0 -4 6 -7 12 -7 15 -15 28
-23 38 -5 7 -6 9 -4 9 0 0 2 -1 5 -3z m-253 -2 c13 -1 25 -1 28 -1 l4 0 0 -13
0 -13 -15 0 c-15 0 -18 -1 -15 -2 1 -1 22 -2 29 -2 1 0 2 -11 0 -11 0 0 -13 0
-29 1 -16 0 -30 1 -32 1 l-4 0 0 12 0 12 23 -1 c19 0 22 0 22 1 -1 1 -14 3
-37 3 l-8 0 0 7 c0 4 0 7 1 7 0 1 2 1 5 0 2 0 15 0 28 -1z m252 -10 c9 -13 24
-39 23 -40 -1 -1 -11 8 -16 15 -3 4 -7 10 -9 14 -6 10 -10 23 -7 23 0 0 4 -5
9 -12z m-87 5 l34 -1 0 -15 0 -14 -12 0 c-7 0 -11 0 -11 -1 -1 -2 0 -2 11 -2
5 0 10 -1 11 -1 1 -1 1 -9 0 -9 0 -1 -15 0 -32 1 -17 0 -34 1 -38 1 l-6 0 0 7
0 7 14 0 c10 -1 14 -1 15 0 1 2 -2 3 -11 3 -5 0 -11 0 -13 1 l-5 0 0 12 0 12
5 0 c2 0 20 -1 38 -1z m-398 -18 c0 -4 0 -8 -1 -8 -1 -1 -8 1 -11 3 -3 2 -5 6
-6 10 l-1 3 9 0 10 0 0 -8z m102 -17 c17 -1 31 -2 31 -2 1 0 1 -14 0 -32 l0
-31 -6 -2 c-3 -1 -6 -2 -6 -2 -1 0 -2 1 -2 4 -2 9 -13 16 -23 14 -3 0 -5 -1
-5 -1 0 1 0 4 0 8 -1 6 -1 8 -4 12 -3 5 -11 11 -18 12 l-4 0 0 10 c0 5 0 10 0
11 1 1 2 1 4 1 1 -1 16 -1 33 -2z m402 -12 c2 -1 5 -4 8 -5 5 -4 9 -11 9 -17
0 -3 0 -8 1 -13 2 -17 2 -20 1 -20 -1 0 -3 6 -4 12 -3 13 -6 18 -14 28 -6 7
-6 7 -6 12 0 4 0 6 1 6 0 0 2 -1 4 -3z m-15 -6 c8 -4 20 -19 25 -31 3 -10 2
-10 -4 -1 -7 9 -19 24 -25 29 -2 3 -4 5 -4 5 0 1 3 0 8 -2z m12 -26 c8 -10 14
-19 14 -19 0 -4 -16 7 -23 15 -10 11 -18 27 -16 31 0 2 6 -4 25 -27z m-19 -20
c15 -7 30 -25 35 -41 1 -4 -1 -2 -10 9 -8 10 -15 17 -29 28 -5 4 -9 8 -9 8 0
1 7 -1 13 -4z m25 0 c4 -2 9 -4 10 -5 5 -2 6 -4 8 -42 1 -5 1 -7 0 -7 -1 0 -2
2 -3 5 0 2 -2 8 -4 12 -3 10 -9 21 -16 28 -4 4 -5 5 -5 8 0 4 1 5 2 5 0 0 4
-2 8 -4z m-30 -7 c8 -8 30 -30 34 -35 2 -3 2 -3 0 -3 -2 0 -11 6 -20 12 -7 6
-16 16 -21 24 -6 11 -5 12 7 2z M351 548 c0 -3 2 -5 4 -4 1 2 1 4 0 6 -2 2 -4 1 -4 -2z M330 546 c0 -1 2 -6 4 -6 2 0 2 3 1 6 -1 2 -4 3 -5 0z M369 545 c-2 -3 -3 -4 0 -5 1 0 6 4 6 7 0 2 -3 1 -6 -2z M341 538 c-1 -2 1 -6 3 -6 2 0 2 2 1 5 -1 3 -3 4 -4 1z M357 534 c-2 -3 -3 -4 0 -5 1 0 5 3 5 6 0 2 -3 2 -5 -1z M298 532 c-10 -3 -20 -12 -26 -25 -3 -7 -3 -8 -3 -18 0 -9 0 -11 2
-17 4 -7 12 -15 19 -19 10 -4 21 -5 18 -2 -1 1 -3 2 -5 2 -10 2 -23 11 -27 19
-3 6 -4 14 -4 21 1 13 11 28 23 33 6 3 16 4 22 2 9 -3 19 -12 24 -24 2 -3 3
-5 4 -5 0 -1 3 2 5 5 9 11 19 18 31 22 8 2 14 3 22 0 14 -4 24 -16 27 -31 2
-8 1 -16 -3 -23 -5 -11 -16 -18 -32 -21 -10 -2 -11 -2 -10 -4 1 -2 6 -1 14 1
24 6 37 21 36 42 -1 14 -9 27 -20 35 -8 5 -13 6 -23 6 -7 0 -11 0 -15 -2 -9
-3 -20 -11 -26 -17 -2 -3 -5 -6 -5 -6 -1 0 -2 2 -3 4 -1 3 -5 8 -9 12 -6 5 -9
7 -13 9 -7 2 -16 3 -23 1z M301 498 c-3 -2 -3 -3 -3 -8 0 -5 0 -6 3 -8 2 -2 4 -3 8 -3 5 0 6 0
8 3 5 5 4 14 -2 17 -5 3 -10 3 -14 -1z M384 499 c-1 0 -3 -1 -4 -3 -8 -7 -3 -19 7 -19 6 0 9 2 11 7 l2 4 -2
4 c-2 6 -9 9 -14 7z M341 492 c-8 -4 -10 -10 -6 -17 1 -2 4 -5 5 -6 3 -2 3 -2 7 0 2 1 5
3 7 6 5 7 4 14 -4 17 -4 1 -6 1 -9 0z m8 -4 c2 -1 3 -2 4 -3 1 -4 -6 -14 -10
-13 -2 1 -5 7 -5 10 0 2 1 4 3 5 3 2 5 3 8 1z M285 476 c-1 -1 -1 -2 -1 -3 1 -1 5 1 5 3 0 1 -2 1 -4 0z M407 474 c0 -2 3 -4 5 -4 1 1 1 1 -1 3 -3 2 -4 3 -4 1z M293 471 c-1 -2 -1 -2 0 -3 1 -1 2 -1 3 1 3 4 1 6 -3 2z M399 469 c0 -1 2 -4 4 -4 1 0 1 2 -1 4 -2 2 -2 2 -3 0z M299 427 c-2 -5 5 -10 11 -10 6 1 11 7 9 10 0 1 -1 0 -3 -2 -3 -3 -5
-4 -6 -4 -4 0 -7 3 -7 6 0 2 -3 3 -4 0z M344 425 c-1 0 -1 -2 -1 -4 0 -2 1 -4 4 -6 4 -4 9 -4 14 0 l3 2 3 -2
c4 -3 8 -4 12 -1 3 2 5 4 5 7 0 3 -3 2 -5 -1 -1 -3 -3 -4 -5 -4 -4 0 -5 1 -7
5 0 2 -1 4 -2 4 0 0 -2 -2 -3 -4 -3 -4 -7 -6 -11 -4 -3 1 -4 2 -4 6 -1 3 -2 4
-3 2z M323 415 c-2 -1 -1 -4 2 -7 3 -4 4 -4 8 -4 4 0 5 1 7 2 4 5 2 7 -3 3
-4 -3 -7 -2 -10 3 -3 4 -3 5 -4 3z M299 401 c-1 -1 -1 -4 1 -7 3 -6 13 -8 17 -2 0 1 1 2 1 3 -2 2 -4 1
-5 -1 -2 -3 -6 -3 -9 1 -1 1 -2 3 -2 4 0 1 -2 3 -3 2z M379 393 c-3 -5 -9 -6 -13 -1 -4 3 -5 4 -5 1 0 -5 7 -9 14 -8 3 1 8
6 8 9 0 3 -3 2 -4 -1z M333 386 c-1 -1 1 -5 4 -7 3 -3 4 -3 7 -3 5 1 9 5 9 8 0 3 -2 2 -5
-1 -3 -4 -6 -4 -10 0 -1 1 -2 3 -2 3 0 1 -3 1 -3 0z M66 335 c-3 -3 -4 -6 -4 -19 0 -10 1 -14 2 -11 1 1 2 9 2 23 0 1 1 3
3 5 2 5 2 5 0 5 0 0 -2 -1 -3 -3z M85 333 c-2 -4 -2 -6 -2 -24 0 -18 1 -22 3 -20 0 1 1 8 1 20 0 16 0
19 1 22 2 4 2 6 1 6 -1 0 -3 -2 -4 -4z M65 281 c-4 -5 -1 -13 6 -13 5 0 9 5 7 10 -2 5 -9 7 -13 3z m9 -6 c0
-2 -1 -2 -3 -2 -3 0 -4 0 -4 2 0 3 3 5 5 4 2 -1 2 -2 2 -4z M66 255 c-2 -2 -3 -22 -3 -33 0 -10 1 -12 2 -12 1 0 2 3 2 19 0 10 1
20 1 23 1 3 1 4 0 4 -1 0 -2 0 -2 -1z M89 252 c-1 -1 -1 -50 -1 -51 2 -2 3 4 3 26 0 19 0 25 -1 26 0 0 -1
0 -1 -1z M73 195 c-1 -2 -1 -18 0 -20 2 -3 3 0 3 11 0 9 0 11 -1 11 -1 0 -2
-1 -2 -2z M91 167 c-1 -1 -1 -39 -1 -40 2 -3 3 2 3 20 0 18 -1 23 -2 20z M68 166 c-2 -1 -5 -5 -5 -7 0 -3 4 -7 8 -7 4 0 8 3 8 7 0 3 -3 7 -5
7 0 0 -1 0 -2 0 -1 1 -2 0 -4 0z m5 -4 c4 -3 0 -9 -4 -6 -2 1 -2 3 0 5 1 2 2
2 4 1z M68 139 c-1 -1 -1 -7 -1 -14 0 -10 1 -12 2 -12 2 0 3 23 1 26 -2 1
-2 1 -2 0z M200 333 c-3 -4 -3 -25 -1 -27 3 -2 3 0 3 12 0 9 0 13 1 14 1 2 2 3
1 3 -1 2 -3 1 -4 -2z M224 333 c0 -2 0 -49 1 -49 1 -3 2 3 2 24 0 21 0 23 -1 25 -1 1 -2 1
-2 0z M202 277 c-2 -2 -2 -8 0 -10 1 -1 3 -1 5 -1 7 0 10 7 6 11 -3 3 -9 3
-11 0z m8 -3 c2 -3 -3 -7 -6 -4 -1 2 -1 3 1 4 2 2 4 2 5 0z M224 265 c0 -1 0 -11 0 -23 0 -19 0 -22 2 -22 1 0 1 3 1 23 0 15 -1
22 -2 23 0 0 -1 0 -1 -1z M195 227 c1 -11 2 -20 2 -20 0 -1 1 -1 2 0 1 0 1 4 1 16 -1 20 -2 23
-4 23 -1 0 -1 -2 -1 -19z M218 201 c-1 -6 0 -33 2 -33 0 0 1 6 1 18 0 15 0 18 -1 18 -1 0 -2
-1 -2 -3z M200 176 c-1 -1 -3 -5 -4 -8 -1 -6 -1 -10 -1 -34 0 -15 0 -28 1 -28
0 0 1 0 1 1 1 1 2 8 2 29 0 26 0 28 2 34 1 4 2 7 1 7 0 1 -1 0 -2 -1z M214 157 c-3 -3 -3 -4 0 -8 3 -3 8 -3 12 0 3 3 3 6 0 9 -4 3 -9 3
-12 -1z m9 -2 c1 -1 1 -2 0 -3 -1 -2 -4 -3 -6 0 -2 3 3 7 6 3z M220 103 c0 -15 0 -27 0 -27 1 -1 1 -1 2 -1 1 1 1 10 1 28 0 22 0 26
-1 26 -2 0 -2 -4 -2 -26z M126 260 c-2 -2 1 -3 12 -3 12 0 16 1 10 3 -3 1 -22 1 -22 0z M123 218 c-4 -3 -6 -8 -5 -10 1 -3 2 -2 4 2 2 5 4 7 8 8 6 1 11 -4
14 -13 1 -5 3 -5 6 0 3 3 4 3 6 3 3 0 4 -1 4 -4 0 -3 1 -4 1 -4 1 0 1 0 2 0 1
0 1 2 1 4 0 7 -8 11 -13 6 -4 -3 -4 -3 -5 1 -1 2 -3 5 -5 6 -4 4 -5 4 -9 4 -5
0 -6 0 -9 -3z M261 218 c-4 -4 -2 -15 3 -20 1 -2 2 -2 3 -1 1 1 0 2 -2 6 -1 3 -2 6
-2 8 0 4 1 4 4 4 4 0 7 -2 8 -8 2 -5 5 -5 6 0 2 5 4 7 6 7 2 0 4 -4 4 -9 0 -4
1 -5 3 -4 3 3 0 14 -4 15 -3 2 -7 1 -9 -1 -2 -4 -3 -4 -5 0 -4 5 -11 7 -15 3z M445 210 c-2 -1 -4 -4 -5 -6 -3 -5 -3 -5 -6 -2 -4 4 -11 4 -13 1 -4
-3 -1 -14 4 -15 3 -2 3 1 1 4 -4 5 -4 10 1 10 3 0 7 -4 8 -8 2 -4 5 -4 5 1 2
7 6 12 11 13 6 2 8 -5 4 -12 -2 -4 -2 -7 1 -6 2 2 5 9 5 13 0 8 -9 12 -16 7z M419 162 c-3 -2 1 -3 16 -3 11 -1 16 -1 17 0 0 1 0 2 -1 2 -1 1 -31
2 -32 1z M154 117 c-4 -2 -6 -6 -4 -8 1 -1 2 0 4 2 1 2 3 3 4 3 3 0 4 -3 4 -6
-1 -3 0 -5 3 -3 2 2 1 8 -1 10 -2 3 -6 3 -10 2z M157 790 c-22 -3 -43 -18 -53 -37 -6 -12 -7 -29 -3 -42 6 -20 21 -34
42 -42 12 -4 24 -5 34 -4 11 1 23 5 30 10 14 9 25 26 17 27 -1 0 -6 -1 -10 -2
-14 -3 -24 -2 -37 4 -16 8 -25 27 -21 45 4 12 9 19 22 28 5 3 8 6 8 7 -1 5
-17 8 -29 6z m19 -5 c1 0 3 0 3 -1 1 0 -2 -3 -6 -5 -9 -6 -13 -11 -18 -21 -3
-7 -3 -8 -3 -19 0 -11 0 -12 3 -18 10 -21 35 -31 60 -25 3 1 7 2 7 1 1 0 -3
-6 -8 -11 -11 -11 -34 -19 -49 -18 -43 5 -70 37 -60 73 4 15 16 30 32 38 13 7
24 9 39 6z M39 779 c-1 -1 -3 -5 -3 -8 0 -2 -1 -3 -3 -5 -8 -5 -7 -12 0 -14 3
-1 4 -1 4 -4 2 -7 7 -9 12 -3 2 2 4 2 9 2 4 0 6 0 7 2 2 2 2 2 0 6 l-2 4 3 3
c3 3 3 6 -1 9 -2 2 -3 2 -6 2 -4 -1 -5 0 -9 3 -4 4 -8 5 -11 3z m6 -4 c1 0 3
-2 4 -4 2 -3 2 -3 7 -3 5 1 6 1 7 0 1 -2 1 -2 -2 -5 -4 -3 -4 -4 -1 -7 3 -4 3
-5 -4 -5 -6 1 -6 1 -9 -3 -4 -3 -5 -3 -6 3 0 3 -1 4 -4 4 -2 0 -4 1 -4 2 -2 2
0 5 4 6 3 1 3 2 3 6 0 3 2 7 3 7 0 0 2 0 2 -1z M340 778 c-6 -3 -9 -9 -9 -20 l0 -5 -4 -1 c-4 0 -5 0 -6 2 -1 1 -2 3
-2 4 0 2 1 2 4 2 3 0 4 0 4 1 0 3 -2 4 -6 4 -6 0 -8 -6 -4 -13 2 -3 2 -3 0 -4
-1 -1 -3 -1 -5 1 -5 2 -9 1 -12 -1 -3 -2 -4 -4 -2 -6 2 -1 2 -1 4 1 1 2 2 3 4
3 6 0 6 -2 3 -6 -3 -5 -4 -13 -1 -18 2 -5 11 -9 17 -9 4 -1 7 -1 10 -4 9 -6
20 -6 27 0 8 6 8 19 0 25 -3 3 -3 3 -1 4 8 2 11 5 14 9 4 9 -6 14 -18 11 -2
-1 -4 -1 -5 -1 0 1 1 2 1 4 2 4 2 11 1 14 -1 2 -6 5 -9 5 -1 0 -3 -1 -5 -2z
m9 -4 c3 -3 2 -9 -2 -17 -3 -6 -5 -7 -10 -5 -1 2 -2 3 -2 6 0 7 2 13 5 16 4 3
6 3 9 0z m20 -20 c4 -2 2 -8 -5 -11 -3 -1 -11 -3 -13 -3 -1 1 -2 3 -3 4 l-2 4
2 2 c5 4 17 6 21 4z m-30 -7 c8 -4 9 -14 3 -22 -5 -6 -9 -8 -16 -8 -10 0 -17
6 -16 14 3 13 18 22 29 16z m15 -12 c5 -5 -7 -24 -15 -23 -4 1 -3 3 0 5 5 2
10 10 10 15 1 4 3 5 5 3z m9 -10 c2 -4 0 -10 -4 -13 -3 -2 -10 -4 -13 -4 -1 1
-1 2 3 5 5 4 8 9 9 15 1 2 1 3 3 2 0 -1 1 -3 2 -5z M331 738 c-2 -2 -1 -5 1 -6 3 0 5 3 4 5 -1 2 -3 3 -5 1z M317 731 c0 -3 1 -5 3 -5 2 0 4 4 3 6 -2 2 -5 1 -6 -1z M328 728 c-3 -2 -4 -4 -1 -4 2 0 6 3 6 5 0 1 -2 1 -5 -1z M236 777 c-1 -1 -2 -2 -3 -4 -1 -2 -2 -3 -4 -4 -5 -2 -5 -7 0 -9 2 0
4 -2 6 -4 2 -3 3 -3 5 -3 2 1 4 2 4 4 1 1 3 3 5 4 3 1 4 2 4 4 0 2 -1 3 -4 4
-2 1 -4 3 -5 4 -1 3 -4 5 -6 5 0 0 -1 0 -2 -1z m5 -7 c1 -1 2 -2 3 -3 4 -1 4
-3 1 -3 -2 -1 -3 -2 -4 -3 -1 -4 -3 -4 -4 -1 -1 1 -2 3 -4 3 -2 1 -3 1 -2 3 1
0 2 1 3 1 0 0 1 1 2 3 2 4 4 4 5 0z M503 771 c-2 -3 -1 -7 1 -10 3 -5 9 -7 15 -7 l6 1 2 -5 c5 -11 20
-14 29 -5 3 3 3 3 5 2 3 -3 12 -2 16 0 3 2 5 5 5 8 -1 1 -4 2 -4 0 0 -1 -1 -2
-2 -4 -2 -1 -4 -2 -7 -2 -5 0 -7 1 -9 4 -1 4 -4 4 -4 0 0 -1 -1 -3 -3 -6 -3
-3 -4 -3 -9 -3 -8 0 -15 7 -15 15 0 2 0 3 0 3 -1 0 -2 -1 -4 -2 -2 -1 -5 -2
-8 -2 -3 0 -5 1 -8 3 -2 3 -3 5 -3 8 0 4 -2 6 -3 2z M291 722 c-3 -4 2 -5 6 -3 1 2 1 2 0 3 -2 1 -5 1 -6 0z M378 722 c-1 -2 1 -3 5 -3 4 1 3 3 -1 4 -1 0 -3 0 -4 -1z M303 706 c-1 -3 -1 -5 2 -5 1 0 4 5 4 6 -2 2 -4 1 -6 -1z M371 705 c0 -1 3 -6 5 -6 2 0 2 3 0 5 -1 2 -4 3 -5 1z M327 697 c-2 -3 -1 -7 0 -7 4 0 5 8 2 9 0 0 -1 -1 -2 -2z M351 694 c-2 -1 -1 -4 1 -5 1 -1 2 -1 3 0 2 3 -2 8 -4 5z M464 686 c-1 -2 1 -7 5 -10 4 -4 9 -5 14 -3 5 1 6 1 7 -2 3 -9 17
-13 26 -7 4 3 6 6 4 7 -1 1 -2 1 -4 -1 -5 -5 -10 -6 -17 -3 -4 2 -5 4 -7 10 0
5 -1 5 -5 2 -4 -3 -12 -3 -15 0 -2 1 -3 3 -3 5 -1 3 -3 4 -5 2z M281 681 c-1 0 -2 -3 -3 -4 -1 -3 -2 -4 -5 -5 -9 -1 -11 -10 -3 -12
1 -1 2 -2 2 -6 0 -4 0 -5 2 -5 2 -1 4 -1 6 0 4 1 6 1 13 0 5 0 6 1 6 7 0 3 1
4 3 6 2 2 3 4 3 5 0 2 -3 5 -7 6 -3 0 -4 1 -5 3 -3 6 -7 9 -12 5z m8 -6 c1 -5
2 -6 7 -6 3 0 6 -2 4 -3 0 -1 -2 -2 -4 -3 -2 -1 -3 -1 -3 -3 3 -7 2 -8 -4 -5
-4 1 -4 1 -8 -1 -4 -3 -5 -2 -5 3 0 4 -1 5 -3 6 -4 2 -4 3 -2 4 1 1 4 2 5 2 3
0 3 1 5 4 3 7 6 8 8 2z M346 634 c-2 -2 -4 -4 -5 -4 -3 -2 -3 -6 0 -8 1 0 3 -2 4 -4 1 -2 1
-3 4 -3 2 0 3 1 5 3 1 2 3 3 4 4 2 1 3 2 3 3 0 2 -9 12 -11 12 -1 0 -2 -1 -4
-3z m6 -4 c0 -1 0 -2 1 -2 0 0 1 0 2 -1 1 -1 0 -2 -3 -5 -2 -2 -3 -3 -4 -2 0
1 -1 2 -3 4 -2 2 -2 4 1 4 0 0 2 1 2 2 1 1 2 2 2 2 1 0 1 -1 2 -2z M196 635 c-6 -2 -8 -9 -6 -16 0 -2 1 -4 1 -4 -1 0 -3 0 -6 1 -13 3
-22 -5 -14 -14 2 -2 5 -4 7 -5 5 -2 6 -3 3 -6 -4 -4 -5 -10 -4 -14 1 -8 9 -14
17 -14 5 0 12 3 16 6 2 2 3 3 5 2 4 -1 10 2 15 6 5 6 6 10 3 18 -1 4 -1 5 0 6
4 2 8 0 8 -3 0 -4 3 -2 4 2 0 3 0 3 -3 5 -4 1 -4 1 -9 0 -4 -2 -5 -2 -7 -1 -1
1 -2 2 -2 2 0 0 1 1 2 4 3 4 4 6 1 8 -3 3 -9 2 -9 -2 0 -1 1 -1 3 0 3 0 3 0 3
-2 0 -1 -1 -3 -2 -4 -1 -2 -2 -2 -5 -2 l-4 1 0 8 c-1 10 -2 14 -7 17 -3 2 -7
3 -10 1z m7 -4 c4 -2 6 -8 6 -15 0 -7 0 -7 -5 -8 -2 -1 -3 -1 -5 1 -3 3 -5 8
-6 13 0 4 0 5 2 7 2 3 4 4 8 2z m-10 -23 c3 -1 5 -3 5 -4 0 0 -1 -1 -2 -3 -2
-3 -3 -3 -6 -3 -8 0 -19 7 -18 12 2 4 13 4 21 -2z m25 -4 c9 -3 15 -12 12 -19
-4 -11 -18 -13 -27 -4 -6 6 -7 14 -3 18 4 6 10 7 18 5z m-25 -14 c1 -6 5 -12
10 -15 4 -2 5 -3 3 -5 -3 -1 -13 6 -17 12 -2 4 -1 10 1 11 2 2 3 1 3 -3z m-5
-13 c2 -2 4 -5 6 -6 5 -3 5 -4 1 -4 -10 0 -17 11 -13 19 1 2 1 2 3 -2 0 -2 2
-6 3 -7z M207 595 c-2 -1 -1 -5 1 -6 1 -1 2 -2 2 -3 0 -2 3 -4 6 -4 3 0 2 2
-2 4 -3 2 -4 2 -3 4 2 3 -2 8 -4 5z M220 589 c-2 -1 -1 -4 1 -5 2 -2 4 1 4 4 -1 2 -4 3 -5 1z M7 601 c0 -3 5 -8 10 -9 4 -1 10 0 14 3 2 1 2 1 4 -2 3 -3 8 -5 12
-5 4 0 11 4 12 7 3 6 0 7 -4 2 -6 -7 -16 -6 -18 2 -1 5 -3 5 -6 2 0 -2 -3 -4
-5 -5 -6 -2 -11 0 -14 4 -2 4 -5 4 -5 1z M245 580 c-3 -2 3 -6 6 -4 1 1 1 2 -1 3 -2 2 -4 2 -5 1z M160 577 c-2 -3 2 -5 6 -3 2 1 2 1 1 3 -2 1 -5 1 -7 0z M231 564 c-1 -1 3 -6 5 -6 3 0 3 2 1 4 -3 3 -5 4 -6 2z M173 559 c-2 -2 -1 -5 1 -5 2 0 4 2 4 4 0 2 -3 3 -5 1z M213 554 c0 -4 2 -7 4 -5 2 1 0 7 -2 8 -2 0 -2 -1 -2 -3z M194 552 c-2 -2 -1 -5 1 -6 1 0 3 2 3 5 0 2 -2 3 -4 1z M591 539 c0 -1 0 -5 1 -10 1 -5 2 -14 3 -18 0 -5 0 -10 1 -10 0 -1 0
-3 0 -4 0 -2 1 -3 2 -3 1 0 2 9 0 25 -2 15 -5 22 -7 20z M514 505 c-3 -2 -6 -4 -8 -7 -3 -5 -4 -6 -7 -6 -6 -1 -9 -4 -9 -7 0
-3 1 -5 6 -7 l4 -2 -1 -6 c0 -3 0 -5 1 -6 2 -3 7 -2 12 0 l4 3 5 -3 c5 -2 10
-3 12 0 2 2 2 5 0 10 -1 2 -1 3 0 4 0 0 2 1 4 2 7 5 4 14 -5 14 -4 0 -4 0 -4
4 -2 8 -7 10 -14 7z m7 -3 c1 -1 2 -4 3 -7 1 -4 1 -5 5 -5 7 0 8 -1 8 -3 0 -2
-2 -3 -5 -5 -3 -1 -5 -3 -5 -3 -1 0 0 -3 1 -5 4 -6 3 -8 -2 -8 -2 1 -4 2 -6 3
-4 3 -4 3 -9 0 -2 -2 -5 -3 -6 -3 -2 0 -2 0 -2 6 l1 6 -4 2 c-3 1 -5 3 -6 4
-1 2 3 4 7 4 3 0 7 2 7 5 0 1 6 8 8 9 3 1 3 1 5 0z M188 496 c-2 -1 -3 -5 -1 -5 1 0 2 1 3 2 3 1 3 1 4 -1 1 -2 2 -5 2
-8 0 -5 0 -5 -3 -6 -2 0 -4 -1 -5 -1 0 -1 -2 0 -4 3 -7 7 -16 9 -22 4 -2 -2
-3 -3 -3 -6 0 -5 4 -10 9 -13 3 -1 5 -2 5 -3 0 0 -2 -2 -4 -4 -8 -8 -6 -19 5
-25 6 -3 14 -3 20 1 l4 3 3 -3 c3 -4 9 -6 13 -4 4 3 5 7 3 13 -1 2 -1 2 4 2 7
0 11 2 14 7 1 3 1 3 0 6 -2 4 -7 6 -13 6 -5 -1 -5 -1 -6 2 -1 2 -2 5 -4 7 -3
3 -3 3 -2 5 3 5 9 6 9 2 0 -2 4 -3 4 0 1 1 0 2 -1 4 -1 1 -2 2 -5 2 -4 0 -5
-1 -8 -4 -3 -3 -5 -4 -7 -4 -2 0 -2 1 -2 4 1 6 0 11 -4 14 -3 2 -5 3 -8 0z
m-11 -16 c6 -3 7 -5 3 -10 l-2 -5 -4 1 c-4 2 -7 4 -9 8 -2 3 -2 5 0 7 2 3 7 2
12 -1z m25 -6 c8 -2 13 -11 10 -17 -2 -3 -7 -7 -11 -8 -3 -1 -10 2 -14 6 -3 3
-4 4 -4 8 0 4 3 9 7 11 4 1 7 1 12 0z m-19 -21 c3 -4 9 -7 13 -7 2 0 2 0 2 -3
-1 -3 -3 -4 -10 -1 -6 2 -14 11 -14 14 0 1 1 2 2 3 1 1 2 0 3 -1 1 -2 3 -4 4
-5z m47 5 c3 -3 -1 -8 -7 -9 -3 -1 -10 0 -11 1 0 1 5 8 7 9 2 1 9 0 11 -1z
m-57 -9 c3 -4 10 -9 14 -11 7 -1 0 -4 -8 -3 -6 2 -12 10 -11 16 1 3 2 3 5 -2z
m39 -7 c2 -4 2 -8 -1 -9 -2 0 -6 1 -8 4 -2 2 -1 8 1 9 4 2 6 1 8 -4z M191 466 c0 -1 0 -2 1 -3 2 -1 2 -1 4 0 2 2 1 4 -2 4 -1 0 -2 0 -3
-1z M202 461 c0 -2 2 -4 4 -3 2 1 1 4 -1 4 -1 0 -2 0 -3 -1z M597 473 c0 -1 0 -11 0 -23 0 -17 1 -22 2 -23 1 0 1 5 1 23 0 16 0
24 -1 24 -1 0 -1 -1 -2 -1z M143 456 c-2 -2 0 -3 4 -3 2 0 3 0 3 2 0 2 -1 2 -3 2 -2 0 -4 0 -4
-1z M5 444 c-2 -6 -4 -30 -4 -41 1 -13 1 -16 3 -16 1 0 2 5 2 19 0 11 0
22 1 28 1 8 1 10 0 11 -1 1 -1 1 -2 -1z M147 437 c-2 -1 -2 -3 1 -3 3 0 6 3 6 4 -1 1 -4 1 -7 -1z M166 422 c-2 -2 -2 -5 0 -6 1 0 5 6 4 7 0 2 -3 1 -4 -1z M206 422 c0 -1 1 -3 2 -4 2 -2 2 -2 3 -1 1 1 1 2 0 4 -2 3 -5 4 -5 1z M186 418 c0 -4 0 -6 2 -6 2 0 4 5 2 7 -2 2 -3 1 -4 -1z M3 360 c1 -10 2 -12 4 -11 1 1 1 3 1 8 -2 11 -2 13 -4 13 -1 0 -1 -1
-1 -10z M142 339 c-5 -1 -14 -6 -17 -10 -4 -5 -6 -10 -4 -11 1 -2 3 -1 5 5 4
8 16 14 24 12 2 -1 4 -2 5 -3 2 -2 4 -1 4 1 0 4 -10 7 -17 6z M506 334 c0 -1 1 -3 2 -5 1 -2 2 -7 2 -10 0 -6 1 -8 2 -8 2 0 2 1 2
7 0 7 -2 13 -5 16 -2 1 -2 1 -3 0z M334 332 c-1 -3 -1 -20 0 -21 2 -1 3 2 3 12 0 10 -1 13 -3 9z M580 331 c-2 -2 -2 -3 -2 -8 1 -4 1 -7 2 -8 0 -2 0 -2 -2 -2 -9 3
-15 1 -15 -4 0 -3 1 -4 4 -7 5 -4 8 -2 3 3 -4 2 -4 5 -1 6 3 1 7 0 12 -4 4 -3
5 -3 5 0 -5 15 -5 20 -2 22 1 1 2 1 4 0 2 -1 4 -5 5 -11 1 -3 3 -4 4 -2 2 4
-3 13 -7 16 -3 3 -7 3 -10 -1z M365 327 c-1 -2 -1 -51 0 -54 1 -4 4 -3 3 2 0 2 0 15 0 28 0 24 -1
29 -3 24z M529 311 c0 -9 0 -17 0 -18 -1 -1 -1 -14 -1 -29 -1 -23 -1 -26 0 -26
1 0 2 1 3 2 0 2 0 21 0 44 0 32 0 41 -1 42 -1 0 -1 -3 -1 -15z M494 295 c-1 -14 -1 -26 0 -26 0 -1 1 -1 1 0 1 1 2 7 2 21 1 21 1 30
-1 30 -1 0 -2 -6 -2 -25z M323 286 c0 -17 0 -21 1 -21 1 0 2 3 2 14 1 16 0 26 -2 27 -1 0 -1
-4 -1 -20z M342 285 c-4 -12 -6 -47 -3 -59 3 -14 8 -19 13 -15 4 3 6 10 6 26 0
15 -1 21 -3 20 -1 0 -1 -3 -1 -7 1 -11 0 -26 -1 -31 -3 -10 -8 -7 -10 8 -2 11
-2 29 0 43 1 6 1 13 1 14 1 3 -2 4 -2 1z M506 269 c-4 -5 -1 -12 6 -12 4 0 7 3 7 7 0 6 -8 9 -13 5z m9 -4 c1
-1 0 -4 -2 -5 -4 -1 -7 5 -3 7 1 1 4 0 5 -2z M569 258 c-2 -2 1 -3 16 -3 14 0 15 0 15 2 0 2 -1 2 -15 2 -10 0 -16
0 -16 -1z M6 245 c-5 -4 -8 -11 -5 -11 1 0 3 2 4 4 3 6 8 8 10 4 1 -2 1 -3 -2
-9 -4 -8 -3 -10 2 -8 8 3 13 -1 7 -6 -2 -2 -4 -4 -3 -4 2 -3 10 3 10 9 0 4 -2
6 -8 6 -3 0 -5 0 -5 0 0 0 1 3 2 5 3 6 2 8 0 11 -4 3 -8 3 -12 -1z M500 238 c-1 -1 -2 -15 -3 -32 -1 -30 -1 -34 2 -33 0 1 1 8 1 18 1 9
2 23 2 31 1 8 1 15 1 16 -1 1 -3 1 -3 0z M324 231 c-1 0 -1 -16 -1 -35 0 -25 0 -34 1 -35 0 0 1 1 1 2 1 1 1
17 1 35 0 25 0 33 -1 34 0 0 -1 0 -1 -1z M519 216 c0 -2 0 -5 0 -9 0 -4 1 -5 2 -5 1 0 2 1 2 7 0 6 -1 8 -2 9
0 0 -1 -1 -2 -2z M364 197 c-1 -1 -2 -69 -1 -70 3 -2 3 4 3 36 0 25 0 34 -1 35 0 0 -1
0 -1 -1z M1 177 c-1 0 -1 -1 -1 -2 0 -2 1 -2 3 -1 4 0 4 0 5 -2 0 -3 -3 -15
-6 -21 -2 -4 -3 -9 -1 -9 1 0 2 1 4 2 8 6 14 2 9 -7 -2 -3 -2 -5 0 -5 2 0 6 8
6 11 0 5 -3 7 -10 7 l-5 -1 2 5 c5 11 6 21 2 23 -2 1 -7 1 -8 0z M342 152 c-1 -13 -1 -28 -2 -33 0 -9 0 -10 1 -10 1 0 2 1 2 2 1 3 3
60 2 62 0 1 -1 2 -1 2 -1 0 -2 -6 -2 -23z M499 152 c-5 -2 -5 -11 1 -13 5 -1 9 1 10 6 1 1 0 3 -2 5 -3 3 -5 4
-9 2z m7 -5 c1 -1 0 -2 -1 -3 -3 -3 -8 0 -5 4 2 2 5 1 6 -1z M327 123 c-2 -2 -5 -77 -4 -80 0 0 1 -1 2 -1 0 0 1 4 1 17 1 9 1 25
2 35 1 22 1 30 0 30 0 0 -1 0 -1 -1z M496 118 c-1 -2 -1 -27 0 -28 0 -1 1 0 2 0 1 1 1 5 1 15 0 14 -1 17
-3 13z M440 108 c-7 -3 -11 -12 -16 -29 l-1 -3 -2 3 c-2 5 -9 12 -11 12 -4
0 -5 -6 -2 -17 3 -8 6 -13 8 -13 1 0 1 3 0 6 -2 2 -6 14 -6 17 0 1 0 2 1 2 1
0 6 -7 10 -14 1 -4 4 -7 4 -7 1 0 2 3 3 8 1 11 4 21 8 26 5 6 12 9 14 5 2 -3
0 -9 -6 -22 -8 -16 -10 -22 -7 -22 1 0 3 1 4 3 3 5 12 11 16 11 6 0 3 -8 -5
-14 -2 -2 -3 -3 -3 -4 1 -2 3 -1 6 2 8 6 11 15 7 19 -2 2 -9 1 -14 -2 -2 -2
-4 -3 -4 -2 0 1 2 5 4 9 7 14 9 21 5 25 -3 4 -8 4 -13 1z M258 105 c-4 -4 -2 -20 4 -21 1 0 1 1 -1 9 -2 4 -2 5 -1 7 2 6 9 1
10 -7 1 -6 3 -6 6 1 3 6 5 8 7 8 3 0 4 -8 0 -14 0 -2 -1 -3 0 -4 2 -4 6 3 7
11 0 5 0 6 -2 8 -3 4 -7 4 -11 -1 l-3 -4 -4 5 c-5 5 -8 5 -12 2z M359 103 c-1 -3 -1 -49 1 -49 1 0 3 49 1 50 0 1 -1 1 -2 -1z M49 62 c-5 -1 -8 -4 -10 -10 l-2 -5 -3 4 c-3 7 -7 10 -13 11 -5 0 -6
0 -8 -2 -3 -3 -3 -7 0 -12 2 -5 5 -8 8 -10 5 -3 5 0 0 4 -9 10 -7 21 3 16 4
-2 10 -11 11 -16 1 -6 5 -7 5 -1 0 7 7 18 11 18 2 0 4 -2 4 -4 0 -1 -1 -5 -3
-10 -3 -10 -2 -12 3 -7 5 4 13 5 15 2 1 -2 1 -3 -3 -6 -3 -3 -4 -4 -3 -5 1 -1
2 -1 4 1 6 5 7 7 6 11 -2 4 -7 6 -13 4 -2 -1 -4 -1 -5 -1 0 1 1 3 1 5 2 6 2 8
0 11 -2 2 -5 3 -8 2z M121 48 c-1 0 -3 -2 -3 -3 -4 -6 -3 -17 1 -18 2 0 2 0 1 3 -2 9 1 16
7 14 3 -1 6 -6 6 -12 0 -9 1 -9 7 -4 7 7 12 9 14 5 1 -2 0 -5 -3 -9 -2 -1 -2
-2 -1 -3 3 -3 8 4 8 11 0 4 -3 7 -7 7 -3 0 -8 -2 -10 -4 -2 -3 -4 -2 -5 3 -2
8 -9 13 -15 10z M279 15 c-3 -3 -3 -7 -1 -10 1 -2 3 -3 4 -3 2 0 3 1 1 4 -2 2 -2 6 0
6 4 2 9 -1 12 -7 1 -3 3 -3 7 1 6 7 12 6 8 0 -3 -5 -3 -5 0 -5 2 0 6 5 6 8 0
1 -1 3 -2 4 -3 3 -8 2 -13 -2 l-3 -2 -2 2 c-4 6 -12 8 -17 4z M591 5 c-7 -4 -7 -5 -5 -5 4 0 14 6 14 8 0 3 -1 3 -9 -3z M379 8 c-4 -2 -4 -8 0 -8 1 0 2 1 2 2 -1 4 4 4 8 1 3 -3 6 -4 11 -2
3 1 3 1 4 0 0 -1 4 -1 4 0 0 3 -3 5 -5 5 -2 0 -4 -1 -5 -2 l-3 -2 -3 3 c-4 3
-9 4 -13 3z M63 6 c-2 0 -1 -3 1 -3 1 0 2 -1 4 -1 2 -2 6 -3 6 -1 0 2 -8 6 -11 5z M83 5 c-3 -2 -4 -5 -2 -5 1 0 2 1 4 2 1 1 3 2 4 2 1 0 3 -1 3 -2 2
-3 5 -3 5 0 0 5 -9 7 -14 3z" fill="black"/>
<path d="M0 762 l0 -38 3 1 c1 0 7 0 12 0 12 0 19 -2 26 -9 7 -6 10 -13 11
-23 l0 -8 6 1 c11 1 24 -5 32 -14 1 -1 3 -5 5 -8 2 -4 2 -7 2 -12 0 -5 0 -9
-1 -11 -2 -3 -2 -4 3 -4 2 0 7 -1 10 -2 17 -5 25 -16 24 -31 -1 -9 -3 -14 -9
-20 -3 -2 -5 -4 -5 -4 0 -1 3 -2 6 -3 12 -6 20 -17 22 -30 3 -15 -6 -31 -20
-38 -3 -1 -5 -2 -5 -3 0 0 1 -2 3 -4 6 -8 8 -20 4 -29 -3 -8 -7 -12 -14 -16
-6 -3 -7 -3 -15 -3 -8 0 -10 0 -14 2 -6 2 -7 2 -7 -3 0 -1 -1 -4 -3 -7 -4 -6
-11 -11 -18 -13 -8 -2 -20 0 -26 4 -2 1 -3 2 -4 2 -1 -1 -2 -19 -2 -27 l1 -7
4 -1 c2 0 5 -1 6 -1 1 -1 3 0 5 3 3 2 7 5 9 6 8 4 22 4 31 0 8 -4 16 -15 16
-23 0 -3 1 -3 6 -1 8 2 17 -1 23 -8 4 -4 5 -6 5 -11 1 -3 1 -4 6 -4 3 -1 7 -2
8 -3 2 -1 3 -2 3 -2 1 0 2 2 4 5 5 6 13 10 22 10 3 0 7 0 8 -1 3 -1 3 -1 5 4
9 19 38 23 53 8 6 -5 9 -11 10 -20 0 -5 1 -6 2 -5 3 1 10 1 15 0 7 -2 15 -9
16 -15 1 -6 1 -6 6 -6 6 0 12 -3 13 -7 1 -3 -1 -4 -4 0 -5 4 -8 5 -13 3 -6 -2
-7 -1 -6 3 0 2 0 5 0 6 -1 4 -7 10 -11 12 -5 2 -13 1 -18 -1 -2 -1 -5 -2 -5
-1 0 0 0 3 0 6 2 10 -3 21 -14 27 -4 2 -5 3 -14 3 -10 0 -11 -1 -15 -3 -2 -2
-6 -4 -7 -6 -3 -3 -6 -9 -6 -11 1 -1 1 -2 0 -3 0 -1 -2 -1 -5 1 -11 5 -23 1
-29 -8 -3 -4 -3 -5 -3 -11 -1 -4 -1 -7 -2 -7 -2 0 -3 4 -3 9 0 4 0 4 -3 7 -4
2 -6 2 -15 1 -2 0 -2 0 -2 5 0 4 0 7 -1 9 -5 9 -18 13 -27 8 -5 -2 -6 -2 -6 5
-1 15 -12 24 -27 24 -10 0 -17 -3 -23 -10 l-4 -5 -3 2 c-3 2 -8 3 -10 2 0 0 0
-7 1 -23 1 -12 2 -23 3 -23 0 0 3 1 6 3 6 3 8 3 14 3 8 -1 12 -3 15 -8 l1 -4
9 1 c8 0 10 0 15 -2 8 -3 13 -8 16 -14 2 -4 2 -8 3 -19 l0 -14 16 -1 c8 0 24
-1 34 -1 l19 0 0 15 c1 9 2 17 2 19 3 11 22 18 41 15 9 -1 14 -4 19 -8 5 -5 6
-11 6 -27 0 -8 0 -15 1 -15 0 0 14 -1 31 -1 l31 0 0 9 c0 5 0 15 1 22 0 11 0
13 -1 15 -2 2 -2 6 0 8 2 3 1 3 -3 5 -6 3 -15 11 -19 17 -2 3 -5 7 -7 10 -12
16 -15 21 -14 37 0 9 0 12 2 18 2 4 3 8 4 9 0 1 -1 3 -3 5 -7 8 -11 22 -10 38
1 15 5 27 14 41 5 6 5 7 4 13 -2 12 2 26 9 29 3 2 4 2 9 1 6 -1 14 -5 20 -10
l4 -3 7 2 c10 2 39 3 50 1 5 -1 11 -2 14 -3 l6 -2 7 5 c9 5 20 9 26 9 8 0 12
-8 12 -23 0 -4 0 -9 -1 -11 -1 -2 -1 -3 2 -7 7 -11 12 -25 13 -42 0 -13 -1
-20 -5 -28 l-2 -5 7 -7 c9 -9 15 -20 20 -35 3 -12 4 -32 2 -38 -2 -5 -7 -11
-10 -11 -2 0 -2 -2 0 -5 6 -6 8 -16 4 -20 -3 -3 -6 -4 -12 -4 -2 0 -6 -1 -9
-2 -11 -6 -27 -2 -38 9 l-4 5 -6 -2 c-4 0 -7 -1 -7 -1 0 0 2 -2 4 -4 l3 -3 0
-22 c-1 -15 0 -21 0 -22 1 0 18 0 38 0 l36 -1 0 15 c1 18 2 20 9 27 6 7 14 10
25 11 l9 1 1 4 c2 4 6 10 11 12 4 2 6 2 13 2 5 0 10 0 11 0 2 -1 2 -1 2 1 0 7
7 16 15 21 l5 3 0 20 c0 12 0 24 0 27 l1 5 -4 1 c-7 2 -17 -2 -24 -8 -6 -5 -9
-11 -9 -19 0 -6 1 -6 -9 -3 -9 3 -21 -2 -28 -11 -5 -7 -6 -13 -3 -22 0 -2 0
-2 -3 -2 -4 0 -8 -2 -13 -6 -3 -3 -4 -4 -5 -3 -1 1 -1 2 1 4 2 3 9 8 12 8 2 0
2 0 2 5 0 3 1 8 2 10 2 7 9 15 17 19 5 2 7 2 14 2 l8 0 1 4 c1 9 10 19 20 24
4 2 7 2 13 2 l8 0 0 13 c0 29 -2 52 -7 71 -3 9 -9 24 -10 24 0 0 -2 -2 -5 -5
-8 -7 -15 -9 -25 -9 -7 0 -9 0 -15 2 -7 4 -14 11 -17 16 0 2 -1 6 -1 8 0 5 -1
5 -5 2 -11 -6 -25 -6 -35 -1 -12 6 -18 15 -17 26 1 3 1 5 1 5 -1 0 -3 -1 -7
-1 -20 -6 -41 3 -49 21 -3 8 -4 20 0 30 3 7 14 19 21 22 5 2 5 3 2 6 -4 3 -7
11 -8 18 -1 15 9 34 22 43 l6 4 -4 2 c-11 5 -16 13 -16 26 0 10 3 17 11 27 l2
3 -211 0 -212 0 0 -38z m181 26 c2 -1 5 -3 5 -4 0 -1 -3 -4 -8 -7 -13 -9 -18
-16 -22 -28 -4 -18 5 -37 21 -45 13 -6 23 -7 37 -4 4 1 9 2 10 2 8 -1 -3 -18
-17 -27 -12 -8 -31 -12 -47 -10 -29 4 -52 21 -59 46 -4 13 -3 30 3 42 10 19
31 34 53 37 8 1 19 0 24 -2z m-131 -12 c4 -3 5 -4 9 -3 3 0 4 0 6 -2 4 -3 4
-6 1 -9 l-3 -3 2 -4 c2 -4 2 -4 0 -6 -1 -2 -3 -2 -7 -2 -5 0 -7 0 -9 -2 -5 -6
-10 -4 -12 3 0 3 -1 3 -4 4 -7 2 -8 9 0 14 2 2 3 3 3 5 0 9 7 12 14 5z m300 2
c2 0 3 -2 4 -3 1 -3 1 -10 -1 -14 0 -2 -1 -3 -1 -4 1 0 3 0 5 1 6 2 11 1 15
-1 4 -2 5 -6 3 -10 -3 -4 -6 -7 -14 -9 -2 -1 -2 -1 1 -4 8 -6 8 -19 0 -25 -7
-6 -18 -6 -27 0 -3 3 -6 3 -10 4 -6 0 -15 4 -17 9 -3 5 -2 13 1 18 3 4 3 6 -3
6 -2 0 -3 -1 -4 -3 -2 -2 -2 -2 -4 -1 -2 2 -1 4 2 6 3 2 7 3 12 1 2 -2 4 -2 5
-1 2 1 2 1 0 4 -4 7 -2 13 4 13 4 0 6 -1 6 -4 0 -1 -1 -1 -4 -1 -3 0 -4 0 -4
-2 0 -1 1 -3 2 -4 1 -2 2 -2 6 -2 l4 1 0 5 c0 11 3 17 9 20 4 2 6 2 10 0z
m-109 -1 c1 -1 3 -2 3 -4 1 -1 3 -3 5 -4 3 -1 4 -2 4 -4 0 -2 -1 -3 -4 -4 -2
-1 -4 -3 -5 -4 0 -2 -2 -3 -4 -4 -2 0 -3 0 -5 3 -2 2 -4 4 -6 4 -5 2 -5 7 0 9
2 1 3 2 4 4 2 5 5 6 8 4z m56 -55 c1 -1 1 -1 0 -3 -4 -2 -9 -1 -6 3 1 1 4 1 6
0z m89 -1 c0 -2 -6 -3 -7 -1 -2 2 0 3 3 3 2 0 4 -1 4 -2z m-77 -14 c0 -1 -3
-6 -4 -6 -3 0 -3 2 -2 5 2 2 4 3 6 1z m67 -3 c2 -2 2 -5 0 -5 -1 0 -3 1 -4 2
-2 5 1 7 4 3z m-45 -8 c0 -3 -2 -6 -4 -6 0 0 -1 1 -1 3 0 5 4 8 5 3z m24 -3
c1 -2 1 -2 0 -4 -2 -1 -5 0 -5 3 0 4 3 4 5 1z m-65 -12 c1 -1 2 -4 3 -5 1 -2
2 -3 5 -3 4 -1 7 -4 7 -6 0 -1 -1 -3 -3 -5 -2 -2 -3 -3 -3 -6 0 -6 -1 -7 -6
-7 -7 1 -9 1 -13 0 -2 -1 -4 -1 -6 0 -2 0 -2 1 -2 5 0 4 -1 5 -2 6 -8 2 -6 11
3 12 3 1 4 2 5 5 2 6 8 8 12 4z m66 -49 c6 -6 6 -9 2 -10 -1 -1 -3 -2 -4 -4
-2 -2 -3 -3 -5 -3 -3 0 -3 1 -4 3 -1 2 -3 4 -4 4 -3 2 -3 6 0 8 1 0 3 2 5 4 2
2 3 3 4 3 1 0 3 -2 6 -5z m-150 2 c5 -3 6 -7 7 -17 l0 -8 4 -1 c3 0 4 0 5 2 1
1 2 3 2 4 0 2 0 2 -3 2 -2 -1 -3 -1 -3 0 0 4 6 5 9 2 3 -2 2 -4 -1 -8 -1 -3
-2 -4 -2 -4 0 0 1 -1 2 -2 2 -1 3 -1 7 1 5 1 5 1 9 0 3 -2 3 -2 3 -5 -1 -4 -4
-6 -4 -2 0 3 -4 5 -8 3 -1 -1 -1 -2 0 -6 3 -8 2 -12 -3 -18 -5 -4 -11 -7 -15
-6 -2 1 -3 0 -5 -2 -4 -3 -11 -6 -16 -6 -8 0 -16 6 -17 14 -1 4 0 10 4 14 3 3
2 4 -3 6 -2 1 -5 3 -7 5 -8 9 1 17 14 14 3 -1 5 -1 6 -1 0 0 -1 2 -1 4 -3 13
6 21 16 15z m44 -55 c2 -1 2 -2 1 -3 -3 -2 -9 2 -6 4 1 1 3 1 5 -1z m-83 -2
c1 -2 1 -2 -1 -3 -4 -2 -8 0 -6 3 2 1 5 1 7 0z m70 -15 c2 -2 2 -4 -1 -4 -2 0
-6 5 -5 6 1 2 3 1 6 -2z m-59 -4 c0 -2 -2 -4 -4 -4 -2 0 -3 3 -1 5 2 2 5 1 5
-1z m39 -5 c1 -2 1 -3 0 -4 -2 -2 -4 1 -4 5 0 2 0 3 2 3 1 0 2 -2 2 -4z m-19
-2 c0 -3 -2 -5 -3 -5 -2 1 -3 4 -1 6 2 2 4 1 4 -1z m327 -47 c1 -1 2 -4 3 -6
0 -4 0 -4 4 -4 9 0 12 -9 5 -14 -2 -1 -4 -2 -4 -2 -1 -1 -1 -2 0 -4 5 -10 -2
-15 -12 -10 l-5 3 -4 -3 c-5 -2 -10 -3 -12 0 -1 1 -1 3 -1 6 l1 6 -4 2 c-5 2
-6 4 -6 7 0 3 3 6 9 7 3 0 4 1 7 6 6 8 15 11 19 6z m-329 -8 c4 -3 5 -8 4 -14
0 -3 0 -4 2 -4 2 0 4 1 7 4 3 3 4 4 8 4 3 0 4 -1 5 -2 1 -2 2 -3 1 -4 0 -3 -4
-2 -4 0 0 4 -6 3 -9 -2 -1 -2 -1 -2 2 -5 2 -2 3 -5 4 -7 1 -3 1 -3 6 -2 6 0
11 -2 13 -6 1 -3 1 -3 0 -6 -3 -5 -7 -7 -14 -7 -5 0 -5 0 -4 -2 2 -6 1 -10 -3
-13 -4 -2 -10 0 -13 4 l-3 3 -4 -3 c-6 -4 -14 -4 -20 -1 -11 6 -13 17 -5 25 2
2 4 4 4 4 0 1 -2 2 -5 3 -5 3 -9 8 -9 13 0 3 1 4 3 6 6 5 15 3 22 -4 2 -3 4
-4 4 -3 1 0 3 1 5 1 3 1 3 1 3 6 0 3 -1 6 -2 8 -1 2 -1 2 -4 1 -3 -3 -4 -2 -4
0 0 2 4 5 6 5 1 0 3 -1 4 -2z m-46 -41 c0 -2 -1 -2 -3 -2 -4 0 -6 1 -4 3 0 1
2 1 4 1 2 0 3 0 3 -2z m4 -17 c0 -1 -3 -4 -6 -4 -3 0 -3 2 -1 3 3 2 6 2 7 1z
m16 -15 c1 -1 -3 -7 -4 -7 -2 1 -2 4 0 6 1 2 4 3 4 1z m41 -2 c1 -2 1 -3 0 -4
-1 -1 -1 -1 -3 1 -1 1 -2 3 -2 4 0 3 3 2 5 -1z m-21 -2 c2 -2 0 -7 -2 -7 -2 0
-2 2 -2 6 1 2 2 3 4 1z m-34 -82 c2 -1 3 -3 3 -4 0 -2 -2 -3 -4 -1 -1 1 -3 2
-5 3 -8 2 -20 -4 -24 -12 -2 -6 -4 -7 -5 -5 -3 3 5 13 12 17 9 5 16 6 23 2z" fill="white"/>
<path d="M425 795 c-7 -7 -10 -15 -11 -24 0 -6 0 -8 2 -12 4 -8 11 -13 20 -14
7 -1 7 -3 0 -5 -8 -4 -14 -8 -18 -13 -9 -11 -13 -24 -11 -34 2 -14 12 -22 27
-22 8 0 10 -1 8 -3 -3 -2 -11 -2 -17 0 -10 3 -10 3 -18 -3 -12 -8 -18 -18 -18
-31 0 -14 6 -24 19 -30 11 -6 26 -5 36 1 4 2 6 0 4 -5 -2 -7 -2 -12 0 -16 5
-12 20 -18 34 -15 8 2 14 5 18 10 2 3 3 3 4 2 1 -1 1 -2 0 -4 -1 -4 -1 -11 0
-15 3 -6 10 -13 15 -15 4 -2 7 -2 13 -2 7 0 8 0 14 3 6 3 13 9 13 12 0 0 -7 9
-14 20 -8 10 -17 21 -19 25 -2 3 -4 7 -6 7 -1 1 -3 2 -3 3 0 2 0 2 9 0 3 -1 4
-1 7 0 4 2 7 6 7 10 0 1 1 2 1 3 2 2 4 -1 3 -6 0 -3 0 -4 4 -10 6 -7 30 -32
30 -31 2 2 -3 44 -7 62 -5 21 -5 20 -11 22 -9 3 -20 14 -18 18 1 3 3 2 6 -3 6
-12 22 -16 32 -7 2 1 4 3 4 3 1 0 1 -2 2 -4 2 -6 9 -13 13 -13 1 0 1 22 1 71
l0 70 -85 0 -85 0 -5 -5z m81 -26 c0 -3 1 -5 3 -8 3 -2 5 -3 8 -3 3 0 6 1 8 2
2 1 3 2 4 2 0 0 0 -1 0 -3 0 -8 7 -15 15 -15 5 0 6 0 9 3 2 3 3 5 3 6 0 4 3 4
4 0 2 -3 4 -4 9 -4 3 0 5 1 7 2 1 2 2 3 2 4 0 2 3 1 4 0 0 -3 -2 -6 -5 -8 -4
-2 -13 -3 -16 0 -2 1 -2 1 -5 -2 -9 -9 -24 -6 -29 5 l-2 5 -6 -1 c-6 0 -12 2
-15 7 -3 4 -3 12 1 12 1 0 1 -1 1 -4z m-37 -85 c0 -2 1 -4 3 -5 3 -3 11 -3 15
0 4 3 5 3 5 -2 2 -6 3 -8 7 -10 7 -3 12 -2 17 3 2 2 3 2 4 1 2 -1 0 -4 -4 -7
-4 -3 -10 -4 -15 -2 -6 2 -10 4 -11 9 -1 3 -2 3 -7 2 -5 -2 -10 -1 -14 3 -5 4
-6 11 -2 11 0 0 1 -1 2 -3z" fill="white"/>
<path d="M159 786 c-14 -2 -27 -8 -38 -18 -18 -18 -23 -43 -13 -64 10 -20 31
-33 57 -36 15 -1 38 7 49 18 5 5 9 11 8 11 0 1 -4 0 -7 -1 -25 -6 -50 4 -60
25 -3 6 -3 7 -3 18 0 11 0 12 3 19 5 10 9 15 18 21 4 2 7 5 6 5 -1 2 -12 3
-20 2z" fill="white"/>
<path d="M41 774 c-1 -1 -1 -3 -1 -5 0 -4 0 -5 -3 -6 -4 -1 -6 -4 -4 -6 0 -1
2 -2 4 -2 3 0 4 -1 4 -4 1 -6 2 -6 6 -3 3 4 3 4 9 3 7 0 7 1 4 5 -3 3 -3 4 1
7 3 3 3 3 2 5 -1 1 -2 1 -7 0 -5 0 -5 0 -7 3 -3 5 -6 6 -8 3z" fill="white"/>
<path d="M340 774 c-3 -3 -5 -9 -5 -16 0 -3 1 -4 2 -6 5 -2 7 -1 10 5 4 8 5
14 2 17 -3 3 -5 3 -9 0z" fill="white"/>
<path d="M236 770 c-1 -2 -2 -3 -2 -3 -1 0 -2 -1 -3 -1 -1 -2 0 -2 2 -3 2 0 3
-2 4 -3 1 -3 3 -3 4 1 1 1 2 2 4 3 3 0 3 2 -1 3 -1 1 -2 2 -3 3 -1 4 -3 4 -5
0z" fill="white"/>
<path d="M355 753 c-2 0 -6 -2 -7 -3 l-2 -2 2 -4 c2 -4 3 -4 10 -3 8 2 13 6
13 10 0 4 -7 5 -16 2z" fill="white"/>
<path d="M322 746 c-9 -4 -14 -15 -10 -22 3 -7 16 -10 23 -5 9 5 13 16 9 23
-4 7 -13 9 -22 4z m14 -9 c1 -2 -1 -5 -4 -5 -2 1 -3 4 -1 6 2 2 4 1 5 -1z
m-13 -5 c1 -2 -1 -6 -3 -6 -2 0 -3 2 -3 5 1 2 4 3 6 1z m10 -3 c0 -2 -4 -5 -6
-5 -3 0 -2 2 1 4 3 2 5 2 5 1z" fill="white"/>
<path d="M349 732 c0 -5 -5 -13 -10 -15 -3 -2 -4 -4 0 -5 8 -1 20 18 15 23 -2
2 -4 1 -5 -3z" fill="white"/>
<path d="M358 728 c-1 -6 -4 -11 -9 -15 -4 -3 -4 -4 -3 -5 3 0 10 2 13 4 5 4
6 14 2 18 -2 1 -2 0 -3 -2z" fill="white"/>
<path d="M4 721 l-4 -1 0 -106 c0 -58 0 -105 0 -105 1 0 2 1 4 1 5 2 9 6 11 9
1 4 4 4 5 0 0 -1 2 -3 3 -5 6 -5 18 -2 23 7 4 6 4 7 -1 7 -7 0 -15 6 -11 8 1
0 3 0 4 -1 5 -5 16 -4 21 2 4 4 5 4 6 0 0 -4 3 -6 8 -6 6 -1 9 1 11 5 2 4 5 4
5 1 0 -6 -10 -12 -17 -11 -3 1 -3 1 -5 -6 -5 -11 -11 -23 -22 -42 -9 -16 -16
-32 -15 -35 0 0 3 -2 6 -4 7 -3 18 -4 25 0 9 4 14 12 14 20 0 6 1 7 7 4 17
-11 39 -5 44 13 2 9 -1 20 -8 27 -3 4 -4 7 0 7 3 0 10 4 15 9 11 10 13 25 6
39 -5 9 -14 15 -24 18 -6 2 -6 3 -1 6 5 2 10 7 12 12 3 6 3 18 1 23 -3 5 -9
10 -15 13 -5 2 -7 3 -15 3 -6 0 -9 0 -9 1 0 0 1 3 2 6 9 17 -3 37 -24 41 -5 1
-7 1 -13 0 -3 -1 -7 -2 -7 -2 0 1 0 3 1 6 3 13 -4 27 -17 34 -4 2 -7 2 -14 3
-5 0 -10 -1 -12 -1z m8 -121 c3 -4 8 -6 14 -4 2 1 5 3 5 5 3 3 5 3 6 -2 2 -8
12 -9 18 -2 4 5 7 4 4 -2 -1 -3 -8 -7 -12 -7 -4 0 -9 2 -12 5 -2 3 -2 3 -4 2
-4 -3 -10 -4 -14 -3 -5 1 -10 6 -10 9 0 3 3 3 5 -1z" fill="white"/>
<path d="M283 678 c0 -1 -1 -3 -2 -5 -2 -3 -2 -4 -5 -4 -1 0 -4 -1 -5 -2 -2
-1 -2 -2 2 -4 2 -1 3 -2 3 -6 0 -5 1 -6 5 -3 4 2 4 2 8 1 6 -3 7 -2 4 5 0 2 1
2 3 3 2 1 4 2 4 3 2 1 -1 3 -4 3 -5 0 -6 1 -7 6 -2 4 -4 5 -6 3z" fill="white"/>
<path d="M580 667 c-2 0 -4 -2 -6 -2 -4 -1 -4 -1 -4 -3 5 -18 9 -40 11 -62 2
-18 3 -24 3 -28 0 -1 0 -2 0 -2 -2 0 -35 34 -39 40 -4 5 -5 6 -7 4 -1 -1 -3
-2 -5 -3 -2 0 -4 0 -4 -1 -1 0 7 -12 21 -30 21 -27 28 -45 32 -81 1 -16 1 -66
0 -91 0 -9 -1 -17 -1 -17 0 0 5 0 10 0 l9 0 0 18 c0 15 0 18 -1 18 -2 1 -2 4
-2 24 0 19 0 22 2 23 1 0 1 8 1 58 l0 58 -3 18 c-7 39 -10 52 -12 56 -2 3 -3
5 -3 5 0 0 -1 -1 -2 -2z m15 -133 c2 -5 4 -25 4 -33 0 -6 0 -7 -1 -7 -1 0 -2
1 -2 3 0 1 0 3 0 4 -1 0 -1 5 -1 10 -1 4 -2 13 -3 18 -1 5 -1 9 -1 10 1 1 3
-1 4 -5z" fill="white"/>
<path d="M592 657 c0 0 2 -9 4 -19 l4 -19 0 18 0 18 -2 0 c-2 1 -4 1 -4 2 -1
0 -2 0 -2 0z" fill="white"/>
<path d="M195 629 c-2 -2 -2 -3 -2 -7 1 -5 3 -10 6 -13 2 -2 3 -2 5 -1 2 0 4
0 4 1 2 0 1 13 -1 17 -2 6 -8 8 -12 3z" fill="white"/>
<path d="M348 630 c0 -1 -2 -2 -2 -2 -3 0 -3 -2 -1 -4 2 -2 3 -3 3 -4 1 -1 2
0 4 2 3 3 4 4 3 5 -1 1 -2 1 -2 1 -1 0 -1 1 -1 2 -1 1 -1 2 -2 2 0 0 -1 -1 -2
-2z" fill="white"/>
<path d="M175 612 c-1 -1 -2 -2 -3 -2 -1 -5 10 -12 18 -12 3 0 4 0 6 3 1 2 2
3 2 3 0 1 -2 3 -5 4 -6 4 -14 6 -18 4z" fill="white"/>
<path d="M205 603 c-9 -5 -10 -14 -2 -22 9 -9 23 -7 27 4 5 12 -14 25 -25 18z
m6 -9 c1 -2 1 -2 0 -4 -1 -2 0 -2 3 -4 4 -2 5 -4 2 -4 -3 0 -6 2 -6 4 0 1 -1
2 -2 3 -2 1 -3 5 -1 6 1 1 3 1 4 -1z m14 -6 c0 -3 -2 -6 -4 -4 -2 1 -3 4 -1 5
1 2 4 1 5 -1z" fill="white"/>
<path d="M190 593 c-2 -1 -3 -7 -1 -11 4 -6 14 -13 17 -12 2 2 1 3 -3 5 -5 3
-9 9 -10 15 0 4 -1 5 -3 3z" fill="white"/>
<path d="M182 586 c-4 -8 3 -19 13 -19 4 0 4 1 -1 4 -4 3 -8 8 -9 13 -2 4 -2
4 -3 2z" fill="white"/>
<path d="M288 568 c-5 -6 -7 -18 -5 -27 l1 -5 -5 -6 c-9 -14 -14 -29 -14 -44
0 -16 3 -26 10 -33 l4 -4 -4 -9 c-3 -8 -3 -10 -4 -20 0 -9 0 -12 2 -17 4 -11
5 -10 4 3 0 11 0 13 2 20 3 9 6 14 8 11 0 -1 0 -4 -1 -6 -3 -6 -5 -14 -5 -22
0 -11 1 -17 6 -26 4 -9 13 -19 22 -24 6 -3 6 -3 9 -2 5 2 11 2 16 1 4 -1 8 -5
8 -7 0 0 2 -1 5 -1 10 -2 11 -1 15 2 4 4 12 7 17 7 1 0 4 -1 7 -2 5 -1 6 -2 9
-6 1 -2 2 -2 10 0 8 2 24 9 28 13 l3 3 -5 3 c-12 8 -22 21 -27 37 -2 7 -2 9
-2 17 1 7 1 10 4 14 3 7 5 9 7 7 1 -1 1 -2 -1 -4 -10 -12 -7 -35 5 -41 6 -3 9
-3 12 1 2 3 3 6 1 11 -4 8 -1 10 3 3 5 -5 12 -8 15 -5 1 2 1 7 -1 10 -1 3 -1
5 1 5 1 0 3 -2 6 -4 2 -3 4 -4 7 -4 4 0 5 2 5 6 0 6 -6 16 -16 25 l-7 7 3 5
c4 8 6 18 6 28 -2 17 -6 30 -13 41 -4 5 -4 6 -3 9 2 6 2 13 1 20 -3 9 -3 9
-10 9 -7 -1 -15 -4 -23 -10 l-6 -4 -6 2 c-18 6 -43 6 -64 2 l-10 -2 -5 4 c-4
4 -8 6 -16 9 -7 2 -6 2 -9 0z m67 -18 c1 -2 1 -4 0 -6 -2 -1 -4 1 -4 4 0 3 2
4 4 2z m-20 -4 c1 -3 1 -6 -1 -6 -2 0 -4 5 -4 6 1 3 4 2 5 0z m40 1 c0 -3 -5
-7 -6 -7 -3 1 -2 2 0 5 3 3 6 4 6 2z m-30 -10 c1 -3 1 -5 -1 -5 -2 0 -4 4 -3
6 1 3 3 2 4 -1z m17 -2 c0 -3 -4 -6 -5 -6 -3 1 -2 2 0 5 2 3 5 3 5 1z m-41 -4
c4 -2 7 -4 13 -9 4 -4 8 -9 9 -12 1 -2 2 -4 3 -4 0 0 3 3 5 6 6 6 17 14 26 17
4 2 8 2 15 2 10 0 15 -1 23 -6 11 -8 19 -21 20 -35 1 -21 -12 -36 -36 -42 -8
-2 -13 -3 -14 -1 -1 2 0 2 10 4 16 3 27 10 32 21 4 7 5 15 3 23 -3 15 -13 27
-27 31 -8 3 -14 2 -22 0 -12 -4 -22 -11 -31 -22 -2 -3 -5 -6 -5 -5 -1 0 -2 2
-4 5 -5 12 -15 21 -24 24 -6 2 -16 1 -22 -2 -12 -5 -22 -20 -23 -33 0 -7 1
-15 4 -21 4 -8 17 -17 27 -19 2 0 4 -1 5 -2 3 -3 -8 -2 -18 2 -7 4 -15 12 -19
19 -2 6 -2 8 -2 17 0 10 0 11 3 18 4 8 12 17 18 21 8 5 21 6 31 3z m-6 -32 c6
-3 7 -12 2 -17 -2 -3 -3 -3 -8 -3 -4 0 -6 1 -8 3 -3 2 -3 3 -3 8 0 5 0 6 3 8
4 4 9 4 14 1z m78 0 c2 -2 4 -3 5 -7 l2 -4 -2 -4 c-2 -5 -5 -7 -11 -7 -10 0
-15 12 -7 19 4 4 7 5 13 3z m-43 -7 c8 -3 9 -10 4 -17 -2 -3 -5 -5 -7 -6 -4
-2 -4 -2 -7 0 -1 1 -4 4 -5 6 -4 7 -2 13 6 17 3 1 5 1 9 0z m-61 -16 c0 -2 -4
-4 -5 -3 0 1 2 4 4 4 0 0 1 -1 1 -1z m122 -3 c2 -2 2 -2 1 -3 -2 0 -5 2 -5 4
0 2 1 1 4 -1z m-114 -1 c1 0 0 -2 -1 -3 -1 -2 -2 -2 -3 -1 -1 1 -1 1 0 3 2 2
4 2 4 1z m105 -3 c2 -2 2 -4 1 -4 -2 0 -4 3 -4 4 1 2 1 2 3 0z m-99 -42 c0 -3
3 -6 7 -6 1 0 3 1 6 4 2 2 3 3 3 2 2 -3 -3 -9 -9 -10 -6 0 -13 5 -11 10 1 3 4
2 4 0z m44 -4 c0 -4 1 -5 4 -6 4 -2 8 0 11 4 1 2 3 4 3 4 1 0 2 -2 2 -4 2 -4
3 -5 7 -5 2 0 4 1 5 4 2 3 5 4 5 1 0 -3 -2 -5 -5 -7 -4 -3 -8 -2 -12 1 l-3 2
-3 -2 c-5 -4 -10 -4 -14 0 -3 2 -4 4 -4 6 0 6 3 7 4 2z m-20 -11 c3 -5 6 -6
10 -3 5 4 7 2 3 -3 -2 -1 -3 -2 -7 -2 -4 0 -5 0 -8 4 -3 3 -4 6 -2 7 1 2 1 1
4 -3z m-25 -13 c0 -1 1 -3 2 -4 3 -4 7 -4 9 -1 1 2 3 3 5 1 0 -1 -1 -2 -1 -3
-4 -6 -14 -4 -17 2 -2 3 -2 6 -1 7 1 1 3 -1 3 -2z m81 -5 c0 -3 -5 -8 -8 -9
-7 -1 -14 3 -14 8 0 3 1 2 5 -1 4 -5 10 -4 13 1 1 3 4 4 4 1z m-47 -8 c0 0 1
-2 2 -3 4 -4 7 -4 10 0 3 3 5 4 5 1 0 -3 -4 -7 -9 -8 -3 0 -4 0 -7 3 -3 2 -5
6 -4 7 0 1 3 1 3 0z" fill="white"/>
<path d="M58 531 c-3 -1 -4 -3 -5 -6 -1 -2 -3 -6 -5 -8 -1 -2 -4 -7 -5 -11 -2
-3 -4 -9 -7 -12 -4 -6 -13 -14 -14 -14 -1 1 -1 5 -1 16 0 14 0 15 -2 16 -2 2
-2 2 -5 0 -2 -1 -4 -3 -5 -4 -2 -2 -3 -3 -3 -11 -1 -5 -2 -14 -3 -19 -2 -9 -2
-11 -3 -85 l0 -75 4 0 c6 0 10 -3 13 -11 1 -3 1 -3 5 -2 5 0 8 -1 10 -5 2 -2
2 -3 7 -2 l5 1 0 12 c1 21 4 28 14 33 3 1 5 3 5 4 0 1 -2 3 -3 5 -4 3 -4 3
-10 3 -7 0 -13 -2 -18 -7 -2 -1 -4 -2 -4 -1 -1 0 -2 9 -3 19 -2 13 -2 23 -2
42 -1 35 1 42 19 73 10 16 23 43 23 46 0 1 -1 2 -2 3 -1 2 -2 2 -5 0z m-51
-97 c-1 -6 -1 -17 -1 -28 0 -14 -1 -19 -2 -19 -2 0 -2 3 -3 16 0 8 0 15 1 25
2 15 3 19 5 17 1 -1 1 -3 0 -11z m-1 -67 c2 -9 2 -17 1 -18 -2 -1 -3 1 -4 11
0 9 0 10 1 10 1 0 2 -1 2 -3z" fill="white"/>
<path d="M25 508 c0 -3 -1 -21 0 -21 1 0 8 10 12 16 l3 6 -7 0 c-4 0 -7 -1 -8
-1z" fill="white"/>
<path d="M0 496 c0 -4 0 -8 0 -8 1 0 1 4 1 9 1 5 1 8 0 8 -1 0 -1 -3 -1 -9z" fill="white"/>
<path d="M516 502 c-2 -1 -8 -8 -8 -9 0 -3 -4 -5 -7 -5 -4 0 -8 -2 -7 -4 1 -1
3 -3 6 -4 l4 -2 -1 -6 c0 -6 0 -6 2 -6 1 0 4 1 6 3 5 3 5 3 9 0 2 -1 4 -2 6
-3 5 0 6 2 2 8 -1 2 -2 5 -1 5 0 0 2 2 5 3 3 2 5 3 5 5 0 2 -1 3 -8 3 -4 0 -4
1 -5 5 -1 3 -2 6 -3 7 -2 1 -2 1 -5 0z" fill="white"/>
<path d="M341 487 c-2 -1 -3 -3 -3 -5 0 -3 3 -9 5 -10 4 -1 11 9 10 13 -1 2
-5 4 -8 4 -1 0 -3 -1 -4 -2z" fill="white"/>
<path d="M165 481 c-2 -2 -2 -4 0 -7 2 -4 5 -6 9 -8 l4 -1 2 5 c4 5 3 7 -3 10
-5 3 -10 4 -12 1z" fill="white"/>
<path d="M190 474 c-4 -2 -7 -7 -7 -11 0 -4 1 -5 4 -8 4 -4 11 -7 14 -6 4 1 9
5 11 8 5 10 -10 22 -22 17z m7 -8 c0 -1 0 -2 -1 -3 -2 -1 -2 -1 -4 0 -2 2 -1
4 2 4 1 0 2 0 3 -1z m10 -6 c0 -2 -3 -3 -4 -1 -1 1 0 3 2 3 1 0 2 -1 2 -2z" fill="white"/>
<path d="M176 459 c-1 -1 -2 -2 -2 -3 0 -3 8 -12 14 -14 7 -3 9 -2 10 1 0 3 0
3 -2 3 -4 0 -10 3 -13 7 -1 1 -3 3 -4 5 -1 1 -2 2 -3 1z" fill="white"/>
<path d="M219 459 c-2 -1 -7 -8 -7 -9 1 -1 8 -2 11 -1 6 1 10 6 7 9 -2 1 -9 2
-11 1z" fill="white"/>
<path d="M168 451 c-1 -6 5 -14 11 -16 8 -1 15 2 8 3 -4 2 -11 7 -14 11 -3 5
-4 5 -5 2z" fill="white"/>
<path d="M204 446 c-2 -1 -3 -7 -1 -9 2 -3 6 -4 8 -4 3 1 3 5 1 9 -2 5 -4 6
-8 4z" fill="white"/>
<path d="M466 415 c-2 -2 -6 -2 -11 -1 -1 0 -2 -1 -2 -3 -2 -6 -7 -7 -16 -5
-1 1 -2 1 -2 -3 -2 -8 -9 -11 -18 -8 -4 2 -4 1 2 -7 6 -8 14 -15 23 -19 6 -3
14 -4 14 -2 0 1 0 1 -1 1 -2 0 -10 8 -13 13 -6 8 -2 10 4 2 9 -12 18 -18 22
-14 1 2 0 4 -6 15 -5 8 -7 13 -7 14 2 1 7 -6 12 -15 4 -8 5 -9 6 -6 3 6 2 22
-2 36 -1 5 -2 5 -5 2z" fill="white"/>
<path d="M578 385 c-6 -3 -13 -10 -15 -15 -1 -1 -1 -5 -1 -8 0 -3 0 -5 -1 -5
0 0 -3 1 -5 2 -3 2 -6 3 -10 3 -8 0 -14 -2 -18 -8 -5 -5 -5 -8 -1 -9 5 -1 12
-4 15 -8 6 -6 6 -8 7 -27 l1 -17 25 -1 25 0 0 46 c0 54 1 49 -11 49 -5 0 -8
-1 -11 -2z m12 -53 c4 -3 9 -12 7 -16 -1 -2 -3 -1 -4 2 -1 6 -3 10 -5 11 -2 1
-3 1 -4 0 -3 -2 -3 -7 2 -22 0 -3 -1 -3 -5 0 -5 4 -9 5 -12 4 -3 -1 -3 -4 1
-6 5 -5 2 -7 -3 -3 -3 3 -4 4 -4 7 0 5 6 7 15 4 2 0 2 0 2 2 -1 1 -1 4 -2 8 0
5 0 6 2 8 3 4 7 4 10 1z" fill="white"/>
<path d="M436 361 l-5 -3 5 -6 c4 -2 9 -6 12 -8 10 -6 22 -5 22 3 0 3 -3 10
-7 13 -2 3 -3 3 -8 2 -4 0 -7 0 -10 1 l-4 2 -5 -4z" fill="white"/>
<path d="M319 353 c-2 -1 -4 -3 -5 -4 -2 -3 -2 -3 -1 -5 3 -3 4 -3 8 2 4 5 6
4 4 0 -1 -4 0 -6 3 -6 3 0 10 7 10 9 0 5 -13 8 -19 4z" fill="white"/>
<path d="M419 352 l-6 -3 4 -4 c8 -7 20 -11 28 -10 5 1 5 3 0 6 -2 1 -7 5 -10
8 -4 3 -7 6 -8 6 -1 0 -4 -2 -8 -3z" fill="white"/>
<path d="M368 352 c-4 -3 -5 -6 -2 -9 3 -3 5 -3 8 2 2 5 4 5 3 1 0 -7 5 -8 10
-2 5 5 5 5 2 8 -2 1 -4 2 -10 2 -7 0 -8 0 -11 -2z" fill="white"/>
<path d="M341 345 c0 0 -1 -1 -1 -2 0 -1 2 -1 10 -1 9 0 10 0 10 2 0 1 -2 2
-9 2 -5 0 -9 0 -10 -1z" fill="white"/>
<path d="M69 344 c-5 -1 -10 -3 -13 -7 -8 -7 -8 -9 -8 -123 l1 -97 3 -4 c1 -3
3 -6 4 -8 1 -4 2 -5 4 -2 3 2 12 1 16 -1 4 -3 5 -3 5 1 1 3 8 11 12 13 2 0 5
1 8 2 l5 1 -1 102 c0 66 0 104 -1 107 -2 10 -11 16 -24 17 -3 0 -8 0 -11 -1z
m2 -6 c0 -1 -1 -3 -2 -5 -2 -2 -3 -4 -3 -5 -1 -22 -1 -25 -3 -23 -1 0 -1 20 0
25 0 3 4 8 6 8 1 0 2 0 2 0z m19 -3 c0 0 -1 -3 -2 -4 -1 -3 -1 -6 -1 -22 0
-12 -1 -19 -1 -20 -2 -2 -3 2 -3 20 0 18 0 20 2 24 2 4 5 6 5 2z m-15 -53 c3
-2 4 -6 3 -9 -3 -5 -8 -6 -12 -3 -8 6 1 16 9 12z m-7 -30 c0 -3 -1 -13 -1 -23
0 -16 -1 -19 -2 -19 -1 0 -2 2 -2 12 0 11 1 31 3 33 0 1 1 1 2 1 1 0 1 -1 0
-4z m23 -25 c0 -22 -1 -28 -3 -26 0 1 0 50 1 51 0 1 1 1 1 1 1 -1 1 -7 1 -26z
m-15 -41 c0 -7 0 -11 -1 -12 -2 -1 -3 2 -3 11 0 10 1 12 3 12 1 0 1 -2 1 -11z
m17 -39 c0 -18 -1 -23 -3 -20 0 1 0 39 1 40 1 3 2 -2 2 -20z m-19 19 c2 0 5
-4 5 -7 0 -4 -4 -7 -8 -7 -4 0 -8 4 -8 7 0 4 6 9 9 7 1 0 2 0 2 0z m-3 -41 c0
-10 -1 -12 -2 -12 -1 0 -2 2 -2 12 0 14 0 17 3 14 1 -2 1 -5 1 -14z" fill="white"/>
<path d="M198 341 c-7 -2 -10 -5 -12 -9 -2 -4 -2 -11 -3 -121 0 -64 0 -121 0
-126 0 -9 0 -11 1 -11 7 -1 10 -2 13 -5 3 -1 5 -3 5 -3 1 0 1 5 1 12 0 9 1 12
2 12 1 0 1 -3 1 -17 l0 -16 6 0 c3 0 8 -1 10 -2 2 0 3 -1 3 -1 1 0 1 3 2 6 2
6 6 11 10 14 2 1 2 3 2 36 0 20 0 57 1 83 2 107 2 133 1 137 -2 5 -7 10 -13
11 -8 3 -23 2 -30 0z m6 -6 c1 0 0 -1 -1 -3 -1 -1 -1 -5 -1 -14 0 -12 0 -14
-3 -12 -2 2 -2 23 1 27 1 3 3 4 4 2z m23 -27 c0 -21 -1 -27 -2 -24 -1 0 -1 47
-1 49 0 1 1 1 2 0 1 -2 1 -4 1 -25z m-14 -31 c4 -4 1 -11 -6 -11 -2 0 -4 0 -5
1 -2 2 -2 8 0 10 2 3 8 3 11 0z m14 -34 c0 -20 0 -23 -1 -23 -2 0 -2 3 -2 22
-1 23 0 24 1 24 1 -1 2 -8 2 -23z m-29 -1 c1 -2 1 -11 2 -19 0 -12 0 -16 -1
-16 -1 -1 -2 -1 -2 0 0 0 -1 9 -2 20 0 17 0 19 1 19 1 0 2 -1 2 -4z m23 -56
c-1 -23 -2 -25 -3 -3 -1 16 0 21 2 21 1 0 1 -3 1 -18z m-20 -16 c-2 -6 -2 -8
-2 -34 0 -21 -1 -28 -2 -29 0 -1 -1 -1 -1 -1 -1 0 -1 13 -1 28 0 24 0 28 1 34
3 7 5 11 6 9 1 0 0 -3 -1 -7z m25 -12 c3 -3 3 -6 0 -9 -4 -3 -9 -3 -12 0 -3 4
-3 5 0 8 3 4 8 4 12 1z m-3 -55 c0 -18 0 -27 -1 -28 -1 0 -1 0 -2 1 0 0 0 12
0 27 0 22 0 26 2 26 1 0 1 -4 1 -26z" fill="white"/>
<path d="M504 341 c-11 -4 -19 -11 -21 -17 -1 -2 -1 -25 -1 -58 0 -53 -1 -165
-3 -205 l0 -20 4 -4 c2 -2 6 -6 8 -9 l4 -5 0 18 c0 10 1 19 1 20 3 3 3 -1 2
-20 0 -11 0 -20 0 -20 1 0 2 2 3 4 3 7 12 13 18 13 7 0 9 -6 6 -14 -1 -2 -2
-4 -2 -5 0 0 3 1 6 2 5 2 7 2 10 1 5 -1 7 -5 7 -9 -1 -3 -9 -11 -12 -11 -3 0
-2 3 2 5 5 4 7 9 3 11 -5 2 -14 -2 -23 -9 -5 -4 -5 0 0 7 6 9 8 13 6 16 -1 3
-5 3 -10 -1 -6 -3 -10 -9 -12 -16 0 -3 -1 -6 -1 -6 -2 -1 -4 1 -5 5 -1 4 -6
11 -10 17 -4 5 -10 8 -14 8 -3 0 -3 0 -3 -4 0 -4 0 -4 9 -19 4 -6 7 -11 7 -12
-2 -2 -4 -1 -7 1 -11 8 -30 12 -30 6 0 -2 4 -5 10 -8 l7 -3 54 0 55 0 0 6 c-2
11 -7 17 -15 20 -14 4 -29 16 -39 29 -9 12 -13 21 -10 25 1 1 5 3 7 3 4 0 13
-3 18 -7 3 -2 5 -3 5 -2 1 0 1 2 1 5 0 4 0 5 -5 9 -9 9 -19 28 -18 34 2 7 8 8
18 3 3 -2 6 -3 6 -3 0 0 0 3 0 6 0 6 0 6 -7 14 -7 9 -13 21 -16 31 -1 6 -1 7
0 10 1 3 3 4 5 5 3 0 10 -2 15 -7 2 -2 4 -3 5 -3 1 2 4 131 2 143 -1 9 -4 13
-11 18 -4 2 -6 3 -15 3 -7 0 -12 -1 -14 -1z m8 -12 c1 -3 2 -7 2 -11 0 -6 0
-7 -2 -7 -1 0 -2 2 -2 8 0 3 -1 8 -2 10 -3 4 -2 7 1 5 1 -1 2 -3 3 -5z m19
-45 c0 -23 0 -42 0 -44 -1 -1 -2 -2 -3 -2 -1 0 -1 3 0 26 0 15 0 28 1 29 0 1
0 9 0 18 0 12 0 15 1 15 1 -1 1 -10 1 -42z m-33 31 c1 -8 -1 -45 -3 -46 0 -1
-1 -1 -1 0 -1 0 -1 12 0 26 0 19 1 25 2 25 0 0 1 -2 2 -5z m19 -46 c5 -4 1
-12 -5 -12 -5 0 -8 2 -8 6 0 7 8 10 13 6z m-14 -31 c0 -1 0 -8 -1 -16 0 -8 -1
-22 -2 -31 0 -10 -1 -17 -1 -18 -3 -1 -3 3 -2 33 1 17 2 31 3 32 0 1 2 1 3 0z
m20 -29 c0 -6 -1 -7 -2 -7 -1 0 -2 1 -2 5 0 8 1 11 2 11 1 -1 2 -3 2 -9z m-15
-59 c3 -3 3 -6 0 -9 -5 -6 -15 0 -12 7 2 5 8 6 12 2z m-9 -45 c0 -10 0 -14 -1
-15 -1 0 -2 -1 -2 0 -1 1 -1 26 0 28 2 4 3 1 3 -13z" fill="white"/>
<path d="M391 340 c-1 -1 -2 -2 -4 -2 l-2 -1 0 -27 c0 -14 -1 -70 -1 -122 0
-53 0 -103 -1 -112 0 -8 0 -15 0 -16 0 -1 3 -1 5 -1 l6 0 0 17 c1 24 2 54 3
151 2 112 2 109 0 112 -3 2 -4 3 -6 1z" fill="white"/>
<path d="M319 338 c-2 0 -3 0 -3 -1 -1 0 -1 -50 -2 -111 0 -62 -1 -128 -1
-147 l-1 -36 4 -5 c1 -2 3 -5 3 -5 1 -1 1 -1 3 0 5 3 12 0 14 -6 1 -4 -1 -5
-3 -2 -4 6 -7 7 -10 3 -1 -1 -3 -2 -3 -2 -1 0 -2 2 -4 5 -6 9 -14 15 -17 12
-2 -1 -1 -5 3 -9 4 -6 2 -8 -3 -3 -6 6 -7 12 -2 16 2 1 3 1 6 0 2 -1 4 -1 5
-1 0 1 2 59 2 77 l0 10 -19 0 c-10 0 -25 1 -33 1 l-14 1 0 -26 c0 -14 0 -27 0
-29 0 -3 0 -4 4 -4 8 -1 12 -6 12 -14 0 -3 0 -5 1 -5 0 0 2 1 5 2 8 4 16 2 16
-5 0 -6 -9 -16 -11 -13 -1 1 0 2 3 6 3 3 4 5 4 7 0 2 -1 3 -3 3 -5 0 -11 -2
-14 -6 -2 -1 -4 -3 -5 -3 -1 0 -1 1 -1 5 2 10 2 13 -2 16 -4 5 -13 4 -18 -3
-4 -4 -6 -12 -5 -16 0 -4 -1 -4 -6 -1 -3 3 -6 4 -8 5 -6 0 -9 -1 -9 -6 -1 -3
-1 -6 -2 -7 0 -2 0 -2 3 -2 8 0 15 -6 15 -12 0 -3 0 -3 4 -3 7 1 10 0 14 -3 6
-4 9 -10 9 -16 l0 -5 64 0 c44 0 63 0 62 1 -1 2 1 6 4 7 3 2 8 0 11 -3 l3 -3
4 2 c5 3 9 2 10 -2 l0 -2 23 0 c21 0 22 0 20 2 -9 4 -12 10 -6 14 5 3 13 2 22
-1 3 -2 7 -3 7 -3 0 1 -1 3 -3 6 -6 7 -8 13 -8 18 -1 5 2 7 8 7 l4 -1 0 33 c1
19 1 38 1 43 l0 9 -32 1 c-18 0 -35 1 -38 1 -3 0 -5 0 -6 -1 0 0 0 -16 -1 -35
l-1 -35 4 -4 c2 -3 4 -7 5 -10 2 -8 2 -7 3 -6 7 6 22 1 22 -7 0 -4 -2 -8 -5
-8 -1 0 -1 1 0 2 1 6 1 8 -3 10 -5 3 -10 2 -15 -3 -5 -4 -5 -3 -5 6 -1 5 -1 7
-4 10 -3 6 -6 7 -13 7 -7 0 -11 -3 -14 -8 -2 -5 -2 -6 -1 -9 0 -3 1 -5 1 -6 2
-3 -2 -3 -5 -1 -4 3 -7 4 -10 1 -1 -1 -2 -2 -2 -4 1 -4 -1 -5 -4 -3 -2 2 -3 2
-6 2 -1 -1 -3 -1 -3 0 -1 0 -1 11 -1 24 0 16 0 23 1 24 2 0 2 -4 3 -24 l0 -20
3 -1 c2 0 3 1 5 4 3 3 4 3 9 3 4 1 4 1 4 3 0 4 2 10 7 15 l5 4 1 127 c1 70 1
132 1 138 l0 11 -3 1 c-3 1 -8 2 -26 2 -12 1 -16 1 -18 -1 -4 -1 -7 -1 -10 1
-2 0 -3 1 -3 1 0 0 -1 0 -2 -1z m18 -15 c0 -10 -1 -13 -3 -12 -1 1 -1 18 0 21
2 4 3 1 3 -9z m31 -20 c0 -13 0 -26 0 -28 1 -5 -2 -6 -3 -2 -1 3 -1 52 0 54 2
5 3 0 3 -24z m-42 -4 c1 -3 1 -12 0 -20 0 -11 -1 -14 -2 -14 -1 0 -1 4 -1 21
0 16 0 20 1 20 1 0 2 -3 2 -7z m18 -15 c0 -1 0 -8 -1 -14 -4 -22 -2 -49 4 -55
1 -2 2 -2 3 -1 4 3 5 17 4 36 0 7 1 9 3 5 2 -5 1 -32 -1 -37 -5 -14 -13 -10
-17 8 -3 12 -1 47 3 59 0 3 3 2 2 -1z m-18 -86 c0 -18 0 -34 -1 -35 0 -1 -1
-2 -1 -2 -1 1 -1 10 -1 35 0 19 0 35 1 35 0 1 1 1 1 1 1 -1 1 -9 1 -34z m40
-35 c0 -32 0 -38 -3 -36 -1 1 0 69 1 70 0 1 1 1 1 1 1 -1 1 -10 1 -35z m-21
10 c1 -2 -1 -59 -2 -62 0 -1 -1 -2 -2 -2 -1 0 -1 1 -1 10 1 5 1 20 2 33 0 17
1 23 2 23 0 0 1 -1 1 -2z m-16 -55 c0 -4 0 -15 -1 -24 -1 -10 -1 -26 -2 -35 0
-13 -1 -17 -1 -17 -1 0 -2 1 -2 1 -1 3 2 78 4 80 1 2 2 0 2 -5z m124 -11 c4
-4 2 -11 -5 -25 -2 -4 -4 -8 -4 -9 0 -1 2 0 4 2 5 3 12 4 14 2 4 -4 1 -13 -7
-19 -3 -3 -5 -4 -6 -2 0 1 1 2 3 4 8 6 11 14 5 14 -4 0 -13 -6 -16 -11 -1 -2
-3 -3 -4 -3 -3 0 -1 6 7 22 6 13 8 19 6 22 -2 4 -9 1 -14 -5 -4 -5 -7 -15 -8
-26 -1 -5 -2 -8 -3 -8 0 0 -3 3 -4 7 -4 7 -9 14 -10 14 -1 0 -1 -1 -1 -2 0 -3
4 -15 6 -17 1 -3 1 -6 0 -6 -2 0 -5 5 -8 13 -3 11 -2 17 2 17 2 0 9 -7 11 -12
l2 -3 1 3 c6 22 13 31 23 31 3 0 4 -1 6 -3z m-183 -4 l4 -5 3 4 c4 5 8 5 11 1
2 -2 2 -3 2 -8 -1 -8 -5 -15 -7 -11 -1 1 0 2 0 4 4 6 3 14 0 14 -2 0 -4 -2 -7
-8 -3 -7 -5 -7 -6 -1 -1 8 -8 13 -10 7 -1 -2 -1 -3 1 -7 2 -8 2 -9 1 -9 -6 1
-8 17 -4 21 4 3 7 3 12 -2z m91 -25 c-1 -32 -2 -33 -3 -1 0 24 1 30 3 27 1 -1
1 -9 0 -26z m-70 -62 c2 -1 4 -3 5 -5 l2 -2 3 2 c5 4 10 5 13 2 1 -1 2 -3 2
-4 0 -3 -4 -8 -6 -8 -3 0 -3 0 0 5 4 6 -2 7 -8 0 -4 -4 -6 -4 -7 -1 -3 6 -8 9
-12 7 -2 0 -2 -4 0 -6 2 -3 1 -4 -1 -4 -1 0 -3 1 -4 3 -5 7 4 15 13 11z M399 1 c-1 -1 -1 -1 2 -1 2 0 3 0 3 1 0 1 -3 1 -5 0z" fill="white"/>
<path d="M0 276 c0 -38 0 -38 2 -35 4 7 11 9 16 5 2 -3 3 -5 0 -11 -1 -2 -2
-5 -2 -5 0 0 2 0 5 0 6 0 8 -2 8 -6 0 -6 -8 -12 -10 -9 -1 0 1 2 3 4 6 5 1 9
-7 6 -5 -2 -6 0 -2 8 3 6 3 7 2 9 -2 4 -7 2 -10 -4 -1 -2 -3 -4 -4 -4 -1 0 -1
-4 -1 -28 l0 -29 2 1 c5 1 8 -1 9 -4 1 -3 0 -12 -4 -20 l-2 -5 5 1 c7 0 10 -2
10 -7 0 -3 -4 -11 -6 -11 -2 0 -2 2 0 5 5 9 -1 13 -9 7 -2 -1 -3 -2 -4 -2 -1
0 -1 -6 -1 -21 0 -20 1 -24 2 -15 1 5 7 11 13 15 5 2 7 2 14 2 5 0 8 0 11 -1
1 -1 3 -2 4 -2 1 0 1 4 1 11 l0 12 -3 1 c-12 2 -17 6 -19 16 -2 10 1 23 7 27
1 1 5 2 8 2 l6 0 0 31 -1 31 -5 2 c-6 1 -12 6 -13 11 -1 3 -1 8 -1 13 1 7 1
10 3 14 4 5 4 6 1 8 -3 3 -7 3 -9 0 -4 -3 -5 -3 -5 2 0 4 -3 10 -5 12 -2 0 -4
1 -6 1 l-3 0 0 -38z" fill="white"/>
<path d="M34 292 c-3 -3 -7 -12 -5 -13 0 -1 4 -1 8 -1 l7 1 0 8 0 8 -4 0 c-2
0 -4 -1 -6 -3z" fill="white"/>
<path d="M110 294 c0 0 0 -4 0 -8 l0 -7 13 -1 c8 0 14 0 15 0 3 -2 -1 -3 -15
-3 l-14 0 0 -11 c0 -8 0 -11 1 -11 1 -1 17 -1 36 -1 l34 -1 0 9 0 9 -7 -1 c-7
0 -15 1 -15 3 0 0 4 1 11 1 l11 1 -1 9 c0 6 0 11 -1 11 -1 1 -68 2 -68 1z m38
-34 c6 -2 2 -3 -10 -3 -11 0 -14 1 -12 3 0 1 19 1 22 0z" fill="white"/>
<path d="M246 292 c0 0 0 -7 0 -14 l0 -14 12 0 c13 0 15 -1 14 -3 -1 -1 -5 -1
-13 -1 -6 0 -12 0 -13 0 -1 0 -1 -1 -1 -5 l1 -5 20 -1 c11 0 25 -1 32 -1 l12
0 0 13 0 14 -13 0 c-12 0 -26 1 -29 1 0 0 -1 1 -1 2 0 1 3 1 22 1 l21 0 0 6
c0 4 0 6 -1 6 -2 1 -62 2 -63 1z" fill="white"/>
<path d="M402 290 c0 0 0 -3 0 -7 0 -6 0 -7 2 -7 1 -1 14 -1 29 -1 14 0 26 -1
27 -1 0 -1 1 -2 0 -2 0 -1 -9 -1 -29 -1 l-29 1 0 -5 c-1 -3 -1 -6 0 -6 0 -1 7
-1 15 -1 12 0 16 0 17 -1 2 -3 0 -3 -16 -3 -8 0 -15 0 -16 0 -1 0 -1 -2 -1 -5
0 -3 0 -5 1 -5 1 -1 12 -1 25 -1 12 -1 29 -1 36 -2 l14 0 0 23 0 23 -19 0
c-27 1 -55 2 -56 1z" fill="white"/>
<path d="M549 281 l1 -7 15 -1 c13 0 16 0 16 -2 0 -1 -3 -1 -16 -1 l-16 0 0
-13 c0 -8 0 -14 0 -14 0 -1 12 -1 26 -1 l25 0 0 6 0 7 -16 0 c-13 0 -15 1 -15
2 0 1 2 2 15 2 l16 0 0 14 c0 8 0 14 0 14 0 0 -12 0 -26 1 l-25 0 0 -7z" fill="white"/>
<path d="M69 279 c-2 -1 -2 -3 -2 -4 0 -2 1 -2 4 -2 2 0 3 0 3 2 0 4 -3 6 -5
4z" fill="white"/>
<path d="M205 274 c-2 -1 -2 -2 -1 -4 3 -3 8 1 6 4 -1 2 -3 2 -5 0z" fill="white"/>
<path d="M28 270 c1 -7 4 -11 9 -13 6 -2 7 -1 7 9 l0 9 -8 0 -8 0 0 -5z" fill="white"/>
<path d="M510 267 c-4 -2 -1 -8 3 -7 2 1 3 4 2 5 -1 2 -4 3 -5 2z" fill="white"/>
<path d="M109 248 c0 0 0 -13 0 -29 0 -22 0 -29 1 -29 1 -1 11 -1 22 -2 11 0
27 0 34 -1 9 0 13 0 14 1 0 0 0 14 0 30 l0 29 -22 0 c-36 1 -48 2 -49 1z m32
-31 c2 -1 4 -4 5 -6 1 -4 1 -4 5 -1 5 5 13 1 13 -6 0 -2 0 -4 -1 -4 -1 0 -1 0
-2 0 0 0 -1 1 -1 4 0 3 -1 4 -4 4 -2 0 -3 0 -6 -3 -3 -5 -5 -5 -6 0 -3 9 -8
14 -14 13 -4 -1 -6 -3 -8 -8 -2 -4 -3 -5 -4 -2 -1 2 1 7 5 10 3 3 4 3 9 3 4 0
5 0 9 -4z" fill="white"/>
<path d="M245 215 c-1 -16 -1 -30 -1 -30 1 0 10 -1 20 -1 11 -1 25 -1 33 -2
l13 0 0 31 0 31 -18 0 c-10 1 -25 1 -32 1 l-15 0 0 -30z m26 4 c2 -1 4 -3 5
-4 2 -4 3 -4 5 0 2 2 6 3 9 1 4 -1 7 -12 4 -15 -2 -1 -3 0 -3 4 0 5 -2 9 -4 9
-2 0 -4 -2 -6 -7 -1 -5 -4 -5 -6 0 -1 6 -4 8 -8 8 -3 0 -4 0 -4 -4 0 -2 1 -5
2 -8 2 -4 3 -5 2 -6 -3 -2 -8 7 -8 14 0 8 5 11 12 8z" fill="white"/>
<path d="M402 240 c-1 0 -1 -14 -1 -31 l0 -29 15 -1 c9 0 26 -1 38 -1 l23 -1
0 31 0 31 -15 0 c-35 2 -60 2 -60 1z m57 -30 c3 -4 3 -9 0 -15 -2 -4 -4 -6 -5
-4 -1 0 0 2 1 5 4 7 2 14 -4 12 -5 -1 -9 -6 -11 -13 0 -5 -3 -5 -5 -1 -1 4 -5
8 -8 8 -5 0 -5 -5 -1 -10 2 -3 2 -6 -1 -4 -5 1 -8 12 -4 15 2 3 9 3 13 -1 3
-3 3 -3 6 2 4 8 14 10 19 6z" fill="white"/>
<path d="M549 238 c-1 0 -1 -9 -1 -19 -1 -11 -1 -25 -2 -32 l0 -13 3 -4 c7 -9
12 -22 14 -36 2 -13 2 -13 3 -11 2 3 1 20 -2 27 -1 4 -1 9 -1 21 -1 17 1 25 8
38 5 10 9 14 13 12 5 -1 9 -17 8 -34 -1 -18 -5 -30 -16 -43 l-6 -7 0 -15 c0
-18 1 -36 2 -36 1 0 2 3 2 16 1 6 2 15 2 19 2 10 10 26 18 35 l6 8 0 36 0 37
-18 0 c-10 1 -21 1 -25 1 -5 1 -8 0 -8 0z" fill="white"/>
<path d="M579 215 c-3 -3 -8 -13 -10 -21 -3 -10 -4 -26 -3 -34 1 -10 2 -9 4 4
1 7 6 26 9 32 1 3 3 4 3 1 0 0 -2 -7 -3 -13 -3 -11 -6 -25 -8 -37 -1 -5 1 -3
5 4 6 8 9 15 10 26 2 11 2 20 1 30 -2 10 -5 12 -8 8z" fill="white"/>
<path d="M109 185 c0 -1 0 -5 0 -9 l1 -7 14 -1 c8 0 15 -1 16 -1 0 -1 0 -1 -1
-2 0 -1 -4 -1 -15 -1 l-14 1 -1 -10 c0 -6 0 -9 1 -10 1 0 15 -1 31 -2 42 -2
37 -2 38 2 l0 4 -15 0 c-14 0 -18 1 -16 3 0 1 4 1 16 1 l15 -1 1 2 c0 2 0 4 0
6 l0 4 -10 0 c-8 0 -10 1 -10 2 0 1 1 2 10 2 l10 0 0 7 0 8 -6 0 c-8 0 -48 2
-57 3 -6 0 -7 0 -8 -1z" fill="white"/>
<path d="M33 184 c-2 -1 -5 -7 -6 -12 l-1 -4 9 0 c5 0 9 0 9 0 0 1 0 4 0 9 l0
8 -4 0 c-3 0 -5 -1 -7 -1z" fill="white"/>
<path d="M525 183 c-1 0 2 -4 5 -8 8 -10 16 -23 23 -38 3 -6 6 -12 7 -12 1 -2
1 3 -1 11 -4 21 -14 35 -28 45 -5 3 -5 3 -6 2z" fill="white"/>
<path d="M245 180 c-1 0 -1 -3 -1 -7 l0 -7 8 0 c23 0 36 -2 37 -3 0 -1 -3 -1
-22 -1 l-23 1 0 -12 0 -12 4 0 c2 0 16 -1 32 -1 16 -1 29 -1 29 -1 2 0 1 11 0
11 -7 0 -28 1 -29 2 -3 1 0 2 15 2 l15 0 0 13 0 13 -4 0 c-8 0 -51 2 -56 2 -3
1 -5 1 -5 0z" fill="white"/>
<path d="M520 179 c0 -7 8 -23 17 -35 5 -7 15 -16 16 -15 1 2 -30 52 -32 52
-1 0 -1 -1 -1 -2z" fill="white"/>
<path d="M400 163 l0 -12 5 0 c2 -1 8 -1 13 -1 9 0 12 -1 11 -3 -1 -1 -5 -1
-15 0 l-14 0 0 -7 0 -7 6 0 c4 0 21 -1 38 -1 17 -1 32 -2 32 -1 1 0 1 8 0 9
-1 0 -6 1 -11 1 -11 0 -12 0 -11 2 0 1 4 1 11 1 l12 0 0 14 0 15 -34 1 c-18 0
-36 1 -38 1 l-5 0 0 -12z m51 -2 c1 0 1 -1 1 -2 -1 -1 -6 -1 -17 0 -15 0 -19
1 -16 3 1 1 31 0 32 -1z" fill="white"/>
<path d="M1 173 c-1 0 -1 -4 -1 -13 l0 -12 2 3 c3 6 6 18 6 21 -1 2 -3 3 -7 1z" fill="white"/>
<path d="M27 161 c1 -4 3 -8 6 -10 3 -2 10 -4 11 -3 1 0 1 4 1 8 l0 8 -10 0
-9 0 1 -3z" fill="white"/>
<path d="M69 161 c-2 -2 -2 -4 0 -5 4 -3 8 3 4 6 -2 1 -3 1 -4 -1z" fill="white"/>
<path d="M217 155 c-1 -2 1 -5 3 -5 3 1 5 4 3 5 -2 3 -5 2 -6 0z" fill="white"/>
<path d="M595 152 c-5 -7 -11 -20 -14 -28 -2 -8 -4 -24 -4 -25 1 0 6 10 6 12
0 0 4 8 9 17 8 17 8 18 8 23 l0 6 -5 -5z" fill="white"/>
<path d="M500 148 c-3 -4 2 -7 5 -4 1 1 2 2 1 3 -1 2 -4 3 -6 1z" fill="white"/>
<path d="M110 140 c0 -1 0 -6 0 -11 l0 -10 4 0 c7 -1 15 -7 18 -12 3 -4 3 -6
4 -12 0 -4 0 -7 0 -8 0 0 2 1 5 1 10 2 21 -5 23 -14 0 -3 1 -4 2 -4 0 0 3 1 6
2 l6 2 0 31 c1 18 1 32 0 32 0 0 -14 1 -31 2 -17 1 -32 1 -33 2 -2 0 -3 0 -4
-1z m54 -25 c2 -2 3 -8 1 -10 -3 -2 -4 0 -3 3 0 3 -1 6 -4 6 -1 0 -3 -1 -4 -3
-2 -2 -3 -3 -4 -2 -2 2 0 6 4 8 4 1 8 1 10 -2z" fill="white"/>
<path d="M598 134 c0 -1 -5 -10 -9 -20 -5 -9 -8 -17 -8 -18 1 0 5 4 10 9 l9 9
0 12 c0 6 0 11 0 11 0 0 -1 -1 -2 -3z" fill="white"/>
<path d="M544 124 c0 -5 0 -5 6 -12 8 -10 11 -15 14 -28 1 -6 3 -12 4 -12 1 0
1 3 -1 20 -1 5 -1 10 -1 13 0 6 -4 13 -9 17 -3 1 -6 4 -8 5 -2 2 -4 3 -4 3 -1
0 -1 -2 -1 -6z" fill="white"/>
<path d="M526 123 c0 0 2 -2 4 -5 6 -5 18 -20 25 -29 6 -9 7 -9 4 1 -6 15 -20
30 -31 33 -1 1 -2 1 -2 0z" fill="white"/>
<path d="M521 122 c-2 -4 6 -20 16 -31 7 -8 23 -19 23 -15 0 1 -27 35 -34 42
-4 4 -5 5 -5 4z" fill="white"/>
<path d="M20 118 c-10 -3 -14 -9 -14 -20 -1 -7 -1 -8 -4 -6 -2 2 -2 2 -2 -45
l0 -47 35 0 c31 0 34 0 33 2 -2 0 -3 1 -4 1 -2 0 -3 3 -1 3 3 1 8 -1 10 -4 2
-2 7 -3 7 -1 0 1 1 3 3 4 5 4 14 2 14 -3 0 -2 5 -2 74 -2 l75 1 0 4 c1 11 -11
18 -23 14 -3 -1 -5 -1 -6 -1 0 1 0 3 1 4 1 5 1 6 -1 9 -2 3 -9 5 -14 4 -5 -1
-6 0 -3 6 6 11 3 22 -7 27 -9 4 -22 2 -28 -4 -4 -5 -7 -4 -5 2 2 5 -2 13 -8
17 -5 2 -13 2 -17 -1 -5 -3 -7 -2 -4 4 4 9 -1 21 -11 26 -5 3 -6 3 -12 3 -13
-1 -22 -7 -23 -17 -1 -3 -2 -5 -2 -6 -1 0 -3 1 -5 3 -6 7 -14 7 -20 1 -3 -4
-5 -3 -5 2 0 5 -5 14 -9 17 -7 5 -17 6 -24 3z m37 -58 c2 -3 2 -5 0 -11 0 -2
-1 -4 -1 -5 1 0 3 0 5 1 6 2 11 0 13 -4 1 -4 0 -6 -6 -11 -2 -2 -3 -2 -4 -1
-1 1 0 2 3 5 4 3 4 4 3 6 -2 3 -10 2 -15 -2 -5 -5 -6 -3 -3 7 2 5 3 9 3 10 0
2 -2 4 -4 4 -4 0 -11 -11 -11 -18 0 -6 -4 -5 -5 1 -1 5 -7 14 -11 16 -10 5
-12 -6 -3 -16 5 -4 5 -7 0 -4 -3 2 -6 5 -8 10 -3 5 -3 9 0 12 2 2 3 2 8 2 6
-1 10 -4 13 -11 l3 -4 2 5 c2 6 5 9 10 10 3 1 6 0 8 -2z m75 -15 c2 -1 3 -4 4
-7 1 -5 3 -6 5 -3 2 2 7 4 10 4 4 0 7 -3 7 -7 0 -7 -5 -14 -8 -11 -1 1 -1 2 1
3 3 4 4 7 3 9 -2 4 -7 2 -14 -5 -6 -5 -7 -5 -7 4 0 6 -3 11 -6 12 -6 2 -9 -5
-7 -14 1 -3 1 -3 -1 -3 -4 1 -5 12 -1 18 3 5 9 5 14 0z" fill="white"/>
<path d="M596 104 c-3 -2 -8 -7 -11 -10 -12 -9 -13 -15 -12 -41 0 -9 1 -17 1
-18 1 -1 1 -1 1 1 0 6 2 21 3 25 4 10 11 22 18 28 l4 4 0 7 0 8 -4 -4z" fill="white"/>
<path d="M595 82 c-6 -7 -9 -12 -13 -23 -2 -6 -3 -11 -3 -14 l1 -4 4 8 c4 8
11 19 14 23 2 1 2 3 2 9 l0 6 -5 -5z" fill="white"/>
<path d="M514 79 c0 0 4 -4 9 -8 14 -11 21 -18 29 -28 9 -11 11 -13 10 -9 -5
16 -20 34 -35 41 -6 3 -13 5 -13 4z" fill="white"/>
<path d="M543 78 c-1 0 -1 -2 -1 -4 0 -3 1 -4 5 -8 7 -7 13 -18 16 -28 2 -4 4
-10 4 -12 1 -3 2 -5 3 -5 1 0 1 2 0 7 -2 38 -3 40 -8 42 -1 1 -6 3 -10 5 -4 2
-8 4 -8 4 0 0 -1 0 -1 -1z" fill="white"/>
<path d="M511 73 c2 -3 8 -12 13 -19 8 -9 27 -24 32 -24 2 0 2 0 0 3 -4 5 -26
27 -34 35 -9 7 -12 8 -11 5z" fill="white"/>
<path d="M597 65 c-3 -6 -15 -26 -15 -27 0 -1 0 -1 1 -1 0 0 14 10 16 12 1 1
1 4 1 10 l0 9 -3 -3z" fill="white"/>
<path d="M597 42 c-1 0 -5 -3 -9 -6 -9 -5 -10 -6 -12 -11 -1 -4 -1 -16 0 -20
1 -2 1 -2 3 3 4 8 8 13 15 17 l6 4 0 8 c0 7 -1 8 -3 5z" fill="white"/>
<path d="M595 21 c-4 -3 -11 -11 -14 -17 -2 -4 -2 -4 0 -4 1 0 5 2 9 5 5 3 8
5 9 5 1 0 1 3 1 7 l0 7 -5 -3z" fill="white"/>
<path d="M594 3 l-4 -3 5 0 c5 0 5 0 5 3 0 4 0 4 -6 0z" fill="white"/>
<path d="M380 4 c-1 -3 1 -4 6 -4 l6 0 -3 3 c-3 2 -8 3 -9 1z" fill="white"/>
<path d="M85 2 l-2 -2 5 0 c5 0 6 1 4 3 -2 2 -4 1 -7 -1z" fill="white"/>
</g>
</svg>
