<?xml version="1.0" encoding="UTF-8"?>
<svg width="600" height="800" viewBox="0 0 600 800" fill="none" xmlns="http://www.w3.org/2000/svg">
<g transform="translate(0,800) scale(1,-1)">
<path d="M61 792 c-12 -10 -31 -29 -34 -35 -5 -7 -3 -6 5 2 12 14 22 24 32 32
4 4 9 8 9 8 1 1 0 1 -1 1 -2 0 -6 -3 -11 -8z M125 787 c-11 -13 -15 -18 -10 -15 2 1 18 19 23 26 2 2 2 2 1 2 -1 0
-7 -6 -14 -13z M172 793 c-3 -3 -9 -10 -12 -15 -27 -36 -28 -37 -55 -61 -11 -9 -24
-21 -30 -27 -9 -10 -20 -24 -20 -27 0 -2 2 0 9 8 8 11 27 29 44 44 15 12 32
30 40 40 12 18 23 32 29 38 6 6 6 7 4 7 -2 0 -5 -2 -9 -7z M255 792 c-12 -9 -22 -15 -36 -20 -14 -6 -31 -15 -34 -19 -1 -2 1 -2
6 1 8 5 18 10 32 16 15 6 24 11 33 18 3 2 8 6 11 8 5 4 5 4 2 4 -2 0 -6 -2
-14 -8z M409 799 c0 0 5 -4 10 -8 9 -7 16 -11 41 -24 20 -11 26 -17 39 -35 6
-9 9 -13 10 -13 2 0 1 2 -6 13 -13 19 -26 31 -47 40 -13 6 -22 12 -34 21 -6 4
-11 7 -12 7 -1 0 -2 0 -1 -1z M507 790 c6 -6 16 -16 22 -25 6 -8 14 -18 17 -21 14 -17 23 -32 32
-56 5 -13 8 -19 8 -15 0 3 -7 24 -11 32 -2 4 -6 11 -8 15 -14 24 -61 80 -68
80 -2 0 0 -2 8 -10z M554 794 c2 -4 10 -13 16 -22 7 -8 12 -15 13 -15 2 3 -28 43 -32 43
-2 0 -1 -1 3 -6z M105 782 c-12 -17 -23 -31 -38 -46 -20 -22 -30 -36 -39 -61 -6 -15
-13 -41 -10 -41 0 0 2 6 4 13 4 16 11 36 20 50 8 15 12 20 27 36 15 15 22 24
34 42 8 12 12 18 11 20 -1 0 -5 -6 -9 -13z M322 787 c-25 -3 -40 -9 -74 -31 -22 -14 -37 -23 -50 -29 -39 -17
-59 -30 -79 -51 -31 -32 -51 -69 -62 -117 -4 -21 -6 -26 -16 -56 -9 -28 -12
-41 -15 -67 -3 -23 -4 -69 -2 -91 2 -32 12 -118 14 -129 5 -27 15 -44 45 -74
14 -15 18 -19 17 -20 -1 -1 -4 -1 -7 -1 -4 0 -7 1 -14 4 -7 3 -11 4 -17 5 -5
0 -9 1 -10 2 0 1 -3 7 -4 13 -5 14 -10 27 -16 41 -9 20 -12 33 -14 61 -2 24
-3 25 -3 2 1 -27 4 -41 14 -62 2 -6 8 -21 12 -34 11 -33 17 -43 31 -57 16 -16
34 -25 67 -35 27 -9 34 -11 46 -17 12 -6 16 -9 27 -19 11 -9 19 -14 32 -19 5
-1 10 -4 12 -4 2 -1 5 -2 7 -2 3 0 3 0 -3 4 -4 1 -12 4 -17 6 -10 4 -20 10
-31 19 -4 4 -10 9 -13 11 -12 8 -33 17 -53 23 -18 5 -24 7 -34 11 -17 8 -35
21 -44 32 -5 6 -13 18 -13 20 0 1 2 1 4 1 3 0 9 -2 16 -5 10 -4 13 -4 19 -4 8
-1 10 1 10 5 0 2 -2 4 -9 10 l-8 9 8 3 c10 4 15 6 15 9 0 0 -1 2 -1 4 l-2 3 5
1 c4 0 8 0 24 -2 5 0 6 0 5 1 -2 2 -12 4 -25 4 l-12 0 -7 4 c-8 6 -21 10 -31
11 -12 0 -12 0 -17 11 -2 5 -4 10 -4 11 0 1 3 2 29 3 13 1 27 2 34 3 6 1 24 3
40 5 17 2 30 4 31 5 2 0 4 1 6 1 2 0 4 1 5 2 l3 2 -1 26 c0 28 0 36 -5 46 -3
6 -6 10 -14 14 -11 7 -16 7 -55 7 -20 -1 -47 -1 -61 -2 -14 -1 -26 -1 -27 -1
0 1 -1 8 -2 16 -2 21 -2 84 0 99 l2 11 8 0 c9 1 13 2 10 3 -1 1 -5 1 -9 1 l-8
1 0 5 c0 2 0 5 1 7 l0 2 102 0 c78 0 103 0 104 -1 2 -1 -1 -8 -4 -10 -3 -2 -5
-3 -16 -3 -7 0 -13 0 -13 0 -1 0 -1 0 -1 -1 0 -1 8 -2 17 -2 6 0 9 0 13 2 8 4
8 4 8 46 0 46 -1 56 -8 67 -7 10 -18 18 -32 20 -17 4 -75 5 -120 2 -8 -1 -16
-1 -16 -1 -1 1 3 12 5 15 l1 2 46 0 c45 0 47 0 48 2 3 3 4 14 3 43 0 26 0 27
-3 30 l-2 4 3 18 c2 12 4 18 5 19 1 2 27 14 29 14 1 0 0 -2 -2 -4 -4 -7 -11
-20 -13 -27 -1 -5 -1 -12 -2 -50 0 -44 0 -45 2 -47 2 -2 9 -3 38 -3 19 -1 21
-1 24 -3 3 -2 4 -6 2 -9 -2 -2 -10 -4 -17 -4 -5 0 -5 -2 -1 -3 3 0 15 0 17 1
2 1 2 0 2 -14 0 -8 0 -15 1 -16 1 -1 2 15 2 28 0 17 5 41 13 56 18 37 66 49
99 23 6 -4 12 -11 15 -17 l1 -2 -11 1 c-14 0 -15 0 -15 -7 0 -2 -1 -5 -1 -5
-1 -1 -6 -1 -11 -1 -10 0 -10 0 -11 2 -1 4 -3 5 -11 5 -7 0 -8 1 -8 3 -1 4 -3
5 -11 5 -4 0 -7 0 -7 1 0 1 12 13 17 15 5 3 7 6 3 4 -15 -5 -28 -20 -34 -38
-6 -15 -9 -37 -9 -63 l0 -14 -5 -2 c-3 -2 -6 -3 -7 -4 -2 -3 -2 -10 0 -13 2
-2 3 -2 15 -2 16 0 16 2 1 2 -9 0 -11 1 -13 2 -4 4 -1 10 7 12 3 1 20 1 66 1
l61 1 0 -7 0 -6 -3 0 c-2 -1 -15 -1 -29 -1 -51 0 -63 -2 -79 -10 -14 -7 -20
-14 -24 -28 -2 -8 -3 -64 -1 -69 3 -6 1 -6 70 -6 56 0 63 0 64 -2 0 0 0 -4 -1
-8 l-1 -6 -20 -1 c-18 0 -23 -1 -16 -2 2 -1 10 -1 19 -1 10 0 15 0 15 -1 0 -1
-2 -6 -5 -12 -6 -11 -9 -16 -23 -34 -4 -6 -7 -11 -7 -11 0 -6 24 27 33 44 10
20 11 33 11 118 0 84 -1 104 -9 124 -7 22 -19 35 -36 44 -10 5 -16 6 -29 6
-14 0 -21 -1 -33 -7 -7 -3 -10 -6 -16 -12 -5 -5 -10 -11 -12 -15 -5 -8 -10
-25 -12 -35 -1 -4 -1 -8 -2 -8 0 0 -7 3 -7 4 -1 1 -1 20 -1 42 l0 41 -2 1 c-1
1 -4 2 -6 2 -2 0 -6 0 -8 1 l-5 0 -1 5 c-1 7 -3 8 -19 8 -6 0 -12 1 -12 1 0 1
7 15 10 20 6 9 10 12 23 20 6 3 19 11 29 18 13 8 19 11 21 11 5 0 23 -6 37
-13 21 -10 43 -28 56 -45 4 -5 10 -14 15 -20 15 -22 27 -30 57 -38 8 -2 15 -5
16 -5 0 -1 1 -11 1 -28 l1 -27 -3 -3 c-4 -6 -5 -8 -5 -13 l1 -5 -4 -2 c-6 -3
-11 -8 -14 -15 -1 -4 -3 -5 -5 -6 -4 -1 -5 -4 -5 -8 0 -2 1 -3 3 -5 2 -1 3 -2
2 -3 -1 -4 -4 -17 -5 -25 -2 -18 1 -32 9 -39 1 -2 3 -4 3 -5 0 -3 -3 -10 -6
-14 -4 -5 -2 -9 5 -13 7 -3 16 -5 29 -5 17 0 32 4 35 10 1 3 1 4 -2 9 0 1 -2
4 -3 8 l-3 6 5 4 c2 3 5 8 6 11 2 5 2 7 2 20 -1 11 -1 17 -3 24 l-3 9 2 3 c2
2 3 4 3 6 0 2 -4 7 -6 7 -1 0 -2 3 -4 6 -3 7 -7 11 -14 15 -4 2 -4 3 -3 7 0 5
-1 10 -5 13 l-2 2 0 25 c1 14 1 25 1 26 2 2 18 -9 26 -17 10 -11 16 -22 33
-59 27 -58 28 -62 32 -80 4 -19 4 -39 0 -68 -2 -20 -2 -49 1 -75 4 -24 5 -53
3 -64 -1 -10 -4 -21 -5 -22 -1 -1 -1 7 -1 19 0 21 -2 45 -4 58 -5 25 -19 52
-32 62 -9 8 -12 8 -21 0 -19 -15 -28 -30 -38 -58 -3 -9 -7 -21 -10 -27 -15
-35 -18 -42 -21 -53 -2 -6 -5 -16 -7 -23 -2 -11 -2 -15 -2 -34 0 -21 0 -23 2
-28 3 -7 6 -12 14 -17 9 -7 28 -27 27 -29 0 0 -5 0 -11 1 -12 1 -18 4 -30 14
-5 4 -10 8 -11 9 -5 2 -3 0 3 -6 l7 -6 -5 0 c-7 0 -29 2 -32 3 -7 3 -5 9 6 26
9 14 13 24 14 31 0 6 -1 4 -4 -4 -3 -9 -6 -14 -14 -27 -4 -6 -8 -12 -8 -15
l-1 -4 -6 1 c-10 1 -38 1 -40 -1 -2 0 2 -1 17 -1 11 -1 21 -1 23 -2 2 0 6 -2
8 -4 2 -2 4 -4 5 -4 0 0 10 -1 21 -2 l21 -2 7 -4 c8 -5 14 -6 24 -6 l8 1 0 3
c0 4 -1 5 -8 13 -4 5 -8 9 -9 10 -1 0 -1 1 -1 1 0 2 18 0 28 -3 12 -5 29 -9
37 -10 3 0 6 -1 6 -1 0 -1 -14 -15 -23 -22 -4 -3 -9 -8 -13 -11 -8 -7 -15 -12
-30 -18 -8 -4 -17 -8 -25 -14 -20 -14 -25 -15 -55 -21 -23 -4 -28 -5 -43 -10
-15 -4 -21 -5 -38 -4 -18 1 -46 1 -46 0 -1 -1 2 -2 12 -2 4 0 15 0 23 -1 21
-2 33 -1 48 4 13 4 29 7 51 11 22 3 31 7 48 19 13 9 17 11 29 16 14 5 19 9 42
29 22 19 28 25 35 41 6 12 8 20 12 44 4 23 6 34 12 49 10 28 11 40 5 86 -3 32
-4 61 -1 86 6 51 3 70 -19 117 -5 9 -11 24 -15 33 -17 36 -25 49 -37 61 -10
10 -20 15 -43 22 -21 5 -31 9 -41 15 -10 7 -18 16 -28 31 -15 21 -27 34 -49
48 -16 11 -32 18 -49 23 l-4 1 4 3 c7 3 18 7 26 9 13 2 11 3 35 -18 23 -21 24
-22 24 -20 0 2 -25 26 -36 36 l-5 4 12 0 c14 0 16 -1 21 -7 2 -2 11 -14 21
-26 10 -13 21 -27 25 -32 14 -14 31 -24 58 -34 27 -9 36 -13 48 -22 20 -15 31
-36 43 -85 5 -16 8 -27 16 -45 11 -25 15 -41 18 -66 1 -13 2 -14 3 -12 1 2 -2
29 -5 41 -2 11 -7 24 -14 41 -8 18 -10 23 -15 44 -7 30 -14 48 -25 67 -13 22
-27 40 -45 54 -10 8 -27 24 -43 42 -11 12 -18 18 -30 25 -15 8 -32 15 -49 18
-12 1 -33 2 -43 1z m51 -7 c18 -5 31 -10 46 -20 6 -4 15 -13 37 -34 16 -16 34
-34 41 -40 11 -10 22 -22 21 -24 0 0 -3 2 -5 4 -11 7 -23 13 -47 21 -31 11
-49 23 -64 41 -17 19 -43 54 -41 54 0 0 6 -1 12 -2z m-209 -90 c-2 -9 -3 -16
-4 -17 0 -1 -3 -1 -6 -1 -4 0 -5 0 -6 2 0 4 -2 4 -12 4 l-8 1 2 2 c7 7 35 27
36 25 0 0 -1 -8 -2 -16z m54 1 c1 0 1 -21 2 -46 0 -54 1 -49 -11 -49 -4 0 -7
1 -8 1 0 1 0 22 0 48 0 40 0 46 1 47 2 1 15 0 16 -1z m-21 -45 c0 -25 0 -47
-1 -47 0 -2 -4 -2 -7 -1 -1 2 -2 4 -2 33 0 33 1 59 3 60 1 1 3 1 4 1 l3 0 0
-46z m43 30 c2 -2 2 -77 0 -79 -1 -1 -13 -1 -15 0 -2 0 -2 5 -2 41 0 28 0 40
1 40 3 1 15 0 16 -2z m-111 -40 l0 -38 -7 -1 c-4 0 -8 0 -8 1 -1 0 -1 14 -2
33 l0 32 6 6 c4 5 6 6 8 6 l3 0 0 -39z m16 38 c1 -1 1 -11 1 -38 0 -20 0 -37
-1 -37 0 -2 -2 -2 -6 -2 -2 0 -5 0 -6 1 0 2 0 74 0 76 1 1 10 1 12 0z m19 -9
c1 -1 2 -2 2 -4 0 -2 -1 -2 -5 -2 -2 0 -6 0 -8 1 -4 0 -4 0 -4 3 0 2 1 3 2 4
2 1 11 0 13 -2z m-55 -46 l0 -21 -7 -1 c-5 0 -8 0 -8 1 -1 1 -1 10 -1 21 0 21
-1 19 10 33 l6 7 0 -9 c1 -5 1 -19 0 -31z m50 36 c3 -1 6 -2 6 -2 1 -1 1 -13
1 -27 -1 -30 0 -29 -10 -29 l-6 1 -1 27 c0 16 0 29 0 30 1 1 3 1 10 0z m305
-38 c0 -23 0 -26 -2 -27 0 0 -1 0 -2 0 0 1 -1 13 -1 27 l0 26 2 0 3 0 0 -26z
m-374 -19 c-1 -1 -3 -1 -9 -1 -6 0 -8 0 -8 2 0 1 8 18 13 27 l4 7 0 -17 c0 -9
0 -17 0 -18z m221 33 c0 -1 0 -21 -1 -46 l0 -44 -7 0 -6 1 -1 16 c-1 23 -1 73
0 73 1 1 14 1 15 0z m-18 -44 c0 -24 0 -44 -1 -45 0 -1 -3 -1 -7 -1 -6 0 -7 1
-8 3 -2 5 -1 38 3 55 2 11 10 31 12 31 1 0 1 -14 1 -43z m79 -1 l0 -44 -6 0
-6 0 -1 43 c0 23 0 43 0 44 1 1 3 1 7 1 l6 0 0 -44z m12 42 c1 -1 3 -4 4 -7
l3 -6 -1 -24 c-1 -14 -1 -30 -1 -37 l0 -12 -7 0 -6 0 -1 41 c0 23 0 43 0 44 1
1 2 2 4 2 2 0 4 0 5 -1z m-55 -5 c0 -1 1 -3 1 -6 0 -5 -1 -5 -10 -4 l-6 0 0 6
0 5 7 0 c4 0 7 -1 8 -1z m26 -13 l0 -7 -10 0 c-6 -1 -11 -1 -11 0 -1 0 -1 3
-1 7 0 5 1 6 4 6 2 0 7 1 11 1 l7 0 0 -7z m-25 -35 l0 -33 -7 -1 c-4 0 -7 0
-8 1 -1 1 -1 7 -1 34 l0 33 8 0 8 0 0 -34z m65 19 c0 -4 2 -17 2 -29 1 -19 1
-21 0 -23 -1 -1 -3 -1 -3 -1 -2 1 -2 5 -2 32 0 31 1 36 3 21z m-40 -21 c1 -14
1 -27 0 -28 l-1 -3 -10 0 -10 0 -1 27 c0 15 0 28 0 29 1 1 4 1 11 1 l11 0 0
-26z m111 12 c3 -2 5 -7 4 -10 0 -4 -2 -4 -2 0 0 4 -2 6 -7 6 -4 0 -5 -3 -5
-8 1 -3 1 -3 -1 -3 -1 0 -2 2 -2 3 -2 5 3 13 9 13 1 0 2 -1 4 -1z m-2 -9 c2
-1 2 -2 1 -3 -3 -3 -7 0 -6 4 1 2 3 1 5 -1z m-271 -2 l5 -1 0 -7 0 -6 -8 -2
c-12 -2 -25 -7 -27 -9 0 -1 -1 -5 -1 -7 0 -6 0 -6 -7 -6 -5 0 -5 0 -6 3 -1 5
-3 6 -11 6 l-7 0 0 5 c-1 9 -1 9 -17 9 -8 -1 -16 -2 -20 -3 -7 -1 -8 -2 -8 -4
0 -2 -1 -3 -2 -4 -3 0 -4 1 -4 4 0 1 -1 4 -2 5 -2 3 -3 3 -10 3 l-7 -1 1 3 c1
7 2 10 4 11 5 3 112 3 127 1z m22 -5 c8 -4 14 -10 18 -17 4 -9 5 -16 6 -50 0
-27 0 -32 -1 -35 -2 -4 -5 -6 -9 -4 -2 1 -2 2 -2 40 0 44 1 41 -9 42 -10 0
-10 1 -9 4 0 4 -1 7 -5 9 -3 1 -3 1 -3 7 0 4 0 7 1 7 1 1 5 0 13 -3z m261 -5
c5 -2 9 -6 12 -12 2 -4 2 -5 1 -6 -2 -1 -40 -1 -49 0 -7 0 -8 1 -3 9 4 5 7 8
14 10 7 3 19 2 25 -1z m-400 -10 c1 -1 1 -3 1 -4 l0 -3 -9 0 -9 1 0 3 c0 4 2
5 10 5 5 0 6 0 7 -2z m51 -45 l0 -46 -9 -1 -8 0 0 46 c0 26 0 47 1 47 0 1 4 1
8 1 l8 0 0 -47z m-20 1 c0 -45 0 -49 -3 -47 -1 0 -1 18 -1 41 0 44 0 44 -6 44
-1 0 -3 0 -5 1 -2 1 -2 1 -1 2 1 1 12 4 14 4 1 -1 2 -6 2 -45z m97 44 c1 -1 1
-12 1 -45 0 -23 0 -44 -1 -44 0 -2 -2 -2 -6 -2 -5 0 -6 0 -7 2 -2 3 -1 87 0
89 1 0 4 1 7 1 2 0 5 -1 6 -1z m-17 -45 c0 -40 0 -45 -2 -46 -1 -1 -2 -1 -3 0
-1 1 -2 4 -2 35 0 39 0 37 -8 38 l-5 1 0 5 0 5 8 3 c4 2 9 3 10 3 l2 0 0 -44z
m-89 34 c2 -1 2 -6 2 -40 0 -29 0 -39 -1 -40 -1 -1 -14 -1 -16 0 -2 0 -2 5 -2
40 0 29 0 40 1 41 2 2 14 1 16 -1z m-22 0 c1 -1 3 -76 1 -79 -1 -2 -2 -2 -11
-2 l-9 1 -1 27 c-1 35 0 52 2 53 2 1 16 1 18 0z m381 -2 c9 0 22 0 27 1 4 0
10 0 11 0 3 -1 4 -4 2 -6 -2 -1 -5 -2 -18 -2 -15 -1 -49 0 -52 2 -2 0 -2 4 -1
6 1 1 3 1 7 1 3 -1 14 -1 24 -2z m-234 -1 c1 0 1 -18 1 -39 l0 -37 -8 0 -7 0
-1 37 c0 21 0 39 1 40 0 1 1 1 7 1 3 -1 7 -1 7 -2z m-78 0 c1 -1 1 -11 1 -39
l0 -38 -2 -1 c-2 0 -5 0 -8 0 l-4 1 -1 39 0 39 6 0 c4 0 7 -1 8 -1z m29 -9 c2
-1 2 -3 2 -6 l0 -3 -13 0 c-13 0 -14 0 -14 2 0 3 1 7 3 7 4 1 21 1 22 0z m263
-1 c2 0 2 -1 0 -6 -5 -18 -7 -37 -3 -45 3 -6 8 -12 14 -14 6 -2 24 -1 29 1 8
4 14 13 15 24 0 6 -2 22 -5 33 l-2 6 3 1 c3 2 5 -1 8 -12 3 -14 4 -32 1 -39
-5 -14 -19 -22 -39 -21 -10 1 -18 4 -24 10 -6 5 -9 11 -10 20 -1 12 3 37 7 42
1 1 4 1 6 0z m45 -2 c2 -7 7 -32 7 -37 0 -6 -3 -14 -8 -18 l-3 -3 0 2 c-1 2
-2 4 -4 4 l-3 2 2 5 c3 8 2 14 -4 28 -5 8 -6 11 -7 10 -1 0 -4 -6 -7 -13 -6
-10 -6 -12 -6 -17 0 -4 0 -8 1 -10 2 -3 2 -3 0 -6 -4 -4 -6 -4 -9 -1 -7 6 -8
21 -3 42 2 7 3 13 4 13 0 1 9 1 20 1 18 0 20 0 20 -2z m-430 -65 c-1 -1 -3 -1
-7 -1 -9 0 -11 1 -11 4 0 3 8 30 14 47 l4 10 0 -29 c0 -16 0 -30 0 -31z m345
57 c2 -1 1 -20 -1 -21 -1 0 -4 0 -7 -1 l-6 0 0 -5 c0 -3 -1 -5 -2 -6 -3 -4 -5
-1 -5 7 l0 7 -5 2 c-6 3 -15 5 -19 5 -17 1 -18 0 -18 -14 0 -10 0 -11 -2 -11
-5 0 -6 2 -6 7 0 5 0 5 -4 7 -8 4 -20 6 -25 6 -5 -1 -7 -2 -7 -5 0 -4 -2 -5
-7 -3 -3 0 -7 1 -9 0 l-4 0 3 4 c6 8 22 16 36 19 13 2 85 4 88 2z m-221 -3 c1
-1 1 -8 1 -27 0 -21 0 -25 -2 -26 -1 -2 -3 -2 -13 -2 l-12 1 -1 26 c0 18 0 28
1 29 1 1 24 0 26 -1z m288 -5 c0 -1 3 -5 5 -9 3 -6 3 -8 3 -13 -1 -5 -4 -10
-6 -10 -1 0 -2 1 -2 5 -1 3 -2 6 -2 6 -1 0 -1 -3 -1 -6 0 -7 0 -8 -5 -6 -5 3
-6 9 -4 17 1 3 9 18 10 18 0 0 1 -1 2 -2z m-109 -32 c-1 -13 -1 -33 -1 -45 l0
-20 -8 0 c-6 0 -8 0 -8 2 -1 2 -1 83 0 85 0 2 2 2 9 2 l8 0 0 -24z m14 20 c2
-1 4 -2 4 -3 0 -1 -3 -1 -7 -1 l-8 0 0 3 c0 1 0 3 1 3 1 1 6 0 10 -2z m-62 -2
c1 -1 1 -12 1 -42 0 -33 0 -40 -1 -41 -1 -1 -4 -1 -8 -1 l-5 1 -1 42 0 42 6 0
c4 0 7 -1 8 -1z m11 -3 c4 -2 5 -3 5 -6 0 -5 -2 -6 -8 -7 l-4 0 0 7 c0 7 0 8
2 8 1 -1 3 -2 5 -2z m79 -1 c2 -3 2 -72 0 -77 -1 -2 -4 -3 -8 -2 l-3 0 0 39
c0 22 0 40 1 40 1 2 9 1 10 0z m-24 -2 c2 -3 0 -7 -2 -7 -2 -1 -2 -2 -2 -17 0
-9 0 -24 -1 -33 0 -9 0 -17 0 -18 0 -2 -1 -2 -5 -2 l-5 1 0 38 c0 20 0 38 1
38 1 2 13 1 14 0z m-91 -3 c1 -3 1 -7 0 -9 -1 -1 -4 -1 -9 -1 l-7 0 0 4 c2 7
2 8 9 8 5 0 6 0 7 -2z m8 -36 c0 -34 0 -40 -3 -37 -1 0 -2 66 -1 73 0 1 1 1 2
1 1 -1 2 -3 2 -37z m92 27 c1 -2 1 -55 0 -61 -1 -4 -1 -5 -5 -5 -3 0 -5 0 -5
1 -2 2 -1 64 0 66 2 2 9 1 10 -1z m-48 -1 c0 -1 0 -15 0 -32 0 -27 0 -31 -2
-32 -2 -1 -18 -1 -20 0 -2 2 -2 60 0 62 1 0 5 1 10 2 11 1 11 1 12 0z m-51 -6
c0 -2 0 -15 0 -30 0 -23 -1 -27 -2 -28 -1 -1 -4 -1 -7 0 -10 1 -10 0 -10 31 0
15 1 27 1 28 1 1 4 1 9 1 7 0 8 0 9 -2z m191 -1 c1 -1 1 -1 0 -3 -2 -1 -4 -1
-13 -1 -12 0 -15 0 -10 4 2 2 4 2 12 2 8 0 10 0 11 -2z m-30 -15 c11 -4 25 -3
37 1 4 1 4 1 6 -1 8 -9 -1 -14 -25 -14 -15 0 -25 2 -27 5 -1 2 -1 3 1 6 1 3 2
5 3 5 0 0 3 -1 5 -2z m50 -16 c-1 -2 -6 -5 -12 -7 -9 -2 -26 -2 -35 -1 -13 3
-19 7 -16 10 1 1 3 1 10 -1 15 -4 33 -4 46 1 6 2 7 1 7 -2z m24 -49 c5 -4 11
-10 15 -17 l2 -4 0 -35 0 -35 -10 0 c-5 0 -11 0 -12 0 l-2 1 0 29 0 29 12 -1
c10 0 11 0 10 1 0 2 -4 3 -15 3 -3 1 -6 1 -6 1 -1 0 -1 4 -1 8 0 10 1 11 9 11
l7 -1 -3 2 c-3 3 -11 3 -14 0 -2 -1 -2 -2 -2 -40 0 -35 -1 -45 -2 -40 -1 1 -1
16 -1 33 0 25 -1 32 -2 33 -1 1 -5 2 -10 2 l-9 1 11 11 c14 14 15 14 23 8z
m-18 -25 c3 -3 3 -8 -1 -9 -3 -1 -8 -1 -10 0 -1 1 -1 7 0 9 1 3 8 3 11 0z
m-15 -2 c1 -4 -1 -60 -2 -61 0 -1 -3 -1 -6 0 l-5 0 0 23 c0 26 0 27 6 36 3 6
6 6 7 2z m59 -16 c2 -6 5 -14 5 -18 2 -9 4 -29 3 -31 0 -1 -11 -2 -13 0 -1 2
-2 49 0 57 0 6 1 6 5 -8z m-43 3 c1 0 1 -12 1 -24 0 -18 0 -24 -1 -25 -1 0 -4
0 -7 0 -5 0 -6 0 -7 3 0 3 1 45 1 47 1 1 4 1 7 1 4 0 6 0 6 -2z m-33 -47 c-1
-1 -11 0 -12 0 0 0 3 9 6 20 l7 19 0 -19 c0 -15 0 -20 -1 -20z m-310 6 c3 -1
6 -1 6 -2 1 0 1 -26 0 -27 -2 -1 -3 2 -3 6 0 5 -1 5 -10 5 -5 0 -6 0 -8 3 l-3
3 -25 0 c-31 0 -29 1 -29 -11 l0 -8 -2 0 c-2 1 -4 1 -5 1 -2 1 -3 2 -4 4 -1 3
-3 4 -24 5 -9 0 -17 1 -17 1 -1 1 -2 5 -3 10 0 8 0 8 2 8 1 1 24 1 50 2 25 1
48 1 50 1 4 1 20 0 25 -1z m17 -7 c7 -5 10 -10 12 -23 2 -12 3 -26 2 -43 0
-13 -1 -15 -2 -15 -1 0 -3 0 -3 1 -1 1 -1 12 -1 25 0 12 0 24 -1 26 -1 4 -2 5
-11 6 l-3 1 0 13 c0 14 0 14 7 9z m337 -7 c22 -1 40 -2 41 -3 1 0 1 -2 1 -8
l0 -7 -5 0 c-3 0 -16 1 -28 3 -33 3 -48 4 -62 4 -6 0 -12 0 -12 1 0 2 4 10 6
12 1 2 3 2 10 2 5 -1 27 -2 49 -4z m-394 -3 c2 -1 2 -52 1 -70 l0 -9 -4 -1 -4
0 0 29 c0 16 0 30 -1 31 0 0 -5 2 -10 3 -4 1 -9 3 -10 3 -1 1 -1 4 -1 7 0 4 1
7 1 8 2 2 27 1 28 -1z m22 -6 l0 -7 -7 -2 c-11 -2 -10 -2 -10 7 0 4 0 8 1 8 0
1 4 1 8 1 l8 0 0 -7z m18 0 c1 0 1 -7 1 -35 l0 -34 -6 -1 c-10 -2 -9 -5 -9 35
l0 36 2 0 c2 1 9 0 12 -1z m-95 -2 c3 -1 2 -1 -5 -1 -4 1 -8 1 -9 2 -2 1 7 0
14 -1z m-18 -2 c7 -2 8 -2 8 -6 0 -5 0 -5 -8 -5 -10 0 -11 1 -11 8 0 5 0 5 11
3z m27 -38 c0 -20 0 -37 -1 -37 0 0 -3 -1 -8 -1 l-7 0 0 36 c0 30 0 36 1 37 3
0 11 2 14 2 1 0 1 -1 1 -37z m382 36 c2 0 2 -5 2 -46 0 -32 0 -46 -1 -47 -1 0
-27 -6 -29 -6 -2 0 -2 1 -2 11 0 21 3 38 8 55 5 15 11 30 13 32 1 2 6 3 9 1z
m27 -1 c18 -1 71 -6 72 -7 1 -1 1 -4 0 -11 0 -10 -1 -12 -6 -12 -3 0 -4 2 -4
9 0 2 -1 5 -2 6 -1 2 -2 2 -12 2 -13 -1 -30 -4 -32 -7 0 0 -1 -3 -1 -6 -1 -3
-1 -6 -2 -7 -1 0 -4 -1 -7 -2 -11 -1 -12 -2 -14 -12 -1 -4 -2 -7 -2 -6 0 0 -1
8 -2 17 -1 19 -2 22 -7 21 -3 -1 -3 -3 0 -3 4 -1 3 -4 0 -4 -2 0 -3 0 -3 10 0
6 0 12 0 13 1 1 2 1 7 1 3 -1 10 -1 15 -2z m-391 -5 c6 -1 12 -2 12 -3 0 0
-10 -1 -17 -1 -8 -1 -10 1 -9 4 1 2 0 2 14 0z m88 -1 c1 -1 1 -6 1 -27 0 -31
1 -29 -10 -29 l-7 0 0 29 c0 16 0 29 1 29 1 2 13 0 15 -2z m-38 -29 c0 -23 0
-29 -1 -30 -1 0 -4 -1 -8 -2 -6 0 -7 0 -8 1 -1 1 -1 14 -1 30 0 21 0 28 1 29
2 1 15 3 16 2 1 0 1 -14 1 -30z m-92 23 l5 0 0 -31 c0 -33 0 -31 -6 -31 -5 0
-6 4 -9 36 -2 18 -3 25 -2 26 1 1 5 1 12 0z m60 -2 c1 -2 1 -11 0 -29 l0 -26
-5 -1 c-4 -1 -5 -1 -6 0 -1 1 -1 14 -1 29 0 30 0 30 7 30 3 0 4 0 5 -3z m-14
-26 c0 -20 0 -27 -1 -29 -1 -2 -2 -2 -10 -2 l-7 0 -1 12 c0 6 0 19 1 28 1 19
0 18 12 18 l6 0 0 -27z m441 23 c-1 0 -4 -1 -7 -2 -6 -1 -20 -2 -19 0 1 0 6 1
11 2 13 1 16 1 15 0z m5 -13 c-1 0 -5 -1 -10 -3 -7 -1 -9 -2 -10 -4 0 -1 -2
-17 -3 -34 -2 -18 -4 -33 -4 -34 -3 -3 -3 -1 -3 9 1 13 7 68 8 70 0 1 3 2 10
4 5 1 10 2 11 2 1 1 2 -9 1 -10z m-31 6 c2 0 5 0 5 -1 1 0 -1 -13 -2 -14 -1
-1 -14 1 -14 2 -1 1 1 12 2 14 0 1 1 1 2 1 1 -1 4 -1 7 -2z m-43 -10 c1 -4 1
-10 1 -12 0 -5 -1 -5 -4 -5 l-3 0 -1 12 0 12 3 0 c3 0 4 -1 4 -7z m86 0 c0 -2
-5 -3 -11 -3 -8 0 -9 2 -1 3 3 0 6 0 7 0 2 1 4 1 5 0z m-58 -5 c0 -2 -6 -2
-11 0 -2 0 -2 1 3 1 6 1 8 1 8 -1z m42 -2 c1 -1 1 -6 0 -24 -1 -13 -3 -28 -3
-34 -1 -12 -2 -13 -8 -13 -9 2 -8 1 -8 14 1 12 5 50 6 56 l0 3 6 0 c3 0 7 -1
7 -2z m15 0 c0 -1 0 -3 -1 -4 0 -1 -2 -14 -5 -29 -4 -30 -6 -38 -8 -37 -1 0
-1 7 2 43 2 28 1 27 6 28 7 1 7 1 6 -1z m-44 -1 c3 -1 5 -2 5 -4 0 -2 -6 -59
-6 -60 -2 -2 -15 0 -17 2 -1 1 4 42 8 60 0 3 1 4 10 2z m-15 -2 c1 -1 0 -7 -3
-30 -4 -30 -5 -31 -6 -31 -2 -1 -13 1 -15 2 0 1 -1 2 -1 4 0 3 9 52 10 55 1 2
1 2 7 1 4 0 7 -1 8 -1z m-23 -13 c1 -2 1 -6 -1 -16 -3 -16 -3 -19 -5 -19 -3 0
-4 4 -4 19 0 15 1 15 3 17 3 1 6 1 7 -1z m-5 -43 c0 -2 1 -4 2 -5 2 -2 15 -4
18 -3 1 1 3 1 6 -1 2 0 8 -1 12 -1 7 0 10 -1 13 -2 4 -2 15 -4 20 -4 1 0 1 -3
0 -3 0 -1 -15 2 -33 4 -17 3 -41 7 -52 9 -12 2 -22 3 -22 4 -1 0 1 1 14 4 7 2
15 3 17 3 l5 0 0 -5z m-387 -7 c9 -2 19 -7 25 -13 3 -3 5 -6 5 -7 -1 0 -6 -3
-12 -5 -7 -3 -11 -4 -12 -3 -2 1 -24 28 -24 30 0 1 8 1 18 -2z m366 -2 c6 0
23 -3 37 -6 23 -3 51 -8 52 -8 2 0 1 -3 -4 -10 -4 -8 -4 -8 -8 -8 -7 0 -24 4
-38 9 -13 4 -14 4 -27 5 -14 1 -15 1 -21 8 -4 3 -8 10 -8 12 0 0 1 1 3 0 1 0
8 -1 14 -2z M509 759 c3 -6 23 -36 29 -43 18 -24 27 -44 34 -72 5 -20 7 -20 3 0
-6 27 -15 48 -33 72 -5 6 -13 17 -18 25 -10 16 -14 20 -15 20 -1 0 -1 -1 0 -2z M42 752 c-14 -17 -32 -46 -27 -46 0 0 2 3 4 7 6 11 14 23 24 35 4 5
8 10 8 10 0 2 -3 0 -9 -6z M136 712 c-9 -9 -17 -17 -16 -17 2 0 18 14 27 24 7 8 9 11 7 11 0 0
-8 -8 -18 -18z M330 694 c0 -2 8 -7 20 -12 32 -14 37 -18 43 -35 2 -3 3 -2 2 2 -2
13 -13 23 -36 33 -6 2 -14 6 -19 8 -10 6 -10 5 -10 4z M407 688 c0 -1 10 -10 17 -15 8 -5 18 -9 24 -11 6 -1 4 1 -2 3 -9 4
-20 10 -28 16 -11 8 -11 8 -11 7z M89 674 c-16 -19 -26 -33 -29 -44 -4 -10 -1 -9 4 3 6 12 11 19 22 33
4 5 7 10 8 11 4 5 0 3 -5 -3z M43 638 c-4 -8 -10 -24 -14 -37 -8 -29 -12 -39 -24 -61 -4 -8 -5 -11
-5 -14 0 -4 0 -4 7 10 15 31 16 34 27 69 2 7 6 19 9 25 4 13 4 13 3 13 0 0 -2
-2 -3 -5z M503 640 c1 -1 7 -8 13 -14 13 -14 20 -24 24 -34 1 -5 3 -7 3 -6 1 1
1 3 -1 8 -3 11 -16 28 -31 41 -8 7 -12 9 -8 5z M591 601 c0 -1 2 -9 4 -17 l5 -16 0 6 c0 5 -1 10 -4 18 -3 10 -5 14
-5 9z M500 585 c8 -21 12 -37 14 -56 1 -7 2 -13 2 -14 0 -1 1 0 1 2 3 8 -6
50 -13 66 -6 11 -8 12 -4 2z M39 554 c-1 -1 -2 -4 -2 -7 -1 -4 -5 -12 -8 -19 -7 -16 -13 -34 -13
-39 0 -4 1 -3 5 11 2 5 5 14 8 20 6 13 10 23 11 30 0 4 0 7 -1 4z M536 520 c-1 -1 2 -19 6 -36 2 -8 4 -18 5 -21 1 -5 1 -5 1 -2 0 5 -4
29 -8 45 -2 13 -3 16 -4 14z M99 444 c-29 -3 -43 -8 -54 -21 -6 -6 -10 -13 -13 -24 -2 -6 -2 -10
-3 -35 0 -16 0 -30 0 -32 l1 -2 70 0 c38 1 77 1 85 2 15 0 16 0 18 -2 3 -3 3
-6 0 -9 -2 -2 -3 -2 -8 -2 -3 0 -7 0 -9 -1 -7 -1 -4 -2 6 -2 9 0 10 0 13 3 4
3 4 9 0 14 -3 3 -4 4 -3 6 1 4 1 35 0 46 -2 25 -9 38 -24 47 -13 9 -26 12 -52
13 -10 0 -23 -1 -27 -1z m57 -6 c10 -3 18 -7 25 -12 8 -6 8 -7 -13 -7 -19 0
-20 0 -20 -6 0 -5 -2 -6 -9 -6 -8 0 -9 -1 -10 -7 l0 -5 -10 0 -10 1 -1 4 c-1
2 -2 5 -2 6 -1 1 -5 1 -10 2 -9 0 -9 0 -9 3 0 4 -2 5 -15 5 -10 0 -13 0 -18
-3 -10 -3 -11 -3 -13 -3 -1 1 -1 2 2 5 9 14 25 22 48 24 6 1 12 1 15 1 2 1 12
1 23 1 15 -1 20 -1 27 -3z m14 -62 c0 -22 0 -40 -1 -40 0 -1 -1 -1 -2 -1 -1 0
-1 5 -1 34 0 38 0 36 -8 37 -5 1 -7 3 -7 6 1 3 4 4 13 4 l6 0 0 -40z m19 31
c0 -11 -1 -11 -9 -11 l-6 1 -1 8 c0 5 0 9 0 10 1 1 3 1 8 1 l8 0 0 -9z m-107
4 c2 -1 2 -6 2 -39 l0 -38 -7 -1 -7 0 0 10 c-1 13 -1 68 0 69 1 2 11 1 12 -1z
m-16 -37 c0 -21 0 -39 -1 -40 -1 -5 -2 5 -2 36 0 21 0 35 -1 36 -1 1 -3 2 -5
3 -2 0 -4 1 -3 1 1 1 5 2 9 2 l3 0 0 -38z m131 26 c1 -7 3 -52 2 -57 -1 -5 -3
-7 -5 -7 -2 0 -2 1 -2 38 0 33 0 37 2 35 0 -2 2 -5 3 -9z m-147 6 c9 -1 10 -2
9 -8 l0 -5 -12 0 c-7 0 -12 1 -12 1 -1 1 2 10 3 12 1 1 2 1 12 0z m54 -33 c1
-16 1 -32 0 -35 l0 -5 -7 0 c-5 0 -8 0 -9 1 -1 1 -1 10 -1 35 l0 34 8 0 9 0 0
-30z m57 29 c2 -2 2 -3 1 -34 l0 -33 -7 -1 c-3 0 -6 0 -7 0 -1 1 -1 10 -1 29
0 18 0 29 -1 30 -1 2 -2 2 -7 2 -7 0 -8 1 -7 6 l1 2 13 0 c10 0 14 0 15 -1z
m27 -37 c1 -15 1 -28 0 -29 0 -1 -2 -1 -8 -1 l-7 0 0 28 c0 16 0 29 1 29 0 1
3 1 7 1 l7 0 0 -28z m-63 22 l0 -4 -9 -1 -8 0 0 4 c0 3 1 5 1 5 1 1 5 1 9 1
l7 0 0 -5z m18 3 c2 -3 1 -52 0 -54 -1 -2 -3 -2 -8 -2 l-6 1 -1 27 c0 19 0 28
1 29 1 1 3 1 7 1 5 0 6 0 7 -2z m-85 -1 c2 -1 2 -3 2 -28 l0 -27 -12 -1 c-6 0
-13 0 -14 1 l-2 0 0 27 c0 21 1 27 2 28 1 2 3 2 12 1 6 0 11 -1 12 -1z m66
-11 c1 0 1 -10 1 -21 0 -25 0 -24 -10 -24 l-6 1 -1 20 c0 12 0 22 0 23 1 2 2
2 8 2 4 -1 8 -1 8 -1z M414 444 c-1 -1 -1 -9 -1 -18 -1 -12 -1 -19 -3 -25 -1 -5 -2 -9 -2
-9 1 -1 4 7 6 14 2 9 3 34 1 37 -1 2 -1 2 -1 1z M215 427 c5 -14 9 -24 9 -24 3 0 -4 21 -7 24 -2 1 -2 1 -2 0z M11 424 c-3 -13 -5 -90 -3 -102 2 -11 3 -3 2 25 0 28 0 48 3 72 0 5
0 7 -1 7 0 0 -1 -1 -1 -2z M582 422 c-1 -1 -2 -10 -3 -29 -1 -19 0 -36 4 -57 2 -12 2 -18 3 -36
0 -13 0 -23 0 -23 1 -2 2 8 3 19 0 15 0 22 -5 48 -2 14 -2 19 -2 36 0 10 0 24
1 30 0 10 0 15 -1 12z M474 408 c-2 -2 -14 -23 -20 -35 -4 -8 -10 -24 -10 -27 0 -4 2 -2 4
5 4 12 7 18 16 35 9 15 12 23 12 24 -1 0 -1 -1 -2 -2z M432 408 c0 -3 -4 -24 -6 -28 -1 -4 -5 -13 -9 -22 -8 -15 -12 -28
-12 -33 0 -4 2 -1 5 10 2 5 6 15 9 22 8 15 12 25 14 37 1 11 1 15 0 15 -1 0
-1 0 -1 -1z M250 399 c-11 -1 -22 -11 -27 -22 -2 -7 -3 -19 0 -26 0 -3 3 -7 5 -9
8 -10 7 -9 5 -16 -3 -10 -3 -16 -2 -23 1 -3 2 -7 2 -8 0 -4 -5 -14 -11 -21 -8
-11 -13 -23 -21 -48 -10 -29 -10 -29 -7 -34 2 -4 2 -6 1 -12 0 -4 -1 -8 -1 -9
-1 -1 -3 -2 -12 -2 -26 -2 -45 -11 -54 -27 -5 -8 -3 -9 3 -1 9 12 17 17 32 21
8 2 24 4 28 3 8 -2 0 -10 -20 -19 -9 -4 -18 -10 -22 -12 -21 -16 -26 -42 -9
-53 5 -3 11 -4 17 -2 3 1 2 3 -5 7 -8 4 -10 8 -10 15 1 7 5 15 9 18 5 4 14 10
25 13 9 4 16 8 20 11 2 1 4 2 5 2 3 -2 10 -17 11 -23 1 -2 1 -6 2 -7 0 -2 1
-5 3 -7 1 -1 2 -3 1 -4 -1 -4 -1 -7 0 -10 2 -2 12 -7 28 -13 10 -4 15 -5 20
-3 3 1 8 6 8 8 0 5 -6 11 -14 16 -3 1 -5 3 -4 3 3 3 9 8 10 8 0 0 2 -2 4 -5 2
-3 5 -6 7 -7 23 -10 22 -10 30 -10 6 0 7 0 10 2 2 3 3 4 3 7 0 4 0 4 -6 8 -3
2 -8 5 -11 6 l-5 2 3 4 c8 9 12 20 13 38 0 11 1 13 3 17 1 2 2 5 2 6 0 2 0 3
1 3 0 0 7 -2 16 -5 8 -3 16 -5 17 -5 4 0 6 2 10 7 4 4 37 53 39 58 2 2 2 7 2
27 0 15 0 24 -1 25 -1 0 -1 -1 -2 -1 0 -2 -1 -2 -4 -1 -4 0 -5 0 -14 -9 -5 -5
-10 -11 -12 -13 -3 -6 -5 -6 -12 -3 -3 1 -7 1 -9 1 -3 -1 -6 -1 -8 -1 -3 -1
-5 -2 -11 -10 -3 -4 -6 -7 -7 -7 -1 0 -4 2 -6 5 -3 3 -4 5 -4 7 0 2 1 3 9 4
10 3 16 6 24 12 11 7 11 12 3 26 -3 4 -5 10 -6 12 0 3 -2 8 -2 11 -2 9 -7 17
-13 25 -2 4 -4 7 -4 8 2 9 3 16 2 19 -1 10 -7 16 -17 20 -9 4 -17 2 -24 -5
l-4 -5 -6 5 c-9 7 -16 9 -26 8z m18 -7 c10 -6 15 -15 16 -28 0 -10 2 -12 3 -3
1 6 2 6 4 6 9 0 24 -8 33 -16 7 -8 11 -16 14 -29 4 -13 6 -17 10 -24 2 -4 4
-7 4 -7 0 -1 -1 -1 -3 -1 -2 0 -4 -1 -5 -1 -1 -2 -1 -6 0 -8 1 -1 2 -3 1 -3 0
-1 -3 -3 -7 -4 -20 -11 -43 -12 -64 -3 -9 3 -26 13 -31 17 -6 7 -8 12 -8 24 0
8 0 10 2 14 1 4 2 5 3 5 4 -2 9 -2 10 -1 2 1 0 3 -2 3 -7 0 -17 8 -21 17 -3 6
-3 7 -3 14 1 7 1 10 3 14 4 6 10 12 15 15 8 3 19 3 26 -1z m40 1 c8 -2 15 -11
17 -18 0 -5 -1 -16 -3 -17 -1 0 -4 2 -7 4 -7 5 -12 7 -20 8 -7 1 -7 1 -9 6 -3
6 -2 8 1 12 6 5 13 7 21 5z m-64 -110 c17 -13 37 -21 55 -22 10 0 10 0 11 -3
3 -7 -8 -9 -30 -4 -10 3 -28 11 -37 18 -7 5 -10 8 -10 11 0 2 2 6 3 6 0 0 4
-3 8 -6z m108 2 c0 0 0 -2 -1 -3 -2 -1 -2 -1 -4 0 -2 2 -1 5 2 5 1 0 2 -1 3
-2z m43 -23 c0 -7 0 -13 0 -13 -1 0 -6 2 -12 5 -7 3 -11 6 -11 7 0 2 8 12 15
18 l7 6 0 -5 c0 -3 1 -11 1 -18z m6 2 c0 -21 0 -23 -4 -23 -1 0 -33 13 -44 18
-4 2 -4 2 -2 3 3 0 24 -7 35 -12 7 -4 9 -5 11 -4 2 1 2 2 2 6 -2 14 -2 30 -1
32 1 0 2 1 2 0 1 0 1 -9 1 -20z m-162 6 c16 -14 43 -23 62 -22 4 0 7 0 8 0 2
-1 3 -18 2 -20 -1 0 -4 -2 -8 -3 -6 -2 -6 -2 -16 0 -6 0 -11 1 -12 2 -1 0 -4
3 -7 7 -10 13 -13 14 -5 1 l6 -8 -3 -6 c-2 -3 -3 -6 -3 -7 0 -2 2 -1 3 2 1 2
3 5 5 6 2 1 3 1 13 0 5 -1 10 -2 11 -2 0 -1 -1 -4 -1 -9 -1 -4 -2 -10 -2 -14
0 -8 -1 -8 -17 -8 -10 0 -14 0 -19 2 -17 5 -30 18 -36 34 -2 6 -5 7 -4 1 2 -7
8 -17 15 -24 5 -6 9 -8 15 -11 11 -5 18 -6 30 -6 10 0 11 0 16 2 l6 3 6 -1 c8
-2 12 -5 12 -8 0 -5 -9 -11 -23 -14 -12 -2 -34 -3 -44 -1 -23 4 -49 18 -52 28
-1 3 -1 5 4 22 11 33 15 44 24 56 2 3 5 5 5 5 1 0 5 -3 9 -7z m126 -19 c12 -5
23 -9 23 -10 0 0 -9 -13 -20 -30 -13 -20 -20 -30 -22 -31 -2 0 -33 9 -34 11
-1 0 1 2 3 3 6 2 10 6 10 8 0 1 1 3 2 5 1 3 2 6 2 10 0 5 0 6 -3 8 -2 1 -2 1
-6 0 -1 -1 -3 -2 -3 -1 0 2 7 15 13 24 5 8 9 12 11 12 0 0 11 -4 24 -9z m-46
-16 c-2 -4 -4 -6 -4 -5 -1 1 -1 6 -1 12 l-1 10 5 -5 4 -5 -3 -7z m76 2 l2 -2
-17 -25 c-10 -14 -18 -27 -19 -28 -3 -3 -7 -5 -9 -4 -1 1 2 6 14 24 8 13 17
27 19 30 5 7 6 8 10 5z m-83 -14 c0 -1 0 -2 -1 -3 -1 -2 -1 -2 1 -2 1 0 4 1 6
2 5 2 9 2 7 0 0 -1 -2 -2 -4 -4 -3 -1 -4 -3 -3 -3 0 -1 1 -1 3 0 1 1 3 1 3 1
3 0 2 -3 -3 -5 -5 -4 -5 -6 -1 -5 4 0 1 -4 -6 -7 -8 -5 -17 -5 -19 -1 0 3 3
20 5 22 2 2 9 6 11 6 0 0 1 0 1 -1z m-96 -50 c19 -10 42 -14 63 -11 8 1 26 5
30 7 2 0 2 0 2 -11 -2 -22 -7 -35 -20 -41 -4 -2 -7 -2 -11 -2 -4 0 -8 0 -9 0
-2 1 -2 2 -2 5 1 3 2 5 8 10 7 6 8 9 1 5 -7 -5 -9 -7 -11 -12 -3 -6 -9 -12
-16 -15 -6 -3 -20 -4 -26 0 -7 3 -8 5 -10 13 -1 6 -3 11 -8 21 -7 15 -9 20 -9
31 0 10 0 10 6 7 3 -2 8 -5 12 -7z m-19 -18 c4 -5 -4 -11 -24 -20 -15 -6 -20
-9 -26 -16 -6 -6 -8 -11 -8 -18 0 -8 3 -13 9 -17 2 -1 4 -2 4 -3 -2 -1 -9 1
-12 5 -11 9 -9 25 6 40 5 5 8 7 22 14 8 4 18 10 21 12 6 4 6 5 8 3z m108 -46
c9 -4 12 -7 12 -9 0 -1 -2 0 -4 1 -6 3 -8 3 -4 -1 5 -5 5 -6 0 -3 -2 2 -4 3
-5 3 -2 0 -1 -3 2 -4 3 -1 2 -3 -2 -2 -4 0 -27 11 -29 13 -4 3 -2 4 5 4 3 0 8
1 10 1 1 1 3 2 4 2 0 0 6 -2 11 -5z m-74 -7 c2 -1 7 -1 12 0 8 0 8 0 14 -3 7
-3 14 -10 14 -13 0 -2 -1 -1 -6 3 -4 4 -7 5 -7 3 0 0 2 -2 4 -4 2 -2 4 -4 4
-5 0 -2 -3 -1 -4 1 -1 2 -7 5 -8 4 -1 0 0 -2 2 -4 l4 -3 -3 0 c-4 0 -33 12
-35 15 -3 3 0 9 3 7 2 0 4 -1 6 -1z M266 367 c2 -6 3 -13 2 -18 -1 -3 -1 -6 0 -6 0 0 1 2 2 4 2 6 2 13
-1 18 -2 4 -4 5 -3 2z M300 313 c-3 -3 -2 -8 0 -10 5 -5 13 3 8 9 -2 3 -6 4 -8 1z M320 278 c0 -3 3 -6 7 -6 4 0 4 2 0 3 -1 1 -4 2 -5 4 l-2 3 0 -4z M379 329 c-8 -16 -9 -20 -5 -15 2 3 14 26 14 29 2 5 -1 1 -9 -14z M428 328 c-1 -1 -6 -18 -10 -29 0 -2 2 -1 2 1 5 10 11 29 10 29 0 1
-1 0 -2 -1z M577 221 c-12 -40 -13 -46 -13 -80 0 -19 0 -24 1 -23 1 1 2 10 2 29
1 31 2 35 8 59 5 17 10 35 10 37 0 1 0 1 -1 1 0 0 -4 -10 -7 -23z M161 202 c-5 0 -17 -2 -26 -4 -9 -2 -21 -4 -27 -4 -6 -1 -12 -2 -12
-3 -1 -1 21 1 35 3 24 4 39 7 39 9 0 1 0 1 0 1 0 0 -5 -1 -9 -2z M137 182 c-4 -1 -7 -2 -7 -3 0 -2 1 -1 14 2 2 0 3 2 0 2 -1 0 -4 -1
-7 -1z M584 172 c-1 -2 -2 -11 -2 -38 -1 -30 -1 -37 -2 -41 -4 -11 -2 -10 2
0 2 5 2 8 3 43 0 21 0 38 0 38 0 0 0 -1 -1 -2z M12 147 c0 -1 5 -12 11 -24 7 -13 13 -26 14 -30 2 -5 5 -19 7 -31 2
-13 5 -25 5 -27 1 -2 6 -9 11 -14 6 -6 11 -12 13 -15 2 -4 4 -6 5 -6 2 0 2 0
1 2 -3 6 -8 12 -16 21 -6 5 -9 10 -10 13 -2 5 -8 33 -8 37 l0 2 3 -3 c2 -1 8
-6 14 -9 5 -3 12 -8 14 -10 6 -5 13 -15 20 -29 7 -13 17 -24 22 -24 l3 0 -3 2
c-9 6 -15 14 -21 27 -11 22 -14 25 -33 36 -16 10 -19 14 -24 30 -3 8 -9 21
-24 48 -2 3 -3 6 -4 6 0 0 0 -1 0 -2z M544 125 c-4 -6 -14 -16 -20 -20 -6 -5 -7 -7 0 -3 7 4 21 18 23 24 2
4 1 4 -3 -1z M344 114 c0 -1 10 -2 14 -1 2 0 2 0 1 1 -3 1 -15 1 -15 0z M0 104 c0 0 3 -4 6 -8 11 -12 18 -27 19 -45 0 -9 0 -13 -2 -25 -3
-15 -4 -26 -2 -26 0 0 1 3 1 6 1 3 2 13 4 22 2 12 2 18 2 25 -1 16 -10 36 -20
46 -6 6 -8 8 -8 5z M544 93 c-7 -5 -12 -8 -21 -11 -35 -12 -45 -19 -60 -39 -9 -14 -14
-24 -15 -36 0 -6 0 -7 1 -7 2 0 2 1 2 4 0 20 22 52 43 62 9 5 48 20 49 20 1
-1 -3 -26 -5 -32 -2 -7 -9 -15 -15 -18 -2 -1 -8 -3 -14 -4 -12 -3 -19 -7 -26
-13 -6 -4 -11 -11 -10 -12 1 0 4 3 7 6 8 8 16 12 30 15 12 3 17 6 22 11 7 7
11 17 13 35 1 13 2 16 7 21 2 2 3 4 3 5 0 0 -5 -3 -11 -7z M418 98 c-2 -1 -3 -1 -3 -2 0 0 7 0 15 0 12 0 15 0 14 1 -3 2 -21 2
-26 1z M361 82 c-1 -1 -3 -1 -5 -1 -9 -2 -3 -2 15 -2 14 0 18 0 17 1 -1 1
-25 3 -27 2z M595 68 c-14 -16 -21 -32 -23 -53 0 -11 0 -15 3 -15 1 0 1 2 1 11 0
5 1 13 2 17 2 11 10 26 17 34 4 5 5 7 5 9 0 2 -1 2 -5 -3z M469 71 c-7 -2 -14 -7 -21 -14 -11 -10 -20 -14 -47 -19 -6 -2 -14 -4
-17 -5 -7 -2 -36 -17 -37 -19 -3 -3 3 -1 15 5 15 8 21 10 45 16 12 3 23 7 25
7 2 1 4 2 5 2 1 -1 -6 -10 -14 -19 -9 -9 -17 -15 -29 -21 -8 -3 -8 -4 -5 -4 3
0 10 3 20 10 10 6 14 10 29 29 7 10 14 19 16 21 2 1 7 4 11 6 9 5 11 7 4 5z M564 71 c-1 0 -3 -9 -6 -18 -3 -10 -6 -20 -7 -21 -2 -4 -11 -12 -16
-14 -3 -1 -12 -3 -19 -4 -14 -3 -20 -6 -24 -11 -3 -4 -1 -4 4 0 5 4 12 6 27 9
9 1 18 5 23 9 2 2 4 3 5 3 0 0 0 -8 -2 -19 0 -4 0 -5 1 -5 2 0 3 2 3 9 0 9 2
18 7 40 5 19 6 26 4 22z M76 68 c0 -1 5 -4 10 -7 12 -8 16 -12 20 -19 10 -19 22 -30 42 -39 5
-2 9 -3 12 -3 3 0 3 1 -7 5 -14 6 -24 12 -31 20 -6 6 -14 19 -12 19 0 0 3 -1
5 -2 6 -3 13 -5 27 -6 12 -1 23 -4 34 -8 16 -7 24 -12 30 -21 2 -4 5 -7 6 -7
1 0 1 0 -1 4 -1 4 -1 5 2 3 1 -1 2 -1 2 0 1 1 -17 14 -28 20 -14 7 -26 10 -45
12 -18 3 -29 6 -40 15 -6 4 -24 15 -25 15 -1 0 -1 -1 -1 -1z M184 63 c-5 -1 -3 -2 7 -2 29 -2 36 -2 36 -2 -2 2 -14 4 -27 5 -8 0
-15 0 -16 -1z M289 62 c0 -1 2 -2 4 -2 4 -1 19 -1 26 0 12 2 9 3 -11 3 -15 0 -19 0
-19 -1z M40 23 c-1 0 -1 -4 -2 -9 -1 -5 -1 -10 -2 -11 0 -3 0 -3 2 -3 1 0 2
2 2 6 0 3 1 6 1 7 1 0 14 -9 16 -12 1 0 2 -1 4 -1 l2 0 -2 3 c-1 1 -6 5 -10 8
-5 4 -8 7 -9 9 -1 3 -2 4 -2 3z M432 12 c-2 -3 -6 -6 -9 -8 -4 -3 -4 -4 -2 -4 2 0 4 1 7 3 l4 3 0 -3
c0 -2 1 -3 2 -3 2 0 2 1 2 8 0 4 0 8 0 8 0 0 -2 -2 -4 -4z M294 11 c-4 -1 -2 -2 5 -2 4 0 11 -1 17 -2 6 0 11 -1 12 0 4 2 -24 6
-34 4z" fill="black"/>
<path d="M0 665 l0 -134 3 4 c3 6 15 31 18 38 1 3 4 12 6 20 7 26 17 52 19 50
1 0 -1 -5 -3 -11 -5 -13 -10 -30 -14 -42 -3 -14 -7 -24 -19 -48 l-10 -21 0
-207 0 -207 6 -6 c12 -11 21 -31 22 -48 0 -7 0 -13 -2 -25 -2 -9 -3 -18 -3
-22 l-1 -6 7 0 c8 0 7 -1 9 14 1 4 2 9 2 9 0 1 1 0 2 -2 1 -3 3 -6 9 -10 5 -4
9 -8 10 -9 2 -2 3 -2 9 -2 3 0 6 0 6 1 0 2 -8 12 -16 20 -5 6 -10 12 -11 14 0
2 -3 14 -5 27 -2 12 -5 26 -7 31 -1 4 -7 18 -14 30 -7 14 -11 23 -11 24 0 2 1
1 4 -4 14 -24 21 -40 24 -48 5 -16 8 -20 24 -30 19 -11 22 -14 32 -36 7 -13
12 -20 20 -25 l5 -4 17 0 18 0 -8 3 c-21 9 -32 20 -42 39 -4 7 -9 12 -20 19
-5 3 -9 6 -10 6 -2 4 7 -1 23 -12 16 -10 24 -13 43 -16 19 -2 31 -5 45 -12 11
-6 29 -19 28 -20 0 -1 -1 -1 -2 0 -3 2 -3 1 -1 -3 l1 -4 23 0 c26 0 26 0 8 6
-13 5 -21 10 -32 19 -11 10 -15 13 -27 19 -12 6 -19 8 -46 17 -33 10 -51 19
-67 35 -14 14 -20 24 -31 57 -4 13 -10 28 -12 34 -10 21 -13 35 -14 62 0 23 1
22 3 -2 2 -28 5 -41 14 -61 6 -14 11 -27 16 -41 1 -6 4 -12 4 -13 1 -1 5 -2
10 -2 6 -1 10 -2 17 -5 7 -3 10 -4 14 -4 3 0 6 0 7 1 1 1 -3 5 -17 20 -30 30
-40 47 -45 74 -2 11 -12 97 -14 129 -2 22 -1 68 2 91 3 26 6 39 15 67 10 30
12 35 16 56 11 48 31 85 62 117 20 21 40 34 79 51 13 6 28 15 50 29 30 19 42
25 62 29 31 6 67 2 95 -12 16 -8 23 -14 36 -27 26 -27 37 -38 46 -45 18 -14
32 -32 45 -54 11 -19 18 -37 25 -67 5 -21 7 -26 15 -44 7 -17 12 -30 14 -41 3
-12 6 -39 5 -41 -1 -2 -2 -1 -3 12 -3 25 -7 41 -18 66 -8 18 -11 29 -16 45 -9
38 -19 61 -31 74 -13 14 -26 22 -60 33 -27 10 -44 20 -58 34 -4 5 -15 19 -25
32 -10 12 -19 24 -21 26 -5 6 -7 7 -21 7 l-12 0 5 -4 c11 -10 36 -34 36 -36 0
-2 -1 -1 -24 20 -24 21 -22 20 -35 18 -8 -2 -19 -6 -26 -9 l-4 -3 4 -1 c17 -5
33 -12 49 -23 22 -14 34 -27 49 -48 10 -15 18 -24 28 -31 10 -6 20 -10 41 -15
23 -7 33 -12 43 -22 12 -12 20 -25 37 -61 4 -9 10 -24 15 -33 22 -47 25 -66
19 -117 -3 -25 -2 -54 1 -86 6 -46 5 -58 -5 -86 -6 -15 -8 -26 -12 -49 -4 -24
-6 -32 -12 -44 -7 -16 -13 -22 -35 -41 -23 -20 -28 -24 -42 -29 -12 -5 -16 -7
-29 -16 -17 -12 -26 -16 -48 -19 -22 -4 -38 -7 -51 -11 -15 -5 -27 -6 -48 -4
-8 1 -19 1 -23 1 -10 0 -13 1 -12 2 0 1 28 1 46 0 17 -1 23 0 38 4 15 5 20 6
43 10 30 6 35 7 55 21 8 6 17 10 25 14 15 6 22 11 30 18 4 3 9 8 13 11 9 7 23
21 23 22 0 0 -3 1 -6 1 -8 1 -25 5 -37 10 -10 3 -28 5 -28 3 0 0 0 -1 1 -1 1
-1 5 -5 9 -10 7 -8 8 -9 8 -13 l0 -3 -8 -1 c-10 0 -16 1 -24 6 l-7 4 -21 2
c-11 1 -21 2 -21 2 -1 0 -3 2 -5 4 -2 2 -6 4 -8 4 -2 1 -12 1 -23 2 -15 0 -19
1 -17 1 2 2 30 2 40 1 l6 -1 1 4 c0 3 4 9 8 15 8 13 11 18 14 27 3 8 4 10 4 4
-1 -7 -5 -17 -14 -31 -11 -17 -13 -23 -6 -26 3 -1 25 -3 32 -3 l5 0 -7 6 c-6
6 -8 8 -3 6 1 -1 6 -5 11 -9 12 -10 18 -13 30 -14 6 -1 11 -1 11 -1 1 2 -18
22 -27 29 -8 5 -11 10 -14 17 -2 5 -2 7 -2 28 0 19 0 23 2 34 2 7 5 17 7 23 3
11 6 18 21 53 3 6 7 18 10 27 10 28 19 43 38 58 9 8 12 8 21 0 13 -10 27 -37
32 -62 2 -13 4 -37 4 -58 0 -12 0 -20 1 -19 1 1 4 12 5 22 2 11 1 40 -3 64 -3
26 -3 55 -1 75 4 29 4 49 0 68 -4 18 -5 22 -32 80 -17 37 -23 48 -33 59 -8 8
-24 19 -26 17 0 -1 0 -12 -1 -26 l0 -25 2 -2 c4 -3 5 -8 5 -13 -1 -4 -1 -5 3
-7 7 -4 11 -8 14 -15 2 -3 3 -6 4 -6 2 0 6 -5 6 -7 0 -2 -1 -4 -3 -6 l-2 -3 3
-9 c2 -7 2 -13 3 -24 0 -13 0 -15 -2 -20 -1 -3 -4 -8 -6 -11 l-5 -4 3 -6 c1
-4 3 -7 3 -8 3 -5 3 -6 2 -9 -3 -6 -18 -10 -35 -10 -13 0 -22 2 -29 5 -7 4 -9
8 -5 13 3 4 6 11 6 14 0 1 -2 3 -3 5 -8 7 -11 21 -9 39 1 8 4 21 5 25 1 1 0 2
-2 3 -5 3 -4 11 2 13 2 1 4 2 5 6 3 7 8 12 14 15 l4 2 -1 5 c0 5 1 7 5 13 l3
3 -1 27 c0 17 -1 27 -1 28 -1 0 -8 3 -16 5 -30 8 -42 16 -57 38 -5 6 -11 15
-15 20 -13 17 -35 35 -56 45 -14 7 -32 13 -37 13 -2 0 -8 -3 -21 -11 -10 -7
-23 -15 -29 -18 -13 -8 -17 -11 -23 -20 -3 -5 -10 -19 -10 -20 0 0 6 -1 12 -1
16 0 18 -1 19 -8 l1 -5 5 0 c2 -1 6 -1 8 -1 2 0 5 -1 6 -2 l2 -1 0 -41 c0 -22
0 -41 1 -42 0 -1 7 -4 7 -4 1 0 1 4 2 8 2 10 7 27 12 35 2 4 7 10 12 15 6 6 9
9 16 12 12 6 19 7 33 7 13 0 19 -1 29 -6 17 -9 29 -22 36 -44 8 -20 9 -40 9
-124 0 -85 -1 -98 -11 -118 -9 -17 -33 -50 -33 -44 0 0 3 5 7 11 14 18 17 23
23 34 3 6 5 11 5 12 0 1 -5 1 -15 1 -9 0 -17 0 -19 1 -7 1 -2 2 16 2 l20 1 1
6 c1 4 1 8 1 8 -1 2 -8 2 -64 2 -69 0 -67 0 -70 6 -2 5 -1 61 1 69 4 14 10 21
24 28 16 8 28 10 79 10 14 0 27 0 29 1 l3 0 0 6 0 7 -61 -1 c-46 0 -63 0 -66
-1 -8 -2 -11 -8 -7 -12 2 -1 4 -2 13 -2 15 0 15 -2 -1 -2 -12 0 -13 0 -15 2
-2 3 -2 10 0 13 1 1 4 2 7 4 l5 2 0 14 c0 26 3 48 9 63 6 18 19 33 34 38 4 2
2 -1 -3 -4 -5 -2 -17 -14 -17 -15 0 -1 3 -1 7 -1 8 0 10 -1 11 -5 0 -2 1 -3 8
-3 8 0 10 -1 11 -5 1 -2 1 -2 11 -2 5 0 10 0 11 1 0 0 1 3 1 5 0 7 1 7 15 7
l11 -1 -1 2 c-3 6 -9 13 -15 17 -33 26 -81 14 -99 -23 -8 -15 -13 -39 -13 -56
0 -13 -1 -29 -2 -28 -1 1 -1 8 -1 16 0 14 0 15 -2 14 -2 -1 -14 -1 -17 -1 -4
1 -4 3 1 3 7 0 15 2 17 4 2 3 1 7 -2 9 -3 2 -5 2 -24 3 -29 0 -36 1 -38 3 -2
2 -2 3 -2 47 1 38 1 45 2 50 2 7 9 20 13 27 2 2 3 4 2 4 -2 0 -28 -12 -29 -14
-1 -1 -3 -7 -5 -19 l-3 -18 2 -4 c3 -3 3 -4 3 -30 1 -29 0 -40 -3 -43 -1 -2
-3 -2 -48 -2 l-46 0 -1 -2 c-2 -3 -6 -14 -5 -15 0 0 8 0 16 1 45 3 103 2 120
-2 14 -2 25 -10 32 -20 7 -11 8 -21 8 -67 0 -42 0 -42 -8 -46 -4 -2 -7 -2 -13
-2 -9 0 -17 1 -17 2 0 1 0 1 1 1 0 0 6 0 13 0 11 0 13 1 16 3 3 2 6 9 4 10 -1
1 -26 1 -104 1 l-102 0 0 -2 c-1 -2 -1 -5 -1 -7 l0 -5 8 -1 c4 0 8 0 9 -1 3
-1 -1 -2 -10 -3 l-8 0 -2 -11 c-2 -15 -2 -78 0 -99 1 -8 2 -15 2 -16 1 0 13 0
27 1 14 1 41 1 61 2 39 0 44 0 55 -7 8 -4 11 -8 14 -14 5 -10 5 -18 5 -46 l1
-26 -3 -2 c-1 -1 -3 -2 -5 -2 -2 0 -4 -1 -6 -1 -1 -1 -14 -3 -31 -5 -16 -2
-34 -4 -40 -5 -7 -1 -21 -2 -34 -3 -26 -1 -29 -2 -29 -3 0 -1 2 -6 4 -11 5
-11 5 -11 17 -11 10 -1 23 -5 31 -11 l7 -4 12 0 c13 0 23 -2 25 -4 1 -1 0 -1
-5 -1 -16 2 -20 2 -24 2 l-5 -1 2 -3 c0 -2 1 -4 1 -4 0 -3 -5 -5 -15 -9 l-8
-3 8 -9 c7 -6 9 -8 9 -10 0 -4 -2 -6 -10 -5 -6 0 -9 0 -19 4 -7 3 -13 5 -16 5
-2 0 -4 0 -4 -1 0 -2 8 -14 13 -20 9 -11 27 -24 44 -32 10 -4 16 -6 34 -11 20
-6 41 -15 53 -23 3 -2 9 -7 13 -11 11 -9 21 -15 30 -19 5 -1 12 -4 17 -6 l8
-4 59 0 59 0 8 4 c13 7 21 12 30 21 8 9 15 18 14 19 -1 0 -3 -1 -5 -2 -2 0
-13 -4 -25 -7 -24 -6 -30 -8 -45 -16 -12 -6 -18 -8 -15 -5 1 2 30 17 37 19 3
1 11 3 17 5 27 5 36 9 47 19 7 7 16 13 22 14 5 2 3 0 -5 -5 -11 -5 -13 -8 -26
-25 -7 -9 -14 -18 -16 -20 -4 -5 -13 -12 -23 -17 l-7 -4 12 0 13 0 5 4 c3 2 7
5 9 8 l4 5 0 -9 0 -8 6 0 6 0 0 7 c1 12 6 22 15 36 15 20 25 27 60 39 9 3 14
6 21 11 6 4 11 7 11 7 0 -1 -1 -3 -3 -5 -5 -5 -6 -8 -7 -21 -2 -18 -6 -28 -13
-35 -5 -5 -10 -8 -22 -11 -14 -3 -22 -7 -30 -15 -3 -3 -6 -6 -7 -6 -1 1 4 8
10 12 7 6 14 10 26 13 6 1 12 3 14 4 6 3 13 11 15 18 2 6 6 31 5 32 -1 0 -40
-15 -49 -20 -21 -10 -43 -42 -43 -62 l0 -4 19 0 20 0 2 3 c4 5 10 8 24 11 7 1
16 3 19 4 5 2 14 10 16 14 1 1 4 11 7 21 5 16 7 22 7 18 0 -1 -2 -11 -5 -22
-5 -20 -7 -30 -7 -43 l-1 -6 10 0 11 0 0 12 c0 23 7 40 22 56 l5 6 0 246 0
247 -5 16 c-4 18 -5 20 -3 20 0 0 2 -5 4 -11 l4 -10 0 109 0 109 -24 0 c-22 0
-23 0 -22 -2 15 -17 30 -39 29 -41 -1 0 -8 10 -17 21 l-17 22 -24 0 -23 0 11
-12 c13 -13 23 -25 39 -46 11 -15 17 -25 23 -37 4 -8 11 -29 11 -32 0 -4 -3 2
-8 15 -9 24 -18 39 -32 56 -3 3 -11 13 -17 21 -6 9 -16 19 -22 25 l-10 10 -42
0 c-24 0 -42 0 -41 -1 0 0 4 -4 9 -7 11 -8 20 -14 33 -20 21 -9 34 -21 47 -40
7 -11 8 -13 6 -13 -1 0 -4 4 -10 13 -13 18 -19 24 -39 35 -26 14 -31 16 -42
25 l-11 8 -67 0 -68 0 -5 -4 c-3 -2 -8 -6 -11 -8 -9 -7 -18 -12 -33 -18 -14
-6 -24 -11 -32 -16 -3 -2 -5 -3 -6 -3 -2 3 17 14 34 21 14 5 26 11 37 20 l10
8 -41 0 -42 0 -6 -7 c-6 -6 -17 -20 -29 -38 -8 -10 -25 -28 -40 -40 -17 -15
-36 -33 -44 -44 -7 -8 -9 -10 -9 -8 0 3 11 17 20 27 6 6 19 18 30 27 27 24 28
25 55 61 3 5 9 12 12 15 l6 7 -19 0 -19 0 -11 -13 c-6 -7 -13 -14 -14 -15 -5
-3 -2 2 10 15 l12 13 -31 0 -32 0 -10 -8 c-8 -8 -16 -15 -36 -37 -5 -6 -5 -3
0 5 5 6 26 27 36 35 l6 5 -35 0 -35 0 0 -135z m113 126 c-1 -4 -17 -27 -25
-37 -4 -5 -12 -14 -19 -21 -15 -16 -19 -21 -27 -36 -9 -14 -16 -34 -20 -50 -2
-7 -4 -13 -4 -13 -3 0 4 26 10 41 9 25 19 39 39 61 15 15 26 29 38 46 4 7 8
13 9 13 0 -1 0 -2 -1 -4z m399 -32 c1 -1 6 -9 12 -18 5 -8 13 -19 18 -25 18
-24 27 -45 33 -72 4 -20 2 -20 -3 0 -7 28 -16 48 -34 72 -6 7 -26 37 -29 43
-1 1 -1 2 0 2 0 0 2 -1 3 -2z m-461 -1 c0 0 -4 -5 -8 -10 -10 -12 -18 -24 -24
-35 -3 -7 -5 -9 -5 -5 0 2 9 18 15 27 10 14 22 27 22 23z m104 -29 c0 -3 -32
-34 -35 -34 -1 0 33 35 34 35 1 0 1 0 1 -1z m185 -39 c5 -2 13 -6 19 -8 23
-10 34 -20 36 -33 1 -4 0 -5 -2 -2 -6 17 -11 21 -43 35 -12 5 -20 10 -20 12 0
1 0 2 10 -4z m78 -9 c8 -6 19 -12 28 -16 6 -2 8 -4 2 -3 -6 2 -16 6 -24 11 -7
5 -17 14 -17 15 0 1 0 1 11 -7z m-324 -4 c-1 -1 -4 -6 -8 -11 -11 -14 -16 -21
-22 -33 -5 -12 -8 -13 -4 -3 3 11 13 25 29 44 5 6 9 8 5 3z m417 -42 c15 -13
28 -30 31 -41 2 -5 2 -7 1 -8 0 -1 -2 1 -3 6 -4 10 -11 20 -24 34 -15 15 -16
16 -14 16 0 0 4 -3 9 -7z m-11 -45 c9 -15 21 -63 17 -73 0 -2 -1 -3 -1 -2 0 1
-1 7 -2 14 -2 19 -6 35 -14 56 -3 7 -3 9 0 5z m-460 -40 c-1 -7 -5 -17 -11
-30 -3 -6 -6 -15 -8 -20 -4 -14 -5 -15 -5 -11 0 5 6 23 13 39 3 7 7 15 8 19 2
8 2 8 3 8 0 0 0 -2 0 -5z m500 -44 c4 -16 8 -40 8 -45 0 -3 0 -3 -1 2 -1 3 -3
13 -5 21 -4 17 -7 35 -6 36 1 2 2 -1 4 -14z m-388 -63 c11 -3 18 -5 26 -11 15
-9 22 -22 24 -47 1 -11 1 -42 0 -46 -1 -2 0 -3 3 -6 4 -5 4 -11 0 -14 -3 -3
-4 -3 -13 -3 -10 0 -13 1 -6 2 2 1 6 1 9 1 5 0 6 0 8 2 3 3 3 6 0 9 -2 2 -3 2
-18 2 -8 -1 -47 -1 -85 -2 l-70 0 -1 2 c0 2 0 16 0 32 1 25 1 29 3 35 3 11 7
18 13 24 11 13 25 18 54 21 13 1 43 1 53 -1z m264 -16 c-1 -14 -3 -25 -5 -32
-3 -6 -3 -3 -1 6 2 6 2 13 3 25 0 18 1 21 2 17 1 -1 1 -8 1 -16z m-195 -9 c3
-8 4 -15 3 -15 0 0 -4 10 -9 24 0 1 0 1 2 0 1 -1 3 -5 4 -9z m-208 1 c-3 -24
-3 -44 -3 -72 1 -28 0 -36 -2 -25 -1 7 -1 67 1 84 1 18 2 20 3 20 1 0 1 -2 1
-7z m570 -9 c-1 -6 -1 -20 -1 -30 0 -17 0 -22 2 -36 5 -26 5 -33 5 -48 -1 -11
-2 -21 -3 -19 0 0 0 10 0 23 -1 18 -1 24 -3 36 -4 21 -5 38 -4 57 1 19 2 28 3
29 1 3 1 -2 1 -12z m-109 -5 c0 -2 -5 -11 -10 -19 -9 -17 -12 -23 -16 -35 -2
-7 -4 -9 -4 -5 0 3 6 19 10 27 6 12 18 33 20 35 2 3 2 2 0 -3z m-40 1 c0 -5
-3 -21 -6 -29 -1 -4 -5 -13 -9 -20 -3 -7 -7 -17 -9 -22 -3 -11 -5 -14 -5 -10
0 5 4 18 12 33 4 9 8 18 9 22 2 4 6 25 6 28 0 1 0 1 1 1 1 0 1 -1 1 -3z m-167
-9 c2 -1 6 -4 9 -6 l6 -5 4 5 c7 7 15 9 24 5 10 -4 16 -10 17 -20 1 -3 0 -10
-2 -19 0 -1 2 -4 4 -8 6 -8 11 -16 13 -25 0 -3 2 -8 2 -11 1 -2 3 -8 6 -12 8
-14 8 -19 -3 -26 -8 -6 -14 -9 -24 -12 -8 -1 -9 -2 -9 -4 0 -2 1 -4 4 -7 2 -3
5 -5 6 -5 1 0 4 3 7 7 6 8 8 9 11 10 2 0 5 0 8 1 2 0 6 0 9 -1 7 -3 9 -3 12 3
2 2 7 8 12 13 9 9 10 9 14 9 3 -1 4 -1 4 1 1 0 1 1 2 1 1 -1 1 -10 1 -25 0
-20 0 -25 -2 -27 -2 -5 -35 -54 -39 -58 -4 -5 -6 -7 -10 -7 -1 0 -9 2 -17 5
-9 3 -16 5 -16 5 -1 0 -1 -1 -1 -3 0 -1 -1 -4 -2 -6 -2 -4 -3 -6 -3 -17 -1
-18 -5 -29 -13 -38 l-3 -4 5 -2 c3 -1 8 -4 11 -6 6 -4 6 -4 6 -8 0 -3 -1 -4
-3 -7 -3 -2 -4 -2 -10 -2 -8 0 -7 0 -30 10 -2 1 -5 4 -7 7 -2 3 -4 5 -4 5 -1
0 -7 -5 -10 -8 -1 0 1 -2 4 -3 8 -5 14 -11 14 -16 0 -2 -5 -7 -8 -8 -5 -2 -10
-1 -20 3 -16 6 -26 11 -28 13 -1 3 -1 6 0 10 1 1 0 3 -1 4 -2 2 -3 5 -3 7 -1
1 -1 5 -2 7 -1 6 -8 21 -11 23 -1 0 -3 -1 -5 -2 -4 -3 -11 -7 -20 -11 -11 -3
-20 -9 -25 -13 -4 -3 -8 -11 -9 -18 0 -7 2 -11 10 -15 7 -4 8 -6 5 -7 -6 -2
-12 -1 -17 2 -17 11 -12 37 9 53 4 2 13 8 22 12 20 9 28 17 20 19 -4 1 -20 -1
-28 -3 -15 -4 -23 -9 -32 -21 -6 -8 -8 -7 -3 1 9 16 28 25 54 27 9 0 11 1 12
2 0 1 1 5 1 9 1 6 1 8 -1 12 -3 5 -3 5 7 34 8 25 13 37 21 48 6 7 11 17 11 21
0 1 -1 5 -2 8 -1 7 -1 13 2 23 2 7 3 6 -5 16 -5 6 -7 12 -7 21 0 26 24 43 46
34z m121 -54 c0 -3 -12 -26 -14 -29 -4 -5 -3 -1 5 15 8 15 11 19 9 14z m38
-28 c-3 -7 -5 -14 -6 -15 0 -2 -2 -3 -2 -1 4 11 9 28 10 29 1 1 2 2 2 1 1 0
-1 -6 -4 -14z m159 -72 c0 -2 -5 -20 -10 -37 -6 -24 -7 -28 -8 -59 0 -19 -1
-28 -2 -29 -1 -1 -1 4 -1 23 0 25 1 35 4 49 3 14 15 54 16 54 1 0 1 0 1 -1z
m-415 -40 c0 -2 -15 -5 -39 -9 -14 -2 -36 -4 -35 -3 0 1 6 2 12 3 6 0 18 2 27
4 9 2 21 4 26 4 4 1 9 2 9 2 0 0 0 0 0 -1z m-24 -21 c0 -1 -1 -1 -2 -1 -13 -3
-14 -4 -14 -2 1 2 16 5 16 3z m439 -46 c-1 -35 -1 -38 -3 -43 -4 -10 -6 -11
-2 0 1 4 1 11 2 41 0 27 1 36 2 38 1 1 1 2 1 2 0 0 0 -17 0 -38z m-38 -10 c-2
-6 -16 -20 -23 -24 -7 -4 -6 -2 0 3 6 4 16 14 20 20 4 5 5 5 3 1z m-188 -12
c1 -1 1 -1 -1 -1 -4 -1 -14 0 -14 1 0 1 12 1 15 0z m85 -17 c1 -1 -2 -1 -14
-1 -8 0 -15 0 -15 0 0 3 25 4 29 1z m-56 -17 c1 -1 -3 -1 -17 -1 -18 0 -24 0
-15 2 2 0 4 0 5 1 2 1 26 -1 27 -2z m-168 -18 c13 -3 10 -4 -29 -1 -10 0 -12
1 -7 2 3 1 30 0 36 -1z m106 0 c-1 -1 -13 -3 -22 -3 -10 0 -14 1 -15 3 0 1 4
1 19 1 12 0 19 0 18 -1z m-10 -51 c3 -1 8 -2 10 -2 3 -1 3 -1 2 -2 -1 -1 -6 0
-12 0 -6 1 -13 2 -17 2 -4 0 -7 0 -7 1 0 2 13 3 24 1z" fill="white"/>
<path d="M377 759 c10 -13 21 -27 25 -31 15 -18 33 -30 64 -41 24 -8 36 -14
47 -21 2 -2 5 -4 5 -4 1 2 -10 14 -21 24 -7 6 -25 24 -41 40 -34 34 -43 40
-65 48 -7 3 -27 8 -30 8 -1 0 6 -10 16 -23z" fill="white"/>
<path d="M155 700 c-10 -6 -21 -15 -25 -19 l-2 -2 8 -1 c10 0 12 0 12 -4 1 -2
2 -2 6 -2 3 0 6 0 6 1 1 1 6 32 6 33 0 1 -5 -2 -11 -6z" fill="white"/>
<path d="M202 692 c-1 -1 -1 -7 -1 -47 0 -26 0 -47 0 -48 1 0 4 -1 8 -1 12 0
11 -5 11 49 -1 25 -1 46 -2 46 -1 1 -14 2 -16 1z" fill="white"/>
<path d="M190 691 c-2 -1 -3 -27 -3 -60 0 -29 1 -31 2 -33 3 -1 7 -1 7 1 1 0
1 22 1 47 l0 46 -3 0 c-1 0 -3 0 -4 -1z" fill="white"/>
<path d="M224 678 c-1 0 -1 -12 -1 -40 0 -36 0 -41 2 -41 2 -1 14 -1 15 0 2 2
2 77 0 79 -1 2 -13 3 -16 2z" fill="white"/>
<path d="M118 669 l-6 -6 0 -32 c1 -19 1 -33 2 -33 0 -1 4 -1 8 -1 l7 1 0 38
0 39 -3 0 c-2 0 -4 -1 -8 -6z" fill="white"/>
<path d="M133 674 c0 -2 0 -74 0 -76 1 -1 4 -1 6 -1 4 0 6 0 6 2 1 0 1 17 1
37 0 27 0 37 -1 38 -2 1 -11 1 -12 0z" fill="white"/>
<path d="M151 667 c-1 -1 -2 -2 -2 -4 0 -3 0 -3 4 -3 2 -1 6 -1 8 -1 4 0 5 0
5 2 0 2 -1 3 -2 4 -2 2 -11 3 -13 2z" fill="white"/>
<path d="M103 652 c-11 -14 -10 -12 -10 -33 0 -11 0 -20 1 -21 0 -1 3 -1 8 -1
l7 1 0 21 c1 12 1 26 0 31 l0 9 -6 -7z" fill="white"/>
<path d="M149 655 c0 -1 0 -14 0 -30 l1 -27 6 -1 c10 0 9 -1 10 29 0 14 0 26
-1 27 -1 1 -9 3 -13 3 -1 0 -2 -1 -3 -1z" fill="white"/>
<path d="M459 617 c0 -14 1 -26 1 -27 1 0 2 0 2 0 2 1 2 4 2 27 l0 26 -3 0 -2
0 0 -26z" fill="white"/>
<path d="M86 626 c-5 -9 -13 -26 -13 -27 0 -2 2 -2 8 -2 6 0 8 0 9 1 0 1 0 9
0 18 l0 17 -4 -7z" fill="white"/>
<path d="M296 631 c-1 0 -1 -50 0 -73 l1 -16 6 -1 7 0 0 44 c1 25 1 45 1 46
-1 1 -14 1 -15 0z" fill="white"/>
<path d="M288 624 c-9 -20 -12 -38 -12 -67 0 -14 1 -15 9 -16 4 0 7 0 7 1 1 2
1 88 0 88 -1 0 -2 -3 -4 -6z" fill="white"/>
<path d="M359 629 c0 -1 0 -21 0 -44 l1 -43 6 0 6 0 0 44 0 44 -6 0 c-4 0 -6
0 -7 -1z" fill="white"/>
<path d="M375 627 c0 -1 0 -21 0 -44 l1 -41 6 0 7 0 0 12 c0 7 0 23 1 37 l1
24 -3 6 c-2 6 -4 8 -9 8 -2 0 -3 -1 -4 -2z" fill="white"/>
<path d="M314 619 l0 -6 6 0 c9 -1 10 -1 10 4 0 3 -1 5 -1 6 -1 0 -4 1 -8 1
l-7 0 0 -5z" fill="white"/>
<path d="M337 616 c-3 0 -4 -1 -4 -6 0 -4 0 -7 1 -7 0 -1 5 -1 11 0 l10 0 0 7
0 7 -7 0 c-4 0 -9 -1 -11 -1z" fill="white"/>
<path d="M314 576 c0 -27 0 -33 1 -34 1 -1 4 -1 8 -1 l7 1 0 33 0 34 -8 0 -8
0 0 -33z" fill="white"/>
<path d="M392 573 c0 -27 0 -31 2 -32 0 0 2 0 3 1 1 2 1 4 0 23 -1 22 -3 36
-4 37 -1 1 -1 -11 -1 -29z" fill="white"/>
<path d="M333 598 c0 -1 0 -14 0 -29 l1 -27 10 0 10 0 1 3 c1 1 1 14 0 28 l0
26 -11 0 c-7 0 -10 0 -11 -1z" fill="white"/>
<path d="M458 585 c-4 -2 -7 -8 -5 -12 0 -1 1 -3 2 -3 2 0 2 0 1 3 0 5 1 8 5
8 5 0 7 -2 7 -6 0 -4 2 -4 2 0 1 3 -1 8 -4 10 -4 1 -5 1 -8 0z" fill="white"/>
<path d="M459 577 c-1 -4 3 -7 6 -4 1 1 1 2 -1 3 -2 2 -4 3 -5 1z" fill="white"/>
<path d="M97 575 c-19 0 -29 -1 -31 -2 -2 -1 -3 -4 -4 -11 l-1 -3 7 1 c7 0 8
0 10 -3 1 -1 2 -4 2 -5 0 -3 1 -4 4 -4 1 1 2 2 2 4 0 2 1 3 8 4 4 1 12 2 20 3
16 0 16 0 17 -9 l0 -5 7 0 c8 0 10 -1 11 -6 1 -3 1 -3 6 -3 7 0 7 0 7 6 0 2 1
6 1 7 2 2 15 7 27 9 l8 2 0 6 0 7 -5 1 c-8 1 -66 2 -96 1z" fill="white"/>
<path d="M202 572 c-1 0 -1 -3 -1 -7 0 -6 0 -6 3 -7 4 -2 5 -5 5 -9 -1 -3 -1
-4 9 -4 10 -1 9 2 9 -42 0 -38 0 -39 2 -40 4 -2 7 0 9 4 1 3 1 8 1 35 -1 41
-3 49 -13 59 -6 6 -22 13 -24 11z" fill="white"/>
<path d="M451 565 c-7 -2 -10 -5 -14 -10 -5 -8 -4 -9 3 -9 9 -1 47 -1 49 0 1
1 1 2 -1 6 -5 10 -12 14 -24 15 -6 0 -9 0 -13 -2z" fill="white"/>
<path d="M61 555 c-1 -1 -2 -3 -2 -4 l0 -3 9 -1 9 0 0 3 c0 5 -2 6 -8 6 -4 0
-7 -1 -8 -1z" fill="white"/>
<path d="M111 555 c-1 0 -1 -21 -1 -47 l0 -46 8 0 9 1 0 46 0 47 -8 0 c-4 0
-8 0 -8 -1z" fill="white"/>
<path d="M98 554 c-8 -2 -9 -4 -6 -5 2 -1 4 -1 5 -1 6 0 6 0 6 -44 0 -23 0
-41 1 -41 3 -2 3 2 3 47 0 39 -1 44 -2 45 -1 0 -4 -1 -7 -1z" fill="white"/>
<path d="M191 554 c-1 -2 -2 -86 0 -89 1 -2 2 -2 7 -2 4 0 6 0 6 2 1 0 1 21 1
44 0 33 0 44 -1 45 -1 0 -4 1 -6 1 -3 0 -6 -1 -7 -1z" fill="white"/>
<path d="M175 550 l-8 -3 0 -5 0 -5 5 -1 c8 -1 8 1 8 -38 0 -31 1 -34 2 -35 1
-1 2 -1 3 0 2 1 2 6 2 46 l0 44 -2 0 c-1 0 -6 -1 -10 -3z" fill="white"/>
<path d="M82 544 c-1 -1 -1 -12 -1 -41 0 -35 0 -40 2 -40 2 -1 15 -1 16 0 1 1
1 11 1 40 0 34 0 39 -2 40 -2 2 -14 3 -16 1z" fill="white"/>
<path d="M58 543 c-2 -1 -3 -18 -2 -53 l1 -27 9 -1 c9 0 10 0 11 2 2 3 0 78
-1 79 -2 1 -16 1 -18 0z" fill="white"/>
<path d="M426 542 c-1 -2 -1 -6 1 -6 3 -2 37 -3 52 -2 13 0 16 1 18 2 2 2 1 5
-2 6 -1 0 -7 0 -11 0 -9 -1 -40 -1 -51 1 -4 0 -6 0 -7 -1z" fill="white"/>
<path d="M209 541 c-1 -1 -1 -19 -1 -40 l1 -37 7 0 8 0 0 37 c0 21 0 39 -1 39
0 1 -4 1 -7 2 -6 0 -7 0 -7 -1z" fill="white"/>
<path d="M131 502 l1 -39 4 -1 c3 0 6 0 8 0 l2 1 0 38 c0 28 0 38 -1 39 -1 0
-4 1 -8 1 l-6 0 0 -39z" fill="white"/>
<path d="M152 531 c-2 0 -3 -4 -3 -7 0 -2 1 -2 14 -2 l13 0 0 3 c0 6 -1 7 -13
7 -5 0 -10 0 -11 -1z" fill="white"/>
<path d="M431 530 c-4 -5 -8 -30 -7 -42 1 -9 4 -15 10 -20 6 -6 14 -9 24 -10
20 -1 34 7 39 21 3 7 2 25 -1 39 -3 11 -5 14 -8 12 l-3 -1 2 -6 c3 -11 5 -27
5 -33 -1 -11 -7 -20 -15 -24 -5 -2 -23 -3 -29 -1 -6 2 -11 8 -14 14 -4 8 -2
27 3 45 2 5 2 6 0 6 -2 1 -5 1 -6 0z" fill="white"/>
<path d="M442 529 c-1 0 -2 -6 -4 -13 -5 -21 -4 -36 3 -42 3 -3 5 -3 9 1 2 3
2 3 0 6 -1 2 -1 6 -1 10 0 5 0 7 6 17 3 7 6 13 7 13 1 1 2 -2 7 -10 6 -14 7
-20 4 -28 l-2 -5 3 -2 c2 0 3 -2 4 -4 l0 -2 3 3 c5 4 8 12 8 18 0 5 -5 30 -7
37 0 2 -2 2 -20 2 -11 0 -20 0 -20 -1z" fill="white"/>
<path d="M48 513 c-6 -17 -14 -44 -14 -47 0 -3 2 -4 11 -4 4 0 6 0 7 1 0 1 0
15 0 31 l0 29 -4 -10z" fill="white"/>
<path d="M331 520 c-18 -1 -26 -2 -35 -6 -8 -3 -19 -10 -23 -15 l-3 -4 4 0 c2
1 6 0 9 0 5 -2 7 -1 7 3 0 3 2 4 7 5 5 0 17 -2 25 -6 4 -2 4 -2 4 -7 0 -5 1
-7 6 -7 2 0 2 1 2 11 0 14 1 15 18 14 4 0 13 -2 19 -5 l5 -2 0 -7 c0 -8 2 -11
5 -7 1 1 2 3 2 6 l0 5 6 0 c3 1 6 1 7 1 2 1 3 20 1 21 -2 1 -45 1 -66 0z" fill="white"/>
<path d="M150 518 c-1 -1 -1 -11 -1 -29 l1 -26 12 -1 c10 0 12 0 13 2 2 1 2 5
2 26 0 19 0 26 -1 27 -2 1 -25 2 -26 1z" fill="white"/>
<path d="M457 507 c-8 -14 -8 -24 -1 -28 5 -2 5 -1 5 6 0 3 0 6 1 6 0 0 1 -3
2 -6 0 -4 1 -5 2 -5 2 0 5 5 6 10 0 5 0 7 -3 13 -5 8 -6 11 -7 11 0 0 -2 -3
-5 -7z" fill="white"/>
<path d="M338 502 c-1 -2 -1 -83 0 -85 0 -2 2 -2 8 -2 l8 0 0 20 c0 12 0 32 1
45 l0 24 -8 0 c-7 0 -9 0 -9 -2z" fill="white"/>
<path d="M359 502 c-1 0 -1 -2 -1 -3 l0 -3 8 0 c4 0 7 0 7 1 0 2 -13 7 -14 5z" fill="white"/>
<path d="M293 457 l1 -42 5 -1 c4 0 7 0 8 1 1 1 1 8 1 41 0 30 0 41 -1 42 -1
0 -4 1 -8 1 l-6 0 0 -42z" fill="white"/>
<path d="M311 489 l0 -7 4 0 c6 1 8 2 8 7 0 3 -1 4 -5 6 -2 0 -4 1 -5 2 -2 0
-2 -1 -2 -8z" fill="white"/>
<path d="M387 494 c-1 0 -1 -18 -1 -40 l0 -39 3 0 c4 -1 7 0 8 2 2 5 2 74 0
77 -1 1 -9 2 -10 0z" fill="white"/>
<path d="M359 492 c-1 0 -1 -18 -1 -38 l0 -38 5 -1 c4 0 5 0 5 2 0 1 0 9 0 18
1 9 1 24 1 33 0 15 0 16 2 17 2 0 4 4 2 7 -1 1 -13 2 -14 0z" fill="white"/>
<path d="M268 489 c0 -1 -1 -4 -2 -6 l0 -4 7 0 c8 0 10 1 10 5 0 6 -1 7 -8 7
-5 0 -6 0 -7 -2z" fill="white"/>
<path d="M286 489 c-1 -7 0 -73 1 -73 3 -3 3 3 3 37 0 34 -1 36 -2 37 -1 0 -2
0 -2 -1z" fill="white"/>
<path d="M372 481 c-1 -2 -2 -64 0 -66 0 -1 2 -1 5 -1 4 0 4 1 5 5 1 6 1 59 0
61 -1 2 -8 3 -10 1z" fill="white"/>
<path d="M322 479 c-5 -1 -9 -2 -10 -2 -2 -2 -2 -60 0 -62 2 -1 18 -1 20 0 2
1 2 5 2 32 0 17 0 31 0 32 -1 1 -1 1 -12 0z" fill="white"/>
<path d="M265 474 c0 -1 -1 -13 -1 -28 0 -31 0 -30 10 -31 3 -1 6 -1 7 0 1 1
2 5 2 28 0 15 0 28 0 30 -1 2 -2 2 -9 2 -5 0 -8 0 -9 -1z" fill="white"/>
<path d="M451 472 c-5 -4 -2 -4 10 -4 9 0 11 0 13 1 1 2 1 2 0 3 -1 2 -3 2
-11 2 -8 0 -10 0 -12 -2z" fill="white"/>
<path d="M436 454 c-2 -3 -2 -4 -1 -6 2 -3 12 -5 27 -5 24 0 33 5 25 14 -2 2
-2 2 -6 1 -12 -4 -26 -5 -37 -1 -2 1 -5 2 -5 2 -1 0 -2 -2 -3 -5z" fill="white"/>
<path d="M487 443 c-13 -5 -31 -5 -46 -1 -7 2 -9 2 -10 1 -3 -3 3 -7 16 -10 9
-1 26 -1 35 1 6 2 11 5 12 7 0 3 -1 4 -7 2z" fill="white"/>
<path d="M106 440 c-3 0 -9 0 -15 -1 -23 -2 -39 -10 -48 -24 -3 -3 -3 -4 -2
-5 2 0 3 0 13 3 5 3 8 3 18 3 13 0 15 -1 15 -5 0 -3 0 -3 9 -3 5 -1 9 -1 10
-2 0 -1 1 -4 2 -6 l1 -4 10 -1 10 0 0 5 c1 6 2 7 10 7 7 0 9 1 9 6 0 6 1 6 20
6 14 0 18 1 18 2 0 2 -10 9 -16 12 -12 6 -21 7 -41 8 -11 0 -21 0 -23 -1z" fill="white"/>
<path d="M155 415 c-3 0 -4 -1 -4 -3 0 -3 2 -5 7 -6 8 -1 8 1 8 -37 0 -29 0
-34 1 -34 1 0 2 0 2 1 1 0 1 18 1 40 l0 40 -6 0 c-4 0 -8 0 -9 -1z" fill="white"/>
<path d="M173 415 c0 -1 0 -5 0 -10 l1 -8 6 -1 c8 0 9 0 9 11 l0 9 -8 0 c-5 0
-7 0 -8 -1z" fill="white"/>
<path d="M70 412 c-1 -1 -1 -56 0 -69 l0 -10 7 0 7 1 0 38 c0 43 1 41 -8 41
-3 0 -6 0 -6 -1z" fill="white"/>
<path d="M58 411 c-5 0 -6 -2 -1 -2 2 -1 4 -2 5 -3 1 -1 1 -15 1 -36 0 -31 1
-41 2 -36 1 1 1 19 1 40 l0 38 -3 0 c-1 0 -4 0 -5 -1z" fill="white"/>
<path d="M192 374 c0 -37 0 -38 2 -38 5 0 6 6 5 34 -1 24 -2 33 -5 39 -2 2 -2
-2 -2 -35z" fill="white"/>
<path d="M38 406 c-1 -2 -4 -11 -3 -12 0 0 5 -1 12 -1 l12 0 0 5 c1 6 0 7 -9
8 -10 1 -11 1 -12 0z" fill="white"/>
<path d="M87 369 c0 -25 0 -34 1 -35 1 -1 4 -1 9 -1 l7 0 0 5 c1 3 1 19 0 35
l0 30 -9 0 -8 0 0 -34z" fill="white"/>
<path d="M132 401 c-1 -5 0 -6 7 -6 5 0 6 0 7 -2 1 -1 1 -12 1 -30 0 -19 0
-28 1 -29 1 0 4 0 7 0 l7 1 0 33 c1 31 1 32 -1 34 -1 1 -5 1 -15 1 l-13 0 -1
-2z" fill="white"/>
<path d="M250 395 c-9 -1 -17 -7 -23 -17 -2 -4 -2 -7 -3 -14 0 -7 0 -8 3 -14
4 -9 14 -17 21 -17 2 0 4 -2 2 -3 -1 -1 -6 -1 -10 1 -1 0 -2 -1 -3 -5 -2 -4
-2 -6 -2 -14 0 -12 2 -17 8 -24 5 -4 22 -14 31 -17 21 -9 44 -8 64 3 4 1 7 3
7 4 1 0 0 2 -1 3 -1 2 -1 6 0 8 1 0 3 1 5 1 2 0 3 0 3 1 0 0 -2 3 -4 7 -4 7
-6 11 -10 24 -3 13 -7 21 -14 29 -9 8 -24 16 -33 16 -2 0 -3 0 -4 -6 -1 -9 -3
-7 -3 3 -1 10 -3 15 -8 21 -7 8 -16 11 -26 10z m19 -30 c3 -5 3 -12 1 -18 -1
-2 -2 -4 -2 -4 -1 0 -1 3 0 6 1 5 0 12 -2 18 -1 3 1 2 3 -2z m39 -53 c5 -6 -3
-14 -8 -9 -2 2 -3 7 0 10 2 3 6 2 8 -1z m19 -37 c4 -1 4 -3 0 -3 -4 0 -7 3 -7
6 l0 4 2 -3 c1 -2 4 -3 5 -4z" fill="white"/>
<path d="M495 384 l-11 -11 9 -1 c5 0 9 -1 10 -2 1 -1 2 -8 2 -33 0 -17 0 -32
1 -33 1 -5 2 5 2 40 0 38 0 39 2 40 3 3 11 3 14 0 l3 -2 -7 1 c-8 0 -9 -1 -9
-11 0 -4 0 -8 1 -8 0 0 3 0 6 -1 11 0 15 -1 15 -3 1 -1 0 -1 -10 -1 l-12 1 0
-29 0 -29 2 -1 c1 0 7 0 12 0 l10 0 0 35 0 35 -2 4 c-6 11 -18 21 -23 21 -2 0
-5 -3 -15 -12z" fill="white"/>
<path d="M295 393 c-5 -2 -11 -8 -11 -11 0 -1 1 -4 2 -6 2 -5 2 -5 9 -6 8 -1
13 -3 20 -8 3 -2 6 -4 7 -4 2 1 3 12 3 17 -2 7 -9 16 -17 18 -5 1 -9 1 -13 0z" fill="white"/>
<path d="M174 392 c-1 0 -1 -13 -1 -29 l0 -28 7 0 c6 0 8 0 8 1 1 1 1 14 0 29
l0 28 -7 0 c-4 0 -7 0 -7 -1z" fill="white"/>
<path d="M109 391 c0 0 -1 -2 -1 -5 l0 -4 8 0 9 1 0 4 0 5 -7 0 c-4 0 -8 0 -9
-1z" fill="white"/>
<path d="M129 391 c-1 -1 -1 -10 -1 -29 l1 -27 6 -1 c5 0 7 0 8 2 1 2 2 51 0
54 -1 2 -2 2 -7 2 -4 0 -6 0 -7 -1z" fill="white"/>
<path d="M34 389 c-1 -1 -2 -7 -2 -28 l0 -27 2 0 c1 -1 8 -1 14 -1 l12 1 0 27
c0 25 0 27 -2 28 -1 0 -6 1 -12 1 -9 1 -11 1 -12 -1z" fill="white"/>
<path d="M108 377 c0 -1 0 -11 0 -23 l1 -20 6 -1 c10 0 10 -1 10 24 0 11 0 21
-1 21 0 0 -4 0 -8 1 -6 0 -7 0 -8 -2z" fill="white"/>
<path d="M489 367 c-1 -2 -1 -8 0 -9 2 -1 7 -1 10 0 4 1 4 6 1 9 -3 3 -10 3
-11 0z" fill="white"/>
<path d="M478 363 c-6 -9 -6 -10 -6 -36 l0 -23 5 0 c3 -1 6 -1 6 0 1 1 3 57 2
61 -1 4 -4 4 -7 -2z" fill="white"/>
<path d="M539 357 c-2 -8 -1 -55 0 -57 2 -2 13 -1 13 0 1 2 -1 22 -3 31 -1 7
-7 27 -9 30 0 1 -1 0 -1 -4z" fill="white"/>
<path d="M488 353 c0 -2 -1 -44 -1 -47 1 -3 2 -3 7 -3 3 0 6 0 7 0 1 1 1 7 1
25 0 12 0 24 -1 24 0 2 -2 2 -6 2 -3 0 -6 0 -7 -1z" fill="white"/>
<path d="M462 325 c-3 -11 -6 -20 -6 -20 1 0 11 -1 12 0 1 0 1 5 1 20 l0 19
-7 -19z" fill="white"/>
<path d="M133 312 c-2 0 -25 0 -50 -1 -26 -1 -49 -1 -50 -2 -2 0 -2 0 -2 -8 1
-5 2 -9 3 -10 0 0 8 -1 17 -1 21 -1 23 -2 24 -5 1 -2 2 -3 4 -4 1 0 3 0 5 -1
l2 0 0 8 c0 12 -2 11 29 11 l25 0 3 -3 c2 -3 3 -3 8 -3 9 0 10 0 10 -5 0 -4 1
-7 3 -6 1 1 1 27 0 27 -3 2 -24 4 -31 3z" fill="white"/>
<path d="M168 295 l0 -13 3 -1 c9 -1 10 -2 11 -6 1 -2 1 -14 1 -26 0 -13 0
-24 1 -25 0 -1 2 -1 3 -1 1 0 2 2 2 15 1 17 0 31 -2 43 -2 13 -5 18 -12 23 -7
5 -7 5 -7 -9z" fill="white"/>
<path d="M453 299 c-2 -2 -6 -10 -6 -12 0 -1 6 -1 12 -1 14 0 29 -1 62 -4 12
-2 25 -3 28 -3 l5 0 0 7 c0 6 0 8 -1 8 -1 1 -19 2 -41 3 -22 2 -44 3 -49 4 -7
0 -9 0 -10 -2z" fill="white"/>
<path d="M90 295 c0 -1 -1 -4 -1 -8 0 -3 0 -6 1 -7 1 0 6 -2 10 -3 5 -1 10 -3
10 -3 1 -1 1 -15 1 -31 l0 -29 4 0 4 1 0 9 c1 18 1 69 -1 70 -1 2 -26 3 -28 1z" fill="white"/>
<path d="M124 294 c-1 0 -1 -4 -1 -8 0 -9 -1 -9 10 -7 l7 2 0 7 0 7 -8 0 c-4
0 -8 0 -8 -1z" fill="white"/>
<path d="M146 289 l-2 0 0 -36 c0 -40 -1 -37 9 -35 l6 1 0 34 c0 28 0 35 -1
35 -3 1 -10 2 -12 1z" fill="white"/>
<path d="M234 287 c-3 -5 0 -9 9 -15 9 -7 27 -15 37 -18 22 -5 33 -3 30 4 -1
3 -1 3 -11 3 -18 1 -38 9 -55 22 -4 3 -8 6 -8 6 -1 0 -1 -1 -2 -2z" fill="white"/>
<path d="M49 287 c1 -1 5 -1 9 -2 7 0 8 0 5 1 -7 1 -16 2 -14 1z" fill="white"/>
<path d="M346 285 c0 0 0 -2 1 -3 2 -1 2 -1 4 0 2 2 1 5 -2 5 -1 0 -2 -1 -3
-2z" fill="white"/>
<path d="M34 281 c0 -7 1 -8 11 -8 8 0 8 0 8 5 0 4 -1 4 -8 6 -11 2 -11 2 -11
-3z" fill="white"/>
<path d="M387 279 c-7 -6 -15 -16 -15 -18 0 -1 4 -4 11 -7 6 -3 11 -5 12 -5 0
0 0 23 -1 31 l0 5 -7 -6z" fill="white"/>
<path d="M398 284 c-1 -2 -1 -18 1 -32 0 -4 0 -5 -2 -6 -2 -1 -4 0 -11 4 -11
5 -32 12 -35 12 -2 -1 -2 -1 2 -3 11 -5 43 -18 44 -18 4 0 4 2 4 23 0 11 0 20
-1 20 0 1 -1 0 -2 0z" fill="white"/>
<path d="M64 282 c-3 0 -6 -1 -7 -1 -1 -1 -1 -7 -1 -37 l0 -36 7 0 c5 0 8 1 8
1 1 0 1 17 1 37 1 42 1 38 -8 36z" fill="white"/>
<path d="M445 281 c-2 -2 -8 -17 -13 -32 -5 -17 -8 -34 -8 -55 0 -10 0 -11 2
-11 2 0 28 6 29 6 1 1 1 15 1 47 0 51 0 47 -6 47 -2 0 -4 -1 -5 -2z" fill="white"/>
<path d="M459 282 c0 -1 0 -7 0 -13 0 -10 1 -10 3 -10 3 0 4 3 0 4 -3 0 -3 2
0 3 5 1 6 -2 7 -21 1 -9 2 -17 2 -17 0 -1 1 2 2 6 2 10 3 11 14 12 3 1 6 2 7
2 1 1 1 4 2 7 0 3 1 6 1 6 2 3 19 6 32 7 10 0 11 0 12 -2 1 -1 2 -4 2 -6 0 -7
1 -9 4 -9 5 0 6 2 6 12 1 7 1 10 0 11 -1 1 -54 6 -72 7 -5 1 -12 1 -15 2 -5 0
-6 0 -7 -1z" fill="white"/>
<path d="M76 276 c-1 -3 1 -5 9 -4 7 0 17 1 17 1 0 1 -23 5 -24 5 -1 0 -1 -1
-2 -2z" fill="white"/>
<path d="M163 277 c-1 0 -1 -13 -1 -29 l0 -29 7 0 c11 0 10 -2 10 29 0 21 0
26 -1 27 -2 2 -14 4 -15 2z" fill="white"/>
<path d="M132 276 c-4 -1 -8 -2 -9 -2 -1 -1 -1 -8 -1 -29 0 -16 0 -29 1 -30 1
-1 2 -1 8 -1 4 1 7 2 8 2 1 1 1 7 1 30 0 16 0 30 -1 30 0 0 -4 0 -7 0z" fill="white"/>
<path d="M225 272 c-9 -12 -13 -23 -24 -56 -5 -17 -5 -19 -4 -22 3 -10 29 -24
52 -28 10 -2 32 -1 44 1 14 3 23 9 23 14 0 3 -4 6 -12 8 l-6 1 -6 -3 c-5 -2
-6 -2 -16 -2 -12 0 -19 1 -30 6 -6 3 -10 5 -15 11 -7 7 -13 17 -15 24 -1 6 2
5 4 -1 6 -16 19 -29 36 -34 5 -2 9 -2 19 -2 16 0 17 0 17 8 0 4 1 10 2 14 0 5
1 8 1 9 -1 0 -6 1 -11 2 -10 1 -11 1 -13 0 -2 -1 -4 -4 -5 -6 -1 -3 -3 -4 -3
-2 0 1 1 4 3 7 l3 6 -6 8 c-8 13 -5 12 5 -1 3 -4 6 -7 7 -7 1 -1 6 -2 12 -2
10 -2 10 -2 16 0 4 1 7 3 8 3 1 2 0 19 -2 20 -1 0 -4 0 -8 0 -19 -1 -46 8 -62
22 -4 4 -8 7 -9 7 0 0 -3 -2 -5 -5z" fill="white"/>
<path d="M36 269 c-1 -1 0 -8 2 -26 3 -32 4 -36 9 -36 6 0 6 -2 6 31 l0 31 -5
0 c-7 1 -11 1 -12 0z" fill="white"/>
<path d="M98 268 c-2 -1 -2 -5 -2 -28 0 -15 0 -28 1 -29 1 -1 2 -1 6 0 l5 1 0
26 c1 31 1 32 -5 32 -2 0 -5 -1 -5 -2z" fill="white"/>
<path d="M79 267 c-2 -1 -3 -1 -3 -17 -1 -9 -1 -22 -1 -28 l1 -12 7 0 c8 0 9
0 10 2 1 2 1 9 1 29 l0 27 -6 0 c-4 0 -8 0 -9 -1z" fill="white"/>
<path d="M520 264 c-5 -1 -10 -2 -11 -2 -1 -2 13 -1 19 0 3 1 6 2 7 2 1 1 -2
1 -15 0z" fill="white"/>
<path d="M539 261 c-1 0 -6 -1 -11 -2 -7 -2 -10 -3 -10 -4 -1 -2 -7 -57 -8
-70 0 -10 0 -12 3 -9 0 1 2 16 4 34 1 17 3 33 3 34 1 2 3 3 10 4 5 2 9 3 10 3
1 1 0 11 -1 10z" fill="white"/>
<path d="M338 258 c-4 -2 -21 -30 -21 -34 0 -1 2 0 3 1 4 1 4 1 6 0 3 -2 3 -3
3 -8 0 -4 -1 -7 -2 -10 -1 -2 -2 -4 -2 -5 0 -2 -4 -6 -10 -8 -2 -1 -4 -3 -3
-3 1 -2 32 -11 34 -11 2 1 9 11 22 31 11 17 20 30 20 30 -1 1 -46 19 -47 19 0
0 -2 -1 -3 -2z" fill="white"/>
<path d="M500 258 c-1 -2 -3 -13 -2 -14 0 -1 13 -3 14 -2 1 1 3 14 2 14 0 1
-3 1 -5 1 -3 1 -6 1 -7 2 -1 0 -2 0 -2 -1z" fill="white"/>
<path d="M459 242 l1 -12 3 0 c3 0 4 0 4 5 0 2 0 8 -1 12 0 6 -1 7 -4 7 l-3 0
0 -12z" fill="white"/>
<path d="M314 242 c0 -6 0 -11 1 -12 0 -1 2 1 4 5 l3 7 -4 5 -5 5 1 -10z" fill="white"/>
<path d="M547 247 c-1 0 -4 0 -7 0 -3 -1 -6 -2 -5 -2 0 -1 11 -1 14 0 5 2 2 4
-2 2z" fill="white"/>
<path d="M486 243 c-5 0 -5 -1 -3 -1 5 -2 11 -2 11 0 0 2 -2 2 -8 1z" fill="white"/>
<path d="M523 239 c-1 -6 -5 -44 -6 -56 0 -13 -1 -12 8 -14 6 0 7 1 8 13 0 6
2 21 3 34 1 18 1 23 0 24 0 1 -4 2 -7 2 l-6 0 0 -3z" fill="white"/>
<path d="M545 241 c-5 -1 -4 0 -6 -28 -3 -36 -3 -43 -2 -43 2 -1 4 7 8 37 3
15 5 28 5 29 1 1 1 3 1 4 1 2 1 2 -6 1z" fill="white"/>
<path d="M497 237 c-4 -18 -9 -59 -8 -60 2 -2 15 -4 17 -2 0 1 6 58 6 60 0 2
-2 3 -5 4 -9 2 -10 1 -10 -2z" fill="white"/>
<path d="M385 232 c-2 -3 -11 -17 -19 -30 -12 -18 -15 -23 -14 -24 2 -1 6 1 9
4 1 1 9 14 19 28 l17 25 -2 2 c-4 3 -5 2 -10 -5z" fill="white"/>
<path d="M477 237 c-1 -3 -10 -52 -10 -55 0 -2 1 -3 1 -4 2 -1 13 -3 15 -2 1
0 2 1 6 31 3 23 4 29 3 30 -1 0 -4 1 -8 1 -6 1 -6 1 -7 -1z" fill="white"/>
<path d="M462 225 c-2 -2 -3 -2 -3 -17 0 -15 1 -19 4 -19 2 0 2 3 5 19 3 15 2
17 -2 18 -1 0 -3 -1 -4 -1z" fill="white"/>
<path d="M306 222 c-3 -1 -5 -3 -6 -4 -2 -2 -5 -19 -5 -22 2 -4 11 -4 19 1 7
3 10 7 6 7 -4 -1 -4 1 1 5 5 2 6 5 3 5 0 0 -2 0 -3 -1 -2 -1 -3 -1 -3 0 -1 0
0 2 3 3 2 2 4 3 4 4 2 2 -2 2 -7 0 -2 -1 -5 -2 -6 -2 -2 0 -2 0 -1 2 2 4 1 5
-5 2z" fill="white"/>
<path d="M442 183 c-13 -3 -15 -4 -14 -4 0 -1 10 -2 22 -4 11 -2 35 -6 52 -9
18 -2 33 -5 33 -4 1 0 1 3 0 3 -5 0 -16 2 -20 4 -3 1 -6 2 -13 2 -4 0 -10 1
-12 1 -3 2 -5 2 -6 1 -3 -1 -16 1 -18 3 -1 1 -2 3 -2 5 l0 5 -5 0 c-2 0 -10
-1 -17 -3z" fill="white"/>
<path d="M199 181 c-1 -2 -1 -15 0 -20 1 -3 4 -12 8 -19 5 -10 7 -15 8 -21 2
-8 3 -10 10 -13 6 -4 20 -3 26 0 7 3 13 9 16 15 2 5 4 7 11 12 7 4 6 1 -1 -5
-6 -5 -7 -7 -8 -10 0 -3 0 -4 2 -5 1 0 5 0 9 0 4 0 7 0 11 2 13 6 18 19 20 41
0 11 0 11 -2 11 -4 -2 -22 -6 -30 -7 -25 -3 -52 3 -75 18 -4 2 -5 3 -5 1z" fill="white"/>
<path d="M59 176 c0 -2 22 -29 24 -30 1 -1 5 0 12 3 6 2 11 5 12 5 1 2 -10 12
-17 15 -12 6 -31 10 -31 7z" fill="white"/>
<path d="M426 174 c0 -2 4 -9 8 -12 6 -7 7 -7 21 -8 13 -1 14 -1 27 -5 14 -5
31 -9 38 -9 4 0 4 0 8 8 5 7 6 10 4 10 -1 0 -29 5 -52 8 -14 3 -31 6 -37 6 -6
1 -13 2 -14 2 -2 1 -3 0 -3 0z" fill="white"/>
<path d="M189 152 c-3 -2 -13 -8 -21 -12 -14 -7 -17 -9 -22 -14 -15 -15 -17
-31 -6 -40 3 -4 10 -6 12 -5 0 1 -2 2 -4 3 -6 4 -9 9 -9 17 0 7 2 12 8 18 6 7
11 10 26 16 20 9 28 15 24 20 -2 2 -2 1 -8 -3z" fill="white"/>
<path d="M290 112 c-2 0 -7 -1 -10 -1 -7 0 -9 -1 -5 -4 2 -2 25 -13 29 -13 4
-1 5 1 2 2 -3 1 -4 4 -2 4 1 0 3 -1 5 -3 5 -3 5 -2 0 3 -4 4 -2 4 4 1 4 -2 5
-2 3 1 -1 2 -20 12 -22 12 -1 0 -3 -1 -4 -2z" fill="white"/>
<path d="M222 103 c-1 -2 -1 -5 0 -7 2 -3 31 -15 35 -15 l3 0 -4 3 c-2 2 -3 4
-2 4 1 1 7 -2 8 -4 1 -2 4 -3 4 -1 0 1 -2 3 -4 5 -2 2 -4 4 -4 4 0 2 3 1 7 -3
5 -4 6 -5 6 -3 0 3 -7 10 -14 13 -6 3 -6 3 -14 3 -8 -1 -12 0 -18 1 -1 1 -2 0
-3 0z" fill="white"/>
<path d="M0 51 l0 -51 10 0 10 0 0 6 c0 3 1 12 3 20 2 12 2 16 2 25 -1 18 -8
33 -19 45 l-6 7 0 -52z" fill="white"/>
<path d="M45 73 c0 -4 6 -32 8 -37 1 -3 5 -8 10 -14 6 -5 11 -13 14 -16 l3 -6
17 0 18 0 -7 7 c-5 5 -8 10 -12 17 -7 14 -14 24 -20 29 -2 2 -9 7 -14 10 -6 3
-12 8 -14 9 l-3 3 0 -2z" fill="white"/>
<path d="M594 61 c-6 -7 -14 -23 -16 -33 -1 -4 -2 -12 -2 -17 l0 -11 12 0 12
0 0 34 c0 18 0 33 0 33 -1 0 -3 -3 -6 -6z" fill="white"/>
<path d="M112 38 c4 -8 15 -19 23 -24 3 -2 12 -6 18 -9 l11 -5 23 0 23 0 -1 2
c-5 10 -14 18 -29 24 -13 6 -21 8 -39 10 -16 2 -23 4 -28 7 -4 2 -4 1 -1 -5z" fill="white"/>
<path d="M547 22 c-3 -4 -15 -9 -24 -10 -17 -3 -25 -6 -29 -11 -1 -1 2 -1 27
-1 l28 0 0 5 c2 12 2 19 1 19 0 0 -2 -1 -3 -2z" fill="white"/>
<path d="M41 10 c-1 -2 -1 -5 -1 -7 l-1 -3 10 0 c8 0 9 0 8 1 -1 2 -14 12 -15
12 -1 0 -1 -1 -1 -3z" fill="white"/>
<path d="M428 3 l-3 -3 3 0 c4 0 4 0 4 3 0 2 0 3 0 3 0 0 -2 -1 -4 -3z" fill="white"/>
</g>
</svg>
