<?xml version="1.0" encoding="UTF-8"?>
<svg width="600" height="800" viewBox="0 0 600 800" fill="none" xmlns="http://www.w3.org/2000/svg">
<g transform="translate(0,800) scale(1,-1)">
<path d="M501 788 c-1 0 -1 -5 -1 -10 0 -8 0 -9 2 -9 2 0 2 1 2 10 0 9 -1 11
-3 9z M473 782 c0 -1 5 -16 7 -17 3 -1 3 2 0 9 -3 8 -5 10 -7 8z M526 775 c-4 -8 -4 -10 -2 -11 1 0 3 2 5 7 3 9 4 11 1 11 0 0 -2 -3
-4 -7z M368 771 c-7 -2 -14 -6 -18 -12 -2 -2 -4 -5 -4 -5 0 -1 -1 -1 -3 0
-1 0 -4 1 -7 1 -10 0 -17 -5 -20 -14 -2 -3 -2 -4 -7 -4 -6 -1 -8 -2 -12 -6 -6
-8 -3 -18 7 -21 4 -2 10 -2 61 -2 l57 0 -3 -4 c-2 -3 -2 -3 -9 -3 -6 0 -7 -1
-11 -3 -5 -3 -8 -8 -9 -13 0 -3 -1 -4 -5 -5 -10 -4 -14 -13 -10 -21 1 -3 3 -5
4 -6 5 -5 7 -5 57 -5 26 0 49 0 51 1 6 1 9 4 12 9 l2 5 7 0 c6 1 9 2 16 5 21
11 32 34 26 57 -4 16 -16 29 -32 35 -9 3 -23 3 -32 0 -17 -6 -30 -20 -33 -37
-1 -6 -1 -6 -5 -6 -4 0 -4 0 -4 5 -2 14 -13 23 -28 22 l-5 0 -2 5 c-4 11 -14
20 -26 22 -7 1 -8 1 -15 0z m23 -7 c7 -4 12 -10 15 -20 1 -5 2 -5 4 -5 1 0 5
0 9 0 9 1 18 -5 20 -14 2 -7 1 -7 -4 -9 -11 -4 -13 -4 -71 -4 -53 0 -58 1 -61
2 -1 1 -3 3 -4 4 -4 7 5 16 15 15 3 -1 4 0 5 6 1 2 2 4 4 6 5 6 13 8 20 4 4
-2 4 -2 8 5 3 5 8 9 15 12 6 2 18 1 25 -2z m130 -10 c28 -14 36 -49 15 -72 -8
-9 -21 -15 -31 -15 -4 0 -4 0 -4 4 -2 8 -10 16 -20 17 -6 0 -6 0 -6 4 -2 9 -9
19 -17 22 -2 2 -3 3 0 11 3 14 15 26 30 31 4 2 8 2 16 2 9 -1 10 -1 17 -4z
m-64 -44 c8 -4 14 -14 14 -24 l0 -3 8 0 c9 -1 13 -3 16 -9 5 -9 1 -18 -9 -21
-2 -1 -21 -1 -52 0 l-49 0 -4 4 c-2 2 -3 4 -3 7 0 7 6 13 13 13 3 0 3 0 3 3 0
5 3 12 7 14 3 2 5 2 9 2 3 -1 6 -1 7 -1 2 -1 2 0 3 2 3 5 8 11 13 14 5 2 7 2
13 2 4 -1 8 -1 11 -3z M477 724 c-3 -1 -5 -5 -3 -6 1 -1 2 -1 3 1 2 2 3 3 4 3 1 0 4 -3 4
-5 0 -2 3 -1 4 1 0 2 -5 8 -8 8 -1 0 -3 -1 -4 -2z M519 720 c-3 -1 -5 -6 -3 -7 0 -1 2 0 3 1 3 3 5 3 8 -1 1 -3 1 -3 3
-2 1 2 0 6 -2 8 -2 1 -6 2 -9 1z M485 705 c0 -1 1 -3 2 -4 4 -5 10 -7 16 -7 6 1 12 5 12 7 0 3 -2 2
-5 0 -6 -4 -13 -4 -19 2 -4 3 -4 4 -6 2z M448 767 c0 -1 12 -14 14 -14 3 0 2 3 -4 9 -6 6 -8 7 -10 5z M547 761 c-4 -5 -6 -7 -6 -8 1 -1 1 -2 2 -2 0 0 3 3 7 6 4 5 6 7 6 8
-1 1 -1 2 -2 2 0 0 -3 -3 -7 -6z M88 750 c-9 -2 -17 -9 -20 -18 -1 -3 -1 -3 -4 -2 -1 1 -4 1 -6 0 -9
-1 -16 -6 -18 -15 -1 -3 -2 -4 -3 -4 -4 0 -10 -4 -13 -6 -3 -5 -3 -8 -1 -14 5
-8 2 -8 64 -8 l55 0 -1 -3 c-3 -6 0 -14 7 -18 4 -2 4 -2 53 -2 56 0 56 0 59 7
2 3 2 3 1 6 -2 5 -7 8 -12 8 -2 0 -3 1 -4 3 -1 3 -6 8 -9 9 -4 1 -11 1 -13 0
-1 -1 -2 0 -4 3 -4 9 -16 17 -26 17 -5 0 -13 -3 -16 -5 l-3 -2 -3 3 c-3 2 -6
2 -10 3 -5 0 -6 0 -7 3 -3 8 -12 14 -21 13 l-5 -1 -1 5 c-4 9 -12 17 -23 19
-7 1 -9 1 -16 -1z m22 -6 c8 -3 12 -10 14 -20 1 -3 1 -3 3 -3 7 2 9 3 13 2 5
-2 9 -6 10 -11 l2 -4 5 0 c5 0 14 -3 14 -5 0 0 -1 -1 -2 -3 -1 -1 -2 -3 -2 -5
-1 -2 -2 -2 -7 -2 -5 0 -7 0 -11 -3 l-5 -3 -55 0 c-56 0 -56 0 -61 4 -5 5 -1
14 9 15 7 1 7 1 7 6 1 11 11 16 24 12 2 0 2 0 3 3 1 5 5 12 9 15 5 3 10 5 18
5 5 0 8 -1 12 -3z m94 -38 c5 -2 11 -8 13 -14 1 -2 1 -5 2 -5 0 0 2 0 5 1 3 2
7 2 8 2 4 -1 9 -6 10 -10 1 -4 1 -4 5 -3 8 1 13 -6 8 -11 -2 -1 -5 -2 -50 -2
-27 0 -50 0 -52 0 -10 2 -11 16 -2 23 2 1 4 1 10 1 l8 0 1 4 c1 5 7 11 11 14
7 3 15 3 23 0z M434 745 c-2 -2 0 -3 8 -7 5 -2 7 -3 8 -2 2 1 0 3 -7 7 -7 3 -9 4 -9
2z M562 740 c-8 -4 -10 -5 -8 -7 1 -1 3 0 9 2 8 4 10 5 8 7 -1 1 -3 0
-9 -2z M558 714 c-1 -3 1 -4 10 -4 7 0 9 0 10 2 1 2 -2 3 -11 3 -6 0 -8 0
-9 -1z M554 691 c-1 0 -1 -1 -1 -1 0 -2 15 -8 17 -8 2 2 1 3 -6 7 -8 3 -9 3
-10 2z M540 672 c0 -1 12 -14 14 -14 3 0 2 3 -4 9 -6 6 -8 7 -10 5z M522 660 c-1 -1 5 -17 7 -18 2 -1 2 3 -1 11 -3 7 -5 10 -6 7z M500 656 c0 -1 0 -6 0 -11 0 -7 1 -8 2 -8 2 0 3 18 0 19 0 1 -1 0 -2
0z M302 648 c-3 -2 -3 -2 -6 -1 -4 3 -8 2 -11 -1 -3 -3 -4 -7 -2 -11 2
-5 14 -17 18 -17 2 0 11 9 13 14 4 7 4 11 0 15 -3 4 -8 4 -12 1z m10 -5 c1 -2
1 -2 0 -6 -2 -5 -9 -14 -12 -14 0 0 -3 2 -6 5 -7 6 -9 12 -7 15 3 3 6 2 9 -1
3 -3 5 -4 5 -2 0 2 5 6 7 6 1 0 3 -1 4 -3z M204 627 c-3 -3 -3 -3 -6 -2 -6 2 -13 -4 -11 -10 1 -7 14 -16 22 -17
5 -1 13 16 12 24 -1 5 -6 9 -10 9 -2 0 -4 -1 -7 -4z m11 -2 c2 -3 2 -9 -2 -17
-2 -3 -4 -6 -4 -6 -2 0 -10 4 -14 8 -4 3 -5 7 -3 10 2 2 6 1 9 -1 2 -3 3 -3 5
2 2 6 5 7 9 4z M588 630 c-9 -2 -16 -7 -19 -13 -2 -5 -2 -5 -9 -5 -14 -1 -24 -13
-24 -27 l0 -7 -3 2 c-3 1 -6 1 -14 1 -13 0 -17 -1 -25 -9 -8 -7 -11 -14 -12
-25 l0 -9 -6 0 c-11 -1 -21 -10 -22 -20 0 -3 0 -5 0 -5 0 0 -3 0 -6 1 -11 2
-21 -1 -29 -9 -4 -3 -10 -14 -10 -17 0 -2 0 -2 -2 -1 -6 1 -13 5 -19 9 -3 3
-6 5 -7 5 -2 0 -4 -3 -4 -7 1 -2 1 -2 -2 -2 -6 2 -11 2 -13 1 -2 -1 -3 -5 0
-8 0 -1 1 -2 1 -2 0 -1 -3 -2 -5 -3 -11 -6 -18 -16 -23 -29 -2 -5 -3 -8 -5 -8
-1 -1 -7 -2 -13 -3 -11 -1 -33 -1 -41 1 -3 1 -4 1 -4 7 -2 19 -12 35 -27 44
-6 3 -6 3 -5 6 3 3 2 6 -1 8 -2 1 -6 1 -12 -2 -2 0 -2 0 -2 3 0 6 -5 8 -9 4
-1 -2 -5 -5 -8 -7 -5 -4 -6 -4 -7 -2 -3 9 -10 17 -18 19 -2 1 -7 2 -11 2 l-6
0 1 3 c1 6 -2 17 -6 25 -5 11 -16 20 -29 22 -6 1 -17 0 -22 -3 l-4 -2 -3 5
c-5 7 -16 11 -24 8 -3 -1 -5 -2 -6 -2 -1 -1 -2 0 -3 3 -1 4 -6 10 -11 13 -4 1
-9 2 -15 1 -4 -1 -4 -1 -4 1 0 4 -7 17 -11 20 -6 6 -13 8 -21 9 -7 0 -8 0 -8
-2 0 -1 1 -2 7 -2 3 0 9 -2 11 -3 9 -4 17 -14 19 -25 0 -5 2 -6 6 -3 3 1 10 1
14 0 4 -3 9 -9 10 -13 1 -7 1 -8 2 -8 1 0 3 1 4 2 3 4 7 5 13 5 7 -1 13 -4 16
-10 1 -2 2 -4 2 -4 1 0 4 1 7 3 5 2 7 2 15 2 8 0 10 0 15 -2 14 -8 21 -20 21
-39 l0 -9 7 1 c8 0 14 -1 19 -5 4 -3 9 -11 9 -14 0 -1 -3 -3 -8 -5 -5 -2 -9
-5 -14 -10 l-6 -6 -16 6 c-17 7 -19 9 -13 12 9 4 10 14 4 21 -3 2 -5 3 -9 3
-4 0 -5 0 -4 2 1 8 -8 15 -16 13 -4 -1 -8 -5 -9 -9 0 -3 -1 -3 -3 -2 -4 0 -4
0 -7 0 -2 0 -4 -1 -7 -3 -3 -3 -3 -4 -3 -9 0 -5 0 -5 -3 -4 -3 1 -34 10 -43
12 -7 1 -26 4 -35 6 -5 0 -5 0 -5 -2 0 -2 0 -2 14 -4 6 -1 8 -2 6 -2 -3 -1 -5
-6 -5 -11 l1 -4 -4 0 c-4 0 -8 -4 -8 -8 0 -4 1 -7 6 -9 l3 -1 -2 -3 c-3 -4 -3
-9 1 -12 3 -2 8 -3 11 -1 2 3 3 2 3 -1 0 -1 1 -3 3 -5 3 -3 3 -4 4 -10 0 -3 1
-6 0 -6 0 0 -1 1 -3 3 -4 4 -10 7 -15 8 -5 0 -7 -1 -6 -5 2 -11 11 -19 24 -22
4 -1 6 -1 10 1 5 2 12 9 15 14 2 5 3 11 3 14 -1 4 -5 4 -11 0 -5 -3 -7 -5 -10
-10 l-2 -4 0 4 c-2 9 -2 10 2 12 2 3 3 4 3 7 0 4 0 3 4 1 5 -1 8 -1 11 3 3 3
3 6 -1 10 -2 5 -2 5 -1 5 2 0 7 5 7 8 0 6 -4 10 -10 9 -4 -1 -4 -1 -3 3 0 2 0
4 1 4 1 1 44 -12 44 -13 0 -1 0 -1 -1 -1 -1 0 -4 -6 -4 -9 0 -9 10 -16 17 -12
2 1 4 2 5 3 2 2 2 2 3 1 0 -1 2 -3 3 -4 2 -2 4 -3 8 -3 5 0 10 2 12 7 1 2 2 4
2 4 0 0 6 -2 13 -5 8 -4 12 -6 12 -7 0 -1 -1 -4 -2 -8 -9 -20 -6 -43 8 -63 2
-3 4 -6 4 -7 0 0 -7 -1 -15 -1 -59 -3 -109 -10 -149 -22 -10 -3 -11 -3 -11 -6
0 -1 0 -2 0 -2 1 0 3 1 7 2 5 2 22 7 35 9 9 3 34 7 49 8 29 4 85 8 87 6 1 0 2
-3 3 -7 l3 -6 -7 0 c-4 -1 -16 -1 -25 -2 -58 -3 -100 -10 -139 -22 -12 -4 -13
-5 -13 -7 0 -1 0 -2 0 -2 0 0 5 2 11 4 32 10 80 19 130 22 32 2 43 3 44 2 0
-1 1 -6 1 -11 l0 -10 -8 2 c-6 2 -10 2 -22 2 -18 0 -27 -1 -45 -9 -16 -6 -22
-8 -29 -8 -9 0 -14 3 -20 12 -2 3 -4 4 -5 4 -3 0 -6 -3 -6 -7 0 -3 -1 -3 -3 0
-6 7 -11 -4 -9 -19 1 -4 1 -4 -1 -3 -2 1 -3 1 -4 -1 -4 -4 -1 -17 7 -29 2 -4
6 -11 8 -16 4 -13 10 -22 20 -33 10 -9 18 -14 30 -18 9 -3 31 -6 47 -7 12 0
12 0 12 -3 0 -3 3 -11 6 -15 3 -4 3 -5 -3 -5 -1 0 -6 -1 -10 -3 -9 -4 -11 -4
-17 2 -2 1 -4 3 -5 3 -4 0 -8 -10 -7 -19 2 -17 12 -30 28 -35 9 -2 34 -2 44 1
8 2 15 8 18 14 4 10 2 23 -6 32 l-4 5 3 2 c2 1 4 2 7 2 3 0 6 1 8 1 5 1 10 6
10 8 0 3 -4 6 -6 6 -3 0 -9 3 -9 4 0 0 4 1 9 2 19 3 30 7 38 16 16 18 19 46 7
72 -2 4 -7 14 -12 22 -5 9 -10 18 -11 21 -4 6 -8 19 -7 20 0 0 21 0 46 0 l46
0 3 -2 c2 -2 4 -3 6 -4 4 -1 13 1 18 3 3 2 7 3 8 3 2 0 2 0 2 -6 -1 -9 -7 -23
-20 -45 -14 -24 -18 -34 -19 -48 0 -12 2 -22 7 -33 7 -14 15 -20 30 -24 4 -1
7 -2 7 -2 0 -1 -4 -3 -9 -4 -4 -1 -5 -2 -5 -5 0 -5 8 -10 17 -10 3 0 5 -1 7
-2 l3 -2 -3 -4 c-9 -10 -11 -22 -7 -32 4 -10 14 -15 32 -17 17 -2 36 1 44 8 9
7 15 21 14 33 -1 9 -3 14 -6 14 -1 0 -4 -2 -6 -3 -6 -5 -8 -6 -16 -2 -4 1 -10
3 -12 4 l-5 0 4 5 c2 3 4 7 4 10 l1 4 13 0 c22 0 53 4 65 8 23 7 41 26 50 52
1 4 4 10 6 13 5 8 8 16 9 23 0 7 -1 9 -5 9 -3 -1 -3 0 -2 2 0 2 0 7 0 11 0 5
0 7 -1 9 -3 3 -5 3 -8 -1 l-3 -3 0 2 c0 6 -4 11 -8 8 0 -1 -2 -3 -4 -6 -3 -4
-10 -8 -15 -9 -6 -1 -16 1 -29 7 -17 7 -27 9 -42 10 -10 0 -15 0 -22 -2 -5 0
-11 -1 -12 -2 l-3 0 0 9 c1 5 1 10 2 12 l1 4 7 -1 c48 -4 81 -8 112 -15 14 -3
42 -11 52 -15 7 -3 7 -3 7 0 0 2 -2 3 -15 7 -37 13 -82 21 -137 26 -13 1 -24
2 -24 2 -1 1 6 14 8 15 2 1 38 -2 61 -6 38 -4 68 -11 93 -20 7 -2 13 -4 14 -4
0 0 0 1 0 2 0 2 -2 3 -8 5 -37 13 -87 22 -141 26 -9 1 -17 1 -17 2 0 0 1 2 3
5 6 9 8 17 9 30 1 17 -4 31 -13 42 -2 2 -3 4 -3 4 0 1 10 5 21 11 51 24 74 33
99 40 18 5 36 10 44 11 5 0 6 1 6 3 0 2 0 2 -3 2 -34 -6 -67 -16 -100 -30 -7
-3 -25 -12 -41 -19 -16 -8 -29 -14 -30 -14 -2 0 -13 7 -13 8 0 3 5 12 9 15 7
8 20 11 30 8 2 -1 5 -2 5 -1 1 0 1 2 1 5 0 5 2 11 6 14 4 5 8 6 16 6 7 0 7 1
7 3 0 1 0 5 0 10 0 6 0 8 2 13 4 7 10 13 17 16 3 2 6 2 13 2 8 0 9 0 15 -3 7
-3 9 -3 7 3 -2 5 -1 14 3 20 4 7 10 10 19 11 7 0 7 0 9 4 2 5 7 10 12 12 2 1
7 2 10 2 5 0 6 0 6 2 0 3 -5 4 -12 2z m-464 -100 c3 -3 3 -10 0 -13 -1 -2 -2
-2 -7 -1 -5 0 -5 1 -6 4 -1 4 0 9 2 10 3 3 9 2 11 0z m-20 -11 c4 -4 4 -5 2
-10 -2 -5 -3 -5 -6 -5 -6 0 -10 3 -10 9 0 7 8 11 14 6z m-69 -2 c0 0 -1 -1 -1
-2 -1 -2 -2 -2 -4 1 l-3 3 3 -1 c2 0 4 -1 5 -1z m106 -3 c2 -2 3 -4 3 -6 0 -3
-5 -8 -9 -8 -5 0 -7 1 -7 4 0 2 -1 4 -1 5 -1 3 -1 3 1 5 6 4 10 4 13 0z m-96
1 c2 -3 0 -9 -4 -13 -2 -3 -6 -1 -6 2 0 8 6 14 10 11z m-18 -2 c1 -1 2 -4 3
-7 1 -4 1 -4 -1 -5 -3 -2 -3 -2 -5 1 -5 5 -6 9 -4 12 2 2 4 1 7 -1z m95 -3 c1
-2 2 -4 2 -5 0 -4 -4 -8 -8 -8 -6 0 -10 9 -4 13 3 3 7 3 10 0z m99 -3 c0 -1
-1 -3 -2 -5 -3 -5 -1 -6 6 -3 3 1 7 2 9 3 l5 0 -5 -4 c-5 -5 -6 -8 -1 -7 3 1
14 -4 20 -11 3 -3 5 -5 5 -6 0 0 -1 -1 -3 -1 -5 -1 -5 -4 -1 -4 6 0 9 -2 11
-10 2 -7 4 -24 3 -30 -1 -4 -1 -4 -3 -3 -1 1 -5 4 -9 8 -7 8 -9 9 -14 9 -4 0
-9 -3 -12 -9 -4 -6 -6 -8 -12 -10 -7 -2 -9 -5 -9 -10 1 -5 5 -9 15 -16 l8 -5
-7 -1 c-4 0 -9 0 -12 1 -5 1 -7 0 -5 -2 3 -2 9 -3 17 -3 l7 1 1 -9 c2 -13 6
-23 17 -42 18 -31 22 -43 22 -59 0 -20 -10 -39 -25 -46 -5 -2 -17 -5 -28 -6
l-5 -1 -1 4 c-4 16 -20 24 -36 18 -9 -2 -17 -11 -18 -20 l-1 -3 -11 0 c-13 1
-36 4 -44 7 -20 5 -39 21 -48 43 -3 7 -4 9 -1 8 2 -1 1 2 -4 8 -6 6 -12 17
-13 25 0 3 0 5 0 5 0 0 3 -2 5 -4 7 -6 9 -5 5 4 -3 6 -5 16 -4 21 1 3 1 3 6
-3 6 -7 9 -10 11 -9 1 1 0 2 -2 5 -2 3 -4 8 -3 13 l1 2 3 -4 c7 -9 14 -13 27
-12 6 1 10 2 22 6 25 10 39 13 57 11 5 -1 12 -2 15 -3 5 -1 5 -1 4 -3 -1 -4
-1 -6 1 -6 2 0 6 11 6 18 0 14 -6 31 -15 46 -11 18 -15 29 -14 44 2 23 14 38
35 47 8 3 17 8 20 12 3 2 4 3 4 1z m-164 -6 c3 -1 2 -4 -1 -7 -3 -3 -11 -3
-12 0 -2 3 -1 4 3 6 5 2 7 2 10 1z m-37 -3 c3 -2 4 -2 3 -5 -1 -2 -1 -3 -5 -3
-5 0 -9 2 -10 5 -1 5 5 7 12 3z m89 -2 l4 -4 -2 -4 c-2 -5 -4 -6 -9 -6 -6 0
-10 6 -7 12 2 2 8 6 9 6 0 0 3 -2 5 -4z m-72 0 c3 -2 3 -8 -1 -10 -3 -1 -3 -1
-6 1 -4 2 -4 6 0 9 3 2 4 2 7 0z m97 -5 c2 -4 1 -6 -2 -9 -6 -6 -13 -3 -15 6
0 4 0 4 3 5 2 1 4 2 5 3 1 2 1 2 4 0 2 -1 4 -3 5 -5z m250 3 c4 -4 12 -8 22
-12 5 -2 12 -5 14 -6 14 -9 23 -28 22 -48 -1 -11 -4 -20 -12 -33 -9 -15 -15
-31 -15 -40 0 -5 -1 -5 -9 -8 -10 -3 -21 -4 -29 -2 -10 2 -10 2 -7 11 1 5 2
10 2 14 l0 6 10 0 c8 0 10 0 12 1 5 3 2 4 -5 3 -4 -1 -9 -1 -11 0 l-5 0 3 2
c2 1 6 4 9 7 9 7 11 13 6 18 -1 2 -5 3 -7 4 -5 1 -7 3 -12 10 -4 6 -7 8 -12 8
-4 0 -7 -2 -15 -10 -9 -9 -9 -9 -9 6 0 11 2 23 4 27 0 1 3 1 5 2 6 0 7 2 6 4
-1 1 -2 1 -5 1 l-3 -1 2 3 c5 9 17 18 24 18 5 1 5 2 -1 6 -3 3 -4 3 -3 4 2 1
9 0 14 -3 5 -3 7 -1 4 4 -3 6 -2 8 1 4z m-334 -9 c7 -3 7 -10 1 -10 -2 0 -4 1
-7 4 -4 4 -4 4 -2 6 2 3 3 3 8 0z m-23 -3 c0 -2 -8 -9 -10 -9 -4 0 -5 5 -2 9
1 1 4 3 5 3 3 2 4 2 5 0 1 -1 2 -2 2 -3z m11 -4 c1 -5 1 -9 -1 -11 -2 -2 -3
-2 -5 0 -1 1 -2 3 -2 5 0 7 1 9 4 9 2 0 3 -1 4 -3z m18 -22 c-1 -6 -4 -11 -9
-15 -6 -6 -7 -5 -5 3 2 6 5 11 9 13 5 3 6 3 5 -1z m-31 -6 c4 -3 11 -13 10
-14 -1 0 -7 2 -12 5 -4 2 -10 9 -10 12 0 2 0 2 5 1 2 -1 6 -3 7 -4z m227 -18
c9 -9 15 -13 27 -17 5 -2 10 -4 11 -5 2 -2 2 -2 -1 -4 -10 -6 -29 -7 -44 -3
-10 2 -22 9 -21 11 0 3 -2 3 -5 2 -2 -2 -3 -6 0 -6 1 0 4 -2 8 -5 18 -14 27
-18 34 -17 3 1 6 4 5 7 -1 0 -1 1 0 1 1 0 1 -1 2 -3 1 -4 -3 -7 -10 -6 -6 0
-8 0 -14 4 -15 8 -28 17 -30 21 -2 4 -1 6 6 8 6 2 8 4 13 11 7 10 10 11 19 1z
m79 -3 c0 -5 0 -12 1 -15 1 -6 1 -6 -10 -10 -4 -1 -10 -3 -12 -5 -3 -2 -4 -2
-17 -2 l-14 0 6 3 c6 2 11 6 11 9 0 3 -5 6 -14 9 -6 2 -10 4 -10 4 -1 0 0 4 0
8 l1 7 5 -1 c11 -1 41 0 47 1 3 1 6 2 6 2 0 0 0 -4 0 -10z m34 -6 c2 -2 4 -4
4 -6 3 -4 9 -9 13 -10 3 -1 6 -2 7 -3 1 -2 1 -2 -1 -6 -1 -2 -5 -6 -13 -11
-17 -12 -23 -14 -30 -14 -7 0 -11 2 -10 6 1 4 3 4 3 0 0 -2 1 -3 3 -4 6 -3 14
1 30 13 7 5 13 9 13 9 3 -1 2 3 0 5 -3 1 -6 1 -5 -1 1 -3 -9 -8 -21 -12 -13
-4 -36 -3 -44 3 -4 2 -2 4 9 8 12 4 19 9 26 16 9 10 12 11 16 7z m-111 -27 c6
0 7 -1 7 -2 0 -2 -1 -2 -3 -2 -3 0 -13 4 -13 6 0 0 1 0 1 0 1 -1 5 -1 8 -2z
m55 -5 c3 -4 13 -8 19 -8 2 0 3 0 3 -2 l0 -2 -47 0 -46 0 -1 5 c0 3 0 5 1 5
11 -6 13 -6 19 -7 6 0 7 0 10 2 2 2 4 4 4 6 l1 3 18 0 c16 0 17 0 19 -2z m46
-9 c-3 -2 -11 -4 -12 -3 -3 1 -1 3 6 4 10 1 10 1 6 -1z m60 -41 c0 -4 0 -4 -5
-6 -12 -5 -31 -6 -42 -2 -7 2 -8 2 -6 7 1 2 2 4 2 4 0 0 3 -1 7 -2 4 -1 9 -2
14 -2 8 0 22 2 25 4 3 2 5 1 5 -3z m59 0 c4 -1 13 -4 20 -7 6 -2 14 -5 18 -6
14 -5 27 -1 34 10 1 2 3 4 3 4 2 0 1 -11 -2 -15 -2 -3 -3 -5 -1 -5 2 0 11 9
13 13 5 9 5 -12 -1 -23 -4 -9 -2 -9 5 -2 5 4 6 4 6 2 0 -3 -3 -12 -6 -18 -1
-3 -5 -8 -8 -12 -4 -5 -5 -6 -3 -6 2 0 2 -1 -2 -11 -8 -17 -22 -31 -37 -38
-13 -5 -36 -9 -65 -10 l-17 0 -1 5 c-5 23 -34 32 -49 14 -2 -2 -5 -7 -6 -10
-1 -3 -2 -5 -3 -5 -3 0 -17 5 -20 8 -11 8 -18 25 -18 42 0 15 4 27 18 51 l6
10 4 -2 c14 -6 35 -5 50 1 l5 2 2 -2 c3 -4 4 0 2 6 -1 1 0 2 3 3 14 4 34 5 50
1z m-276 -98 c5 -3 10 -9 11 -15 1 -3 1 -4 -1 -4 -1 -1 -3 -2 -4 -4 -1 -2 -3
-5 -5 -5 -3 -3 -3 -6 1 -9 l2 -3 -2 -1 c-3 -3 -2 -5 2 -12 10 -11 10 -24 1
-33 -6 -6 -14 -8 -31 -8 -16 0 -24 1 -31 6 -10 6 -16 22 -14 34 1 3 1 6 2 6 0
0 1 -1 3 -2 6 -6 11 -6 20 -2 4 1 9 2 14 3 11 0 12 2 5 9 -9 10 -11 21 -5 31
6 11 21 15 32 9z m217 -6 c13 -8 15 -25 3 -38 -7 -8 -7 -9 2 -9 5 -1 10 -2 14
-4 11 -4 16 -4 22 2 l4 3 1 -5 c3 -15 -5 -31 -17 -37 -7 -4 -14 -5 -26 -5 -21
0 -31 4 -36 12 -3 5 -3 6 -3 11 0 7 2 12 8 20 2 3 4 6 4 6 0 1 -1 2 -3 3 l-2
3 2 1 c4 3 4 6 1 10 -2 2 -4 5 -5 6 -1 1 -2 3 -4 3 -2 1 -2 1 -1 6 2 6 7 11
12 14 4 2 6 2 12 2 5 0 8 -1 12 -4z m-194 -24 c5 -1 5 -2 1 -4 -4 -3 -9 -3
-14 -2 -6 2 -8 3 -5 5 1 0 3 3 4 4 l2 4 4 -3 c2 -2 5 -3 8 -4z m164 -5 c1 -2
2 -3 2 -4 -2 -1 -11 -3 -15 -2 -4 1 -10 4 -8 5 0 0 2 1 5 2 2 1 5 2 7 4 l3 2
1 -2 c1 -2 3 -4 5 -5z M200 471 c-5 -2 -7 -4 -7 -6 0 -2 2 -2 5 0 1 1 4 2 6 2 4 0 5 2 2 4
-2 1 -2 1 -6 0z M253 450 c-3 -3 -3 -9 0 -9 1 0 2 1 2 3 1 5 5 5 7 1 1 -3 2 -4 4 -2
1 1 0 4 -2 7 -3 3 -8 3 -11 0z M201 449 c-4 -2 -6 -6 -6 -9 1 -4 3 -3 5 1 1 3 2 4 4 4 3 0 7 -2 7
-5 0 -1 2 -2 4 -2 1 1 -1 6 -3 9 -3 3 -7 3 -11 2z M141 336 c-3 -1 -13 -3 -22 -5 -19 -6 -25 -7 -39 -7 -9 0 -10 0 -12
-2 -2 -2 -2 -5 0 -9 0 -2 0 -2 -1 -2 -1 1 -2 0 -4 0 -5 -4 -1 -14 8 -22 5 -4
5 -5 4 -7 -5 -8 14 -22 39 -29 8 -2 12 -2 26 -2 18 0 23 1 36 7 9 4 19 13 22
21 12 23 0 48 -27 56 -7 1 -22 2 -30 1z m28 -6 c12 -3 22 -10 26 -20 3 -6 3
-7 3 -15 -1 -7 -1 -10 -3 -14 -7 -13 -23 -23 -42 -26 -7 -1 -9 -1 -15 0 -9 2
-15 5 -18 9 -3 4 -1 5 6 6 5 0 7 0 7 1 0 1 -2 2 -6 3 -9 2 -14 4 -17 7 l-2 3
2 2 c2 2 4 2 7 2 7 -1 6 2 -1 4 -9 3 -15 7 -15 11 0 3 3 4 11 4 4 0 8 0 8 1 1
1 -1 3 -4 3 -2 1 -5 2 -7 4 -3 2 -3 2 -2 4 1 3 9 6 21 9 15 5 28 6 41 2z m-67
-11 c0 -1 0 -3 2 -5 l2 -3 -4 -1 c-6 -2 -7 -9 0 -15 2 -2 4 -4 5 -4 1 0 0 -1
-1 -3 -1 -1 -2 -3 -2 -4 0 -3 5 -8 9 -10 2 -1 3 -2 2 -3 -1 -4 0 -8 3 -12 5
-4 4 -4 -6 -1 -14 4 -30 13 -33 19 -2 4 1 4 11 0 5 -1 10 -3 10 -2 2 1 1 2 -2
3 -13 5 -27 15 -31 22 -4 8 -3 9 10 4 11 -4 17 -6 17 -4 0 0 -4 3 -8 5 -9 4
-16 10 -16 13 0 1 3 2 16 2 8 0 15 1 16 1 1 2 1 1 0 -2z M395 456 c0 -2 1 -2 3 -2 1 0 4 -1 6 -2 3 -2 4 -3 5 -2 2 3 -6 8 -11
8 -2 0 -3 0 -3 -2z M339 436 c-1 -1 -2 -3 -2 -5 -2 -3 1 -3 4 0 l3 4 2 -3 c1 -1 2 -3 2
-4 0 -1 1 -1 2 -1 4 1 -1 11 -6 11 -2 0 -4 -1 -5 -2z M391 434 c-2 -2 -4 -7 -4 -9 1 -3 3 -2 5 2 1 3 2 4 5 4 3 0 4 -1 6
-5 2 -3 3 -3 4 0 0 4 -5 9 -10 9 -2 0 -4 -1 -6 -1z M237 428 c0 -1 4 -6 6 -6 2 0 1 2 -1 5 -3 2 -4 2 -5 1z M360 413 c-2 -3 -2 -5 0 -5 2 0 5 4 5 5 -1 3 -2 2 -5 0z M438 328 c-15 -4 -26 -12 -31 -23 -3 -6 -3 -7 -3 -17 0 -9 0 -10 3
-16 4 -8 13 -17 22 -22 22 -11 55 -10 83 3 14 7 22 16 19 22 -1 2 -1 3 3 6 5
4 9 11 10 15 1 4 -1 8 -5 8 -2 0 -2 0 -1 2 2 3 1 7 -1 9 -2 1 -4 2 -14 2 -12
0 -24 2 -32 5 -18 6 -40 8 -53 6z m40 -7 c12 -3 19 -7 20 -10 1 -2 -3 -6 -9
-7 -3 -1 -4 -2 -4 -3 0 -1 2 -1 7 -1 17 1 16 -10 -2 -15 -9 -3 -9 -5 -1 -5 7
0 9 -2 6 -6 -3 -4 -7 -6 -15 -7 -6 -1 -8 -2 -8 -3 0 -2 1 -2 7 -2 5 0 7 -1 7
-2 2 -3 -5 -8 -13 -11 -23 -7 -52 5 -62 25 -3 6 -3 7 -3 15 0 7 0 9 2 13 3 7
8 12 16 16 14 8 30 9 52 3z m43 -8 c8 -1 12 -1 13 -2 3 -3 -6 -11 -17 -15 -6
-2 -7 -5 -3 -4 2 0 8 2 13 4 12 5 13 5 13 2 0 -9 -13 -20 -32 -27 -2 -1 -4 -2
-4 -3 0 -2 5 -1 13 2 8 3 10 4 10 2 0 -3 -6 -9 -13 -13 -6 -4 -20 -9 -28 -11
l-3 0 4 4 c4 4 5 7 3 11 -1 1 0 2 2 3 7 3 11 12 8 15 -2 1 -1 2 3 6 4 4 5 5 5
8 0 4 -3 8 -6 8 -2 0 -2 0 0 4 1 1 1 3 1 5 -1 2 -1 2 3 1 2 0 9 0 15 0z M185 226 c-2 -3 -3 -7 -1 -7 1 0 3 1 3 3 3 3 5 3 6 -1 1 -3 3 -2 4 1
1 5 -8 8 -12 4z M152 181 c-3 0 -7 -1 -8 -2 -3 0 -3 -6 2 -10 1 -1 3 -3 3 -4 0 -2 5
-7 9 -8 4 -1 11 -1 17 0 8 2 16 14 14 19 -2 4 -4 2 -4 -2 -2 -11 -17 -17 -28
-12 -3 2 -4 3 0 5 2 0 4 1 4 2 0 2 0 2 -4 2 -4 -1 -5 -1 -8 1 -2 1 -3 2 -3 3
0 0 3 1 6 2 6 1 9 3 8 5 -1 1 -1 1 -8 -1z M395 223 c-2 -1 -5 -5 -4 -7 1 -3 3 -2 4 1 1 3 5 3 6 -1 2 -3 3 -2 4
1 0 4 -5 8 -10 6z M429 177 c-1 0 -1 -1 -1 -1 0 -1 6 -4 9 -4 1 0 3 0 4 -1 1 -1 1 -1
-1 -3 -2 -1 -4 -2 -8 -2 -6 0 -7 -2 -1 -4 1 -1 3 -2 3 -2 0 -2 -7 -4 -12 -4
-10 0 -17 5 -18 13 0 3 -1 4 -3 4 -1 0 -1 -1 -1 -4 0 -6 4 -12 10 -15 3 -2 6
-2 11 -2 4 0 8 0 9 0 4 1 9 6 9 8 0 0 2 3 4 4 2 3 3 4 3 7 0 3 -1 4 -6 5 -3 0
-7 1 -8 1 -1 1 -3 1 -3 0z M325 628 c-6 -4 -5 -16 4 -28 l3 -4 5 2 c11 4 18 11 19 17 0 3 0 4
-2 7 -3 2 -4 3 -8 3 -2 0 -4 0 -5 -1 0 -1 -2 1 -3 2 -4 4 -9 5 -13 2z m11 -7
c1 -2 2 -4 2 -4 1 0 2 1 4 2 4 4 9 2 9 -3 0 -4 -4 -8 -11 -12 -7 -4 -7 -4 -12
6 -3 7 -3 13 0 15 3 2 5 1 8 -4z M276 606 c-2 -1 -5 -3 -6 -5 l-2 -4 -4 2 c-5 4 -9 4 -14 2 -12 -5
-10 -21 4 -33 7 -5 19 -12 21 -12 3 0 16 17 19 25 7 17 -4 32 -18 25z m13 -6
c2 -2 2 -3 2 -8 0 -6 0 -8 -3 -13 -3 -7 -12 -18 -14 -18 -2 0 -14 8 -19 12 -5
4 -9 11 -9 16 0 5 4 9 9 9 4 0 9 -3 11 -6 2 -3 3 -2 6 3 4 8 12 11 17 5z M368 602 c-9 -4 -12 -15 -8 -27 2 -7 10 -18 16 -25 l5 -5 7 4 c19 9
30 21 30 33 0 11 -10 18 -20 14 -3 -1 -5 -3 -6 -4 -2 -2 -2 -1 -5 3 -3 4 -10
8 -14 8 -1 0 -4 -1 -5 -1z m9 -4 c4 -2 7 -6 8 -10 2 -5 3 -5 7 -1 7 7 14 8 19
3 5 -6 3 -16 -6 -25 -4 -4 -21 -15 -23 -15 -2 0 -13 16 -16 22 -3 5 -3 8 -3
13 0 6 0 7 2 10 4 4 7 5 12 3z M212 585 c-6 -2 -9 -6 -11 -14 -1 -2 -1 -2 -5 0 -6 3 -12 3 -17 0 -6
-3 -8 -7 -9 -12 -1 -16 14 -29 42 -36 l9 -2 1 2 c4 4 12 22 13 29 4 15 0 29
-9 34 -4 1 -11 1 -14 -1z m16 -6 c3 -4 5 -10 5 -16 0 -5 -4 -18 -9 -28 l-4 -9
-4 1 c-5 0 -20 5 -25 8 -9 5 -17 14 -17 21 0 11 13 16 23 10 6 -4 7 -4 7 2 2
13 16 20 24 11z M215 563 c-2 -1 -3 -7 0 -7 0 0 1 1 1 1 0 3 3 5 4 3 2 -1 4 -1 4 0 0
2 -4 5 -5 5 -1 0 -3 -1 -4 -2z M190 551 c-1 -1 -1 -3 0 -4 1 -2 2 -2 3 1 0 2 2 3 4 2 3 -2 5 0 2 2
-2 3 -7 2 -9 -1z M215 547 c-1 -3 -5 -5 -8 -3 -2 0 -3 0 -4 0 -1 -1 -1 -1 1 -3 3 -2 6
-3 10 -1 3 2 6 6 5 8 -1 3 -3 2 -4 -1z M309 577 c-3 -3 -3 -4 -3 -10 0 -4 1 -7 3 -11 3 -7 10 -16 12 -16 3
0 17 8 21 12 7 8 7 17 1 21 -3 2 -9 2 -12 1 -2 -2 -3 -1 -6 2 -3 3 -4 4 -8 4
-3 0 -5 -1 -8 -3z m13 -3 c1 -1 2 -4 3 -5 1 -4 2 -5 5 -2 8 8 17 1 11 -9 -3
-4 -14 -12 -18 -13 -3 0 -5 2 -10 11 -3 7 -4 14 -1 17 3 4 7 4 10 1z M417 554 c-1 -1 -4 -3 -4 -5 -3 -4 -2 -13 0 -21 l3 -6 5 0 c18 1 29
13 20 21 -3 3 -4 3 -7 3 -3 -1 -3 0 -4 2 -3 6 -8 8 -13 6z m7 -6 c1 0 2 -3 2
-5 0 -4 1 -4 5 -2 4 1 4 1 7 0 6 -5 -1 -13 -14 -15 -5 -1 -5 -1 -6 2 -5 12 -3
22 3 22 1 0 3 -1 3 -2z M356 539 c-5 -5 -3 -16 3 -26 4 -6 5 -6 15 -2 12 6 16 15 11 21 -2 3
-8 5 -11 3 -1 -1 -2 0 -5 3 -4 4 -9 4 -13 1z m10 -4 c1 -1 2 -3 2 -4 0 -3 2
-4 5 -2 4 4 10 2 10 -2 0 -5 -6 -10 -15 -13 l-4 -2 -3 6 c-4 8 -5 13 -3 16 2
4 6 4 8 1z M276 532 c-2 -1 -5 -4 -6 -6 -3 -3 -4 -5 -4 -11 0 -9 2 -15 8 -25 5
-8 24 -27 27 -27 3 0 19 12 27 19 10 10 15 19 15 29 0 7 -1 10 -5 14 -4 4 -7
6 -13 6 -6 0 -11 -2 -16 -7 -4 -3 -4 -3 -5 -1 -2 3 -8 8 -12 10 -4 2 -12 1
-16 -1z m15 -4 c5 -2 8 -5 11 -10 1 -3 2 -5 3 -5 0 0 2 3 4 5 12 16 32 9 30
-9 -2 -11 -13 -25 -30 -37 l-8 -5 -10 10 c-19 18 -25 33 -19 45 4 7 11 10 19
6z M285 508 c-2 -1 -3 -6 -1 -6 1 0 2 1 3 2 0 1 1 2 2 2 1 0 2 -1 3 -2
2 -3 4 -3 4 0 0 2 -4 6 -7 6 -1 0 -3 -1 -4 -2z M315 506 c-2 -1 -3 -3 -3 -4 0 -2 2 -2 4 0 2 2 4 2 6 -1 1 -2 3 -2 3
1 0 2 -4 6 -6 6 -1 0 -3 -1 -4 -2z M294 494 c-1 -2 -1 -3 2 -5 4 -4 10 -4 14 -1 5 4 3 7 -2 4 -2 -3 -6
-2 -10 0 -2 3 -3 3 -4 2z M570 520 c-2 -2 -3 -3 -3 -4 -1 -1 -1 -1 -3 1 -4 5 -10 5 -14 1 -2
-3 -3 -7 -1 -11 1 -2 1 -2 -2 -2 -6 0 -10 -3 -10 -9 0 -4 3 -8 7 -9 3 0 3 0 1
-2 -4 -5 -3 -12 2 -15 4 -1 6 -1 10 1 3 2 3 2 3 0 0 -1 1 -3 2 -5 2 -3 2 -4 1
-12 l-1 -7 -1 3 c-3 7 -13 15 -18 14 -2 0 -3 -1 -3 -5 0 -2 0 -6 1 -8 1 -5 10
-15 16 -18 4 -1 6 -2 10 -1 14 3 27 15 25 25 -1 1 -1 1 -6 1 -5 0 -10 -2 -15
-7 l-4 -3 0 4 c1 2 1 5 1 7 0 2 0 3 3 3 4 1 7 5 7 10 l0 3 4 -2 c4 -1 5 -1 8
0 5 3 6 10 1 15 -2 2 -3 3 -1 3 1 0 3 1 4 3 4 3 4 8 0 12 -3 3 -4 3 -7 3 l-4
-1 1 4 c0 4 0 5 -2 7 -4 4 -9 4 -12 1z m9 -4 c1 -2 1 -4 0 -7 -3 -5 -5 -7 -8
-6 -2 0 -2 1 -2 5 0 3 1 6 2 7 3 4 7 4 8 1z m-21 0 c2 0 5 -5 6 -10 1 -2 0 -3
-2 -4 -2 -1 -3 -1 -5 1 -2 3 -5 7 -5 9 0 2 3 5 4 5 0 0 2 0 2 -1z m34 -13 c3
-4 -1 -8 -8 -9 -5 0 -6 0 -7 2 -1 3 -1 3 3 5 5 3 10 4 12 2z m-38 -4 c3 -2 4
-2 3 -4 -1 -3 -2 -4 -7 -4 -7 0 -11 4 -7 8 2 3 6 2 11 0z m18 -2 c2 -2 2 -7
-1 -9 -4 -3 -10 0 -10 5 0 1 1 3 2 4 1 2 7 3 9 0z m16 -12 c3 -2 3 -7 0 -8 -3
-2 -8 1 -12 6 -1 2 -1 2 0 4 2 3 2 3 6 2 1 -1 4 -2 6 -4z m-29 -5 c-2 -5 -7
-8 -10 -6 -4 2 -2 7 4 11 l4 3 2 -2 3 -2 -3 -4z m13 0 c2 -5 2 -9 0 -12 -4 -5
-9 1 -8 9 1 6 2 6 5 6 1 0 2 -1 3 -3z m-19 -27 c2 -2 4 -5 5 -8 1 -2 1 -5 2
-6 0 -3 -1 -2 -7 3 -6 5 -9 11 -9 15 0 3 0 3 3 2 2 -1 4 -4 6 -6z m35 1 c0 -5
-10 -14 -17 -16 -2 -1 -5 -2 -5 -2 -2 0 2 6 6 10 5 6 16 11 16 8z M488 470 c-2 -2 -3 -4 -3 -6 0 -3 0 -3 -3 -3 -10 0 -15 -11 -8 -17 2
-2 4 -3 5 -3 1 0 1 0 0 -2 0 -1 -1 -3 -1 -5 -1 -8 10 -14 16 -9 2 1 3 2 3 2 1
-1 3 -13 3 -15 0 -2 -1 -1 -4 1 -4 4 -10 6 -15 6 -5 -1 -6 -3 -3 -9 6 -11 22
-16 33 -11 6 3 13 11 14 17 1 3 1 7 1 7 -2 5 -14 0 -18 -7 l-3 -4 -1 4 c-1 3
-1 6 -1 7 -1 3 -1 3 3 2 5 0 5 0 8 3 4 4 5 9 2 13 -1 2 -1 2 2 5 3 2 4 3 4 7
0 5 -1 6 -4 8 -3 3 -4 3 -8 3 -3 -1 -4 0 -5 1 -2 8 -11 11 -17 5z m11 -3 c3
-2 3 -4 2 -7 -1 -2 -2 -3 -5 -3 -4 -1 -6 0 -7 5 -1 5 6 9 10 5z m17 -10 c1 -1
2 -3 2 -4 0 -2 -5 -6 -8 -6 -2 0 -3 1 -5 4 l-1 4 2 3 c4 3 7 3 10 -1z m-30 -2
c2 -2 3 -3 2 -4 -1 -1 -1 -3 -1 -4 0 -4 -9 -3 -11 1 -2 4 1 9 5 9 2 0 4 -1 5
-2z m14 -4 c2 -1 3 -6 1 -8 -3 -3 -10 0 -10 4 0 2 3 6 5 6 1 0 3 -1 4 -2z m11
-11 c2 -2 3 -4 3 -4 0 -2 -4 -7 -6 -7 -2 0 -6 3 -7 6 -1 2 -1 3 2 5 3 4 5 4 8
0z m-19 -1 c2 -1 4 -2 4 -3 0 0 -1 -1 -1 -3 -3 -6 -8 -7 -12 -2 -1 2 -1 5 2 8
3 2 3 2 7 0z m29 -23 c-1 -3 -7 -10 -11 -13 -2 0 -3 -1 -3 -1 -1 0 2 9 4 12 2
3 9 7 10 6 0 0 0 -2 0 -4z m-32 -3 c5 -3 12 -10 11 -12 -1 -1 -8 2 -12 4 -3 2
-7 7 -7 9 0 2 3 1 8 -1z M93 470 c-2 -1 -3 -3 -3 -5 -1 -3 -1 -3 -5 -2 -5 0 -9 -1 -11 -5 -2
-5 -1 -9 2 -12 3 -3 4 -4 2 -6 -2 -2 -1 -8 1 -11 3 -4 8 -6 11 -4 2 1 2 1 1
-5 0 -4 0 -7 -1 -7 0 -1 -1 0 -3 2 -3 6 -13 11 -16 9 -4 -2 0 -15 6 -21 9 -9
22 -9 33 -1 4 2 10 12 9 14 -1 2 -2 2 -6 2 -6 0 -10 -2 -15 -6 l-4 -3 2 8 c0
5 1 8 1 9 0 0 2 -1 5 -2 3 -2 4 -2 8 -1 6 2 8 8 6 15 -1 1 0 2 2 3 5 2 7 9 4
14 -2 4 -5 5 -9 5 -2 0 -3 1 -3 2 0 3 -3 8 -5 9 -3 2 -9 1 -12 -1z m9 -3 c3
-1 4 -5 2 -9 -1 -2 -1 -3 -3 -3 0 1 -2 1 -4 1 -3 0 -3 0 -4 4 -1 6 4 10 9 7z
m-13 -10 l2 -3 -2 -4 c-2 -4 -2 -4 -5 -4 -6 2 -9 7 -5 11 3 3 6 3 10 0z m28
-3 c5 -4 1 -10 -5 -10 -3 0 -4 0 -4 2 0 1 -1 3 -1 4 -2 5 6 8 10 4z m-16 -3
c3 -2 3 -6 1 -9 -2 -2 -7 -1 -9 2 -2 5 4 10 8 7z m-9 -12 c3 -3 3 -3 2 -6 -3
-4 -8 -5 -11 -2 -3 2 -2 6 0 9 4 3 5 3 9 -1z m19 -2 c1 -2 1 -7 -1 -8 -3 -4
-9 -2 -10 4 -1 2 -1 3 3 5 4 3 5 3 8 -1z m-31 -20 c4 -3 7 -7 8 -13 l0 -3 -3
1 c-6 5 -10 9 -11 15 -1 4 1 4 6 0z m34 -4 c0 -1 -2 -4 -5 -6 -3 -4 -6 -5 -9
-6 -3 0 -5 -1 -5 0 -1 0 3 6 5 8 5 4 14 7 14 4z M29 421 c-1 -1 -2 -3 -2 -6 l0 -4 -3 2 c-4 3 -9 4 -10 2 -3 -2 -2 -7
3 -15 3 -4 5 -7 6 -7 3 0 2 1 -2 9 -4 6 -6 10 -4 10 2 0 6 -4 10 -7 2 -4 4 -5
5 -4 0 1 1 2 0 4 -1 5 -1 14 0 13 2 0 4 -6 5 -11 1 -2 2 -5 3 -5 0 0 2 2 3 4
4 8 7 6 4 -2 -1 -4 -1 -5 0 -6 1 -1 3 2 5 8 2 8 -1 12 -8 8 -4 -2 -4 -2 -4 -1
0 3 -6 10 -8 10 -1 0 -2 -1 -3 -2z M561 416 c-1 -1 -2 -4 -3 -5 -1 -2 -1 -4 -2 -4 0 0 -1 1 -3 2 -3 2
-5 3 -7 0 -2 -2 -2 -5 0 -10 2 -6 3 -7 5 -6 1 1 1 2 -1 6 -4 9 0 10 4 2 1 -2
3 -4 3 -4 1 0 2 3 3 7 2 6 4 10 5 10 1 0 1 -4 1 -9 -1 -6 -1 -9 0 -9 1 0 4 2
6 6 4 3 6 5 8 5 2 0 2 0 1 -3 -1 -1 -3 -5 -5 -8 -3 -5 -4 -6 -3 -7 2 -2 7 4
11 12 2 4 2 5 1 8 -1 3 -7 3 -12 -1 l-3 -2 0 4 c0 2 0 5 -1 6 -1 3 -5 3 -8 0z M37 250 c-10 -5 -15 -13 -12 -20 3 -7 16 -16 33 -21 7 -2 9 -2 10 -1
2 2 1 2 -9 5 -21 7 -32 15 -31 23 1 3 6 8 13 11 4 2 5 4 3 5 0 1 -3 0 -7 -2z M560 246 c0 -1 0 -2 1 -2 4 -1 11 -7 12 -10 2 -3 2 -5 1 -7 -1 -5 -7
-10 -16 -14 -4 -2 -7 -5 -7 -5 0 -6 22 7 26 15 2 6 2 7 0 13 -2 3 -4 5 -8 8
-7 4 -8 5 -9 2z M275 245 c0 -1 1 -3 3 -4 3 -4 3 -5 -1 -9 -3 -4 -12 -8 -25 -12 -10
-2 -12 -3 -10 -5 1 -2 15 2 26 6 13 6 19 13 14 20 -2 4 -7 7 -7 4z M56 242 c-2 -2 -3 -4 -3 -7 0 -3 1 -4 4 -7 5 -5 6 -6 15 -9 15 -5 50
-10 52 -8 2 2 -1 3 -18 5 -31 5 -49 12 -49 19 0 1 1 4 3 5 2 2 2 3 1 4 -2 1
-2 1 -5 -2z M325 235 c-1 -1 -2 -4 -2 -6 0 -3 1 -5 4 -8 4 -4 16 -10 18 -9 3 1 1
3 -5 6 -12 4 -16 10 -11 16 2 2 2 4 0 4 -1 0 -3 -1 -4 -3z M548 237 c0 -1 1 -3 1 -4 3 -3 2 -4 -1 -8 -7 -8 -27 -15 -53 -18 -12
-2 -14 -3 -12 -5 0 -1 4 -1 12 0 27 4 49 12 56 19 5 5 5 11 1 15 -3 2 -3 2 -4
1z M296 217 c-7 -2 -10 -5 -14 -9 -10 -11 -10 -26 -1 -38 l3 -4 -5 0
c-2 -1 -8 -3 -12 -4 -9 -4 -11 -3 -16 2 -3 2 -4 3 -6 3 -4 -1 -5 -5 -5 -17 0
-9 0 -10 3 -17 7 -14 16 -19 35 -21 27 -3 47 4 51 19 3 10 2 18 -6 28 -3 5 -4
6 -3 7 4 3 6 3 8 3 4 0 12 2 15 5 2 1 3 3 3 5 0 3 -2 4 -7 6 -5 0 -8 3 -8 9
-1 6 -5 13 -9 17 -8 6 -19 8 -26 6z m15 -5 c5 -2 10 -6 12 -11 4 -7 4 -9 1
-11 -2 0 -3 -1 -3 -2 0 0 -2 -3 -4 -5 -4 -5 -4 -5 -3 -8 1 -1 2 -2 2 -2 0 0 1
0 2 -1 1 -1 1 -1 -1 -3 -4 -3 -4 -5 1 -11 6 -6 8 -11 8 -18 0 -8 -2 -12 -7
-16 -7 -6 -12 -8 -32 -7 -16 0 -18 0 -23 2 -14 5 -23 23 -20 39 l1 5 3 -3 c7
-6 10 -6 22 -2 6 2 9 3 14 3 9 1 10 2 4 9 -6 6 -8 10 -9 16 -1 11 4 20 13 24
6 3 14 4 19 2z m25 -31 c6 -2 7 -3 3 -5 -3 -2 -5 -2 -11 -2 -4 0 -7 1 -8 2 -2
1 -2 1 0 3 1 1 3 3 4 5 l2 3 3 -2 c2 -2 5 -3 7 -4z M303 194 c-3 -2 -3 -4 -3 -7 0 -2 2 -1 4 2 2 3 4 3 6 -1 1 -1 1 -2 2
-1 4 1 -1 9 -6 9 0 0 -2 -1 -3 -2z M272 150 c0 -1 -3 -1 -6 -2 -8 -1 -9 -3 -7 -7 1 -2 3 -5 4 -5 2 -1 3
-3 3 -5 1 -5 8 -7 17 -7 9 0 14 2 18 7 3 4 6 12 4 13 -2 2 -4 0 -4 -3 0 -4 -4
-9 -8 -11 -6 -3 -18 -3 -21 1 l-2 2 4 1 c2 1 4 2 4 3 0 1 -1 1 -6 1 -4 0 -9 2
-9 4 0 0 2 1 5 2 7 1 8 2 8 4 -1 2 -3 3 -4 2z M527 181 c-3 -3 -4 -4 -4 -8 0 -3 1 -6 2 -8 1 -3 2 -4 2 -5 0 0 -3 1
-5 1 -12 3 -21 -7 -17 -17 3 -5 7 -7 14 -8 l5 0 -2 -3 c-2 -2 -3 -2 -7 -1 -14
3 -31 -5 -38 -19 -3 -4 -4 -5 -6 -5 -4 0 -9 -4 -11 -9 l-1 -3 -2 3 c-3 4 -6 6
-11 6 -5 0 -10 -4 -10 -9 l0 -3 -19 -4 c-31 -8 -60 -13 -96 -17 -22 -2 -84 -2
-101 0 -28 3 -50 6 -51 8 -1 0 -3 1 -5 2 -2 0 -3 1 -3 2 0 2 -3 7 -6 8 -4 2
-8 2 -11 0 -2 -1 -2 -1 -4 0 -3 3 -8 4 -11 3 -2 -1 -3 -3 -4 -4 -1 -1 -3 -2
-6 -2 -2 -1 -5 -1 -5 -1 0 1 2 3 4 6 10 12 12 17 6 21 -8 5 -29 0 -39 -9 -1
-1 -2 -2 -2 -2 0 1 2 6 4 11 6 20 9 44 6 52 -2 5 -6 7 -9 6 -4 0 -14 -10 -19
-17 -6 -9 -16 -30 -20 -42 -3 -8 -3 -9 -5 -8 -2 1 -3 3 -5 11 -1 6 -3 13 -4
16 -3 10 -10 22 -15 27 -5 5 -8 5 -10 0 -2 -5 -4 -24 -3 -35 0 -7 0 -8 -1 -8
-2 0 -3 -4 -1 -5 1 0 2 -6 3 -21 1 -11 2 -24 3 -28 3 -25 4 -38 4 -46 0 -13 1
-17 3 -17 2 0 2 1 1 10 0 17 -2 39 -4 52 -4 36 -5 90 -2 94 2 3 4 2 8 -4 9
-12 15 -32 17 -53 1 -13 1 -18 -3 -40 -3 -16 -5 -41 -5 -54 0 -4 0 -5 2 -5 2
0 2 1 2 13 3 54 18 110 39 140 5 9 13 16 16 16 4 0 5 -3 4 -15 0 -11 0 -14 -3
-24 -5 -19 -10 -32 -17 -42 -11 -16 -19 -36 -25 -59 -2 -9 -5 -25 -5 -29 0 0
1 0 2 0 1 0 2 2 4 15 5 25 15 50 26 68 7 10 18 21 26 25 11 5 24 6 25 2 1 -2
-1 -6 -9 -15 -29 -34 -38 -48 -51 -77 -8 -18 -8 -18 -5 -18 2 0 3 3 7 13 6 13
15 30 19 36 9 14 27 36 28 35 2 0 2 -1 0 -4 0 -1 -1 -4 -1 -6 0 -5 3 -13 7
-18 3 -4 3 -6 3 -11 0 -4 1 -7 2 -9 l3 -4 -4 -11 -4 -12 -2 6 c-4 11 -15 21
-19 18 -3 -1 -2 -16 1 -22 4 -7 8 -11 11 -11 l4 0 -6 5 c-3 4 -5 7 -6 10 -2 6
-3 14 -1 14 1 0 3 -2 5 -5 5 -4 9 -13 9 -17 0 -6 1 -7 5 -7 3 0 4 1 8 5 5 5
13 9 21 10 6 0 6 0 5 -2 -2 -3 -8 -9 -13 -11 l-3 -2 4 0 c6 0 10 3 14 9 6 8 3
10 -7 10 -8 -1 -15 -4 -22 -9 l-4 -3 3 8 c4 13 4 14 5 15 1 0 3 0 6 1 3 1 6 3
8 4 2 3 4 4 10 4 11 2 19 6 22 13 1 5 1 9 -3 12 0 1 -1 3 0 6 0 3 1 4 2 4 4
-1 23 -4 36 -5 61 -8 143 -1 213 16 12 4 14 4 15 2 2 -2 1 -3 -1 -2 -6 1 -15
-5 -15 -11 0 -2 0 -2 -3 -2 -6 0 -16 -4 -22 -8 -10 -7 -16 -17 -17 -30 0 -7 0
-7 -3 -7 -4 0 -12 -4 -16 -9 -4 -3 -7 -9 -8 -15 -1 -3 -1 -3 2 -3 1 0 2 1 2 2
0 3 3 9 6 13 5 4 10 7 16 8 l6 1 0 9 c1 11 3 17 11 24 10 10 22 13 31 8 3 -2
6 -3 8 -3 2 0 2 0 1 -1 -3 -2 -6 -8 -6 -11 0 -3 1 -5 3 -7 4 -5 9 -5 15 0 l5
3 0 -3 c0 -4 4 -9 7 -11 6 -3 13 2 15 9 l1 3 3 -7 c3 -5 11 -23 11 -25 0 0 -3
2 -6 4 -3 2 -9 5 -12 6 -6 2 -17 3 -21 2 -5 -2 0 -13 11 -20 6 -4 7 -4 13 -4
l7 0 -6 2 c-10 3 -19 10 -22 16 -1 2 -1 2 7 2 12 -1 23 -7 29 -16 3 -4 3 -4
10 -4 6 0 6 0 10 4 5 6 9 15 10 23 0 6 -1 12 -4 13 -2 1 -6 -1 -11 -6 -5 -6
-7 -11 -9 -18 l-1 -4 -2 5 c-2 7 -8 18 -11 24 l-3 5 6 -1 c5 0 6 0 8 3 6 5 5
10 -1 16 l-4 4 4 1 c5 2 8 7 8 11 0 7 -8 12 -15 10 -5 -1 -5 -1 -4 2 1 4 1 10
-2 12 -1 2 -1 2 1 6 6 12 21 21 33 18 3 -1 3 -1 3 -5 0 -5 3 -10 8 -12 5 -3
10 -2 15 4 l4 4 0 -7 c0 -9 2 -32 3 -43 1 -4 1 -8 1 -8 0 0 -1 2 -3 5 -8 18
-26 34 -35 33 -2 0 -2 -1 -2 -8 0 -18 14 -41 30 -52 3 -1 5 -3 5 -3 0 0 -1 -1
-2 -1 -4 -1 -9 -8 -9 -11 1 -4 3 -4 4 0 2 6 8 9 15 6 4 -2 6 -2 6 2 0 5 5 9
11 9 4 0 9 -4 11 -9 0 -2 1 -3 2 -3 0 0 2 3 4 6 3 7 7 9 12 9 3 0 4 1 4 3 0 2
-1 2 -4 2 -4 0 -10 -3 -14 -8 -2 -2 -3 -3 -3 -2 0 1 -8 6 -11 6 -2 0 -2 0 2 5
13 13 20 29 21 45 1 15 -2 17 -11 11 -12 -7 -23 -25 -26 -40 -2 -6 -2 -6 -2
-3 -2 9 -5 41 -5 48 0 2 0 2 2 0 6 -7 13 -7 20 -1 4 4 4 9 0 19 -1 2 -1 2 2 1
8 -3 17 1 19 9 0 4 1 5 6 5 3 0 4 0 4 2 0 3 -1 3 -6 2 -4 -1 -5 -1 -7 1 -4 4
-6 5 -11 5 -3 0 -5 1 -5 1 0 1 0 1 1 1 2 0 7 9 7 13 0 4 -1 5 -4 8 -4 4 -4 4
-9 4 -6 -1 -11 -5 -14 -11 -1 -3 -2 -3 -2 -1 0 3 -5 12 -8 14 -1 1 -4 2 -7 2
-4 0 -5 -1 -8 -4z m14 -3 c3 -3 5 -8 6 -14 0 -5 0 -6 -1 -6 -1 0 -3 -1 -4 -1
-4 -2 -6 -1 -9 3 -7 9 -8 14 -3 18 4 4 7 4 11 0z m31 -4 c3 -3 3 -4 3 -6 -1
-4 -4 -8 -11 -12 l-5 -4 -4 3 c-1 1 -3 3 -3 4 0 3 5 12 9 15 4 4 7 4 11 0z
m-45 -19 c8 -2 9 -3 8 -8 0 -4 -1 -4 -4 -5 -2 -1 -6 -1 -10 -1 -8 -1 -11 2
-12 7 -1 9 6 12 18 7z m24 -2 c7 -4 4 -15 -4 -15 -4 0 -8 4 -8 7 0 3 3 7 5 8
3 1 4 1 7 0z m32 -6 c3 -3 3 -4 3 -6 -1 -4 -5 -8 -9 -8 -4 0 -13 3 -16 6 -2 1
-2 2 -1 6 1 4 2 5 13 5 7 0 7 0 10 -3z m-43 -11 c4 -3 4 -4 0 -12 -4 -9 -12
-13 -17 -8 -4 4 -3 10 3 16 3 2 9 7 10 7 0 0 2 -1 4 -3z m24 -9 c4 -6 4 -12 0
-15 -7 -6 -15 1 -16 15 0 6 0 7 2 7 1 0 2 1 4 1 1 2 2 2 4 -1 2 -1 5 -5 6 -7z
m-88 -26 c3 -3 3 -6 -1 -12 -3 -7 -5 -8 -10 -7 l-3 1 0 6 c1 7 3 11 6 13 3 3
6 2 8 -1z m111 -6 c-1 -16 -10 -33 -25 -47 l-6 -6 0 11 c1 20 10 38 26 49 5 4
5 3 5 -7z m-547 4 c0 -1 0 -2 -1 -2 -1 0 -1 1 -1 2 0 1 0 2 1 2 1 0 1 -1 1 -2z
m411 0 c3 -3 7 -12 7 -14 0 -2 -1 -3 -3 -4 -3 -2 -3 -2 -7 1 -4 3 -8 9 -8 13
0 3 3 6 6 6 2 0 4 -1 5 -2z m75 -14 c6 -7 13 -17 18 -27 3 -9 7 -21 6 -21 -1
0 -12 7 -17 11 -5 4 -12 13 -16 21 -3 6 -7 19 -7 24 l0 2 5 -3 c3 -1 8 -4 11
-7z m-389 4 c1 -1 1 -2 -1 -5 -1 -1 -2 -3 -2 -3 0 0 -1 1 -3 3 -2 3 -3 4 -2 5
1 2 6 3 8 0z m18 -2 c2 -2 2 -3 2 -7 -1 -8 -5 -16 -14 -24 l-8 -8 -1 7 c0 14
5 29 11 33 5 3 7 2 10 -1z m338 -2 c2 -2 3 -4 2 -7 -1 -4 -8 -7 -15 -7 -5 0
-6 0 -7 3 -1 3 -1 4 2 6 7 6 14 8 18 5z m-366 -2 c4 -5 4 -6 3 -20 0 -8 -1
-14 -1 -14 0 0 -3 2 -5 4 -7 7 -11 18 -9 25 2 7 8 9 12 5z m316 -5 c6 -2 7 -2
6 -6 0 -5 -2 -6 -12 -5 -6 0 -6 0 -9 2 -6 8 3 14 15 9z m-276 -3 c1 -2 1 -5 0
-7 0 0 -3 -1 -5 -1 -4 -1 -5 -1 -4 1 0 1 1 3 2 6 1 3 2 4 3 3 2 0 3 -1 4 -2z
m301 1 c5 -6 1 -14 -6 -14 -5 0 -9 4 -9 8 0 4 4 8 9 8 2 0 4 -1 6 -2z m17 -12
c5 -3 8 -7 8 -10 -1 -3 -4 -5 -7 -5 -3 0 -10 4 -13 8 l-3 3 2 4 c2 3 3 3 5 2
2 0 6 -1 8 -2z m-33 -3 l3 -2 -2 -4 c-3 -6 -9 -11 -12 -11 -4 0 -7 2 -7 5 0 4
5 10 12 13 3 2 3 2 6 -1z m-283 0 c4 -4 1 -12 -7 -16 -5 -1 -20 -2 -23 -1 -1
1 14 16 18 17 5 3 10 2 12 0z m300 -8 c3 -7 3 -12 0 -16 -4 -3 -5 -3 -9 0 -4
4 -4 19 1 20 5 1 6 1 8 -4z m-333 -12 l5 -2 -3 -2 c-4 -3 -9 -3 -12 1 -1 1 -2
4 -2 6 l0 3 3 -2 c2 -1 6 -3 9 -4z m379 -8 c1 -3 0 -11 -2 -16 -2 -4 -9 -14
-12 -15 -2 -1 -2 -1 -2 6 1 9 4 18 10 24 3 2 5 4 5 4 1 0 1 -1 1 -3z M118 158 c-2 -3 -2 -8 1 -11 3 -4 12 -8 20 -10 9 -1 10 -1 10 1 0 1
-1 2 -2 2 -3 0 -19 5 -22 7 -5 3 -5 5 -3 8 1 2 2 3 2 4 0 2 -4 1 -6 -1z M216 158 c0 -1 1 -2 2 -3 1 -1 1 -3 1 -4 -2 -5 -14 -10 -28 -12 -4 0
-6 -1 -6 -2 -1 -2 2 -2 10 -1 17 2 28 9 28 16 0 4 -5 9 -7 6z M465 155 c-1 -1 0 -2 1 -4 3 -4 2 -5 -2 -8 -3 -3 -19 -8 -23 -8 -1 0
-2 -2 -1 -3 1 -1 14 1 21 4 6 3 11 8 11 12 0 3 -5 9 -7 7z M368 153 c-1 -1 -3 -5 -3 -7 0 -3 4 -7 9 -9 9 -5 30 -8 30 -5 0 1 -3
2 -10 3 -12 2 -20 5 -23 9 -2 2 -2 2 -1 5 1 2 2 4 2 4 0 1 -2 1 -4 0z M234 128 c-7 -6 -4 -14 8 -19 6 -3 8 -4 8 -1 0 1 -2 2 -5 3 -9 4 -12
10 -8 15 1 1 2 2 2 3 -1 1 -2 1 -5 -1z M331 120 c0 -4 -3 -7 -9 -9 -6 -3 -14 -5 -28 -6 -9 0 -10 0 -10 -2 1
-3 22 -2 35 2 10 3 17 10 15 15 0 3 -3 3 -3 0z M188 54 c-6 -3 -9 -10 -6 -16 1 -3 1 -3 -3 -4 -13 -3 -13 -19 -1 -23
3 -1 5 -1 8 0 5 1 5 1 5 -1 0 -3 3 -8 5 -9 4 -2 15 -1 18 1 3 2 6 6 6 9 0 3 0
3 2 2 1 -1 4 -1 7 -1 4 0 5 0 9 4 3 3 4 4 4 8 0 5 -2 8 -6 10 -4 2 -5 3 -3 5
2 0 1 7 -1 10 -2 4 -6 6 -11 6 -5 0 -10 -3 -12 -6 -1 -2 -1 -2 -4 1 -5 5 -10
6 -17 4z m13 -6 c4 -4 5 -11 1 -11 -1 0 -3 -1 -5 -2 -3 -2 -3 -2 -6 0 -7 4 -8
10 -2 14 4 2 8 2 12 -1z m24 2 c8 -4 6 -12 -4 -16 -3 -1 -3 -1 -6 1 -1 1 -3 2
-4 2 -3 0 -1 7 4 11 3 3 7 4 10 2z m-11 -20 c1 -2 1 -2 -1 -4 -3 -3 -10 -4
-14 -1 -3 2 -3 3 0 6 3 3 13 3 15 -1z m19 1 c5 -2 7 -8 2 -12 -3 -4 -10 -3
-15 0 l-4 3 2 3 c1 2 2 4 2 4 0 0 7 3 9 3 0 0 2 0 4 -1z m-44 -1 c3 -1 4 -2 4
-3 0 -2 1 -3 1 -4 1 -1 1 -1 -1 -3 -3 -3 -6 -5 -11 -5 -4 0 -5 0 -7 3 -4 4 -2
10 4 12 5 1 6 1 10 0z m26 -14 c3 -6 -2 -12 -10 -12 -7 0 -10 3 -10 8 1 6 3 7
7 7 2 -1 5 -1 7 0 4 1 4 1 6 -3z" fill="black"/>
<path d="M0 713 l0 -87 8 0 c8 -1 15 -3 21 -9 4 -3 11 -16 11 -20 0 -2 0 -2 4
-1 6 1 11 0 15 -1 5 -3 10 -9 11 -13 1 -3 2 -4 3 -3 1 0 3 1 6 2 8 3 19 -1 24
-8 l3 -5 4 2 c5 3 16 4 22 3 13 -2 24 -11 29 -22 4 -8 7 -19 6 -25 l-1 -3 6 0
c15 0 25 -7 29 -21 1 -2 2 -2 7 2 3 2 7 5 8 7 4 4 9 2 9 -4 0 -3 0 -3 2 -3 6
3 10 3 12 2 3 -2 4 -5 1 -8 -1 -3 -1 -3 5 -6 15 -9 25 -25 27 -44 0 -6 1 -6 4
-7 8 -2 30 -2 41 -1 6 1 12 2 13 3 2 0 3 3 5 8 5 13 12 23 23 29 2 1 5 2 5 3
0 0 -1 1 -1 2 -3 3 -2 7 0 8 2 1 7 1 13 -1 3 0 3 0 2 2 0 4 2 7 4 7 1 0 4 -2
7 -5 6 -4 13 -8 19 -9 2 -1 2 -1 2 1 0 3 6 14 10 17 8 8 18 11 29 9 3 -1 6 -1
6 -1 0 0 0 2 0 5 1 10 11 19 22 20 l6 0 0 9 c1 11 4 18 12 25 8 8 12 9 25 9 8
0 11 0 14 -1 l3 -2 0 7 c0 14 10 26 24 27 7 0 7 0 9 5 4 8 14 13 24 13 l7 1 0
84 0 85 -300 0 -300 0 0 -87z m504 66 c0 -9 0 -10 -2 -10 -2 0 -2 1 -2 9 0 5
0 10 1 10 2 2 3 0 3 -9z m-24 -5 c3 -7 3 -10 0 -9 -2 1 -7 16 -7 17 2 2 4 0 7
-8z m52 6 c0 0 -1 -5 -3 -9 -2 -5 -4 -7 -5 -7 -2 1 -2 3 2 11 2 4 4 7 4 7 1 0
2 -1 2 -2z m-149 -9 c12 -2 22 -11 26 -22 l2 -5 5 0 c15 1 26 -8 28 -22 0 -5
0 -5 4 -5 4 0 4 0 5 6 1 8 5 16 12 23 10 11 21 16 37 16 15 0 26 -4 36 -15 24
-24 17 -64 -14 -79 -7 -3 -10 -4 -16 -5 l-7 0 -2 -5 c-3 -5 -6 -8 -12 -9 -2
-1 -25 -1 -51 -1 -50 0 -52 0 -57 5 -1 1 -3 3 -4 6 -4 8 0 17 10 21 4 1 5 2 5
5 1 5 4 10 9 13 4 2 5 3 11 3 7 0 7 0 9 3 l3 4 -57 0 c-51 0 -57 0 -61 2 -10
3 -13 13 -7 21 4 4 6 5 12 6 5 0 5 1 7 4 3 9 10 14 20 14 3 0 6 -1 7 -1 2 -1
3 -1 3 0 0 0 2 3 4 5 4 6 11 10 18 12 7 1 8 1 15 0z m75 -9 c6 -6 7 -9 4 -9
-2 0 -14 13 -14 14 2 2 4 1 10 -5z m98 3 c0 -1 -2 -3 -6 -8 -4 -3 -7 -6 -7 -6
-1 0 -1 1 -2 2 0 1 2 3 6 8 4 3 7 6 7 6 1 0 1 -1 2 -2z m-452 -14 c11 -2 19
-10 23 -19 l1 -5 5 1 c9 1 18 -5 21 -13 1 -3 2 -3 7 -3 4 -1 7 -1 10 -3 l3 -3
3 2 c3 2 11 5 16 5 10 0 22 -8 26 -17 2 -3 3 -4 4 -3 2 1 9 1 13 0 3 -1 8 -6
9 -9 1 -2 2 -3 4 -3 5 0 10 -3 12 -8 1 -3 1 -3 -1 -6 -3 -7 -3 -7 -59 -7 -49
0 -49 0 -53 2 -7 4 -10 12 -7 18 l1 3 -55 0 c-62 0 -59 0 -64 8 -2 6 -2 9 1
14 3 2 9 6 13 6 1 0 2 1 3 4 2 9 9 14 18 15 2 1 5 1 6 0 3 -1 3 -1 4 2 3 9 11
16 20 18 7 2 9 2 16 1z m339 -8 c7 -4 9 -6 7 -7 -1 -1 -3 0 -8 2 -8 4 -10 5
-8 7 0 2 2 1 9 -2z m128 -4 c-1 0 -5 -2 -8 -4 -6 -2 -8 -3 -9 -2 -2 2 0 3 8 7
6 2 8 3 9 2 1 -1 1 -2 0 -3z m6 -25 c1 0 1 -2 1 -2 -1 -2 -3 -2 -10 -2 -9 0
-11 1 -10 4 1 1 3 1 9 1 5 0 9 0 10 -1z m-13 -25 c7 -4 8 -5 6 -7 -2 0 -17 6
-17 8 0 1 1 2 2 2 1 0 4 -2 9 -3z m-14 -22 c6 -6 7 -9 4 -9 -2 0 -14 13 -14
14 2 2 4 1 10 -5z m-22 -14 c3 -8 3 -12 1 -11 -2 1 -8 17 -7 18 1 3 3 0 6 -7z
m-24 -7 c0 -8 -1 -9 -2 -9 -1 0 -2 1 -2 8 0 10 0 12 2 11 2 0 2 -2 2 -10z
m-190 1 c4 -4 4 -8 0 -15 -2 -5 -11 -14 -13 -14 -4 0 -16 12 -18 17 -2 4 -1 8
2 11 3 3 7 4 11 1 3 -1 3 -1 6 1 4 3 9 3 12 -1z m-97 -19 c2 -1 3 -4 4 -6 1
-8 -7 -25 -12 -24 -8 1 -21 10 -22 17 -2 6 5 12 11 10 3 -1 3 -1 6 2 5 5 9 5
13 1z m121 -2 c1 -1 3 -3 3 -2 1 1 3 1 5 1 4 0 5 -1 8 -3 2 -3 2 -4 2 -7 -1
-6 -8 -13 -19 -17 l-5 -2 -3 4 c-6 9 -9 17 -7 23 2 8 10 9 16 3z m-48 -21 c8
-5 8 -20 -1 -34 -5 -7 -12 -15 -14 -15 -2 0 -14 7 -21 12 -14 12 -16 28 -4 33
5 2 9 2 14 -2 l4 -2 2 4 c4 6 13 9 20 4z m90 -4 c2 -1 5 -4 7 -6 3 -4 3 -5 5
-3 1 1 3 3 6 4 10 4 20 -3 20 -14 0 -12 -11 -24 -30 -33 l-7 -4 -5 5 c-20 20
-24 45 -8 52 4 1 7 1 12 -1z m-154 -15 c9 -5 13 -19 9 -34 -1 -7 -9 -25 -13
-29 l-1 -2 -9 2 c-28 7 -43 20 -42 36 1 5 3 9 9 12 5 3 11 3 17 0 4 -2 4 -2 5
0 2 8 5 12 11 14 3 2 10 2 14 1z m99 -10 c3 -3 4 -4 6 -2 3 1 9 1 12 -1 6 -4
6 -13 -1 -21 -4 -4 -18 -12 -21 -12 -2 0 -9 9 -12 16 -2 4 -3 7 -3 11 0 6 0 7
3 10 3 2 5 3 8 3 4 0 5 -1 8 -4z m101 -24 c1 -1 3 -3 4 -4 1 -2 1 -3 4 -2 3 0
4 0 7 -3 9 -8 -2 -20 -20 -21 l-5 0 -3 6 c-2 8 -3 17 0 21 1 4 6 6 10 5 1 0 2
-1 3 -2z m-57 -14 c3 -3 4 -4 5 -3 3 2 9 0 11 -3 5 -6 1 -15 -11 -21 -10 -4
-11 -4 -15 2 -9 14 -7 28 3 28 3 0 5 -1 7 -3z m-77 -5 c4 -2 10 -7 12 -10 1
-2 1 -2 5 1 5 5 10 7 16 7 6 0 9 -2 13 -6 4 -4 5 -7 5 -14 0 -10 -5 -19 -15
-29 -8 -7 -24 -19 -27 -19 -3 0 -22 19 -27 27 -6 10 -8 16 -8 25 0 6 1 8 4 11
1 2 4 5 6 6 4 2 12 3 16 1z" fill="white"/>
<path d="M366 766 c-7 -3 -12 -7 -15 -12 -4 -7 -4 -7 -8 -5 -7 4 -15 2 -20 -4
-2 -2 -3 -4 -4 -6 -1 -6 -2 -7 -5 -6 -10 1 -19 -8 -15 -15 1 -1 3 -3 4 -4 3
-1 8 -2 61 -2 58 0 60 0 71 4 5 2 6 2 4 9 -2 9 -11 15 -20 14 -4 0 -8 0 -9 0
-2 0 -3 0 -4 5 -3 10 -8 16 -15 20 -7 3 -19 4 -25 2z" fill="white"/>
<path d="M488 756 c-15 -5 -27 -17 -30 -31 -3 -8 -2 -9 0 -11 8 -3 15 -13 17
-22 0 -4 0 -4 6 -4 10 -1 18 -9 20 -17 0 -4 0 -4 4 -4 10 0 23 6 31 15 21 23
13 58 -15 72 -7 3 -8 3 -17 4 -8 0 -12 0 -16 -2z m-2 -33 c2 -2 3 -4 3 -5 -1
-2 -4 -3 -4 -1 0 2 -3 5 -4 5 -1 0 -2 -1 -4 -3 -1 -2 -2 -2 -3 -1 -3 2 2 8 7
8 1 0 4 -1 5 -3z m42 -4 c2 -2 3 -6 2 -8 -2 -1 -2 -1 -3 2 -3 4 -5 4 -8 1 -3
-3 -5 -1 -3 3 2 4 8 5 12 2z m-37 -16 c6 -6 13 -6 19 -2 3 2 5 3 5 0 0 -2 -6
-6 -12 -7 -6 0 -12 2 -16 7 -2 3 -2 5 0 5 0 0 2 -2 4 -3z" fill="white"/>
<path d="M87 745 c-8 -2 -14 -10 -16 -18 -1 -3 -1 -3 -3 -3 -13 4 -23 -1 -24
-12 0 -5 0 -5 -7 -6 -10 -1 -14 -10 -9 -15 5 -4 5 -4 61 -4 l55 0 5 3 c4 3 6
3 11 3 5 0 6 0 7 2 0 2 1 4 2 5 1 2 2 3 2 3 0 2 -9 5 -14 5 l-5 0 -2 4 c-1 5
-5 9 -10 11 -4 1 -6 0 -13 -2 -2 0 -2 0 -3 3 -2 10 -6 17 -14 20 -4 2 -7 3
-12 3 -4 0 -9 -1 -11 -2z" fill="white"/>
<path d="M433 711 c-5 -3 -10 -9 -13 -14 -1 -2 -1 -3 -3 -2 -1 0 -4 0 -7 1 -4
0 -6 0 -9 -2 -4 -2 -7 -9 -7 -14 0 -3 0 -3 -3 -3 -7 0 -13 -6 -13 -13 0 -3 1
-5 3 -7 l4 -4 49 0 c31 -1 50 -1 52 0 10 3 14 12 9 21 -3 6 -7 8 -16 9 l-8 0
0 3 c0 6 -3 13 -7 18 -5 6 -10 8 -18 9 -6 0 -8 0 -13 -2z" fill="white"/>
<path d="M188 708 c-2 -1 -5 -2 -7 -2 -4 -3 -10 -9 -11 -14 l-1 -4 -8 0 c-6 0
-8 0 -10 -1 -4 -3 -6 -7 -6 -12 0 -6 3 -10 8 -11 2 0 25 0 52 0 45 0 48 1 50
2 3 3 3 6 -1 9 -2 2 -3 2 -7 2 -4 -1 -4 -1 -5 3 -1 4 -6 9 -10 10 -1 0 -5 0
-8 -2 -3 -1 -5 -1 -5 -1 -1 0 -1 3 -2 5 -5 11 -18 19 -29 16z" fill="white"/>
<path d="M303 644 c-1 -2 -2 -3 -2 -4 0 -2 -2 -1 -5 2 -3 3 -6 4 -9 1 -2 -3 0
-9 7 -15 3 -3 6 -5 6 -5 3 0 10 9 12 14 1 4 1 4 0 6 -2 4 -5 4 -9 1z" fill="white"/>
<path d="M209 626 c-1 0 -2 -2 -3 -5 -2 -5 -3 -5 -5 -2 -3 2 -7 3 -9 1 -2 -3
-1 -7 3 -10 4 -4 12 -8 14 -8 2 0 7 13 7 17 1 6 -3 9 -7 7z" fill="white"/>
<path d="M328 625 c-3 -2 -3 -8 0 -15 5 -10 5 -10 12 -6 7 4 11 8 11 12 0 5
-5 7 -9 3 -2 -1 -3 -2 -4 -2 0 0 -1 2 -2 4 -3 5 -5 6 -8 4z" fill="white"/>
<path d="M584 624 c-5 -2 -11 -8 -13 -13 -1 -3 -1 -3 -8 -3 -9 -1 -15 -4 -19
-11 -4 -6 -5 -15 -3 -20 2 -6 0 -6 -7 -3 -6 3 -7 3 -15 3 -7 0 -10 0 -13 -2
-7 -3 -13 -9 -17 -16 -2 -5 -2 -7 -2 -13 0 -5 0 -9 0 -10 0 -2 0 -3 -7 -3 -8
0 -12 -1 -16 -6 -4 -3 -6 -9 -6 -14 0 -3 0 -5 -1 -5 0 -1 -3 0 -5 1 -10 3 -23
0 -30 -8 -4 -3 -9 -12 -9 -15 0 -1 11 -8 13 -8 1 0 14 6 30 14 34 16 48 22 66
29 18 6 46 14 61 17 7 1 14 2 15 3 l2 0 0 43 0 42 -6 0 c-4 0 -8 -1 -10 -2z" fill="white"/>
<path d="M0 575 l0 -48 5 0 c9 -2 28 -5 35 -6 9 -2 40 -11 43 -12 3 -1 3 -1 3
4 0 5 0 6 3 9 3 2 5 3 7 3 3 0 3 0 7 0 2 -1 3 -1 3 2 3 11 18 13 23 3 1 -3 2
-5 2 -7 -1 -2 0 -2 4 -2 14 0 18 -18 5 -24 -6 -3 -4 -5 13 -12 l16 -6 6 6 c5
5 9 8 14 10 5 2 8 4 8 5 0 3 -5 11 -9 14 -5 4 -11 5 -19 5 l-7 -1 0 9 c0 19
-7 31 -21 39 -5 2 -7 2 -15 2 -8 0 -10 0 -15 -2 -3 -2 -6 -3 -7 -3 0 0 -1 2
-2 4 -5 11 -22 14 -29 5 -1 -1 -3 -2 -4 -2 -1 0 -1 1 -2 8 -1 4 -6 10 -10 13
-4 1 -11 1 -14 0 -4 -3 -6 -2 -6 3 -2 11 -10 21 -19 25 -2 1 -8 3 -11 3 l-7 0
0 -47z" fill="white"/>
<path d="M278 602 c-3 -1 -4 -3 -6 -7 -3 -5 -4 -6 -6 -3 -2 3 -7 6 -11 6 -3 0
-4 -1 -6 -3 -7 -8 0 -20 17 -30 4 -2 7 -4 8 -4 2 0 11 11 14 18 3 5 3 7 3 13
0 5 0 6 -2 8 -3 4 -6 4 -11 2z" fill="white"/>
<path d="M370 598 c-2 0 -4 -2 -5 -3 -2 -3 -2 -4 -2 -10 0 -5 0 -8 3 -13 3 -6
14 -22 16 -22 2 0 19 11 23 15 9 9 11 19 6 25 -5 5 -12 4 -19 -3 -4 -4 -5 -4
-7 1 -1 4 -4 8 -8 10 -3 1 -5 1 -7 0z" fill="white"/>
<path d="M213 581 c-5 -2 -8 -7 -9 -13 0 -6 -1 -6 -7 -2 -10 6 -23 1 -23 -10
0 -7 8 -16 17 -21 5 -3 20 -8 25 -8 l4 -1 4 9 c5 10 9 23 9 28 0 6 -2 12 -5
16 -4 4 -10 5 -15 2z m9 -18 c2 -1 3 -4 1 -4 -1 0 -2 1 -3 1 -1 2 -4 0 -4 -3
0 0 -1 -1 -1 -1 -3 0 -2 6 0 7 1 1 3 2 4 2 0 0 2 -1 3 -2z m-23 -11 c3 -2 1
-4 -2 -2 -2 1 -4 0 -4 -2 -1 -3 -2 -3 -3 -1 -1 1 -1 3 0 4 2 3 7 4 9 1z m20
-4 c1 -2 -2 -6 -5 -8 -4 -2 -7 -1 -10 1 -2 2 -2 2 -1 3 1 0 2 0 4 0 3 -2 7 0
8 3 1 3 3 4 4 1z" fill="white"/>
<path d="M312 573 c-3 -3 -2 -10 1 -17 5 -9 7 -11 10 -11 4 1 15 9 18 13 6 10
-3 17 -11 9 -3 -3 -4 -2 -5 2 -2 7 -9 9 -13 4z" fill="white"/>
<path d="M418 549 c-4 -3 -4 -12 0 -21 1 -3 1 -3 6 -2 13 2 20 10 14 15 -3 1
-3 1 -7 0 -4 -2 -5 -2 -5 2 0 6 -4 9 -8 6z" fill="white"/>
<path d="M358 534 c-2 -3 -1 -8 3 -16 l3 -6 4 2 c9 3 15 8 15 13 0 4 -6 6 -10
2 -3 -2 -5 -1 -5 2 0 3 -3 6 -6 6 -1 0 -3 -1 -4 -3z" fill="white"/>
<path d="M591 535 c-30 -5 -67 -17 -102 -33 -17 -8 -58 -27 -59 -28 0 0 1 -2
3 -4 9 -11 14 -25 13 -42 -1 -13 -3 -21 -9 -30 -2 -3 -3 -5 -3 -5 0 -1 8 -1
17 -2 54 -4 105 -13 141 -26 l8 -3 0 87 0 87 -3 0 c-2 0 -5 0 -6 -1z m-9 -16
c2 -2 2 -3 2 -7 l-1 -4 4 1 c3 0 4 0 7 -3 4 -4 4 -9 0 -12 -1 -2 -3 -3 -4 -3
-2 0 -1 -1 1 -3 5 -5 4 -12 -1 -15 -3 -1 -4 -1 -8 0 l-4 2 0 -3 c0 -5 -3 -9
-7 -10 -3 0 -3 -1 -3 -3 0 -2 0 -5 -1 -7 l0 -4 4 3 c5 5 10 7 15 7 5 0 5 0 6
-1 1 -4 -1 -9 -6 -14 -5 -6 -11 -9 -19 -11 -4 -1 -6 0 -10 1 -6 3 -15 13 -16
18 -1 2 -1 6 -1 8 0 4 1 5 3 5 5 1 15 -7 18 -14 l1 -3 1 7 c1 8 1 9 -1 12 -1
2 -2 4 -2 5 0 2 0 2 -3 0 -4 -2 -6 -2 -10 -1 -5 3 -6 10 -2 15 2 2 2 2 -1 2
-4 1 -7 5 -7 9 0 6 4 9 10 9 3 0 3 0 2 2 -2 4 -1 8 1 11 4 4 10 4 14 -1 2 -2
2 -2 3 -1 2 6 10 8 15 3z m-80 -49 c2 -1 3 -3 3 -5 1 -1 2 -2 5 -1 4 0 5 0 8
-3 3 -2 4 -3 4 -8 0 -4 -1 -5 -4 -7 -3 -3 -3 -3 -2 -5 3 -4 2 -9 -2 -13 -3 -3
-3 -3 -8 -3 -4 1 -4 1 -3 -2 0 -1 0 -4 1 -7 l1 -4 3 4 c4 7 16 12 18 7 0 0 0
-4 -1 -7 -1 -6 -8 -14 -14 -17 -11 -5 -27 0 -33 11 -3 6 -2 8 3 9 5 0 11 -2
15 -6 3 -2 4 -3 4 -1 0 2 -2 14 -3 15 0 0 -1 -1 -3 -2 -6 -5 -17 1 -16 9 0 2
1 4 1 5 1 2 1 2 0 2 -1 0 -3 1 -5 3 -7 6 -2 17 8 17 3 0 3 0 3 3 0 8 12 12 17
6z m67 -54 c1 -1 1 -4 1 -6 l0 -4 3 2 c5 4 11 4 12 1 1 -3 1 -4 -1 -8 -4 -8
-9 -14 -11 -12 -1 1 0 2 3 7 2 3 4 7 5 8 1 3 1 3 -1 3 -2 0 -4 -2 -8 -5 -2 -4
-5 -6 -6 -6 -1 0 -1 3 0 9 0 5 0 9 -1 9 -1 0 -3 -4 -5 -10 -1 -4 -2 -7 -3 -7
0 0 -2 2 -3 4 -4 8 -8 7 -4 -2 2 -4 2 -5 1 -6 -2 -1 -3 0 -5 6 -2 5 -2 8 0 10
2 3 4 2 7 0 2 -1 3 -2 3 -2 1 0 1 2 2 4 3 6 9 9 11 5z" fill="white"/>
<path d="M113 530 c-2 -1 -3 -6 -2 -10 1 -3 1 -4 6 -4 5 -1 6 -1 7 1 3 3 3 10
0 13 -2 2 -8 3 -11 0z" fill="white"/>
<path d="M278 528 c-4 -2 -8 -9 -8 -15 0 -11 7 -22 21 -36 l10 -10 8 5 c17 12
28 26 30 37 2 18 -18 25 -30 9 -2 -2 -4 -5 -4 -5 -1 0 -2 2 -3 5 -3 5 -6 8
-11 10 -5 2 -9 2 -13 0z m15 -20 c3 -2 4 -6 2 -6 -1 0 -2 1 -3 2 -1 1 -2 2 -3
2 -1 0 -2 -1 -2 -2 -2 -3 -4 -3 -4 0 0 3 3 6 6 6 1 0 3 -1 4 -2z m29 -2 c3 -2
4 -5 2 -6 0 -1 -1 0 -2 1 -2 3 -4 3 -6 1 -2 -2 -4 -2 -4 0 0 2 5 6 7 6 0 0 2
-1 3 -2z m-18 -16 c1 0 3 1 4 2 5 3 7 0 2 -4 -4 -3 -10 -3 -14 1 -3 2 -3 3 -2
5 1 1 2 1 4 -2 2 -1 4 -2 6 -2z" fill="white"/>
<path d="M0 447 c0 -43 0 -77 1 -77 0 0 4 1 8 2 38 12 92 20 151 23 8 0 15 1
15 1 0 1 -2 4 -4 7 -14 20 -17 43 -8 63 1 4 2 7 2 8 0 1 -4 3 -12 7 -7 3 -13
5 -13 5 0 0 -1 -2 -2 -4 -2 -5 -7 -7 -12 -7 -4 0 -6 1 -8 3 -1 1 -3 3 -3 4 -1
1 -1 1 -3 -1 -1 -1 -3 -2 -5 -3 -7 -4 -17 3 -17 12 0 3 3 9 4 9 1 0 1 0 1 1 0
1 -43 14 -44 13 -1 0 -1 -2 -1 -4 -1 -4 -1 -4 3 -3 6 1 10 -3 10 -9 0 -3 -5
-8 -7 -8 -1 0 -1 0 1 -5 4 -4 4 -7 1 -10 -3 -4 -6 -4 -11 -3 -4 2 -4 3 -4 -1
0 -3 -1 -4 -3 -7 -4 -2 -4 -3 -2 -12 l0 -4 2 4 c3 5 5 7 10 10 6 4 10 4 11 0
0 -3 -1 -9 -3 -14 -3 -5 -10 -12 -15 -14 -4 -2 -6 -2 -10 -1 -13 3 -22 11 -24
22 -1 4 1 5 6 5 5 -1 11 -4 15 -8 2 -2 3 -3 3 -3 1 0 0 3 0 6 -1 6 -1 7 -4 10
-2 2 -3 4 -3 5 0 3 -1 4 -3 1 -3 -2 -8 -1 -11 1 -4 3 -4 8 -1 12 l2 3 -3 1
c-5 2 -6 5 -6 9 0 4 4 8 8 8 l4 0 -1 4 c0 5 2 10 5 11 2 0 0 1 -6 2 -4 1 -9 1
-11 2 l-3 0 0 -76z m105 24 c2 -1 5 -6 5 -9 0 -1 1 -2 3 -2 4 0 7 -1 9 -5 3
-5 1 -12 -4 -14 -2 -1 -3 -2 -2 -3 2 -7 0 -13 -6 -15 -4 -1 -5 -1 -8 1 -3 1
-5 2 -5 2 0 -1 -2 -11 -2 -14 l0 -2 3 3 c5 3 9 5 15 5 4 0 5 0 6 -2 1 -2 -5
-12 -9 -14 -11 -8 -24 -8 -33 1 -6 6 -10 19 -6 21 3 2 13 -3 16 -9 2 -2 3 -3
3 -2 1 0 1 3 1 7 1 6 1 6 -1 5 -3 -2 -8 0 -11 4 -2 3 -3 9 -1 11 2 2 1 3 -2 6
-7 7 -1 18 9 17 4 -1 4 -1 5 2 1 6 9 9 15 6z m-68 -52 c2 -2 3 -5 3 -6 0 -1 0
-1 4 1 7 4 10 0 8 -8 -2 -6 -4 -9 -5 -8 -1 1 -1 2 0 6 3 8 0 10 -4 2 -1 -2 -3
-4 -3 -4 -1 0 -2 3 -3 5 -1 5 -3 11 -5 11 -1 1 -1 -8 0 -13 1 -2 0 -3 0 -4 -1
-1 -3 0 -5 4 -4 3 -8 7 -10 7 -2 0 0 -4 4 -10 4 -8 5 -9 2 -9 -1 0 -3 3 -6 7
-5 8 -6 13 -3 15 1 2 6 1 10 -2 l3 -2 0 4 c0 5 2 8 5 8 1 0 3 -2 5 -4z" fill="white"/>
<path d="M92 519 c-5 -6 -1 -15 8 -15 3 0 4 0 6 5 2 4 2 5 1 7 -4 6 -10 7 -15
3z" fill="white"/>
<path d="M30 515 c2 -2 3 -2 4 0 1 2 0 3 -4 3 l-2 0 2 -3z" fill="white"/>
<path d="M571 515 c-1 -1 -2 -4 -2 -7 0 -4 0 -5 2 -5 3 -1 5 1 8 6 1 3 1 5 0
7 -1 3 -5 3 -8 -1z" fill="white"/>
<path d="M132 516 c-1 0 -3 -1 -4 -2 -2 -2 -2 -2 -1 -5 0 -1 1 -3 1 -5 0 -3 2
-4 7 -4 4 0 9 5 9 8 0 4 -5 9 -8 9 -1 0 -3 0 -4 -1z" fill="white"/>
<path d="M554 515 c-1 0 -2 -2 -2 -3 0 -2 3 -6 5 -9 2 -2 3 -2 5 -1 2 1 3 2 2
4 -2 9 -7 13 -10 9z" fill="white"/>
<path d="M39 514 c-4 -4 -5 -11 -2 -13 2 -1 5 1 8 5 3 7 -2 13 -6 8z" fill="white"/>
<path d="M20 514 c-2 -3 -1 -7 4 -12 2 -3 2 -3 5 -1 2 1 2 1 1 5 -2 7 -7 11
-10 8z" fill="white"/>
<path d="M112 510 c-6 -4 -2 -13 4 -13 4 0 8 4 8 8 0 3 -4 7 -7 7 -2 0 -4 -1
-5 -2z" fill="white"/>
<path d="M217 506 c-3 -4 -12 -9 -20 -12 -21 -9 -33 -24 -35 -47 -1 -15 3 -26
14 -44 9 -15 15 -32 15 -46 0 -7 -4 -18 -6 -18 -2 0 -2 2 -1 6 1 2 1 2 -4 3
-3 1 -10 2 -15 3 -18 2 -32 -1 -57 -11 -12 -4 -16 -5 -22 -6 -13 -1 -20 3 -27
12 l-3 4 -1 -2 c-1 -5 1 -10 3 -13 2 -3 3 -4 2 -5 -2 -1 -5 2 -11 9 -5 6 -5 6
-6 3 -1 -5 1 -15 4 -21 4 -9 2 -10 -5 -4 -2 2 -5 4 -5 4 0 0 0 -2 0 -5 1 -8 7
-19 13 -25 5 -6 6 -9 4 -8 -3 1 -2 -1 1 -8 9 -22 28 -38 48 -43 8 -3 31 -6 44
-7 l11 0 1 3 c1 9 9 18 18 20 16 6 32 -2 36 -18 l1 -4 5 1 c11 1 23 4 28 6 15
7 25 26 25 46 0 16 -4 28 -22 59 -11 19 -15 29 -17 42 l-1 9 -7 -1 c-8 0 -14
1 -17 3 -2 2 0 3 5 2 3 -1 8 -1 12 -1 l7 1 -8 5 c-10 7 -14 11 -15 16 0 5 2 8
9 10 6 2 8 4 12 10 3 6 8 9 12 9 5 0 7 -1 14 -9 4 -4 8 -7 9 -8 2 -1 2 -1 3 3
1 6 -1 23 -3 30 -2 8 -5 10 -11 10 -4 0 -4 3 1 4 2 0 3 1 3 1 0 1 -2 3 -5 6
-6 7 -17 12 -20 11 -5 -1 -4 2 1 7 l5 4 -5 0 c-2 -1 -6 -2 -9 -3 -7 -3 -9 -2
-6 3 3 6 2 8 -2 4z m-11 -35 c3 -2 2 -4 -2 -4 -2 0 -5 -1 -6 -2 -3 -2 -5 -2
-5 0 0 2 2 4 7 6 4 1 4 1 6 0z m58 -21 c2 -3 3 -6 2 -7 -2 -2 -3 -1 -4 2 -2 4
-6 4 -7 -1 0 -2 -1 -3 -2 -3 -2 0 -2 1 -2 3 0 7 8 11 13 6z m-52 -3 c2 -3 4
-8 3 -9 -2 0 -4 1 -4 2 0 3 -4 5 -7 5 -2 0 -3 -1 -4 -4 -2 -4 -4 -5 -5 -1 -1
5 7 11 12 9 1 0 3 -1 5 -2z m-41 -112 c17 -5 30 -18 31 -34 3 -22 -13 -41 -40
-49 -5 -1 -10 -1 -22 -1 -14 0 -18 0 -26 2 -25 7 -44 21 -39 29 1 2 1 3 -4 7
-9 8 -13 18 -8 22 2 0 3 1 4 0 1 0 1 0 1 2 -2 4 -2 7 0 9 2 2 3 2 12 2 14 0
20 1 39 7 9 2 19 4 22 5 8 1 23 0 30 -1z" fill="white"/>
<path d="M580 501 c-4 -2 -4 -2 -3 -5 1 -2 2 -2 7 -2 5 1 9 3 9 6 0 5 -6 5
-13 1z" fill="white"/>
<path d="M47 500 c-4 -2 -5 -3 -3 -6 1 -3 9 -3 12 0 3 3 4 6 1 7 -3 1 -5 1
-10 -1z" fill="white"/>
<path d="M543 499 c-4 -4 0 -8 7 -8 5 0 6 1 7 4 1 2 0 2 -3 4 -5 2 -9 3 -11 0z" fill="white"/>
<path d="M9 499 c-2 -3 -1 -6 2 -8 1 0 4 -1 7 -1 4 0 4 1 5 3 1 3 0 3 -3 5 -5
2 -9 3 -11 1z" fill="white"/>
<path d="M100 498 c-4 -3 -6 -6 -6 -10 1 -4 4 -6 8 -6 5 0 7 1 9 6 l2 4 -4 4
c-2 2 -5 4 -5 4 0 0 -2 -1 -4 -2z" fill="white"/>
<path d="M563 497 c-1 -1 -2 -3 -2 -4 0 -5 6 -8 10 -5 3 2 3 7 1 9 -2 3 -8 2
-9 0z" fill="white"/>
<path d="M30 496 c-4 -3 -4 -7 0 -9 3 -2 3 -2 6 -1 4 2 4 8 1 10 -3 2 -4 2 -7
0z" fill="white"/>
<path d="M125 496 c-1 -1 -3 -2 -5 -3 -3 -1 -3 -1 -3 -5 2 -9 9 -12 15 -6 2 2
3 4 3 4 0 3 -3 8 -6 10 -3 2 -3 2 -4 0z" fill="white"/>
<path d="M381 495 c0 -1 1 -3 2 -5 3 -5 1 -7 -4 -4 -5 3 -12 4 -14 3 -1 -1 0
-1 3 -4 6 -4 6 -5 1 -6 -7 0 -19 -9 -24 -18 l-2 -3 3 1 c3 0 4 0 5 -1 1 -2 0
-4 -6 -4 -2 -1 -5 -1 -5 -2 -2 -4 -4 -16 -4 -27 0 -15 0 -15 9 -6 8 8 11 10
15 10 5 0 8 -2 12 -8 5 -7 7 -9 12 -10 2 -1 6 -2 7 -4 5 -5 3 -11 -6 -18 -3
-3 -7 -6 -9 -7 l-3 -2 5 0 c2 -1 7 -1 11 0 7 1 10 0 5 -3 -2 -1 -4 -1 -12 -1
l-10 0 0 -6 c0 -4 -1 -9 -2 -14 -3 -9 -3 -9 7 -11 8 -2 19 -1 29 2 8 3 9 3 9
8 0 9 6 25 15 40 8 13 11 22 12 33 1 20 -8 39 -22 48 -2 1 -9 4 -14 6 -10 4
-18 8 -22 12 -2 2 -3 3 -3 1z m22 -38 c4 -2 7 -5 6 -7 -1 -1 -2 0 -5 2 -2 1
-5 2 -6 2 -2 0 -3 0 -3 2 0 2 1 2 3 2 2 0 4 -1 5 -1z m-55 -21 c4 -3 4 -8 2
-9 -1 0 -2 0 -2 1 0 1 -1 3 -2 4 l-2 3 -3 -4 c-3 -3 -6 -3 -4 0 1 4 4 7 7 7 1
0 3 -1 4 -2z m56 -4 c2 -2 3 -4 3 -6 -1 -3 -2 -3 -4 0 -2 4 -3 5 -6 5 -3 0 -4
-1 -5 -4 -2 -4 -4 -5 -5 -2 0 2 2 7 4 9 4 2 10 1 13 -2z" fill="white"/>
<path d="M576 487 c-1 -2 -1 -2 0 -4 4 -5 9 -8 12 -6 5 3 1 10 -6 12 -4 1 -4
1 -6 -2z" fill="white"/>
<path d="M42 485 c-2 -2 -2 -2 2 -6 3 -3 5 -4 7 -4 6 0 6 7 -1 10 -5 3 -6 3
-8 0z" fill="white"/>
<path d="M553 485 c-6 -4 -8 -9 -4 -11 3 -2 8 1 10 6 l3 4 -3 2 -2 2 -4 -3z" fill="white"/>
<path d="M20 485 c-6 -3 -9 -8 -6 -11 2 -2 5 -1 9 3 4 5 5 6 2 8 -1 2 -2 2 -5
0z" fill="white"/>
<path d="M566 482 c-2 -2 -2 -9 -1 -12 3 -7 10 -3 9 4 -1 6 -3 9 -5 9 -2 0 -3
0 -3 -1z" fill="white"/>
<path d="M31 479 c-2 -5 -1 -11 1 -12 2 -2 3 -2 5 0 2 2 2 6 1 11 -1 2 -2 3
-4 3 -2 0 -3 -1 -3 -2z" fill="white"/>
<path d="M491 467 c-2 -2 -2 -3 -2 -5 1 -5 3 -6 7 -5 3 0 4 1 5 3 3 7 -5 12
-10 7z" fill="white"/>
<path d="M94 466 c-1 -2 -1 -4 -1 -6 1 -4 1 -4 4 -4 2 0 4 0 4 -1 3 0 5 6 4 9
-2 5 -8 5 -11 2z" fill="white"/>
<path d="M506 458 l-2 -3 1 -4 c2 -3 3 -4 5 -4 3 0 8 4 8 6 0 3 -4 7 -7 7 -1
0 -3 -1 -5 -2z" fill="white"/>
<path d="M544 457 c0 -4 3 -10 9 -15 6 -5 7 -6 7 -3 -1 1 -1 4 -2 6 -1 5 -6
11 -11 14 -3 1 -3 1 -3 -2z" fill="white"/>
<path d="M51 457 c-4 -2 -7 -7 -9 -13 -2 -8 -1 -9 5 -3 5 4 8 9 9 15 1 4 0 4
-5 1z" fill="white"/>
<path d="M79 457 c-4 -4 -1 -9 5 -11 3 0 3 0 5 4 l2 4 -2 3 c-4 3 -7 3 -10 0z" fill="white"/>
<path d="M478 455 c-3 -2 -3 -5 -2 -7 2 -4 11 -5 11 -1 0 1 0 3 1 4 1 1 0 2
-2 4 -3 2 -6 3 -8 0z" fill="white"/>
<path d="M108 454 c-2 -1 -2 -2 -1 -4 0 -1 1 -3 1 -4 0 -2 1 -2 4 -2 4 0 7 2
7 6 0 5 -7 8 -11 4z" fill="white"/>
<path d="M13 453 c0 -3 6 -10 10 -12 5 -3 11 -5 12 -5 1 1 -6 11 -10 14 -1 1
-5 3 -7 4 -5 1 -5 1 -5 -1z" fill="white"/>
<path d="M581 453 c-6 -3 -12 -9 -14 -14 -2 -3 -2 -4 4 -1 5 1 13 8 16 12 2 6
1 6 -6 3z" fill="white"/>
<path d="M493 451 c-1 -1 -2 -3 -2 -4 0 -4 7 -7 10 -4 2 2 1 7 -1 8 -3 3 -5 2
-7 0z" fill="white"/>
<path d="M95 451 c-4 -3 -3 -9 3 -10 3 0 5 2 5 6 0 4 -4 6 -8 4z" fill="white"/>
<path d="M503 440 c-3 -2 -3 -3 -2 -5 1 -3 5 -6 7 -6 2 0 6 5 6 7 0 2 -5 7 -7
7 -1 0 -3 -2 -4 -3z" fill="white"/>
<path d="M83 440 c-5 -6 0 -13 7 -10 1 0 3 2 4 3 1 3 1 3 -2 6 -4 4 -5 4 -9 1z" fill="white"/>
<path d="M103 438 c-4 -2 -4 -3 -3 -5 0 -4 3 -6 6 -6 7 0 8 8 2 13 -1 0 -2 0
-5 -2z" fill="white"/>
<path d="M485 439 c-3 -3 -3 -6 -2 -8 4 -5 9 -4 12 2 0 2 1 3 1 3 -2 1 -8 5
-8 5 0 0 -2 -1 -3 -2z" fill="white"/>
<path d="M239 438 c-1 -1 -4 -4 -6 -7 -5 -7 -7 -9 -13 -11 -7 -2 -8 -4 -6 -8
2 -4 15 -13 30 -21 6 -4 8 -4 14 -4 7 -1 11 2 10 6 -1 2 -1 3 -2 3 -1 0 -1 -1
0 -1 1 -3 -2 -6 -5 -7 -7 -1 -16 3 -34 17 -4 3 -7 5 -8 5 -3 0 -2 4 0 6 3 1 5
1 5 -2 -1 -2 11 -9 21 -11 15 -4 34 -3 44 3 3 2 3 2 1 4 -1 1 -6 3 -11 5 -12
4 -18 8 -27 17 -7 7 -9 8 -13 6z m3 -11 c2 -3 3 -5 1 -5 -2 0 -6 5 -6 6 1 1 2
1 5 -1z" fill="white"/>
<path d="M325 437 c-6 -1 -36 -2 -47 -1 l-5 1 -1 -7 c0 -4 -1 -8 0 -8 0 0 4
-2 10 -4 9 -3 14 -6 14 -9 0 -3 -5 -7 -11 -9 l-6 -3 14 0 c13 0 14 0 17 2 2 2
8 4 12 5 11 4 11 4 10 10 -1 3 -1 10 -1 15 0 6 0 10 0 10 0 0 -3 -1 -6 -2z" fill="white"/>
<path d="M356 423 c-1 0 -4 -4 -7 -7 -7 -7 -14 -12 -26 -16 -11 -4 -13 -6 -9
-8 8 -6 31 -7 44 -3 12 4 22 9 21 12 -1 2 2 2 5 1 2 -2 3 -6 0 -5 0 0 -6 -4
-13 -9 -16 -12 -24 -16 -30 -13 -2 1 -3 2 -3 4 0 4 -2 4 -3 0 -1 -4 3 -6 10
-6 7 0 13 2 30 14 8 5 12 9 13 11 2 4 2 4 1 6 -1 1 -4 2 -7 3 -4 1 -10 6 -13
10 -2 4 -6 8 -8 8 -2 0 -4 -1 -5 -2z m9 -10 c0 -1 -3 -5 -5 -5 -2 0 -2 2 0 5
3 2 4 3 5 0z" fill="white"/>
<path d="M517 419 c-2 -1 -5 -3 -6 -5 -2 -3 -5 -12 -4 -12 1 0 6 3 9 7 3 3 6
10 5 11 0 1 -2 0 -4 -1z" fill="white"/>
<path d="M74 417 c1 -6 5 -10 11 -15 l3 -1 0 3 c-1 6 -4 10 -8 13 -5 4 -7 4
-6 0z" fill="white"/>
<path d="M481 414 c0 -2 4 -7 7 -9 4 -2 11 -5 12 -4 0 1 -2 5 -5 8 -4 4 -14 8
-14 5z" fill="white"/>
<path d="M106 412 c-5 -2 -8 -5 -10 -8 0 -2 -1 -3 -1 -3 0 -1 2 0 5 0 3 1 6 2
9 6 3 2 5 5 5 6 0 1 -5 1 -8 -1z" fill="white"/>
<path d="M245 398 c0 -2 10 -6 13 -6 2 0 3 0 3 2 0 1 -1 2 -7 2 -3 1 -7 1 -8
2 0 0 -1 0 -1 0z" fill="white"/>
<path d="M271 390 c0 -2 -2 -4 -4 -6 -3 -2 -4 -2 -10 -2 -6 1 -8 1 -19 7 -1 0
-1 -2 -1 -5 l1 -5 46 0 47 0 0 2 c0 2 -1 2 -3 2 -6 0 -16 4 -19 8 -2 2 -3 2
-19 2 l-18 0 -1 -3z" fill="white"/>
<path d="M150 390 c-64 -5 -109 -12 -142 -23 l-8 -2 0 -8 c0 -4 0 -8 1 -8 0 0
5 1 9 3 35 12 85 20 143 23 11 1 23 1 26 2 l5 1 -3 6 -3 7 -8 0 c-5 0 -14 -1
-20 -1z" fill="white"/>
<path d="M430 387 c-1 -2 -6 -13 -6 -14 0 0 11 -1 24 -2 56 -5 101 -14 137
-26 l15 -5 0 9 0 9 -15 5 c-34 11 -71 18 -124 23 -25 2 -29 2 -31 1z" fill="white"/>
<path d="M349 383 c-7 -1 -9 -3 -6 -4 1 -1 9 1 12 3 4 2 4 2 -6 1z" fill="white"/>
<path d="M249 374 c-11 0 -11 0 -10 -2 2 -9 7 -19 13 -30 19 -33 22 -40 24
-55 2 -14 -2 -31 -9 -42 -9 -13 -20 -19 -43 -22 -5 -1 -9 -2 -9 -2 0 -1 6 -4
9 -4 2 0 6 -3 6 -6 0 -2 -5 -7 -10 -8 -2 0 -5 -1 -8 -1 -3 0 -5 -1 -7 -2 l-3
-2 4 -5 c8 -9 10 -22 6 -32 -3 -6 -10 -12 -18 -14 -10 -3 -35 -3 -44 -1 -16 5
-26 18 -28 35 -1 9 3 19 7 19 1 0 3 -2 5 -3 6 -6 8 -6 17 -2 4 2 9 3 10 3 6 0
6 1 3 5 -3 4 -6 12 -6 15 0 3 0 3 -12 3 -16 1 -38 4 -47 7 -12 4 -20 9 -30 18
-10 11 -16 20 -20 33 -2 5 -6 12 -8 16 -8 12 -11 25 -7 29 1 2 2 2 4 1 2 -1 2
-1 1 3 -2 15 3 26 9 19 2 -3 3 -3 3 0 0 4 3 7 6 7 1 0 3 -1 5 -4 6 -9 11 -12
20 -12 7 0 13 2 29 8 18 8 27 9 45 9 12 0 16 0 22 -2 l8 -2 0 10 c0 5 -1 10
-1 11 -1 1 -12 0 -44 -2 -50 -3 -96 -11 -129 -22 l-12 -4 0 -114 c0 -103 0
-113 2 -113 1 0 1 1 1 8 -1 11 1 30 3 35 2 5 5 5 10 0 5 -5 12 -17 15 -27 1
-3 3 -10 4 -16 2 -8 3 -10 5 -11 2 -1 2 0 5 8 4 12 14 33 20 42 5 7 15 17 19
17 3 1 7 -1 9 -6 3 -8 0 -32 -6 -52 -2 -5 -4 -10 -4 -11 0 0 1 1 2 2 10 9 31
14 39 9 6 -4 4 -9 -6 -21 -2 -3 -4 -5 -4 -6 0 0 3 0 5 1 3 0 5 1 6 2 1 1 2 3
4 4 3 1 8 0 11 -3 2 -1 2 -1 4 0 3 2 7 2 11 0 3 -1 6 -6 6 -8 0 -1 1 -2 3 -2
2 -1 4 -2 5 -2 1 -2 23 -5 51 -8 17 -2 79 -2 101 0 36 4 65 9 96 17 l19 4 0 3
c0 5 5 9 10 9 5 0 8 -2 11 -6 l2 -3 1 3 c2 5 7 9 11 9 2 0 3 1 6 5 7 14 24 22
38 19 4 -1 5 -1 7 1 l2 3 -5 0 c-7 1 -11 3 -14 8 -4 10 5 20 17 17 2 0 5 -1 5
-1 0 1 -1 2 -2 5 -1 2 -2 5 -2 8 0 4 1 5 4 8 3 3 4 4 8 4 3 0 6 -1 7 -2 3 -2
8 -11 8 -14 0 -2 1 -2 2 1 3 6 8 10 14 11 5 0 5 0 9 -4 3 -3 4 -4 4 -8 0 -4
-5 -13 -7 -13 -1 0 -1 0 -1 -1 0 0 2 -1 5 -1 5 0 9 -2 11 -5 1 -1 3 -2 4 -2 1
1 3 1 5 1 l4 0 0 94 0 94 -12 4 c-44 15 -86 22 -159 28 l-7 1 -1 -4 c-1 -2 -1
-7 -2 -12 l0 -9 3 0 c1 1 7 2 12 2 7 2 12 2 22 2 15 -1 25 -3 42 -10 13 -6 23
-8 29 -7 5 1 12 5 15 9 2 3 4 5 4 6 4 3 8 -2 8 -8 l0 -2 3 3 c3 4 5 4 8 1 1
-2 1 -4 1 -9 0 -4 0 -9 0 -11 -1 -2 -1 -3 2 -2 4 0 5 -2 5 -9 -1 -7 -4 -15 -9
-23 -2 -3 -5 -9 -6 -13 -9 -26 -27 -45 -50 -52 -12 -4 -43 -8 -65 -8 l-13 0
-1 -4 c0 -3 -2 -7 -4 -10 l-4 -5 5 0 c2 -1 8 -3 12 -4 8 -4 10 -3 16 2 2 1 5
3 6 3 5 0 8 -16 4 -28 -4 -12 -11 -20 -21 -24 -14 -5 -39 -5 -52 0 -19 7 -23
29 -8 46 l3 4 -3 2 c-2 1 -4 2 -7 2 -5 0 -11 2 -14 5 -2 2 -3 3 -3 5 0 3 1 4
5 5 5 1 9 3 9 4 0 0 -3 1 -7 2 -15 4 -23 10 -30 24 -5 11 -7 21 -7 33 1 14 5
24 19 48 13 22 19 36 20 45 0 6 0 6 -2 6 -1 0 -5 -1 -8 -3 -5 -2 -14 -4 -18
-3 -2 1 -4 2 -6 3 l-3 3 -35 0 c-20 1 -41 1 -47 0z m-204 -123 c0 -1 -2 -3 -4
-4 -7 -3 -12 -8 -13 -11 -1 -8 10 -16 31 -23 10 -3 11 -3 9 -5 -1 -1 -3 -1
-10 1 -17 5 -30 14 -33 21 -3 7 2 15 12 20 6 3 8 3 8 1z m524 -7 c4 -3 6 -5 8
-8 2 -6 2 -7 0 -13 -4 -8 -26 -21 -26 -15 0 0 3 3 7 5 9 4 15 9 16 14 1 2 1 4
-1 7 -1 3 -8 9 -12 10 -1 1 -1 4 1 4 0 0 3 -2 7 -4z m-290 1 c6 -5 6 -12 0
-17 -7 -6 -34 -16 -37 -13 -2 2 0 3 10 5 13 4 22 8 25 12 4 4 4 5 1 9 -2 1 -3
3 -3 4 0 1 2 1 4 0z m-219 -5 c-2 -1 -3 -4 -3 -5 0 -7 18 -14 49 -19 17 -2 20
-3 18 -5 -2 -2 -37 3 -52 8 -9 3 -10 4 -15 9 -3 3 -4 4 -4 7 0 3 1 5 3 7 3 3
3 3 5 2 1 -1 1 -2 -1 -4z m271 -3 c0 -1 -1 -2 -2 -3 -5 -6 -1 -12 11 -16 6 -3
8 -5 5 -6 -2 -1 -14 5 -18 9 -3 3 -4 5 -4 8 0 6 5 11 8 8z m223 -8 c0 -5 -4
-10 -14 -15 -14 -6 -54 -15 -57 -12 -2 2 0 3 12 5 26 3 46 10 53 18 3 4 4 5 1
8 0 1 -1 3 -1 4 1 1 1 1 4 -1 2 -2 2 -4 2 -7z m-239 -14 c9 -4 14 -12 16 -21
0 -6 3 -9 8 -9 5 -2 7 -3 7 -6 0 -2 -1 -4 -3 -5 -3 -3 -11 -5 -15 -5 -2 0 -4
0 -8 -3 -1 -1 0 -2 3 -7 8 -10 9 -18 6 -28 -4 -15 -24 -22 -51 -19 -19 2 -28
7 -35 21 -3 7 -3 8 -3 17 0 12 1 16 5 17 2 0 3 -1 6 -3 5 -5 7 -6 16 -2 4 1
10 3 12 4 l5 0 -3 4 c-9 12 -9 27 1 38 8 9 23 12 33 7z m-191 -56 c0 -1 -1 -2
-2 -4 -2 -3 -2 -5 3 -8 3 -2 19 -7 22 -7 1 0 2 -1 2 -2 0 -2 -1 -2 -10 -1 -8
2 -17 6 -20 10 -3 3 -3 8 -1 11 2 2 6 3 6 1z m97 -2 c5 -5 0 -13 -11 -18 -7
-2 -22 -5 -24 -4 -4 2 -1 4 5 4 14 2 26 7 28 12 0 1 0 3 -1 4 -2 2 -2 4 0 4 1
0 2 -1 3 -2z m251 -9 c0 -4 -5 -9 -11 -12 -7 -3 -20 -5 -21 -4 -1 1 0 3 1 3 4
0 20 5 23 8 4 3 5 4 2 8 -1 2 -2 3 -1 4 2 2 7 -4 7 -7z m-100 5 c0 0 -1 -2 -2
-4 -1 -3 -1 -3 1 -5 3 -4 11 -7 23 -9 7 -1 10 -2 10 -3 0 -3 -21 0 -30 5 -8 3
-11 8 -8 13 2 4 6 6 6 3z m-133 -24 c0 -1 -1 -2 -2 -3 -4 -5 -1 -11 8 -15 3
-1 5 -2 5 -3 0 -3 -2 -2 -8 1 -12 5 -15 13 -8 19 3 2 4 2 5 1z m95 -9 c2 -5
-5 -12 -15 -15 -13 -4 -34 -5 -35 -2 0 2 1 2 10 2 24 2 37 7 37 15 0 3 3 3 3
0z" fill="white"/>
<path d="M410 344 c-3 -2 -17 -4 -25 -4 -5 0 -10 1 -14 2 -4 1 -7 2 -7 2 0 0
-1 -2 -2 -4 -2 -5 -1 -5 6 -7 11 -4 30 -3 42 2 5 2 5 2 5 6 0 4 -2 5 -5 3z" fill="white"/>
<path d="M437 343 c-13 -2 -17 -4 -16 -6 2 -6 1 -10 -2 -6 l-2 2 -5 -2 c-15
-6 -36 -7 -50 -1 l-4 2 -6 -10 c-14 -24 -18 -36 -18 -51 0 -17 7 -34 18 -42 3
-3 17 -8 20 -8 1 0 2 2 3 5 1 3 4 8 6 10 15 18 44 9 49 -14 l1 -5 17 0 c29 1
52 5 65 10 15 7 29 21 37 38 4 10 4 11 2 11 -2 0 -1 1 3 6 3 4 7 9 8 12 3 6 6
15 6 18 0 2 -1 2 -6 -2 -7 -7 -9 -7 -5 2 3 7 5 16 4 21 0 5 -1 5 -3 2 -2 -4
-11 -13 -13 -13 -2 0 -1 2 1 5 3 4 4 15 2 15 0 0 -2 -2 -3 -4 -7 -11 -20 -15
-34 -10 -4 1 -12 4 -18 6 -7 3 -16 6 -20 7 -11 3 -27 3 -37 2z m40 -17 c5 -2
11 -4 14 -4 8 -3 20 -5 32 -5 10 0 12 -1 14 -2 2 -2 3 -6 1 -9 -1 -2 -1 -2 1
-2 4 0 6 -4 5 -8 -1 -4 -5 -11 -10 -15 -4 -3 -4 -4 -3 -6 2 -3 1 -6 -5 -12
-11 -13 -43 -22 -67 -21 -24 2 -44 13 -52 30 -3 6 -3 7 -3 16 0 10 0 11 3 17
5 11 16 19 31 23 10 2 26 1 39 -2z" fill="white"/>
<path d="M144 332 c-14 -2 -35 -9 -37 -13 -1 -2 -1 -2 2 -4 2 -2 5 -3 7 -4 3
0 5 -2 4 -3 0 -1 -4 -1 -8 -1 -8 0 -11 -1 -11 -4 0 -4 6 -8 15 -11 7 -2 8 -5
1 -4 -3 0 -5 0 -7 -2 l-2 -2 2 -3 c3 -3 8 -5 17 -7 4 -1 6 -2 6 -3 0 -1 -2 -1
-7 -1 -7 -1 -9 -2 -6 -6 3 -4 9 -7 18 -9 6 -1 8 -1 15 0 19 3 35 13 42 26 2 4
2 7 3 14 0 8 0 9 -3 15 -3 7 -9 14 -16 17 -9 4 -22 6 -35 5z" fill="white"/>
<path d="M440 323 c-10 -2 -20 -7 -24 -12 -7 -7 -8 -12 -8 -22 0 -8 0 -9 3
-15 10 -20 39 -32 62 -25 8 3 15 8 13 11 0 1 -2 2 -7 2 -6 0 -7 0 -7 2 0 1 2
2 8 3 8 1 12 3 15 7 3 4 1 6 -6 6 -8 0 -8 2 1 5 18 5 19 16 2 15 -5 0 -7 0 -7
1 0 1 1 2 4 3 6 1 10 5 9 7 -1 3 -8 7 -20 10 -15 4 -29 5 -38 2z" fill="white"/>
<path d="M102 321 c-1 0 -8 -1 -16 -1 -13 0 -16 -1 -16 -2 0 -3 7 -9 16 -13 4
-2 8 -5 8 -5 0 -2 -6 0 -17 4 -13 5 -14 4 -10 -4 4 -7 18 -17 31 -22 3 -1 4
-2 2 -3 0 -1 -5 1 -10 2 -10 4 -13 4 -11 0 3 -6 19 -15 33 -19 10 -3 11 -3 6
1 -3 4 -4 8 -3 12 1 1 0 2 -2 3 -4 2 -9 7 -9 10 0 1 1 3 2 4 1 2 2 3 1 3 -1 0
-3 2 -5 4 -7 6 -6 13 0 15 l4 1 -2 3 c-2 2 -2 4 -2 5 1 3 1 4 0 2z" fill="white"/>
<path d="M503 312 c0 -2 0 -4 -1 -5 -2 -4 -2 -4 0 -4 3 0 6 -4 6 -8 0 -3 -1
-4 -5 -8 -4 -4 -5 -5 -3 -6 3 -3 -1 -12 -8 -15 -2 -1 -3 -2 -2 -3 2 -4 1 -7
-3 -11 l-4 -4 3 0 c8 2 22 7 28 11 7 4 13 10 13 13 0 2 -2 1 -10 -2 -8 -3 -13
-4 -13 -2 0 1 2 2 4 3 19 7 32 18 32 27 0 3 -1 3 -13 -2 -5 -2 -11 -4 -13 -4
-4 -1 -3 2 3 4 11 4 20 12 17 15 -1 1 -5 1 -13 2 -6 0 -13 0 -15 0 -4 1 -4 1
-3 -1z" fill="white"/>
<path d="M179 245 c-13 -5 -19 -18 -16 -30 2 -5 3 -7 8 -12 7 -7 6 -9 -5 -9
-5 -1 -10 -2 -14 -3 -9 -4 -14 -4 -20 2 -2 1 -3 2 -3 2 -2 -2 -3 -11 -2 -16 3
-16 11 -25 25 -29 9 -2 32 -2 40 1 11 3 18 11 18 21 0 5 -3 13 -8 18 -4 7 -5
9 -2 12 l2 1 -2 3 c-4 3 -4 6 -1 9 2 0 4 3 5 5 1 2 3 3 4 4 2 0 2 1 1 4 -1 6
-6 12 -11 15 -5 3 -14 4 -19 2z m16 -19 c2 -2 2 -6 0 -7 0 0 -1 1 -2 2 -1 4
-3 4 -6 1 -2 -4 -4 -4 -4 -1 0 6 8 9 12 5z m-35 -44 c1 -2 -2 -4 -8 -5 -3 -1
-6 -2 -6 -2 0 -1 1 -2 3 -3 3 -2 4 -2 8 -1 4 0 4 0 4 -2 0 -1 -2 -2 -4 -2 -4
-2 -3 -3 0 -5 11 -5 26 1 28 12 0 4 2 6 4 2 2 -5 -6 -17 -14 -19 -6 -1 -13 -1
-17 0 -4 1 -9 6 -9 8 0 1 -2 3 -3 4 -5 4 -5 10 -2 10 1 1 5 2 8 2 7 2 7 2 8 1z" fill="white"/>
<path d="M391 239 c-5 -3 -10 -8 -12 -14 -1 -5 -1 -5 1 -6 2 0 3 -2 4 -3 1 -1
3 -4 5 -6 3 -4 3 -7 -1 -10 l-2 -1 2 -3 c2 -1 3 -2 3 -3 0 0 -2 -3 -4 -6 -6
-8 -8 -13 -8 -20 0 -5 0 -6 3 -11 5 -8 15 -12 36 -12 12 0 19 1 26 5 12 6 20
22 17 37 l-1 5 -4 -3 c-6 -6 -11 -6 -22 -2 -4 2 -9 3 -14 4 -9 0 -9 1 -2 9 12
13 10 30 -3 38 -4 3 -7 4 -12 4 -6 0 -8 0 -12 -2z m12 -18 c2 -1 2 -6 0 -7 0
0 -1 1 -2 2 -1 4 -5 4 -6 1 -1 -2 -1 -3 -2 -3 -2 0 -2 3 -1 6 2 4 7 5 11 1z
m37 -45 c5 -1 6 -2 6 -5 0 -3 -1 -4 -3 -7 -2 -1 -4 -4 -4 -4 0 -2 -5 -7 -9 -8
-1 0 -5 0 -9 0 -5 0 -8 0 -11 2 -6 3 -10 9 -10 15 0 3 0 4 1 4 2 0 3 -1 3 -4
1 -8 8 -13 18 -13 5 0 12 2 12 4 0 0 -2 1 -3 2 -6 2 -5 4 1 4 4 0 6 1 8 2 2 2
2 2 1 3 -1 1 -3 1 -4 1 -3 0 -9 3 -9 4 0 1 1 2 4 1 1 0 5 -1 8 -1z" fill="white"/>
<path d="M207 216 c-1 -1 -3 -4 -4 -4 -3 -2 -1 -3 5 -5 5 -1 10 -1 14 2 4 2 4
3 -1 4 -3 1 -6 2 -8 4 l-4 3 -2 -4z" fill="white"/>
<path d="M376 213 c-2 -2 -5 -3 -7 -4 -3 -1 -5 -2 -5 -2 -2 -1 4 -4 8 -5 4 -1
13 1 15 2 0 1 -1 2 -2 4 -2 1 -4 3 -5 5 l-1 2 -3 -2z" fill="white"/>
<path d="M292 210 c-9 -4 -14 -13 -13 -24 1 -6 3 -10 9 -16 6 -7 5 -8 -4 -9
-5 0 -8 -1 -14 -3 -12 -4 -15 -4 -22 2 l-3 3 -1 -5 c-3 -16 6 -34 20 -39 5 -2
7 -2 23 -2 20 -1 25 1 32 7 5 4 7 8 7 16 0 7 -2 12 -8 18 -5 6 -5 8 -1 11 2 2
2 2 1 3 -1 1 -2 1 -2 1 0 0 -1 1 -2 2 -1 3 -1 3 3 8 2 2 4 5 4 5 0 1 1 2 3 2
3 2 3 4 -1 11 -5 11 -19 15 -31 9z m17 -15 c3 -1 5 -5 5 -7 0 -2 -3 -2 -4 0
-2 4 -4 4 -6 1 -2 -4 -5 -4 -4 1 0 2 5 6 6 6 1 0 2 0 3 -1z m-33 -47 c0 -2 -1
-3 -8 -4 -3 -1 -5 -2 -5 -2 0 -2 5 -4 9 -4 5 0 6 0 6 -1 0 -1 -2 -2 -4 -3 l-4
-1 2 -2 c3 -4 15 -4 21 -1 4 2 8 7 8 11 0 3 2 5 4 3 2 -1 -1 -9 -4 -13 -4 -5
-9 -7 -18 -7 -9 0 -16 2 -17 7 0 2 -1 4 -3 5 -1 0 -3 3 -4 5 -2 4 -1 6 7 7 3
1 6 1 6 2 1 1 3 0 4 -2z" fill="white"/>
<path d="M324 184 c-1 -2 -3 -4 -4 -5 -2 -2 -2 -2 0 -3 1 -1 4 -2 8 -2 6 0 8
0 11 2 4 2 3 3 -3 5 -2 1 -5 2 -7 4 l-3 2 -2 -3z" fill="white"/>
<path d="M530 178 c-5 -4 -4 -9 3 -18 3 -4 5 -5 9 -3 1 0 3 1 4 1 1 0 1 1 1 6
-1 6 -3 11 -6 14 -4 4 -7 4 -11 0z" fill="white"/>
<path d="M561 174 c-4 -3 -9 -12 -9 -15 0 -1 2 -3 3 -4 l4 -3 5 4 c7 4 10 8
11 12 0 2 0 3 -3 6 -4 4 -7 4 -11 0z" fill="white"/>
<path d="M78 165 c-23 -22 -45 -89 -48 -152 l0 -13 4 0 c3 0 5 0 5 0 0 4 3 20
5 29 6 23 14 43 25 59 7 10 12 23 17 42 3 10 3 13 3 24 1 12 0 15 -4 15 -1 0
-4 -2 -7 -4z" fill="white"/>
<path d="M9 156 c-3 -3 -2 -49 2 -85 2 -28 4 -46 4 -54 0 -5 0 -11 1 -13 0 -4
0 -4 5 -4 l5 0 1 20 c1 14 2 26 4 39 4 22 4 27 3 40 -2 21 -8 41 -17 53 -4 6
-6 7 -8 4z" fill="white"/>
<path d="M514 157 c-4 -1 -5 -4 -5 -9 1 -5 4 -8 12 -7 4 0 8 0 10 1 3 1 4 1 4
5 1 5 0 6 -8 8 -6 2 -9 3 -13 2z" fill="white"/>
<path d="M544 153 c-2 -1 -5 -5 -5 -8 0 -3 4 -7 8 -7 8 0 11 11 4 15 -3 1 -4
1 -7 0z" fill="white"/>
<path d="M563 149 c-2 0 -3 -2 -3 -4 -1 -4 -1 -5 1 -6 3 -3 12 -6 16 -6 4 0 8
4 9 8 0 2 0 3 -3 6 -3 3 -3 3 -10 3 -4 0 -9 -1 -10 -1z" fill="white"/>
<path d="M591 143 c0 0 -1 -2 -1 -4 -2 -8 -11 -12 -19 -9 -3 1 -3 1 -2 -1 4
-10 4 -15 0 -19 -7 -6 -14 -6 -20 1 -2 2 -2 2 -2 0 0 -7 3 -39 5 -48 0 -3 0
-3 2 3 3 15 14 33 26 40 9 6 12 4 11 -11 -1 -16 -8 -32 -21 -45 -4 -5 -4 -5
-2 -5 3 0 11 -5 11 -6 0 -1 1 0 3 2 4 5 10 8 14 8 l4 0 0 48 0 47 -4 0 c-2 0
-4 0 -5 -1z" fill="white"/>
<path d="M533 137 c-12 -9 -16 -16 -10 -21 5 -5 13 -1 17 8 4 8 4 9 0 12 -2 2
-4 3 -4 3 0 0 -2 -1 -3 -2z" fill="white"/>
<path d="M554 135 c-2 0 -3 -1 -4 -1 -2 0 -2 -1 -2 -7 1 -14 9 -21 16 -15 6 4
3 14 -6 22 -2 3 -3 3 -4 1z" fill="white"/>
<path d="M503 128 c-10 -3 -18 -9 -23 -18 -2 -4 -2 -4 -1 -6 3 -2 3 -8 2 -12
-1 -3 -1 -3 4 -2 7 2 15 -3 15 -10 0 -4 -3 -9 -8 -11 l-4 -1 4 -4 c6 -6 7 -11
1 -16 -2 -3 -3 -3 -8 -3 l-6 1 3 -5 c3 -6 9 -17 11 -24 l2 -5 1 4 c2 7 4 12 9
18 5 5 9 7 11 6 3 -1 4 -7 4 -13 -1 -8 -4 -15 -10 -22 l-4 -5 47 0 47 0 0 22
0 23 -4 -1 c-6 0 -9 -3 -12 -9 -2 -3 -4 -6 -4 -6 -1 0 -2 1 -2 3 -2 5 -7 9
-11 9 -6 0 -11 -4 -11 -9 0 -4 -2 -4 -6 -2 -7 3 -13 0 -15 -6 -1 -4 -3 -4 -4
0 0 3 5 10 9 11 1 0 2 1 2 1 0 0 -2 2 -5 3 -16 11 -30 34 -30 52 0 7 0 8 2 8
4 0 13 -4 19 -11 7 -6 11 -11 16 -20 3 -7 3 -7 2 9 -1 6 -2 18 -3 27 l0 15 -4
-5 c-3 -2 -6 -4 -8 -5 -8 -1 -16 6 -15 14 1 2 1 4 0 4 -2 2 -8 2 -13 1z" fill="white"/>
<path d="M0 56 l0 -56 6 0 6 0 -1 12 c0 12 -2 30 -4 51 -1 9 -4 44 -4 47 0 1
-1 2 -2 2 -1 1 -1 -6 -1 -56z" fill="white"/>
<path d="M108 112 c-22 -5 -42 -29 -56 -69 -3 -12 -9 -37 -9 -42 0 -1 1 -1 6
-1 l6 0 3 8 c6 15 17 36 24 47 6 10 15 21 31 40 4 4 8 10 9 11 3 6 -2 8 -14 6z" fill="white"/>
<path d="M468 102 c-3 -2 -5 -6 -6 -13 l0 -6 3 -1 c5 -1 7 0 10 7 4 6 4 9 1
12 -2 3 -5 4 -8 1z" fill="white"/>
<path d="M582 102 c-6 -4 -10 -9 -15 -16 -7 -10 -10 -20 -11 -33 l0 -11 6 6
c15 14 24 31 25 47 0 10 0 11 -5 7z" fill="white"/>
<path d="M442 99 c-1 -1 -2 -3 -2 -4 0 -4 4 -10 8 -13 4 -3 4 -3 7 -1 4 2 4 4
1 11 -5 9 -10 11 -14 7z" fill="white"/>
<path d="M510 93 c0 -5 4 -18 7 -24 4 -8 11 -17 16 -21 5 -4 16 -11 17 -11 1
0 -3 12 -6 21 -7 15 -18 29 -29 34 l-5 3 0 -2z" fill="white"/>
<path d="M129 89 c-1 -1 0 -2 2 -5 2 -2 3 -3 3 -3 0 0 1 2 2 3 2 3 2 4 1 5 -2
3 -7 2 -8 0z" fill="white"/>
<path d="M145 88 c-6 -4 -11 -19 -11 -33 l1 -7 8 8 c9 8 13 16 14 24 0 4 0 5
-2 7 -3 3 -5 4 -10 1z" fill="white"/>
<path d="M423 85 c-68 -17 -152 -24 -213 -16 -13 1 -32 4 -36 5 -1 0 -2 -1 -2
-4 -1 -3 0 -5 0 -6 4 -3 4 -7 3 -12 -3 -7 -11 -11 -22 -13 -6 0 -8 -1 -10 -4
-2 -1 -5 -3 -8 -4 -3 -1 -5 -1 -6 -1 0 -1 -7 -19 -7 -21 0 -1 1 0 3 1 7 5 14
8 22 9 8 0 10 -1 10 -4 0 -3 -3 -8 -8 -12 l-3 -3 26 0 c23 0 26 0 24 1 -3 2
-5 6 -5 9 0 2 0 2 -5 1 -3 -1 -5 -1 -8 0 -12 4 -12 20 1 23 4 1 4 1 3 4 -3 7
1 14 8 16 6 2 10 1 14 -4 4 -3 4 -3 5 -1 2 3 7 6 12 6 5 0 9 -2 11 -6 2 -3 3
-10 1 -10 -2 -2 -1 -3 3 -5 4 -2 6 -5 6 -10 0 -4 -1 -5 -4 -8 -4 -4 -5 -4 -9
-4 -3 0 -6 0 -7 1 -2 1 -2 1 -2 -2 0 -3 -3 -7 -6 -9 -2 -2 2 -2 68 -2 l70 0 1
3 c1 6 3 11 7 15 4 5 13 9 17 9 3 0 3 0 3 7 1 13 7 23 17 30 6 4 16 8 22 8 3
0 3 0 3 2 0 6 9 12 15 11 1 -1 2 -1 2 0 0 1 -2 4 -3 4 0 0 -6 -2 -13 -4z" fill="white"/>
<path d="M481 84 c-1 0 -4 -2 -6 -4 -3 -2 -3 -3 -2 -6 1 -3 2 -3 7 -3 10 0 16
5 15 11 -1 4 -8 5 -14 2z" fill="white"/>
<path d="M104 77 c-8 -9 -18 -22 -22 -28 -3 -6 -17 -33 -20 -43 l-3 -6 23 0
23 0 -3 4 c-6 6 -7 11 -7 20 -1 10 1 11 6 8 5 -2 11 -10 14 -17 l2 -6 4 12 4
11 -3 4 c-1 2 -2 5 -2 9 0 5 0 7 -3 11 -4 5 -7 13 -7 18 0 2 1 5 1 6 2 3 2 4
0 4 0 1 -3 -2 -7 -7z" fill="white"/>
<path d="M118 83 c-4 -3 -5 -12 0 -21 2 -5 9 -13 11 -13 1 0 2 27 1 29 -3 7
-7 8 -12 5z" fill="white"/>
<path d="M428 78 c-3 -3 -3 -5 0 -9 3 -2 3 -2 9 -2 10 -1 12 0 12 5 1 4 0 4
-6 6 -6 3 -12 2 -15 0z" fill="white"/>
<path d="M160 74 c-1 -3 -2 -5 -2 -6 -1 -2 0 -2 4 -1 5 0 6 1 6 5 0 2 -2 5 -5
5 -1 1 -2 0 -3 -3z" fill="white"/>
<path d="M455 76 c-5 -6 -1 -14 7 -14 4 0 8 4 8 8 0 4 -4 8 -8 8 -3 0 -5 -1
-7 -2z" fill="white"/>
<path d="M414 67 c-7 -1 -12 -4 -18 -10 -8 -7 -10 -13 -11 -24 l0 -9 -6 -1
c-6 -1 -11 -4 -16 -8 -3 -4 -6 -10 -6 -13 0 -2 0 -2 56 -2 l55 0 -6 4 c-11 7
-16 18 -11 20 4 1 15 0 21 -2 3 -1 9 -4 12 -6 3 -2 6 -4 6 -4 0 2 -8 20 -11
25 l-3 7 -1 -3 c-2 -7 -9 -12 -15 -9 -3 2 -7 7 -7 11 l0 3 -5 -3 c-6 -5 -11
-5 -15 0 -2 2 -3 4 -3 7 0 3 3 9 6 11 1 1 1 1 -1 1 -1 0 -4 1 -7 2 -5 3 -8 4
-14 3z" fill="white"/>
<path d="M472 64 l-2 -4 3 -3 c3 -4 10 -8 13 -8 5 0 8 6 5 10 -2 3 -9 6 -14 7
-2 1 -3 1 -5 -2z" fill="white"/>
<path d="M446 62 c-7 -3 -12 -9 -12 -13 0 -3 3 -5 7 -5 3 0 9 5 12 11 l2 4 -3
2 c-3 3 -3 3 -6 1z" fill="white"/>
<path d="M157 61 c-4 -1 -19 -16 -18 -17 3 -1 18 0 23 1 8 4 11 12 7 16 -2 2
-7 3 -12 0z" fill="white"/>
<path d="M461 57 c-5 -1 -5 -16 -1 -20 4 -3 5 -3 9 0 3 4 3 9 0 16 -2 5 -3 5
-8 4z" fill="white"/>
<path d="M189 49 c-6 -4 -5 -10 2 -14 3 -2 3 -2 6 0 2 1 4 2 5 2 3 0 3 2 2 6
-3 7 -9 9 -15 6z" fill="white"/>
<path d="M215 48 c-5 -4 -7 -11 -4 -11 1 0 3 -1 4 -2 3 -2 3 -2 6 -1 10 4 12
12 4 16 -3 2 -7 1 -10 -2z" fill="white"/>
<path d="M124 44 c0 -2 1 -5 2 -6 3 -4 8 -4 12 -1 l3 2 -5 2 c-3 1 -7 3 -9 4
l-3 2 0 -3z" fill="white"/>
<path d="M509 32 c-6 -6 -9 -15 -10 -24 0 -7 0 -7 2 -6 3 1 10 11 12 15 3 7 4
19 1 19 0 0 -2 -2 -5 -4z" fill="white"/>
<path d="M199 31 c-3 -3 -3 -4 0 -6 4 -3 11 -2 14 1 2 2 2 2 1 4 -2 4 -12 4
-15 1z" fill="white"/>
<path d="M224 31 c-2 -1 -4 -2 -4 -2 0 0 -1 -2 -2 -4 l-2 -3 4 -3 c5 -3 12 -4
15 0 5 4 3 10 -2 12 -4 1 -5 1 -9 0z" fill="white"/>
<path d="M179 30 c-6 -2 -8 -8 -4 -12 4 -5 13 -4 18 2 2 2 2 2 1 3 0 1 -1 2
-1 4 0 1 -1 2 -4 3 -4 1 -5 1 -10 0z" fill="white"/>
<path d="M98 25 c0 -7 3 -14 8 -20 3 -3 6 -5 7 -5 1 0 0 8 -2 15 -2 5 -10 14
-12 14 -1 0 -1 -2 -1 -4z" fill="white"/>
<path d="M209 19 c-2 -1 -5 -1 -7 0 -4 0 -6 -1 -7 -7 0 -5 3 -8 10 -8 8 0 13
6 10 12 -2 4 -2 4 -6 3z" fill="white"/>
<path d="M454 18 c5 -9 21 -18 34 -18 5 0 5 0 4 2 -2 5 -10 11 -17 14 -5 3 -8
3 -14 4 -8 0 -8 0 -7 -2z" fill="white"/>
<path d="M139 13 c-6 -2 -12 -6 -15 -10 l-2 -3 6 0 c4 0 8 1 10 2 4 1 12 8 14
11 1 2 1 2 -3 2 -3 0 -7 -1 -10 -2z" fill="white"/>
</g>
</svg>
