<?xml version="1.0" encoding="UTF-8"?>
<svg width="600" height="800" viewBox="0 0 600 800" fill="none" xmlns="http://www.w3.org/2000/svg">
<g transform="translate(0,800) scale(1,-1)">
<path d="M16 795 c-2 -9 -1 -15 3 -27 0 -2 0 -2 -4 -2 -4 0 -9 3 -13 8 l-2 3
0 -7 c0 -3 0 -6 1 -5 0 1 1 0 3 -1 2 -1 4 -2 6 -3 2 0 3 -1 3 -1 0 0 -1 -5 -2
-10 -2 -11 -4 -26 -4 -30 0 -2 2 3 3 12 3 16 7 28 8 28 0 0 1 -1 0 -3 -1 -11
-5 -51 -7 -71 -8 -100 -10 -194 -5 -242 2 -12 1 -12 -3 -10 -2 3 -3 2 -3 0 0
-2 1 -4 7 -7 7 -4 10 -7 6 -7 -2 0 -4 0 -5 1 -6 2 -8 2 -8 0 0 -1 1 -2 7 -3 5
-2 7 -3 7 -4 0 -1 -1 -2 -2 -3 -7 -2 -12 -4 -12 -6 0 -2 0 -2 7 1 6 2 8 2 7
-1 -1 -3 -3 -5 -9 -8 -4 -3 -5 -4 -5 -6 0 -3 0 -3 2 -2 2 1 2 1 0 -7 -1 -3 -2
-8 -2 -12 l0 -7 2 8 c3 10 8 22 9 22 0 0 0 -2 0 -4 -2 -6 -3 -12 -2 -12 1 0 1
2 2 4 4 17 8 19 6 4 -2 -9 -5 -28 -6 -40 0 -5 -1 -8 -1 -8 -1 0 -3 1 -6 2 l-4
3 0 -3 c0 -2 1 -3 3 -4 l3 -2 0 -8 c-4 -45 -3 -185 1 -226 2 -14 3 -17 3 -5
-3 40 -3 61 -3 132 0 59 0 82 1 91 1 14 2 15 4 15 3 0 3 2 3 12 0 9 0 9 1 4 0
-4 1 -12 1 -18 0 -13 1 -28 4 -58 4 -39 6 -56 8 -56 1 0 1 7 0 17 -1 10 -6 57
-7 77 -1 9 -1 30 -1 47 -1 33 0 37 5 37 2 0 2 0 2 -6 0 -11 2 -56 3 -59 0 -4
2 -4 8 -2 3 1 5 2 5 2 2 0 5 -26 8 -63 1 -13 2 -23 3 -23 2 -3 0 44 -4 76 l-1
14 6 7 c3 3 6 7 6 8 0 4 -8 29 -12 36 0 2 -1 3 -1 4 0 0 4 -1 7 -3 5 -2 7 -4
7 -5 3 -12 12 -71 20 -125 1 -11 3 -24 4 -30 2 -14 2 -14 -4 -15 -2 -1 -5 -2
-5 -2 0 1 1 2 1 5 2 8 -1 18 -8 26 l-4 4 -3 -6 c-2 -3 -5 -8 -7 -12 -4 -6 -4
-7 -4 -13 1 -6 1 -7 4 -10 3 -3 3 -4 3 -11 0 -4 0 -7 0 -7 -2 0 -4 4 -6 9 -2
7 -8 13 -14 16 -3 1 -7 1 -12 1 -10 0 -14 -1 -14 -4 0 -2 4 -13 5 -17 5 -9 17
-13 27 -10 4 2 4 2 6 0 5 -6 10 -17 10 -23 0 -3 -2 -2 -3 2 -1 5 -5 10 -10 12
-6 3 -18 2 -23 -1 -7 -3 -15 -12 -15 -17 0 -1 2 -2 8 -5 5 -2 10 -4 13 -4 l5
-2 -5 -1 c-10 -4 -12 -7 -12 -22 0 -5 0 -6 3 -9 2 -3 3 -6 5 -16 1 -8 2 -14 2
-15 0 -2 -8 -1 -15 3 -4 2 -6 2 -10 2 -5 -1 -5 -1 -5 -4 l0 -3 5 0 c3 1 5 1 5
1 0 -1 -2 -4 -5 -7 -4 -5 -5 -6 -5 -9 l0 -4 18 0 c10 0 17 0 17 -1 0 -2 11 -6
19 -7 22 -4 52 -1 59 6 2 3 3 3 10 3 4 0 8 0 9 1 0 1 -3 1 -8 1 -4 0 -8 0 -8
1 0 0 0 4 0 8 l1 7 39 0 39 0 1 -3 c1 -1 2 -5 3 -8 2 -5 5 -9 10 -12 2 -2 2
-2 -11 -3 -11 0 -13 -1 -8 -1 2 -1 9 -1 14 -1 l9 0 5 -5 c5 -5 12 -8 18 -8 2
0 5 -1 8 -2 4 -2 7 -3 11 -3 3 0 7 0 8 -1 2 -1 8 -2 13 -2 1 0 1 0 1 -1 -1 0
-63 0 -139 0 l-138 0 0 -2 0 -2 140 0 c139 0 140 0 143 -2 5 -3 11 -6 15 -6 1
0 4 -1 7 -2 2 -1 8 -2 14 -2 6 0 15 -1 21 -2 8 -1 13 -1 18 0 3 1 12 1 18 2 8
1 12 1 17 3 3 2 8 3 10 4 2 1 6 2 8 3 3 2 6 2 96 2 l93 0 0 2 0 3 -88 -1 -88
0 4 3 c5 3 10 9 10 11 0 1 1 2 3 4 2 1 4 5 6 7 2 5 2 7 2 15 l0 9 34 0 c23 0
35 0 36 -1 3 -1 2 -2 -3 -4 -7 -2 -14 -6 -16 -9 -3 -6 -1 -12 6 -15 21 -11 70
-8 80 4 2 3 3 3 8 3 3 0 6 0 6 1 0 1 -3 1 -6 1 -5 0 -6 0 -6 2 -1 2 0 2 6 2
l6 0 0 10 0 9 -4 0 c-2 0 -6 1 -9 2 l-6 2 3 5 c2 2 3 5 3 6 0 0 2 2 4 4 4 3 7
9 5 14 -1 7 -9 12 -21 14 -3 0 -6 1 -6 1 -1 1 -1 15 -1 32 0 30 0 31 -2 33 -1
1 -4 2 -5 3 -3 0 -10 -1 -12 -4 -3 -2 -3 -1 -2 3 0 3 1 4 4 6 6 4 8 8 8 15 0
6 -2 10 -9 21 -7 11 -7 11 -8 9 0 0 -3 -5 -6 -10 -11 -18 -10 -30 2 -36 3 -2
4 -3 4 -5 0 -2 0 -2 -2 -1 -1 0 -5 0 -8 1 -4 0 -5 0 -8 -3 l-3 -3 1 -25 c0
-14 0 -28 0 -31 -1 -6 -1 -6 -5 -7 -2 -1 -4 -1 -5 -1 -2 0 -2 0 0 3 0 2 2 15
5 34 3 35 5 45 9 74 4 27 8 51 10 73 3 25 7 56 10 68 1 6 2 10 2 11 0 0 3 2 7
3 l7 4 -4 -11 c-4 -12 -8 -26 -8 -30 0 -1 2 -4 6 -8 l6 -6 0 -12 c-1 -7 -2
-20 -2 -29 -1 -27 -2 -58 -2 -57 1 1 3 13 4 41 2 23 5 51 5 52 1 0 2 -1 5 -1
2 -1 4 -1 5 -1 2 1 3 10 4 40 0 23 0 26 2 26 1 0 2 -3 3 -9 2 -7 2 -13 2 -37
0 -16 0 -39 -1 -50 -3 -48 -3 -67 -3 -120 0 -36 0 -56 1 -56 0 0 1 14 1 40 1
65 3 111 5 136 2 36 2 35 4 36 3 0 3 0 4 -5 1 -3 1 -2 1 4 0 7 0 7 -2 6 -3 0
-3 0 -5 20 -1 7 -2 17 -3 23 0 6 -1 12 -1 12 1 1 2 -3 4 -7 3 -10 4 -10 2 0
-1 3 -1 6 -1 6 0 2 3 -4 5 -8 1 -4 1 -4 1 4 l0 8 -4 3 c-3 1 -4 3 -4 5 0 2 1
2 6 0 2 0 2 0 2 2 0 1 -1 2 -3 3 -3 1 -4 2 -4 3 0 1 1 2 4 3 1 1 3 2 3 3 0 1
-1 1 -4 1 -5 -1 -5 0 0 4 l4 3 0 55 c-1 36 -1 63 -2 77 -6 77 -8 105 -11 137
-3 20 -6 59 -6 61 0 1 0 1 1 0 1 -1 5 -16 8 -31 1 -7 3 -12 3 -11 0 2 -2 20
-4 30 -1 5 -2 10 -2 11 0 1 9 6 12 6 1 0 1 2 1 7 l0 7 -3 -5 c-2 -4 -8 -8 -13
-8 -3 0 -4 1 -2 7 2 6 3 14 2 22 -1 4 -1 5 -4 5 -2 0 -2 0 -1 -4 1 -6 1 -20
-1 -24 -2 -4 -4 -5 -10 -2 l-6 3 4 7 c3 6 5 14 4 16 0 0 -2 -3 -3 -7 -4 -9 -9
-16 -14 -18 -3 -1 -5 -2 -5 -2 0 1 1 6 1 13 2 16 2 18 0 18 -1 0 -2 -1 -2 -10
-1 -12 -3 -19 -5 -21 -2 -2 -5 4 -7 16 -1 2 -2 3 -2 3 -1 0 -1 -8 1 -14 1 -2
1 -3 1 -4 -1 -1 -8 6 -11 11 -2 3 -3 5 -4 5 -1 0 1 -6 3 -10 4 -7 4 -7 -4 -7
-3 0 -6 1 -8 2 -5 3 -6 7 -7 19 0 9 0 10 -2 10 -1 0 -2 -1 -3 -3 -1 -4 1 -15
3 -21 1 -3 2 -5 2 -6 0 -1 -10 1 -14 3 -6 2 -13 10 -18 19 -2 5 -4 8 -5 8 0
-1 2 -9 5 -14 1 -3 4 -7 7 -10 5 -5 4 -6 -3 -6 -12 0 -19 6 -26 21 -4 8 -4 9
-7 9 -2 0 -2 0 -2 -2 l1 -3 -142 0 -142 0 0 3 c1 2 0 2 -2 2 -2 0 -3 -1 -7 -9
-4 -10 -11 -18 -18 -20 -4 -1 -12 -1 -13 0 -1 0 1 2 3 5 5 5 10 15 10 21 1 3
1 3 -3 -4 -6 -10 -12 -17 -17 -20 -4 -2 -16 -4 -16 -3 0 1 1 3 2 6 2 3 2 7 3
14 0 10 0 10 -2 10 -2 0 -3 0 -3 -9 0 -10 -1 -15 -6 -19 -3 -3 -4 -3 -9 -3 -3
0 -6 0 -6 1 -1 0 1 3 3 7 4 8 4 12 -1 4 -3 -5 -11 -13 -12 -12 0 0 1 3 2 5 1
6 2 16 0 14 0 0 -1 -3 -2 -7 -1 -7 -3 -11 -5 -12 -4 -2 -6 8 -6 22 0 9 0 9 -2
9 -3 0 -3 0 -2 -7 0 -3 1 -10 1 -13 2 -11 2 -11 -2 -10 -4 2 -11 9 -13 15 -2
3 -3 7 -4 8 -1 2 -1 2 -1 -2 0 -3 1 -6 4 -11 4 -8 4 -8 -4 -11 -5 -2 -7 -1 -9
3 -3 6 -2 19 1 26 0 2 0 2 -2 2 -3 0 -3 -1 -4 -5z m431 -10 c1 -2 2 -4 2 -5 0
0 -298 0 -298 1 -1 0 0 2 2 5 l2 4 145 0 145 0 2 -5z m7 -11 c1 -1 2 -5 2 -7
l0 -5 -156 0 -156 1 0 5 c0 9 -17 8 156 8 l153 0 1 -2z m-411 -9 c0 0 -1 -5
-2 -9 -4 -13 -7 -32 -7 -44 0 -6 0 -10 1 -10 0 0 1 8 2 17 2 17 5 33 9 41 1 4
1 4 5 4 l4 0 -1 -13 c0 -7 -1 -27 -3 -45 -3 -37 -4 -59 -3 -53 1 5 9 78 12
102 l0 8 4 1 c2 1 7 1 12 0 l8 0 0 -10 c-2 -21 -8 -67 -16 -108 -3 -19 -14
-80 -16 -84 0 -2 0 -2 1 -1 1 2 10 40 15 64 5 25 15 93 19 125 2 14 2 15 7 15
l3 0 0 -9 c-1 -5 -2 -14 -3 -20 0 -6 -1 -13 -2 -16 0 -4 0 -5 1 -4 1 1 6 28 7
40 l0 9 5 1 c3 0 6 1 8 0 2 -1 3 -1 3 -6 0 -5 -3 -31 -6 -50 -2 -11 -2 -14 -1
-13 1 1 6 26 8 46 2 10 4 19 4 20 1 2 2 2 6 2 2 0 6 1 7 2 1 0 3 1 3 1 2 0 0
-16 -9 -70 -20 -122 -30 -172 -44 -216 -6 -19 -16 -42 -19 -42 0 0 -5 -2 -10
-5 -4 -2 -8 -4 -9 -4 0 1 2 4 4 9 8 20 24 74 24 80 0 2 -1 2 -2 -2 -1 -2 -6
-16 -10 -30 -13 -41 -21 -61 -25 -61 -2 0 -2 1 0 16 1 7 2 17 3 23 1 6 1 12 1
14 1 9 -1 -2 -5 -24 -3 -14 -5 -25 -6 -26 0 -2 -1 -2 -3 -2 l-3 1 0 17 c0 17
0 18 8 75 7 45 7 46 6 46 -1 -1 -3 -11 -7 -31 -8 -46 -11 -70 -12 -91 0 -13
-1 -17 -2 -18 -2 -1 -5 3 -6 9 -7 41 -5 143 4 246 3 31 7 73 9 78 0 1 1 2 3 3
1 0 5 1 8 3 6 2 8 2 8 -1z m429 0 l6 0 1 -4 c1 -3 3 -18 6 -35 3 -17 6 -31 6
-31 1 -2 1 0 -3 28 -2 11 -3 25 -4 31 l0 12 2 0 c1 1 5 0 8 0 l6 -1 0 -11 c1
-13 5 -37 7 -38 1 -2 1 -3 -1 14 -1 7 -2 18 -3 24 l0 11 3 0 c2 0 4 -1 4 -1 1
-1 2 -11 3 -22 5 -39 15 -101 21 -128 4 -19 12 -48 13 -48 0 1 -3 16 -7 36 -8
41 -14 72 -18 105 -4 23 -7 56 -7 57 1 1 17 1 21 0 l4 -1 1 -16 c1 -22 10 -92
11 -95 1 -3 1 8 -3 41 -4 41 -5 69 -4 70 0 1 2 1 4 1 2 1 3 1 4 -3 4 -8 8 -27
10 -44 2 -16 3 -17 3 -2 -1 13 -4 32 -8 44 -1 4 -2 7 -2 7 0 2 4 2 9 0 3 -2 7
-3 8 -3 3 -1 3 -1 6 -29 0 -10 3 -33 4 -50 9 -80 14 -156 14 -205 0 -31 -1
-44 -4 -47 -3 -4 -4 -2 -5 12 0 8 -2 21 -3 29 -6 30 -16 73 -18 75 -2 2 -1 -6
4 -29 2 -11 6 -28 8 -38 4 -20 6 -38 6 -45 0 -4 -1 -5 -3 -5 -3 0 -2 -3 -9 27
-2 11 -5 20 -5 21 -1 2 -1 -1 3 -26 3 -21 4 -23 2 -23 -3 1 -14 31 -30 81 -10
30 -12 36 -12 31 0 -6 22 -78 31 -98 2 -6 4 -11 4 -12 0 0 -2 1 -4 2 -2 2 -6
4 -9 6 -7 4 -8 5 -17 26 -25 59 -54 161 -65 230 -4 29 -10 68 -10 71 0 1 0 1
2 0 1 -1 5 -2 9 -2z m-15 -11 c1 -3 1 -7 2 -10 l0 -5 -159 0 c-152 0 -160 0
-160 2 0 2 2 14 2 16 1 1 33 1 158 1 l157 0 0 -4z m4 -22 c0 -1 -73 -1 -162
-1 -128 0 -161 0 -161 1 1 2 321 3 322 2 1 -1 1 -2 1 -2z m-155 -55 l0 -51 -7
-5 c-3 -3 -6 -5 -7 -5 0 0 0 110 1 110 0 1 3 1 7 1 l6 0 0 -50z m-18 -9 l0
-57 -4 -5 c-12 -16 -19 -33 -21 -52 -3 -25 5 -51 21 -71 l4 -5 0 -47 0 -46
-97 0 c-53 0 -97 0 -98 0 -2 0 -2 3 -2 51 0 44 0 52 2 55 4 11 15 63 23 106 4
22 14 82 18 105 2 12 3 23 4 23 0 1 34 1 75 1 l75 0 0 -58z m175 47 c5 -24 17
-86 22 -104 7 -33 17 -65 26 -93 l9 -26 1 -54 0 -53 -103 0 c-57 0 -105 0
-105 0 -1 0 -2 8 -2 37 l0 37 7 -4 c27 -12 59 -13 86 -2 30 12 52 38 60 71 2
11 2 31 -1 42 -5 23 -20 45 -38 58 -29 22 -72 26 -105 10 -4 -2 -8 -4 -9 -4 0
0 0 22 0 48 l0 48 75 0 75 0 2 -11z m-86 -77 c40 -5 72 -34 81 -73 3 -12 3
-31 0 -43 -8 -34 -35 -61 -70 -69 -12 -3 -36 -3 -48 0 -19 5 -33 13 -46 27
-13 13 -21 27 -25 45 -2 11 -2 30 1 41 9 33 33 58 65 68 14 5 27 6 42 4z m158
-183 c2 -5 4 -9 4 -10 0 0 -1 -1 -3 -2 -4 -1 -6 -9 -6 -24 0 -19 3 -29 8 -32
2 -1 4 -1 4 -1 0 -1 -1 -6 -2 -13 -4 -22 -7 -45 -10 -73 -2 -16 -4 -29 -4 -30
-1 -2 -1 -2 -1 1 1 2 1 49 1 104 l0 101 3 -6 c1 -4 4 -10 6 -15z m-234 11 l5
-3 0 -69 0 -69 -4 0 c-3 0 -5 -1 -6 -1 0 -1 -2 -1 -2 -1 -2 1 -2 9 -2 76 l0
74 2 -2 c2 -1 5 -3 7 -5z m-215 -96 l0 -99 -4 24 c-3 27 -9 66 -12 77 -1 10
-1 10 1 10 3 0 8 5 9 10 2 8 3 24 3 32 -1 9 -3 13 -6 16 l-3 2 3 7 c2 4 5 11
6 14 1 4 3 7 3 7 0 0 0 -45 0 -100z m465 66 c14 -8 21 -13 19 -15 -1 0 -4 1
-8 2 -4 1 -8 2 -9 2 -3 0 1 -3 9 -5 5 -2 7 -3 7 -5 0 -1 0 -2 -2 -2 -2 0 -16
-7 -16 -8 0 -1 0 -1 9 2 5 2 9 3 9 2 3 -3 -2 -8 -15 -14 -12 -6 -16 -3 -18 10
-1 9 -1 29 1 32 2 3 7 3 14 -1z m-478 -1 c5 0 5 -36 0 -44 -2 -4 -5 -4 -12 -2
-8 2 -22 12 -22 15 0 3 0 3 11 -1 4 -1 9 -2 9 -2 2 1 -5 5 -12 7 -5 2 -7 3 -7
4 0 2 2 3 11 6 3 0 6 2 7 2 0 1 -4 1 -10 0 -6 -2 -9 -2 -9 -1 0 2 4 5 13 9 10
6 17 8 19 7 1 0 2 0 2 0z m515 -20 c0 -7 0 -11 -1 -12 -2 -1 -10 -1 -12 0 -2
3 -2 21 0 22 1 1 4 1 7 1 l6 0 0 -11z m-555 7 c2 0 2 -2 2 -10 0 -12 -1 -13
-8 -13 -3 0 -6 1 -7 1 -1 1 -2 21 0 22 1 1 11 1 13 0z m535 -32 c-3 -8 -4 -17
-4 -18 1 -1 1 -1 6 12 6 21 8 17 6 -21 0 -14 -1 -27 -2 -27 -2 -3 -19 13 -19
17 0 5 4 20 6 27 3 8 8 17 9 17 0 -1 -1 -3 -2 -7z m-531 -1 c1 -2 3 -8 5 -12
3 -9 4 -12 4 -8 0 3 -4 18 -7 22 -2 5 1 3 4 -1 5 -8 14 -35 14 -41 0 -4 -19
-20 -21 -18 -1 1 -4 36 -4 49 0 11 0 14 1 14 1 0 3 -2 4 -5z m252 -16 l0 -7
-99 0 -99 0 0 7 0 7 99 0 99 0 0 -7z m231 0 l0 -7 -105 0 -104 1 -1 5 c0 3 0
6 0 7 1 1 18 1 105 1 l105 0 0 -7z m-232 -30 l0 -19 -4 0 c-2 -1 -6 -1 -8 -2
-7 0 -9 -1 -9 -3 0 -2 -2 -1 -6 3 -4 4 -18 13 -24 16 -6 3 -11 2 -13 -1 -5 -7
-7 -43 -2 -53 l2 -5 -3 -2 c-1 -1 -3 -2 -4 -2 -2 0 -3 0 -3 -1 -1 -1 2 -4 4
-4 1 0 2 -1 2 -1 0 -3 -8 -10 -10 -10 -3 0 -2 -3 1 -4 3 -1 3 -2 2 -5 -1 -5
-1 -9 2 -9 1 0 1 -1 1 -2 -1 -3 -5 -2 -12 2 -14 9 -28 13 -40 12 l-7 -1 -9 7
c-10 8 -22 15 -30 17 -6 1 -15 1 -21 0 -3 -1 -6 -2 -6 -2 0 0 0 87 1 87 0 1
44 1 98 1 l98 0 0 -19z m233 -28 c0 -26 0 -47 0 -47 -1 0 -4 1 -8 3 -24 10
-44 7 -64 -9 l-6 -5 -5 1 c-9 2 -22 1 -36 -5 -7 -3 -7 -3 -15 -2 -5 1 -9 2 -9
3 0 0 1 1 2 1 1 0 2 1 3 2 2 2 2 2 -1 3 -2 1 -10 8 -10 9 0 0 1 1 3 2 4 1 4 3
0 4 -2 0 -4 1 -6 2 l-2 1 2 4 c3 7 4 14 4 26 -1 8 -1 14 -3 20 -3 10 -6 13
-10 12 -8 -2 -27 -13 -33 -19 -2 -3 -3 -3 -6 -2 -3 0 -6 1 -7 2 l-3 2 0 19 c0
10 0 19 1 19 0 1 47 1 104 1 l105 0 0 -47z m-281 15 c15 -9 24 -17 20 -19 -2
-1 -7 -5 -6 -6 1 0 3 0 6 1 3 1 6 2 7 3 1 0 1 0 0 1 -2 1 1 3 5 3 4 0 5 1 3 3
-1 1 0 1 4 0 6 0 6 0 6 1 -1 2 3 3 12 0 7 -1 7 -1 6 1 -1 1 -1 2 0 2 2 0 7 -3
10 -6 3 -2 3 -2 4 -1 0 1 2 1 2 1 2 -1 2 -1 0 -4 -1 -3 -1 -5 1 -5 1 0 3 -1 5
-2 6 -3 6 -2 2 2 l-3 3 3 4 c4 5 13 12 24 18 11 6 11 6 14 -6 5 -18 3 -35 -4
-45 -1 -2 -1 -2 2 -5 l3 -2 -5 0 c-6 1 -6 -1 0 -3 4 -3 11 -8 11 -10 0 -1 0
-1 -4 0 -4 1 -4 0 0 -3 3 -3 6 -9 6 -12 0 -2 0 -2 -1 -1 -2 2 -8 6 -8 5 0 0 1
-2 2 -4 4 -6 4 -11 2 -15 -2 -4 -2 -4 -2 -2 0 3 -5 10 -6 9 0 -1 0 -2 1 -4 1
-2 1 -5 1 -6 -1 -4 -5 -10 -7 -10 -1 0 -1 1 0 1 1 1 1 3 1 5 l0 3 -3 -4 c-1
-2 -3 -3 -4 -3 -1 0 -3 -2 -5 -3 -3 -2 -6 -3 -7 -4 l-3 0 2 3 c2 2 3 3 2 3 -2
0 -14 -9 -14 -10 0 -1 7 0 15 2 7 2 8 1 12 -6 4 -6 4 -7 0 -4 -5 2 -5 1 0 -5
4 -4 7 -10 7 -12 0 -1 -1 0 -4 2 -2 2 -3 4 -4 4 0 0 1 -4 3 -7 2 -7 3 -14 1
-14 0 0 -1 1 -2 2 -2 1 -2 1 -2 -1 0 -1 2 -4 5 -6 l4 -5 -3 1 c-2 0 -3 0 -3
-1 0 0 2 -2 4 -4 5 -4 10 -12 12 -17 2 -4 1 -5 -3 -2 -5 2 -5 0 2 -7 7 -7 9
-11 10 -16 l1 -4 -3 3 c-2 3 -4 4 -4 4 -1 0 0 -3 1 -6 5 -12 6 -24 1 -30 -1
-2 -1 -2 -1 2 0 2 -1 6 -1 9 l-2 4 0 -7 c-1 -8 -4 -18 -5 -20 -1 -1 -7 -4 -9
-4 0 0 0 2 1 4 l0 5 -3 -5 -3 -5 -7 0 c-7 -1 -8 0 -6 2 2 2 0 1 -4 -1 -4 -2
-5 -2 -10 -1 -2 1 -6 4 -9 5 -2 2 -4 4 -4 4 -2 0 -1 -3 2 -6 l3 -4 -2 0 c-2 0
-6 2 -9 3 -4 2 -7 3 -7 3 0 -2 4 -6 9 -8 4 -2 6 -2 22 -2 14 0 17 -1 15 -2 -1
0 -2 -2 -3 -3 -4 -3 5 0 15 4 5 3 10 5 10 5 0 -1 0 -2 -1 -3 -1 -3 0 -2 4 1
13 11 16 12 14 7 -2 -6 0 -5 6 2 7 9 11 13 11 11 0 -3 1 -2 7 4 3 4 7 7 9 8 4
2 4 2 7 1 3 -2 4 -6 4 -11 0 -4 0 -4 2 -3 0 2 1 5 1 8 l0 5 3 -2 c9 -6 9 -18
1 -29 -2 -3 0 -3 4 0 4 3 4 3 4 1 0 -5 -7 -13 -16 -18 l-6 -3 4 0 c5 0 5 0 3
-2 -1 -1 -4 -3 -7 -5 -5 -2 -7 -2 -16 -2 -6 0 -12 0 -13 0 -2 1 -3 1 -3 0 0
-1 8 -4 13 -5 6 -1 3 -2 -5 -3 -5 0 -10 0 -16 1 -4 1 -8 2 -9 2 0 -1 10 -6 12
-6 4 0 3 -2 -2 -3 -7 -1 -16 1 -25 4 -4 2 -8 3 -8 3 -2 0 1 -3 6 -6 l4 -3 -3
-1 c-5 0 -12 0 -17 3 -5 2 -6 2 -4 0 4 -5 -11 1 -19 7 -3 2 -6 4 -7 4 0 -1 3
-6 6 -9 l2 -2 -3 0 c-6 0 -14 6 -21 15 -4 5 -5 6 -5 4 0 -2 3 -9 6 -12 3 -4
-4 -1 -8 3 -6 5 -7 8 -8 19 l-1 9 -1 -4 c-2 -3 -2 -5 -2 -10 0 -4 -1 -7 -1 -7
-2 0 -7 3 -12 7 -5 4 -6 3 -3 -1 2 -2 2 -3 1 -3 -3 0 -11 8 -15 14 -2 3 -4 6
-4 6 -1 0 2 -8 5 -12 5 -7 5 -7 2 -6 -5 1 -11 6 -16 12 -2 4 -5 6 -5 5 0 0 1
-4 3 -7 2 -3 3 -6 3 -7 0 0 -3 1 -5 2 -7 4 -12 13 -14 26 -1 8 -3 6 -3 -4 l0
-5 -2 2 c-4 4 -5 10 -5 20 l1 9 -2 -5 c-3 -6 -4 -5 -4 4 0 8 2 16 7 22 2 2 3
4 3 4 0 2 -2 1 -6 -3 -4 -3 -4 -3 -4 -1 2 6 3 8 11 15 7 8 8 10 2 7 -4 -3 -4
-2 -1 2 1 3 5 7 8 10 6 5 8 8 4 6 -4 -2 -3 0 4 7 3 4 7 10 9 13 l3 6 -3 -2
c-2 -1 -2 -1 -2 1 1 1 2 4 3 6 3 5 1 5 -3 0 -5 -5 -4 0 2 8 5 8 6 10 1 6 -1
-1 -2 -2 -2 -2 0 2 4 9 7 12 4 3 4 3 18 0 6 -1 9 -1 6 1 -2 1 -4 3 -7 5 -2 3
-4 4 -4 3 1 -1 1 -3 2 -4 1 -2 -5 1 -10 7 -3 2 -5 4 -6 4 0 -1 0 -2 1 -3 1 -2
1 -3 1 -4 -1 0 -9 9 -10 12 -1 3 -1 3 -1 -2 l1 -5 -3 2 c-3 4 -4 11 -2 16 4 6
0 4 -5 -3 -1 -1 -1 -1 -1 3 0 3 1 6 3 10 3 6 3 6 -2 3 -6 -4 -5 -1 2 6 5 7 6
10 2 7 -1 -1 -2 -1 -3 -1 0 1 5 6 9 9 l3 2 -3 0 c-1 0 -3 0 -4 -1 -3 -1 -2 0
1 3 l2 3 -2 4 c-4 5 -5 10 -5 22 0 8 2 26 4 28 1 2 4 1 12 -4z m-116 -59 c8
-4 15 -9 24 -16 l7 -7 5 1 c11 2 26 -1 39 -9 7 -4 9 -6 7 -6 -2 0 -8 -5 -7 -6
1 0 3 1 7 2 9 5 10 5 11 1 1 -2 2 -4 3 -4 0 0 2 -2 3 -4 3 -5 10 -10 14 -10 3
0 3 -1 -1 -5 -2 -1 -4 -4 -5 -6 -1 -3 -3 -4 -8 -6 l-5 -3 -3 2 c-5 5 -11 7
-21 8 -6 1 -9 2 -7 2 l3 1 -3 1 c-2 1 -3 3 -4 4 -1 1 -1 2 2 1 l3 0 -3 3 c-2
1 -4 4 -5 6 l-1 4 -2 -4 c-1 -2 -2 -5 -3 -6 l-2 -3 2 0 c3 1 3 0 -1 -4 -4 -3
-4 -4 -2 -4 2 -1 2 -1 1 -1 -1 -1 -4 1 -7 3 l-5 4 2 1 3 1 -4 3 c-2 2 -4 4 -5
5 -1 2 -1 2 1 1 3 0 4 1 1 3 0 1 -2 4 -4 6 l-3 5 -1 -3 c-1 -2 -3 -6 -5 -8
l-2 -3 2 1 c3 0 3 0 2 -1 0 -2 -1 -2 -3 -2 -5 1 -18 7 -20 9 l-2 2 5 0 c4 0 4
1 2 2 -3 2 -8 6 -9 8 -1 2 0 2 3 1 l5 0 -5 4 c-2 3 -5 6 -6 9 -3 5 -3 5 -5 -2
-1 -2 -3 -6 -5 -8 l-3 -4 3 1 c6 1 5 -1 -2 -8 -5 -5 -5 -6 1 -4 4 1 5 1 2 -2
-1 -1 -4 -2 -6 -2 -8 -2 -5 -3 7 -3 13 0 22 -2 34 -8 7 -3 22 -13 22 -14 0 0
-2 -2 -5 -3 -8 -4 -5 -4 7 -1 13 4 23 5 31 3 7 -1 11 -3 15 -7 l4 -3 5 3 c3 1
5 2 6 2 0 -1 -1 -3 -2 -5 -2 -5 -2 -13 0 -15 1 0 2 -1 2 -2 0 -2 -4 -2 -51 -2
-48 0 -51 0 -51 2 4 10 8 21 7 22 -2 3 -18 4 -27 1 -3 0 -5 -1 -5 -1 -1 0 0 3
0 7 2 7 1 9 -3 9 -2 1 -4 2 -4 2 0 1 -1 6 -2 11 -2 14 -2 45 0 47 6 5 21 5 32
1z m379 0 c4 -1 9 -3 12 -5 l6 -2 0 -13 c0 -12 -3 -40 -5 -43 -2 -4 -15 3 -20
11 -2 2 -3 4 -3 4 0 1 2 0 5 -1 7 -2 8 -1 2 5 -5 5 -9 9 -9 11 0 1 1 0 3 0 5
-2 5 -1 1 4 -2 2 -5 7 -6 11 -2 3 -4 6 -4 6 0 0 -1 -3 -2 -6 -1 -3 -4 -8 -6
-11 -4 -6 -4 -7 1 -5 2 1 3 2 4 2 0 0 -1 -2 -2 -5 -2 -3 -5 -7 -8 -9 -2 -2 -4
-4 -4 -5 1 0 3 0 6 1 3 1 6 2 6 2 1 -2 -11 -16 -14 -16 -1 0 -1 -1 -1 -2 0 -1
1 -1 2 -1 1 1 3 1 5 2 4 0 4 0 3 -2 -1 -1 -5 -3 -8 -4 -5 -2 -6 -2 -7 0 -3 3
-3 4 0 3 l3 0 -3 4 c-1 2 -4 5 -5 8 l-2 4 -1 -3 c-1 -2 -3 -5 -4 -8 l-3 -4 2
0 c3 1 3 1 2 -1 -1 -1 -3 -3 -5 -5 l-3 -3 3 0 c4 0 3 -2 -2 -5 -4 -3 -5 -3
-11 2 -3 3 -6 8 -6 9 0 1 2 0 3 -1 5 -2 6 -1 2 4 -2 2 -5 7 -6 10 -1 3 -3 5
-3 5 0 0 -1 -2 -2 -5 -1 -2 -4 -6 -6 -9 -4 -5 -4 -6 1 -4 4 2 4 0 -1 -4 -4 -4
-4 -4 -7 -2 -9 4 -21 6 -31 5 -3 -1 -8 -1 -10 -1 l-4 -1 -3 6 c-3 5 -3 6 -1 6
1 1 3 3 5 5 2 2 4 3 4 3 2 0 6 5 8 8 0 1 1 3 1 5 0 3 0 3 4 2 2 0 4 -1 5 -1 1
-1 4 -2 6 -3 l5 -1 -3 2 c-1 1 -5 3 -7 5 -5 2 -5 2 -5 8 -1 3 -1 5 -1 6 1 1
15 -2 20 -4 3 -2 5 -3 6 -3 1 0 0 2 -2 4 -3 3 -2 3 7 7 13 4 25 4 32 -1 4 -3
4 -3 4 1 1 3 9 10 18 15 12 6 26 7 39 3z m-429 -44 c3 -8 2 -15 -3 -21 -5 -5
-6 -4 -4 6 2 8 2 10 0 9 0 -1 -1 -5 -3 -9 -1 -5 -2 -9 -2 -9 -2 -1 -4 2 -5 6
-1 6 0 10 7 20 l4 8 3 -3 c1 -1 3 -4 3 -7z m478 -2 c1 -4 3 -9 3 -11 0 -4 -2
-9 -5 -11 -3 -2 -3 -2 -3 3 -1 2 -2 5 -3 7 l-1 3 -1 -2 c-1 -1 -1 -5 -1 -8 1
-5 1 -6 -3 -4 -5 3 -6 13 -4 20 1 2 4 6 6 9 l3 6 3 -3 c1 -1 4 -6 6 -9z m-512
-20 c3 -2 6 -4 8 -7 3 -4 4 -8 3 -8 -1 0 -5 2 -10 5 -5 2 -9 4 -10 4 0 -1 2
-3 6 -5 7 -5 10 -8 9 -9 0 -1 -2 -1 -4 -2 -9 -2 -17 3 -21 13 -4 10 -3 11 8
11 4 0 7 -1 11 -2z m57 1 c1 -1 1 -2 0 -6 -2 -8 -4 -12 -8 -14 -5 -2 -8 -2
-12 -1 l-2 1 3 3 c1 2 4 4 6 6 2 1 4 3 4 3 0 1 -6 -2 -11 -5 -2 -2 -4 -3 -4
-3 -2 0 -1 4 1 8 3 6 9 9 16 9 3 0 6 0 7 -1z m419 -5 c0 -2 -3 -28 -4 -29 0
-1 -19 -1 -42 -1 l-42 1 8 5 c20 14 39 22 63 24 15 1 16 1 17 0z m-447 -5 c0
-2 0 -3 -1 -3 0 0 0 1 0 3 0 2 0 3 1 3 0 0 0 -1 0 -3z m-3 -20 c1 -1 6 -33 6
-36 0 -3 2 0 5 7 2 4 5 9 7 10 2 2 2 2 -1 -3 -4 -6 -9 -18 -9 -22 0 -2 0 -2
-3 -2 -3 0 -4 0 -4 4 -1 4 -4 9 -7 14 0 1 0 1 2 -1 2 -2 4 -4 4 -4 2 0 0 15
-1 21 -2 4 -4 8 -12 19 -1 1 1 0 4 -3 3 -3 6 -5 6 -5 1 0 1 5 1 11 l0 12 1
-10 c0 -6 1 -11 1 -12z m327 19 c9 -2 18 -7 25 -14 6 -6 6 -6 5 -8 -2 -2 -3
-2 -32 -2 -28 0 -30 0 -29 2 0 1 1 2 2 2 2 2 1 8 -1 13 -2 4 -2 5 -2 6 4 3 22
4 32 1z m-267 -3 l3 -1 -2 -5 c-6 -18 -15 -26 -31 -27 -5 0 -7 0 -7 1 0 2 11
13 18 17 4 3 7 5 6 5 -3 0 -15 -9 -23 -15 -3 -3 -6 -6 -6 -6 -2 0 -1 9 0 12 1
2 3 5 4 6 2 1 5 3 8 5 2 2 6 5 7 6 6 3 18 4 23 2z m409 -4 c1 0 2 -1 2 -2 0
-1 1 -2 4 -3 5 -1 9 0 13 3 2 3 5 4 7 2 2 -1 2 -6 2 -41 l1 -40 -5 -1 c-5 -1
-26 -1 -30 0 -3 1 -3 1 -3 6 0 2 0 16 1 31 l1 26 2 1 c3 1 3 2 0 3 -3 0 -4 2
-4 9 0 5 4 8 9 6z m-101 -2 c4 0 4 -1 1 -3 -2 -1 -3 -1 -5 1 -2 3 -3 4 0 3 1
-1 3 -1 4 -1z m-356 -6 l4 0 -2 -5 c-1 -4 -2 -7 -2 -11 0 -6 -1 -12 -3 -11 -1
1 -4 20 -4 24 0 4 1 5 3 5 0 -1 2 -1 4 -2z m-29 -14 c4 -2 8 -7 7 -10 -1 -1
-2 -1 -6 1 -6 2 -13 3 -17 3 -3 -1 -1 -3 4 -3 4 0 12 -3 14 -4 1 -2 0 -2 -4
-5 -6 -4 -13 -3 -23 1 -4 2 -8 4 -8 4 -1 0 1 3 2 5 4 4 9 8 15 10 4 1 12 0 16
-2z m463 -3 l0 -4 -72 0 c-71 0 -73 0 -76 2 -2 1 -3 3 -3 3 0 2 3 3 83 3 l68
0 0 -4z m-289 2 c0 0 -1 -2 -3 -3 l-2 -3 -52 0 -51 0 3 3 3 3 27 0 c45 1 75 1
75 0z m-10 -13 c-1 -2 -3 -5 -5 -7 -2 -3 -4 -7 -5 -9 l-1 -5 -38 0 -37 1 -1 3
c-2 4 -9 9 -17 12 -6 1 -6 1 -6 5 l0 3 56 0 56 0 -2 -3z m298 2 c0 -1 0 -6 -1
-11 l-1 -11 -66 0 c-62 0 -66 0 -66 2 0 2 -4 11 -8 15 -2 3 -3 5 -2 5 1 1 143
1 144 0z m-414 -2 c1 0 1 -2 1 -2 0 -1 -5 -1 -10 0 -3 0 -3 1 -2 2 1 3 10 3
11 0z m1 -8 c10 -1 18 -4 21 -8 2 -2 2 -3 2 -11 0 -9 0 -10 -2 -12 -4 -3 -8
-5 -16 -7 -12 -2 -52 -2 -62 0 -11 3 -15 5 -16 10 -1 6 0 14 3 16 2 3 15 8 24
10 6 1 6 1 7 -1 3 -3 2 -4 -2 -5 -12 -2 -25 -6 -24 -7 2 -4 52 -5 67 -2 9 2
16 5 15 6 -2 1 -13 3 -24 4 -6 0 -11 1 -11 1 0 0 0 2 1 4 1 3 2 3 6 3 2 0 8 0
11 -1z m101 -18 c0 0 -2 -3 -3 -6 -3 -5 -3 -6 -3 -13 0 -4 0 -9 0 -10 l-1 -2
-36 0 -36 0 0 6 c1 4 2 7 3 10 2 2 3 5 3 9 0 3 0 6 1 6 1 1 72 1 72 0z m308
-1 c0 -2 -1 -3 -6 -5 -9 -5 -12 -16 -5 -23 l2 -2 -33 0 c-31 1 -37 1 -42 2 -1
1 -4 0 -6 0 -3 -2 -9 -2 -19 -2 l-14 0 1 9 c0 9 -1 14 -4 19 -1 2 -2 3 -2 3 0
1 29 1 64 1 l64 0 0 -2z m75 -8 c8 -2 11 -7 9 -12 -2 -4 -6 -7 -17 -9 -8 -2
-11 -2 -31 -2 -19 0 -25 0 -31 1 -12 3 -17 8 -14 15 1 3 5 5 13 7 8 3 9 3 9
-1 0 -2 0 -3 -5 -4 -3 -1 -7 -2 -8 -3 -1 -2 -1 -2 1 -4 7 -6 45 -7 65 -2 8 2
10 3 10 5 0 2 -2 3 -7 5 -6 1 -7 2 -7 4 0 3 0 3 5 2 2 0 6 -1 8 -2z m-469 -29
c-3 -27 -3 -27 -6 -29 -9 -6 -43 -8 -61 -2 -3 0 -5 2 -6 3 -1 2 -8 39 -8 43 0
2 0 2 5 0 18 -4 52 -4 71 1 4 1 7 2 7 1 0 0 -1 -8 -2 -17z m468 4 c0 -2 -4 -7
-8 -9 -14 -10 -43 -10 -56 -2 -4 3 -10 10 -9 11 1 0 6 -1 13 -2 13 -1 41 -1
52 1 8 2 8 2 8 1z m-414 -3 l25 0 0 -4 0 -4 -37 1 c-20 0 -37 0 -37 0 0 0 0 2
1 4 0 2 1 3 2 3 3 1 20 1 46 0z m238 -2 c-3 -3 -11 -6 -16 -6 l-5 0 0 3 c0 2
0 4 1 4 0 1 5 1 11 1 9 0 10 0 9 -2z m101 -2 l2 -4 -30 0 -31 0 -2 4 c-1 2 -2
3 -2 4 0 0 14 0 30 0 l31 0 2 -4z m-121 -10 c-1 0 -3 -1 -4 -1 0 -1 -1 -1 -1
0 0 1 1 2 5 2 l4 0 -4 -1z m201 -1 c4 -2 13 -10 13 -12 0 -1 -3 -1 -6 -1 -5 0
-6 0 -10 3 -2 2 -7 4 -11 5 -4 1 -7 3 -7 3 0 1 2 1 4 2 3 1 5 1 6 1 2 1 7 1
11 -1z m-560 -3 c5 0 6 -1 6 -3 0 -2 0 -2 -12 -2 l-11 0 3 4 c3 2 4 3 6 2 1 0
5 -1 8 -1z m521 1 l13 0 0 -6 c0 -6 0 -6 -10 -7 -6 -1 -18 0 -22 1 -2 1 -2 2
-2 6 0 3 0 6 1 6 0 1 2 1 3 0 2 0 9 0 17 0z m-25 -10 c0 -4 2 -5 13 -6 6 -1
10 -1 17 0 9 1 13 3 13 7 0 1 1 2 2 2 3 0 10 -3 13 -6 2 -2 2 -2 1 -5 -1 -3
-7 -5 -18 -8 -7 -1 -12 -1 -24 -1 -25 1 -38 6 -34 13 1 3 10 7 14 7 3 0 3 0 3
-3z m-489 0 c0 0 0 -1 0 -1 0 -1 -7 -1 -15 -1 l-15 -1 2 3 c1 2 2 2 14 2 11 0
13 0 14 -2z M241 709 c-2 -4 -2 -5 -6 -6 -6 -2 -7 -3 -2 -7 4 -2 4 -3 4 -8 0 -7
1 -7 6 -3 3 3 3 3 8 1 3 -1 5 -1 6 -1 0 1 0 2 -1 4 -2 5 -1 7 2 10 1 1 2 3 2
4 0 1 -3 2 -7 2 -2 0 -3 1 -5 4 -1 2 -3 4 -4 4 0 0 -2 -2 -3 -4z m7 -6 c0 -1
2 -1 4 -1 4 0 4 -1 1 -4 -2 -2 -2 -2 -1 -5 1 -4 1 -5 -3 -3 -3 1 -3 1 -6 -1
l-3 -2 0 4 c0 3 -1 4 -3 6 l-3 3 3 0 c3 1 4 2 6 5 l1 3 2 -2 c1 -1 2 -3 2 -3z M161 702 c-3 -8 -3 -8 -9 -9 -10 -2 -10 -3 -3 -9 5 -3 5 -3 5 -7 -1
-2 -1 -5 -2 -7 -1 -5 2 -5 8 -1 3 2 5 4 6 4 0 0 3 -1 6 -3 8 -3 9 -2 7 5 -1 3
-2 6 -2 7 0 1 2 3 4 5 5 5 4 6 -4 7 -5 0 -5 1 -8 6 -2 3 -4 6 -5 6 0 0 -2 -1
-3 -4z m6 -6 c2 -4 3 -5 7 -5 3 0 5 0 5 -1 0 0 -1 -2 -3 -4 l-3 -3 1 -5 c1 -3
1 -5 1 -5 -1 0 -3 1 -5 2 l-5 2 -4 -3 c-2 -2 -4 -3 -4 -3 -1 0 -1 3 0 6 l0 6
-3 2 c-2 1 -4 3 -4 3 0 1 2 1 4 2 5 0 6 1 8 6 1 2 2 4 2 4 1 0 2 -2 3 -4z M240 646 l-3 -4 -8 0 c-11 1 -32 -1 -44 -4 -10 -2 -22 -8 -31 -13 -9
-6 -9 -6 0 -11 l8 -3 0 -8 c1 -4 2 -8 2 -9 1 0 6 3 12 7 19 13 32 19 48 21 3
1 4 1 2 -5 -1 -5 0 -6 8 -3 l8 2 5 -3 c3 -2 6 -4 7 -4 2 0 2 0 2 8 l-1 7 5 5
c4 3 4 4 3 5 -1 1 -3 2 -6 3 -6 1 -6 1 -9 8 -2 7 -4 7 -8 1z m6 -5 c2 -5 2 -5
8 -7 l5 -1 -4 -4 -4 -3 1 -7 0 -6 -5 3 -5 4 -6 -2 c-4 -1 -6 -2 -7 -2 0 0 1 3
2 6 l2 6 -3 4 c-2 3 -4 5 -4 5 0 1 3 1 6 1 6 0 6 0 9 4 1 2 3 4 3 4 0 0 2 -2
2 -5z m-24 -4 c1 -2 0 -2 -9 -4 -14 -1 -30 -7 -43 -15 l-6 -4 -6 2 c-3 1 -5 3
-5 3 0 3 19 12 31 16 10 2 19 4 30 4 7 0 8 0 8 -2z m6 -7 c1 -1 1 -2 1 -2 0 0
-5 -2 -11 -3 -14 -4 -28 -10 -41 -19 -6 -4 -10 -7 -11 -7 0 1 0 4 -1 7 l0 7 5
3 c14 8 28 13 44 15 10 1 12 1 14 -1z M226 582 c-1 0 -2 -2 -2 -4 -2 -2 -3 -3 -6 -4 -3 0 -5 -1 -5 -2 -1 0
1 -2 3 -4 3 -3 3 -3 3 -8 0 -4 0 -6 1 -6 0 0 2 1 4 3 4 2 8 2 10 0 0 -1 1 -1
2 -1 2 0 2 0 2 3 -1 2 -1 4 -1 5 -1 1 0 3 2 5 4 4 3 6 -3 6 -3 0 -4 1 -5 4 -2
4 -4 5 -5 3z m2 -5 c0 -2 4 -5 7 -5 l2 0 -2 -2 c-2 -2 -2 -3 -1 -6 l0 -4 -3 1
c-2 2 -3 2 -6 0 l-3 -2 0 4 c0 3 -1 4 -3 6 l-2 2 3 1 c3 0 4 1 5 3 1 3 3 4 3
2z M134 578 c-2 -4 -3 -5 -7 -6 -2 -1 -4 -2 -5 -2 0 -1 1 -3 3 -4 4 -3
4 -4 4 -9 0 -3 0 -5 1 -6 1 0 3 1 5 3 4 3 4 3 8 2 3 -2 7 -3 7 -2 0 0 -1 3 -2
5 l-1 5 3 3 c2 2 3 4 3 5 -1 0 -3 1 -6 2 -3 0 -4 1 -6 4 -3 5 -5 5 -7 0z m6
-4 c1 -2 2 -3 5 -3 4 0 4 -1 1 -4 -2 -2 -2 -2 -1 -6 1 -3 1 -3 -1 -3 -4 2 -7
2 -8 0 -3 -3 -4 -2 -4 2 0 3 0 4 -3 6 l-2 3 3 1 c3 0 4 1 5 4 2 4 3 4 5 0z M177 546 c-1 -1 -3 -6 -4 -11 -2 -4 -4 -8 -4 -8 0 -1 -5 -2 -10 -3
-10 -2 -13 -4 -11 -7 0 -1 10 -8 15 -11 1 -1 1 -2 0 -11 -1 -6 -1 -11 -1 -12
1 -3 4 -2 13 4 4 3 8 6 9 6 0 0 4 -2 8 -4 4 -1 9 -3 11 -4 4 0 4 0 4 3 0 1 -2
7 -3 11 l-4 9 8 8 c5 5 7 8 7 9 0 2 -1 3 -12 3 l-11 0 -4 7 c-4 8 -8 13 -9 13
-1 0 -2 -1 -2 -2z m9 -14 l3 -7 7 0 c4 0 9 0 11 -1 l3 0 -7 -8 -7 -7 3 -8 c3
-8 4 -11 2 -11 0 0 -5 2 -9 4 -5 2 -9 4 -9 3 -1 0 -5 -3 -9 -6 -4 -3 -7 -5 -8
-5 0 1 0 5 1 11 1 6 1 10 1 10 0 0 -4 3 -8 5 -4 3 -7 5 -7 6 0 1 5 3 12 4 7 1
8 1 10 9 1 4 3 8 3 9 1 2 1 2 3 0 0 -1 3 -5 5 -8z M121 495 c-1 -4 -2 -5 -4 -5 -3 0 -6 -2 -6 -3 0 -1 1 -3 3 -4 3 -2 3
-3 3 -7 0 -3 0 -5 1 -5 0 -1 2 0 5 2 l3 3 4 -2 c5 -3 7 -2 5 4 -1 4 -1 4 1 7
4 4 3 6 -3 6 -2 0 -3 1 -5 4 -1 2 -3 4 -4 4 0 0 -2 -2 -3 -4z m11 -7 l2 0 -2
-3 c-1 -2 -2 -3 -1 -5 1 -3 1 -3 -2 -2 -3 1 -4 1 -6 -1 l-3 -2 0 4 c0 3 -1 4
-3 6 l-2 2 3 0 c3 1 4 2 5 4 l1 3 3 -3 c1 -2 3 -3 5 -3z M238 476 c-2 -5 -4 -7 -10 -7 -2 0 -4 -1 -5 -2 l-2 -2 5 -4 c2 -2 5
-4 5 -4 0 0 0 -3 -1 -6 -2 -10 -1 -11 7 -5 l6 4 5 -3 c5 -3 9 -4 9 -2 0 1 -1
4 -2 7 l-1 6 4 4 c6 6 5 8 -3 8 l-6 0 -3 6 c-3 7 -5 8 -8 0z m7 -4 l2 -5 5 0
c3 0 5 0 5 0 0 -1 -2 -2 -4 -4 l-3 -4 1 -5 c1 -2 2 -5 2 -5 0 -1 -2 0 -5 2
l-6 2 -3 -2 c-6 -5 -6 -5 -6 2 l1 6 -3 3 c-5 3 -5 4 -1 4 5 0 8 2 10 6 0 3 2
5 2 5 0 0 1 -2 3 -5z M150 438 c-1 -1 -3 -5 -4 -7 l-3 -4 -6 -1 c-5 0 -8 -1 -9 -2 -1 -2
-1 -2 4 -7 2 -2 5 -4 5 -4 1 0 1 -2 -1 -9 -3 -8 -2 -10 3 -8 2 1 5 2 7 4 2 1
4 2 5 2 0 0 3 -2 6 -3 6 -4 10 -5 10 -2 0 1 -1 4 -1 7 -1 3 -2 6 -2 7 0 0 3 3
6 5 7 6 7 7 0 8 -11 2 -11 2 -12 7 -2 5 -5 9 -6 9 -1 0 -2 -1 -2 -2z m4 -8 c3
-7 4 -8 9 -8 2 0 4 0 5 -1 2 -1 2 -1 -3 -4 -3 -2 -5 -4 -5 -5 0 0 1 -3 2 -6 0
-3 1 -6 1 -7 0 0 -3 2 -6 4 -3 1 -5 3 -6 3 -1 0 -3 -1 -6 -3 -3 -2 -5 -3 -6
-3 0 0 0 3 1 7 l2 6 -5 4 c-2 2 -4 4 -4 5 1 0 4 0 7 1 l6 0 3 6 c1 3 3 6 3 6
0 0 1 -2 2 -5z M348 705 c-3 -6 -2 -5 -8 -6 -7 -2 -8 -3 -3 -7 l5 -4 -1 -5 c-1 -6
-1 -8 1 -8 0 0 3 1 5 3 l5 3 5 -2 c5 -2 8 -3 8 -1 0 1 -1 4 -2 6 l-1 5 4 4 c5
4 4 6 -3 7 -5 0 -6 0 -8 5 -1 2 -3 5 -4 5 -1 0 -2 -2 -3 -5z m12 -8 l4 -1 -3
-3 c-2 -3 -2 -3 -1 -7 0 -3 1 -5 1 -5 -1 0 -3 1 -5 2 l-4 2 -4 -2 c-2 -2 -4
-3 -4 -3 0 0 0 2 0 5 1 4 1 4 -2 7 -3 3 -3 4 1 4 3 0 5 2 7 6 l1 3 2 -4 c2 -3
3 -4 7 -4z M425 705 c0 -1 -2 -5 -4 -8 l-3 -7 -5 0 c-16 0 -17 -3 -8 -11 l7 -5
-3 -7 c-2 -8 -3 -12 -1 -13 1 0 5 2 9 4 l9 5 6 -5 c7 -4 10 -5 11 -3 1 0 0 4
0 8 -1 4 -2 8 -2 9 0 1 3 4 7 6 6 5 7 8 5 9 -1 0 -5 1 -10 1 l-7 2 -3 8 c-4 7
-6 9 -8 7z m5 -10 c1 -4 3 -7 3 -8 1 0 4 -1 7 -2 10 -1 10 -1 3 -6 -3 -2 -6
-5 -6 -6 0 0 1 -4 2 -8 0 -3 1 -6 1 -7 0 0 -4 2 -7 5 l-7 4 -8 -4 c-6 -4 -7
-4 -7 -2 1 1 2 4 3 8 l1 6 -6 5 -5 6 8 0 8 1 4 7 c1 4 3 7 3 7 1 0 2 -3 3 -6z M462 624 c-1 -2 -4 -4 -6 -5 l-3 -1 2 -2 c3 -2 3 -3 3 -5 -1 -4 0 -5
3 -4 2 2 3 2 5 0 4 -2 4 -1 4 2 0 2 1 4 2 6 3 2 3 3 -1 4 -2 1 -4 3 -5 5 -1 4
-2 4 -4 0z m4 -5 c2 -2 3 -3 2 -3 -1 -1 -1 -2 -1 -3 0 -1 -1 -2 -3 -2 -2 0 -3
1 -3 2 0 1 0 2 -1 3 -1 0 2 4 4 5 0 0 1 -1 2 -2z M489 511 c-2 -4 -2 -5 -6 -6 -6 -2 -6 -4 -1 -7 3 -2 3 -2 3 -7 -1 -7
0 -8 5 -4 l5 3 4 -2 c3 -1 5 -2 5 -1 1 0 1 3 0 5 -2 4 -2 5 1 8 4 4 3 6 -1 6
-4 0 -6 1 -9 5 -1 2 -2 4 -3 4 -1 0 -2 -2 -3 -4z m11 -8 l3 0 -2 -3 c-2 -2 -2
-2 -1 -5 0 -2 1 -4 1 -4 -1 0 -2 1 -4 1 -3 1 -4 1 -6 -1 -2 -1 -3 -2 -3 -2 0
0 0 2 0 4 0 3 0 4 -2 6 -4 2 -4 3 0 4 2 0 4 1 5 4 l1 3 2 -3 c2 -2 3 -3 6 -4z M476 457 c-1 -2 -3 -5 -5 -9 l-3 -7 -8 0 c-8 -1 -12 -2 -12 -4 0 -1
3 -4 7 -7 4 -3 7 -6 7 -6 0 0 -1 -3 -2 -7 -1 -4 -2 -8 -2 -10 0 -5 2 -4 17 4
l3 2 7 -4 c4 -3 8 -5 9 -5 2 0 3 3 0 12 0 3 -1 6 -1 7 0 1 3 4 7 7 9 8 9 9 -6
11 -7 0 -7 0 -9 4 -5 13 -7 16 -9 12z m5 -11 c1 -3 3 -6 3 -7 1 0 4 -1 8 -2 4
0 7 -1 8 -1 0 -1 -6 -7 -10 -9 -1 -1 -1 -1 0 -7 1 -4 2 -8 2 -9 l0 -2 -4 2
c-3 2 -6 4 -8 5 -2 1 -3 1 -5 0 -1 0 -4 -2 -7 -4 -7 -4 -7 -4 -5 5 3 8 3 9 -4
14 -3 2 -5 4 -5 5 0 0 4 1 8 2 l9 1 3 7 c2 4 4 7 4 6 0 0 2 -3 3 -6z M411 424 c-3 -5 -3 -5 -7 -5 -8 0 -9 -2 -3 -8 l4 -3 -2 -5 c-2 -7 0
-8 6 -5 l6 3 4 -2 c7 -4 7 -4 7 2 -1 2 -1 5 -1 6 -1 1 0 3 3 5 5 3 5 5 -2 7
-5 0 -5 1 -7 5 -2 2 -3 5 -4 5 0 0 -2 -2 -4 -5z m6 -3 c1 -2 2 -4 3 -4 1 -1 3
-1 4 -1 l3 -1 -3 -3 c-3 -2 -3 -3 -3 -6 1 -2 1 -4 2 -5 0 -1 -1 -1 -4 1 l-5 3
-4 -3 -4 -2 0 2 c1 2 1 4 2 5 0 2 -1 3 -3 5 -4 3 -4 4 1 4 4 0 5 1 7 4 1 2 2
4 2 4 0 0 1 -2 2 -3z M367 627 c-3 -1 -5 -4 -3 -7 2 -2 9 -1 11 1 1 1 2 2 2 3 0 3 -6 4
-10 3z m6 -2 c2 -2 2 -2 0 -3 -3 -2 -5 -2 -7 0 -1 1 -1 1 0 3 3 1 5 1 7 0z M338 626 c-7 -2 -10 -5 -14 -9 -4 -4 -4 -8 1 -10 4 -2 4 -2 11 -1 13
4 21 12 16 18 -2 3 -9 4 -14 2z m11 -3 c3 -2 3 -5 -2 -9 -10 -9 -27 -9 -23 0
1 3 7 8 13 10 6 1 9 1 12 -1z M394 613 c-1 -2 -3 -5 -4 -6 -2 -9 9 -22 21 -25 7 -2 10 -1 14 3 4 4
4 8 1 15 -4 8 -14 15 -24 17 -4 0 -4 0 -8 -4z m18 -1 c7 -4 14 -14 14 -21 0
-10 -16 -11 -26 0 -7 6 -11 16 -6 16 2 0 2 1 2 3 0 2 1 3 2 4 3 1 10 0 14 -2z M290 588 c-6 -6 -8 -17 -4 -22 3 -4 4 -4 9 -1 6 4 10 18 6 24 -2 3
-7 3 -11 -1z m10 0 c3 -4 1 -14 -4 -20 -6 -6 -10 -3 -10 5 0 6 3 11 7 14 4 2
5 3 7 1z M395 584 c1 -2 9 -7 11 -7 3 0 2 2 -1 2 -1 1 -4 2 -6 4 -5 4 -5 4 -4
1z M428 568 c-3 -3 -3 -3 -3 -9 0 -13 8 -22 15 -16 6 6 4 21 -3 26 -5 3
-6 3 -9 -1z m8 -1 c6 -5 8 -15 4 -21 -3 -4 -6 -4 -9 0 -5 6 -6 17 -2 21 2 3 4
3 7 0z M281 553 c-4 -5 -5 -11 -2 -15 1 -2 2 -2 4 -2 6 2 9 13 5 18 -2 2 -5
1 -7 -1z m6 -2 c2 -3 1 -6 -1 -10 -3 -5 -7 -3 -7 3 0 6 7 12 8 7z M403 548 c-10 -3 -15 -10 -15 -20 0 -11 4 -17 13 -17 19 0 28 25 14
35 -4 3 -7 3 -12 2z m10 -3 c7 -3 9 -14 5 -21 -4 -7 -9 -10 -15 -11 -5 0 -6 0
-9 3 -5 5 -6 14 -2 22 4 7 15 11 21 7z M437 530 c-3 -3 -5 -10 -5 -14 1 -3 4 -4 7 -3 3 2 5 4 6 8 1 4 1 7
-2 9 -2 3 -4 2 -6 0z m6 -2 c3 -6 -4 -16 -8 -13 -2 2 -1 9 3 13 2 3 4 2 5 0z M297 530 c-11 -1 -13 -15 -4 -27 10 -14 25 -13 25 2 0 13 -12 27 -21
25z m8 -4 c6 -4 11 -13 11 -21 0 -5 0 -6 -2 -8 -2 -1 -4 -2 -6 -2 -9 0 -19 13
-19 24 0 3 1 5 3 7 4 4 7 4 13 0z M384 514 c0 -2 3 -6 5 -6 2 0 1 1 -2 4 -2 3 -3 3 -3 2z M381 511 c0 -1 1 -3 3 -4 1 -2 2 -2 2 -1 0 1 -1 3 -2 4 -2 2 -3 2 -3
1z M324 500 c-1 0 -1 -1 -1 -3 0 -1 -1 -3 -3 -4 -4 -3 -2 -5 1 -3 3 2 6
9 4 10 0 1 -1 1 -1 0z M414 497 c-9 -4 -12 -17 -5 -17 4 0 9 4 11 8 2 5 2 6 0 8 -2 2 -3 2
-6 1z m5 -2 c2 -3 0 -7 -4 -11 -4 -3 -7 -2 -8 1 0 3 2 7 6 9 3 2 4 2 6 1z M327 493 c-3 -4 -1 -5 2 -3 2 1 2 2 1 3 -1 1 -2 1 -3 0z M402 480 c0 -2 3 -3 4 -3 0 1 -3 4 -4 4 -1 0 -1 -1 0 -1z M399 477 c0 -1 1 -2 2 -2 2 0 2 0 2 1 0 1 -1 2 -2 2 -2 0 -2 0 -2 -1z M335 475 c-1 -1 -1 -1 0 -3 3 -5 14 -9 17 -6 1 2 1 2 -2 5 -3 2 -9 5
-12 5 -1 0 -2 0 -3 -1z m12 -4 c6 -4 2 -6 -6 -2 -5 3 -6 6 0 5 2 -1 5 -2 6 -3z M135 344 c-5 -12 -5 -12 -9 -12 -6 -1 -10 -3 -10 -4 0 -1 2 -4 5 -6
3 -2 5 -4 5 -5 0 0 0 -4 -1 -7 0 -6 0 -7 2 -7 1 0 4 2 7 4 l6 4 5 -3 c10 -5
12 -4 8 6 l-2 6 5 5 c6 6 5 8 -4 8 l-7 0 -3 6 c-4 7 -6 8 -7 5z m6 -10 c2 -4
2 -4 8 -4 3 0 5 0 5 -1 0 0 -2 -2 -4 -4 l-3 -4 2 -5 c1 -4 2 -6 2 -7 0 0 -3 1
-6 3 l-6 3 -3 -3 c-7 -5 -7 -5 -7 2 l1 6 -5 3 -4 4 3 1 c1 0 4 1 5 1 3 1 5 3
7 8 1 4 1 4 5 -3z M184 314 c0 -1 -1 -3 -2 -5 -1 -2 -2 -3 -6 -4 -5 -1 -5 -3 -1 -6 4
-3 4 -3 3 -8 0 -6 1 -6 6 -2 4 2 4 2 7 1 6 -3 7 -2 5 4 -1 3 -1 3 1 6 3 4 3 5
0 6 -5 0 -7 1 -8 4 -2 4 -3 5 -5 4z m9 -11 c2 0 2 0 0 -2 -1 -2 -1 -4 -1 -6 1
-3 1 -3 -2 -2 -3 1 -3 1 -6 -1 l-3 -2 0 3 c1 3 1 4 -2 6 l-2 3 3 1 c2 0 3 1 4
3 l1 3 3 -3 c2 -2 4 -3 5 -3z M430 341 c-1 -1 -2 -4 -3 -6 -2 -4 -3 -4 -6 -4 -6 0 -11 -1 -12 -3 0
0 2 -3 5 -6 l5 -5 -2 -7 c-3 -10 -2 -11 7 -6 l7 4 7 -4 c4 -3 7 -4 7 -3 1 1 1
3 0 8 l-1 7 5 5 c6 5 6 7 -1 8 -9 1 -9 1 -11 7 -3 8 -4 9 -7 5z m6 -12 c1 -2
3 -3 6 -3 3 -1 5 -1 6 -1 0 -1 -2 -2 -4 -4 -4 -3 -4 -2 -2 -13 l0 -3 -5 3 -6
4 -5 -3 c-3 -2 -6 -3 -6 -3 -1 0 0 3 1 6 l1 6 -3 4 c-2 2 -4 4 -4 4 0 1 3 1 6
1 l6 1 2 5 3 5 2 -3 c0 -2 2 -5 2 -6z M480 335 c-1 -3 -3 -4 -5 -4 -3 -1 -4 -3 -1 -5 1 -1 2 -2 2 -5 0 -4
0 -5 4 -3 2 2 3 2 4 0 3 -2 4 -1 4 2 0 3 1 4 3 6 2 1 2 3 -3 4 -1 1 -2 2 -3 3
-1 5 -3 5 -5 2z m6 -10 c-2 -3 -7 -4 -7 -1 0 1 0 2 -1 3 -1 1 -1 1 1 1 1 1 2
2 2 3 1 1 1 1 3 -1 3 -3 3 -3 2 -5z M267 212 c2 -4 11 -8 11 -5 0 1 0 1 -1 1 0 0 -3 1 -5 3 -5 3 -6 4 -5
1z M279 211 c0 -1 5 -5 8 -6 5 -1 4 1 -1 4 -6 3 -7 3 -7 2z M320 210 c-4 -4 -5 -4 -2 -4 2 0 6 3 6 5 0 1 -1 0 -4 -1z M310 209 c-2 -1 -3 -3 -2 -3 1 0 7 3 6 4 0 1 0 1 -4 -1z M264 185 c-2 -1 -4 -2 -4 -1 -2 0 -8 -5 -8 -6 1 0 3 1 5 3 2 2 3 2 3
1 -1 -2 2 0 8 4 0 0 0 0 0 0 0 1 -2 0 -4 -1z M310 186 c0 -1 8 -6 9 -6 1 0 -2 3 -5 5 -3 1 -4 1 -4 1z M321 180 c3 -1 5 -3 5 -3 1 0 0 2 -2 4 -3 1 -5 3 -5 3 -1 0 0 -2 2
-4z M327 180 c0 -1 9 -10 10 -9 1 0 -5 7 -8 9 -1 1 -2 1 -2 0z M246 176 c-3 -2 -4 -4 -4 -5 1 0 9 7 9 8 0 2 -2 1 -5 -3z M350 115 c0 0 1 -3 3 -5 1 -3 2 -7 2 -8 0 -1 0 -3 1 -4 2 -3 1 7 -1
11 -1 2 -5 7 -5 6z M227 111 c-3 -4 -5 -9 -5 -13 0 -6 2 -6 2 1 1 3 2 7 4 9 2 5 2 6 -1
3z M227 95 c-2 -3 -1 -12 1 -15 2 -4 2 -3 1 1 -1 2 -1 6 -1 9 0 7 0 9
-1 5z M353 92 c0 -2 -1 -6 -1 -7 -1 -2 -1 -3 0 -3 1 0 3 8 2 12 0 4 -1 4
-1 -2z M531 179 c0 -2 1 -2 2 -2 2 1 2 2 0 3 -1 0 -2 -1 -2 -1z M544 175 c-1 -1 0 -4 1 -4 1 0 2 3 1 4 0 1 -1 1 -2 0z M551 167 c-1 -6 -1 -10 1 -11 2 -2 3 -2 5 0 2 2 2 3 1 6 -1 7 -2 7
-2 1 0 -4 0 -5 -2 -5 -1 0 -2 2 -2 6 0 7 0 9 -1 3z M109 791 c-1 -4 -1 -10 -2 -11 l0 -3 2 2 c1 3 4 15 4 19 0 1 -1 2 -1
2 -1 0 -2 -3 -3 -9z M487 796 c0 -5 3 -15 4 -17 2 -4 2 -1 1 6 -1 4 -2 9 -2 11 -1 2 -2 4
-2 4 -2 0 -2 -1 -1 -4z M135 59 c0 -1 2 -1 4 -1 2 0 4 0 4 1 0 1 -2 1 -4 1 -2 0 -4 0 -4 -1z M148 59 c0 -1 1 -1 3 -1 1 0 2 0 3 1 0 1 -1 1 -3 1 -3 0 -4 0 -3 -1z M177 3 c-156 0 -177 0 -177 -2 0 -1 34 -1 300 -1 266 0 300 0 300 2
0 1 -6 1 -51 1 -125 0 -207 0 -372 0z" fill="black"/>
<path d="M0 789 c0 -11 0 -12 2 -15 4 -5 9 -8 13 -8 4 0 4 0 4 2 -4 11 -4 13
-4 20 1 4 1 9 2 10 0 2 0 2 -8 2 l-9 0 0 -11z" fill="white"/>
<path d="M21 796 c-2 -5 -2 -20 0 -23 2 -5 4 -6 9 -4 8 3 8 3 4 11 -3 5 -4 8
-4 11 0 4 0 4 1 2 1 -1 2 -5 4 -8 2 -6 9 -13 13 -15 2 -1 3 -1 3 0 0 1 -1 14
-3 26 l0 4 -13 0 -13 0 -1 -4z" fill="white"/>
<path d="M53 791 c0 -14 2 -24 6 -22 2 1 4 5 5 12 1 4 2 7 2 7 2 2 1 -8 0 -14
-1 -2 -2 -5 -2 -5 1 -1 9 7 12 12 5 8 5 4 1 -4 -2 -4 -4 -7 -3 -7 0 -1 3 -1 6
-1 5 0 6 0 9 3 5 4 8 15 7 24 l-1 4 -21 0 -21 0 0 -9z" fill="white"/>
<path d="M100 790 c-1 -7 -1 -11 -3 -14 -1 -3 -2 -5 -2 -6 0 0 3 0 6 0 11 2
18 7 25 20 3 5 5 9 5 9 0 1 -4 1 -9 1 l-9 0 -1 -7 c-1 -8 -4 -17 -5 -16 0 1 1
5 1 10 3 13 3 13 -3 13 l-5 0 0 -10z" fill="white"/>
<path d="M132 796 c-2 -5 -6 -15 -11 -20 -2 -3 -4 -5 -3 -5 1 -1 9 -1 13 0 6
2 13 8 18 18 2 5 4 10 4 10 0 1 -5 1 -10 1 l-11 0 0 -4z" fill="white"/>
<path d="M159 799 c-1 0 -1 -1 -1 -2 0 -2 5 -2 142 -2 129 0 142 0 142 2 -1 0
-1 2 -1 2 0 1 -281 1 -282 0z" fill="white"/>
<path d="M448 796 c6 -14 13 -23 20 -25 4 -1 11 -1 13 0 2 0 1 1 -3 5 -4 5
-10 16 -10 19 0 5 -1 5 -12 5 l-10 0 2 -4z" fill="white"/>
<path d="M472 792 c5 -9 12 -17 18 -19 4 -2 14 -4 14 -3 0 1 -1 3 -2 6 -2 4
-2 8 -2 15 l0 9 -6 0 -5 0 1 -4 c0 -2 1 -7 2 -11 0 -4 1 -7 1 -8 -2 -1 -4 6
-7 21 0 2 0 2 -9 2 l-9 0 4 -8z" fill="white"/>
<path d="M504 790 c1 -12 2 -16 7 -19 2 -1 5 -2 8 -2 8 0 8 0 4 7 -2 4 -4 10
-3 10 1 0 2 -2 4 -5 3 -5 10 -12 11 -11 0 1 0 2 -1 4 -2 6 -2 14 -1 14 0 0 1
-1 2 -3 1 -7 2 -11 4 -14 2 -3 2 -3 3 -2 2 2 4 9 5 21 l0 10 -21 0 -22 0 0
-10z" fill="white"/>
<path d="M550 788 c-1 -6 -1 -13 -2 -15 l0 -4 4 1 c5 3 10 9 14 18 2 4 3 8 4
8 2 2 -2 -11 -4 -16 l-4 -7 6 -3 c6 -2 8 -2 10 2 2 4 2 15 1 22 l-1 6 -13 0
-14 0 -1 -12z" fill="white"/>
<path d="M584 795 c1 -8 0 -16 -2 -22 -2 -6 -1 -7 2 -7 5 0 11 4 13 8 3 4 3 6
3 15 l0 11 -9 0 -8 0 1 -5z" fill="white"/>
<path d="M153 786 c-2 -3 -3 -5 -2 -5 0 -1 298 -1 298 -1 0 1 -1 3 -2 5 l-2 5
-145 0 -145 0 -2 -4z" fill="white"/>
<path d="M146 774 c-1 -1 -2 -4 -2 -6 l0 -5 156 -1 156 0 0 5 c0 2 -1 6 -2 7
l-1 2 -153 0 c-144 0 -153 0 -154 -2z" fill="white"/>
<path d="M35 766 c-3 -2 -7 -3 -8 -3 -2 -1 -3 -2 -3 -3 -2 -5 -6 -47 -9 -78
-3 -31 -3 -39 -6 -83 -5 -77 -2 -164 5 -171 4 -3 5 -1 5 17 1 21 4 45 12 91 4
20 6 30 7 31 1 0 1 -1 -6 -46 -8 -57 -8 -58 -8 -75 l0 -17 3 -1 c2 0 3 0 3 2
1 1 3 12 6 26 4 22 6 33 5 24 0 -2 0 -8 -1 -14 -1 -6 -2 -16 -3 -23 -2 -15 -2
-16 0 -16 4 0 12 20 25 61 4 14 9 28 10 30 1 4 2 4 2 2 0 -6 -16 -60 -24 -80
-2 -5 -4 -8 -4 -9 1 0 5 2 9 4 5 3 10 5 10 5 3 0 13 23 19 42 14 44 24 94 44
216 9 54 11 70 9 70 0 0 -2 -1 -3 -1 -1 -1 -5 -2 -7 -2 -4 0 -5 0 -6 -2 0 -1
-2 -10 -4 -20 -2 -20 -7 -45 -8 -46 -1 -1 -1 2 1 13 3 19 6 45 6 50 0 5 -1 5
-3 6 -2 1 -5 0 -8 0 l-5 -1 0 -9 c-1 -12 -6 -39 -7 -40 -1 -1 -1 0 -1 4 1 3 2
10 2 16 1 6 2 15 3 20 l0 9 -3 0 c-5 0 -5 -1 -7 -15 -4 -32 -14 -100 -19 -125
-5 -24 -14 -62 -15 -64 -1 -1 -1 -1 -1 1 2 4 13 65 16 84 8 41 14 87 16 108
l0 10 -8 0 c-5 1 -10 1 -12 0 l-4 -1 0 -8 c-3 -24 -11 -97 -12 -102 -1 -6 0
16 3 53 2 18 3 38 3 45 l1 13 -4 0 c-4 0 -4 0 -5 -4 -4 -8 -7 -24 -9 -41 -1
-9 -2 -17 -2 -17 -1 0 -1 4 -1 10 0 12 3 31 7 44 1 4 2 9 2 9 0 3 -2 3 -8 1z" fill="white"/>
<path d="M461 767 c0 -3 6 -42 10 -71 11 -69 40 -171 65 -230 9 -21 10 -22 17
-26 3 -2 7 -4 9 -6 2 -1 4 -2 4 -2 0 1 -2 6 -4 12 -9 20 -31 92 -31 98 0 5 2
-1 12 -31 16 -50 27 -80 30 -81 2 0 1 2 -2 23 -4 25 -4 28 -3 26 0 -1 3 -10 5
-21 7 -30 6 -27 9 -27 2 0 3 1 3 5 0 7 -2 25 -6 45 -2 10 -6 27 -8 38 -5 23
-6 31 -4 29 2 -2 12 -45 18 -75 1 -8 3 -21 3 -29 1 -14 2 -16 5 -12 3 3 4 16
4 47 0 49 -5 125 -14 205 -1 17 -4 40 -4 50 -3 28 -3 28 -6 29 -1 0 -5 1 -8 3
-5 2 -9 2 -9 0 0 0 1 -3 2 -7 4 -12 7 -31 8 -44 0 -15 -1 -14 -3 2 -2 17 -6
36 -10 44 -1 4 -2 4 -4 3 -2 0 -4 0 -4 -1 -1 -1 0 -29 4 -70 4 -33 4 -44 3
-41 -1 3 -10 73 -11 95 l-1 16 -4 1 c-4 1 -20 1 -21 0 0 -1 3 -34 7 -57 4 -33
10 -64 18 -105 4 -20 7 -35 7 -36 -1 0 -9 29 -13 48 -6 27 -16 89 -21 128 -1
11 -2 21 -3 22 0 0 -2 1 -4 1 l-3 0 0 -11 c1 -6 2 -17 3 -24 2 -17 2 -16 1
-14 -2 1 -6 25 -7 38 l0 11 -6 1 c-3 0 -7 1 -8 0 l-2 0 0 -12 c1 -6 2 -20 4
-31 4 -28 4 -30 3 -28 0 0 -3 14 -6 31 -3 17 -5 32 -6 35 l-1 4 -6 0 c-4 0 -8
1 -9 2 -2 1 -2 1 -2 0z" fill="white"/>
<path d="M1 764 c-1 0 -1 -75 -1 -164 l0 -164 3 -1 c2 -1 3 -2 4 -2 0 0 0 5
-1 11 -5 48 -3 142 5 242 2 20 6 60 7 71 1 2 0 3 0 3 -1 0 -5 -12 -8 -28 -1
-9 -3 -14 -3 -12 0 4 2 19 4 30 1 5 2 10 2 10 0 0 -1 1 -3 1 -2 1 -4 2 -6 3
-2 2 -3 2 -3 0z" fill="white"/>
<path d="M592 763 c-3 -1 -5 -3 -5 -4 0 -1 1 -6 2 -11 2 -10 4 -28 4 -30 0 -1
-2 4 -3 11 -3 15 -7 30 -8 31 -1 1 -1 1 -1 0 0 -2 3 -41 6 -61 4 -45 11 -132
12 -168 0 -4 1 48 1 114 0 79 -1 120 -1 121 -1 0 -4 -1 -7 -3z" fill="white"/>
<path d="M142 757 c0 -2 -2 -14 -2 -16 0 -2 8 -2 160 -2 l159 0 0 5 c-1 3 -1
7 -2 10 l0 4 -157 0 c-125 0 -157 0 -158 -1z" fill="white"/>
<path d="M299 734 c-127 0 -160 -1 -161 -2 0 -1 33 -1 161 -1 89 0 162 0 162
1 0 0 0 1 -1 2 0 0 -55 0 -161 0z" fill="white"/>
<path d="M293 726 c-1 0 -1 -110 -1 -110 1 0 4 2 7 5 l7 5 0 51 0 50 -6 0 c-4
0 -7 0 -7 -1z" fill="white"/>
<path d="M138 725 c-1 0 -2 -11 -4 -23 -4 -23 -14 -83 -18 -105 -8 -43 -19
-95 -23 -106 -2 -3 -2 -11 -2 -55 0 -48 0 -51 2 -51 1 0 45 0 98 0 l97 0 0 46
0 47 -4 5 c-16 20 -24 46 -21 71 2 19 9 36 21 52 l4 5 0 57 0 58 -75 0 c-41 0
-75 0 -75 -1z m110 -16 c2 -3 3 -4 5 -4 4 0 7 -1 7 -2 0 -1 -1 -3 -2 -4 -3 -3
-4 -5 -2 -10 1 -2 1 -3 1 -4 -1 0 -3 0 -6 1 -5 2 -5 2 -8 -1 -5 -4 -6 -4 -6 3
0 5 0 6 -4 8 -5 4 -4 5 2 7 4 1 4 2 6 6 1 2 3 4 3 4 1 0 3 -2 4 -4z m-79 -9
c3 -5 3 -6 8 -6 8 -1 9 -2 4 -7 -2 -2 -4 -4 -4 -5 0 -1 1 -4 2 -7 2 -7 1 -8
-7 -5 -3 2 -6 3 -6 3 -1 0 -3 -2 -6 -4 -6 -4 -9 -4 -8 1 1 2 1 5 2 7 0 4 0 4
-5 7 -7 6 -7 7 3 9 6 1 6 1 9 9 1 3 3 4 3 4 1 0 3 -3 5 -6z m79 -55 c3 -7 3
-7 9 -8 3 -1 5 -2 6 -3 1 -1 1 -2 -3 -5 l-5 -5 1 -7 c0 -8 0 -8 -2 -8 -1 0 -4
2 -7 4 l-5 3 -8 -2 c-8 -3 -9 -2 -8 3 2 6 1 6 -2 5 -16 -2 -29 -8 -48 -21 -6
-4 -11 -7 -12 -7 0 1 -1 5 -2 9 l0 8 -8 3 c-9 5 -9 5 0 11 9 5 21 11 31 13 12
3 33 5 44 4 l8 0 3 4 c4 6 6 6 8 -1z m-17 -66 c1 -3 2 -4 5 -4 6 0 7 -2 3 -6
-2 -2 -3 -4 -2 -5 0 -1 0 -3 1 -5 0 -3 0 -3 -2 -3 -1 0 -2 0 -2 1 -2 2 -6 2
-10 0 -2 -2 -4 -3 -4 -3 -1 0 -1 2 -1 6 0 5 0 5 -3 8 -2 2 -4 4 -3 4 0 1 2 2
5 2 3 1 4 2 6 4 2 6 4 6 7 1z m-90 -1 c2 -3 3 -4 6 -4 3 -1 5 -2 6 -2 0 -1 -1
-3 -3 -5 l-3 -3 1 -5 c1 -2 2 -5 2 -5 0 -1 -4 0 -7 2 -4 1 -4 1 -8 -2 -2 -2
-4 -3 -5 -3 -1 1 -1 3 -1 6 0 5 0 6 -4 9 -2 1 -3 3 -3 4 1 0 3 1 5 2 4 1 5 2
7 6 2 5 4 5 7 0z m41 -33 c2 -2 4 -7 6 -10 l4 -7 11 0 c11 0 12 -1 12 -3 0 -1
-2 -4 -7 -9 l-8 -8 4 -9 c1 -4 3 -10 3 -11 0 -3 0 -3 -4 -3 -2 1 -7 3 -11 4
-4 2 -8 4 -8 4 -1 0 -5 -3 -9 -6 -9 -6 -12 -7 -13 -4 0 1 0 6 1 12 1 9 1 10 0
11 -5 3 -15 10 -15 11 -2 3 1 5 11 7 5 1 10 2 10 3 0 0 2 4 4 8 2 9 4 13 6 13
0 0 2 -1 3 -3z m-54 -50 c2 -3 3 -4 5 -4 6 0 7 -2 3 -6 -2 -3 -2 -3 -1 -7 2
-6 0 -7 -5 -4 l-4 2 -3 -3 c-3 -2 -5 -3 -5 -2 -1 0 -1 2 -1 5 0 4 0 5 -3 7 -2
1 -3 3 -3 4 0 1 3 3 6 3 2 0 3 1 4 5 1 2 3 4 3 4 1 0 3 -2 4 -4z m118 -19 l3
-6 6 0 c8 0 9 -2 3 -8 l-4 -4 1 -6 c1 -3 2 -6 2 -7 0 -2 -4 -1 -9 2 l-5 3 -6
-4 c-8 -6 -9 -5 -7 5 1 3 1 6 1 6 0 0 -3 2 -5 4 l-5 4 2 2 c1 1 3 2 5 2 6 0 8
2 10 7 3 8 5 7 8 0z m-92 -38 c1 -1 3 -5 4 -7 1 -5 1 -5 12 -7 7 -1 7 -2 0 -8
-3 -2 -6 -5 -6 -5 0 -1 1 -4 2 -7 0 -3 1 -6 1 -7 0 -3 -4 -2 -10 2 -3 1 -6 3
-6 3 -1 0 -3 -1 -5 -2 -2 -2 -5 -3 -7 -4 -5 -2 -6 0 -3 8 2 7 2 9 1 9 0 0 -3
2 -5 4 -5 5 -5 5 -4 7 1 1 4 2 9 2 l6 1 3 4 c5 10 6 10 8 7z" fill="white"/>
<path d="M311 678 c0 -26 0 -48 0 -48 1 0 5 2 9 4 33 16 76 12 105 -10 18 -13
33 -35 38 -58 3 -11 3 -31 1 -42 -6 -24 -19 -45 -37 -58 -10 -7 -14 -10 -23
-13 -27 -11 -59 -10 -86 2 l-7 4 0 -37 c0 -29 1 -37 2 -37 0 0 48 0 105 0
l103 0 0 53 -1 54 -9 26 c-9 28 -19 60 -26 93 -5 18 -17 80 -22 104 l-2 11
-75 0 -75 0 0 -48z m44 27 c2 -5 3 -5 8 -5 7 -1 8 -3 3 -7 l-4 -4 1 -5 c1 -2
2 -5 2 -6 0 -2 -3 -1 -8 1 l-5 2 -5 -3 c-2 -2 -5 -3 -5 -3 -2 0 -2 2 -1 8 l1
5 -5 4 c-5 4 -4 5 3 7 6 1 5 0 8 6 1 3 2 5 3 5 1 0 3 -3 4 -5z m78 -7 l3 -8 7
-2 c5 0 9 -1 10 -1 2 -1 1 -4 -5 -9 -4 -2 -7 -5 -7 -6 0 -1 1 -5 2 -9 0 -4 1
-8 0 -8 -1 -2 -4 -1 -11 3 l-6 5 -9 -5 c-4 -2 -8 -4 -9 -4 -2 1 -1 5 1 13 l3
7 -7 5 c-9 8 -8 11 8 11 l5 0 3 7 c2 3 4 7 4 8 2 2 4 0 8 -7z m33 -74 c1 -2 3
-4 5 -5 4 -1 4 -2 1 -4 -1 -2 -2 -4 -2 -6 0 -3 0 -4 -4 -2 -2 2 -3 2 -5 0 -3
-1 -4 0 -3 4 0 2 0 3 -3 5 l-2 2 3 1 c2 1 5 3 6 5 2 4 3 4 4 0z m29 -113 c3
-4 5 -5 9 -5 4 0 5 -2 1 -6 -3 -3 -3 -4 -1 -8 1 -2 1 -5 0 -5 0 -1 -2 0 -5 1
l-4 2 -5 -3 c-5 -4 -6 -3 -5 4 0 5 0 5 -3 7 -5 3 -5 5 1 7 4 1 4 2 6 6 1 2 2
4 3 4 1 0 2 -2 3 -4z m-13 -58 c1 -2 3 -6 3 -8 2 -4 2 -4 9 -4 15 -2 15 -3 6
-11 -4 -3 -7 -6 -7 -7 0 -1 1 -4 1 -7 3 -9 2 -12 0 -12 -1 0 -5 2 -9 5 l-7 4
-3 -2 c-15 -8 -17 -9 -17 -4 0 2 1 6 2 10 1 4 2 7 2 7 0 0 -3 3 -7 6 -4 3 -7
6 -7 7 0 2 4 3 12 4 l8 0 3 7 c6 12 7 13 11 5z m-63 -29 c2 -4 2 -5 7 -5 7 -2
7 -4 2 -7 -3 -2 -4 -4 -3 -5 0 -1 0 -4 1 -6 0 -6 0 -6 -7 -2 l-4 2 -6 -3 c-6
-3 -8 -2 -6 5 l2 5 -4 3 c-6 6 -5 8 3 8 4 0 4 0 7 5 2 3 4 5 4 5 1 0 2 -3 4
-5z" fill="white"/>
<path d="M243 705 c-2 -3 -3 -4 -6 -5 l-3 0 3 -3 c2 -2 3 -3 3 -6 l0 -4 3 2
c3 2 3 2 6 1 4 -2 4 -1 3 3 -1 3 -1 3 1 5 3 3 3 4 -1 4 -2 0 -4 0 -4 1 0 0 -1
2 -2 3 l-2 2 -1 -3z" fill="white"/>
<path d="M350 702 c-2 -4 -4 -6 -7 -6 -4 0 -4 -1 -1 -4 3 -3 3 -3 2 -7 0 -3 0
-5 0 -5 0 0 2 1 4 3 l4 2 4 -2 c2 -1 4 -2 5 -2 0 0 -1 2 -1 5 -1 4 -1 4 1 7
l3 3 -4 1 c-4 0 -5 1 -7 4 l-2 4 -1 -3z" fill="white"/>
<path d="M424 694 l-4 -7 -8 -1 -8 0 5 -6 6 -5 -1 -6 c-1 -4 -2 -7 -3 -8 0 -2
1 -2 7 2 l8 4 7 -4 c3 -3 7 -5 7 -5 0 1 -1 4 -1 7 -1 4 -2 8 -2 8 0 1 3 4 6 6
7 5 7 5 -3 6 -3 1 -6 2 -7 2 0 1 -2 4 -3 8 -1 3 -2 6 -3 6 0 0 -2 -3 -3 -7z" fill="white"/>
<path d="M162 696 c-2 -5 -3 -6 -8 -6 -2 -1 -4 -1 -4 -2 0 0 2 -2 4 -3 l3 -2
0 -6 c-1 -3 -1 -6 0 -6 0 0 2 1 4 3 l4 3 5 -2 c2 -1 4 -2 5 -2 0 0 0 2 -1 5
l-1 5 3 3 c2 2 3 4 3 4 0 1 -2 1 -5 1 -4 0 -5 1 -7 5 -1 2 -2 4 -3 4 0 0 -1
-2 -2 -4z" fill="white"/>
<path d="M241 642 c-3 -4 -3 -4 -9 -4 -3 0 -6 0 -6 -1 0 0 2 -2 4 -5 l3 -4 -2
-6 c-1 -3 -2 -6 -2 -6 1 0 3 1 7 2 l6 2 5 -4 5 -3 0 6 -1 7 4 3 4 4 -5 1 c-6
2 -6 2 -8 7 0 3 -2 5 -2 5 0 0 -2 -2 -3 -4z" fill="white"/>
<path d="M200 638 c-4 -1 -11 -2 -16 -3 -12 -4 -31 -13 -31 -16 0 0 2 -2 5 -3
l6 -2 6 4 c13 8 29 14 43 15 9 2 10 2 9 4 0 2 -1 2 -8 2 -4 0 -11 -1 -14 -1z" fill="white"/>
<path d="M350 638 c-4 -1 -10 -2 -15 -4 -32 -10 -56 -35 -65 -68 -3 -11 -3
-30 -1 -41 4 -18 12 -32 25 -45 13 -14 27 -22 46 -27 12 -3 36 -3 48 0 22 5
42 18 55 35 6 9 13 23 15 34 3 12 3 31 0 43 -2 11 -8 23 -14 32 -20 30 -58 46
-94 41z m26 -12 c3 -3 -1 -7 -7 -7 -4 0 -7 2 -6 5 2 4 9 5 13 2z m-24 -2 c5
-6 -3 -14 -16 -18 -7 -1 -7 -1 -11 1 -5 2 -5 6 -1 10 8 9 24 13 28 7z m59 -10
c6 -3 12 -9 15 -14 3 -7 3 -11 -1 -15 -4 -4 -7 -5 -14 -3 -12 3 -23 16 -21 25
1 1 3 4 4 6 4 4 4 4 8 4 3 -1 6 -2 9 -3z m-110 -25 c4 -6 0 -20 -6 -24 -5 -3
-6 -3 -9 1 -4 5 -2 16 4 22 4 4 9 4 11 1z m98 -6 c2 -2 5 -3 6 -4 3 0 4 -2 1
-2 -2 0 -10 5 -11 7 -1 3 -1 3 4 -1z m38 -14 c7 -5 9 -20 3 -26 -7 -6 -15 3
-15 16 0 6 0 6 3 9 3 4 4 4 9 1z m-149 -15 c4 -5 1 -16 -5 -18 -3 0 -6 3 -6 8
0 8 7 14 11 10z m127 -8 c11 -8 8 -27 -5 -33 -13 -6 -22 1 -22 15 0 10 5 17
15 20 5 1 8 1 12 -2z m28 -16 c3 -2 3 -5 2 -9 -1 -4 -3 -6 -6 -8 -3 -1 -6 0
-7 3 0 4 2 11 5 14 2 2 4 3 6 0z m-132 -6 c9 -10 10 -26 1 -30 -6 -2 -13 1
-19 9 -8 10 -8 22 -1 26 6 3 13 1 19 -5z m79 -16 c0 0 0 0 -1 0 -2 0 -5 4 -5
6 0 1 1 1 3 -2 2 -2 3 -3 3 -4z m-4 -2 c0 -1 -1 -1 -2 1 -2 1 -3 3 -3 4 0 1 1
1 3 -1 1 -1 2 -3 2 -4z m-61 -10 c-1 -4 -6 -8 -7 -6 -1 0 0 2 2 3 2 1 3 3 3 4
0 3 1 4 2 3 1 0 1 -2 0 -4z m95 0 c2 -2 2 -3 0 -8 -2 -4 -7 -8 -11 -8 -7 0 -4
13 5 17 3 1 4 1 6 -1z m-91 -6 c-2 -1 -4 -1 -3 0 2 4 2 4 4 3 1 -1 1 -2 -1 -3z
m75 -11 c3 -1 2 -2 0 -1 -2 0 -4 3 -2 3 0 0 1 -1 2 -2z m-1 -3 c0 -1 0 -1 -2
-1 -1 0 -2 1 -2 2 0 1 0 1 2 1 1 0 2 -1 2 -2z m-60 -1 c2 -1 6 -3 7 -4 3 -3 3
-3 2 -5 -3 -3 -14 1 -17 6 -1 2 -1 2 0 3 2 1 3 1 8 0z" fill="white"/>
<path d="M214 631 c-16 -2 -30 -7 -44 -15 l-5 -3 0 -7 c1 -3 1 -6 1 -7 1 0 5
3 11 7 13 9 27 15 41 19 6 1 11 3 11 3 0 0 0 1 -1 2 -2 2 -4 2 -14 1z" fill="white"/>
<path d="M366 625 c-1 -2 -1 -2 0 -3 2 -2 4 -2 7 0 2 1 2 1 0 3 -2 1 -4 1 -7
0z" fill="white"/>
<path d="M337 624 c-6 -2 -12 -7 -13 -10 -4 -9 13 -9 23 0 5 4 5 7 2 9 -3 2
-6 2 -12 1z" fill="white"/>
<path d="M461 618 c-1 -1 -2 -2 -1 -2 1 -1 1 -2 1 -3 0 -1 1 -2 3 -2 2 0 3 1
3 2 0 1 0 2 1 3 1 0 0 1 -2 3 -1 1 -2 2 -2 2 0 0 -2 -1 -3 -3z" fill="white"/>
<path d="M398 614 c-1 -1 -2 -2 -2 -4 0 -2 0 -3 -2 -3 -5 0 -1 -10 6 -16 10
-11 26 -10 26 0 0 7 -7 17 -14 21 -4 2 -11 3 -14 2z" fill="white"/>
<path d="M293 587 c-4 -3 -7 -8 -7 -14 0 -8 4 -11 10 -5 5 6 7 16 4 20 -2 2
-3 1 -7 -1z" fill="white"/>
<path d="M225 575 c-1 -2 -2 -3 -5 -3 l-3 -1 2 -2 c2 -2 3 -3 3 -6 l0 -4 3 2
c3 2 4 2 6 0 l3 -1 0 4 c-1 3 -1 4 1 6 l2 2 -2 0 c-3 0 -7 3 -7 5 0 2 -2 1 -3
-2z" fill="white"/>
<path d="M135 574 c-1 -3 -2 -4 -5 -4 l-3 -1 2 -3 c3 -2 3 -3 3 -6 0 -4 1 -5
4 -2 1 2 4 2 8 0 2 0 2 0 1 3 -1 4 -1 4 1 6 3 3 3 4 -1 4 -3 0 -4 1 -5 3 -2 4
-3 4 -5 0z" fill="white"/>
<path d="M429 567 c-4 -4 -3 -15 2 -21 3 -4 6 -4 9 0 4 6 2 16 -4 21 -3 3 -5
3 -7 0z" fill="white"/>
<path d="M281 550 c-3 -4 -2 -12 2 -12 2 0 5 6 5 9 0 6 -3 8 -7 3z" fill="white"/>
<path d="M403 546 c-7 -2 -12 -7 -13 -15 -1 -5 1 -12 4 -15 3 -3 4 -3 9 -3 9
1 17 10 17 20 0 10 -8 16 -17 13z" fill="white"/>
<path d="M178 540 c0 -1 -2 -5 -3 -9 -2 -8 -3 -8 -10 -9 -7 -1 -12 -3 -12 -4
0 -1 3 -3 7 -6 4 -2 8 -5 8 -5 0 0 0 -4 -1 -10 -1 -6 -1 -10 -1 -11 1 0 4 2 8
5 4 3 8 6 9 6 0 1 4 -1 9 -3 4 -2 9 -4 9 -4 2 0 1 3 -2 11 l-3 8 7 7 7 8 -3 0
c-2 1 -7 1 -11 1 l-7 0 -3 7 c-2 3 -5 7 -5 8 -2 2 -2 2 -3 0z" fill="white"/>
<path d="M438 528 c-4 -4 -5 -11 -3 -13 4 -3 11 7 8 13 -1 2 -3 3 -5 0z" fill="white"/>
<path d="M292 526 c-2 -2 -3 -4 -3 -7 0 -11 10 -24 19 -24 2 0 4 1 6 2 8 8 -4
32 -16 32 -2 0 -4 -1 -6 -3z" fill="white"/>
<path d="M491 507 c-1 -3 -3 -4 -5 -4 -4 -1 -4 -2 0 -4 2 -2 2 -3 2 -6 0 -2 0
-4 0 -4 0 0 1 1 3 2 2 2 3 2 6 1 2 0 3 -1 4 -1 0 0 -1 2 -1 4 -1 3 -1 3 1 5
l2 3 -3 0 c-3 1 -4 2 -6 4 l-2 3 -1 -3z" fill="white"/>
<path d="M413 494 c-4 -2 -6 -6 -6 -9 1 -3 4 -4 8 -1 4 4 6 8 4 11 -2 1 -3 1
-6 -1z" fill="white"/>
<path d="M123 491 c-1 -2 -2 -3 -5 -4 l-3 0 2 -2 c2 -2 3 -3 3 -6 l0 -4 3 2
c2 2 3 2 6 1 3 -1 3 -1 2 2 -1 2 0 3 1 5 l2 3 -2 0 c-2 0 -4 1 -5 3 l-3 3 -1
-3z" fill="white"/>
<path d="M240 472 c-2 -4 -5 -6 -10 -6 -4 0 -4 -1 1 -4 l3 -3 -1 -6 c0 -7 0
-7 6 -2 l3 2 6 -2 c3 -2 5 -3 5 -2 0 0 -1 3 -2 5 l-1 5 3 4 c2 2 4 3 4 4 0 0
-2 0 -5 0 l-5 0 -2 5 c-2 3 -3 5 -3 5 0 0 -2 -2 -2 -5z" fill="white"/>
<path d="M526 375 c0 -55 0 -102 -1 -104 0 -3 0 -3 1 -1 0 1 2 14 4 30 3 28 6
51 10 73 1 7 2 12 2 13 0 0 -2 0 -4 1 -5 3 -8 13 -8 32 0 15 2 23 6 24 2 1 3
2 3 2 0 1 -2 5 -4 10 -2 5 -5 11 -6 15 l-3 6 0 -101z" fill="white"/>
<path d="M337 473 c0 -2 8 -6 11 -6 5 0 -1 6 -7 7 -3 0 -4 0 -4 -1z" fill="white"/>
<path d="M292 399 c0 -67 0 -75 2 -76 0 0 2 0 2 1 1 0 3 1 6 1 l4 0 0 69 0 69
-5 3 c-2 2 -5 4 -7 5 l-2 2 0 -74z" fill="white"/>
<path d="M83 463 c-1 -3 -4 -10 -6 -14 l-3 -7 3 -2 c3 -3 5 -7 6 -16 0 -8 -1
-24 -3 -32 -1 -5 -6 -10 -9 -10 -2 0 -2 0 -1 -10 3 -11 9 -50 12 -77 l4 -24 0
99 c0 55 0 100 0 100 0 0 -2 -3 -3 -7z" fill="white"/>
<path d="M474 446 l-3 -7 -9 -1 c-4 -1 -8 -2 -8 -2 0 -1 2 -3 5 -5 7 -5 7 -6
4 -14 -2 -9 -2 -9 5 -5 3 2 6 4 7 4 2 1 3 1 5 0 2 -1 5 -3 8 -5 l4 -2 0 2 c0
1 -1 5 -2 9 -1 6 -1 6 0 7 4 2 10 8 10 9 -1 0 -4 1 -8 1 -4 1 -7 2 -8 2 0 1
-2 4 -3 7 -1 3 -3 6 -3 6 0 1 -2 -2 -4 -6z" fill="white"/>
<path d="M537 437 c-2 -3 -2 -23 -1 -32 2 -13 6 -16 18 -10 13 6 18 11 15 14
0 1 -4 0 -9 -2 -9 -3 -9 -3 -9 -2 0 1 14 8 16 8 2 0 2 1 2 2 0 2 -2 3 -7 5 -8
2 -12 5 -9 5 1 0 5 -1 9 -2 4 -1 7 -2 8 -2 2 2 -5 7 -19 15 -7 4 -12 4 -14 1z" fill="white"/>
<path d="M65 435 c-5 -2 -21 -11 -24 -13 -4 -4 -2 -5 7 -2 6 1 10 1 10 0 -1 0
-4 -2 -7 -2 -9 -3 -11 -4 -11 -6 0 -1 2 -2 7 -4 7 -2 14 -6 12 -7 0 0 -5 1 -9
2 -11 4 -11 4 -11 1 0 -3 14 -13 22 -15 7 -2 10 -2 12 2 5 8 5 44 0 44 0 0 -1
0 -2 0 -1 1 -3 0 -6 0z" fill="white"/>
<path d="M149 429 l-3 -6 -6 0 c-3 -1 -6 -1 -7 -1 0 -1 2 -3 4 -5 l5 -4 -2 -6
c-1 -4 -1 -7 -1 -7 1 0 3 1 6 3 3 2 5 3 6 3 1 0 3 -2 6 -3 3 -2 6 -4 6 -4 0 1
-1 4 -1 7 -1 3 -2 6 -2 6 0 1 2 3 5 5 5 3 5 3 3 4 -1 1 -3 1 -5 1 -5 0 -6 1
-9 8 -1 3 -2 5 -2 5 0 0 -2 -3 -3 -6z" fill="white"/>
<path d="M0 427 c0 -4 0 -4 6 -5 3 -1 6 -2 7 -2 2 1 2 1 0 3 -2 1 -5 4 -8 5
l-5 3 0 -4z" fill="white"/>
<path d="M596 427 c-5 -4 -5 -5 0 -4 4 0 4 1 4 4 0 1 0 3 0 3 0 0 -2 -2 -4 -3z" fill="white"/>
<path d="M575 425 c-2 -1 -2 -19 0 -22 2 -1 10 -1 12 0 1 1 1 5 1 12 l0 11 -6
0 c-3 0 -6 0 -7 -1z" fill="white"/>
<path d="M413 420 c-2 -3 -3 -4 -7 -4 -5 0 -5 -1 -1 -4 2 -2 3 -3 3 -5 -1 -1
-1 -3 -2 -5 l0 -2 4 2 4 3 5 -3 c3 -2 4 -2 4 -1 -1 1 -1 3 -2 5 0 3 0 4 3 6
l3 3 -3 1 c-1 0 -3 0 -4 1 -1 0 -2 2 -3 4 -1 1 -2 3 -2 3 0 0 -1 -2 -2 -4z" fill="white"/>
<path d="M20 422 c-2 -1 -1 -21 0 -22 1 0 4 -1 7 -1 7 0 8 1 8 13 0 8 0 10 -2
10 -2 1 -12 1 -13 0z" fill="white"/>
<path d="M596 419 c-4 -2 -4 -5 0 -6 2 -1 3 -1 4 -1 0 0 0 2 0 4 0 4 0 4 -4 3z" fill="white"/>
<path d="M0 413 c0 -3 0 -6 1 -6 0 0 3 2 7 3 8 3 8 5 0 7 -4 1 -7 2 -7 2 -1 0
-1 -3 -1 -6z" fill="white"/>
<path d="M592 408 c0 -2 1 -3 3 -5 5 -3 5 -3 5 1 0 3 0 4 -3 5 -5 1 -5 1 -5
-1z" fill="white"/>
<path d="M7 406 l-6 -3 -1 -4 0 -5 5 2 c6 4 9 7 9 9 1 3 -1 3 -7 1z" fill="white"/>
<path d="M589 396 c0 0 1 -5 1 -11 1 -5 2 -15 3 -22 2 -20 2 -21 4 -21 2 0 3
1 3 23 0 21 -1 22 -3 27 -1 3 -2 5 -3 5 0 -1 0 -3 1 -7 2 -10 1 -10 -2 -1 -3
9 -4 11 -4 7z" fill="white"/>
<path d="M566 392 c-5 -11 -11 -31 -11 -39 0 -4 17 -20 19 -17 1 1 4 53 3 57
-1 3 -2 4 -2 4 -1 0 -3 -6 -5 -13 -5 -13 -5 -13 -6 -12 0 1 1 10 4 18 1 4 2 6
2 7 -1 0 -2 -2 -4 -5z" fill="white"/>
<path d="M581 371 c-1 -30 -2 -39 -4 -40 -1 0 -3 0 -5 1 -3 0 -4 1 -5 1 0 -1
-3 -29 -5 -52 -1 -28 -3 -40 -4 -41 0 -1 1 30 2 57 0 9 1 22 2 29 l0 12 -6 6
c-4 4 -6 7 -6 8 0 4 4 18 8 29 2 5 3 10 3 11 -1 0 -13 -6 -13 -6 0 -1 -1 -5
-2 -11 -3 -12 -7 -43 -10 -68 -2 -22 -6 -46 -10 -73 -4 -29 -6 -39 -9 -74 -3
-19 -5 -32 -5 -34 -2 -3 -2 -3 0 -3 1 0 3 0 5 1 4 1 4 1 5 7 0 3 0 17 0 31
l-1 25 3 3 c3 3 4 3 8 3 3 -1 7 -1 8 -1 2 -1 2 -1 2 1 0 2 -1 3 -4 5 -12 6
-13 18 -2 36 3 5 6 10 6 10 1 2 1 2 8 -9 7 -11 9 -15 9 -21 0 -7 -2 -11 -8
-15 -3 -2 -4 -3 -4 -6 -1 -4 -1 -5 2 -3 2 3 9 4 12 4 1 -1 4 -2 5 -3 2 -2 2
-3 2 -33 0 -17 0 -31 1 -32 0 0 3 -1 6 -1 12 -2 20 -7 21 -14 2 -5 -1 -11 -5
-14 -2 -2 -4 -4 -4 -4 0 -1 -1 -4 -3 -6 l-3 -5 6 -2 c3 -1 7 -2 9 -2 l4 0 0
125 c0 112 0 132 -2 134 -1 0 -2 0 -3 0 -2 -1 -2 0 -4 -36 -2 -25 -4 -71 -5
-136 0 -26 -1 -40 -1 -40 -1 0 -1 20 -1 56 0 53 0 72 3 120 1 11 1 34 1 50 0
24 0 30 -2 37 -1 6 -2 9 -3 9 -2 0 -2 -3 -2 -26z" fill="white"/>
<path d="M14 391 c-1 -3 -2 -7 -3 -10 -1 -2 -1 -4 -2 -4 -1 0 0 6 2 12 2 7 -1
4 -4 -4 -6 -15 -7 -23 -7 -34 l1 -9 4 -3 c2 -1 4 -2 5 -2 0 0 1 3 1 8 1 12 4
31 6 40 2 11 0 14 -3 6z" fill="white"/>
<path d="M22 390 c-2 -5 -2 -57 0 -80 1 -20 6 -67 7 -77 1 -10 1 -17 0 -17 -2
0 -4 17 -8 56 -3 30 -4 45 -4 58 0 6 -1 14 -1 18 -1 5 -1 5 -1 -4 0 -10 0 -12
-3 -12 -2 0 -3 -1 -4 -15 -1 -9 -1 -32 -1 -91 0 -71 0 -92 3 -132 0 -12 -1 -9
-3 5 -3 32 -5 173 -2 214 l1 19 -2 2 c-1 1 -3 2 -3 2 -1 0 -1 -54 -1 -127 l0
-127 5 1 c4 0 6 0 10 -2 7 -4 15 -5 15 -3 0 1 -1 7 -2 15 -2 10 -3 13 -5 16
-3 3 -3 4 -3 9 0 15 2 18 12 22 l5 1 -5 2 c-3 0 -8 2 -13 4 -6 3 -8 4 -8 5 0
5 8 14 15 17 5 3 17 4 23 1 5 -2 9 -7 10 -12 1 -4 3 -5 3 -2 0 6 -5 17 -10 23
-2 2 -2 2 -6 0 -10 -3 -22 1 -27 10 -1 4 -5 15 -5 17 0 3 4 4 14 4 5 0 9 0 12
-1 6 -3 12 -9 14 -16 2 -5 4 -9 6 -9 0 0 0 3 0 7 0 7 0 8 -3 11 -3 3 -3 4 -4
10 0 6 0 7 4 13 2 4 5 9 7 12 l3 6 4 -4 c7 -8 10 -18 8 -26 0 -3 -1 -4 -1 -5
0 0 3 1 5 2 6 1 6 1 4 15 -1 6 -3 19 -4 30 -8 54 -17 113 -20 125 0 1 -2 3 -7
5 -3 2 -7 3 -7 3 0 -1 1 -2 1 -4 4 -7 12 -32 12 -36 0 -1 -3 -5 -6 -8 l-6 -7
1 -14 c4 -32 6 -79 4 -76 -1 0 -2 10 -3 23 -3 37 -6 63 -8 63 0 0 -2 -1 -5 -2
-6 -2 -8 -2 -8 2 -1 3 -3 48 -3 59 0 6 0 6 -2 6 -2 0 -3 -1 -4 -4z" fill="white"/>
<path d="M32 380 c0 -13 3 -48 4 -49 2 -2 21 14 21 18 0 6 -9 33 -14 41 -3 4
-6 6 -4 1 3 -4 7 -19 7 -22 0 -4 -1 -1 -4 8 -5 12 -7 17 -9 17 -1 0 -1 -3 -1
-14z" fill="white"/>
<path d="M2 389 c-2 -1 -2 -2 -2 -6 l0 -5 2 5 c2 6 2 7 0 6z" fill="white"/>
<path d="M91 373 l0 -7 99 0 99 0 0 7 0 7 -99 0 -99 0 0 -7z" fill="white"/>
<path d="M310 379 c0 -1 0 -4 0 -7 l1 -5 104 -1 105 0 0 7 0 7 -105 0 c-87 0
-104 0 -105 -1z" fill="white"/>
<path d="M92 361 c-1 0 -1 -87 -1 -87 0 0 3 1 6 2 6 1 15 1 21 0 8 -2 20 -9
30 -17 l9 -7 7 1 c12 1 26 -3 40 -12 7 -4 11 -5 12 -2 0 1 0 2 -1 2 -3 0 -3 4
-2 9 1 3 1 4 -2 5 -3 1 -4 4 -1 4 2 0 10 7 10 10 0 0 -1 1 -2 1 -2 0 -5 3 -4
4 0 1 1 1 3 1 1 0 3 1 4 2 l3 2 -2 5 c-5 10 -3 46 2 53 2 3 7 4 13 1 6 -3 20
-12 24 -16 4 -4 6 -5 6 -3 0 2 2 3 9 3 2 1 6 1 8 2 l4 0 0 19 0 19 -98 0 c-54
0 -98 0 -98 -1z m50 -22 l3 -6 7 0 c9 0 10 -2 4 -8 l-5 -5 2 -6 c4 -10 2 -11
-8 -6 l-5 3 -6 -4 c-3 -2 -6 -4 -7 -4 -2 0 -2 1 -2 7 1 3 1 7 1 7 0 1 -2 3 -5
5 -3 2 -5 5 -5 6 0 1 4 3 10 4 4 0 4 0 9 12 1 3 3 2 7 -5z m47 -29 c1 -3 3 -4
8 -4 3 -1 3 -2 0 -6 -2 -3 -2 -3 -1 -6 2 -6 1 -7 -5 -4 -3 1 -3 1 -7 -1 -5 -4
-6 -4 -6 2 1 5 1 5 -3 8 -4 3 -4 5 1 6 4 1 5 2 6 4 3 7 4 7 7 1z" fill="white"/>
<path d="M312 361 c-1 0 -1 -9 -1 -19 l0 -19 3 -2 c1 -1 4 -2 7 -2 3 -1 4 -1
6 2 6 6 25 17 33 19 4 1 7 -2 10 -12 2 -6 2 -12 3 -20 0 -12 -1 -19 -4 -26
l-2 -4 2 -1 c2 -1 4 -2 6 -2 4 -1 4 -3 0 -4 -2 -1 -3 -2 -3 -2 0 -1 8 -8 10
-9 3 -1 3 -1 1 -3 -1 -1 -2 -2 -3 -2 -1 0 -2 -1 -2 -1 0 -1 4 -2 9 -3 8 -1 8
-1 15 2 14 6 27 7 36 5 l5 -1 6 5 c20 16 40 19 64 9 4 -2 7 -3 8 -3 0 0 0 21
0 47 l0 47 -105 0 c-57 0 -104 0 -104 -1z m125 -25 c2 -6 2 -6 11 -7 7 -1 7
-3 1 -8 l-5 -5 1 -7 c1 -5 1 -7 0 -8 0 -1 -3 0 -7 3 l-7 4 -7 -4 c-9 -5 -10
-4 -7 6 l2 7 -5 5 c-3 3 -5 6 -5 6 1 2 6 3 12 3 3 0 4 0 6 4 5 11 6 11 10 1z
m48 -3 c1 -1 2 -2 3 -3 5 -1 5 -3 3 -4 -2 -2 -3 -3 -3 -6 0 -3 -1 -4 -4 -2 -1
2 -2 2 -4 0 -4 -2 -4 -1 -4 3 0 3 -1 4 -2 5 -3 2 -2 4 1 5 2 0 4 1 5 4 2 3 4
3 5 -2z" fill="white"/>
<path d="M136 337 c-2 -5 -4 -7 -7 -8 -1 0 -4 -1 -5 -1 l-3 -1 4 -4 5 -3 -1
-6 c0 -7 0 -7 7 -2 l3 3 6 -3 c3 -2 6 -3 6 -3 0 1 -1 3 -2 7 l-2 5 3 4 c2 2 4
4 4 4 0 1 -2 1 -5 1 -6 0 -6 0 -8 4 -4 7 -4 7 -5 3z" fill="white"/>
<path d="M429 333 l-2 -5 -6 -1 c-3 0 -6 0 -6 -1 0 0 2 -2 4 -4 l3 -4 -1 -6
c-1 -3 -2 -6 -1 -6 0 0 3 1 6 3 l5 3 6 -4 5 -3 0 3 c-2 11 -2 10 2 13 2 2 4 3
4 4 -1 0 -3 0 -6 1 -5 1 -5 1 -8 9 l-2 3 -3 -5z" fill="white"/>
<path d="M228 334 c-2 -2 -4 -20 -4 -28 0 -12 1 -17 5 -22 l2 -4 -2 -3 c-3 -3
-4 -4 -1 -3 1 1 3 1 4 1 l3 0 -3 -2 c-4 -3 -9 -8 -9 -9 1 0 2 0 3 1 4 3 3 0
-2 -7 -7 -7 -8 -10 -2 -6 5 3 5 3 2 -3 -2 -4 -3 -7 -3 -10 0 -4 0 -4 1 -3 5 7
9 9 5 3 -2 -4 -1 -12 2 -15 l2 -2 0 5 c0 4 0 4 1 1 1 -3 9 -13 10 -12 0 1 0 2
-1 4 -1 1 -1 2 -1 3 1 0 3 -2 6 -4 5 -6 11 -9 10 -7 -1 1 -1 3 -2 4 0 1 2 0 4
-3 3 -2 5 -4 7 -5 3 -2 0 -2 -6 -1 -14 3 -14 3 -18 0 -3 -3 -7 -10 -7 -12 0 0
1 1 2 2 5 4 4 2 -1 -6 -6 -8 -7 -13 -2 -8 4 5 6 5 3 0 -1 -2 -2 -5 -3 -6 0 -2
0 -2 2 -1 l3 2 -3 -6 c-2 -3 -6 -9 -9 -13 -7 -7 -8 -9 -4 -7 4 2 2 -1 -4 -6
-3 -3 -7 -7 -8 -10 -3 -4 -3 -5 1 -2 6 3 5 1 -2 -7 -8 -7 -9 -9 -11 -15 0 -2
0 -2 4 1 4 4 6 5 6 3 0 0 -1 -2 -3 -4 -5 -6 -7 -14 -7 -22 0 -9 1 -10 4 -4 l2
5 -1 -9 c0 -10 1 -16 5 -20 l2 -2 0 5 c0 10 2 12 3 4 2 -13 7 -22 14 -26 2 -1
5 -2 5 -2 0 1 -1 4 -3 7 -2 3 -3 7 -3 7 0 1 3 -1 5 -5 5 -6 11 -11 16 -12 3
-1 3 -1 -2 6 -3 4 -6 12 -5 12 0 0 2 -3 4 -6 4 -6 12 -14 15 -14 1 0 1 1 -1 3
-3 4 -2 5 3 1 5 -4 10 -7 12 -7 0 0 1 3 1 7 0 5 0 7 2 10 l1 4 1 -9 c1 -11 2
-14 8 -19 4 -4 11 -7 8 -3 -3 3 -6 10 -6 12 0 2 1 1 5 -4 7 -9 15 -15 21 -15
l3 0 -2 2 c-3 3 -6 8 -6 9 1 0 4 -2 7 -4 8 -6 23 -12 19 -7 -2 2 -1 2 4 0 5
-3 12 -3 17 -3 l3 1 -4 3 c-5 3 -8 6 -6 6 0 0 4 -1 8 -3 9 -3 18 -5 25 -4 5 1
6 3 2 3 -2 0 -12 5 -12 6 1 0 5 -1 9 -2 6 -1 11 -1 16 -1 8 1 11 2 5 3 -5 1
-13 4 -13 5 0 1 1 1 3 0 1 0 7 0 13 0 9 0 11 0 16 2 3 2 6 4 7 5 2 2 2 2 -3 2
l-4 0 6 3 c9 5 16 13 16 18 0 2 0 2 -4 -1 -4 -3 -6 -3 -4 0 8 11 8 23 -1 29
l-3 2 0 -5 c0 -3 -1 -6 -1 -8 -2 -1 -2 -1 -2 3 0 5 -1 9 -4 11 -3 1 -3 1 -7
-1 -2 -1 -6 -4 -9 -8 -6 -6 -7 -7 -7 -4 0 2 -4 -2 -11 -11 -6 -7 -8 -8 -6 -2
2 5 -1 4 -14 -7 -4 -3 -5 -4 -4 -1 1 1 1 2 1 3 0 0 -5 -2 -10 -5 -10 -4 -19
-7 -15 -4 1 1 2 3 3 3 2 1 -1 2 -15 2 -16 0 -18 0 -22 2 -5 2 -9 6 -9 8 0 0 3
-1 7 -3 3 -1 7 -3 9 -3 l2 0 -3 4 c-3 3 -4 6 -2 6 0 0 2 -2 4 -4 3 -1 7 -4 9
-5 5 -1 6 -1 10 1 4 2 6 3 4 1 -2 -2 -1 -3 6 -2 l7 0 3 5 3 5 0 -5 c-1 -2 -1
-4 -1 -4 2 0 8 3 9 4 1 2 4 12 5 20 l0 7 2 -4 c0 -3 1 -7 1 -9 0 -4 0 -4 1 -2
5 6 4 18 -1 30 -1 3 -2 6 -1 6 0 0 2 -1 4 -4 l3 -3 -1 4 c-1 5 -3 9 -10 16 -7
7 -7 9 -2 7 4 -3 5 -2 3 2 -2 5 -7 13 -12 17 -2 2 -4 4 -4 4 0 1 1 1 3 1 2 0
2 0 -2 4 -2 2 -4 5 -4 6 0 2 0 2 2 1 1 -1 2 -2 2 -2 2 0 1 7 -1 14 -2 3 -3 7
-3 7 1 0 2 -2 4 -4 3 -2 4 -3 4 -2 0 2 -3 8 -7 12 -5 6 -5 7 0 5 4 -3 4 -2 0
4 -4 7 -5 8 -12 6 -8 -2 -15 -3 -15 -2 0 1 12 10 14 10 1 0 0 -1 -2 -3 l-2 -3
3 0 c1 1 4 2 7 4 2 1 4 3 5 3 1 0 3 1 4 3 l3 4 0 -3 c0 -2 0 -4 -1 -5 -1 0 -1
-1 0 -1 2 0 6 6 7 10 0 1 0 4 -1 6 -1 2 -1 3 -1 4 1 1 6 -6 6 -9 0 -2 0 -2 2
2 2 4 2 9 -2 15 -1 2 -2 4 -2 4 0 1 6 -3 8 -5 1 -1 1 -1 1 1 0 3 -3 9 -6 12
-4 3 -4 4 0 3 4 -1 4 -1 4 0 0 2 -7 7 -11 10 -6 2 -6 4 0 3 l5 0 -3 2 c-3 3
-3 3 -2 5 7 10 9 27 4 45 -3 12 -3 12 -14 6 -11 -6 -20 -13 -24 -18 l-3 -4 3
-3 c4 -4 4 -5 -2 -2 -2 1 -4 2 -5 2 -2 0 -2 2 -1 5 2 3 2 3 0 4 0 0 -2 0 -2
-1 -1 -1 -1 -1 -4 1 -3 3 -8 6 -10 6 -1 0 -1 -1 0 -2 1 -2 1 -2 -6 -1 -9 3
-13 2 -12 0 0 -1 0 -1 -6 -1 -4 1 -5 1 -4 0 2 -2 1 -3 -3 -3 -4 0 -7 -2 -5 -3
1 -1 1 -1 0 -1 -1 -1 -4 -2 -7 -3 -3 -1 -5 -1 -6 -1 -1 1 4 5 6 6 4 2 -5 10
-20 19 -8 5 -11 6 -12 4z m44 -123 c2 -2 5 -3 5 -3 1 0 1 0 1 -1 0 -3 -9 1
-11 5 -1 3 0 2 5 -1z m14 -2 c5 -3 6 -5 1 -4 -3 1 -8 5 -8 6 0 1 1 1 7 -2z
m36 -1 c-2 -2 -7 -3 -5 -1 4 4 6 5 7 4 0 -1 -1 -2 -2 -3z m-8 2 c1 -1 -5 -4
-6 -4 -1 0 0 2 2 3 4 2 4 2 4 1z m-46 -24 c-6 -4 -9 -6 -8 -4 0 1 -1 1 -3 -1
-2 -2 -4 -3 -5 -3 0 1 6 6 8 6 0 -1 2 0 4 1 2 1 4 2 4 1 0 0 0 0 0 0z m46 -1
c3 -2 6 -5 5 -5 -1 0 -9 5 -9 6 0 0 1 0 4 -1z m10 -4 c2 -2 3 -4 2 -4 0 0 -2
2 -5 3 -2 2 -3 4 -2 4 0 0 2 -2 5 -3z m10 -6 c2 -2 3 -4 3 -4 -1 -1 -10 8 -10
9 0 2 4 -1 7 -5z m-83 4 c0 -1 -8 -8 -9 -8 0 1 1 3 4 5 3 4 5 5 5 3z m104 -70
c2 -4 3 -14 1 -11 -1 1 -1 3 -1 4 0 1 -1 5 -2 8 -2 2 -3 5 -3 5 0 1 4 -4 5 -6z
m-127 -1 c-2 -2 -3 -6 -4 -9 0 -7 -2 -7 -2 -1 0 4 2 9 5 13 3 3 3 2 1 -3z m0
-18 c0 -3 0 -7 1 -9 1 -4 1 -5 -1 -1 -3 4 -2 17 0 17 0 0 0 -3 0 -7z m126 4
c1 -4 -1 -12 -2 -12 -1 0 -1 1 0 3 0 1 1 5 1 7 0 6 1 6 1 2z" fill="white"/>
<path d="M481 331 c0 -1 -1 -2 -2 -3 -2 0 -2 0 -1 -1 1 -1 1 -2 1 -3 0 -3 5
-2 7 1 1 2 1 2 -2 5 -2 2 -2 2 -3 1z" fill="white"/>
<path d="M184 306 c-1 -2 -2 -3 -4 -3 l-3 -1 2 -3 c3 -2 3 -3 2 -6 l0 -3 3 2
c3 2 3 2 6 1 3 -1 3 -1 2 2 0 2 0 4 1 6 2 2 2 2 0 2 -1 0 -3 1 -5 3 l-3 3 -1
-3z" fill="white"/>
<path d="M98 273 c-7 -3 -7 -2 -7 -22 0 -11 1 -22 1 -28 1 -5 2 -10 2 -11 0 0
2 -1 4 -2 4 0 5 -2 3 -9 0 -4 -1 -7 0 -7 0 0 2 1 5 1 9 3 25 2 27 -1 1 -1 -3
-12 -7 -22 0 -2 3 -2 51 -2 47 0 51 0 51 2 0 1 -1 2 -2 2 -2 2 -2 10 0 15 1 2
2 4 2 5 -1 0 -3 -1 -6 -2 l-5 -3 -4 3 c-10 9 -24 10 -46 4 -12 -3 -15 -3 -7 1
3 1 5 3 5 3 0 1 -15 11 -22 14 -12 6 -21 8 -34 8 -12 0 -15 1 -7 3 2 0 5 1 6
2 3 3 2 3 -2 2 -6 -2 -6 -1 -1 4 7 7 8 9 2 8 l-3 -1 3 4 c2 2 4 6 5 8 2 7 2 7
5 2 1 -3 4 -6 6 -9 l5 -4 -5 0 c-3 1 -4 1 -3 -1 1 -2 6 -6 9 -8 2 -1 2 -2 -2
-2 l-5 0 2 -2 c2 -2 15 -8 20 -9 2 0 3 0 3 2 1 1 1 1 -2 1 l-2 -1 2 3 c2 2 4
6 5 8 l1 3 3 -5 c2 -2 4 -5 4 -6 3 -2 2 -3 -1 -3 -2 1 -2 1 -1 -1 1 -1 3 -3 5
-5 l4 -3 -3 -1 -2 -1 5 -4 c3 -2 6 -4 7 -3 1 0 1 0 -1 1 -2 0 -2 1 2 4 4 4 4
5 1 4 l-2 0 2 3 c1 1 2 4 3 6 l2 4 1 -4 c1 -2 3 -5 5 -6 2 -3 2 -3 0 -3 -3 0
-3 -1 1 -4 l3 -2 -2 -1 c-2 0 1 -1 7 -2 10 -1 16 -3 21 -8 l3 -2 5 3 c5 2 7 3
8 6 1 2 3 5 5 6 4 4 4 5 1 5 -4 0 -11 5 -14 10 -1 2 -3 4 -3 4 -1 0 -2 2 -3 4
-1 4 -2 4 -11 -1 -4 -1 -6 -2 -7 -2 -1 1 5 6 7 6 2 0 0 2 -7 6 -13 8 -28 11
-39 9 l-5 -1 -7 7 c-15 13 -26 18 -38 19 -6 0 -10 0 -12 -1z" fill="white"/>
<path d="M476 273 c-11 -3 -29 -15 -30 -20 0 -4 0 -4 -4 -1 -7 5 -19 5 -32 1
-9 -4 -10 -4 -7 -7 2 -2 3 -4 2 -4 -1 0 -3 1 -6 3 -5 2 -19 5 -20 4 0 -1 0 -3
1 -6 0 -6 0 -6 5 -8 2 -2 6 -4 7 -5 l3 -2 -5 1 c-2 1 -5 2 -6 3 -1 0 -3 1 -5
1 -4 1 -4 1 -4 -2 0 -2 -1 -4 -1 -5 -2 -3 -6 -8 -8 -8 0 0 -2 -1 -4 -3 -2 -2
-4 -4 -5 -5 -2 0 -2 -1 1 -6 l3 -6 4 1 c2 0 7 0 10 1 10 1 22 -1 31 -5 3 -2 3
-2 7 2 5 4 5 6 1 4 -5 -2 -5 -1 -1 4 2 3 5 7 6 9 1 3 2 5 2 5 0 0 2 -2 3 -5 1
-3 4 -8 6 -10 4 -5 3 -6 -2 -4 -1 1 -3 2 -3 1 0 -1 3 -6 6 -9 6 -5 7 -5 11 -2
5 3 6 5 2 5 l-3 0 3 3 c2 2 4 4 5 5 1 2 1 2 -2 1 l-2 0 3 4 c1 3 3 6 4 8 l1 3
2 -4 c1 -3 4 -6 5 -8 l3 -4 -3 0 c-3 1 -3 0 0 -3 1 -2 2 -2 7 0 3 1 7 3 8 4 1
2 1 2 -3 2 -2 -1 -4 -1 -5 -2 -1 0 -2 0 -2 1 0 1 0 2 1 2 3 0 15 14 14 16 0 0
-3 -1 -6 -2 -3 -1 -5 -1 -6 -1 0 1 2 3 4 5 3 2 6 6 8 9 1 3 2 5 2 5 -1 0 -2
-1 -4 -2 -5 -2 -5 -1 -1 5 2 3 5 8 6 11 1 3 2 6 2 6 0 0 2 -3 4 -6 1 -4 4 -9
6 -11 4 -5 4 -6 -1 -4 -2 0 -3 1 -3 0 0 -2 4 -6 9 -11 6 -6 5 -7 -2 -5 -3 1
-5 2 -5 1 0 0 1 -2 3 -4 5 -8 18 -15 20 -11 2 3 5 31 5 43 l0 13 -6 2 c-13 7
-27 9 -39 7z" fill="white"/>
<path d="M64 229 c-7 -10 -8 -14 -7 -20 1 -4 3 -7 5 -6 0 0 1 4 2 9 2 4 3 8 3
9 2 1 2 -1 0 -9 -1 -7 -1 -9 -1 -9 2 0 8 6 9 9 2 6 0 17 -4 22 l-3 3 -4 -8z" fill="white"/>
<path d="M540 231 c-2 -3 -5 -7 -6 -9 -2 -7 -1 -17 4 -20 4 -2 4 -1 3 4 0 3 0
7 1 8 l1 2 1 -3 c1 -2 2 -5 3 -7 0 -5 0 -5 3 -3 3 2 5 7 5 11 0 4 -5 16 -9 20
l-3 3 -3 -6z" fill="white"/>
<path d="M21 206 c-3 0 -2 -3 0 -10 4 -10 12 -15 21 -13 2 1 4 1 4 2 1 1 -2 4
-9 9 -4 2 -6 4 -6 5 1 0 5 -2 10 -4 5 -3 9 -5 10 -5 1 0 0 4 -3 8 -4 6 -11 9
-19 9 -4 0 -7 0 -8 -1z" fill="white"/>
<path d="M80 204 c-4 -2 -8 -8 -8 -12 0 -3 1 -3 5 1 5 3 11 6 11 5 0 0 -2 -2
-4 -3 -2 -2 -5 -4 -6 -6 l-3 -3 2 -1 c4 -1 7 -1 12 1 4 2 6 6 8 14 2 6 1 7 -7
7 -4 0 -7 -1 -10 -3z" fill="white"/>
<path d="M499 201 c-24 -2 -43 -10 -63 -24 l-8 -5 42 -1 c23 0 42 0 42 1 1 1
4 27 4 29 -1 1 -2 1 -17 0z" fill="white"/>
<path d="M64 186 c0 -6 0 -11 -1 -11 0 0 -3 2 -5 4 -2 3 -5 5 -5 5 0 -1 1 -3
3 -6 5 -6 8 -11 9 -18 2 -7 3 -17 1 -17 0 0 -2 1 -3 3 -1 2 -2 3 -3 3 0 -1 0
-2 1 -3 2 -2 6 -11 6 -14 0 -2 1 -2 4 -2 3 0 3 0 3 3 0 1 1 6 3 10 4 9 3 11
-1 2 -2 -6 -4 -8 -4 -5 0 3 -5 35 -6 36 0 1 -1 6 -1 12 l-1 10 0 -12z" fill="white"/>
<path d="M367 196 c-7 -2 -7 -2 -4 -8 2 -5 3 -11 1 -13 -1 0 -2 -1 -2 -2 -1
-2 1 -2 29 -2 29 0 30 0 32 2 1 2 1 2 -5 8 -14 13 -33 19 -51 15z" fill="white"/>
<path d="M110 192 c-5 -1 -9 -3 -14 -8 -3 -2 -6 -4 -8 -5 -1 -1 -3 -4 -4 -6
-1 -3 -2 -12 0 -12 0 0 3 3 6 6 8 6 20 15 23 15 1 0 -2 -2 -6 -5 -7 -4 -18
-15 -18 -17 0 -1 2 -1 7 -1 16 1 25 9 31 27 l2 5 -3 1 c-3 1 -10 1 -16 0z" fill="white"/>
<path d="M528 187 c-1 -1 -2 -2 -2 -5 0 -7 1 -9 4 -9 3 -1 3 -2 0 -3 l-2 -1
-1 -26 c-1 -15 -1 -29 -1 -31 0 -5 0 -5 3 -6 4 -1 25 -1 30 0 l5 1 -1 40 c0
35 0 40 -2 41 -2 2 -5 1 -7 -2 -4 -3 -8 -4 -13 -3 -3 1 -4 2 -4 3 0 3 -5 4 -9
1z m6 -8 c0 -1 0 -2 -1 -2 -1 0 -2 0 -2 2 0 1 3 1 3 0z m13 -6 c-1 -1 -1 -2
-2 -2 -1 0 -2 3 -1 4 2 1 3 0 3 -2z m5 -9 c0 -4 1 -6 2 -6 2 0 2 1 2 5 0 6 1
6 2 -1 1 -3 1 -4 -1 -6 -2 -2 -3 -2 -5 0 -2 1 -2 5 -1 11 1 6 1 4 1 -3z" fill="white"/>
<path d="M428 187 c0 0 1 -2 2 -3 2 -2 3 -2 5 -1 3 2 3 3 -1 3 -1 0 -3 0 -4 1
-1 1 -2 1 -2 0z" fill="white"/>
<path d="M72 181 c-2 -1 -1 -8 1 -18 1 -5 2 -9 2 -10 2 -1 3 5 3 11 0 4 1 7 2
11 l2 5 -4 0 c-2 1 -4 1 -4 2 -1 0 -2 0 -2 -1z" fill="white"/>
<path d="M33 168 c-6 -2 -11 -6 -15 -10 -1 -2 -3 -5 -2 -5 0 0 4 -2 8 -4 10
-4 17 -5 23 -1 4 3 5 3 4 5 -2 1 -10 4 -14 4 -5 0 -7 2 -4 3 4 0 11 -1 17 -3
4 -2 5 -2 6 -1 1 3 -3 8 -7 10 -4 2 -12 3 -16 2z" fill="white"/>
<path d="M368 166 c-8 0 -9 -2 -4 -5 3 -2 5 -2 76 -2 l72 0 0 4 0 4 -68 0
c-38 0 -72 -1 -76 -1z" fill="white"/>
<path d="M148 165 l-27 0 -3 -3 -3 -3 51 0 52 0 2 3 c2 1 3 3 3 3 0 1 -30 1
-75 0z" fill="white"/>
<path d="M103 152 c0 -4 0 -4 6 -5 8 -3 15 -8 17 -12 l1 -3 37 -1 38 0 1 5 c1
2 3 6 5 9 2 2 4 5 5 7 l2 3 -56 0 -56 0 0 -3z" fill="white"/>
<path d="M367 154 c-1 0 0 -2 2 -5 4 -4 8 -13 8 -15 0 -2 4 -2 66 -2 l66 0 1
11 c1 5 1 10 1 11 -1 1 -143 1 -144 0z" fill="white"/>
<path d="M86 152 c-1 -1 -1 -2 2 -2 5 -1 10 -1 10 0 0 3 -1 4 -6 4 -4 0 -5 0
-6 -2z" fill="white"/>
<path d="M81 142 c-1 -2 -1 -4 -1 -4 0 0 5 -1 11 -1 11 -1 22 -3 24 -4 1 -1
-6 -4 -15 -6 -15 -3 -65 -2 -67 2 -1 1 12 5 24 7 4 1 5 2 2 5 -1 2 -1 2 -7 1
-9 -2 -22 -7 -24 -10 -3 -2 -4 -10 -3 -16 1 -5 5 -7 16 -10 10 -2 50 -2 62 0
8 2 12 4 16 7 2 2 2 3 2 12 0 8 0 9 -2 11 -4 5 -19 9 -32 9 -4 0 -5 0 -6 -3z" fill="white"/>
<path d="M127 126 c-1 0 -1 -3 -1 -6 0 -4 -1 -7 -3 -9 -1 -3 -2 -6 -3 -10 l0
-6 36 0 36 0 1 2 c0 1 0 6 0 10 0 7 0 8 3 13 1 3 3 6 3 6 0 1 -71 1 -72 0z" fill="white"/>
<path d="M379 126 c0 0 1 -1 2 -3 3 -5 4 -10 4 -19 l-1 -9 14 0 c10 0 16 0 19
2 2 0 5 1 6 0 5 -1 11 -1 42 -2 l33 0 -2 2 c-7 7 -4 18 5 23 5 2 6 3 6 5 l0 2
-64 0 c-35 0 -64 0 -64 -1z" fill="white"/>
<path d="M569 117 c0 -2 1 -3 7 -4 5 -2 7 -3 7 -5 0 -2 -2 -3 -10 -5 -20 -5
-58 -4 -65 2 -2 2 -2 2 -1 4 1 1 5 2 8 3 5 1 5 2 5 4 0 4 -1 4 -9 1 -8 -2 -12
-4 -13 -7 -3 -7 2 -12 14 -15 6 -1 12 -1 31 -1 20 0 23 0 31 2 11 2 15 5 17 9
2 7 -4 12 -17 14 -5 1 -5 1 -5 -2z" fill="white"/>
<path d="M108 104 c-19 -5 -53 -5 -71 -1 -5 2 -5 2 -5 0 0 -4 7 -41 8 -43 3
-6 41 -9 59 -4 8 2 10 4 11 10 2 9 5 39 5 39 0 1 -3 0 -7 -1z" fill="white"/>
<path d="M573 91 c-11 -2 -39 -2 -52 -1 -7 1 -12 2 -13 2 -1 -1 5 -8 9 -11 13
-8 42 -8 56 2 5 3 10 10 7 10 0 0 -3 -1 -7 -2z" fill="white"/>
<path d="M121 89 c-1 0 -2 -1 -2 -3 -1 -2 -1 -4 -1 -4 0 0 17 0 37 0 l37 -1 0
4 0 4 -25 0 c-26 1 -43 1 -46 0z" fill="white"/>
<path d="M385 88 c-1 0 -1 -2 -1 -4 l0 -3 5 0 c5 0 13 3 16 6 1 2 0 2 -9 2 -6
0 -11 0 -11 -1z" fill="white"/>
<path d="M443 89 c0 -1 1 -2 2 -4 l2 -4 31 0 30 0 -2 4 -2 4 -31 0 c-16 0 -30
0 -30 0z" fill="white"/>
<path d="M3 76 c-3 0 -3 0 -3 -6 l0 -5 5 5 c3 3 5 6 5 6 0 1 -2 1 -7 0z" fill="white"/>
<path d="M116 69 c0 -4 0 -8 0 -8 0 -1 4 -1 8 -1 5 0 8 0 8 -1 -1 -1 -5 -1 -9
-1 -7 0 -8 0 -10 -3 -7 -7 -37 -10 -59 -6 -8 1 -19 5 -19 7 0 1 -7 1 -17 1
l-18 0 0 -15 0 -16 114 0 c63 0 125 0 138 -1 16 0 24 0 24 1 1 1 1 1 0 1 -6 1
-11 1 -13 2 -1 1 -5 1 -8 1 -4 0 -7 1 -11 3 -3 1 -6 2 -8 2 -6 0 -13 3 -18 8
l-5 5 -9 0 c-5 0 -12 0 -14 1 -5 0 -3 1 8 1 13 1 13 1 11 3 -5 3 -8 7 -10 12
-1 3 -2 7 -3 8 l-1 3 -39 0 -39 0 -1 -7z m27 -10 c0 -1 -2 -1 -4 -1 -2 0 -4 0
-4 1 0 1 2 1 4 1 2 0 4 0 4 -1z m11 0 c-1 -1 -2 -1 -3 -1 -2 0 -3 0 -3 1 -1 1
0 1 3 1 2 0 3 0 3 -1z" fill="white"/>
<path d="M448 75 c0 -1 0 -5 1 -9 0 -8 0 -9 -2 -14 -2 -3 -4 -7 -6 -8 -2 -2
-3 -3 -3 -4 0 -2 -5 -8 -10 -11 l-4 -3 77 0 c43 0 82 0 88 1 l11 0 0 13 0 13
-6 0 c-5 0 -6 0 -8 -3 -10 -12 -59 -15 -80 -4 -7 3 -9 9 -6 15 2 3 9 7 16 9 5
2 6 3 3 4 -2 1 -70 2 -71 1z" fill="white"/>
<path d="M575 75 c-1 0 -3 0 -6 -1 -2 -1 -4 -1 -4 -2 0 0 3 -2 7 -3 4 -1 9 -3
11 -5 4 -3 5 -3 10 -3 3 0 6 0 6 1 0 0 -2 3 -4 5 -6 7 -15 11 -20 8z" fill="white"/>
<path d="M12 70 l-3 -4 11 0 c12 0 12 0 12 2 0 2 -1 3 -6 3 -3 0 -7 1 -8 1 -2
1 -3 0 -6 -2z" fill="white"/>
<path d="M527 72 c-1 0 -1 -3 -1 -6 0 -4 0 -5 2 -6 4 -1 16 -2 22 -1 10 1 10
1 10 7 l0 6 -13 0 c-8 0 -15 0 -17 0 -1 1 -3 1 -3 0z" fill="white"/>
<path d="M511 63 c-11 -6 -9 -11 7 -15 9 -3 34 -4 45 -2 11 3 17 5 18 8 1 3 1
3 -1 5 -3 3 -10 6 -13 6 -1 0 -2 -1 -2 -2 0 -4 -4 -6 -13 -7 -7 -1 -11 -1 -17
0 -11 1 -13 2 -13 6 0 3 0 3 -3 3 -1 0 -5 -1 -8 -2z" fill="white"/>
<path d="M5 62 l-2 -3 15 1 c8 0 15 0 15 1 0 0 0 1 0 1 -1 2 -3 2 -14 2 -12 0
-13 0 -14 -2z" fill="white"/>
<path d="M588 57 c0 -2 1 -2 6 -2 5 0 6 0 6 2 0 2 -1 2 -6 2 -6 0 -7 0 -6 -2z" fill="white"/>
<path d="M0 12 l0 -9 300 0 300 0 0 10 0 9 -93 0 c-90 0 -93 0 -96 -2 -2 -1
-6 -2 -8 -3 -2 -1 -7 -2 -10 -4 -5 -2 -9 -2 -17 -3 -6 -1 -15 -1 -18 -2 -5 -1
-10 -1 -18 0 -6 1 -15 2 -21 2 -6 0 -12 1 -14 2 -3 1 -6 2 -7 2 -4 0 -10 3
-15 6 -3 2 -4 2 -143 2 l-140 0 0 -10z" fill="white"/>
</g>
</svg>
