<?xml version="1.0" encoding="UTF-8"?>
<svg width="600" height="800" viewBox="0 0 600 800" fill="none" xmlns="http://www.w3.org/2000/svg">
<g transform="translate(0,800) scale(1,-1)">
<path d="M57 798 c-1 -1 -1 -7 -2 -12 -6 -52 -17 -106 -33 -164 -5 -21 -7 -28
-17 -58 -3 -10 -5 -19 -5 -20 0 -2 14 41 21 67 10 35 21 83 26 112 3 17 10 60
11 73 1 4 -1 6 -1 2z M121 799 c0 -2 -10 -41 -14 -57 -21 -76 -56 -156 -93 -214 l-6 -9 -4
0 c-3 0 -4 0 -4 -1 0 -2 15 -1 18 1 5 2 6 0 6 -9 -1 -12 -6 -17 -17 -18 -5 0
-7 -1 -7 -2 0 0 1 -1 3 -1 2 0 3 0 4 -7 4 -18 9 -52 12 -80 1 -8 2 -16 2 -18
l1 -3 -4 4 c-4 4 -11 8 -15 9 -5 1 -3 -1 2 -3 7 -2 15 -11 18 -18 1 -3 2 -6 2
-8 0 -2 0 -2 -5 3 -6 5 -20 13 -20 11 0 0 3 -2 6 -4 3 -2 9 -6 12 -9 l7 -6 -3
0 c-9 -2 -14 -3 -18 -2 -3 1 -4 0 -4 -1 0 -2 10 -3 18 -1 3 1 6 2 6 2 0 -1 1
-8 2 -16 1 -14 1 -16 0 -20 l-2 -3 -1 3 c-1 5 -4 10 -9 14 -5 5 -14 9 -14 7 0
-1 2 -2 4 -3 6 -2 12 -8 15 -14 2 -3 3 -6 3 -7 0 0 -3 1 -6 3 -7 5 -16 9 -16
7 0 -1 3 -2 5 -3 3 -1 8 -4 12 -7 6 -4 6 -5 4 -5 -1 0 -5 -1 -7 -2 -2 0 -7 -1
-9 -2 -3 0 -5 -1 -5 -1 0 -2 6 -1 13 1 l6 2 0 -8 0 -7 -4 0 c-2 0 -5 1 -8 3
-6 3 -7 4 -7 2 0 -1 2 -2 4 -3 6 -3 6 -4 2 -4 -3 0 -6 -1 -6 -2 0 0 3 0 8 1 8
1 10 1 6 -1 -1 0 -3 -2 -5 -7 -2 -4 -4 -8 -6 -10 -2 -1 -3 -3 -3 -4 1 -2 7 5
10 12 4 7 4 8 7 8 2 0 7 -13 6 -19 l0 -4 -7 -1 c-13 -2 -16 -3 -16 -5 0 -1 1
-1 3 0 5 2 21 4 25 4 3 0 4 -1 5 -2 1 -1 1 -2 1 -2 0 -1 -4 -1 -8 -1 -11 -1
-25 -5 -26 -7 0 -1 0 -1 2 -1 5 3 17 5 25 5 l8 1 2 -4 c0 -2 1 -5 1 -8 l1 -4
-5 0 c-7 0 -28 3 -31 4 -2 1 -3 1 -3 0 0 -4 33 -8 57 -7 15 1 31 3 38 5 5 2 5
2 22 -4 1 0 1 -1 1 -5 -1 -8 -2 -9 -5 -11 -14 -8 -50 -14 -80 -11 -13 1 -21 2
-30 5 -4 1 -3 -2 1 -3 11 -3 22 -4 45 -4 28 0 39 1 61 9 1 0 1 -2 -1 -15 -4
-28 -9 -56 -11 -59 -4 -9 -57 -13 -85 -6 -3 1 -7 2 -7 3 -1 1 -3 6 -4 11 l-2
10 0 -8 c1 -5 1 -10 2 -11 0 -2 0 -2 -1 -2 -1 1 -1 1 -1 0 0 -2 9 -5 18 -7 10
-2 31 -3 44 -2 25 2 47 9 47 16 0 1 -1 0 -4 -2 -2 -2 -3 -3 -4 -3 0 0 1 3 2 6
0 3 1 6 1 7 0 2 0 2 4 1 8 -4 10 -12 5 -18 -2 -2 -6 -4 -25 -9 -12 -3 -25 -7
-29 -8 -11 -4 -37 -2 -53 3 -4 1 -6 1 -6 1 1 -3 18 -7 34 -8 l10 -1 -9 -2
c-11 -4 -18 -4 -28 0 -5 2 -7 2 -7 1 0 -1 5 -3 13 -5 l6 -1 -5 -3 c-9 -4 -13
-11 -12 -24 0 -12 0 -12 31 -34 45 -32 69 -49 72 -50 6 -3 17 0 54 12 18 6 57
20 75 27 8 3 11 6 11 10 0 3 -4 7 -8 8 -2 1 -3 6 -3 14 1 6 1 7 4 10 2 2 6 5
9 6 3 2 7 4 9 6 l5 3 -6 -6 c-7 -8 -7 -13 0 -13 4 0 9 3 16 10 l6 7 -3 -5 c-7
-10 -9 -16 -5 -18 4 -2 12 3 18 12 3 5 2 2 -1 -3 -5 -7 -6 -11 -4 -14 2 -2 6
-1 11 4 l5 4 -3 -5 c-4 -5 -4 -10 -2 -11 3 -2 7 0 11 4 5 5 4 4 0 -2 -4 -5 -4
-10 -1 -11 4 -1 7 1 14 6 l5 6 -3 -6 c-5 -6 -6 -12 -3 -14 3 -2 7 0 14 7 8 8
9 8 4 1 -5 -5 -7 -11 -5 -13 3 -4 10 -1 17 8 5 5 3 4 -3 -1 -13 -12 -17 -7 -7
7 l4 5 4 -2 c2 -1 5 -2 6 -2 1 1 -3 3 -9 6 -6 3 -11 6 -12 7 -1 2 2 13 5 20
l3 6 4 -2 c2 -1 10 -4 17 -6 13 -5 33 -14 33 -15 0 0 -2 -4 -5 -9 -2 -5 -5
-11 -6 -15 0 -4 -1 -7 -1 -7 -1 0 -4 2 -8 5 -4 3 -10 6 -12 7 l-5 3 -2 -3 c-1
-1 -2 -3 -3 -4 -4 -4 -6 -10 -6 -13 0 -3 0 -4 3 -5 3 -2 8 1 15 8 3 4 5 6 5 6
0 -1 -2 -5 -4 -9 -6 -11 -5 -16 1 -16 3 0 8 4 11 11 3 4 4 3 1 -2 -1 -2 -3 -6
-3 -9 -2 -6 -2 -6 -1 -9 1 -1 3 -2 3 -2 3 0 8 5 11 12 3 4 4 7 5 7 0 -1 -1 -3
-2 -5 -5 -10 -8 -21 -5 -21 1 0 1 1 1 3 0 3 3 11 6 18 l2 4 3 -4 4 -4 -3 -6
c-2 -3 -4 -7 -5 -8 -2 -2 -2 -3 -1 -3 1 0 3 3 5 6 4 8 6 9 2 2 -2 -7 -3 -8 -1
-8 0 0 1 2 2 4 1 2 2 5 3 7 l1 3 2 -2 c5 -6 5 -7 3 -9 l-1 -3 4 0 c3 0 5 1 5
1 0 0 -2 3 -4 5 -5 7 -5 10 -2 18 1 6 8 19 10 23 2 1 2 1 9 -6 11 -12 25 -33
25 -39 0 -2 2 -3 4 -1 1 1 1 1 1 0 0 0 1 -1 3 -1 2 0 2 0 1 3 -1 3 0 3 3 7 6
5 8 6 8 3 0 0 0 -1 -1 0 -1 0 -1 0 -1 -1 5 -11 5 -12 8 -12 l3 0 -4 8 c-3 5
-4 8 -3 8 0 1 3 3 5 4 l4 2 2 -8 c2 -4 3 -9 4 -11 0 -2 1 -3 1 -3 1 0 1 2 0 8
-1 3 -2 5 -1 5 0 0 1 -2 2 -5 4 -7 7 -9 11 -5 3 3 3 10 -1 24 -1 1 1 -2 3 -7
6 -12 9 -15 14 -10 2 2 3 9 0 17 -2 8 -1 7 3 -2 5 -11 9 -15 13 -10 3 3 3 8 1
16 -1 4 -2 8 -2 8 1 0 2 -4 4 -8 4 -9 7 -14 10 -14 6 0 8 7 5 18 -1 4 -2 8 -1
8 0 0 2 -3 3 -7 5 -9 8 -14 11 -14 7 0 9 8 4 20 -2 7 -1 5 3 -2 6 -10 12 -14
16 -9 2 4 1 10 -3 18 -2 3 -3 6 -2 6 0 0 3 -3 5 -7 5 -7 9 -11 11 -10 0 1 -1
2 -2 3 -3 2 -12 14 -12 15 0 1 9 7 10 7 0 0 1 -2 2 -4 l2 -3 0 4 c0 2 -1 4 -1
5 -1 0 -1 1 0 2 1 1 1 3 1 7 -2 14 -12 25 -27 30 -8 3 -8 3 -8 6 1 2 2 3 5 3
2 1 5 2 7 3 3 1 3 1 7 -1 3 -1 7 -3 10 -6 4 -3 6 -4 6 -3 0 2 -7 7 -13 10 -2
1 -4 3 -4 3 0 0 1 1 3 2 5 3 14 14 14 17 0 2 0 2 -1 1 -7 -10 -18 -20 -27 -22
-3 -1 -5 -2 -6 -2 0 0 0 3 1 6 0 5 0 5 6 8 8 4 15 12 18 19 3 7 3 15 0 20 -3
6 -11 8 -17 4 l-3 -2 0 8 1 7 4 2 c7 2 14 0 20 -5 4 -3 4 -3 4 -1 0 2 -2 3 -5
5 -5 3 -6 4 -12 4 -4 0 -9 -1 -10 -1 -2 -1 -2 -1 -2 4 0 3 -1 6 -2 7 -5 8 -19
13 -38 15 l-12 1 -1 6 c-1 3 -3 9 -6 14 -5 10 -5 12 -2 35 6 63 26 149 47 206
3 10 5 12 6 11 1 0 3 0 5 -1 2 0 3 -1 3 -1 1 0 -3 -17 -8 -36 -5 -20 -9 -37
-9 -38 0 -3 2 1 3 9 2 7 17 64 17 65 1 0 17 1 17 0 0 0 -2 -16 -3 -34 -9 -79
-11 -122 -13 -205 l0 -39 2 1 c2 0 5 -1 9 -3 6 -3 14 -5 14 -3 0 0 -1 1 -3 1
-2 1 -6 2 -10 4 -3 2 -7 3 -8 3 -2 0 -2 1 -2 13 0 44 3 125 7 165 3 40 9 98
10 99 1 1 2 1 3 1 2 0 4 2 3 3 -1 0 -4 -1 -7 -1 -8 -2 -24 -2 -28 -1 -7 3 -10
9 -10 18 0 3 0 6 1 7 1 3 1 3 5 1 8 -2 32 0 38 4 3 3 1 3 -6 1 -3 -1 -7 -2 -7
-2 -1 0 -2 4 -13 43 -37 129 -46 163 -53 221 -1 9 -2 17 -3 17 -1 2 -1 -4 2
-24 4 -28 10 -60 17 -90 6 -23 30 -110 41 -147 3 -11 6 -20 6 -20 0 -1 -3 -1
-6 -1 -6 -1 -6 -1 -9 3 -4 5 -20 30 -28 44 -19 32 -40 73 -53 108 -14 35 -29
85 -35 118 -2 8 -3 10 -4 9 -1 -1 9 -42 17 -69 20 -68 53 -140 93 -199 5 -7
10 -14 10 -14 0 -1 -1 -1 -3 0 -4 0 -11 7 -24 25 -26 34 -52 77 -71 118 -20
43 -42 103 -48 132 -1 5 -2 8 -4 7 0 -1 6 -26 12 -43 0 -1 -4 1 -11 6 -26 17
-58 29 -92 35 -15 2 -45 3 -59 1 -42 -4 -79 -17 -111 -39 -5 -3 -12 -8 -14
-10 -4 -3 -5 -4 -5 -2 1 1 2 5 3 10 3 9 12 40 12 41 0 1 -1 1 -1 1 -1 0 -2 -3
-3 -8 -6 -22 -17 -57 -30 -90 -25 -62 -51 -113 -81 -156 -14 -19 -19 -25 -23
-26 -2 0 -4 -1 -4 -1 0 1 3 7 8 14 44 71 82 165 100 251 2 6 3 13 4 14 0 1 0
2 -1 2 -1 0 -1 0 -1 -1z m208 -4 c26 -5 49 -13 70 -24 11 -5 29 -17 31 -20 1
-1 4 -9 8 -17 3 -9 8 -22 11 -29 3 -8 5 -14 5 -14 0 0 -3 4 -7 8 -19 24 -51
47 -82 59 -54 20 -117 17 -169 -10 -30 -14 -58 -37 -78 -63 -8 -12 -9 -12 -7
-9 2 3 14 35 20 51 5 14 5 14 11 19 8 7 28 20 39 25 23 12 49 21 77 24 14 2
58 2 71 0z m-6 -29 c38 -6 70 -21 99 -44 20 -17 33 -33 42 -54 9 -20 18 -37
27 -53 8 -14 10 -23 13 -44 2 -12 2 -39 1 -53 -3 -24 -10 -52 -21 -73 l-5 -12
-1 11 c0 6 -1 13 -2 15 -1 3 -1 5 2 13 4 13 8 27 10 40 2 16 2 57 0 73 -14 87
-76 154 -159 171 -47 10 -103 0 -145 -26 -47 -29 -80 -75 -93 -127 -5 -21 -7
-31 -6 -57 0 -22 0 -27 2 -38 12 -66 48 -119 103 -152 10 -5 21 -11 32 -15 4
-1 7 -2 7 -3 0 -1 -2 -2 -5 -3 -3 -1 -5 -3 -5 -3 0 -1 1 0 3 0 8 3 8 3 12 -2
3 -5 3 -5 1 -7 -1 0 -2 -1 -3 -1 -4 0 -27 9 -38 14 -66 34 -111 98 -123 174
-2 16 -2 48 0 64 4 20 8 33 15 49 4 8 10 20 13 26 9 20 21 37 39 55 38 38 83
59 138 64 9 1 38 0 47 -2z m-45 -99 l0 -91 -8 -1 c-13 -3 -26 -8 -39 -14 l-12
-6 -19 0 c-15 0 -19 0 -19 1 0 3 -4 6 -6 6 -2 0 -3 1 -4 2 0 2 -4 4 -6 4 -1
-1 -1 0 -1 2 0 5 -4 8 -9 8 -4 -1 -4 0 -4 3 0 5 -4 8 -9 8 -4 -1 -4 0 -6 4 -2
5 -8 9 -14 9 -5 0 -11 -4 -14 -9 -1 -3 -2 -4 -3 -3 -4 1 -10 1 -13 0 -2 -2 -3
-4 2 13 16 65 67 121 130 143 16 5 39 10 52 11 2 0 2 -5 2 -90z m20 -12 l0
-102 15 0 c8 0 50 0 94 -1 58 0 81 0 81 -1 0 -1 0 -4 0 -9 l-1 -7 -95 0 -94 0
0 -14 c0 -8 0 -23 0 -34 0 -12 0 -20 -1 -20 0 0 -1 1 -2 1 -1 1 -4 4 -8 6 l-6
4 0 28 0 29 -97 0 -97 0 -1 4 c0 3 0 7 0 9 l1 4 93 1 c51 0 94 0 97 0 l4 0 0
102 0 102 9 0 8 0 0 -102z m24 99 c19 -3 36 -8 55 -18 48 -24 83 -66 100 -119
4 -11 8 -27 7 -28 0 0 -6 0 -12 -1 -24 -2 -46 -8 -64 -17 l-10 -5 -7 4 c-21
10 -47 14 -80 12 l-11 -1 0 88 0 88 6 -1 c4 0 11 -1 16 -2z m-249 -161 c-15
-58 -2 -129 33 -181 28 -42 68 -73 114 -88 9 -4 12 -5 11 -6 -3 -2 -7 -11 -8
-17 -1 -5 -2 -7 -3 -7 -3 0 -30 10 -41 15 -14 7 -22 12 -33 20 -6 5 -7 5 -6 7
3 3 10 15 10 17 0 2 -3 4 -11 7 -7 2 -14 3 -20 1 l-5 -2 -4 4 c-2 2 -4 5 -5 6
l-2 3 3 9 c3 10 4 15 1 16 -3 2 -11 2 -17 1 -8 -1 -7 -2 -16 16 -20 38 -30 76
-32 118 l0 16 7 11 c8 12 21 32 24 38 1 2 2 4 2 4 0 -1 -1 -4 -2 -8z m56 5 c4
-2 7 -7 7 -11 0 -2 0 -2 2 -1 1 0 3 1 5 1 4 0 7 -3 6 -10 l-1 -4 2 1 c4 3 8 2
10 0 2 -2 2 -3 0 -9 l0 -2 3 2 c5 2 7 0 7 -4 0 -2 0 -2 2 -1 1 0 2 1 3 0 2 0
4 -3 4 -4 0 -1 -21 -1 -46 -1 l-46 0 0 10 c1 14 2 19 5 22 4 3 9 3 13 0 2 -3
2 -3 4 3 4 9 12 12 20 8z m383 -18 c4 -6 10 -16 14 -21 l7 -10 0 -18 c-2 -58
-22 -112 -56 -151 -5 -7 -12 -13 -15 -16 l-5 -4 0 6 c-1 4 -1 5 2 9 7 11 15
30 17 45 1 4 2 9 4 11 19 31 31 86 28 126 -1 11 -4 31 -6 37 0 1 0 1 1 0 1 -1
5 -7 9 -14z m-26 -3 c1 -5 1 -12 1 -16 l0 -6 -50 0 -50 0 3 3 c9 7 31 18 48
22 14 4 44 8 46 6 1 0 1 -5 2 -9z m-130 1 c10 -1 22 -5 33 -10 l7 -3 -6 -5 -7
-5 -42 0 -41 0 0 12 c0 8 0 11 1 12 3 1 25 2 35 1 6 0 15 -1 20 -2z m-78 -13
l0 -10 -26 0 c-15 0 -27 0 -27 0 0 1 9 5 19 9 8 4 29 10 33 10 1 0 1 -3 1 -9z
m-236 -64 c5 -32 18 -69 33 -95 3 -6 6 -10 6 -10 0 -1 -2 -2 -5 -4 -9 -6 -15
-20 -12 -30 1 -5 0 -6 -3 -13 -2 -5 -4 -10 -5 -11 l-3 -3 0 4 c-1 2 -2 10 -3
17 l-1 14 4 4 c10 8 14 18 13 31 -1 9 -5 23 -9 26 -1 2 -2 2 -6 0 -2 -1 -5 -3
-7 -5 -2 -2 -4 -3 -4 -3 -1 0 -2 8 -4 17 -4 15 -13 49 -15 52 0 1 0 2 2 5 2 3
4 11 4 16 0 2 1 6 1 9 1 2 2 5 2 7 0 1 2 5 5 8 l5 7 0 -16 c0 -8 2 -21 2 -27z
m504 31 l9 -11 -2 -6 c-2 -8 0 -15 3 -21 l3 -4 -3 -9 c-21 -54 -44 -154 -49
-212 -1 -7 -1 -15 -2 -17 l0 -4 -3 3 c-1 1 -3 4 -4 6 -2 4 -2 5 -1 9 1 2 1 7
2 10 1 10 -4 24 -11 32 -2 3 -3 4 -3 11 0 9 -1 15 -7 22 -3 3 -15 13 -17 13
-1 0 -2 0 -3 1 0 1 3 5 11 13 7 7 16 17 19 22 29 38 45 86 48 141 0 7 1 13 1
12 0 0 5 -5 9 -11z m-268 -16 l0 -16 -3 0 c-1 1 -8 2 -14 3 -11 1 -11 1 -17 6
-8 6 -22 15 -30 19 -5 2 -8 4 -8 4 0 0 16 0 36 0 l36 0 0 -16z m-66 10 c11 -5
24 -13 31 -19 l3 -3 -14 0 c-20 0 -34 -3 -51 -10 l-9 -4 -3 2 c-3 2 -7 3 -9 1
-1 -1 -1 0 -2 2 -3 5 -10 7 -15 5 l-3 -2 0 4 c0 3 -1 6 -2 7 -2 3 -3 3 -6 3
-4 0 -5 0 -5 2 -1 2 -3 4 -4 5 -3 2 -3 2 -7 1 -3 -1 -4 -1 -4 0 0 1 -1 2 -2 4
-5 5 -15 3 -18 -4 -1 -2 -2 -3 -3 -3 -1 0 -2 7 -2 13 l0 2 57 0 57 0 11 -6z
m275 3 c0 -3 -2 -8 -2 -6 0 3 -5 6 -9 6 -5 0 -10 -4 -11 -9 0 -2 -1 -3 -1 -2
-3 2 -7 2 -11 1 -4 -1 -8 -6 -9 -11 -1 -3 -2 -5 -4 -6 -2 -2 -2 -2 -5 0 -7 6
-15 5 -21 -2 l-2 -4 -5 4 c-7 4 -17 9 -26 11 -6 2 -10 2 -23 2 -15 0 -17 0
-26 -2 -11 -3 -21 -7 -28 -12 l-4 -3 0 18 0 18 94 0 93 0 0 -3z m-460 -6 c-1
-4 -1 -4 -3 -2 -1 1 0 2 1 4 1 2 2 3 3 3 0 0 -1 -2 -1 -5z m453 3 c1 -1 3 -3
4 -4 l2 -4 -2 -11 c-1 -6 -3 -13 -3 -17 -2 -6 -7 -22 -8 -23 0 0 -1 1 -3 2 -3
2 -4 2 -10 2 -14 0 -35 -7 -49 -17 -4 -2 -8 -5 -8 -5 -1 0 -5 1 -10 3 -5 2
-12 5 -15 6 -6 1 -7 2 -7 4 0 3 4 7 8 7 3 -1 3 0 2 3 0 3 2 8 5 9 2 1 3 1 9
-1 2 -1 2 -1 1 3 0 5 1 8 5 10 3 1 7 0 9 -2 2 -3 3 -2 3 1 1 5 5 10 10 11 4 2
9 0 12 -4 3 -4 4 -4 4 -1 1 1 2 2 3 3 2 0 3 1 3 5 2 10 13 15 20 8 2 -1 2 -1
2 3 0 7 7 12 13 9z m-372 -4 c2 -2 3 -4 3 -5 0 -3 1 -3 4 0 3 3 5 3 8 0 2 -2
2 -3 2 -6 -1 -4 0 -5 2 -2 3 2 7 1 9 -1 2 -1 2 -3 2 -6 -1 -6 0 -7 4 -5 5 3 9
3 12 -1 2 -2 3 -4 3 -5 0 -2 1 -3 3 0 2 1 6 1 8 -1 3 -2 3 -10 -1 -13 -2 -3
-2 -3 -5 -1 -5 3 -15 -1 -16 -8 -1 -2 -1 -2 -5 0 -8 2 -24 5 -33 5 -6 0 -10 0
-10 0 0 1 -1 5 -3 10 -2 10 -6 26 -6 30 0 1 0 2 1 1 1 0 2 1 3 3 3 8 10 10 15
5z m272 -12 c8 -3 23 -10 28 -14 l4 -3 -4 1 c-2 1 -5 1 -7 1 -3 0 -7 -6 -7 -9
0 -3 0 -3 -4 -2 -3 0 -4 0 -7 -3 -3 -2 -3 -4 -3 -6 0 -3 -1 -4 -3 -4 -2 -1 -4
-2 -5 -3 l-2 -3 -8 6 c-14 9 -36 18 -55 23 -2 1 -4 1 -4 2 1 1 10 6 18 9 6 2
15 5 23 6 6 1 30 0 36 -1z m-120 -9 c6 -1 12 -2 14 -3 l4 0 0 -9 0 -9 -6 3
c-9 4 -19 6 -22 5 -8 -2 -12 -11 -15 -36 l0 -6 -3 3 c-1 1 -3 2 -5 2 -4 0 -4
0 -4 3 0 4 -3 8 -6 8 -2 0 -2 0 -2 6 0 6 0 6 -3 9 -3 3 -9 4 -13 1 -2 -1 -2
-1 -4 0 -3 3 -5 2 -9 0 -2 -3 -3 -3 -3 -1 -1 2 -7 4 -9 3 -2 0 -2 1 -2 4 l0 4
8 3 c9 4 23 9 32 10 9 1 37 1 48 0z m59 -13 c22 -6 50 -22 50 -27 0 -1 -1 -1
-7 0 -16 2 -35 0 -47 -4 l-5 -1 -5 4 -5 5 0 14 0 15 6 -2 c3 0 9 -2 13 -4z
m-300 2 c2 -4 12 -39 15 -55 l3 -15 -3 -5 c-9 -14 -8 -30 3 -43 3 -4 3 -4 4
-15 0 -5 0 -11 0 -13 1 -3 1 -3 -2 2 -2 3 -5 8 -7 10 -3 3 -4 6 -5 10 0 2 -1
6 -2 8 0 2 -2 10 -3 18 -3 31 -7 60 -11 81 -2 8 -3 15 -3 16 0 0 4 2 9 3 1 0
1 -1 2 -2z m243 -6 c13 -4 32 -16 41 -25 l4 -5 -2 -1 c-5 -4 -3 -4 3 -1 4 2 9
4 12 4 6 2 6 2 5 0 -3 -9 -4 -13 -4 -22 0 -10 2 -16 6 -17 3 0 3 1 7 13 4 13
5 17 9 24 l4 5 9 0 c5 -1 9 -1 10 -1 0 -1 -2 -3 -4 -6 -6 -9 -11 -20 -13 -30
0 -4 0 -5 2 -7 l2 -2 3 2 c2 2 5 5 15 20 2 4 7 10 9 13 l5 5 4 -1 c8 -3 11 -5
10 -7 -3 -3 0 -2 8 4 20 14 51 24 61 19 11 -6 10 -45 -2 -74 -4 -9 -11 -21
-12 -20 -1 0 -1 -1 -1 -4 1 -3 1 -9 2 -14 0 -5 1 -10 1 -11 1 -2 -1 -3 -4 0
-2 1 -2 1 -2 0 0 -2 6 -5 9 -5 2 0 3 -1 3 -1 0 -2 -4 -8 -7 -10 -4 -3 -4 -4
-1 -4 1 0 3 0 4 -1 2 -1 -6 -9 -12 -12 -4 -1 -5 -3 -1 -3 1 0 2 0 2 -1 0 -1
-15 -9 -23 -11 l-7 -2 -6 3 c-6 4 -14 7 -22 10 -8 1 -16 2 -16 1 0 0 3 -1 6
-1 8 -1 17 -4 25 -8 7 -3 12 -6 9 -6 -3 0 -28 -7 -38 -10 l-13 -4 -16 0 c-22
0 -35 2 -55 10 -13 5 -35 18 -35 20 0 1 8 4 15 7 l6 2 -5 -1 c-2 0 -8 -2 -11
-3 l-7 -4 -6 6 -5 5 4 1 c2 1 10 1 16 1 7 0 12 1 12 1 0 2 -17 2 -30 -1 -4 0
-4 0 -8 5 -2 3 -4 6 -4 6 0 1 13 2 21 1 5 -1 11 -2 15 -3 8 -3 9 -2 2 1 -9 3
-17 4 -29 4 -7 0 -10 0 -11 1 0 1 1 1 3 1 4 0 4 1 0 4 -3 3 -6 9 -7 14 0 4 0
4 2 4 1 -1 3 -1 4 -2 3 0 7 1 7 2 0 1 -1 1 -2 1 -1 -1 -3 -1 -4 0 -1 0 -1 1 0
1 3 0 7 7 10 16 2 5 4 12 5 14 2 5 2 8 0 5 -2 -2 -2 -2 -4 4 -4 10 -6 22 -7
37 0 21 3 38 9 44 3 3 7 3 15 0z m-85 -6 c2 -1 4 -2 5 -4 l2 -3 1 3 c3 4 7 5
10 2 1 -2 1 -2 4 0 3 3 9 3 11 0 4 -4 4 -8 1 -15 0 -2 0 -2 2 -2 6 2 10 -3 8
-8 -1 -4 -1 -5 1 -3 2 2 7 1 9 -1 1 -1 2 -3 2 -4 0 -1 1 -3 2 -3 0 -1 1 -5 1
-9 1 -5 2 -12 3 -16 1 -5 2 -9 2 -9 0 0 -4 3 -9 7 -23 21 -55 41 -79 50 -3 1
-6 3 -6 3 0 1 1 2 2 4 3 6 12 7 16 1 0 -1 1 -1 1 -1 0 0 1 2 2 3 1 2 3 4 4 5
3 1 2 1 5 0z m-44 -10 c21 -6 42 -16 63 -30 22 -14 45 -33 48 -40 2 -4 2 -4 1
-9 l-2 -5 -4 1 c-2 1 -3 2 -3 3 0 3 -3 4 -5 4 -2 -1 -3 0 -3 0 0 0 -1 2 -3 4
-3 4 -9 4 -13 0 -2 -2 -3 -2 -4 -2 -1 1 -3 1 -4 1 -2 0 -3 1 -3 3 0 9 -8 14
-16 10 -3 -2 -3 -2 -4 0 -1 2 -3 3 -4 3 -1 1 -2 2 -2 5 0 6 -3 8 -8 8 -4 -1
-4 0 -4 2 0 6 -5 10 -10 8 -3 -2 -3 -2 -4 2 -2 6 -9 8 -13 3 -2 -1 -3 -3 -3
-4 0 -2 -1 -2 -5 -2 -3 0 -5 0 -7 -2 l-2 -2 -4 7 c-5 8 -7 14 -10 20 -1 3 -3
7 -4 10 l-2 5 12 0 c9 -1 15 -2 22 -3z m207 -17 c-3 -5 -6 -14 -8 -20 -2 -6
-3 -12 -4 -12 -1 -1 -4 2 -5 8 -2 7 0 18 3 26 2 5 3 6 12 6 l6 0 -4 -8z m37 4
c3 -1 6 -2 6 -2 0 -1 0 -1 -1 -1 -2 0 -11 -13 -18 -24 -7 -11 -10 -14 -12 -12
-3 5 5 27 13 36 2 3 4 5 5 5 0 0 3 -1 7 -2z m-232 -17 c1 -1 2 -4 3 -6 0 -4 0
-4 2 -2 4 3 6 3 9 1 2 -1 2 -2 2 -7 -1 -5 -1 -5 1 -4 1 1 4 2 6 2 5 0 7 -5 5
-11 -1 -2 -1 -2 1 -1 3 0 6 -2 6 -6 l0 -3 4 3 c8 7 18 0 15 -10 -1 -2 -1 -3 1
-3 0 0 1 0 2 1 0 2 5 1 6 -1 1 -1 2 -1 4 2 3 4 5 4 8 4 3 0 6 -4 6 -6 0 -3 0
-3 3 -2 3 2 5 1 5 -3 0 -4 0 -4 2 -3 2 1 2 1 4 0 5 -3 -5 -20 -12 -19 -2 0 -3
0 -3 -3 0 -5 2 -11 5 -15 1 -1 2 -3 2 -3 0 -2 -8 0 -16 4 -29 11 -57 31 -77
55 -8 10 -18 23 -18 25 0 4 8 5 11 2 2 -1 2 -1 2 1 0 8 7 13 11 8z m-86 -15
c8 -19 6 -35 -8 -48 l-6 -6 -1 4 c-1 6 1 22 3 30 2 9 2 10 -1 3 -3 -8 -4 -16
-4 -27 l0 -9 -3 3 c-4 5 -8 13 -9 19 -1 10 5 24 14 31 4 3 9 7 11 7 0 0 2 -3
4 -7z m48 -28 c1 -1 -2 -13 -6 -19 -5 -11 -13 -16 -25 -18 -3 0 -6 -1 -7 -1
-5 -4 6 13 14 21 3 3 6 6 5 6 -2 0 -15 -14 -18 -20 l-3 -5 -1 4 c-1 4 -1 7 0
12 4 11 13 19 25 21 5 1 15 0 16 -1z m3 -35 c1 -2 0 -2 -4 -6 -6 -7 -8 -13 -9
-22 l0 -8 -8 -10 c-5 -5 -10 -12 -12 -15 -2 -4 -4 -5 -6 -5 -3 0 -6 -1 -10 -5
-3 -3 -3 -3 -3 -1 1 1 1 4 2 7 1 4 2 5 4 6 7 3 13 6 16 9 9 7 14 21 14 34 l0
8 -3 0 c-6 1 -20 -2 -26 -6 -3 -1 -3 -1 1 5 2 4 2 4 13 5 6 1 14 5 18 10 l4 4
4 -4 c2 -3 4 -5 5 -6z m-62 -6 c2 -17 2 -23 1 -28 l-1 -4 -2 7 c-1 7 -3 35 -2
37 2 4 3 1 4 -12z m94 2 c3 -1 6 -3 6 -3 0 -2 -11 -17 -14 -20 -7 -6 -12 -8
-24 -9 -5 0 -10 0 -10 0 0 0 3 3 6 6 6 7 13 13 19 16 2 1 3 2 2 2 -3 0 -12 -6
-19 -13 -5 -4 -8 -8 -9 -8 -1 0 1 12 2 15 1 2 4 6 6 8 9 10 22 12 35 6z m-113
1 c1 -1 1 -1 0 0 -1 1 -2 1 -2 2 0 0 1 0 2 -2z m7 -12 c4 -7 7 -14 8 -21 l0
-5 -4 2 c-2 2 -5 4 -7 4 -4 1 -4 1 -6 18 0 3 0 8 -1 11 l0 4 3 -3 c2 -2 5 -6
7 -10z m438 -3 c13 -14 12 -30 -1 -45 -13 -13 -26 -20 -62 -32 -62 -21 -78
-31 -97 -58 -3 -5 -5 -8 -6 -8 0 0 -1 3 -2 7 -3 8 -2 11 5 24 8 15 19 28 35
38 15 10 27 14 68 24 11 3 19 5 24 8 9 4 14 9 12 10 -1 0 0 1 3 3 5 3 10 10 9
12 -1 1 -2 2 -3 2 -2 0 -1 0 1 3 3 3 6 9 5 11 -1 1 -2 1 -3 1 -2 0 -4 4 -4 8
l0 3 5 -3 c2 -1 7 -5 11 -8z m-382 3 c0 -14 -7 -29 -16 -35 -3 -2 -18 -9 -20
-9 0 0 1 2 1 4 2 8 9 20 15 27 3 4 5 6 3 5 -4 -3 -11 -12 -14 -17 -1 -3 -3 -8
-4 -11 l-3 -7 -1 4 c-3 5 -4 13 -2 19 4 14 19 25 35 25 l6 0 0 -5z m52 -17
c19 -15 44 -27 68 -34 9 -3 9 -3 10 -6 1 -4 1 -4 -3 -8 -12 -12 -17 -28 -14
-43 l2 -7 -7 -7 c-4 -4 -9 -10 -11 -13 -5 -7 -8 -16 -8 -23 0 -4 0 -5 -4 -7
l-3 -3 -34 -1 -33 0 0 3 c1 1 2 12 4 24 2 15 4 21 5 23 3 2 4 6 4 11 0 3 1 5
1 6 1 1 3 5 4 9 1 6 1 8 0 13 -2 13 -13 20 -28 20 -8 0 -9 0 -12 3 -2 2 -3 4
-3 4 0 1 10 6 12 6 1 0 4 -2 8 -6 8 -9 14 -10 31 -10 9 0 14 0 17 1 3 2 3 2 3
7 0 10 -9 22 -18 26 -4 2 -7 2 -13 2 -9 -1 -14 -3 -21 -10 -3 -2 -7 -5 -11 -7
-3 -1 -7 -4 -9 -5 -2 -2 -3 -3 -4 -3 0 1 14 20 19 25 l5 4 11 0 c9 1 11 1 16
3 2 2 5 4 6 5 1 1 3 2 3 2 1 0 4 -2 7 -4z m-107 -7 c5 -2 10 -8 12 -12 0 -2 2
-4 2 -6 1 -1 1 -4 0 -9 -1 -4 -2 -11 -3 -16 0 -4 -1 -8 -1 -8 -1 0 -2 8 -1 13
0 3 -2 14 -5 19 -3 7 -3 6 -1 -1 3 -7 5 -15 3 -13 0 0 -1 3 -2 6 -3 6 -5 10
-11 17 -2 2 -4 5 -4 5 0 1 1 3 1 5 2 4 3 4 10 0z m210 -6 c3 -3 5 -6 4 -6 -1
0 -8 -7 -8 -8 1 0 3 1 5 3 2 2 4 4 5 4 0 0 5 -3 10 -6 6 -4 11 -7 13 -8 2 -1
3 -2 2 -3 0 -1 -1 -4 -2 -8 -2 -3 -3 -6 -3 -6 -1 0 -4 4 -7 9 -7 11 -7 11 -7
9 0 -1 2 -4 3 -7 l4 -6 -7 -1 c-8 -2 -14 -6 -20 -12 l-5 -4 -3 5 c-6 10 -8 19
-6 29 2 11 9 22 15 22 0 0 3 -3 7 -6z m-111 -2 c8 -5 14 -14 16 -23 l0 -4 -7
-1 c-17 -4 -36 0 -43 11 -3 3 -4 4 -6 4 -6 1 8 4 18 3 6 0 10 0 14 -2 7 -2 8
-2 1 1 -7 3 -16 5 -23 3 l-6 -1 3 3 c2 3 8 7 13 8 5 2 16 0 20 -2z m-109 -4
c4 -3 9 -11 12 -19 3 -6 7 -26 6 -27 0 0 -1 3 -2 6 -4 13 -10 22 -18 25 l-4 2
0 7 c0 6 1 9 2 9 0 0 2 -1 4 -3z m461 -5 c8 -12 10 -26 6 -39 -2 -5 -3 -7 -1
-7 0 1 1 0 2 -1 1 -1 4 -6 7 -10 7 -9 13 -21 14 -27 l0 -4 -4 0 c-4 0 -23 -3
-27 -4 -2 0 -2 0 -2 6 -1 6 -6 20 -8 19 0 0 1 -3 3 -7 2 -4 3 -8 3 -12 l0 -7
-3 -1 c-6 -2 -13 -7 -15 -10 -2 -3 -2 -5 -2 -20 0 -9 0 -16 -1 -16 0 0 -1 1
-3 2 -2 2 -7 5 -13 8 -7 3 -10 6 -10 6 4 9 5 17 6 26 0 11 -1 16 -4 21 l-2 3
8 2 c5 2 13 4 19 6 5 1 12 3 15 5 5 2 15 11 14 12 -1 0 -2 0 -2 -1 -1 -1 -2
-2 -2 -2 0 0 -1 2 -1 5 0 8 -3 16 -9 22 -3 3 -6 6 -7 7 l-3 1 6 6 c4 4 8 9 9
11 1 3 3 5 3 5 1 0 3 -2 4 -5z m-434 -7 c-1 -2 -1 -2 -1 0 0 1 0 2 1 2 1 2 1
0 0 -2z m3 -4 c0 -2 -1 -6 -1 -8 -1 -4 -4 -8 -4 -5 0 3 3 15 4 17 2 3 2 2 1
-4z m-4 -1 c-1 -1 -1 -1 -1 0 0 1 0 2 1 2 0 -1 0 -1 0 -2z m-24 -4 c5 -4 10
-13 12 -25 4 -16 4 -19 2 -19 -1 0 -2 1 -3 6 -1 9 -4 15 -9 22 -4 5 -9 14 -9
18 0 2 2 2 7 -2z m43 3 c0 -1 -1 -2 -2 -4 -5 -9 -12 -31 -12 -40 0 -2 0 -3 -2
-3 -2 0 -2 1 -1 5 0 2 0 6 1 8 0 1 0 6 1 11 0 12 2 16 8 21 3 2 7 3 7 2z m4
-1 c0 0 -1 -2 -2 -2 -2 -3 -3 -2 -1 1 2 2 3 3 3 1z m217 -4 c16 -6 28 -8 47
-9 l16 0 -5 -3 c-23 -12 -40 -33 -49 -56 0 -2 -1 0 -2 6 -1 10 -6 21 -11 30
-3 6 -4 8 -4 11 1 3 0 4 -2 1 l0 -2 -2 2 c-2 3 -2 5 -1 8 1 3 -1 3 -3 0 -1 -1
-1 -1 -1 3 1 5 5 14 6 14 1 -1 6 -2 11 -5z m-204 -4 c5 -4 12 -11 16 -15 4 -4
7 -7 7 -6 0 1 -7 9 -11 13 -2 1 -5 4 -7 6 l-3 3 8 0 c12 -1 20 -6 23 -16 1 -4
1 -16 -1 -20 l-1 -3 -7 2 c-15 4 -23 9 -28 18 -2 5 -2 8 0 17 0 2 0 2 -2 1 -1
-1 -1 -4 -2 -7 0 -7 0 -7 -10 -5 l-5 1 3 5 c2 6 10 14 11 14 1 0 5 -4 9 -8z
m383 -1 c7 -6 11 -14 12 -22 1 -7 0 -10 -6 -13 -4 -2 -18 -7 -25 -8 l-3 -1 0
6 c-1 9 -5 17 -11 23 l-6 5 7 2 c4 2 10 5 15 8 5 3 9 5 10 5 1 0 4 -2 7 -5z
m-241 -14 l2 -2 -6 -6 c-9 -9 -14 -20 -14 -30 0 -6 -2 -4 -4 4 -5 15 -1 31 10
43 l4 5 3 -5 c2 -3 4 -7 5 -9z m45 1 l9 -11 -3 -1 c-4 0 -13 -3 -18 -6 l-5 -2
-5 2 c-5 3 -16 11 -18 13 0 2 5 7 11 11 6 4 12 6 17 6 3 0 4 -1 12 -12z m-222
3 c-1 -4 -2 -12 -2 -17 0 -10 0 -10 -2 -10 -2 0 -2 0 -2 12 1 11 2 18 5 22 2
2 2 1 1 -7z m-25 -1 c0 -1 -1 -1 -2 -1 -1 0 -2 2 -2 4 l0 3 2 -3 c1 -1 2 -3 2
-3z m410 -7 c5 -5 9 -13 10 -21 l0 -6 -11 -3 c-22 -6 -27 -7 -58 -8 -20 -1
-27 -1 -33 -3 -9 -2 -20 -7 -25 -11 -4 -3 -5 -3 -1 2 14 19 34 30 74 44 9 3
22 8 27 9 10 4 11 4 17 -3z m-357 1 l2 -3 -10 1 c-5 0 -10 0 -10 1 0 0 0 1 1
2 1 2 1 2 8 2 8 0 8 -1 9 -3z m157 -5 c2 -2 8 -6 11 -8 l7 -4 -3 -2 c-5 -3
-15 -13 -18 -20 -1 -3 -3 -8 -3 -12 l-2 -7 -5 4 c-8 7 -12 11 -12 15 0 12 6
26 14 33 3 3 5 5 6 5 0 0 2 -2 5 -4z m-193 -1 c0 -1 0 -2 0 -2 -1 0 -1 1 -1 2
-1 1 0 2 0 2 1 0 1 -1 1 -2z m38 0 c5 -3 12 -8 11 -9 -1 -2 -35 -6 -35 -5 0 1
2 13 3 14 0 2 1 2 10 2 5 -1 10 -1 11 -2z m203 -4 c0 0 1 -4 3 -7 4 -8 8 -20
8 -23 0 -2 0 -2 -3 1 -4 5 -14 12 -25 18 l-9 4 4 3 c8 3 19 6 22 4z m-20 -12
c8 -3 20 -11 21 -13 1 0 -1 -1 -4 -2 -13 -3 -26 -14 -31 -28 -1 -2 -1 -5 -2
-5 0 0 -2 1 -5 3 -2 2 -6 5 -8 6 -4 2 -4 2 -4 7 0 13 12 31 25 36 0 0 3 -2 8
-4z m169 -17 c3 -6 4 -14 2 -23 -1 -8 -5 -22 -6 -22 0 0 -6 4 -13 9 -14 9 -26
14 -37 18 -6 1 -7 2 -7 3 0 2 -1 5 -2 8 l-3 5 10 0 c13 0 29 2 40 4 12 2 13 2
16 -2z m-217 -11 c3 -3 6 -6 6 -6 3 -2 2 -3 -3 -4 -15 -4 -27 -20 -29 -37 l-1
-8 -2 4 c-12 20 -8 40 11 58 l7 6 3 -4 c1 -3 5 -7 8 -9z m76 8 c10 -14 15 -34
10 -44 -2 -3 -7 -8 -8 -8 0 0 -1 2 -1 5 0 5 -2 11 -4 11 -1 0 -1 -1 0 -2 4 -7
3 -15 -2 -17 -4 -2 -6 -1 -6 3 0 4 -2 9 -5 11 -3 3 -3 3 1 -3 3 -8 2 -15 -2
-9 -4 6 -10 12 -14 14 -10 5 -23 4 -33 0 -6 -3 -14 -11 -17 -18 -2 -3 -4 -9
-4 -13 l-1 -7 -3 2 c-2 1 -5 4 -8 6 -4 5 -5 8 -3 18 3 16 15 29 30 33 4 1 5 1
10 -2 3 -2 8 -5 12 -8 3 -2 6 -4 6 -4 0 0 1 2 1 3 0 6 5 16 12 23 8 6 15 10
22 10 4 0 4 0 7 -4z m75 -3 c1 -2 3 -5 3 -7 1 -4 2 -3 -12 -2 -11 1 -25 0 -36
-2 -3 -1 -6 -2 -6 -2 -1 1 14 9 21 11 8 3 21 6 25 6 3 0 4 -1 5 -4z m170 -8
c15 -2 24 -7 28 -13 1 -3 1 -6 0 -27 -1 -24 -3 -49 -5 -61 -3 -17 -13 -25 -37
-27 -26 -3 -50 4 -56 16 -3 6 -4 20 -6 49 -2 28 -1 45 1 50 6 12 41 19 75 13z
m-173 -3 c4 -1 7 -1 7 -1 0 -1 0 -4 -1 -7 -1 -7 -5 -17 -9 -21 l-2 -2 -6 2
c-11 3 -26 5 -37 5 l-10 0 0 6 c0 11 4 14 24 18 8 1 25 1 34 0z m19 -4 c11 -4
21 -9 35 -18 l11 -8 -4 -5 c-4 -5 -11 -11 -19 -16 l-6 -4 -8 6 c-4 3 -13 9
-19 12 -11 5 -12 6 -10 8 4 6 9 18 9 24 0 4 1 4 11 1z m-124 -22 c4 -2 13 -10
13 -12 0 0 -2 0 -4 0 -2 1 -7 1 -11 1 -9 -1 -14 -3 -21 -9 -5 -5 -8 -10 -11
-19 l-3 -7 -7 4 -7 3 0 7 c1 15 11 28 25 33 7 3 20 2 26 -1z m81 -2 c12 -2 23
-6 33 -11 7 -3 19 -10 23 -14 l2 -2 -7 -5 c-8 -4 -16 -11 -19 -17 l-1 -3 -18
18 c-15 15 -18 18 -24 21 -7 3 -8 3 -16 3 -7 0 -9 0 -13 -2 -2 -1 -4 -2 -5 -2
0 1 2 3 4 5 3 3 5 6 6 7 0 4 1 4 14 4 8 0 14 -1 21 -2z m-156 -17 c2 -3 3 -5
4 -6 2 -1 1 -2 -1 -2 -4 -1 -15 -10 -18 -15 -2 -2 -4 -4 -4 -4 -1 0 -17 9 -17
10 0 0 1 2 2 5 3 6 10 14 20 22 l7 6 3 -6 c1 -3 3 -8 4 -10z m270 1 l4 -3 1
-14 0 -13 -5 -5 c-8 -7 -18 -15 -23 -18 l-4 -3 0 7 c-1 11 -9 25 -20 33 -3 2
-5 4 -5 4 0 0 2 2 5 3 7 5 16 13 20 18 l3 5 10 -5 c5 -3 12 -7 14 -9z m-291 6
c-6 -5 -13 -13 -16 -19 -1 -4 -1 -4 -6 -3 -4 0 -20 -3 -26 -6 -2 0 -2 0 0 4 1
2 1 5 1 6 -1 4 -7 10 -11 11 -3 1 -3 2 -3 5 1 3 1 5 2 5 0 1 15 1 32 1 l32 0
-5 -4z m422 -2 c2 -1 2 -3 3 -8 0 -7 -3 -15 -9 -21 -4 -5 -12 -10 -14 -9 0 1
0 6 1 12 1 6 1 14 1 18 0 5 0 6 2 8 5 4 12 5 16 0z m-313 -2 c7 -4 11 -11 11
-21 0 -6 0 -8 -2 -11 -3 -5 -8 -9 -13 -10 -4 -1 -4 -1 -6 1 -2 2 -2 4 -2 7 1
4 0 5 -1 2 -1 -2 -1 -9 0 -10 2 -1 -2 -2 -8 -2 -5 1 -7 4 -7 11 0 4 0 5 -1 4
-1 -1 -1 -4 -1 -7 1 -5 0 -6 -4 -4 -8 4 -11 16 -7 25 3 6 11 14 18 16 8 2 17
2 23 -1z m56 -2 c5 -2 9 -5 16 -12 l8 -8 -3 -4 c-7 -10 -18 -18 -28 -19 -4 0
-6 0 -7 2 -1 2 -1 6 0 9 1 1 1 2 0 2 -2 0 -3 -5 -3 -9 l1 -4 -5 0 c-7 0 -10 3
-10 9 0 2 0 5 1 6 1 1 1 2 0 2 -2 0 -3 -4 -3 -9 0 -4 -1 -5 -4 -2 -3 2 -6 8
-6 13 0 4 3 12 6 17 9 12 22 15 37 7z m-34 1 c0 0 -1 -2 -2 -4 -2 -1 -4 -4 -5
-5 l-1 -3 -3 5 c-2 3 -3 5 -3 6 0 0 2 0 4 0 2 0 4 1 6 1 2 2 3 2 4 0z m-99
-14 c3 -4 12 -10 20 -13 8 -4 8 -7 1 -10 -7 -4 -11 -8 -11 -12 0 -3 2 -4 5 -3
1 0 1 0 0 -1 -1 -1 -2 -2 -2 -2 -11 7 -41 24 -41 25 0 2 6 9 10 12 4 3 11 7
13 7 1 0 3 -1 5 -3z m211 -4 c6 -5 13 -13 16 -20 2 -4 2 -7 2 -12 l1 -7 -7 -1
c-15 0 -29 5 -46 20 -1 1 3 7 8 12 5 4 17 12 19 12 1 0 4 -2 7 -4z m-261 -3
c5 -2 86 -50 88 -52 2 -2 3 -5 1 -7 -2 -1 -40 -15 -87 -31 -22 -7 -41 -14 -43
-15 -4 -3 -6 -8 -6 -15 0 -12 6 -17 18 -14 18 4 117 38 122 42 2 2 2 1 1 -2
-1 -3 -2 -4 -43 -18 -41 -15 -81 -28 -87 -28 -2 0 -5 1 -8 2 -6 3 -8 10 -8 20
1 7 3 13 7 15 1 1 1 3 0 3 -1 0 -11 6 -22 14 -34 23 -59 40 -60 40 -2 0 -1 -1
7 -6 4 -3 7 -5 7 -6 0 0 -1 -3 -2 -6 -2 -4 -2 -6 -2 -14 l0 -9 -8 6 c-6 5 -9
7 -9 9 -2 6 -1 17 2 22 3 5 2 7 -1 2 -3 -5 -4 -13 -4 -20 l1 -5 -3 2 c-3 4 -5
8 -5 16 0 9 4 17 9 19 l4 2 10 -7 c6 -4 27 -18 46 -31 27 -19 36 -25 35 -26
-1 0 -1 -1 -1 -1 3 0 127 42 128 43 2 2 -2 1 -14 -3 -7 -2 -34 -12 -61 -21
l-49 -16 -16 11 c-8 6 -29 20 -46 31 -28 19 -30 20 -28 22 4 2 99 29 115 33 5
1 7 1 12 -1z m219 -23 c-11 -6 -20 -13 -28 -22 l-3 -4 -5 3 c-3 1 -10 6 -14
10 -5 3 -11 7 -12 8 -3 1 -3 4 -1 3 1 0 6 0 11 -1 6 0 10 1 15 2 10 3 20 11
25 20 1 2 1 2 10 -7 l9 -8 -7 -4z m-137 16 c-1 -1 -2 1 -1 2 0 1 0 1 1 0 0 -1
0 -1 0 -2z m2 -4 c0 -1 2 -4 4 -6 l4 -4 -3 -3 c-1 -2 -2 -4 -2 -5 0 -3 -2 -2
-5 2 -4 4 -5 12 -3 16 1 3 4 3 5 0z m59 -7 c2 -1 5 -3 6 -4 4 0 5 -2 1 -5 -3
-4 -8 -13 -9 -19 0 -2 -1 -4 -1 -4 -4 2 -19 6 -28 8 -6 2 -14 4 -18 6 -6 3 -6
3 -6 6 1 2 2 4 3 6 2 3 3 3 6 2 2 0 4 -1 5 -1 2 -1 6 -1 12 -1 11 1 17 4 22 9
2 4 3 4 3 2 1 -1 3 -3 4 -5z m172 1 c0 -8 2 -23 4 -27 4 -9 12 -14 26 -18 7
-2 32 -2 41 -1 5 1 5 1 9 -3 6 -5 10 -14 12 -21 2 -10 2 -10 -17 -15 -25 -5
-31 -7 -25 -8 4 -1 8 -19 4 -22 -3 -4 -5 -2 -10 9 -4 9 -4 9 -2 10 0 1 1 2 0
2 0 0 -1 3 -2 7 -3 8 -8 19 -15 27 -6 8 -21 23 -31 30 l-8 6 -8 -2 c-20 -6
-31 -12 -42 -23 l-7 -6 -9 4 c-5 3 -16 7 -24 10 -9 3 -17 6 -18 7 -3 1 -3 1 2
8 4 5 16 15 24 19 8 4 7 4 18 -4 14 -9 28 -13 42 -11 5 1 8 2 7 2 -1 1 0 1 2
2 3 2 19 15 23 19 3 4 4 4 4 -1z m-239 -2 c0 -2 0 -3 0 -4 0 -1 -8 -6 -12 -7
-1 0 -2 0 -2 1 0 4 2 6 7 9 7 4 7 4 7 1z m5 -10 l2 -3 -3 -1 c-6 -4 -10 -5
-14 -2 0 0 0 0 1 1 0 2 9 8 11 8 0 0 2 -1 3 -3z m85 -7 c7 -5 15 -11 17 -12
l5 -2 -2 -5 c-3 -6 -6 -14 -6 -19 0 -2 0 -3 -1 -3 -1 0 -12 8 -23 16 -6 4 -11
8 -12 9 -3 2 1 17 6 23 1 1 3 2 3 2 0 0 6 -4 13 -9z m-73 -4 c-2 -1 -4 -3 -7
-4 -3 -1 -4 -1 -6 1 -3 1 -3 1 -1 3 1 1 3 3 4 4 3 2 3 2 8 0 l4 -2 -2 -2z
m-16 1 c-1 -1 -3 -2 -3 -1 -1 0 0 1 1 2 3 1 4 1 2 -1z m352 -4 c13 -6 20 -15
21 -26 l0 -6 -5 -5 c-6 -5 -17 -10 -27 -14 -4 -1 -8 -2 -8 -2 -1 0 -1 2 -1 4
0 9 -6 20 -13 27 l-3 3 6 3 c10 5 14 9 17 18 1 3 4 2 13 -2z m-323 1 l4 -2 -4
-3 c-4 -3 -6 -4 -10 -6 -3 -1 -3 -1 -5 2 -1 2 -1 2 3 6 5 4 6 5 12 3z m-12 0
c0 -2 -7 -6 -8 -5 -1 0 1 1 3 3 5 2 5 2 5 2z m213 -5 c8 -6 26 -23 32 -31 6
-8 13 -20 14 -28 l2 -5 -3 -1 c-6 -2 -24 -12 -30 -16 -4 -3 -8 -7 -10 -9 -5
-4 -6 -5 -6 -3 0 3 -7 15 -12 23 -3 4 -9 11 -13 15 l-7 8 5 6 c8 7 18 14 32
21 7 3 12 6 11 6 -3 0 -24 -11 -31 -16 -5 -3 -10 -8 -13 -11 l-5 -5 -7 6 c-5
3 -11 7 -14 10 -3 2 -6 4 -6 4 0 1 13 13 18 16 3 2 9 5 12 7 7 2 22 8 23 8 1
0 4 -2 8 -5z m-183 0 c4 -1 -11 -15 -17 -15 -5 0 -4 4 4 12 4 5 5 5 8 4 2 0 4
-1 5 -1z m12 -4 l4 -1 -5 -6 c-8 -10 -15 -14 -14 -7 1 3 9 16 11 16 0 0 2 -1
4 -2z m12 -7 l4 -2 -3 -4 c-8 -10 -14 -13 -13 -7 0 3 7 16 8 16 0 0 2 -1 4 -3z
m-236 -16 c19 -13 21 -15 20 -16 -3 -3 -5 -10 -5 -19 l0 -9 -6 4 c-3 2 -12 9
-20 15 l-15 11 -1 5 c-1 4 -1 8 0 13 1 6 3 11 5 11 0 0 10 -7 22 -15z m172 2
c0 -5 0 -11 1 -12 1 -3 1 -3 -3 -4 -17 -8 -119 -42 -123 -42 -2 0 -4 5 -4 10
0 7 3 12 7 14 1 1 23 9 47 17 24 8 51 17 60 20 8 3 15 6 15 6 0 0 0 -4 0 -9z
m75 6 l3 -3 -5 -5 c-5 -7 -8 -9 -11 -8 -1 1 -1 2 0 3 0 3 8 16 9 16 0 0 2 -1
4 -3z m11 -8 c2 -1 4 -3 4 -3 0 -1 -13 -13 -15 -13 -3 -1 -4 0 -4 3 1 3 9 15
11 15 0 0 2 -1 4 -2z m82 -5 c4 -2 10 -7 13 -10 l7 -5 -4 -7 c-3 -3 -6 -11 -8
-17 l-4 -11 -7 7 c-4 4 -9 9 -11 11 -6 4 -6 7 -3 18 3 7 9 18 10 18 0 0 4 -2
7 -4z m-65 -5 c0 -1 -11 -12 -13 -13 -8 -4 -8 3 1 14 l3 4 5 -2 c2 -1 4 -3 4
-3z m-95 -3 c2 -2 1 -3 -8 -7 -39 -15 -111 -39 -119 -39 -7 0 -5 1 6 4 22 7
84 28 111 38 4 1 6 3 6 4 0 1 1 1 4 0z m-141 -14 c1 -1 0 -2 -1 -4 -3 -4 -4
-10 -4 -17 1 -4 1 -8 2 -9 0 -2 -16 9 -18 11 -3 4 -2 21 2 28 l2 3 8 -6 c5 -3
9 -6 9 -6z m485 5 c4 -8 4 -12 3 -15 -2 -5 -7 -1 -14 10 -1 4 -3 6 -3 6 1 1
11 5 11 5 0 0 2 -3 3 -6z m-224 0 c3 -1 5 -2 5 -3 0 0 -2 -3 -6 -6 -8 -9 -14
-11 -14 -5 0 4 7 16 10 16 1 0 3 -1 5 -2z m207 -4 c1 -3 2 -7 3 -10 1 -4 1 -5
0 -7 -1 -2 -3 -3 -3 -3 -2 0 -5 4 -9 11 -4 9 -4 9 2 11 2 1 5 2 5 2 0 0 1 -2
2 -4z m-192 -6 c2 -1 2 -1 -2 -7 -5 -8 -8 -11 -11 -11 -3 1 -2 7 3 16 l3 7 3
-2 c1 0 3 -2 4 -3z m176 -1 c3 -13 0 -23 -6 -15 -2 2 -8 17 -8 18 1 0 9 3 11
3 1 0 2 -3 3 -6z m-18 -2 c2 -7 2 -18 0 -19 -1 -1 -2 -1 -4 0 -2 2 -9 19 -9
20 1 0 9 3 11 3 1 0 1 -2 2 -4z m-148 -4 l3 -3 -4 -7 c-4 -8 -8 -13 -10 -12
-2 1 -1 7 1 13 4 9 5 12 6 12 0 0 2 -1 4 -3z m116 -11 c2 -10 2 -13 1 -16 -2
-1 -2 -1 -4 0 -1 1 -10 16 -10 19 0 1 9 6 10 5 1 0 2 -4 3 -8z M202 715 c-10 -3 -18 -11 -21 -19 -1 -5 -1 -5 -4 -5 -4 0 -10 -3 -11
-7 -2 -3 -3 -3 -6 -3 -13 0 -23 -17 -16 -27 4 -6 7 -7 16 -8 6 0 8 0 10 -2 7
-5 21 -5 30 -1 l5 3 4 -2 c5 -3 17 -4 23 -2 3 1 7 2 9 4 3 2 6 2 11 2 7 1 12
3 16 8 6 9 -1 23 -11 23 -2 0 -3 0 -3 3 0 6 -5 11 -10 11 -2 0 -3 1 -3 4 -2 8
-10 17 -18 19 -5 2 -15 1 -21 -1z m24 -2 c8 -4 14 -13 13 -20 0 -2 0 -2 3 -2
2 0 5 0 6 -1 3 -1 5 -8 5 -11 -1 -2 -1 -2 3 -2 7 0 12 -5 12 -13 0 -8 -6 -13
-17 -13 -5 -1 -7 -1 -10 -3 -9 -6 -23 -7 -32 -2 l-4 2 -5 -3 c-10 -4 -21 -4
-29 1 -3 2 -5 3 -10 2 -7 0 -10 1 -14 6 -2 2 -3 4 -3 8 0 9 6 16 16 17 4 0 6
1 6 2 0 1 2 3 4 5 3 3 3 3 8 3 4 -1 4 -1 4 1 0 4 5 12 8 16 4 3 11 7 15 8 6 2
15 1 21 -1z M382 694 c-7 -2 -13 -7 -16 -14 -1 -3 -2 -3 -5 -3 -9 0 -16 -8 -16
-18 l0 -4 -4 0 c-7 0 -12 -2 -16 -6 -7 -6 -9 -14 -5 -22 3 -7 14 -11 22 -9 4
1 5 1 9 -2 7 -5 17 -5 25 -1 l4 2 5 -3 c7 -3 16 -3 24 0 3 1 6 3 6 4 2 1 3 2
7 1 10 -2 22 3 25 11 2 4 1 12 -2 15 -2 3 -9 7 -12 7 -2 0 -3 1 -3 4 -1 6 -5
10 -12 11 -5 0 -5 0 -5 4 0 8 -5 17 -13 21 -5 2 -14 3 -18 2z m13 -2 c5 -2 12
-7 14 -12 1 -3 2 -7 2 -10 l0 -6 5 1 c5 0 5 0 8 -3 3 -3 4 -4 4 -8 l0 -5 3 1
c5 0 10 -2 13 -7 3 -4 2 -11 -1 -15 -4 -6 -15 -9 -22 -7 -4 1 -4 1 -9 -3 -7
-5 -17 -6 -26 -2 l-6 3 -4 -2 c-8 -4 -19 -4 -26 1 -2 3 -3 3 -7 2 -13 -2 -23
5 -23 15 0 10 10 19 21 18 l6 -1 -1 4 c-1 10 9 21 18 19 2 0 3 0 3 3 1 2 3 5
6 8 6 6 14 8 22 6z M250 473 c-5 -5 -6 -29 -3 -46 1 -9 4 -21 6 -22 0 -1 3 2 5 5 2 4 5
8 7 9 3 4 4 5 1 5 -1 0 -2 1 -3 1 -1 2 1 5 5 6 2 0 3 0 3 1 0 0 -1 2 -3 3 -2
2 -3 3 -3 4 1 3 7 2 13 -1 5 -2 6 -3 4 0 -2 2 -9 5 -12 5 -7 0 -9 -5 -5 -8 2
-2 2 -2 -1 -4 -4 -2 -5 -6 -2 -7 3 -1 3 -2 0 -5 -1 -1 -3 -3 -5 -6 -1 -2 -3
-4 -3 -4 -1 0 -5 12 -6 20 -2 17 -1 39 3 43 2 1 2 1 6 0 8 -4 24 -23 26 -33 1
-2 3 -3 3 -1 0 2 -5 11 -8 16 -8 11 -20 21 -25 21 -1 0 -2 -1 -3 -2z M455 458 c-11 -2 -29 -16 -38 -29 -1 -2 -2 -4 -2 -5 1 0 4 0 8 1 7 2
14 2 16 0 0 -2 -3 -4 -7 -7 -5 -2 -4 -3 1 -3 4 -1 9 -4 9 -6 0 -2 -2 -3 -5 -3
-2 0 -2 -1 2 -4 2 -3 5 -8 7 -13 l4 -7 2 3 c5 8 12 25 14 38 1 4 1 13 1 19 -1
15 -2 18 -12 16z m9 -5 c2 -4 1 -28 -2 -39 -2 -9 -7 -20 -10 -25 l-2 -3 -3 5
c-1 3 -3 7 -5 9 -3 4 -3 5 0 5 5 2 1 9 -6 11 -2 0 -2 0 1 3 5 4 5 7 1 9 -5 1
-7 1 -14 0 -3 -1 -6 -2 -6 -2 0 1 2 3 5 7 14 17 36 28 41 20z M290 398 c-3 -2 -7 -6 -5 -7 1 0 3 1 5 2 3 1 4 1 7 0 3 -1 4 0 5 1 1
3 -6 6 -12 4z M379 388 c-3 -2 -2 -4 2 -4 4 0 7 -1 11 -4 l2 -2 0 2 c0 6 -10 11
-15 8z M282 371 c-6 -4 -10 -12 -10 -19 0 -3 1 -7 2 -8 3 -4 4 -3 2 1 -4 7
-1 18 6 23 4 2 11 3 14 0 1 -1 1 -1 -1 -1 -3 1 -10 -3 -13 -8 -3 -7 -2 -15 3
-21 l3 -2 -4 1 c-4 2 -5 1 -1 -1 4 -2 11 -1 15 1 6 4 7 7 8 15 0 6 0 8 -2 11
-3 6 -7 9 -13 10 -4 0 -6 0 -9 -2z m19 -11 c2 -3 0 -7 -3 -7 -3 0 -5 2 -5 5 0
4 6 6 8 2z M372 361 c-7 -3 -12 -10 -12 -19 0 -5 2 -11 3 -11 1 0 1 1 0 2 -2 7
-2 11 1 18 4 7 12 11 19 8 l4 -2 -5 0 c-13 0 -19 -17 -10 -28 l2 -3 -2 0 -2 0
2 -1 c4 -2 12 -1 16 2 9 8 11 21 2 30 -5 6 -11 7 -18 4z m17 -10 c1 -2 1 -7 0
-8 -3 -2 -7 0 -8 2 -1 5 4 9 8 6z M315 336 c-5 -2 -4 -9 2 -13 3 -2 3 -3 2 -5 -1 -7 -8 -9 -13 -4 -2 2
-3 3 -2 4 0 1 0 2 -1 2 -3 0 -2 -4 1 -8 3 -3 4 -3 8 -3 2 0 5 0 6 1 2 2 3 2 5
-1 1 -1 4 -2 6 -3 4 -2 11 1 13 5 3 4 1 4 -2 0 -3 -2 -4 -3 -8 -3 -6 0 -10 4
-10 9 0 3 0 4 4 5 8 4 10 9 4 12 -4 2 -12 3 -15 2z m10 -2 c2 -1 4 -2 6 -2 1
-2 1 -2 -1 -4 -1 -2 -4 -3 -6 -4 -3 -1 -4 -1 -6 1 -1 1 -3 3 -3 4 -1 3 -1 3 0
5 3 1 5 1 10 0z M382 318 c-5 0 -9 -1 -9 -2 -1 -1 1 -1 5 0 2 1 10 1 19 2 13 0 17 0
23 -2 7 -2 9 -2 8 0 -4 3 -33 5 -46 2z M505 202 c-15 -1 -26 -4 -32 -9 -3 -2 -3 -2 -4 0 0 1 -1 2 -2 2 -4 0
3 -7 9 -9 18 -8 53 -9 73 -3 9 3 16 7 16 10 0 2 0 2 -1 1 -2 -2 -2 -2 -6 0 -5
4 -18 7 -31 8 -6 1 -12 1 -12 1 -1 0 -5 -1 -10 -1z m31 -3 c8 -1 17 -4 21 -7
l3 -2 -5 -2 c-16 -8 -47 -9 -69 -3 -10 3 -13 5 -12 7 2 2 11 5 20 6 9 2 31 2
42 1z M469 172 c0 -1 1 -1 2 -1 1 0 2 0 2 1 0 1 0 2 -2 2 -2 0 -2 -1 -2 -2z
m3 0 c0 -1 0 -1 0 -1 -1 0 -1 0 -1 1 -1 1 -1 1 0 1 1 0 1 0 1 -1z M560 172 c-1 -1 -1 -1 0 -2 1 -1 3 0 3 2 0 2 -2 2 -3 0z M483 169 c-2 -1 -1 -4 1 -4 1 0 2 1 2 1 1 2 -1 4 -3 3z m2 -2 c0 -1
0 -1 0 -1 -1 0 -1 0 -1 1 -1 1 -1 1 0 1 1 0 1 0 1 -1z M546 167 c0 0 0 -2 1 -2 1 -2 5 1 4 3 -1 2 -4 1 -5 -1z M498 166 c-2 -1 -1 -4 1 -4 3 0 3 2 2 4 -1 0 -2 1 -3 0z m2 -2 c0 -1
0 -1 0 -1 -1 0 -1 0 -1 1 -1 1 -1 1 0 1 1 0 1 0 1 -1z M531 165 c-1 -2 1 -4 3 -3 0 0 1 1 1 2 0 2 -3 3 -4 1z m3 -1 c0 -1 0
-1 -1 -1 -1 0 -1 0 -1 1 0 1 0 1 1 1 1 0 1 0 1 -1z M514 164 c-1 -1 0 -3 2 -3 1 0 2 1 2 2 0 2 -3 3 -4 1z m3 -1 c0 -1 0
-1 -1 -1 -1 0 -1 0 -1 1 0 1 0 1 1 1 1 0 1 0 1 -1z M489 147 c-3 -4 -3 -4 -4 -10 0 -6 0 -8 3 -13 3 -7 13 -18 20 -23 l5
-3 4 3 c8 5 19 16 22 23 3 6 3 8 3 13 -1 6 -3 10 -9 12 -5 2 -10 1 -15 -4 l-4
-4 -5 4 c-4 4 -5 4 -10 5 -5 0 -6 0 -10 -3z m17 -2 c2 -1 4 -3 5 -5 l2 -3 2 2
c1 1 2 3 2 3 0 2 9 6 11 6 11 0 15 -11 9 -24 -2 -5 -16 -19 -21 -22 -4 -2 -6
0 -16 9 -8 8 -13 17 -13 25 0 5 0 6 3 9 5 4 11 4 16 0z M128 128 c-6 -2 -10 -6 -12 -10 l-1 -4 -4 2 c-6 2 -18 2 -24 -1 -15
-7 -10 -21 8 -27 11 -4 36 -8 49 -8 l4 0 4 11 c6 14 7 24 3 29 -5 7 -18 11
-27 8z m19 -4 c2 -1 5 -3 6 -5 3 -5 3 -14 -3 -27 -4 -12 -2 -11 -23 -9 -26 3
-40 8 -45 16 -4 6 0 13 9 16 7 2 15 1 22 -2 4 -2 4 -2 4 0 0 5 5 11 12 13 5 1
13 1 18 -2z M589 789 c-3 -3 -5 -10 -5 -16 0 -2 1 -7 2 -11 1 -3 2 -7 3 -8 0 -1
-1 0 -2 1 -1 1 -4 4 -5 6 -2 2 -4 5 -5 8 -3 8 -11 15 -18 17 -5 0 -8 -1 -7 -6
2 -9 13 -17 22 -17 4 0 4 0 9 -6 5 -7 13 -20 11 -20 0 0 -1 1 -2 1 -4 4 -12 5
-19 2 -7 -3 -7 -9 -1 -12 6 -2 12 -1 18 2 5 2 6 3 7 1 0 0 1 -3 2 -5 l1 -4 0
4 c-1 3 -2 8 -4 13 -3 5 -5 11 -5 13 -1 4 -1 5 2 9 6 8 8 19 4 26 -2 4 -5 5
-8 2z m7 -3 c2 -7 0 -18 -5 -25 -2 -2 -2 -2 -3 3 -3 8 -2 18 2 23 3 3 5 3 6
-1z m-30 -6 c4 -2 10 -11 10 -14 0 -2 -6 -1 -11 1 -5 3 -10 8 -11 13 l0 4 4 0
c2 -1 6 -2 8 -4z m24 -43 c5 -2 5 -2 3 -4 -4 -2 -9 -4 -14 -4 -9 0 -12 5 -6 9
5 3 11 3 17 -1z M0 789 c0 -2 2 -7 3 -7 0 0 1 1 2 2 4 5 12 4 14 -1 2 -6 -3 -13 -13
-20 -7 -4 -8 -6 -2 -3 11 6 17 13 17 20 0 8 -8 12 -15 7 -2 -1 -3 -2 -3 -1 0
1 -3 5 -3 3z M91 785 c-7 -4 -10 -9 -10 -17 0 -4 -1 -7 -4 -13 l-4 -8 0 4 c-1 2
-2 5 -4 7 l-3 4 -2 -3 c-4 -4 -2 -14 3 -19 3 -2 3 -2 1 -6 -1 -5 -1 -6 0 -6 0
0 1 2 2 5 1 2 2 6 3 7 1 3 2 3 6 3 10 0 22 8 22 14 0 6 -13 5 -21 -2 -2 -2 -2
-2 1 3 1 3 3 5 4 5 2 0 9 7 11 12 2 4 3 9 1 11 -2 1 -3 1 -6 -1z m5 -4 c0 -5
-3 -11 -8 -14 -4 -3 -5 -3 -5 -1 -3 4 2 14 7 17 5 3 6 3 6 -2z m-27 -24 c0 -2
2 -5 2 -7 1 -3 0 -10 -1 -10 -2 0 -5 7 -6 11 -1 8 1 10 5 6z m30 1 c2 -2 -4
-8 -9 -10 -7 -3 -17 -5 -15 -3 2 5 8 10 11 12 4 2 12 3 13 1z M477 781 c-2 -2 -2 -2 -4 -1 -5 3 -10 0 -10 -5 0 -6 5 -12 13 -16 l4
-2 2 3 c4 5 7 12 7 15 0 3 -2 7 -3 8 -3 2 -7 1 -9 -2z m9 -1 c2 -3 1 -7 -2
-13 -3 -7 -4 -8 -8 -6 -4 2 -10 8 -11 11 0 1 0 3 0 5 1 3 5 3 9 0 2 -2 2 -2 3
0 1 5 7 7 9 3z M16 718 c-4 -4 -6 -9 -6 -15 0 -3 -1 -6 -4 -10 l-4 -6 1 4 c1 7 0 14
-1 18 l-2 3 1 -4 c1 -4 1 -11 0 -23 l-1 -8 4 3 c5 5 10 7 14 7 5 0 6 -2 3 -6
-2 -3 -7 -6 -15 -8 l-6 -2 5 0 c3 0 7 1 9 2 7 4 12 10 10 13 -1 4 -13 3 -20
-3 -1 -1 -3 -2 -3 -1 0 2 10 15 12 16 8 4 13 11 13 18 0 7 -4 8 -10 2z m8 -2
c0 -5 -3 -12 -7 -14 -2 -1 -4 -2 -4 -2 -2 0 -1 8 0 11 2 4 7 9 9 9 2 0 2 -1 2
-4z M505 709 c-3 -6 -3 -13 1 -19 1 -3 2 -7 2 -11 l1 -6 -4 4 c-6 6 -12
7 -12 1 0 -7 7 -14 15 -16 3 0 4 -1 5 -4 2 -6 5 -13 6 -13 0 1 -1 3 -2 5 -1 3
-1 5 -1 5 0 1 2 2 4 3 3 2 8 11 8 15 0 2 -1 4 -2 5 -1 2 -2 2 -4 1 -3 -2 -7
-7 -8 -11 -1 -6 -2 -3 -3 7 -1 9 -1 10 1 13 4 6 5 15 2 21 -3 3 -6 3 -9 0z m8
-4 c2 -4 1 -11 -2 -15 l-2 -3 -2 3 c-4 6 -3 14 1 18 2 3 4 1 5 -3z m-11 -27
c2 -2 9 -11 9 -13 0 -2 -5 -1 -8 1 -3 2 -5 4 -7 7 -3 7 -1 9 6 5z m24 -3 c1
-3 -2 -9 -5 -14 -4 -4 -6 -4 -6 0 0 6 2 11 5 14 3 4 5 4 6 0z M568 670 c-3 -3 -3 -9 0 -15 2 -5 11 -14 13 -14 4 0 13 11 15 17 3
10 -4 16 -11 11 l-3 -2 -3 2 c-3 4 -7 4 -11 1z m11 -3 c1 -1 2 -3 2 -3 0 -1 1
0 3 2 8 8 14 0 9 -10 -3 -5 -10 -13 -12 -13 -2 0 -9 8 -11 13 -2 5 -3 9 0 12
2 3 6 3 9 -1z M36 644 c-3 -3 -2 -10 2 -16 5 -7 6 -7 12 -3 5 4 9 10 9 14 0 5 -5 8
-10 5 -2 -1 -3 -1 -4 0 -2 3 -6 2 -9 0z m9 -3 c1 -2 1 -2 4 0 4 3 4 4 6 1 4
-3 2 -8 -5 -14 -2 -2 -5 -4 -6 -4 -2 1 -7 8 -8 13 -1 7 6 10 9 4z M596 593 c-3 -3 -5 -10 -5 -15 1 -1 2 -4 3 -6 1 -1 2 -5 2 -7 1 -3 1
-5 2 -7 0 -1 0 -1 -2 1 -3 4 -6 5 -10 5 -4 0 -4 -2 -3 -6 3 -6 9 -10 15 -10 2
0 3 2 1 14 -2 7 -2 8 0 9 0 1 1 2 1 3 0 2 0 2 -1 0 -2 -3 -4 -3 -5 2 -2 5 -1
11 3 14 4 4 4 6 -1 3z m-3 -34 c3 -2 6 -7 6 -8 0 -2 -6 -1 -9 1 -3 2 -6 7 -6
10 1 2 6 1 9 -3z M0 586 c0 -3 0 -4 1 -3 0 2 0 4 0 5 -1 1 -1 0 -1 -2z M598 458 c-2 -2 -2 -11 0 -14 l2 -3 0 3 c-2 7 -2 11 -1 13 1 3 1 4
-1 1z M592 398 c-3 -5 0 -17 6 -20 3 -2 3 -1 0 2 -4 3 -5 7 -5 12 0 7 1 7
5 4 2 -2 2 -2 2 -1 0 2 -4 5 -6 5 0 0 -1 -1 -2 -2z M548 382 c-3 0 -6 -4 -6 -9 -1 -5 0 -13 4 -20 2 -5 2 -5 5 -5 9 3 21
12 21 17 0 4 0 6 -2 8 -1 2 -7 3 -10 1 -2 -1 -2 -1 -2 2 -1 4 -5 7 -10 6z m5
-3 c2 -1 3 -4 3 -5 1 -2 1 -4 1 -4 0 0 1 0 2 1 5 3 7 3 10 0 1 -1 2 -2 2 -3 0
-3 -4 -8 -8 -11 -4 -3 -12 -7 -13 -7 -1 0 -5 9 -6 14 -1 6 -1 12 3 15 2 3 3 3
6 0z M589 367 c0 -1 0 -3 0 -5 1 -3 7 -10 10 -10 0 0 -1 2 -3 4 -6 5 -7
10 -2 10 1 0 3 0 4 -1 1 -1 2 -1 2 0 0 2 -9 4 -11 2z M560 313 c-1 -1 -4 -3 -5 -5 -2 -3 -3 -5 -3 -11 0 -8 0 -9 -3 -15
l-3 -7 -1 7 c0 5 0 8 -2 11 -4 8 -9 7 -11 -2 -2 -7 0 -15 6 -21 l3 -3 -4 -7
c-2 -5 -4 -8 -3 -8 0 0 2 2 4 6 l3 5 6 0 c9 0 19 6 21 14 0 3 -1 4 -6 4 -5 0
-9 -1 -12 -4 -3 -3 -3 -2 1 6 3 4 5 7 6 8 7 3 12 16 9 22 -1 2 -3 2 -6 0z m4
-6 c0 -6 -2 -12 -7 -14 -3 -2 -3 -2 -3 1 -1 5 1 13 5 16 2 2 4 3 4 3 1 -1 1
-3 1 -6z m-22 -16 c2 -5 2 -11 1 -18 l-1 -4 -3 2 c-3 4 -6 12 -6 17 1 6 4 10
6 8 1 -1 2 -3 3 -5z m22 -12 c3 -1 2 -3 -1 -7 -5 -5 -10 -7 -16 -7 l-5 1 5 5
c6 7 13 10 17 8z M589 282 c-2 -3 -2 -4 0 -10 2 -4 10 -12 11 -10 0 1 -1 2 -2 3 -7 4
-10 12 -8 16 1 2 5 3 8 1 1 -1 2 -1 2 0 0 1 -3 3 -6 3 -2 0 -4 -1 -5 -3z M63 200 c-1 -1 -4 -3 -7 -5 l-3 -4 -4 3 c-5 5 -7 6 -13 6 -9 0 -14
-6 -14 -15 0 -6 4 -14 11 -22 7 -6 18 -15 20 -15 4 0 23 19 27 27 3 6 3 15 1
19 -4 6 -11 8 -18 6z m12 -3 c10 -6 7 -21 -6 -34 -4 -4 -9 -8 -11 -10 l-5 -3
-6 3 c-7 5 -16 15 -20 21 -5 8 -4 18 2 22 3 3 11 2 15 0 2 -1 4 -3 4 -3 0 0 1
-2 2 -3 l3 -3 2 4 c3 4 10 8 14 8 1 0 4 -1 6 -2z" fill="black"/>
<path d="M0 796 c0 -3 1 -6 2 -8 l1 -3 3 2 c4 3 9 3 12 0 7 -6 2 -17 -11 -25
l-7 -4 0 -23 c0 -19 0 -24 2 -26 1 -4 2 -11 1 -18 l-1 -4 4 6 c3 4 4 7 4 10 0
6 2 11 6 15 5 6 10 5 10 -2 0 -7 -4 -14 -11 -17 -4 -2 -8 -7 -13 -15 l-2 -4 4
3 c5 4 12 6 16 6 4 -1 5 -3 4 -6 -2 -6 -10 -11 -19 -12 l-5 0 0 -62 0 -61 2 6
c27 82 43 155 52 228 1 7 2 14 3 15 l0 3 -29 0 -28 0 0 -4z" fill="white"/>
<path d="M59 798 c-1 -1 -2 -11 -3 -22 -10 -69 -25 -135 -49 -213 -7 -23 -7
-23 -7 -33 l1 -10 3 -1 c4 0 4 0 10 9 37 58 72 138 93 214 4 16 14 55 14 57 0
1 -14 1 -31 1 l-31 0 0 -2z m38 -12 c2 -2 1 -7 -1 -11 -2 -5 -9 -12 -11 -12
-1 0 -3 -2 -4 -5 -3 -5 -3 -5 -1 -3 8 7 21 8 21 2 0 -6 -12 -14 -22 -14 -4 0
-5 0 -6 -3 -1 -1 -2 -5 -3 -7 -1 -3 -2 -5 -2 -5 -1 0 -1 1 0 6 2 4 2 4 -1 6
-5 5 -7 15 -3 19 l2 3 3 -4 c2 -2 3 -5 4 -7 l0 -4 4 8 c3 6 4 9 4 13 0 8 3 13
10 17 3 2 4 2 6 1z m-52 -142 c1 -1 2 -1 4 0 5 3 10 0 10 -5 0 -4 -4 -10 -9
-14 -6 -4 -7 -4 -12 3 -4 6 -5 13 -2 16 3 2 7 3 9 0z" fill="white"/>
<path d="M123 798 c-1 -1 -2 -8 -4 -14 -18 -86 -56 -180 -100 -251 -5 -7 -8
-13 -8 -14 0 0 2 1 4 1 4 1 9 7 23 26 35 50 69 119 94 191 7 21 18 58 18 62 0
1 -4 1 -13 1 -14 0 -14 0 -14 -2z" fill="white"/>
<path d="M150 788 c-3 -10 -9 -31 -12 -40 0 -2 1 -1 5 2 2 2 9 7 14 10 31 21
66 34 105 39 9 1 4 1 -49 1 l-60 0 -3 -12z" fill="white"/>
<path d="M311 799 c41 -4 78 -16 108 -36 8 -6 11 -7 10 -6 -2 8 -7 26 -9 34
l-2 9 -55 0 c-31 0 -54 0 -52 -1z" fill="white"/>
<path d="M423 789 c13 -49 37 -110 62 -158 16 -31 36 -62 56 -88 13 -18 20
-25 24 -25 2 -1 3 -1 3 0 0 0 -5 7 -10 14 -17 26 -31 49 -46 81 -25 49 -42 96
-55 148 -3 11 -9 37 -9 39 0 0 -6 0 -14 0 l-14 0 3 -11z" fill="white"/>
<path d="M450 800 c0 -2 4 -20 7 -31 19 -81 52 -158 99 -230 5 -8 11 -16 12
-18 3 -4 3 -4 9 -3 3 0 6 0 6 1 0 0 -3 9 -6 20 -11 37 -35 124 -41 147 -7 30
-13 62 -17 90 l-3 24 -33 0 c-18 0 -33 0 -33 0z m36 -17 c1 -1 3 -5 3 -8 0 -3
-3 -10 -7 -15 l-2 -3 -4 2 c-8 4 -13 10 -13 16 0 5 5 8 10 5 2 -1 2 -1 4 1 2
3 6 4 9 2z m28 -74 c3 -6 2 -15 -2 -21 -2 -3 -2 -4 -1 -13 1 -10 2 -13 3 -7 1
4 5 9 8 11 2 1 3 1 4 -1 1 -1 2 -3 2 -5 0 -4 -5 -13 -8 -15 -2 -1 -4 -2 -4 -3
0 0 0 -2 1 -5 1 -2 2 -4 2 -5 -1 0 -4 7 -6 13 -1 3 -2 4 -5 4 -8 2 -15 9 -15
16 0 6 6 5 12 -1 l4 -4 -1 6 c0 4 -1 8 -2 11 -4 6 -4 13 -1 19 3 3 6 3 9 0z" fill="white"/>
<path d="M518 794 c7 -54 15 -91 38 -175 24 -83 29 -100 30 -100 0 0 4 1 7 2
l7 2 0 13 0 12 -3 0 c-5 0 -12 5 -14 10 -1 4 0 6 3 6 4 0 7 -1 10 -5 2 -2 2
-2 2 -1 -1 2 -1 4 -2 7 0 2 -1 6 -2 7 -1 2 -2 5 -3 7 0 5 3 13 6 14 l3 1 0 63
c0 56 0 64 -2 69 0 3 -1 6 -2 6 0 1 -3 0 -6 -2 -6 -3 -12 -4 -18 -2 -6 3 -6 9
1 12 7 3 15 2 19 -2 1 0 2 -1 2 -1 2 0 -6 13 -11 20 -5 6 -5 6 -9 6 -9 0 -20
8 -22 17 -1 5 2 6 7 6 7 -2 15 -9 18 -17 1 -3 3 -6 5 -8 1 -2 4 -5 5 -6 1 -1
2 -2 2 -1 -1 1 -2 5 -3 8 -1 4 -2 9 -2 11 0 9 5 19 10 18 2 -1 5 -7 5 -13 0
-6 -2 -12 -6 -17 -4 -6 -4 -6 3 -24 l4 -8 0 35 0 36 -41 0 -41 0 0 -6z m61
-125 l3 -2 3 2 c7 5 14 -1 11 -11 -2 -6 -11 -17 -15 -17 -2 0 -11 9 -13 14 -3
6 -3 12 0 15 4 3 8 3 11 -1z" fill="white"/>
<path d="M258 795 c-28 -3 -54 -12 -77 -24 -11 -5 -31 -18 -39 -25 -6 -5 -6
-5 -11 -19 -3 -8 -8 -22 -12 -32 -4 -10 -7 -18 -8 -19 0 -1 3 3 7 9 20 26 48
49 78 63 46 23 100 29 149 16 40 -11 78 -35 102 -65 4 -4 7 -8 7 -8 0 0 -2 6
-5 14 -3 7 -8 20 -11 29 -4 8 -7 16 -8 17 -2 3 -20 15 -31 20 -21 11 -44 19
-70 24 -13 2 -57 2 -71 0z" fill="white"/>
<path d="M590 787 c-4 -5 -5 -15 -2 -23 1 -5 1 -5 3 -3 5 7 7 18 5 25 -1 4 -3
4 -6 1z" fill="white"/>
<path d="M9 787 c-1 -1 -3 -2 -4 -3 -2 -3 -3 -2 -4 1 -1 2 -1 -1 -1 -11 l0
-14 4 2 c14 8 20 21 11 25 -1 0 -2 1 -2 1 0 0 -2 -1 -4 -1z" fill="white"/>
<path d="M90 783 c-5 -3 -10 -13 -7 -17 0 -2 1 -2 5 1 5 3 8 9 8 14 0 5 -1 5
-6 2z" fill="white"/>
<path d="M554 780 c2 -7 11 -15 19 -15 4 0 4 1 0 8 -3 6 -9 10 -15 11 l-4 0 0
-4z" fill="white"/>
<path d="M479 780 c-1 -1 -2 -2 -2 -3 -1 -2 -1 -2 -3 0 -4 3 -8 3 -9 0 -1 -4
1 -7 5 -11 4 -5 8 -7 10 -5 3 2 7 11 7 14 0 6 -5 9 -8 5z" fill="white"/>
<path d="M276 768 c-55 -5 -100 -26 -138 -64 -18 -18 -30 -35 -39 -55 -3 -6
-9 -18 -13 -26 -7 -16 -11 -29 -15 -49 -2 -16 -2 -48 0 -64 12 -76 57 -140
123 -174 11 -5 34 -14 38 -14 1 0 2 1 3 1 2 2 2 2 -1 7 -4 5 -4 5 -12 2 -2 0
-3 -1 -3 0 0 0 2 2 5 3 3 1 5 2 5 3 0 1 -3 2 -7 3 -33 12 -64 34 -88 62 -24
29 -40 65 -47 105 -3 17 -4 56 -1 74 4 24 10 42 20 62 24 49 67 88 119 105 56
19 116 13 165 -16 53 -32 88 -84 98 -148 2 -16 2 -57 0 -73 -2 -13 -6 -27 -10
-40 -3 -8 -3 -10 -2 -13 1 -2 2 -9 2 -15 l1 -11 5 12 c11 21 18 49 21 73 1 14
1 41 -1 53 -3 21 -5 30 -13 44 -9 16 -18 33 -27 53 -9 21 -22 37 -42 54 -29
23 -61 38 -99 44 -9 2 -38 3 -47 2z" fill="white"/>
<path d="M64 757 c-1 -3 1 -11 3 -14 1 -2 3 -3 3 -3 0 0 1 2 1 3 2 8 -4 20 -7
14z" fill="white"/>
<path d="M86 757 c-3 -2 -9 -7 -11 -12 -2 -2 8 0 15 3 5 2 11 8 9 10 -1 2 -9
1 -13 -1z" fill="white"/>
<path d="M265 755 c-83 -11 -152 -72 -171 -152 -5 -17 -4 -15 -2 -13 3 1 9 1
13 0 1 -1 2 0 3 3 6 12 23 12 28 0 2 -4 2 -5 6 -4 5 0 9 -3 9 -8 0 -3 0 -4 4
-3 5 0 9 -3 9 -8 0 -2 0 -3 1 -2 2 0 6 -2 6 -4 1 -1 2 -2 4 -2 2 0 6 -3 6 -6
0 -1 4 -1 19 -1 l19 0 12 6 c13 6 26 11 39 14 l8 1 0 91 c0 85 0 90 -2 90 -1
0 -6 -1 -11 -2z m-42 -39 c8 -2 16 -11 18 -19 0 -3 1 -4 3 -4 5 0 10 -5 10
-11 0 -3 1 -3 3 -3 10 0 17 -14 11 -23 -4 -5 -9 -7 -16 -8 -5 0 -8 0 -11 -2
-2 -2 -6 -3 -9 -4 -6 -2 -18 -1 -23 2 l-4 2 -5 -3 c-9 -4 -23 -4 -30 1 -2 2
-4 2 -10 2 -9 1 -12 2 -16 8 -7 10 3 27 16 27 3 0 4 0 6 3 1 4 7 7 11 7 3 0 3
0 4 5 5 15 26 25 42 20z" fill="white"/>
<path d="M281 655 l0 -102 -4 0 c-3 0 -46 0 -97 0 l-93 -1 -1 -4 c0 -2 0 -6 0
-9 l1 -4 97 0 97 0 0 -29 0 -28 6 -4 c4 -2 7 -5 8 -6 1 0 2 -1 2 -1 1 0 1 8 1
20 0 11 0 26 0 34 l0 14 94 0 95 0 1 7 c0 5 0 8 0 9 0 1 -23 1 -81 1 -44 1
-86 1 -94 1 l-15 0 0 102 0 102 -8 0 -9 0 0 -102z" fill="white"/>
<path d="M300 669 l0 -88 11 1 c33 2 59 -2 80 -12 l7 -4 10 5 c18 9 40 15 64
17 6 1 12 1 12 1 1 1 -3 17 -7 28 -17 53 -52 95 -100 119 -23 12 -43 18 -71
20 l-6 1 0 -88z m100 23 c8 -4 13 -13 13 -21 0 -4 0 -4 5 -4 7 -1 11 -5 12
-11 0 -3 1 -4 3 -4 3 0 10 -4 12 -7 3 -3 4 -11 2 -15 -3 -8 -15 -13 -25 -11
-4 1 -5 0 -7 -1 0 -1 -3 -3 -6 -4 -8 -3 -17 -3 -24 0 l-5 3 -4 -2 c-8 -4 -18
-4 -25 1 -4 3 -5 3 -9 2 -8 -2 -19 2 -22 9 -4 8 -2 16 5 22 4 4 9 6 16 6 l4 0
0 4 c0 10 7 18 16 18 3 0 4 0 5 3 3 7 9 12 16 14 4 1 13 0 18 -2z" fill="white"/>
<path d="M573 738 c-6 -4 -3 -9 6 -9 5 0 10 2 14 4 2 2 2 2 -3 4 -6 4 -12 4
-17 1z" fill="white"/>
<path d="M17 717 c-3 -3 -5 -8 -5 -13 0 -5 0 -5 5 -2 4 2 7 9 7 14 0 3 0 4 -2
4 -1 0 -3 -1 -5 -3z" fill="white"/>
<path d="M205 714 c-4 -1 -11 -5 -15 -8 -3 -4 -8 -12 -8 -16 0 -2 0 -2 -4 -1
-5 0 -5 0 -8 -3 -2 -2 -4 -4 -4 -5 0 -1 -2 -2 -6 -2 -10 -1 -16 -8 -16 -17 0
-4 1 -6 3 -8 4 -5 7 -6 14 -6 5 1 7 0 10 -2 8 -5 19 -5 29 -1 l5 3 4 -2 c9 -5
23 -4 32 2 3 2 5 2 10 3 11 0 17 5 17 13 0 8 -5 13 -12 13 -4 0 -4 0 -3 2 0 3
-2 10 -5 11 -1 1 -4 1 -6 1 -3 0 -3 0 -3 2 1 7 -5 16 -13 20 -6 2 -15 3 -21 1z" fill="white"/>
<path d="M508 708 c-4 -4 -5 -12 -1 -18 l2 -3 2 3 c3 4 4 11 2 15 -1 4 -3 6
-5 3z" fill="white"/>
<path d="M0 698 c0 -6 0 -9 1 -6 1 4 1 11 0 14 -1 1 -1 -2 -1 -8z" fill="white"/>
<path d="M382 692 c-6 -2 -14 -9 -15 -14 0 -3 -1 -3 -3 -3 -9 2 -19 -9 -18
-19 l1 -4 -6 1 c-11 1 -21 -8 -21 -18 0 -10 10 -17 23 -15 4 1 5 1 7 -2 7 -5
18 -5 26 -1 l4 2 6 -3 c9 -4 19 -3 26 2 5 4 5 4 9 3 7 -2 18 1 22 7 3 4 4 11
1 15 -3 5 -8 7 -13 7 l-3 -1 0 5 c0 4 -1 5 -4 8 -3 3 -3 3 -8 3 l-5 -1 0 6 c0
7 -3 13 -8 17 -6 6 -13 7 -21 5z" fill="white"/>
<path d="M11 686 c-5 -3 -11 -9 -11 -12 0 -2 0 -2 4 -2 10 2 20 9 19 13 -1 2
-7 2 -12 1z" fill="white"/>
<path d="M494 679 c-1 -2 4 -10 9 -13 3 -2 8 -3 8 -1 0 0 -1 3 -3 6 -4 7 -11
11 -14 8z" fill="white"/>
<path d="M520 675 c-3 -3 -5 -8 -5 -14 0 -4 2 -4 6 0 3 5 6 11 5 14 -1 4 -3 4
-6 0z" fill="white"/>
<path d="M570 668 c-3 -3 -2 -7 0 -12 2 -5 9 -13 11 -13 2 0 9 8 12 13 5 10
-1 18 -9 10 -2 -2 -3 -3 -3 -2 0 0 -1 2 -2 3 -3 4 -7 4 -9 1z" fill="white"/>
<path d="M38 643 c-2 -2 -2 -3 -2 -6 1 -5 6 -12 8 -13 1 0 4 2 6 4 7 6 9 11 5
14 -2 3 -2 2 -6 -1 -3 -2 -3 -2 -4 0 -2 4 -5 4 -7 2z" fill="white"/>
<path d="M73 597 c-3 -6 -16 -26 -24 -38 l-7 -11 0 -16 c2 -42 12 -80 32 -118
9 -18 8 -17 16 -16 6 1 14 1 17 -1 3 -1 2 -6 -1 -16 l-3 -9 2 -3 c1 -1 3 -4 5
-6 l4 -4 5 2 c6 2 13 1 20 -1 8 -3 11 -5 11 -7 0 -2 -7 -14 -10 -17 -1 -2 0
-2 6 -7 11 -8 19 -13 33 -20 11 -5 38 -15 41 -15 1 0 2 2 3 7 1 6 5 15 8 17 1
1 -2 2 -11 6 -46 15 -86 46 -114 88 -35 52 -48 123 -33 181 1 4 2 7 2 8 0 0
-1 -2 -2 -4z" fill="white"/>
<path d="M118 599 c-4 -1 -7 -4 -9 -9 -2 -6 -2 -6 -4 -3 -4 3 -9 3 -13 0 -3
-3 -4 -8 -5 -22 l0 -10 46 0 c25 0 46 0 46 1 0 1 -2 4 -4 4 -1 1 -2 0 -3 0 -2
-1 -2 -1 -2 1 0 4 -2 6 -7 4 l-3 -2 0 2 c2 6 2 7 0 9 -2 2 -6 3 -10 0 l-2 -1
1 4 c1 7 -2 10 -6 10 -2 0 -4 -1 -5 -1 -2 -1 -2 -1 -2 1 0 8 -10 15 -18 12z" fill="white"/>
<path d="M502 594 c2 -6 5 -26 6 -37 3 -40 -9 -95 -28 -126 -2 -2 -3 -7 -4
-11 -2 -15 -10 -34 -17 -45 -3 -4 -3 -5 -2 -9 l0 -6 5 4 c8 6 23 25 31 37 18
27 32 64 37 102 1 6 2 18 3 28 l0 18 -7 10 c-4 5 -10 15 -14 21 -4 7 -8 13 -9
14 -1 1 -1 1 -1 0z" fill="white"/>
<path d="M596 590 c-3 -3 -4 -10 -2 -14 3 -8 6 -3 6 9 0 4 0 7 -1 7 0 0 -2 -1
-3 -2z" fill="white"/>
<path d="M474 586 c-19 -2 -38 -6 -53 -12 -11 -4 -26 -12 -31 -16 l-3 -3 50 0
50 0 0 6 c0 8 -2 24 -3 25 0 0 -5 0 -10 0z" fill="white"/>
<path d="M314 580 c-6 -1 -12 -1 -13 -1 -1 -1 -1 -4 -1 -12 l0 -12 41 0 42 0
7 5 6 5 -7 3 c-22 10 -47 14 -75 12z" fill="white"/>
<path d="M264 571 c-14 -4 -39 -14 -39 -16 0 0 12 0 27 0 l26 0 0 10 c0 6 0 9
-1 9 -1 0 -7 -1 -13 -3z" fill="white"/>
<path d="M598 571 c0 -1 0 -4 1 -8 l1 -7 0 8 c0 4 0 8 0 8 -1 0 -1 -1 -2 -1z" fill="white"/>
<path d="M584 562 c-1 -4 7 -12 12 -12 3 0 3 0 2 4 -4 6 -12 11 -14 8z" fill="white"/>
<path d="M35 537 c-3 -3 -5 -7 -5 -8 0 -2 -1 -5 -2 -7 0 -3 -1 -7 -1 -9 0 -5
-2 -13 -4 -16 -2 -3 -2 -4 -2 -5 2 -3 11 -37 15 -52 2 -9 3 -17 4 -17 0 0 2 1
4 3 2 2 5 4 7 5 4 2 5 2 6 0 4 -3 8 -17 9 -26 1 -13 -3 -23 -13 -31 l-4 -4 1
-14 c1 -7 2 -15 3 -17 l0 -4 3 3 c1 1 3 6 5 11 3 7 4 8 3 13 -3 10 3 24 12 30
3 2 5 3 5 4 0 0 -3 4 -6 10 -11 19 -21 44 -27 70 -5 18 -7 33 -8 52 l0 16 -5
-7z" fill="white"/>
<path d="M536 531 c-3 -55 -19 -103 -48 -141 -3 -5 -12 -15 -19 -22 -8 -8 -11
-12 -11 -13 1 -1 2 -1 3 -1 2 0 14 -10 17 -13 6 -7 7 -13 7 -22 0 -7 1 -8 3
-11 7 -8 12 -22 11 -32 -1 -3 -1 -8 -2 -10 -1 -4 -1 -5 1 -9 1 -2 3 -5 4 -6
l3 -3 0 4 c1 2 1 10 2 17 5 58 28 158 49 212 l3 9 -3 4 c-3 6 -5 13 -3 21 l2
6 -9 11 c-4 6 -9 11 -9 11 0 1 -1 -5 -1 -12z" fill="white"/>
<path d="M206 532 c0 0 3 -2 8 -4 8 -4 22 -13 30 -19 6 -5 6 -5 17 -6 6 -1 13
-2 14 -3 l3 0 0 16 0 16 -36 0 c-20 0 -36 0 -36 0z" fill="white"/>
<path d="M87 530 c0 -6 1 -13 2 -13 1 0 2 1 3 3 3 7 13 9 18 4 1 -2 2 -3 2 -4
0 -1 1 -1 4 0 4 1 4 1 7 -1 1 -1 3 -3 4 -5 0 -2 1 -2 5 -2 3 0 4 0 6 -3 1 -1
2 -4 2 -7 l0 -4 3 2 c5 2 12 0 15 -5 1 -2 1 -3 2 -2 2 2 6 1 9 -1 l3 -2 9 4
c17 7 31 10 51 10 l14 0 -3 3 c-7 6 -20 14 -31 19 l-11 6 -57 0 -57 0 0 -2z" fill="white"/>
<path d="M300 514 l0 -18 4 3 c7 5 17 9 28 12 9 2 11 2 26 2 13 0 17 0 23 -2
9 -2 19 -7 26 -11 l5 -4 2 4 c6 7 14 8 21 2 3 -2 3 -2 5 0 2 1 3 3 4 6 1 5 5
10 9 11 4 1 8 1 11 -1 0 -1 1 0 1 2 1 5 6 9 11 9 4 0 9 -3 9 -6 0 -2 2 3 2 6
l0 3 -93 0 -94 0 0 -18z" fill="white"/>
<path d="M25 525 c-1 -2 -2 -3 -1 -4 2 -2 2 -2 3 2 0 3 1 5 1 5 -1 0 -2 -1 -3
-3z" fill="white"/>
<path d="M470 524 c-2 -2 -3 -4 -3 -7 0 -4 0 -4 -2 -3 -7 7 -18 2 -20 -8 0 -4
-1 -5 -3 -5 -1 -1 -2 -2 -3 -3 0 -3 -1 -3 -4 1 -3 4 -8 6 -12 4 -5 -1 -9 -6
-10 -11 0 -3 -1 -4 -3 -1 -2 2 -6 3 -9 2 -4 -2 -5 -5 -5 -10 1 -4 1 -4 -1 -3
-6 2 -7 2 -9 1 -3 -1 -5 -6 -5 -9 1 -3 1 -4 -2 -3 -4 0 -8 -4 -8 -7 0 -2 1 -3
7 -4 3 -1 10 -4 15 -6 5 -2 9 -3 10 -3 0 0 4 3 8 5 14 10 35 17 49 17 6 0 7 0
10 -2 2 -1 3 -2 3 -2 1 1 6 17 8 23 0 4 2 11 3 17 l2 11 -2 4 c-4 6 -10 7 -14
2z" fill="white"/>
<path d="M97 523 c-2 -1 -3 -4 -4 -6 -1 -2 -2 -3 -3 -3 -1 1 -1 0 -1 -1 0 -4
4 -20 6 -30 2 -5 3 -9 3 -10 0 0 4 0 10 0 9 0 25 -3 33 -5 4 -2 4 -2 5 0 1 7
11 11 16 8 3 -2 3 -2 5 1 4 3 4 11 1 13 -2 2 -6 2 -8 1 -2 -3 -3 -2 -3 0 0 1
-1 3 -3 5 -3 4 -7 4 -12 1 -4 -2 -5 -1 -4 5 0 3 0 5 -2 6 -2 2 -6 3 -9 1 -2
-3 -3 -2 -2 2 0 3 0 4 -2 6 -3 3 -5 3 -8 0 -3 -3 -4 -3 -4 0 0 1 -1 3 -3 5 -3
4 -8 4 -11 1z" fill="white"/>
<path d="M598 520 c-4 -2 -20 -5 -26 -5 -4 0 -9 1 -11 1 -4 2 -4 2 -5 -1 -1
-1 -1 -4 -1 -7 0 -9 3 -15 10 -18 4 -1 19 -1 28 1 l7 1 0 15 c0 8 0 14 0 14 0
0 -1 -1 -2 -1z" fill="white"/>
<path d="M18 518 c-2 0 -6 -1 -10 -1 l-8 0 0 -13 0 -12 7 0 c8 1 11 3 14 8 3
4 4 15 2 18 -1 2 -2 2 -5 0z" fill="white"/>
<path d="M344 511 c-8 -1 -17 -4 -23 -6 -8 -3 -17 -8 -18 -9 0 -1 2 -1 4 -2
19 -5 41 -14 55 -23 l8 -6 2 3 c1 1 3 2 5 3 2 0 3 1 3 4 0 2 0 4 3 6 3 3 4 3
7 3 4 -1 4 -1 4 2 0 3 4 9 7 9 2 0 5 0 7 -1 l4 -1 -4 3 c-5 4 -20 11 -28 14
-6 1 -30 2 -36 1z" fill="white"/>
<path d="M212 501 c-9 -1 -23 -6 -32 -10 l-8 -3 0 -4 c0 -3 0 -4 2 -4 2 1 8
-1 9 -3 0 -2 1 -2 3 1 4 2 6 3 9 0 2 -1 2 -1 4 0 4 3 10 2 13 -1 3 -3 3 -3 3
-9 0 -6 0 -6 2 -6 3 0 6 -4 6 -8 0 -3 0 -3 4 -3 2 0 4 -1 5 -2 l3 -3 0 6 c3
25 7 34 15 36 3 1 13 -1 22 -5 l6 -3 0 9 0 9 -4 0 c-19 4 -48 5 -62 3z" fill="white"/>
<path d="M300 479 l0 -14 5 -5 5 -4 5 1 c12 4 31 6 47 4 6 -1 7 -1 7 0 0 3 -6
7 -17 13 -14 8 -28 14 -46 18 l-6 2 0 -15z" fill="white"/>
<path d="M12 491 c-2 -1 -4 -2 -4 -2 0 -1 1 -8 3 -16 4 -21 8 -50 11 -81 1 -8
3 -16 3 -18 1 -2 2 -6 2 -8 1 -4 2 -7 5 -10 2 -2 5 -7 7 -10 3 -5 3 -5 2 -2 0
2 0 8 0 13 -1 11 -1 11 -4 15 -11 13 -12 29 -3 43 l3 5 -3 15 c-3 16 -13 51
-15 55 -1 1 -1 2 -2 2 0 0 -2 -1 -5 -1z" fill="white"/>
<path d="M596 489 c-2 -1 -3 -2 -3 -2 0 -1 -2 -19 -4 -40 -5 -50 -7 -69 -8
-104 -2 -29 -4 -95 -4 -119 0 -12 0 -13 2 -13 1 0 5 -1 8 -3 4 -2 8 -3 10 -4
l3 0 0 28 0 28 -5 5 c-7 7 -9 13 -6 17 2 3 6 4 9 2 2 -1 2 -1 2 33 l0 35 -3 1
c-4 1 -7 6 -8 10 0 5 1 6 7 4 l4 -1 0 5 c0 4 0 5 -2 7 -6 3 -9 16 -6 21 2 1 2
1 5 0 l3 -2 0 22 c0 18 0 22 -2 24 -2 5 -2 13 0 16 2 1 2 3 2 16 l0 15 -4 -1z" fill="white"/>
<path d="M0 442 l0 -47 4 -1 c4 -1 13 -7 15 -10 l3 -3 -1 3 c0 2 -1 10 -2 18
-3 28 -8 62 -12 80 -1 7 -2 7 -4 7 l-3 0 0 -47z" fill="white"/>
<path d="M557 477 c-21 -57 -41 -143 -47 -206 -3 -23 -3 -25 2 -35 3 -5 5 -11
6 -14 l1 -6 12 -1 c19 -2 33 -7 38 -15 1 -1 2 -4 2 -7 0 -5 0 -5 2 -4 1 0 6 1
10 1 6 0 7 -1 12 -4 l5 -3 0 9 0 10 -4 0 c-2 1 -7 2 -10 4 -4 2 -7 3 -9 3 l-2
-1 0 39 c2 83 4 126 13 205 1 18 3 34 3 34 0 1 -16 0 -17 0 0 -1 -15 -58 -17
-65 -1 -8 -3 -12 -3 -9 0 1 4 18 9 38 5 19 9 36 8 36 0 0 -1 1 -3 1 -2 1 -4 1
-5 1 -1 1 -3 -1 -6 -11z m-2 -97 c1 -1 2 -3 3 -4 0 -3 0 -3 2 -2 3 2 9 1 10
-1 2 -2 2 -4 2 -8 0 -5 -12 -14 -21 -17 -3 0 -3 0 -5 5 -4 7 -5 15 -4 20 1 9
8 12 13 7z m11 -67 c3 -6 -2 -19 -9 -22 -1 -1 -3 -4 -6 -8 -4 -8 -4 -9 -1 -6
3 3 7 4 12 4 5 0 6 -1 6 -4 -2 -8 -12 -14 -21 -14 l-6 0 -3 -5 c-2 -4 -4 -6
-4 -6 -1 0 1 3 3 8 l4 7 -3 3 c-6 6 -8 14 -6 21 2 9 7 10 11 2 2 -3 2 -6 2
-11 l1 -7 3 7 c3 6 3 7 3 15 0 6 1 8 3 11 2 4 6 7 9 7 0 0 1 -1 2 -2z" fill="white"/>
<path d="M247 484 c-11 -11 -12 -55 -2 -81 2 -6 2 -6 4 -4 2 3 2 0 0 -5 -1 -2
-3 -9 -5 -14 -3 -9 -7 -16 -10 -16 -1 0 -1 -1 0 -1 1 -1 3 -1 4 0 1 0 2 0 2
-1 0 -1 -4 -2 -7 -2 -1 1 -3 1 -4 2 -2 0 -2 0 -2 -4 1 -5 4 -11 7 -14 4 -3 4
-4 0 -4 -2 0 -3 0 -3 -1 1 -1 4 -1 11 -1 12 0 20 -1 29 -4 7 -3 6 -4 -2 -1 -4
1 -10 2 -15 3 -8 1 -21 0 -21 -1 0 0 2 -3 4 -6 4 -5 4 -5 8 -5 13 3 30 3 30 1
0 0 -5 -1 -12 -1 -6 0 -14 0 -16 -1 l-4 -1 5 -5 6 -6 7 4 c3 1 9 3 11 3 l5 1
-6 -2 c-7 -3 -15 -6 -15 -7 0 -2 22 -15 35 -20 20 -8 33 -10 55 -10 l16 0 13
4 c10 3 35 10 38 10 3 0 -2 3 -9 6 -8 4 -17 7 -25 8 -3 0 -6 1 -6 1 0 1 8 0
16 -1 8 -3 16 -6 22 -10 l6 -3 7 2 c8 2 23 10 23 11 0 1 -1 1 -2 1 -4 0 -3 2
1 3 6 3 14 11 12 12 -1 1 -3 1 -4 1 -3 0 -3 1 1 4 3 2 7 8 7 10 0 0 -1 1 -3 1
-3 0 -9 3 -9 5 0 1 0 1 2 0 3 -3 5 -2 4 0 0 1 -1 6 -1 11 -1 5 -1 11 -2 14 0
3 0 4 1 4 1 -1 8 11 12 20 12 29 13 68 2 74 -10 5 -41 -5 -61 -19 -8 -6 -11
-7 -8 -4 1 2 -2 4 -10 7 l-4 1 -5 -5 c-2 -3 -7 -9 -9 -13 -10 -15 -13 -18 -15
-20 l-3 -2 -2 2 c-2 2 -2 3 -2 7 2 10 7 21 13 30 2 3 4 5 4 6 -1 0 -5 0 -10 1
l-9 0 -4 -5 c-4 -7 -5 -11 -9 -24 -4 -12 -4 -13 -7 -13 -4 1 -6 7 -6 17 0 9 1
13 4 22 1 2 1 2 -5 0 -3 0 -8 -2 -12 -4 -6 -3 -8 -3 -3 1 l2 1 -4 5 c-9 9 -28
21 -41 25 -8 3 -12 3 -15 0z m13 -12 c5 -3 13 -11 18 -18 3 -5 8 -14 8 -16 0
-2 -2 -1 -3 1 -2 10 -18 29 -26 33 -4 1 -4 1 -6 0 -4 -4 -5 -26 -3 -43 1 -8 5
-20 6 -20 0 0 2 2 3 4 2 3 4 5 5 6 3 3 3 4 0 5 -3 1 -2 5 2 7 3 2 3 2 1 4 -4
3 -2 8 5 8 3 0 10 -3 12 -5 2 -3 1 -2 -4 0 -6 3 -12 4 -13 1 0 -1 1 -2 3 -4 2
-1 3 -3 3 -3 0 -1 -1 -1 -3 -1 -4 -1 -6 -4 -5 -6 1 0 2 -1 3 -1 3 0 2 -1 -1
-5 -2 -1 -5 -5 -7 -9 -2 -3 -5 -6 -5 -5 -2 1 -5 13 -6 22 -2 11 -2 29 0 38 2
11 5 12 13 7z m205 -16 c1 -2 2 -4 2 -14 0 -6 0 -15 -1 -19 -2 -13 -9 -30 -14
-38 l-2 -3 -4 7 c-2 5 -5 10 -7 13 -4 3 -4 4 -2 4 3 0 5 1 5 3 0 2 -5 5 -9 6
-5 0 -6 1 -1 3 4 3 7 5 7 7 -2 2 -9 2 -16 0 -4 -1 -7 -1 -8 -1 0 1 1 3 2 5 9
13 27 27 38 29 5 1 7 0 10 -2z m-164 -59 c1 -1 1 -3 1 -3 -1 -1 -2 -2 -5 -1
-3 1 -4 1 -7 0 -5 -3 -7 -2 -4 1 3 5 11 6 15 3z m90 -12 c2 -1 3 -3 3 -5 l0
-2 -2 2 c-4 3 -7 4 -11 4 -3 0 -4 0 -4 1 0 5 10 5 14 0z m-92 -15 c1 -1 4 -4
5 -7 2 -3 2 -5 2 -11 -1 -8 -2 -11 -8 -15 -4 -2 -11 -3 -15 -1 -4 2 -3 3 1 1
l4 -1 -3 2 c-5 6 -6 14 -3 21 3 5 10 9 13 8 2 0 2 0 1 1 -3 3 -10 2 -14 0 -7
-5 -10 -16 -6 -23 2 -4 1 -5 -2 -1 -1 1 -2 5 -2 8 0 7 4 15 10 19 5 3 12 2 17
-1z m84 -8 c5 -1 10 -8 12 -13 3 -11 -5 -24 -16 -25 -2 0 -6 0 -7 1 l-2 1 2 0
2 0 -2 3 c-9 11 -3 28 10 28 l5 0 -4 2 c-7 3 -15 -1 -19 -8 -3 -7 -3 -11 -1
-18 1 -1 1 -2 0 -2 -1 0 -3 6 -3 11 0 9 5 16 12 19 4 2 6 2 11 1z m-53 -28 c6
-3 4 -8 -4 -12 -4 -1 -4 -2 -4 -5 0 -5 4 -9 10 -9 4 0 5 1 8 3 3 4 5 4 2 0 -2
-4 -9 -7 -13 -5 -2 1 -5 2 -6 3 -2 3 -3 3 -5 1 -1 -1 -4 -1 -6 -1 -4 0 -5 0
-8 3 -3 4 -4 8 -1 8 1 0 1 -1 1 -2 -1 -1 0 -2 2 -4 5 -5 12 -3 13 4 1 2 1 3
-2 5 -6 4 -7 11 -2 13 3 1 11 0 15 -2z m92 -16 c3 -1 5 -2 6 -2 1 -2 -1 -2 -8
0 -6 2 -10 2 -23 2 -9 -1 -17 -1 -19 -2 -4 -1 -6 -1 -5 0 0 1 4 2 9 2 9 2 32
2 40 0z" fill="white"/>
<path d="M172 478 c-1 -1 -3 -3 -4 -5 -1 -1 -2 -3 -2 -3 0 0 -1 0 -1 1 -4 6
-13 5 -16 -1 -1 -2 -2 -3 -2 -4 0 0 3 -2 6 -3 24 -9 56 -29 79 -50 5 -4 9 -7
9 -7 0 0 -1 4 -2 9 -1 4 -2 11 -3 16 0 4 -1 8 -1 9 -1 0 -2 2 -2 3 0 1 -1 3
-2 4 -2 2 -7 3 -9 1 -2 -2 -2 -1 -1 3 2 5 -2 10 -8 8 -2 0 -2 0 -2 2 3 7 3 11
-1 15 -2 3 -8 3 -11 0 -3 -2 -3 -2 -4 0 -3 3 -7 2 -10 -2 l-1 -3 -2 3 c-1 2
-3 3 -5 4 -3 1 -2 1 -5 0z" fill="white"/>
<path d="M101 466 c1 -3 3 -7 4 -10 3 -6 5 -12 10 -20 l4 -7 2 2 c2 2 4 2 7 2
4 0 5 0 5 2 0 1 1 3 3 4 4 5 11 3 13 -3 1 -4 1 -4 4 -2 5 2 10 -2 10 -8 0 -2
0 -3 4 -2 5 0 8 -2 8 -8 0 -3 1 -4 2 -5 1 0 3 -1 4 -3 1 -2 1 -2 4 0 8 4 16
-1 16 -10 0 -2 1 -3 3 -3 1 0 3 0 4 -1 1 0 2 0 4 2 4 4 10 4 13 0 2 -2 3 -4 3
-4 0 0 1 -1 3 0 2 0 5 -1 5 -4 0 -1 1 -2 3 -3 l4 -1 2 5 c1 5 1 5 -1 9 -3 7
-26 26 -48 40 -30 20 -60 32 -85 33 l-12 0 2 -5z" fill="white"/>
<path d="M330 458 c-3 0 -6 -8 -7 -18 -1 -6 -1 -9 0 -13 1 -6 4 -9 5 -8 1 0 2
6 4 12 2 6 5 15 8 20 l4 8 -6 0 c-3 0 -6 0 -8 -1z" fill="white"/>
<path d="M599 456 c-1 -2 -1 -7 0 -9 1 -2 1 0 1 4 0 7 0 8 -1 5z" fill="white"/>
<path d="M365 452 c-8 -9 -16 -31 -13 -36 2 -2 5 1 12 12 7 11 16 24 18 24 1
0 1 0 1 1 0 1 -11 4 -13 4 -1 0 -3 -2 -5 -5z" fill="white"/>
<path d="M447 453 c-8 -5 -18 -12 -24 -20 -3 -4 -5 -6 -5 -7 0 0 3 1 6 2 7 1
9 1 14 0 4 -2 4 -5 -1 -9 -3 -3 -3 -3 -1 -3 7 -2 11 -9 6 -11 -3 0 -3 -1 0 -5
2 -2 4 -6 5 -9 l3 -5 2 3 c3 5 8 16 10 25 3 11 4 35 2 39 -2 4 -8 4 -17 0z" fill="white"/>
<path d="M138 439 c-2 0 -4 -5 -4 -9 0 -2 0 -2 -2 -1 -3 3 -11 2 -11 -2 0 -2
10 -15 18 -25 20 -24 48 -44 77 -55 8 -4 16 -6 16 -4 0 0 -1 2 -2 3 -3 4 -5
10 -5 15 0 3 1 3 3 3 7 -1 17 16 12 19 -2 1 -2 1 -4 0 -2 -1 -2 -1 -2 3 0 4
-2 5 -5 3 -3 -1 -3 -1 -3 2 0 2 -3 6 -6 6 -3 0 -5 0 -8 -4 -2 -3 -3 -3 -4 -2
-1 2 -6 3 -6 1 -1 -1 -2 -1 -2 -1 -2 0 -2 1 -1 3 3 10 -7 17 -15 10 l-4 -3 0
3 c0 4 -3 6 -6 6 -2 -1 -2 -1 -1 1 2 6 0 11 -5 11 -2 0 -5 -1 -6 -2 -2 -1 -2
-1 -1 4 0 5 0 6 -2 7 -3 2 -5 2 -9 -1 -2 -2 -2 -2 -2 2 -1 6 -5 9 -10 7z" fill="white"/>
<path d="M51 428 c-12 -6 -22 -23 -21 -36 1 -6 5 -14 9 -19 l3 -3 0 9 c0 11 1
19 4 27 3 7 3 6 1 -3 -2 -8 -4 -24 -3 -30 l1 -4 6 6 c11 10 14 21 12 35 -1 6
-7 20 -8 20 0 0 -2 -1 -4 -2z" fill="white"/>
<path d="M593 392 c0 -5 1 -9 5 -12 l2 -2 0 8 c0 7 0 8 -2 10 -4 3 -5 3 -5 -4z" fill="white"/>
<path d="M91 396 c-12 -2 -21 -10 -25 -21 -1 -5 -1 -8 0 -12 l1 -4 3 5 c3 6
16 20 18 20 1 0 -2 -3 -5 -6 -8 -8 -19 -25 -14 -21 1 0 4 1 7 1 12 2 20 7 25
18 4 6 7 18 6 19 -1 1 -11 2 -16 1z" fill="white"/>
<path d="M0 387 l0 -7 7 -4 c4 -2 10 -6 13 -9 5 -4 5 -4 5 -2 0 2 -1 5 -2 8
-3 7 -11 16 -18 18 l-5 2 0 -6z" fill="white"/>
<path d="M547 379 c-4 -3 -4 -9 -3 -15 1 -5 5 -14 6 -14 1 0 9 4 13 7 4 3 8 8
8 11 0 1 -1 2 -2 3 -3 3 -5 3 -10 0 -1 -1 -2 -1 -2 -1 0 0 0 2 -1 4 0 2 -4 7
-6 7 -1 0 -2 -1 -3 -2z" fill="white"/>
<path d="M0 369 c0 -6 0 -10 1 -11 2 -1 12 0 18 1 l6 1 -7 6 c-3 3 -9 7 -12 9
l-6 3 0 -9z" fill="white"/>
<path d="M97 366 c-4 -5 -12 -9 -18 -10 -11 -1 -11 -1 -13 -5 -4 -6 -4 -6 -1
-5 6 4 20 7 26 6 l3 0 0 -8 c0 -13 -5 -27 -14 -34 -3 -3 -9 -6 -16 -9 -2 -1
-3 -2 -4 -6 -1 -3 -1 -6 -2 -7 0 -2 0 -2 3 1 4 4 7 5 10 5 2 0 4 1 6 5 2 3 7
10 12 15 l8 10 0 8 c1 9 3 15 9 22 6 5 6 4 -1 12 l-4 4 -4 -4z" fill="white"/>
<path d="M44 366 c-1 -2 1 -30 2 -37 l2 -7 1 4 c1 5 1 11 -1 28 -1 13 -2 16
-4 12z" fill="white"/>
<path d="M591 363 c0 -1 1 -4 4 -6 l5 -4 0 5 c0 6 -1 8 -6 8 -3 0 -3 0 -3 -3z" fill="white"/>
<path d="M294 361 c0 -1 -1 -2 -1 -3 0 -5 6 -7 8 -3 2 5 -3 9 -7 6z" fill="white"/>
<path d="M122 359 c-9 -2 -17 -9 -21 -17 -1 -3 -3 -15 -2 -15 1 0 4 4 9 8 7 7
16 13 19 13 1 0 0 -1 -2 -2 -6 -3 -13 -9 -19 -16 -3 -3 -6 -6 -6 -6 0 0 5 0
10 0 12 1 17 3 24 9 3 3 14 18 14 20 0 0 -3 2 -6 3 -6 3 -15 4 -20 3z" fill="white"/>
<path d="M18 356 c-4 -1 -8 -1 -12 -1 l-6 1 0 -6 1 -6 4 -2 c8 -2 16 -12 18
-20 l1 -3 2 3 c1 3 1 5 0 16 -1 15 -2 20 -3 20 0 0 -3 -1 -5 -2z" fill="white"/>
<path d="M27 359 c0 -1 1 -1 2 -2 1 -1 1 -1 0 0 -1 2 -2 2 -2 2z M26 354 c1 -3 1 -8 1 -11 2 -17 2 -17 6 -18 2 0 5 -2 7 -4 l4 -2 0 5
c-2 11 -8 24 -15 31 l-3 3 0 -4z" fill="white"/>
<path d="M458 350 c0 -4 2 -8 4 -8 1 0 2 0 3 -1 1 -2 -2 -8 -5 -11 -2 -3 -3
-3 -1 -3 1 0 2 -1 3 -2 1 -2 -4 -9 -9 -12 -3 -2 -4 -3 -3 -3 2 -1 -3 -6 -12
-10 -5 -3 -13 -5 -24 -8 -41 -10 -53 -14 -68 -24 -16 -10 -27 -23 -35 -38 -7
-13 -8 -16 -5 -24 1 -4 2 -7 2 -7 1 0 3 3 6 8 19 27 35 37 97 58 36 12 49 19
62 32 9 11 12 22 8 34 -2 5 -11 15 -18 19 l-5 3 0 -3z" fill="white"/>
<path d="M382 350 c-3 -5 3 -10 7 -7 1 1 1 6 0 8 -2 2 -6 1 -7 -1z" fill="white"/>
<path d="M75 348 c-11 -4 -21 -13 -24 -23 -2 -6 -1 -14 2 -19 l1 -4 3 7 c1 3
3 8 4 11 3 5 10 14 14 17 2 1 0 -1 -3 -5 -6 -7 -13 -19 -15 -27 0 -2 -1 -4 -1
-4 2 0 17 7 20 9 9 6 16 21 16 35 l0 5 -6 0 c-3 0 -8 -1 -11 -2z" fill="white"/>
<path d="M0 335 l1 -5 5 -2 c3 -2 8 -4 11 -6 3 -2 5 -3 5 -3 0 3 -4 10 -7 14
-4 3 -11 8 -14 8 -1 0 -1 -2 -1 -6z" fill="white"/>
<path d="M315 334 c-1 -2 -1 -2 0 -5 0 -1 2 -3 3 -4 2 -2 3 -2 6 -1 2 1 5 2 6
4 2 2 2 2 1 4 -3 1 -8 3 -12 3 -1 0 -2 -1 -4 -1z" fill="white"/>
<path d="M134 330 c-1 -1 -4 -3 -6 -5 -5 -2 -7 -2 -16 -3 l-11 0 -5 -4 c-5 -5
-19 -24 -19 -25 1 0 2 1 4 3 2 1 6 4 9 5 4 2 8 5 11 7 7 7 12 9 21 10 6 0 9 0
13 -2 9 -4 18 -16 18 -26 0 -5 0 -5 -3 -7 -3 -1 -8 -1 -17 -1 -17 0 -23 1 -31
10 -4 4 -7 6 -8 6 -2 0 -12 -5 -12 -6 0 0 1 -2 3 -4 3 -3 4 -3 12 -3 15 0 26
-7 28 -20 1 -5 1 -7 0 -13 -1 -4 -3 -8 -4 -9 0 -1 -1 -3 -1 -6 0 -5 -1 -9 -4
-11 -1 -2 -3 -8 -5 -23 -2 -12 -3 -23 -4 -24 l0 -3 33 0 34 1 3 3 c4 2 4 3 4
7 0 7 3 16 8 23 2 3 7 9 11 13 l7 7 -2 7 c-3 15 2 31 14 43 4 4 4 4 3 8 -1 3
-1 3 -10 6 -24 7 -49 19 -68 34 -3 2 -6 4 -7 4 0 0 -2 -1 -3 -2z" fill="white"/>
<path d="M0 319 l0 -9 5 0 c2 1 7 2 9 2 2 1 6 2 7 2 2 0 2 1 -4 5 -4 3 -9 6
-12 7 l-5 2 0 -9z" fill="white"/>
<path d="M27 321 c0 -2 -1 -4 -1 -5 0 0 2 -3 4 -5 6 -7 8 -11 11 -17 1 -3 2
-6 2 -6 2 -2 0 6 -3 13 -2 7 -2 8 1 1 3 -5 5 -16 5 -19 -1 -5 0 -13 1 -13 0 0
1 4 1 8 1 5 2 12 3 16 1 5 1 8 0 9 0 2 -2 4 -2 6 -3 6 -10 12 -18 14 -2 1 -2
1 -4 -2z" fill="white"/>
<path d="M235 319 c-4 -2 -9 -12 -10 -20 -2 -10 0 -19 6 -29 l3 -5 5 4 c6 6
12 10 20 12 l7 1 -4 6 c-1 3 -3 6 -3 7 0 2 0 2 7 -9 3 -5 6 -9 7 -9 0 0 1 3 3
6 1 4 2 7 2 8 1 1 0 2 -2 3 -2 1 -7 4 -13 8 -5 3 -10 6 -10 6 -1 0 -3 -2 -5
-4 -2 -2 -4 -3 -5 -3 0 1 7 8 8 8 1 0 -1 3 -4 6 -4 3 -7 6 -7 6 -1 0 -3 -1 -5
-2z" fill="white"/>
<path d="M116 315 c-5 -1 -11 -5 -13 -8 l-3 -3 6 1 c7 2 16 0 23 -3 7 -3 6 -3
-1 -1 -4 2 -8 2 -14 2 -10 1 -24 -2 -18 -3 2 0 3 -1 6 -4 7 -11 26 -15 43 -11
l7 1 0 4 c-2 9 -8 18 -16 23 -4 2 -15 4 -20 2z" fill="white"/>
<path d="M559 310 c-4 -3 -6 -11 -5 -16 0 -3 0 -3 3 -1 5 2 7 8 7 14 0 3 0 5
-1 6 0 0 -2 -1 -4 -3z" fill="white"/>
<path d="M13 310 c-3 -1 -7 -2 -9 -2 -3 0 -4 0 -4 -2 0 -2 1 -3 6 -6 4 -2 8
-3 10 -3 l3 0 0 8 c0 4 0 7 0 7 0 0 -3 -1 -6 -2z" fill="white"/>
<path d="M22 310 c-1 0 -1 -4 -1 -7 l0 -7 4 -2 c8 -3 14 -12 18 -25 1 -3 2 -6
2 -6 1 1 -3 21 -6 27 -3 8 -8 16 -12 19 -4 3 -5 4 -5 1z" fill="white"/>
<path d="M481 304 c-1 -2 -5 -7 -9 -11 l-6 -6 3 -1 c1 -1 4 -4 7 -7 6 -6 9
-14 9 -22 0 -3 1 -5 1 -5 0 0 1 1 2 2 0 1 1 1 2 1 1 -1 -9 -10 -14 -12 -3 -2
-10 -4 -15 -5 -6 -2 -14 -4 -19 -6 l-8 -2 2 -3 c3 -5 4 -10 4 -21 -1 -9 -2
-17 -6 -26 0 0 3 -3 10 -6 6 -3 11 -6 13 -8 2 -1 3 -2 3 -2 1 0 1 7 1 16 0 15
0 17 2 20 2 3 9 8 15 10 l3 1 0 7 c0 4 -1 8 -3 12 -2 4 -3 7 -3 7 2 1 7 -13 8
-19 0 -6 0 -6 2 -6 4 1 23 4 27 4 l4 0 0 4 c-1 6 -7 18 -14 27 -3 4 -6 9 -7
10 -1 1 -2 2 -2 1 -2 0 -1 2 1 7 3 9 3 19 0 28 -2 5 -8 16 -10 16 0 0 -2 -2
-3 -5z" fill="white"/>
<path d="M0 297 c0 -2 0 -3 2 -3 0 1 2 1 4 1 4 0 4 1 -1 4 l-5 2 0 -4z" fill="white"/>
<path d="M54 299 c-1 0 -1 -1 -1 -2 0 -2 0 -2 1 0 1 2 1 4 0 2z M56 297 c-1 -2 -4 -14 -4 -17 0 -3 3 1 4 5 0 2 1 6 1 8 1 6 1 7 -1 4z M52 292 c0 -1 0 -1 1 0 0 1 0 1 0 2 -1 0 -1 -1 -1 -2z" fill="white"/>
<path d="M536 295 c-3 -3 -4 -11 -1 -17 1 -3 3 -6 4 -7 l3 -2 1 4 c1 7 1 13
-1 18 -3 5 -4 6 -6 4z" fill="white"/>
<path d="M8 294 l-7 -2 -1 -9 0 -9 3 2 c2 2 4 6 6 10 1 4 3 7 5 8 3 1 3 1 -6
0z" fill="white"/>
<path d="M14 291 c0 0 -2 -3 -4 -7 -1 -4 -4 -8 -6 -10 -5 -5 -6 -10 -2 -9 1 1
7 2 12 3 l9 1 0 4 c1 6 -4 19 -6 19 -1 0 -2 0 -3 -1z" fill="white"/>
<path d="M22 290 c0 -4 5 -13 9 -18 5 -7 8 -13 9 -22 1 -5 2 -6 3 -6 2 0 2 1
1 4 -1 10 -5 26 -8 31 -5 9 -14 16 -14 11z M45 258 c0 -1 0 -2 1 -2 0 0 0 1 0 2 0 1 0 2 -1 2 0 0 -1 -1 0 -2z" fill="white"/>
<path d="M65 289 c-6 -5 -8 -9 -8 -21 -1 -5 -1 -10 -1 -11 -1 -2 -1 -6 -1 -8
-1 -4 -1 -5 1 -5 2 0 2 1 2 3 0 9 7 31 12 40 1 2 2 3 2 4 0 1 -4 0 -7 -2z M73 289 c-2 -3 -1 -4 1 -1 2 1 3 3 1 3 0 0 -1 -1 -2 -2z" fill="white"/>
<path d="M279 286 c-1 -3 -2 -7 -3 -9 0 -4 0 -4 1 -3 2 3 4 3 3 0 -1 -3 -1 -5
1 -8 l2 -2 0 2 c2 3 3 2 2 -1 0 -3 1 -5 4 -11 5 -9 10 -20 11 -30 1 -6 2 -8 2
-6 9 23 26 44 49 56 l5 3 -16 0 c-22 1 -34 4 -58 14 0 0 -2 -2 -3 -5z" fill="white"/>
<path d="M75 286 c-2 -3 -5 -7 -6 -10 l-3 -5 5 -1 c10 -2 10 -2 10 5 1 3 1 6
2 7 2 1 2 1 2 -1 -2 -9 -2 -12 0 -17 5 -9 13 -14 28 -18 l7 -2 1 3 c2 4 2 16
1 20 -3 10 -11 15 -23 16 l-8 0 3 -3 c2 -2 5 -5 7 -6 4 -4 11 -12 11 -13 0 -1
-3 2 -7 6 -10 10 -24 22 -25 23 0 0 -2 -2 -5 -4z" fill="white"/>
<path d="M455 281 c-5 -3 -11 -6 -15 -8 l-7 -2 6 -5 c6 -6 10 -14 11 -23 l0
-6 3 1 c7 1 21 6 25 8 3 2 5 4 6 6 1 4 -1 13 -4 18 -3 7 -12 16 -15 16 -1 0
-5 -2 -10 -5z" fill="white"/>
<path d="M590 281 c-2 -3 0 -9 5 -13 2 -2 4 -4 4 -4 1 0 1 4 1 8 0 8 0 9 -2
10 -3 2 -7 1 -8 -1z" fill="white"/>
<path d="M219 276 c-11 -12 -15 -28 -10 -43 2 -8 4 -10 4 -4 0 10 5 21 14 30
l6 6 -2 2 c-1 2 -3 6 -5 9 l-3 5 -4 -5z" fill="white"/>
<path d="M256 279 c-8 -3 -21 -13 -20 -16 2 -2 13 -10 18 -13 l5 -2 5 2 c5 3
14 6 18 6 l3 1 -9 11 c-8 11 -9 12 -12 12 -2 0 -5 -1 -8 -1z" fill="white"/>
<path d="M557 279 c-3 -1 -7 -4 -10 -8 l-5 -5 5 -1 c6 0 11 2 16 7 3 4 4 6 1
7 -2 1 -3 1 -7 0z" fill="white"/>
<path d="M53 278 c-3 -4 -4 -11 -5 -22 0 -12 0 -12 2 -12 2 0 2 0 2 10 0 5 1
13 2 17 1 8 1 9 -1 7z" fill="white"/>
<path d="M25 273 c0 -2 1 -4 2 -4 3 0 2 1 0 4 l-2 3 0 -3z" fill="white"/>
<path d="M422 266 c-5 -1 -18 -6 -27 -9 -40 -14 -60 -25 -74 -44 -4 -5 -3 -5
1 -2 5 4 16 9 25 11 6 2 13 2 33 3 31 1 36 2 58 8 l11 3 0 6 c-1 8 -5 16 -10
21 -6 7 -7 7 -17 3z" fill="white"/>
<path d="M65 265 c-1 -1 -1 -2 -1 -2 0 -1 5 -1 10 -1 l10 -1 -2 3 c-1 2 -1 3
-9 3 -7 0 -7 0 -8 -2z" fill="white"/>
<path d="M15 266 c-13 -3 -14 -3 -15 -7 l0 -3 9 3 c5 1 12 2 17 3 4 0 8 0 8 1
0 0 0 1 -1 2 -1 2 -6 3 -18 1z" fill="white"/>
<path d="M228 258 c-8 -7 -14 -21 -14 -33 0 -4 4 -8 12 -15 l5 -4 2 7 c0 4 2
9 3 12 3 7 13 17 18 20 l3 2 -7 4 c-3 2 -9 6 -11 8 -3 2 -5 4 -5 4 -1 0 -3 -2
-6 -5z" fill="white"/>
<path d="M23 259 c-6 0 -18 -3 -21 -4 -3 -2 -3 -6 1 -7 3 -1 24 -4 31 -4 l5 0
-1 4 c0 3 -1 6 -1 8 -2 3 -2 4 -7 4 -2 0 -6 0 -7 -1z" fill="white"/>
<path d="M63 258 c-1 -1 -3 -13 -3 -14 0 -1 34 3 35 5 1 1 -6 6 -11 9 -1 1 -6
1 -11 2 -9 0 -10 0 -10 -2z" fill="white"/>
<path d="M276 254 c-3 -1 -8 -3 -11 -4 l-4 -3 9 -4 c11 -6 21 -13 25 -18 3 -3
3 -3 3 -1 0 3 -4 15 -8 23 -2 3 -3 7 -3 7 -2 1 -6 1 -11 0z" fill="white"/>
<path d="M95 246 c-19 -5 -67 -6 -88 -1 -3 0 -6 1 -7 1 0 0 0 -6 0 -13 l0 -13
7 -1 c33 -8 85 -5 105 7 4 2 5 3 6 11 0 4 0 5 -1 5 -17 6 -17 6 -22 4z" fill="white"/>
<path d="M255 244 c-11 -6 -21 -22 -21 -34 0 -5 0 -5 4 -7 2 -1 6 -4 8 -6 3
-2 5 -3 5 -3 1 0 1 3 2 5 5 14 18 25 31 28 3 1 5 2 4 2 -1 2 -13 10 -21 13 -5
2 -8 4 -8 4 0 0 -2 -1 -4 -2z" fill="white"/>
<path d="M420 227 c-11 -2 -27 -4 -40 -4 l-10 0 3 -5 c1 -3 2 -6 2 -8 0 -1 1
-2 7 -3 11 -4 23 -9 37 -18 7 -5 13 -9 13 -9 1 0 5 14 6 22 2 9 1 17 -2 23 -3
4 -4 4 -16 2z" fill="white"/>
<path d="M201 221 c-19 -18 -23 -38 -11 -58 l2 -4 1 8 c2 17 14 33 29 37 5 1
6 2 3 4 -3 1 -11 11 -14 15 l-3 4 -7 -6z" fill="white"/>
<path d="M278 224 c-11 -4 -24 -21 -24 -31 0 -1 -1 -3 -1 -3 0 0 -3 2 -6 4 -4
3 -9 6 -12 8 -5 3 -6 3 -10 2 -15 -4 -27 -17 -30 -33 -2 -10 -1 -13 3 -18 3
-2 6 -5 8 -6 l3 -2 1 7 c0 4 2 10 4 13 3 7 11 15 17 18 10 4 23 5 33 0 4 -2
10 -8 14 -14 4 -6 5 1 2 9 -4 6 -4 6 -1 3 3 -2 5 -7 5 -11 0 -4 2 -5 6 -3 5 2
6 10 2 17 -1 1 -1 2 0 2 2 0 4 -6 4 -11 0 -3 1 -5 1 -5 1 0 6 5 8 8 5 10 0 30
-10 44 -3 4 -3 4 -7 4 -3 0 -7 -1 -10 -2z" fill="white"/>
<path d="M355 221 c-11 -1 -21 -5 -29 -10 -4 -2 -7 -4 -7 -5 0 0 3 1 6 2 11 2
25 3 36 2 14 -1 13 -2 12 2 0 2 -2 5 -3 7 -2 4 -4 4 -15 2z" fill="white"/>
<path d="M103 219 c-16 -5 -37 -8 -61 -7 -16 1 -31 3 -39 5 l-3 1 0 -26 c0
-21 0 -27 2 -35 1 -6 3 -11 4 -12 3 -4 28 -8 51 -7 23 1 39 5 41 10 3 5 14 74
13 74 -1 0 -4 -1 -8 -3z m-26 -20 c6 -5 8 -15 3 -24 -4 -8 -23 -27 -27 -27 -2
0 -13 9 -20 15 -7 8 -11 16 -11 22 0 9 5 15 14 15 6 0 8 -1 13 -6 l4 -3 3 4
c3 2 6 4 7 5 4 1 10 1 14 -1z M0 149 c0 -1 0 -3 1 -3 1 -1 1 0 0 4 -1 2 -1 2 -1 -1z" fill="white"/>
<path d="M506 213 c-22 -2 -38 -7 -41 -15 -2 -5 -3 -22 -1 -50 2 -29 3 -43 6
-49 6 -12 30 -19 56 -16 24 2 34 10 37 27 2 12 4 37 5 61 1 26 1 27 -5 32 -10
8 -33 12 -57 10z m21 -11 c13 -1 26 -4 31 -8 4 -2 4 -2 6 0 1 1 1 1 1 -1 0 -3
-7 -7 -16 -10 -20 -6 -55 -5 -73 3 -6 2 -13 9 -9 9 1 0 2 -1 2 -2 1 -2 1 -2 4
0 6 5 17 8 32 9 5 0 9 1 10 1 0 0 6 0 12 -1z m-54 -30 c0 -1 -1 -1 -2 -1 -1 0
-2 0 -2 1 0 1 0 2 2 2 2 0 2 -1 2 -2z m90 0 c0 -2 -2 -3 -3 -2 -1 1 -1 1 0 2
1 2 3 2 3 0z m-77 -6 c0 0 -1 -1 -2 -1 -2 0 -3 3 -1 4 2 1 4 -1 3 -3z m65 2
c1 -2 -3 -5 -4 -3 -1 0 -1 2 -1 2 1 2 4 3 5 1z m-49 -5 c-1 -2 -4 -1 -5 1 -1
2 2 3 4 2 1 -1 1 -2 1 -3z m33 1 c0 -2 -2 -3 -4 -2 -1 2 0 4 2 4 1 0 2 -1 2
-2z m-17 -1 c0 -2 -3 -3 -4 -1 -1 1 0 3 2 3 1 0 2 -1 2 -2z m-9 -18 l5 -4 4 4
c5 5 10 6 15 4 6 -2 8 -6 9 -12 0 -5 0 -7 -3 -13 -3 -7 -14 -18 -22 -23 l-4
-3 -5 3 c-7 5 -17 16 -20 23 -3 5 -3 7 -3 13 1 6 1 6 4 10 4 3 5 3 10 3 5 -1
6 -1 10 -5z M471 172 c0 -1 0 -1 1 -1 0 0 0 0 0 1 0 1 0 1 -1 1 -1 0 -1 0 0 -1z M484 167 c0 -1 0 -1 1 -1 0 0 0 0 0 1 0 1 0 1 -1 1 -1 0 -1 0 0 -1z M499 164 c0 -1 0 -1 1 -1 0 0 0 0 0 1 0 1 0 1 -1 1 -1 0 -1 0 0 -1z M532 164 c0 -1 0 -1 1 -1 1 0 1 0 1 1 0 1 0 1 -1 1 -1 0 -1 0 -1 -1z M515 163 c0 -1 0 -1 1 -1 1 0 1 0 1 1 0 1 0 1 -1 1 -1 0 -1 0 -1 -1z" fill="white"/>
<path d="M333 208 c-20 -4 -24 -7 -24 -18 l0 -6 10 0 c11 0 26 -2 37 -5 l6 -2
2 2 c4 4 8 14 9 21 1 3 1 6 1 7 0 0 -3 0 -7 1 -9 1 -26 1 -34 0z" fill="white"/>
<path d="M375 203 c0 -6 -5 -18 -9 -24 -2 -2 -1 -3 10 -8 6 -3 15 -9 19 -12
l8 -6 6 4 c8 5 15 11 19 16 l4 5 -11 8 c-14 9 -24 14 -35 18 -10 3 -11 3 -11
-1z" fill="white"/>
<path d="M494 198 c-9 -1 -18 -4 -20 -6 -1 -2 2 -4 12 -7 22 -6 53 -5 69 3 l5
2 -3 2 c-4 3 -13 6 -21 7 -11 1 -33 1 -42 -1z" fill="white"/>
<path d="M62 197 c-2 -1 -5 -4 -7 -6 l-2 -4 -3 3 c-1 1 -2 3 -2 3 0 0 -2 2 -4
3 -4 2 -12 3 -15 0 -6 -4 -7 -14 -2 -22 4 -6 13 -16 20 -21 l6 -3 5 3 c2 2 7
6 11 10 13 13 16 28 6 34 -4 3 -7 3 -13 0z" fill="white"/>
<path d="M576 187 l-4 -2 -1 -7 0 -8 3 2 c6 4 14 2 17 -4 3 -5 3 -13 0 -20 -3
-7 -10 -15 -18 -19 -5 -2 -6 -4 -6 -5 0 -2 0 -4 -1 -6 0 -3 0 -3 3 -2 5 1 14
6 19 10 3 2 6 6 8 9 l4 6 0 19 0 19 -4 3 c-4 4 -10 6 -15 6 -1 0 -3 -1 -5 -1z" fill="white"/>
<path d="M236 183 c-14 -5 -24 -18 -25 -33 l0 -7 7 -3 7 -4 3 7 c3 9 6 14 11
19 7 6 12 8 21 9 4 0 9 0 11 -1 2 0 4 0 4 0 0 2 -9 10 -13 12 -6 3 -19 4 -26
1z M229 139 c-1 -1 -1 -1 -1 -2 1 -1 2 1 2 2 -1 1 -1 1 -1 0z" fill="white"/>
<path d="M310 181 c-1 0 -2 -1 -2 -3 -1 -1 -3 -4 -6 -7 -2 -2 -4 -4 -4 -5 1 0
3 1 5 2 4 2 6 2 13 2 8 0 9 0 16 -3 6 -3 9 -6 24 -21 l18 -18 1 3 c3 6 11 13
19 17 l7 5 -2 2 c-4 4 -16 11 -23 14 -17 8 -37 13 -54 13 -6 0 -11 0 -12 -1z" fill="white"/>
<path d="M173 173 c-10 -8 -17 -16 -20 -22 -1 -3 -2 -5 -2 -5 0 -1 16 -10 17
-10 0 0 2 2 4 4 3 5 14 14 18 15 2 0 3 1 1 2 -2 2 -6 10 -8 16 l-3 6 -7 -6z" fill="white"/>
<path d="M430 173 c-4 -5 -13 -13 -20 -18 -3 -1 -5 -3 -5 -3 0 0 2 -2 5 -4 11
-8 19 -22 20 -33 l0 -7 4 3 c5 3 15 11 23 18 l5 5 0 13 -1 14 -4 3 c-2 2 -9 6
-14 9 l-10 5 -3 -5z" fill="white"/>
<path d="M107 173 c-1 0 -1 -2 -2 -5 0 -3 0 -4 3 -5 4 -1 10 -7 11 -11 0 -1 0
-4 -1 -6 -2 -4 -2 -4 0 -4 6 3 22 6 26 6 5 -1 5 -1 6 3 3 6 10 14 16 19 l5 4
-32 0 c-17 0 -32 0 -32 -1z" fill="white"/>
<path d="M578 171 c-2 -1 -4 -2 -6 -3 -2 -2 -2 -3 -2 -8 0 -4 0 -12 -1 -18 -1
-6 -1 -11 -1 -12 2 -1 10 4 14 9 6 6 9 14 9 21 -1 5 -1 7 -3 8 -3 3 -6 4 -10
3z" fill="white"/>
<path d="M252 167 c-7 -2 -15 -10 -18 -16 -4 -9 -1 -21 7 -25 4 -2 5 -1 4 4 0
3 0 6 1 7 1 1 1 0 1 -4 0 -7 2 -10 7 -11 6 0 10 1 8 2 -1 1 -1 8 0 10 1 3 2 2
1 -2 0 -3 0 -5 2 -7 2 -2 2 -2 6 -1 5 1 10 5 13 10 2 3 2 5 2 11 0 7 -1 12 -5
16 -5 7 -18 10 -29 6z" fill="white"/>
<path d="M309 168 c-9 -3 -16 -10 -19 -20 -2 -6 -2 -11 0 -16 2 -3 5 -7 7 -7
1 0 1 2 1 4 0 5 1 9 3 9 1 0 1 -1 0 -2 -1 -1 -1 -4 -1 -6 0 -6 3 -9 10 -9 l5
0 -1 4 c0 4 1 9 3 9 1 0 1 -1 0 -2 -1 -3 -1 -7 0 -9 1 -2 3 -2 7 -2 10 1 21 9
28 19 l3 4 -8 8 c-13 13 -27 19 -38 16z" fill="white"/>
<path d="M293 165 c-2 0 -4 -1 -6 -1 -2 0 -4 0 -4 0 0 -1 1 -3 3 -6 l3 -5 1 3
c1 1 3 4 5 5 1 2 2 4 2 4 -1 2 -2 2 -4 0z" fill="white"/>
<path d="M104 160 c0 -1 -1 -4 -1 -7 -1 -3 -2 -6 -2 -6 1 0 2 1 4 3 3 2 4 3 4
2 0 -7 -22 -14 -47 -16 -21 -2 -40 0 -60 7 -2 0 -2 0 -2 -6 l1 -6 5 -2 c17 -5
42 -7 53 -3 4 1 17 5 29 8 19 5 23 7 25 9 5 6 3 14 -5 18 -4 1 -4 1 -4 -1z" fill="white"/>
<path d="M187 152 c-5 -3 -11 -8 -14 -12 -2 -3 -3 -5 -3 -5 0 -1 30 -18 41
-25 0 0 1 1 2 2 1 1 1 1 0 1 -3 -1 -5 0 -5 3 0 4 4 8 11 12 7 3 7 6 -1 10 -8
3 -17 9 -20 13 -4 4 -5 4 -11 1z" fill="white"/>
<path d="M395 147 c-7 -3 -16 -11 -19 -17 -1 -1 -1 -3 -1 -3 12 -10 24 -17 33
-19 3 -1 9 -1 13 -1 l7 1 -1 7 c0 8 -2 15 -9 23 -4 5 -14 13 -16 13 0 0 -3 -2
-7 -4z" fill="white"/>
<path d="M490 145 c-3 -3 -3 -4 -3 -9 0 -8 5 -17 13 -25 10 -9 12 -11 16 -9 5
3 19 17 21 22 6 13 2 24 -9 24 -2 0 -11 -4 -11 -6 0 0 -1 -2 -2 -3 l-2 -2 -2
3 c-3 5 -8 8 -13 8 -3 0 -5 -1 -8 -3z" fill="white"/>
<path d="M136 145 c-16 -4 -111 -31 -115 -33 -2 -2 0 -3 28 -22 17 -11 38 -25
46 -31 l16 -11 49 16 c27 9 54 19 61 21 12 4 16 5 14 3 -1 -1 -125 -43 -128
-43 0 0 0 1 1 1 1 1 -8 7 -35 26 -19 13 -40 27 -46 31 l-10 7 -4 -2 c-5 -2 -9
-10 -9 -19 0 -8 2 -12 5 -16 l3 -2 -1 5 c0 7 1 15 4 20 3 5 4 3 1 -2 -3 -5 -4
-16 -2 -22 0 -2 3 -4 9 -9 l8 -6 0 9 c0 8 0 10 2 14 1 3 2 6 2 6 0 1 -3 3 -7
6 -8 5 -9 6 -7 6 1 0 26 -17 60 -40 11 -8 21 -14 22 -14 1 0 1 -2 0 -3 -4 -2
-6 -8 -7 -15 0 -10 2 -17 8 -20 3 -1 6 -2 8 -2 6 0 46 13 87 28 41 14 42 15
43 18 1 3 1 4 -1 2 -5 -4 -104 -38 -122 -42 -12 -3 -18 2 -18 14 0 7 2 12 6
15 2 1 21 8 43 15 47 16 85 30 87 31 2 2 1 5 -1 7 -2 2 -83 50 -88 52 -5 2 -7
2 -12 1z m12 -19 c2 -2 6 -4 7 -6 4 -5 3 -15 -3 -29 l-4 -11 -4 0 c-13 0 -38
4 -49 8 -18 6 -23 20 -8 27 6 3 18 3 24 1 l4 -2 1 4 c5 10 20 14 32 8z M222 105 c-1 0 -1 -1 0 -1 0 -1 1 0 2 1 1 1 0 1 -2 0z" fill="white"/>
<path d="M355 140 c-5 -9 -15 -17 -25 -20 -5 -1 -9 -2 -15 -2 -5 1 -10 1 -11
1 -2 1 -2 -2 1 -3 1 -1 7 -5 12 -8 4 -4 11 -9 14 -10 l5 -3 3 4 c8 9 17 16 28
22 l7 4 -9 8 c-9 9 -9 9 -10 7z" fill="white"/>
<path d="M227 133 c-2 -4 -1 -12 3 -16 3 -4 5 -5 5 -2 0 1 1 3 2 5 l3 3 -4 4
c-2 2 -4 5 -4 6 -1 3 -4 3 -5 0z" fill="white"/>
<path d="M594 129 c-3 -3 -7 -7 -8 -8 -4 -2 -4 -2 0 -4 2 -1 6 -3 9 -5 l5 -4
0 14 c0 7 0 13 0 13 0 0 -3 -3 -6 -6z" fill="white"/>
<path d="M284 129 c-5 -5 -11 -8 -22 -9 -6 0 -10 0 -12 1 -1 0 -3 1 -5 1 -3 1
-4 1 -6 -2 -1 -2 -2 -4 -3 -6 0 -3 0 -3 6 -6 4 -2 12 -4 18 -6 9 -2 24 -6 28
-8 0 0 1 2 1 4 1 6 6 15 9 19 4 3 3 5 -1 5 -3 1 -8 6 -10 9 0 2 -1 2 -3 -2z" fill="white"/>
<path d="M459 128 c-4 -4 -20 -17 -23 -19 -2 -1 -3 -1 -2 -2 1 0 -2 -1 -7 -2
-14 -2 -28 2 -42 11 -11 8 -10 8 -18 4 -8 -4 -20 -14 -24 -19 -5 -7 -5 -7 -2
-8 1 -1 9 -4 18 -7 8 -3 19 -7 24 -10 l9 -4 7 6 c11 11 22 17 42 23 l8 2 8 -6
c10 -7 25 -22 31 -30 7 -8 12 -19 15 -27 1 -4 2 -7 2 -7 1 0 0 -1 0 -2 -2 -1
-2 -1 2 -10 5 -11 7 -13 10 -9 2 2 2 8 0 16 -1 4 -2 6 -4 6 -6 1 0 3 25 8 19
5 19 5 17 15 -2 7 -6 16 -12 21 -4 4 -4 4 -9 3 -9 -1 -34 -1 -41 1 -14 4 -22
9 -26 18 -2 4 -4 19 -4 27 0 5 -1 5 -4 1z" fill="white"/>
<path d="M0 125 c0 -3 1 -4 7 -6 11 -4 17 -4 28 0 l9 2 -10 1 c-11 1 -24 3
-30 5 l-4 2 0 -4z" fill="white"/>
<path d="M129 126 c-7 -2 -12 -8 -12 -13 0 -2 0 -2 -4 0 -17 8 -39 -2 -31 -14
5 -8 19 -13 45 -16 21 -2 19 -3 23 9 6 13 6 22 3 27 -1 2 -4 4 -6 5 -5 3 -13
3 -18 2z" fill="white"/>
<path d="M217 124 c-5 -3 -7 -5 -7 -9 0 -1 1 -1 2 -1 4 1 12 6 12 7 0 1 0 2 0
4 0 3 0 3 -7 -1z" fill="white"/>
<path d="M0 60 l0 -60 191 0 191 0 0 3 c0 3 3 12 6 18 1 2 2 4 2 5 -1 0 -2 -3
-5 -7 -3 -7 -8 -12 -11 -12 0 0 -2 1 -3 2 -1 3 -1 3 1 9 0 3 2 7 3 9 3 5 2 6
-1 2 -3 -7 -8 -11 -11 -11 -6 0 -7 5 -1 16 2 4 4 8 4 9 0 0 -2 -2 -5 -6 -7 -7
-12 -10 -15 -8 -5 2 -3 11 3 18 1 1 2 3 3 4 l2 3 5 -3 c2 -1 8 -4 12 -7 4 -3
7 -5 8 -5 0 0 1 3 1 7 1 4 4 10 6 15 3 5 5 9 5 9 0 1 -20 10 -33 15 -7 2 -15
5 -17 6 l-4 2 -3 -6 c-3 -7 -6 -18 -5 -20 1 -1 6 -4 12 -7 6 -3 10 -5 9 -6 -1
0 -4 1 -6 2 l-4 2 -4 -5 c-10 -14 -6 -19 7 -7 6 5 8 6 3 1 -7 -9 -14 -12 -17
-8 -2 2 0 8 5 13 5 7 4 7 -4 -1 -7 -7 -11 -9 -14 -7 -3 2 -3 6 3 15 1 2 1 2
-3 -2 -6 -5 -10 -6 -13 -5 -2 1 -3 6 -1 9 3 3 2 3 -1 1 -4 -2 -8 -2 -9 0 -1 1
-1 3 2 8 l3 6 -4 -4 c-5 -4 -9 -5 -11 -3 -2 2 -1 4 2 11 2 3 3 6 3 6 0 0 -2
-2 -5 -5 -5 -6 -10 -9 -13 -7 -4 2 -2 8 6 19 1 1 -1 0 -5 -4 -8 -8 -13 -10
-18 -8 -3 1 -2 6 1 9 7 8 7 8 -2 2 -3 -1 -6 -3 -7 -3 0 0 -3 -2 -5 -4 -4 -4
-4 -5 -5 -11 0 -8 1 -13 3 -14 4 -1 8 -5 8 -8 0 -4 -3 -7 -11 -10 -18 -7 -57
-21 -75 -27 -37 -12 -48 -15 -54 -12 -3 1 -27 18 -72 50 -31 22 -31 22 -31 34
-1 13 4 21 13 25 l4 1 -8 3 c-4 1 -8 2 -9 2 -2 1 -2 -2 -2 -58z" fill="white"/>
<path d="M220 115 c-4 -2 -7 -6 -6 -6 4 -3 8 -2 14 2 l3 1 -2 3 c-1 2 -3 3 -3
3 0 0 -3 -1 -6 -3z" fill="white"/>
<path d="M298 115 c-5 -6 -9 -21 -6 -23 1 -1 6 -5 12 -9 11 -8 22 -16 23 -16
1 0 1 1 1 3 0 5 3 13 6 19 l2 5 -5 2 c-2 1 -10 7 -17 12 -7 5 -13 9 -13 9 0 0
-2 -1 -3 -2z" fill="white"/>
<path d="M576 116 c-1 -1 -4 -2 -6 -3 -3 0 -4 -1 -5 -3 0 -3 0 -3 8 -6 14 -4
23 -14 26 -25 0 -2 1 3 1 11 l0 15 -5 4 c-6 4 -13 8 -15 8 -1 0 -3 -1 -4 -1z" fill="white"/>
<path d="M231 108 c-1 -1 -3 -3 -4 -4 -2 -2 -2 -2 1 -3 2 -2 3 -2 6 -1 3 1 5
3 7 4 l2 2 -4 2 c-5 2 -5 2 -8 0z M237 100 c-2 -2 -4 -3 -3 -3 1 -1 8 3 8 5 0 0 0 0 -5 -2z" fill="white"/>
<path d="M564 103 c-3 -9 -7 -13 -17 -18 l-6 -3 3 -3 c7 -7 13 -18 13 -27 0
-2 0 -4 1 -4 0 0 4 1 8 2 10 4 21 9 27 14 l5 5 0 6 c-1 11 -8 20 -21 26 -9 4
-12 5 -13 2z M599 66 c-1 0 -1 -1 0 -1 1 -1 1 0 1 0 0 2 -1 2 -1 1z" fill="white"/>
<path d="M242 99 c-4 -4 -4 -4 -3 -6 2 -3 2 -3 5 -2 4 2 6 3 10 6 l4 3 -4 2
c-6 2 -7 1 -12 -3z" fill="white"/>
<path d="M439 99 c-13 -4 -21 -8 -27 -12 -5 -3 -18 -15 -18 -16 0 0 3 -2 6 -4
3 -3 9 -7 14 -10 l7 -6 5 5 c8 9 24 19 40 26 l5 2 -7 6 c-7 6 -15 12 -17 12 0
0 -4 -1 -8 -3z" fill="white"/>
<path d="M259 94 c-5 -5 -7 -9 -7 -11 2 -3 10 1 18 9 4 5 4 5 -3 6 -3 1 -4 1
-8 -4z" fill="white"/>
<path d="M274 88 c-10 -15 -3 -17 9 -2 l5 6 -4 1 c-2 1 -4 2 -4 2 -1 0 -3 -3
-6 -7z M288 88 c-1 0 -1 -1 -1 -1 0 -1 0 -1 1 0 1 0 1 1 1 1 0 1 -1 1 -1 0z" fill="white"/>
<path d="M288 83 c-9 -16 -3 -17 9 -3 l3 4 -4 2 c-2 2 -4 3 -4 3 0 0 -2 -3 -4
-6z" fill="white"/>
<path d="M35 83 c-2 -4 -4 -15 -2 -22 l1 -5 15 -11 c8 -6 17 -13 20 -15 l6 -4
0 9 c0 9 2 16 5 19 1 1 -1 3 -20 16 -12 8 -22 15 -22 15 -1 0 -2 -1 -3 -2z" fill="white"/>
<path d="M459 77 c-14 -7 -24 -14 -32 -21 l-5 -6 7 -8 c4 -4 10 -11 13 -15 5
-8 12 -20 12 -23 0 -2 1 -1 6 3 2 2 6 6 10 9 6 4 24 14 30 16 l3 1 -1 5 c-4
12 -12 26 -23 38 l-7 7 -13 -6z M457 1 c-1 -1 -1 -1 0 -1 1 0 1 0 1 1 0 1 0 1 0 1 -1 0 -1 0 -1 -1z" fill="white"/>
<path d="M217 75 c-9 -3 -36 -12 -60 -20 -24 -8 -46 -16 -47 -17 -4 -2 -7 -7
-7 -14 0 -5 2 -10 4 -10 4 0 106 34 123 42 4 1 4 1 3 4 -1 1 -1 7 -1 12 0 5 0
9 0 9 0 0 -7 -3 -15 -6z" fill="white"/>
<path d="M298 74 c-5 -8 -6 -11 -4 -12 3 -1 6 1 11 8 l5 5 -3 3 c-2 2 -4 3 -4
3 0 0 -2 -3 -5 -7z M306 67 c-2 -2 -3 -3 -1 -3 1 1 3 5 3 5 -1 0 -1 -1 -2 -2z" fill="white"/>
<path d="M308 66 c-6 -9 -7 -14 -1 -12 2 0 15 12 15 13 0 0 -7 5 -8 5 -1 0 -3
-3 -6 -6z" fill="white"/>
<path d="M389 64 c-4 -7 -8 -19 -8 -24 0 -3 1 -4 5 -7 2 -2 7 -7 11 -11 l7 -7
4 11 c2 6 5 14 8 17 l4 7 -7 5 c-7 6 -19 14 -20 14 -1 0 -2 -2 -4 -5z" fill="white"/>
<path d="M323 61 c-9 -11 -9 -18 -1 -14 2 1 13 12 13 13 0 0 -2 2 -4 3 l-5 2
-3 -4z" fill="white"/>
<path d="M591 60 c-2 -1 -4 -3 -4 -3 -2 -1 10 -17 12 -17 1 0 1 3 1 8 0 6 0 8
-2 11 -1 2 -3 4 -3 4 0 0 -2 -1 -4 -3z" fill="white"/>
<path d="M236 57 c0 -1 -2 -3 -6 -4 -27 -10 -89 -31 -111 -38 -11 -3 -13 -4
-6 -4 8 0 80 24 119 39 9 4 10 5 8 7 -3 1 -4 1 -4 0z" fill="white"/>
<path d="M80 52 c-4 -7 -5 -24 -2 -28 2 -2 18 -13 18 -11 -1 1 -1 5 -2 9 0 7
1 13 4 17 3 4 3 3 -8 10 l-8 6 -2 -3z" fill="white"/>
<path d="M586 49 c4 -8 5 -14 3 -18 -4 -5 -10 -1 -16 9 -4 7 -5 9 -3 2 5 -12
3 -20 -4 -20 -3 0 -6 5 -11 14 -1 4 -3 7 -3 7 -1 0 0 -4 1 -8 3 -11 1 -18 -5
-18 -3 0 -6 5 -10 14 -2 4 -3 8 -4 8 0 0 1 -4 2 -8 2 -8 2 -13 -1 -16 -4 -5
-8 -1 -13 10 -4 9 -5 10 -3 2 3 -8 2 -15 0 -17 -5 -5 -8 -2 -14 10 -2 5 -4 8
-3 7 4 -14 4 -21 1 -24 -4 -4 -7 -2 -11 5 -1 3 -2 5 -2 5 0 0 0 -3 1 -6 l1 -7
54 0 54 0 0 19 0 19 -3 1 c-2 1 -5 5 -8 9 -2 4 -5 7 -5 7 -1 0 0 -3 2 -6z" fill="white"/>
<path d="M576 52 c-3 -1 -6 -2 -6 -3 0 0 7 -12 10 -15 1 -2 3 -3 4 -3 3 0 4 4
4 8 -1 4 -6 15 -7 15 0 0 -3 -1 -5 -2z" fill="white"/>
<path d="M352 47 c-6 -7 -9 -15 -6 -17 3 -1 7 2 13 9 4 3 6 6 6 6 -1 1 -9 5
-10 5 0 0 -2 -1 -3 -3z" fill="white"/>
<path d="M419 46 c-3 -5 -9 -17 -10 -22 -3 -9 -3 -11 2 -18 l5 -6 18 0 19 0 0
2 c0 3 -7 17 -13 25 -5 7 -18 21 -19 21 0 0 -1 -1 -2 -2z" fill="white"/>
<path d="M560 46 c-6 -2 -6 -2 -2 -11 4 -7 7 -11 9 -11 0 0 2 1 3 3 1 2 1 3 0
7 -1 7 -4 14 -5 14 0 0 -3 -1 -5 -2z" fill="white"/>
<path d="M365 36 c-5 -9 -6 -15 -3 -16 3 0 6 3 11 11 5 7 5 6 -2 10 l-3 2 -3
-7z" fill="white"/>
<path d="M543 41 c-3 0 -5 -1 -6 -1 0 -1 6 -16 8 -18 4 -5 7 -3 7 5 0 5 -3 16
-4 16 0 0 -3 -1 -5 -2z" fill="white"/>
<path d="M526 37 c-3 0 -5 -1 -6 -1 0 -1 7 -18 9 -20 2 -1 3 -1 4 0 1 1 1 2 1
8 0 6 -1 15 -3 15 0 0 -3 -1 -5 -2z" fill="white"/>
<path d="M378 30 c-5 -13 -6 -19 -4 -21 2 -1 6 4 10 12 l4 7 -3 3 c-2 2 -4 3
-4 3 -1 0 -2 -2 -3 -4z" fill="white"/>
<path d="M493 26 c-3 -1 -5 -3 -5 -3 0 -3 9 -18 10 -19 3 -2 5 1 5 5 0 3 -4
18 -5 19 0 1 -3 0 -5 -2z" fill="white"/>
<path d="M390 22 c-4 -10 -6 -16 -6 -19 0 -3 0 -3 2 -3 3 0 5 2 10 11 l3 6 -4
4 -4 4 -1 -3z" fill="white"/>
<path d="M479 19 l-5 -3 3 -6 c4 -9 5 -10 9 -10 4 0 4 0 4 3 -1 4 -6 19 -6 19
-1 0 -3 -1 -5 -3z" fill="white"/>
<path d="M469 13 c-7 -6 -8 -7 -7 -10 1 -3 1 -3 8 -3 3 0 6 0 6 0 0 1 -1 3 -2
7 -3 6 -3 6 -2 6 1 -1 1 0 1 0 0 2 0 2 -4 0z" fill="white"/>
<path d="M401 11 c-2 -4 -4 -10 -4 -11 0 0 2 0 4 0 4 0 5 0 6 3 2 2 2 3 -3 9
l-2 2 -1 -3z" fill="white"/>
<path d="M398 11 c-3 -4 -6 -10 -6 -11 0 0 1 0 1 0 1 0 3 3 4 7 3 6 3 8 1 4z" fill="white"/>
</g>
</svg>
