<?xml version="1.0" encoding="UTF-8"?>
<svg width="600" height="800" viewBox="0 0 600 800" fill="none" xmlns="http://www.w3.org/2000/svg">
<g transform="translate(0,800) scale(1,-1)">
<path d="M319 660 c-5 -1 -15 -6 -21 -11 -9 -7 -28 -27 -38 -39 -7 -8 -11 -12
-15 -15 -3 -2 -11 -7 -19 -12 -8 -5 -14 -8 -17 -9 -17 -4 -42 -17 -51 -28 -2
-2 -6 -8 -9 -13 -8 -16 -10 -19 -16 -24 l-5 -4 -3 3 c-2 1 -4 4 -4 7 -3 6 -5
8 -7 7 -1 -1 -3 0 -7 4 -2 2 -6 5 -7 6 -3 1 -3 1 -6 -2 -3 -3 -3 -3 -6 -2 -2
1 -3 1 -5 -2 -2 -3 -3 -3 -5 -2 -2 1 -6 1 -10 1 l-6 1 -4 -8 c-3 -5 -6 -9 -7
-10 -1 -1 -5 -3 -8 -5 -4 -3 -6 -5 -7 -8 -1 -2 -3 -5 -4 -7 -3 -3 -5 -10 -5
-19 0 -4 -1 -9 -2 -12 -3 -7 -3 -12 0 -18 2 -4 3 -6 2 -9 0 -3 1 -6 7 -17 l6
-14 1 -13 c0 -8 1 -12 1 -13 1 0 4 0 7 0 6 -1 6 -1 8 2 1 2 2 6 3 9 1 3 2 5 2
5 0 0 4 -2 8 -6 7 -5 7 -5 10 -4 1 1 5 3 7 4 5 2 6 4 4 7 -1 1 -1 1 1 2 2 2 3
2 5 1 1 0 0 -2 -1 -5 -2 -3 -4 -4 -11 -7 -14 -8 -27 -19 -27 -25 0 -4 3 -10 9
-17 4 -4 8 -10 10 -15 6 -12 21 -27 27 -27 3 0 9 4 18 11 l9 7 4 -9 c6 -11 7
-12 13 -12 5 0 18 -2 20 -3 1 -1 3 -3 4 -5 1 -3 3 -5 4 -5 1 -1 6 -1 11 -2 9
0 10 0 11 -3 2 -3 6 -5 10 -5 3 0 5 -1 7 -3 2 -2 2 -3 2 -6 -1 -3 -1 -4 0 -6
2 -2 3 -6 1 -5 -1 1 -7 -1 -10 -4 -1 -1 -5 -4 -9 -6 -11 -4 -11 -5 -11 -8 1
-2 1 -5 2 -7 1 -6 2 -6 60 -5 26 1 25 0 25 14 0 6 -1 11 -1 14 -2 4 -2 4 1 9
1 3 2 6 2 7 0 1 -3 4 -6 7 l-5 5 -1 13 c0 8 -1 14 -2 15 0 1 -3 4 -5 5 l-5 4
4 3 c4 4 4 4 0 10 l-3 4 2 1 c1 1 7 4 12 6 l10 4 21 -1 c33 0 50 -2 60 -7 6
-3 17 -14 21 -21 2 -4 5 -8 7 -9 1 -1 6 -2 11 -2 5 0 12 -1 16 -2 4 0 7 0 11
2 3 1 6 2 6 2 0 0 1 -2 3 -6 3 -6 5 -7 11 -5 6 2 14 2 19 0 2 -1 3 -1 5 0 2 1
3 1 8 -1 5 -2 7 -2 13 -1 5 0 7 0 8 -1 1 -1 2 -2 3 -2 2 0 8 -7 11 -13 1 -2 3
-4 5 -5 2 -1 4 -2 6 -3 1 -1 2 -3 3 -3 1 -1 2 -3 3 -8 0 -6 0 -6 -3 -8 -2 -2
-4 -4 -4 -6 -1 -2 -2 -3 -4 -3 -2 -1 -4 -2 -6 -3 -2 -3 -2 -4 -2 -9 1 -4 1 -7
2 -7 4 -2 29 -2 42 0 12 2 14 5 15 20 1 11 3 19 8 27 8 11 9 18 4 21 -1 0 -3
2 -5 4 -1 1 -4 4 -7 5 -4 2 -5 3 -6 7 -3 8 -8 15 -11 18 -3 3 -4 3 -10 3 -11
0 -12 1 -20 17 -4 8 -8 15 -9 16 -3 2 -14 6 -17 6 -1 0 -3 2 -4 3 0 2 -2 4 -2
5 -1 1 -2 3 -1 8 l0 8 -5 6 c-3 3 -8 9 -11 12 -8 9 -11 10 -22 8 -4 -1 -9 -2
-10 -2 -1 0 -5 2 -8 5 -4 3 -9 7 -12 9 -6 3 -19 16 -24 24 l-4 5 5 2 c49 12
114 26 137 29 20 2 20 2 17 15 -2 5 -5 9 -10 9 -5 0 -31 -4 -50 -8 -23 -4 -38
-8 -84 -20 -36 -9 -37 -9 -40 -8 -2 1 -4 2 -5 2 -1 0 -1 1 -1 1 4 8 6 15 7 20
1 6 2 6 11 16 5 5 14 16 19 23 11 15 19 23 30 30 10 7 28 17 41 23 14 6 37 14
41 14 8 0 -8 14 -25 22 -22 10 -48 14 -69 9 -19 -4 -25 -8 -44 -27 l-10 -10 0
5 c-1 8 -5 16 -12 24 -5 5 -8 10 -13 19 -8 15 -10 17 -19 15z m10 -4 c1 -1 4
-7 7 -13 4 -8 8 -14 12 -19 11 -12 14 -19 12 -33 -3 -20 -12 -41 -28 -63 -9
-11 -32 -35 -41 -42 -8 -6 -18 -12 -20 -11 -1 1 -2 4 -3 8 -2 7 -2 8 -1 12 1
3 4 6 5 7 3 3 3 3 1 2 -2 -1 -2 -1 -2 0 1 1 3 6 5 11 3 8 16 36 18 37 0 0 2 1
4 1 5 1 6 2 2 5 -3 1 -3 2 -3 4 2 8 2 8 1 5 l-1 -3 -6 3 c-6 4 -6 3 -2 -7 l3
-6 -3 -6 c-1 -3 -4 -8 -5 -10 l-3 -5 0 7 c0 9 -1 14 -6 20 -4 6 -5 10 -4 19 0
4 1 9 2 10 0 1 0 1 -1 0 -2 -3 -4 -13 -4 -18 0 -5 2 -9 7 -15 4 -4 4 -6 5 -11
0 -4 0 -9 -1 -13 -2 -7 -9 -26 -13 -36 -3 -4 -3 -5 -8 -6 -8 -2 -9 -1 -15 3
-3 2 -5 4 -5 3 0 0 0 -1 1 -2 1 0 -1 -2 -6 -3 -3 -2 -7 -3 -8 -3 -2 0 -13 5
-20 10 -6 3 -7 4 -4 1 4 -4 12 -8 19 -11 l5 -2 -7 -2 c-14 -4 -21 -4 -38 -1
-8 2 -11 2 -4 0 13 -4 20 -4 29 -3 5 0 11 2 15 3 3 2 7 3 9 3 l4 1 -3 -2 c-4
-2 -3 -2 4 -4 l6 -2 3 4 c3 4 3 4 10 4 4 1 8 1 9 1 1 0 2 -2 4 -6 3 -9 4 -11
8 -9 3 2 4 1 4 -3 1 -3 1 -4 3 -4 1 0 2 -1 2 -2 0 -1 -1 -2 -6 -3 -16 -5 -23
-5 -44 -5 l-20 0 -14 4 c-23 8 -48 21 -63 34 -7 6 -7 7 1 16 4 4 8 6 8 6 2 0
2 1 2 4 0 3 1 6 5 13 8 13 13 18 16 15 1 -2 2 -1 3 2 1 5 4 7 14 12 7 3 20 9
22 9 0 0 -2 -2 -4 -5 -9 -9 -17 -25 -20 -40 -2 -7 -1 -10 6 -17 3 -3 4 -4 2
-1 -8 11 -8 11 -7 15 1 8 6 23 10 29 2 4 7 10 10 13 l6 6 6 -3 c5 -3 6 -3 7
-1 2 2 6 10 6 12 0 1 0 1 -1 1 -1 0 -1 0 -1 -1 1 -1 -4 -12 -5 -12 -2 0 -9 4
-9 5 0 0 1 1 3 2 2 0 8 4 15 9 19 12 24 15 28 14 3 0 4 0 4 2 1 2 2 3 12 4 6
2 6 2 2 2 -3 0 -8 -1 -13 -2 -4 -2 -8 -3 -8 -2 0 1 17 21 27 31 l12 12 8 0 7
0 2 5 c1 3 4 6 5 7 3 3 9 3 12 0z m-18 -6 c-3 -5 -3 -5 -8 -5 l-5 0 3 3 c4 3
10 7 12 7 0 0 0 -2 -2 -5z m148 -19 c17 -3 36 -12 47 -21 l4 -5 -4 0 c-6 -2
-23 -8 -37 -14 -22 -9 -46 -24 -56 -34 -4 -3 -11 -12 -16 -19 -12 -17 -26 -31
-41 -42 -6 -5 -11 -8 -12 -9 -1 0 -6 -3 -11 -6 l-9 -5 0 10 c0 5 0 12 1 16 l0
6 7 4 c4 2 7 4 7 4 0 1 -3 3 -5 4 l-4 2 4 6 c3 3 7 9 9 13 3 3 7 8 9 10 4 3 4
3 2 4 -1 1 -2 1 -2 2 0 0 1 2 3 6 1 3 3 9 5 14 1 6 3 9 5 12 l3 3 -2 0 c-2 0
-3 0 -3 1 0 0 7 7 15 15 16 16 21 19 34 22 16 4 30 4 47 1z m-197 -32 c0 -1 0
-1 -1 -1 -1 0 -1 0 -1 1 0 1 0 1 1 1 1 0 1 0 1 -1z m103 -9 c0 0 -1 -1 -1 -2
-2 -1 -2 -1 -2 1 0 1 1 2 2 2 0 0 1 0 1 -1z m-73 -25 c4 -2 4 -2 3 -5 -1 -2
-2 -3 -2 -3 0 -1 -2 2 -3 5 -2 3 -3 6 -2 6 0 0 2 -1 4 -3z m8 -10 c0 -1 -2 -1
-3 -1 -2 0 -3 1 -2 3 1 2 1 2 4 0 1 -1 2 -2 1 -2z m53 -1 c1 0 -2 -3 -3 -3 -1
0 -1 1 0 2 1 2 2 2 3 1z m-183 -3 c-1 -1 -2 -2 -2 -1 -1 0 -1 1 0 2 2 2 3 1 2
-1z m-68 -24 l4 -3 -6 -6 -6 -6 -3 2 c-2 1 -3 3 -3 3 0 2 8 13 10 13 0 0 2 -1
4 -3z m-13 -2 c1 -2 1 -2 -1 -4 -2 -3 -3 -4 -5 -2 0 1 0 2 1 4 2 3 3 4 5 2z
m-24 -7 c-3 -7 -2 -8 1 -1 3 6 4 6 6 5 1 -1 -4 -11 -13 -22 -5 -5 -8 -10 -8
-11 0 -1 0 -1 1 1 1 1 4 5 8 10 4 4 9 11 11 15 2 3 4 6 4 7 0 0 2 -1 4 -2 l4
-2 -2 -3 c-1 -2 -6 -8 -11 -12 -5 -5 -7 -8 -5 -7 3 2 9 9 15 16 l4 5 3 -2 c5
-3 6 -4 2 -7 -2 -2 -3 -3 -5 -2 -1 0 -3 -1 -8 -8 -6 -9 -7 -10 -17 -16 -4 -2
-8 -5 -9 -6 -2 -2 17 10 21 13 2 2 5 6 7 9 3 3 5 6 5 6 2 0 5 -2 5 -3 0 -1 -3
-4 -6 -7 -5 -6 -5 -6 -1 -3 2 3 5 5 7 7 l2 2 2 -2 c2 -1 3 -2 3 -3 0 0 -2 -2
-5 -4 -3 -2 -5 -4 -5 -4 1 0 4 2 8 4 4 3 7 5 7 5 1 -1 8 -12 8 -12 0 -1 -1 -1
-3 -2 -3 -1 -3 -1 -7 1 -3 2 -3 2 -2 0 2 -1 2 -2 -9 -6 -6 -2 -12 -4 -15 -5
-2 -1 -4 -1 -4 -2 1 0 13 3 21 6 9 4 11 5 13 3 2 -1 1 -2 -5 -4 -4 -1 -7 -2
-7 -3 1 0 5 1 10 3 l9 2 4 -2 c2 -2 4 -4 5 -6 0 -2 5 -6 7 -6 1 0 0 1 -1 2 -3
1 -5 4 -5 6 0 1 2 1 4 1 5 0 6 2 3 7 -2 3 -2 4 -1 5 2 1 3 -1 7 -8 9 -13 16
-27 14 -28 0 -1 -2 1 -4 4 -1 3 -3 5 -3 4 0 0 2 -4 5 -9 4 -8 6 -13 5 -15 0 0
-2 -2 -4 -2 -2 -1 -4 -3 -4 -4 -2 -2 -5 1 -5 4 1 1 0 2 0 1 -1 0 -1 -2 0 -5 0
-4 0 -5 -2 -5 -1 -1 -3 -3 -4 -5 -1 -3 -2 -5 -3 -5 0 0 -1 1 -3 2 -5 5 -11 4
-21 -4 -3 -1 -7 -3 -8 -3 -2 0 -2 0 -1 1 2 1 2 2 2 4 -1 1 -1 2 1 1 2 0 7 6 7
8 0 1 -5 4 -10 8 -5 4 -9 7 -9 7 0 0 2 1 5 2 3 1 5 2 5 4 0 2 1 2 5 2 l6 1 0
5 c0 3 1 6 2 7 0 1 1 3 2 6 1 3 2 4 3 3 2 0 2 0 1 2 -1 1 -2 3 -2 4 0 3 -3 3
-10 0 -3 -1 -7 -3 -10 -3 -3 -1 -1 -1 7 0 11 0 11 0 10 -2 0 -2 -1 -2 -9 -2
l-9 0 8 -1 c7 -1 8 -2 8 -3 0 -2 -1 -2 -6 -2 l-5 0 4 -1 c4 0 5 0 5 -2 -1 0
-1 -2 -1 -2 0 -1 -2 -1 -5 -1 -12 2 -13 2 -13 2 0 -1 4 -2 8 -2 9 -1 10 -2 10
-5 0 -2 0 -2 -5 -2 -3 0 -4 0 -5 3 -2 2 -2 3 -6 0 -1 -1 -6 -2 -11 -2 -12 -1
-18 -2 -18 -3 1 -1 25 2 29 3 4 2 5 2 5 -3 0 -4 -2 -5 -12 -6 -5 -1 -8 -1 -17
1 -7 1 -13 2 -14 2 -4 -1 19 -5 26 -5 4 0 5 -1 15 -7 5 -4 10 -8 10 -8 0 -2
-3 -2 -8 1 -3 2 -5 4 -6 4 0 -1 3 -2 6 -5 5 -3 6 -4 5 -5 -1 -1 -2 -1 -4 1 -5
3 -5 3 -3 -1 3 -4 4 -6 2 -6 0 0 -1 0 -2 -1 -1 0 -3 2 -6 5 -4 6 -5 6 -1 0 2
-3 3 -5 2 -5 -2 -2 -3 -1 -7 4 -4 6 -5 6 -1 0 l3 -5 -3 0 c-2 0 -4 1 -8 5 -3
3 -8 7 -10 9 -3 2 -6 5 -8 8 -1 2 -2 3 -2 2 0 -3 4 -8 10 -13 3 -2 8 -6 10 -8
l5 -5 8 1 8 0 5 -4 5 -5 -3 0 c-3 -1 -4 0 -8 2 -2 2 -5 4 -5 4 -1 0 0 -1 3 -3
5 -4 5 -4 2 -6 -2 -1 -3 -1 -5 1 -3 3 -12 9 -13 9 0 0 3 -3 8 -6 5 -4 7 -6 6
-7 -2 -2 -5 -1 -6 1 -3 3 -11 9 -19 13 -6 2 -7 4 -9 7 -1 2 -5 7 -8 11 l-7 8
2 4 c1 2 2 6 2 11 0 6 0 8 2 9 3 3 9 5 15 6 l8 1 -7 0 c-5 0 -8 -1 -11 -2 -2
-1 -4 -2 -5 -2 0 0 0 2 0 3 0 5 2 6 21 12 15 5 27 10 26 11 -1 0 -4 -1 -8 -3
-4 -2 -12 -4 -16 -5 -9 -3 -22 -8 -24 -9 -1 -1 -1 0 -1 4 -1 2 -1 0 0 -5 0 -6
0 -10 -1 -10 -1 -1 -1 -4 -1 -9 0 -4 -1 -9 -2 -11 -2 -5 -1 -6 4 -12 2 -3 7
-8 9 -12 4 -6 5 -7 11 -9 3 -1 7 -3 10 -5 4 -3 14 -12 14 -13 0 -1 -1 -1 -2
-1 -1 0 -4 2 -8 5 -3 3 -7 5 -7 4 0 0 0 0 0 0 0 0 3 -3 6 -5 9 -7 6 -8 -4 -1
-4 3 -8 5 -8 5 -1 0 -3 2 -4 6 -2 3 -4 5 -5 5 0 0 1 -1 2 -3 1 -1 2 -4 3 -5 1
-2 1 -3 0 -8 -1 -4 -2 -8 -3 -9 -1 -4 -4 -4 -3 -1 2 5 2 7 0 3 -1 -2 -2 -4 -3
-4 -2 0 -2 0 -1 5 1 2 1 2 -1 -1 -1 -2 -2 -4 -3 -4 -1 0 -1 1 -1 5 1 3 1 8 0
13 -1 6 -2 10 -8 21 -5 10 -6 13 -5 15 1 3 1 3 -2 10 -2 5 -3 6 -2 12 1 5 2 7
3 3 1 -1 1 -2 1 -2 1 0 0 2 0 4 -1 4 -1 18 1 24 1 2 2 5 3 6 2 1 3 4 4 6 1 4
3 5 10 10 7 4 8 5 12 12 3 7 4 8 6 8 l2 0 -3 -5z m44 2 c1 -1 1 -2 -4 -6 -6
-6 -4 -5 4 1 5 4 6 5 7 4 2 -3 1 -4 -4 -7 -2 -3 -4 -4 -4 -5 1 0 3 1 5 3 l4 4
2 -2 c1 -2 1 -3 -4 -6 -3 -2 -5 -3 -5 -4 1 0 3 1 5 3 5 3 5 3 7 2 1 -1 2 -3 2
-3 0 0 -4 -3 -8 -5 -4 -3 -8 -6 -8 -6 0 -1 0 -1 10 5 6 4 7 5 9 4 1 -1 6 -8 6
-9 0 -1 -2 -2 -5 -4 l-4 -4 -2 2 c-1 1 -3 2 -5 2 -2 0 -1 1 4 4 8 5 7 5 7 6 0
0 -4 -2 -8 -5 -10 -7 -12 -7 -16 -1 -2 4 -2 4 -5 4 l-3 -1 4 5 5 5 -4 3 -5 3
5 5 c5 5 6 6 8 3z m228 -4 c0 0 -10 -6 -11 -6 -1 0 0 7 2 9 1 2 1 2 5 0 2 -1
4 -2 4 -3z m-191 3 c0 -1 0 -1 -1 -1 -1 0 -1 0 0 1 0 1 0 1 1 1 0 0 0 0 0 -1z
m177 -17 c-1 -6 -1 -16 -2 -21 l0 -10 -17 -1 c-22 -3 -23 -3 -23 0 -2 5 -1 6
6 10 5 2 11 8 22 19 8 8 15 15 15 15 0 0 -1 -6 -1 -12z m-226 7 c7 -3 7 -4 2
-8 -2 -1 -4 -3 -4 -3 0 0 -2 1 -4 3 l-3 3 3 3 c1 2 3 4 3 4 0 0 2 -1 3 -2z
m449 -4 c3 -2 6 -11 5 -14 -1 -2 -3 -1 -4 4 -1 3 -2 7 -3 9 -2 5 -1 5 2 1z
m-2 -3 c2 -5 3 -9 1 -9 -1 0 -24 -3 -30 -4 -7 -1 -38 -7 -58 -12 -26 -6 -107
-27 -134 -35 -3 -1 -5 -2 -6 -2 0 0 3 4 6 8 6 8 3 7 34 15 9 2 28 8 44 12 48
13 96 23 126 28 11 1 15 2 10 2 -3 0 -26 -4 -42 -7 -29 -6 -56 -12 -83 -19
-15 -4 -37 -10 -49 -13 -13 -3 -24 -6 -25 -7 -4 -1 -8 -1 -6 0 1 1 11 4 43 12
11 3 25 7 31 8 50 14 77 20 106 24 9 2 17 3 18 3 1 1 4 1 7 1 4 0 4 0 7 -5z
m-179 -10 c-1 -4 -3 -9 -4 -11 l-2 -4 -5 5 c-3 3 -5 6 -5 6 -1 0 18 13 18 12
0 -1 -1 -4 -2 -8z m-226 -3 c0 -1 3 -3 7 -5 5 -4 7 -6 11 -12 2 -4 5 -8 5 -8
0 1 -1 4 -3 7 l-3 6 4 -2 c3 -1 5 -4 8 -8 2 -3 5 -8 8 -11 l4 -6 -3 2 c-5 1
-7 1 -9 0 -2 -1 -2 -2 -1 -4 2 -4 13 -4 13 0 0 1 2 0 5 -4 3 -3 6 -5 7 -5 2 0
16 7 19 10 1 1 -2 0 -7 -3 -6 -3 -11 -5 -12 -5 -1 0 -4 3 -7 6 -5 6 -17 22
-17 23 0 0 2 0 5 -2 2 -1 7 -3 10 -4 6 -3 6 -3 6 -7 0 -5 2 -6 7 -6 4 0 4 0 4
3 l0 4 7 -2 c15 -5 38 -5 62 1 14 3 14 3 15 1 0 0 -1 -1 -4 -2 -4 -1 -9 -4 -9
-6 0 -1 -2 -3 -3 -6 l-4 -5 -4 4 c-4 3 -6 4 -10 1 -2 -1 -2 -2 -2 -5 l1 -4 -4
4 c-2 3 -5 5 -6 5 -1 0 -3 -1 -5 -2 -2 -2 -4 -3 -5 -3 0 0 -2 -1 -4 -3 -2 -2
-4 -3 -6 -3 -1 0 -4 -1 -5 -2 -2 -1 -3 -2 -4 -2 0 0 -2 -1 -2 -2 -2 -2 -7 -4
-8 -3 0 1 -1 1 -3 1 -2 0 -33 16 -36 19 -2 1 -2 1 0 3 3 1 5 7 3 9 0 0 -3 0
-5 -1 -3 -1 -5 -2 -5 -2 -1 0 -3 4 -5 9 -2 5 -7 13 -10 18 -5 7 -7 10 -6 11 1
1 4 0 6 -2z m407 2 c0 -1 -1 -1 -16 -3 -27 -4 -113 -23 -148 -33 -20 -6 -54
-16 -61 -18 -6 -2 -8 -1 -6 1 1 0 9 3 19 5 9 3 23 7 30 9 19 6 86 22 103 26
36 8 43 9 57 11 12 2 17 2 21 3 0 0 1 0 1 -1z m-302 -2 c2 -1 2 -2 -1 -5 -4
-3 -4 -3 -9 -2 l-5 1 6 4 c8 3 7 3 9 2z m-106 -11 c4 -6 8 -14 10 -18 5 -10 4
-9 10 -7 5 2 5 2 5 0 0 -3 -2 -4 -9 -7 -6 -2 -7 -2 -6 3 0 2 -6 16 -14 28 -4
6 -6 9 -5 10 1 1 2 1 2 1 0 0 4 -5 7 -10z m-17 8 c2 -3 0 -4 -3 -4 -2 0 -5 -1
-6 -1 -2 -1 0 -1 5 0 6 0 7 0 8 -2 2 -4 1 -5 -3 -5 -3 -1 -5 -1 -7 1 -2 1 -5
3 -7 3 l-4 2 2 1 c2 1 3 2 3 3 0 2 1 3 7 3 2 0 4 -1 5 -1z m232 -6 c2 -3 5 -5
6 -5 0 0 3 -1 5 -2 l4 -1 -12 -4 c-19 -5 -18 -5 -17 0 2 8 5 17 7 17 1 0 4 -2
7 -5z m-13 -2 c-1 -3 -2 -6 -3 -6 0 0 -2 0 -4 2 l-3 3 5 3 c3 2 6 3 6 3 1 0 0
-2 -1 -5z m-5 -8 c2 -2 2 -3 1 -5 -1 -2 -1 -2 -7 3 l-6 4 2 2 c2 2 2 2 5 0 2
-1 4 -3 5 -4z m-224 1 c0 -1 -2 -2 -5 -2 l-5 0 3 1 c5 2 7 2 7 1z m219 -7 c2
-2 2 -2 -4 -10 -3 -4 -7 -9 -9 -11 l-2 -4 -1 5 c-2 8 0 14 2 14 2 0 3 1 3 4 0
1 1 4 2 5 l2 3 3 -2 c1 -1 3 -3 4 -4z m-13 1 c0 -4 0 -5 -3 -5 -4 -1 -18 -1
-24 0 -4 0 -5 1 -5 3 0 3 0 3 15 4 18 3 17 3 17 -2z m-123 -8 c0 -3 0 -4 -1
-4 -2 0 -2 1 -2 4 0 2 0 3 2 3 1 0 1 -1 1 -3z m4 -1 c1 -1 1 -2 0 -3 -1 -2 -3
0 -3 3 0 4 2 4 3 0z m104 1 l10 0 0 -12 c0 -14 -1 -17 -5 -20 -4 -2 -4 -1 -2
3 2 2 3 4 3 5 0 2 -1 1 -6 -9 -2 -3 -7 -7 -8 -6 0 0 1 2 2 5 1 2 2 5 2 6 0 2
0 2 -1 1 -1 -6 -6 -15 -8 -15 -4 -1 -4 -1 -4 0 2 5 2 6 0 2 -3 -5 -6 -7 -9 -3
-3 2 -2 4 0 4 1 0 2 0 2 7 0 6 0 8 -2 12 -2 3 -3 3 -5 3 -2 0 -3 1 -3 2 0 0 0
1 1 1 0 0 2 2 3 4 3 4 6 7 9 7 1 0 3 1 4 2 1 1 3 2 5 2 1 -1 6 -1 12 -1z m92
-8 c6 -8 17 -20 24 -25 4 -2 10 -6 13 -9 9 -7 18 -13 19 -13 0 1 -2 2 -4 4 -5
3 -4 4 7 5 10 2 12 1 21 -10 4 -5 8 -10 10 -12 l3 -4 -1 -9 c-1 -8 -1 -21 0
-18 0 0 0 3 1 6 0 6 0 6 2 4 1 -2 2 -3 1 -7 -1 -2 -1 -6 0 -7 1 -6 -2 -11 -9
-17 -7 -6 -9 -10 -11 -19 -1 -4 -2 -7 -5 -9 -2 -3 -4 -6 -5 -8 -1 -2 -2 -3 -7
-3 -3 -1 -8 -2 -10 -2 -2 -1 -4 -2 -4 -1 -1 0 -2 3 -3 5 -2 3 -3 6 -4 6 0 1
-4 0 -8 -1 -6 -3 -8 -3 -11 -2 -2 0 -7 1 -12 1 -5 1 -10 2 -12 3 -2 0 -5 4 -7
8 -3 5 -7 10 -15 17 -23 21 -41 40 -56 59 -1 2 -2 3 -2 2 0 0 3 -4 7 -8 3 -5
8 -11 11 -15 2 -4 10 -12 16 -19 9 -9 12 -12 10 -12 -15 4 -64 7 -74 5 -6 -1
-19 -6 -30 -12 -12 -6 -16 -10 -4 -4 l6 3 4 -5 3 -4 -3 -3 c-8 -6 -12 -8 -20
-9 -4 0 -8 -1 -9 -2 -2 -1 -11 -9 -21 -19 l-7 -8 -8 1 c-13 0 -13 0 -16 6 -1
2 -3 5 -5 5 -3 2 -2 2 6 4 6 1 29 13 29 15 0 1 -1 0 -3 -1 -9 -5 -24 -12 -29
-13 -4 -1 -7 -2 -8 -2 0 -1 -5 0 -11 0 l-10 1 -5 9 c-3 5 -5 10 -5 10 0 1 8 9
18 19 10 10 21 21 25 26 6 7 7 8 11 9 3 1 6 1 7 1 1 0 3 1 4 3 2 2 5 4 8 5 4
1 8 5 9 11 1 1 2 2 2 2 1 0 3 1 5 3 4 2 5 2 10 2 4 -1 7 -1 12 1 4 1 7 2 10 1
8 -1 13 7 5 10 -2 1 -5 1 -6 1 -4 -1 -3 0 1 2 4 1 4 1 9 -4 2 -3 5 -5 5 -5 2
0 7 4 7 6 -1 1 0 2 3 1 3 0 5 0 5 1 1 0 2 1 4 1 1 0 4 1 5 2 1 1 4 2 5 2 1 1
4 2 5 3 1 2 4 4 6 4 2 1 4 4 5 6 1 3 3 4 5 5 2 0 13 4 25 7 33 10 46 14 47 14
0 0 2 -3 4 -6z m-216 1 c1 -2 1 -2 -1 -3 -2 -1 -3 -1 -6 0 -1 1 -3 2 -3 3 0 2
7 1 10 0z m-16 -9 c3 -2 10 -6 17 -9 6 -4 11 -6 11 -6 0 -1 -2 0 -5 0 -5 0
-12 -2 -26 -7 -3 -1 -4 -1 -9 1 -8 2 -9 2 -3 -1 3 -1 5 -2 5 -2 0 -1 -3 -1 -8
-2 -4 0 -9 -1 -10 -1 -2 -1 -3 -1 -3 0 0 1 2 4 5 5 1 1 2 2 2 3 0 1 1 2 1 2 1
0 2 1 3 2 1 0 3 2 5 3 3 1 3 2 3 6 0 2 0 4 0 5 -1 2 -1 2 2 3 2 1 4 2 4 2 0 0
3 -2 6 -4z m98 -1 c5 -4 11 -16 11 -20 0 -2 0 -5 1 -7 1 -3 1 -5 0 -5 0 -1 -1
1 -3 7 -1 8 -5 17 -10 22 -4 6 -5 7 -4 7 0 0 2 -2 5 -4z m-3 -2 c2 -2 5 -7 6
-10 3 -6 7 -21 6 -22 0 -1 -2 1 -5 3 -4 4 -4 5 -2 6 2 2 1 7 -3 14 -2 4 -3 4
-5 4 -3 0 -4 1 -4 6 0 5 2 5 7 -1z m-13 -1 c5 -5 5 -6 2 -7 -2 0 -3 0 -9 5 -4
4 -4 4 -1 6 4 1 3 1 8 -4z m27 0 c-3 -1 -5 -1 -5 0 0 1 2 2 5 2 1 0 1 0 0 -2z
m-37 -1 c2 -3 5 -17 4 -18 -2 -1 -4 2 -6 6 -1 3 -3 6 -4 8 l-3 2 3 2 c4 2 5 2
6 0z m41 -2 c3 -5 3 -10 0 -11 -1 0 -2 0 -2 0 0 0 -2 3 -3 6 l-3 6 3 1 c1 0 3
1 3 1 0 0 1 -1 2 -3z m-16 -9 c3 -6 3 -11 1 -8 -1 1 -7 15 -6 15 1 1 3 -1 5
-7z m-18 4 c0 -1 -1 -1 -1 -1 -1 0 -2 1 -2 2 0 2 0 2 2 1 0 -1 1 -2 1 -2z
m-13 1 c1 -2 3 -11 3 -15 0 -4 -3 -2 -5 3 -1 4 -5 8 -8 8 -1 0 -1 -1 1 -2 2
-2 3 -3 4 -7 0 -2 0 -6 1 -7 0 -3 0 -3 -2 -3 -2 0 -5 4 -5 7 0 2 -3 4 -6 5 -2
0 -2 0 -1 -1 1 0 1 -1 1 -1 -2 -1 -8 -4 -8 -3 0 0 1 3 3 6 4 7 10 11 16 11 3
0 5 -1 6 -1z m25 -1 c2 -3 1 -4 -2 -3 -2 1 -3 1 -4 1 0 -1 4 -11 5 -11 1 0 2
1 2 3 l2 2 1 -2 c1 -2 1 -2 0 -3 -1 -2 -19 -8 -50 -20 -9 -2 -16 -5 -17 -6 -2
0 -2 1 0 7 0 2 0 2 -4 4 -3 1 -3 1 -2 2 3 2 28 12 30 12 0 0 1 -2 2 -3 1 -4 4
-7 7 -7 0 0 2 1 2 3 2 3 6 5 8 3 1 -2 2 -1 4 4 l3 5 1 -3 c2 -4 3 -4 5 0 1 4
1 5 -3 6 -5 1 -4 2 2 5 7 3 7 3 8 1z m1 -8 c-1 -2 -1 -3 -2 -3 0 0 -3 6 -3 7
0 1 1 0 3 0 3 -1 3 -1 2 -4z m-66 2 c2 -1 2 -1 1 -1 -1 -1 -3 -1 -4 0 -5 3
-20 -8 -31 -24 -6 -7 -7 -10 -8 -23 0 -6 -2 -16 -3 -22 -3 -14 -4 -16 -2 -16
2 0 24 18 28 23 1 2 4 5 5 6 l3 2 -1 -3 c-6 -8 -46 -48 -58 -58 -8 -5 -13 -8
-15 -7 -1 0 -1 1 1 2 2 2 2 2 1 1 -5 -1 -7 -1 -8 0 -1 1 0 2 4 5 2 2 4 3 4 4
-1 0 -3 -1 -5 -3 -4 -3 -4 -3 -7 -2 -1 1 -2 2 -2 2 0 0 2 2 4 4 6 4 6 5 0 1
-4 -3 -8 -3 -8 -1 0 1 11 10 14 11 0 0 1 -2 1 -5 l0 -5 5 -1 c9 0 9 1 2 8 -3
3 -6 5 -6 5 -1 0 -5 -3 -9 -6 -10 -6 -9 -7 -15 7 -2 4 -6 10 -10 14 -3 4 -6 8
-7 11 l-2 4 3 4 c5 6 16 15 24 19 7 3 8 4 10 8 2 4 2 4 4 3 2 -3 3 -2 7 5 2 3
4 7 6 8 3 2 9 4 10 4 0 -1 -9 -12 -15 -18 -2 -3 -4 -4 -5 -3 -2 0 -3 -1 -6 -4
-4 -6 -5 -8 -3 -8 2 0 9 5 11 9 2 2 5 5 7 7 l4 4 -1 -4 c-1 -6 1 -5 9 3 l7 6
-5 0 c-3 -1 -5 -1 -6 -2 -2 0 -2 0 0 3 7 10 13 13 24 13 5 0 5 0 3 -2 -2 -2
-1 -1 10 5 8 3 10 4 11 3 0 -1 1 -1 2 1 4 3 13 5 17 3z m5 -4 c-2 -2 -3 -5 -4
-7 0 -4 -1 -4 -8 -8 -7 -3 -8 -5 -6 -9 1 -2 0 -3 -5 -7 -6 -4 -8 -7 -6 -8 0
-1 2 0 3 1 l3 1 -2 -2 c-2 -2 -2 -2 -1 -4 3 -2 4 -1 7 5 2 4 3 5 6 5 1 0 4 0
5 0 3 1 3 1 4 -3 1 -5 5 -10 6 -7 0 0 1 1 1 1 1 0 1 -1 0 -2 -1 -1 -4 -2 -7
-3 -3 0 -9 -2 -14 -4 -8 -2 -26 -6 -27 -5 -1 1 2 23 3 26 1 4 14 20 15 20 1 0
0 -2 -1 -4 -4 -7 -2 -7 2 0 l4 7 11 5 c7 3 12 5 13 5 0 1 1 1 1 1 0 0 -1 -2
-3 -4z m83 2 c-2 -2 -3 -2 -3 -1 0 1 1 2 2 2 2 1 3 0 1 -1z m-73 -4 c-2 -3 -4
-5 -5 -5 -2 -1 -2 -1 -1 3 0 2 1 4 3 5 5 3 5 2 3 -3z m42 4 c1 0 1 -3 0 -4 -1
-1 -2 0 -3 2 -1 3 -1 3 1 3 0 -1 2 -1 2 -1z m-61 -1 c-1 -1 -7 -3 -7 -2 0 0 1
1 3 1 3 2 6 3 4 1z m12 -5 c-1 -4 -3 -6 -5 -6 -1 0 0 3 2 6 2 6 4 6 3 0z m40
1 c0 -1 0 -2 -1 -3 -1 -1 -1 -1 -2 0 -2 2 -1 4 1 4 1 0 2 -1 2 -1z m-116 -2
c2 -1 3 -2 4 -3 1 -1 0 -2 -5 -4 l-6 -2 1 2 c1 2 0 3 0 4 -1 1 -1 1 0 3 3 1 2
1 6 0z m-7 -5 c0 0 -1 -1 -1 -2 -2 -2 -2 -2 -4 0 -2 2 -2 2 -1 3 2 1 5 1 6 -1z
m135 -1 c1 0 3 -1 6 -1 6 0 8 -1 6 -4 0 -1 -2 -2 -8 -2 -4 0 -8 0 -10 -1 -3
-2 -6 -2 -10 -1 -6 0 -7 0 -11 -2 -6 -4 -10 -5 -16 -4 -1 0 7 3 17 7 10 4 20
7 21 8 3 1 5 1 5 0z m-139 -3 c1 -1 1 -2 0 -4 -2 -4 -3 -4 -6 0 -1 1 -3 2 -3
2 -1 0 0 -2 2 -3 4 -4 5 -5 3 -7 -2 -2 -2 -2 -4 0 l-3 2 3 0 c3 1 3 2 -1 5 -3
2 -3 2 -1 4 4 4 7 4 10 1z m73 -4 c0 -1 -1 -2 -1 -3 -1 -2 -1 -2 0 -4 1 -1 3
-2 3 -2 1 0 2 0 2 -1 0 -2 -4 -4 -6 -3 -1 1 -4 11 -4 11 1 1 5 3 5 3 1 0 1 0
1 -1z m7 -3 c0 0 0 -1 -1 -2 l-1 -2 -2 2 c-1 4 -1 4 1 3 1 0 3 0 3 -1z m-66
-5 c-4 -4 -5 -5 -5 -3 0 4 1 5 5 7 6 1 6 1 0 -4z m61 2 c0 0 0 -1 -1 -1 -1 0
-2 3 -1 3 1 1 2 0 2 -2z m24 -4 c1 0 1 0 -1 -2 -3 -2 -4 -2 -5 0 -2 2 -1 3 1
3 1 -1 3 -1 5 -1z m-31 -1 c0 0 -5 -9 -6 -11 -3 -3 -2 -2 0 2 1 2 2 4 2 5 -1
0 -3 -1 -5 -3 -5 -4 -3 -1 3 4 4 4 6 5 6 3z m24 -2 c1 -2 2 -4 3 -5 1 -2 0 -3
-7 -4 l-5 0 -1 3 c-2 5 -1 6 3 8 5 1 5 1 7 -2z m11 -1 c-3 -5 -5 -6 -7 -3 -2
1 -2 1 3 4 2 2 5 3 5 2 0 0 -1 -1 -1 -3z m-123 1 c1 -2 -1 -3 -3 -1 -1 1 -1 1
0 2 2 1 3 1 3 -1z m16 -4 c0 -1 -1 -3 -4 -5 -5 -4 -6 -4 -2 2 4 4 4 5 6 3z
m57 -28 c-8 -7 -18 -16 -19 -16 -1 0 0 5 1 10 l3 11 9 1 c4 0 9 1 11 1 1 0 0
-2 -5 -7z m337 4 c11 -3 13 -4 15 -8 1 -2 2 -4 2 -4 0 -1 -2 -1 -4 0 -4 0 -5
-1 -3 -2 0 -1 2 -4 4 -7 3 -6 5 -7 5 -2 0 5 1 4 7 -6 3 -6 6 -12 8 -14 2 -2 3
-4 3 -4 -1 0 -3 1 -5 1 l-4 2 0 -3 c2 -5 6 -13 7 -13 1 1 6 10 6 11 0 1 -1 1
-1 1 -1 0 -9 11 -9 12 1 0 2 0 4 -1 2 -1 6 -1 9 -1 5 0 6 0 9 -4 4 -4 9 -15 9
-18 0 -1 -2 -5 -5 -8 -3 -3 -8 -9 -11 -14 -4 -6 -6 -8 -8 -9 -1 0 -3 0 -4 -1
0 0 -1 1 -1 1 0 1 2 2 4 3 5 2 5 2 4 6 -3 5 -5 6 -7 2 -3 -4 -4 -3 -5 9 0 5
-1 8 -2 9 0 0 -4 -1 -8 -1 -4 -1 -7 -2 -8 -2 -1 1 -1 1 0 1 3 0 2 2 0 5 -4 3
-5 3 -7 2 -2 -2 -2 -2 -3 2 -1 2 -2 4 -2 5 -1 0 -6 -1 -11 -2 l-9 -3 -3 4 c-4
4 -4 5 -3 10 2 7 5 11 11 17 7 6 9 10 9 19 0 4 0 7 1 7 0 0 3 -1 6 -2z m19
-17 c0 -2 -1 -4 -1 -5 -1 -2 -1 -2 -2 1 -1 2 -3 4 -4 6 -1 2 -1 2 3 1 3 -1 4
-2 4 -3z m-405 -27 c0 -1 -3 -1 -5 -1 l-5 -1 0 5 0 5 5 -4 c3 -2 5 -4 5 -4z
m425 -6 c0 -1 -1 -3 -2 -5 l-2 -3 -3 5 c-3 7 -3 7 3 5 2 0 4 -2 4 -2z m-282
-1 c4 -3 7 -7 6 -9 -1 0 -3 1 -4 3 -2 2 -4 3 -4 3 -1 -1 -2 -13 -1 -13 0 -1 2
0 4 1 2 1 4 2 4 2 0 0 1 -4 1 -10 1 -10 2 -12 7 -16 5 -3 6 -6 3 -11 -2 -3 -3
-4 -6 -5 -4 0 -15 1 -17 2 -1 1 0 1 2 3 2 1 4 2 4 3 0 0 -9 -4 -13 -7 -7 -5
-8 -4 -7 3 l0 6 -4 1 c-2 1 -4 2 -6 4 l-2 2 4 2 c2 0 5 1 5 2 0 1 -6 8 -7 8
-1 0 -2 -1 -2 -3 l-2 -2 0 3 c0 5 0 6 -3 6 -2 1 -3 2 -4 4 -1 3 -1 3 4 8 7 6
11 9 13 9 2 0 2 0 2 -5 -1 -3 -1 -6 0 -6 0 -1 12 7 12 8 0 0 -1 1 -1 2 -1 0
-1 1 -1 1 3 2 7 4 7 4 1 0 3 -1 6 -3z m218 -1 c2 -2 3 -4 2 -4 0 -1 -9 -2 -10
-1 -2 0 -1 1 1 4 2 2 4 4 4 4 1 0 2 -1 3 -3z m-232 -1 c2 -2 2 -2 0 -3 -1 -1
-3 -3 -5 -4 l-3 -2 0 5 c0 5 0 5 3 5 1 0 4 -1 5 -1z m257 -4 l2 -4 -12 0 c-13
-1 -17 0 -12 3 3 2 18 6 19 6 1 0 2 -2 3 -5z m-241 -7 c-1 -1 -3 -2 -3 -2 -1
0 -1 2 -1 5 l0 5 3 -3 4 -3 -3 -2z m250 4 c2 -2 2 -3 -3 -3 -3 0 -4 0 -2 3 2
2 3 3 5 0z m-43 0 c0 -1 1 -2 2 -3 1 -2 1 -2 -1 -2 -2 0 -5 2 -4 4 0 2 3 3 3
1z m8 -1 c4 -2 6 -2 15 -2 9 0 9 0 7 -2 -3 -2 -12 -2 -20 0 -6 2 -8 3 -8 5 0
1 0 1 6 -1z m95 -4 c10 -6 10 -9 4 -21 l-4 -7 -2 10 c0 6 -1 12 -2 14 -1 4 -1
6 0 6 0 0 2 -1 4 -2z m-66 -3 c0 -2 0 -2 -2 0 -3 2 -4 3 -1 3 2 1 3 0 3 -3z
m24 -4 c1 -4 1 -8 2 -9 0 -2 -1 -1 -6 2 -3 2 -7 4 -8 5 -2 1 -4 3 -5 5 -1 3
-1 3 1 3 1 -1 5 0 8 0 8 3 8 3 8 -6z m-18 2 c2 -3 4 -5 8 -7 3 -2 7 -4 9 -6 3
-3 3 -3 2 -4 -4 -3 -13 0 -13 4 0 1 -1 3 -3 6 -6 7 -8 11 -6 11 0 0 2 -2 3 -4z
m55 -1 c1 -3 1 -12 2 -19 0 -14 0 -16 -4 -13 -1 1 -5 14 -6 22 -1 7 -1 8 2 11
2 2 4 4 4 4 0 0 1 -2 2 -5z m-350 2 c1 -2 0 -3 -4 -5 -4 -1 -4 0 0 3 3 3 4 4
4 2z m5 -6 c1 0 2 -1 2 -5 0 -3 -1 -5 -2 -5 -3 0 -10 3 -12 5 -3 3 -2 4 1 4 1
0 3 0 4 1 2 1 4 1 7 0z m363 0 c2 -2 0 -6 -6 -17 -6 -10 -8 -15 -9 -28 -1 -11
-2 -13 -6 -15 -4 -2 -16 -4 -29 -4 -14 0 -18 1 -18 3 0 1 2 1 14 1 16 0 29 1
33 4 2 2 2 3 2 8 0 6 0 10 3 12 0 1 1 4 1 8 1 5 2 8 4 10 3 4 8 15 8 17 0 2 1
3 3 1z m-25 -18 c0 -4 2 -7 2 -8 2 -3 0 -6 -6 -6 -5 -1 -10 -3 -17 -9 l-3 -2
0 2 c0 1 0 6 0 10 -1 3 -1 8 -1 9 -1 2 0 3 7 4 2 1 4 3 9 9 l6 9 0 -6 c1 -3 2
-8 3 -12z m-353 14 c0 -1 0 -2 -1 -2 -1 0 -2 2 -1 2 1 1 2 1 2 0z m25 -2 c1
-2 2 -3 2 -4 -1 0 -8 -2 -9 -1 0 0 3 7 4 7 0 0 2 -1 3 -2z m311 -3 c0 -1 -6
-4 -8 -4 -1 0 0 4 2 6 l2 3 2 -2 c1 -1 2 -3 2 -3z m-335 1 c1 1 2 1 3 0 0 -1
3 -2 5 -2 l5 -2 -7 1 c-5 0 -7 1 -9 3 -1 1 -2 2 -1 1 1 -1 3 -1 4 -1z m17 -6
c0 0 0 -1 -1 -2 -1 -1 -1 -1 -3 0 -2 1 -2 1 0 3 2 1 3 1 4 -1z m309 -1 c0 -4
-1 -4 -4 -3 -3 1 -3 2 0 4 4 1 4 1 4 -1z m-307 -5 c-1 -2 -1 -4 -1 -6 0 -1 -1
-2 -2 -1 -1 0 -1 3 1 8 1 3 2 4 2 3 1 -1 1 -2 0 -4z m10 -3 c0 -1 0 -2 0 -3 0
-2 -1 -3 -3 -3 -3 -1 -7 1 -7 3 0 1 1 3 1 4 1 3 1 3 5 1 2 -1 4 -2 4 -2z m331
-10 c0 -1 -1 -2 -2 -2 -2 0 -3 1 -2 4 0 2 0 2 2 1 1 -1 2 -2 2 -3z m-341 2 c2
0 2 -2 -1 -2 0 0 -1 1 -1 2 0 1 0 1 2 0z m9 -2 c1 -3 0 -4 -2 -2 -3 3 -3 4 0
4 1 0 2 -1 2 -2z m26 0 l5 0 -4 -7 c-3 -3 -5 -8 -6 -9 -3 -4 -4 -4 -7 1 -4 5
-9 8 -17 8 -4 0 -8 0 -10 -1 -2 -1 -4 -1 -4 -1 -1 1 5 6 8 8 3 1 3 1 6 -2 3
-2 3 -2 4 -1 1 1 3 2 4 2 1 0 3 1 4 2 2 2 3 2 7 1 2 0 7 -1 10 -1z m11 0 c1
-2 -2 -11 -5 -14 -1 -2 -5 -4 -7 -6 -6 -3 -6 -1 -1 6 2 3 5 7 6 9 2 5 6 7 7 5z
m289 -2 c2 -1 3 -2 3 -3 0 -2 -1 -3 -9 -3 -5 0 -10 -2 -13 -2 -5 -2 -6 -2 -4
0 3 4 15 10 19 10 1 0 3 -1 4 -2z m-344 -5 c-3 -5 -6 -7 -6 -5 0 3 2 6 5 7 4
3 4 2 1 -2z m59 -6 l0 -8 -4 -1 c-5 -1 -15 -2 -15 -2 0 1 2 3 6 4 5 4 9 8 10
13 1 5 2 2 3 -6z m258 6 c0 -5 -4 -11 -6 -8 -2 3 -1 6 2 8 3 2 4 3 4 0z m-290
-5 c3 -2 6 -8 5 -10 -1 -3 -6 -2 -16 5 -4 3 -7 4 -10 5 -2 0 -4 1 -4 1 0 1 4
2 13 2 7 0 9 -1 12 -3z m319 -3 c0 -6 0 -6 -4 -8 -3 -1 -7 -1 -17 -1 l-14 0
-1 2 c0 2 1 3 3 5 7 4 20 8 30 8 l3 0 0 -6z m-353 3 c0 -1 -1 -2 -2 -2 -3 0
-8 -4 -8 -6 0 -2 0 -3 -2 -3 -3 0 -6 4 -4 5 1 1 10 6 16 8 0 0 0 -1 0 -2z m14
-2 c2 -1 6 -3 9 -5 l5 -4 -6 0 c-19 -2 -23 -2 -27 -1 -6 3 -5 6 4 9 6 2 10 2
15 1z m302 -2 c1 -1 0 -2 0 -3 -1 -1 -1 -3 0 -4 0 -2 0 -2 -5 -2 -4 0 -5 1 -5
3 0 2 1 3 3 5 4 2 7 3 7 1z m-273 -5 c1 -2 0 -2 -1 -2 -2 0 -2 0 -1 2 1 0 1 1
2 1 0 0 0 -1 0 -1z m23 -3 c0 -4 -3 -4 -59 -4 -15 0 -20 0 -21 1 -1 0 -1 1 -1
1 1 1 7 1 11 0 3 -1 8 -1 14 0 5 1 18 1 29 1 11 0 21 1 22 1 3 1 5 1 5 0z M325 651 c2 -3 5 -8 6 -10 2 -3 3 -5 3 -5 0 2 -6 13 -9 16 l-3 4 3
-5z M321 641 c7 -10 8 -11 4 -3 -2 3 -5 7 -6 9 -2 2 -2 0 2 -6z M310 640 c5 -6 9 -12 10 -12 0 1 -6 10 -9 13 -2 1 -2 1 -1 -1z M304 636 c2 -2 6 -6 7 -9 4 -5 5 -5 2 -1 -2 4 -12 15 -13 15 -1 0 1
-2 4 -5z M325 626 c-11 -7 -13 -9 -10 -9 6 -2 16 -4 17 -3 1 1 6 16 6 18 0 1
-4 -1 -13 -6z m9 -3 c-1 -4 -2 -7 -3 -8 -2 -1 -15 2 -15 3 1 1 19 13 20 12 0
0 -1 -3 -2 -7z M289 625 c-9 -4 -15 -8 -14 -9 0 -1 4 -1 8 -1 l7 0 1 3 c0 2 1 5 1 6
1 3 1 4 -3 1z m2 -1 c0 0 -1 -2 -1 -5 -1 -4 -2 -4 -10 -3 l-4 1 7 4 c6 4 8 5
8 3z M344 621 c6 -9 7 -14 7 -26 0 -6 1 -10 1 -9 1 1 1 5 1 9 0 11 -5 24
-11 29 -1 1 0 -1 2 -3z M338 611 c3 -6 5 -14 5 -22 1 -2 1 -1 1 4 -1 9 -4 20 -7 23 0 1 0 -1
1 -5z M320 610 c3 -6 5 -15 5 -19 0 -2 0 -4 1 -5 2 -2 0 10 -2 17 -1 3 -3
7 -4 8 -2 2 -2 2 0 -1z M328 611 c5 -11 6 -15 7 -19 0 -3 1 -6 1 -7 1 -2 1 2 -1 11 -1 5 -5
16 -7 16 0 0 0 -1 0 -1z M297 602 c5 -2 9 -4 10 -4 0 -1 -3 -1 -7 0 -5 0 -8 0 -8 -1 -1 -1 8
-12 9 -12 1 0 4 2 7 4 7 5 7 5 11 2 2 -2 2 -2 0 1 -4 3 -14 9 -23 11 -9 3 -9
2 1 -1z m13 -7 c1 0 2 0 2 -1 0 0 -6 -5 -10 -7 0 -1 -2 1 -4 4 -2 2 -4 5 -4 5
0 0 3 0 7 0 4 -1 8 -1 9 -1z M258 580 c-9 -6 -16 -12 -15 -12 1 -1 18 -3 19 -2 2 1 7 16 6 19 0 1
-4 -1 -10 -5z m7 -4 c-1 -5 -3 -8 -4 -9 0 0 -4 0 -9 0 -7 1 -7 1 -5 3 2 3 19
14 20 14 0 -1 -1 -4 -2 -8z M324 581 c0 -1 12 -14 13 -14 1 0 9 7 11 10 2 3 2 3 1 4 -2 1 -25 1
-25 0z m21 -1 l4 -1 -6 -6 -6 -5 -5 6 c-3 3 -6 6 -6 6 0 1 13 1 19 0z M322 571 c-1 -3 -4 -8 -7 -12 -5 -10 -5 -11 0 -4 4 6 9 18 9 19 0 1
-1 -1 -2 -3z M326 563 c-2 -4 -5 -10 -7 -12 -4 -6 -4 -8 0 -3 3 4 9 15 11 19 2 5
0 3 -4 -4z M346 564 c-3 -6 -10 -18 -13 -24 -1 -2 -2 -3 -2 -3 3 0 19 30 18 32
0 1 -2 -2 -3 -5z M335 559 c-1 -2 -4 -7 -6 -11 -2 -3 -4 -6 -4 -7 1 -1 13 20 13 22 0
1 -2 -1 -3 -4z M215 545 c-6 -2 -11 -3 -12 -4 -1 0 -2 -1 -2 -1 0 -1 5 -5 13 -8 l5
-3 2 3 c2 4 7 15 7 16 0 1 -4 0 -13 -3z m7 -6 c-2 -5 -4 -8 -4 -8 -1 0 -4 2
-8 4 l-7 4 3 2 c4 1 19 6 20 6 0 -1 -2 -4 -4 -8z M306 542 c1 -8 4 -16 5 -16 3 0 17 5 19 6 1 1 -1 3 -11 7 -7 3 -13 6
-13 6 -1 0 -1 -1 0 -3z m13 -4 c5 -2 9 -5 9 -5 0 0 -3 -2 -7 -3 -4 -1 -8 -2
-9 -3 -1 0 -5 13 -5 15 0 1 0 1 12 -4z M301 536 c-1 -1 -5 -6 -10 -11 -4 -5 -7 -8 -5 -7 1 0 5 4 9 9 9 10 9
11 9 11 0 1 -2 0 -3 -2z M168 534 c-3 -1 -6 -3 -6 -3 -2 -1 2 -7 5 -10 l2 -2 1 2 c1 2 6 16 6
17 0 1 -3 -1 -8 -4z m6 2 c0 -1 -1 -4 -3 -8 -2 -7 -2 -7 -4 -5 -1 1 -3 3 -4 4
-1 3 -1 3 4 6 5 3 7 3 7 3z M271 537 c-1 -1 -6 -2 -11 -4 -5 -1 -9 -3 -9 -3 0 -1 15 -11 16 -11
1 1 7 14 7 17 0 1 -1 1 -3 1z m1 -3 c-1 -1 -2 -4 -3 -7 -1 -3 -2 -6 -2 -6 -2
0 -13 7 -14 8 0 1 14 6 17 6 1 0 2 -1 2 -1z M299 523 c-3 -4 -7 -8 -9 -10 -2 -3 -2 -3 2 1 5 4 14 15 14 15 0 1
-3 -2 -7 -6z M218 515 c12 -12 13 -13 6 -13 -6 0 -5 -2 1 -5 4 -2 7 -4 8 -4 1 0 5
5 8 8 l1 3 -5 0 -5 -1 -7 6 c-3 4 -9 9 -13 12 -3 3 0 0 6 -6z m21 -14 c-1 -2
-2 -3 -4 -1 -1 2 -1 2 4 3 1 0 1 -1 0 -2z m-5 -1 c2 -2 2 -3 1 -4 -2 -2 -2 -2
-7 1 -3 1 -5 3 -5 3 0 1 2 1 4 1 2 0 4 1 4 1 0 0 2 -1 3 -2z M310 512 c-7 -7 -13 -13 -13 -14 1 0 21 20 24 25 1 2 2 3 2 3 0 0 -6
-6 -13 -14z M302 513 c-5 -5 -9 -9 -8 -9 1 0 15 14 16 17 1 1 1 2 1 2 0 0 -4 -4
-9 -10z M278 511 c0 -1 0 -6 0 -10 l0 -7 7 -2 c5 -1 8 -1 9 -1 0 1 -7 12 -11
18 -3 3 -4 3 -5 2z m8 -9 c3 -5 6 -9 6 -9 -1 0 -4 0 -7 0 l-6 1 0 8 c0 4 0 8
0 8 1 0 4 -4 7 -8z M152 502 c-3 -1 -5 -2 -5 -2 -1 -2 15 -9 16 -9 1 1 -4 13 -5 13 -1 0
-4 -1 -6 -2z m7 -2 c1 -1 1 -3 2 -5 l0 -2 -6 3 c-3 1 -6 3 -6 3 -1 0 5 3 9 4
0 0 0 -1 1 -3z M190 497 c-11 -1 -14 -1 -14 -2 0 0 4 -3 9 -6 l8 -5 2 4 c3 6 3 10 0
10 -1 0 -3 0 -5 -1z m6 -3 c-1 -2 -1 -4 -2 -6 l-1 -2 -3 2 c-2 1 -5 3 -7 4
l-4 3 3 0 c2 0 6 1 9 1 5 0 5 0 5 -2z M271 494 l-3 -3 3 2 c1 1 3 3 4 3 1 2 -1 1 -4 -2z M274 488 c-2 -1 -4 -3 -4 -3 1 0 3 1 5 3 5 4 4 4 -1 0z M280 485 c-3 -3 -7 -5 -8 -6 -1 -1 -1 -1 1 0 2 1 9 5 11 8 3 3 2 2
-4 -2z M183 474 c0 -1 8 -7 12 -9 2 -1 2 -1 5 2 4 3 5 5 3 6 -2 1 -20 2 -20
1z m15 -2 l5 0 -3 -3 c-1 -2 -3 -3 -4 -3 0 0 -3 2 -6 4 l-4 3 4 0 c2 0 6 0 8
-1z M239 468 c0 0 2 -3 5 -6 4 -3 6 -5 7 -5 4 2 12 8 11 9 -1 1 -18 3
-21 3 -1 0 -2 0 -2 -1z m18 -2 c5 0 4 -1 -6 -7 0 -1 -3 1 -5 4 l-5 5 7 -1 c3
-1 8 -1 9 -1z M395 622 c-2 -1 -7 -17 -6 -17 1 0 6 4 13 8 8 6 11 9 10 9 -2 1 -15
1 -17 0z m15 -1 c0 -1 -3 -3 -7 -5 -3 -3 -8 -6 -9 -7 -2 -1 -3 -2 -3 -1 0 1 3
11 4 12 0 1 15 1 15 1z M447 615 c-2 -2 -11 -20 -11 -22 0 -1 1 -1 2 0 1 0 6 2 11 4 16 5 21
7 21 8 -1 1 -16 9 -20 10 -1 1 -2 0 -3 0z m19 -8 c1 -1 2 -1 2 -2 -2 -1 -30
-11 -30 -10 0 1 7 17 9 19 1 1 3 0 9 -3 4 -1 9 -3 10 -4z M388 586 c-4 -8 -7 -16 -6 -17 1 0 29 17 29 18 0 1 -13 5 -17 5 -4 0
-4 0 -6 -6z m14 3 c3 0 6 -1 6 -2 1 0 -5 -4 -11 -8 -7 -4 -13 -7 -13 -7 0 1 2
6 6 16 1 3 3 4 12 1z M368 535 c-3 -6 -5 -12 -6 -14 l0 -2 3 1 c5 4 17 13 19 15 1 2 2 3 2
4 -1 1 -10 6 -12 6 -1 0 -4 -4 -6 -10z m13 6 c3 -2 4 -4 2 -5 -4 -4 -17 -13
-18 -13 -1 -1 -1 0 5 13 4 9 4 9 11 5z M78 466 c-3 -1 -6 -3 -8 -4 l-4 -1 3 0 c2 1 6 2 9 4 6 3 6 4 0 1z M33 444 c0 0 0 -1 1 -1 1 -1 1 0 0 0 0 2 -1 2 -1 1z M111 438 c0 -1 1 -3 2 -5 0 -2 1 -6 1 -8 0 -4 2 -7 2 -3 0 5 0 9 -2
12 -2 3 -3 5 -3 4z M100 430 c1 -3 5 -10 8 -11 2 -1 2 0 -1 3 -6 6 -7 8 -2 5 l4 -3 -4 4
c-3 2 -4 4 -4 4 -1 0 -1 -1 -1 -2z M110 420 c0 0 1 0 1 -1 1 -1 2 -1 2 0 0 1 -1 2 -2 2 0 0 -1 0 -1 -1z M214 441 c-2 -2 -2 -3 0 -4 3 -1 7 -1 10 1 2 1 2 1 1 3 -1 3 -9 3
-11 0z m9 0 c2 -1 0 -3 -4 -3 -5 0 -6 1 -4 3 3 1 6 1 8 0z M130 487 c0 -1 5 -9 6 -9 0 0 -1 3 -5 7 0 2 -1 2 -1 2z M138 474 c1 -2 4 -7 7 -12 2 -5 4 -8 4 -6 -1 2 -10 17 -12 20 -1 1 0
0 1 -2z M156 450 c-7 -4 -6 -4 1 -1 3 2 5 3 5 3 -1 0 -4 -1 -6 -2z M298 439 c0 -1 0 -3 -1 -4 0 -1 0 -1 1 0 1 1 1 3 1 4 -1 1 -1 1 -1 0z M288 427 c0 -2 0 -4 0 -3 1 0 1 2 1 4 -1 3 -1 3 -1 -1z M354 425 c-11 -6 -27 -17 -28 -20 0 -3 2 -5 15 -17 15 -14 15 -13 0
1 -7 7 -13 14 -13 14 0 4 14 14 29 22 5 3 9 5 8 5 0 0 -5 -2 -11 -5z M384 428 c0 -1 4 -3 9 -6 9 -7 14 -10 25 -20 8 -7 12 -10 14 -10 1 0
0 1 -2 2 -1 1 -7 6 -13 11 -10 9 -30 23 -32 23 -1 0 -1 0 -1 0z M474 392 c0 -1 5 -15 5 -13 0 1 -4 13 -5 14 0 0 0 0 0 -1z M301 385 c-3 -4 -12 -17 -14 -22 -3 -4 -2 -7 1 -8 3 -2 6 -1 2 0 -1
1 -3 2 -3 3 -1 1 7 16 16 27 2 2 2 2 4 1 3 -2 24 -29 25 -32 1 -2 1 -2 1 -1 0
1 -2 4 -4 7 -1 2 -6 8 -9 13 -6 9 -12 15 -14 15 -1 0 -3 -1 -5 -3z M467 383 c3 -2 7 -19 8 -29 0 -5 0 -8 -2 -13 -3 -8 -2 -9 1 -1 3 7 3
14 0 27 -2 11 -5 17 -7 18 -1 0 -1 0 0 -2z M270 367 c0 -6 0 -11 1 -11 0 -1 0 18 -1 20 -1 1 -1 -3 0 -9z M247 366 c-19 -9 -30 -15 -42 -23 -11 -7 -10 -8 6 -6 15 1 58 9 54
10 -1 0 -10 -2 -21 -3 -24 -4 -44 -7 -45 -7 -1 1 23 15 42 25 16 8 23 12 21
12 0 0 -7 -3 -15 -8z M359 365 c2 -3 6 -8 9 -10 l4 -4 -5 6 c-3 3 -7 7 -9 9 l-3 4 4 -5z M371 362 c0 -1 14 -13 23 -19 13 -9 12 -9 42 6 27 13 31 14 32 7 0
-5 0 -6 -20 -27 -15 -16 -19 -21 -18 -21 1 0 36 38 38 41 2 4 3 9 0 11 -3 4
-8 2 -34 -11 -12 -5 -24 -10 -26 -11 -3 0 -4 0 -12 6 -5 3 -12 8 -15 11 -8 6
-10 7 -10 7z M448 304 c-10 -10 -10 -12 0 -2 5 5 10 11 9 11 0 0 -4 -4 -9 -9z M169 309 c3 0 8 0 11 0 3 0 1 1 -5 1 -7 0 -9 -1 -6 -1z M198 298 c-6 -2 -11 -5 -10 -5 0 0 5 2 11 4 l10 4 -3 -3 c-1 -2 -2
-3 -1 -3 0 0 2 2 5 4 5 5 3 5 -12 -1z M157 436 c0 -1 1 -4 1 -6 l2 -4 5 -1 c3 0 6 0 6 1 0 1 -7 6 -11 9 -2
2 -3 2 -3 1z m10 -8 l2 -2 -4 0 c-3 0 -4 0 -5 3 -2 4 -1 5 2 3 2 -1 4 -3 5 -4z M208 411 c0 -1 1 -3 2 -6 l2 -4 2 2 c3 3 3 6 0 7 -2 1 -6 1 -6 1z m7
-3 c0 0 0 -2 -1 -3 -1 -2 -1 -2 -2 1 -1 1 -2 3 -2 3 0 1 4 0 5 -1z M199 405 c1 -1 2 -3 2 -4 1 -4 3 -3 5 0 2 3 2 3 1 5 -2 0 -4 1 -5 1
-3 0 -3 0 -3 -2z m6 0 c2 0 1 -3 0 -4 -2 -1 -2 -1 -3 1 -1 4 -1 4 1 4 0 -1 2
-1 2 -1z M191 403 c-1 0 0 -2 1 -4 2 -4 2 -4 4 -2 3 4 3 5 0 6 -3 1 -4 1 -5 0z
m6 -2 c0 0 0 -1 -1 -2 l-1 -2 -2 2 c-1 4 -1 4 1 3 1 0 3 0 3 -1z M151 411 c-6 -4 -7 -4 -6 -6 1 -1 2 -2 3 -3 2 -1 5 2 11 10 3 3 1 3
-8 -1z m3 -4 c-2 -2 -4 -4 -5 -4 -1 0 -4 3 -3 3 1 1 11 6 11 5 0 0 -1 -2 -3
-4z M136 400 c-2 -2 -7 -10 -7 -13 -1 -1 0 0 2 4 2 3 4 7 5 8 2 3 2 4 0
1z M139 398 c-4 -5 -6 -10 -6 -11 0 -1 2 1 3 5 2 3 4 7 5 8 1 0 1 1 1 2
0 0 -2 -2 -3 -4z M143 399 c-1 -2 -4 -8 -4 -10 0 0 1 2 3 5 3 5 3 7 1 5z M146 394 c-3 -6 -2 -6 1 0 2 3 2 5 2 5 0 0 -2 -2 -3 -5z M133 383 c-4 -2 -7 -3 -8 -3 0 -1 7 -12 7 -12 1 0 13 16 13 17 0 2
-4 1 -12 -2z m5 -6 c-3 -4 -5 -7 -5 -7 -2 0 -6 8 -5 9 1 1 14 6 15 5 0 0 -2
-3 -5 -7z M123 373 c-2 -5 -4 -19 -4 -20 0 -1 1 -1 1 1 1 3 4 20 4 21 -1 0 -1
-1 -1 -2z M141 374 c-1 0 -1 -4 -1 -8 -1 -5 -1 -10 -2 -12 0 -3 0 -4 0 -3 1 0
2 8 3 19 1 5 1 6 0 4z M78 366 c-3 -5 -4 -7 -1 -7 1 1 4 2 7 3 3 0 6 1 6 2 0 0 -7 7 -8 7 0
0 -2 -2 -4 -5z m8 1 c2 -2 2 -3 1 -3 -4 -2 -9 -3 -10 -3 0 1 4 8 5 8 0 0 2 -1
4 -2z M102 364 c-2 -6 -2 -8 -1 -8 1 0 15 9 15 10 0 1 -1 1 -9 2 l-4 1 -1
-5z m12 2 c0 0 -2 -2 -6 -4 -3 -2 -6 -4 -6 -4 -1 0 0 3 1 5 l1 5 4 -1 c3 -1 5
-1 6 -1z M128 368 c-1 -3 -4 -17 -3 -16 0 0 1 3 2 7 1 4 1 8 2 9 0 0 0 1 -1 1
0 0 0 -1 0 -1z M134 365 c-1 -1 -1 -5 -2 -7 0 -3 0 -6 -1 -7 0 -1 0 -1 1 0 1 2 3 15
3 16 -1 0 -1 -1 -1 -2z M84 344 c-2 -7 -2 -7 -1 -7 2 0 15 6 15 7 0 0 -11 5 -12 5 -1 0 -2
-2 -2 -5z m8 -2 c-9 -4 -9 -4 -9 -2 1 1 2 3 2 5 l1 3 5 -2 5 -2 -4 -2z M117 342 c1 -4 1 -4 -4 -10 -3 -3 -5 -6 -4 -6 0 0 3 2 5 6 3 3 5 5 5
4 1 -1 1 -1 3 0 3 1 13 9 13 10 0 1 -4 1 -9 1 l-9 0 0 -5z m13 1 c-3 -2 -6 -4
-7 -5 l-3 -2 -1 4 c-1 2 -1 4 0 5 0 1 3 1 7 1 l8 0 -4 -3z M112 340 c-1 -2 -4 -5 -5 -7 -1 -2 -2 -3 -1 -2 3 2 9 11 9 12 0 0 -2
-1 -3 -3z M132 337 c-2 -3 -6 -8 -9 -12 -3 -3 -5 -6 -5 -7 1 -1 13 15 17 22 2
4 0 2 -3 -3z M122 334 c0 -1 -2 -4 -4 -6 -2 -2 -4 -4 -4 -5 1 0 2 2 4 4 4 5 6 8 6
8 -1 0 -1 -1 -2 -1z M132 325 c-3 -4 -10 -10 -13 -13 -10 -8 -11 -9 -5 -5 8 5 27 26 25
26 0 0 -3 -3 -7 -8z M494 344 c-5 -2 -5 -2 0 -10 l3 -5 2 4 c1 3 2 6 3 9 0 3 0 4 -2 4 -1
0 -3 -1 -6 -2z m7 0 c0 -2 -3 -12 -4 -12 -1 0 -5 8 -5 9 0 0 2 1 4 2 4 2 5 2
5 1z M480 322 c-3 -1 -5 -2 -5 -2 0 -1 7 -11 8 -11 1 0 6 10 6 12 0 2 -2
2 -9 1z m8 -1 c0 0 -1 -3 -3 -6 l-3 -5 -2 4 c-2 3 -3 5 -3 5 1 1 8 3 10 3 0 0
1 0 1 -1z M500 322 c0 0 1 -4 3 -8 2 -6 3 -7 3 -6 2 2 5 13 4 14 -1 1 -10 1
-10 0z m9 -1 c0 -1 -2 -9 -3 -10 0 -1 -2 2 -3 5 l-2 6 4 0 c2 -1 3 -1 4 -1z M548 315 c1 -1 1 -5 2 -9 1 -4 2 -7 2 -7 0 0 2 2 3 4 3 5 3 6 -2 10
-3 3 -6 4 -5 2z m8 -8 c0 0 -1 -2 -2 -3 l-2 -2 0 4 c-1 2 -1 5 -2 6 l0 3 3 -3
c2 -2 3 -4 3 -5z M537 292 c-1 0 -2 -1 -2 -1 0 -2 4 -10 5 -10 1 0 4 6 5 10 1 2 1 2
-2 2 -2 0 -5 0 -6 -1z m6 -4 c-1 -3 -2 -5 -3 -5 0 0 -3 6 -3 7 0 1 2 1 7 2 1
0 0 -1 -1 -4z M234 288 c-1 -5 -1 -9 0 -9 1 0 8 3 10 4 1 1 0 2 -4 5 -3 1 -5 3 -5
3 -1 0 -1 -1 -1 -3z m5 -1 c2 -1 3 -2 3 -3 0 0 -2 -1 -4 -2 -4 -2 -4 -2 -4 0
1 0 1 2 1 4 0 4 0 4 4 1z M252 270 c-1 -3 -2 -6 -1 -6 1 -1 12 0 12 2 0 1 -7 9 -8 9 0 0 -2 -2
-3 -5z m7 -4 c-2 -1 -7 -1 -7 0 0 1 1 3 2 4 l1 3 3 -3 c3 -3 3 -3 1 -4z" fill="black"/>
<path d="M0 400 l0 -400 300 0 300 0 0 400 0 400 -300 0 -300 0 0 -400z m329
259 c2 -1 6 -8 9 -14 5 -9 8 -14 13 -19 7 -8 11 -16 12 -24 l0 -5 10 10 c19
19 25 23 44 27 21 5 47 1 69 -9 17 -8 33 -22 25 -22 -4 0 -27 -8 -41 -14 -13
-6 -31 -16 -41 -23 -11 -7 -19 -15 -30 -30 -5 -7 -14 -18 -19 -23 -9 -10 -10
-10 -11 -16 -1 -5 -3 -12 -7 -20 0 0 0 -1 1 -1 1 0 3 -1 5 -2 3 -1 4 -1 40 8
46 12 61 16 84 20 19 4 45 8 50 8 5 0 8 -4 10 -9 3 -13 3 -13 -17 -15 -23 -3
-88 -17 -137 -29 l-5 -2 4 -5 c5 -8 18 -21 24 -24 3 -2 8 -6 12 -9 3 -3 7 -5
8 -5 1 0 6 1 10 2 11 2 14 1 22 -8 3 -3 8 -9 11 -12 l5 -6 0 -8 c-1 -5 0 -7 1
-8 0 -1 2 -3 2 -5 1 -1 3 -3 4 -3 3 0 14 -4 17 -6 1 -1 5 -8 9 -16 8 -16 9
-17 20 -17 6 0 7 0 10 -3 3 -3 8 -10 11 -18 1 -4 2 -5 6 -7 3 -1 6 -4 7 -5 2
-2 4 -4 5 -4 5 -3 4 -10 -4 -21 -5 -8 -7 -16 -8 -27 -1 -15 -3 -18 -15 -20
-13 -2 -38 -2 -42 0 -1 0 -1 3 -2 7 0 5 0 6 2 9 2 1 4 2 6 3 2 0 3 1 4 3 0 2
2 4 4 6 3 2 3 2 3 8 -1 5 -2 7 -3 8 -1 0 -2 2 -3 3 -2 1 -4 2 -6 3 -2 1 -4 3
-5 5 -3 6 -9 13 -11 13 -1 0 -2 1 -3 2 -1 1 -3 1 -8 1 -6 -1 -8 -1 -13 1 -5 2
-6 2 -8 1 -2 -1 -3 -1 -5 0 -5 2 -13 2 -19 0 -6 -2 -8 -1 -11 5 -2 4 -3 6 -3
6 0 0 -3 -1 -6 -2 -4 -2 -7 -2 -11 -2 -4 1 -11 2 -16 2 -5 0 -10 1 -11 2 -2 1
-5 5 -7 9 -4 7 -15 18 -21 21 -10 5 -27 7 -60 7 l-21 1 -10 -4 c-5 -2 -11 -5
-12 -6 l-2 -1 3 -4 c4 -6 4 -6 0 -10 l-4 -3 5 -4 c2 -1 5 -4 5 -5 1 -1 2 -7 2
-15 l1 -13 5 -5 c3 -3 6 -6 6 -7 0 -1 -1 -4 -2 -7 -3 -5 -3 -5 -1 -9 0 -3 1
-8 1 -14 0 -14 1 -13 -25 -14 -58 -1 -59 -1 -60 5 -1 2 -1 5 -2 7 0 3 0 4 11
8 4 2 8 5 9 6 3 3 9 5 10 4 2 -1 1 3 -1 5 -1 2 -1 3 0 6 0 3 0 4 -2 6 -2 2 -4
3 -7 3 -4 0 -8 2 -10 5 -1 3 -2 3 -11 3 -5 1 -10 1 -11 2 -1 0 -3 2 -4 5 -1 2
-3 4 -4 5 -2 1 -15 3 -20 3 -6 0 -7 1 -13 12 l-4 9 -9 -7 c-9 -7 -15 -11 -18
-11 -6 0 -21 15 -27 27 -2 5 -6 11 -10 15 -6 7 -9 13 -9 17 0 6 13 17 27 25 7
3 9 4 11 7 1 3 2 5 1 5 -2 1 -3 1 -5 -1 -2 -1 -2 -1 -1 -2 2 -3 1 -5 -4 -7 -2
-1 -6 -3 -7 -4 -3 -1 -3 -1 -10 4 -4 4 -8 6 -8 6 0 0 -1 -2 -2 -5 -1 -3 -2 -7
-3 -9 -2 -3 -2 -3 -8 -2 -3 0 -6 0 -7 0 0 1 -1 5 -1 13 l-1 13 -6 14 c-6 11
-7 14 -7 17 1 3 0 5 -2 9 -3 6 -3 11 0 18 1 3 2 8 2 12 0 9 2 16 5 19 1 2 3 5
4 7 1 3 3 5 7 8 3 2 7 4 8 5 1 1 4 5 7 10 l4 8 6 -1 c4 0 8 0 10 -1 2 -1 3 -1
5 2 2 3 3 3 5 2 3 -1 3 -1 6 2 3 3 3 3 6 2 1 -1 5 -4 7 -6 4 -4 6 -5 7 -4 2 1
4 -1 7 -7 0 -3 2 -6 4 -7 l3 -3 5 4 c6 5 8 8 16 24 3 5 7 11 9 13 9 11 34 24
51 28 3 1 9 4 17 9 8 5 16 10 19 12 4 3 8 7 15 15 10 12 29 32 38 39 12 10 26
14 31 10z" fill="white"/>
<path d="M317 656 c-1 -1 -4 -4 -5 -7 l-2 -5 -7 0 -8 0 -12 -12 c-10 -10 -27
-30 -27 -31 0 -1 4 0 8 2 5 1 10 2 13 2 4 0 4 0 -2 -2 -10 -1 -11 -2 -12 -4 0
-2 -1 -2 -4 -2 -3 1 -5 0 -12 -4 -14 -8 -20 -13 -19 -13 2 -1 -1 -9 -4 -13
l-2 -2 -6 3 -6 3 -6 -6 c-3 -3 -8 -9 -10 -13 -4 -6 -9 -21 -10 -29 -1 -4 -1
-4 7 -15 2 -3 1 -2 -2 1 -7 7 -8 10 -6 17 3 15 11 31 20 40 2 3 4 5 4 5 -2 0
-15 -6 -22 -9 -10 -5 -13 -7 -14 -12 -1 -3 -2 -4 -3 -2 -3 3 -8 -2 -16 -15 -4
-7 -5 -10 -5 -13 0 -3 0 -4 -2 -4 0 0 -4 -2 -8 -6 -8 -9 -8 -10 -1 -16 15 -13
40 -26 63 -34 l14 -4 20 0 c21 0 28 0 44 5 5 1 6 2 6 3 0 1 -1 2 -2 2 -2 0 -2
1 -3 4 0 4 -1 5 -4 3 -4 -2 -5 0 -8 9 -2 4 -3 6 -4 6 -1 0 -5 0 -9 -1 -7 0 -7
0 -10 -4 l-3 -4 -6 2 c-7 2 -8 2 -4 4 l3 2 -4 -1 c-2 0 -6 -1 -9 -3 -4 -1 -10
-3 -15 -3 -9 -1 -16 -1 -29 3 -7 2 -4 2 4 0 17 -3 24 -3 38 1 l7 2 -5 2 c-7 3
-15 7 -19 11 -3 3 -2 2 4 -1 7 -5 18 -10 20 -10 1 0 5 1 8 3 5 1 7 3 6 3 -1 1
-1 2 -1 2 0 1 2 -1 5 -3 6 -4 7 -5 15 -3 5 1 5 2 8 6 4 10 11 29 13 36 1 4 1
9 1 13 -1 5 -1 7 -5 11 -5 6 -7 10 -7 15 0 5 2 15 4 18 1 1 1 1 1 0 -1 -1 -2
-6 -2 -10 -1 -9 0 -13 4 -19 5 -6 6 -11 6 -20 l0 -7 3 5 c1 2 4 7 5 10 l3 6
-3 6 c-4 10 -4 11 2 7 l6 -3 1 3 c1 3 1 3 -1 -5 0 -2 0 -3 3 -4 4 -3 3 -4 -2
-5 -2 0 -4 -1 -4 -1 -2 -1 -15 -29 -18 -37 -2 -5 -4 -10 -5 -11 0 -1 0 -1 2 0
2 1 2 1 -1 -2 -1 -1 -4 -4 -5 -7 -1 -4 -1 -5 1 -12 1 -4 2 -7 3 -8 2 -1 12 5
20 11 3 2 13 11 20 19 20 20 31 36 40 57 6 12 8 18 9 29 2 14 -1 21 -12 33 -4
5 -8 11 -12 19 -3 6 -6 12 -7 13 -3 3 -9 3 -12 0z m14 -13 c2 -3 3 -6 3 -7 0
0 -1 2 -3 5 -1 2 -4 7 -6 10 l-3 5 3 -4 c2 -2 4 -6 6 -9z m-6 -5 c4 -8 3 -7
-4 3 -4 6 -4 8 -2 6 1 -2 4 -6 6 -9z m-8 -4 c2 -3 3 -5 3 -6 -1 0 -5 6 -10 12
-3 5 3 -1 7 -6z m-11 1 c5 -5 10 -12 9 -12 -1 0 -2 2 -4 4 -1 3 -5 7 -7 9 -3
3 -5 5 -4 5 0 0 3 -3 6 -6z m32 -3 c0 -2 -5 -17 -6 -18 -1 -1 -11 1 -17 3 -3
0 -1 2 10 9 9 5 13 7 13 6z m-46 -8 c0 -1 -1 -4 -1 -6 l-1 -3 -7 0 c-4 0 -8 0
-8 1 -1 1 5 5 14 9 4 3 4 2 3 -1z m55 -5 c4 -7 6 -15 6 -24 0 -4 0 -8 -1 -9 0
-1 -1 3 -1 9 0 12 -1 17 -7 26 -2 2 -3 4 -2 3 1 -1 3 -3 5 -5z m-6 -11 c2 -4
2 -9 3 -15 0 -5 0 -6 -1 -4 0 8 -2 16 -5 22 -1 4 -1 6 -1 5 1 -1 3 -4 4 -8z
m-17 -5 c2 -7 4 -19 2 -17 -1 1 -1 3 -1 5 0 4 -2 13 -5 19 -2 3 -2 3 0 1 1 -1
3 -5 4 -8z m8 3 c2 -5 3 -10 4 -18 1 -3 1 -4 0 -3 0 1 -1 4 -1 7 -1 4 -2 8 -7
19 0 0 0 1 0 1 1 0 2 -3 4 -6z m-36 -3 c9 -2 19 -8 23 -11 2 -3 2 -3 0 -1 -4
3 -4 3 -11 -2 -3 -2 -6 -4 -7 -4 -1 0 -10 11 -9 12 0 1 3 1 8 1 4 -1 7 -1 7 0
-1 0 -5 2 -10 4 -10 3 -10 4 -1 1z m-29 -25 c-1 -6 -4 -12 -5 -12 -1 -1 -18 1
-19 2 -1 0 6 6 15 12 6 4 10 6 10 5 0 -1 0 -4 -1 -7z m82 3 c1 -1 1 -1 -1 -4
-2 -3 -10 -10 -11 -10 -1 0 -13 13 -13 14 0 1 23 1 25 0z m-28 -14 c-2 -6 -10
-18 -10 -17 0 0 2 4 4 9 3 4 6 9 7 12 1 2 2 4 2 3 0 -1 -1 -4 -3 -7z m9 0 c-2
-4 -8 -15 -11 -19 -4 -5 -4 -3 0 3 2 2 5 8 7 12 4 7 6 9 4 4z m15 -7 c-4 -9
-12 -23 -14 -23 0 0 1 1 2 3 3 6 10 18 13 24 1 3 3 6 3 5 0 0 -2 -5 -4 -9z
m-10 -3 c-3 -7 -9 -16 -10 -16 0 1 2 4 4 7 2 4 5 9 6 11 1 3 3 5 3 4 0 0 -1
-3 -3 -6z m-107 -9 c0 -1 -5 -12 -7 -16 l-2 -3 -5 3 c-8 3 -13 7 -13 8 0 0 1
1 2 1 19 6 25 8 25 7z m91 -9 c10 -4 12 -6 11 -7 -2 -1 -16 -6 -19 -6 0 0 -2
3 -3 7 -3 10 -3 12 -2 12 0 0 6 -3 13 -6z m-16 -3 c-7 -8 -16 -17 -17 -18 -2
-1 1 2 5 7 5 5 9 10 10 11 1 2 3 3 3 2 0 0 0 -1 -1 -2z m-127 2 c0 -1 -5 -15
-6 -17 l-1 -2 -2 2 c-3 3 -7 9 -5 10 0 0 3 2 6 3 5 3 8 5 8 4z m98 -2 c0 -3
-6 -16 -7 -17 -1 0 -16 10 -16 11 0 0 4 2 9 3 5 2 10 3 11 4 2 0 3 0 3 -1z
m27 -13 c-3 -3 -7 -7 -9 -9 -4 -4 -4 -4 -2 -1 5 6 15 17 16 16 0 0 -2 -3 -5
-6z m-76 -14 l7 -6 5 1 5 0 -1 -3 c-3 -3 -7 -8 -8 -8 -1 0 -4 2 -8 4 -6 3 -7
5 -1 5 7 0 6 1 -6 13 -6 6 -9 9 -6 6 4 -3 10 -8 13 -12z m96 14 c-3 -5 -23
-25 -24 -25 0 1 25 28 26 28 0 0 -1 -1 -2 -3z m-11 -2 c-1 -3 -15 -17 -16 -17
-1 0 3 4 8 9 5 6 9 10 9 10 0 0 0 -1 -1 -2z m-20 -23 c2 -3 4 -6 4 -7 -1 0 -4
0 -9 1 l-7 2 0 7 c0 4 0 9 0 10 1 1 2 1 5 -2 1 -3 5 -7 7 -11z m-129 0 c1 -4
2 -6 2 -7 -1 0 -17 7 -16 9 0 1 9 4 11 4 1 0 2 -3 3 -6z m36 -3 c0 -1 -1 -4
-2 -7 l-2 -4 -8 5 c-5 3 -9 6 -9 6 0 1 5 1 19 3 2 0 2 -1 2 -3z m78 1 c-1 0
-3 -2 -4 -3 l-3 -2 3 3 c3 3 5 4 4 2z m0 -8 c-2 -2 -4 -3 -5 -3 0 1 7 6 8 6 1
0 -1 -1 -3 -3z m9 -1 c-2 -3 -9 -7 -11 -8 -2 -1 -2 -1 -1 0 1 1 5 3 8 6 6 4 7
5 4 2z m-81 -14 c2 -1 1 -3 -3 -6 -3 -3 -3 -3 -5 -2 -4 2 -12 8 -12 9 0 1 18
0 20 -1z m48 -5 c5 -1 10 -2 11 -2 1 -1 -7 -7 -11 -9 -1 0 -3 2 -7 5 -3 3 -5
6 -5 6 0 1 2 1 12 0z M260 599 c0 -1 0 -1 1 -1 1 0 1 0 1 1 0 1 0 1 -1 1 -1 0 -1 0 -1 -1z M168 552 c-1 -1 -1 -2 0 -2 0 -1 1 0 2 1 1 2 0 3 -2 1z M145 519 c-1 -1 -1 -1 0 -1 1 0 1 0 1 1 0 1 0 1 0 1 -1 0 -1 0 -1 -1z" fill="white"/>
<path d="M308 653 c-2 -1 -5 -3 -7 -5 l-3 -3 5 0 c5 0 5 0 8 5 3 5 3 6 -3 3z" fill="white"/>
<path d="M426 633 c-10 -1 -20 -4 -27 -7 -5 -3 -9 -6 -21 -18 -8 -8 -15 -15
-15 -15 0 -1 1 -1 3 -1 l2 0 -3 -3 c-2 -3 -4 -6 -5 -12 -2 -5 -4 -11 -5 -14
-2 -4 -3 -6 -3 -6 0 -1 1 -1 2 -2 2 -1 2 -1 -2 -4 -2 -2 -6 -7 -9 -10 -2 -4
-6 -10 -9 -13 l-4 -6 4 -2 c2 -1 5 -3 5 -4 0 0 -3 -2 -7 -4 l-7 -4 0 -6 c-1
-4 -1 -11 -1 -16 l0 -10 9 5 c5 3 10 6 11 6 1 1 6 4 12 9 15 11 29 25 41 42 5
7 12 16 16 19 10 10 34 25 56 34 14 6 31 12 37 14 l4 0 -4 5 c-19 16 -55 26
-80 23z m-14 -11 c1 0 -2 -3 -10 -9 -7 -4 -12 -8 -13 -8 -1 0 4 16 6 17 2 1
15 1 17 0z m49 -11 c5 -3 9 -5 9 -6 0 -1 -5 -3 -21 -8 -5 -2 -10 -4 -11 -4 -1
-1 -2 -1 -2 0 0 2 9 20 11 22 2 1 3 1 14 -4z m-57 -21 c4 -1 7 -2 7 -3 0 -1
-28 -18 -29 -18 -1 1 2 9 6 17 2 6 2 6 6 6 2 0 7 -1 10 -2z m-24 -47 c6 -4 7
-5 4 -8 -2 -2 -14 -11 -19 -15 l-3 -1 0 2 c2 6 10 24 12 24 0 0 3 -1 6 -2z M362 589 c0 -2 0 -2 2 -1 0 1 1 2 1 2 0 1 -1 1 -1 1 -1 0 -2 -1 -2
-2z M350 553 c-1 -1 -1 -2 0 -2 1 0 4 3 3 3 -1 1 -2 1 -3 -1z" fill="white"/>
<path d="M326 625 c-5 -3 -10 -6 -10 -7 0 -1 13 -4 15 -3 1 1 6 15 5 15 0 1
-5 -2 -10 -5z" fill="white"/>
<path d="M283 621 l-7 -4 4 -1 c8 -1 9 -1 10 3 2 7 2 7 -7 2z" fill="white"/>
<path d="M395 620 c-1 -1 -4 -11 -4 -12 0 -1 1 0 3 1 1 1 6 4 9 7 4 2 7 4 7 5
0 0 -15 0 -15 -1z" fill="white"/>
<path d="M447 614 c-2 -2 -9 -18 -9 -19 0 -1 28 9 30 10 0 1 -2 2 -12 6 -6 3
-8 4 -9 3z" fill="white"/>
<path d="M294 596 c0 0 2 -3 4 -5 2 -3 4 -5 4 -4 4 2 10 7 10 7 0 1 -1 1 -2 1
-1 0 -5 0 -9 1 -4 0 -7 0 -7 0z" fill="white"/>
<path d="M390 588 c-4 -10 -6 -15 -6 -16 0 0 6 3 13 7 6 4 12 8 11 8 -1 1 -12
4 -15 4 -1 0 -2 -1 -3 -3z" fill="white"/>
<path d="M257 578 c-4 -3 -9 -7 -10 -8 -2 -2 -2 -2 5 -3 5 0 9 0 9 0 2 1 7 16
6 17 0 0 -5 -3 -10 -6z" fill="white"/>
<path d="M326 580 c0 0 3 -3 6 -6 l5 -6 6 5 6 6 -4 1 c-6 1 -19 1 -19 0z" fill="white"/>
<path d="M223 577 c-2 -1 -5 -2 -7 -3 -2 -1 -3 -2 -3 -2 0 -1 9 -6 9 -5 2 2 6
12 5 12 0 1 -2 0 -4 -2z" fill="white"/>
<path d="M290 562 c1 -3 3 -6 3 -5 0 0 1 1 2 3 1 3 1 3 -3 5 -2 2 -4 3 -4 3
-1 0 0 -3 2 -6z" fill="white"/>
<path d="M295 557 c-1 -2 0 -3 2 -3 4 0 5 1 2 3 -3 2 -3 2 -4 0z" fill="white"/>
<path d="M217 544 c-4 -1 -9 -3 -11 -3 l-3 -2 7 -4 c4 -2 7 -4 8 -4 1 0 8 15
8 16 0 0 -4 -1 -9 -3z" fill="white"/>
<path d="M370 536 c-6 -13 -6 -14 -5 -13 1 0 14 9 18 13 2 1 1 3 -2 5 -7 4 -7
4 -11 -5z" fill="white"/>
<path d="M307 542 c0 -2 4 -15 5 -15 1 1 5 2 9 3 4 1 7 3 7 3 0 0 -4 3 -9 5
-12 5 -12 5 -12 4z" fill="white"/>
<path d="M167 533 c-5 -3 -5 -3 -4 -6 1 -1 3 -3 4 -4 2 -2 2 -2 4 5 2 4 3 7 3
8 0 0 -2 0 -7 -3z" fill="white"/>
<path d="M261 532 c-5 -1 -8 -3 -8 -3 1 -1 12 -8 14 -8 0 0 1 3 2 6 1 3 2 6 3
7 0 2 -2 1 -11 -2z" fill="white"/>
<path d="M92 524 c-2 -3 -4 -6 -4 -7 0 0 1 -2 3 -3 l3 -2 6 6 6 6 -4 3 c-2 2
-4 3 -4 3 -1 0 -3 -3 -6 -6z" fill="white"/>
<path d="M84 523 c-1 -2 -1 -3 -1 -4 2 -2 3 -1 5 2 2 2 2 2 1 4 -2 2 -3 1 -5
-2z" fill="white"/>
<path d="M60 515 c-4 -7 -5 -8 -12 -12 -7 -5 -9 -6 -10 -10 -1 -2 -2 -5 -4 -6
-1 -1 -2 -4 -3 -6 -2 -6 -2 -20 -1 -24 0 -2 1 -4 0 -4 0 0 0 1 -1 2 -1 4 -2 2
-3 -3 -1 -6 0 -7 2 -12 3 -7 3 -7 2 -10 -1 -2 0 -5 5 -15 6 -11 7 -15 8 -21 1
-5 1 -10 0 -13 0 -4 0 -5 1 -5 1 0 2 2 3 4 2 3 2 3 1 1 -1 -5 -1 -5 1 -5 1 0
2 2 3 4 2 4 2 2 0 -3 -1 -3 2 -3 3 1 1 1 2 5 3 9 1 5 1 6 0 8 -1 1 -2 4 -3 5
-1 2 -2 3 -2 3 1 0 3 -2 5 -5 1 -4 3 -6 4 -6 0 0 4 -2 8 -5 10 -7 13 -6 4 1
-3 2 -6 5 -6 5 0 0 0 0 0 0 0 1 4 -1 7 -4 4 -3 7 -5 8 -5 1 0 2 0 2 1 0 1 -10
10 -14 13 -3 2 -7 4 -10 5 -6 2 -7 3 -11 9 -2 4 -7 9 -9 12 -5 6 -6 7 -4 12 1
2 2 7 2 11 0 5 0 8 1 9 1 0 1 4 1 10 -1 5 -1 7 0 5 0 -4 0 -5 1 -4 2 1 15 6
24 9 4 1 12 3 16 5 4 2 7 3 8 3 1 -1 -11 -6 -26 -11 -19 -6 -21 -7 -21 -12 0
-1 0 -3 0 -3 1 0 3 1 5 2 3 1 6 2 11 2 l7 0 -8 -1 c-6 -1 -12 -3 -15 -6 -2 -1
-2 -3 -2 -9 0 -5 -1 -9 -2 -11 l-2 -4 7 -8 c3 -4 7 -9 8 -11 2 -3 3 -5 9 -7 8
-4 16 -10 19 -13 1 -2 4 -3 6 -1 1 1 -1 3 -6 7 -5 3 -8 6 -8 6 1 0 10 -6 13
-9 2 -2 3 -2 5 -1 3 2 3 2 -2 6 -3 2 -4 3 -3 3 0 0 3 -2 5 -4 4 -2 5 -3 8 -2
l3 0 -5 5 -5 4 -8 0 -8 -1 -5 5 c-2 2 -7 6 -10 8 -6 5 -10 10 -10 13 0 1 1 0
2 -2 2 -3 5 -6 8 -8 2 -2 7 -6 10 -9 4 -4 6 -5 8 -5 l3 0 -3 5 c-4 6 -3 6 1 0
4 -5 5 -6 7 -4 1 0 0 2 -2 5 -4 6 -3 6 1 0 3 -3 5 -5 6 -5 1 1 2 1 2 1 2 0 1
2 -2 6 -2 4 -2 4 3 1 2 -2 3 -2 4 -1 1 1 0 2 -5 5 -3 3 -6 4 -6 5 1 0 3 -2 6
-4 5 -3 8 -3 8 -1 0 0 -5 4 -10 8 -10 6 -11 7 -15 7 -7 0 -30 4 -26 5 1 0 7
-1 14 -2 9 -2 12 -2 17 -1 10 1 12 2 12 6 0 5 -1 5 -5 3 -4 -1 -28 -4 -29 -3
0 1 6 2 18 3 5 0 10 1 11 2 4 3 4 2 6 0 1 -3 2 -3 5 -3 5 0 5 0 5 2 0 3 -1 4
-10 5 -4 0 -8 1 -8 2 0 0 1 0 13 -2 3 0 5 0 5 1 0 0 0 2 1 2 0 2 -1 2 -5 2
l-4 1 5 0 c5 0 6 0 6 2 0 1 -1 2 -8 3 l-8 1 9 0 c8 0 9 0 9 2 1 2 1 2 -10 2
-8 -1 -10 -1 -7 0 3 0 7 2 10 3 7 3 10 3 10 0 0 -1 1 -3 2 -4 1 -2 1 -2 -1 -2
-1 1 -2 0 -3 -3 -1 -3 -2 -5 -2 -6 -1 -1 -2 -4 -2 -7 l0 -5 -6 -1 c-4 0 -5 0
-5 -2 0 -2 -2 -3 -5 -4 -3 -1 -5 -2 -5 -2 0 0 4 -3 9 -7 5 -4 10 -7 10 -8 0
-2 -5 -8 -7 -8 -2 1 -2 0 -1 -1 0 -2 0 -3 -2 -4 -1 -1 -1 -1 1 -1 1 0 5 2 8 3
10 8 16 9 21 4 2 -1 3 -2 3 -2 1 0 2 2 3 5 1 2 3 4 4 5 2 0 2 1 2 5 -1 3 -1 5
0 5 0 1 1 0 0 -1 0 -3 3 -6 5 -4 0 1 2 3 4 4 2 0 4 2 4 2 1 2 -1 7 -5 15 -3 5
-5 9 -5 9 0 1 2 -1 3 -4 2 -3 4 -5 4 -4 2 1 -5 15 -14 28 -4 7 -5 9 -7 8 -1
-1 -1 -2 1 -5 3 -5 2 -7 -3 -7 -2 0 -4 0 -4 -1 0 -2 2 -5 5 -6 1 -1 2 -2 1 -2
-2 0 -7 4 -7 6 -1 2 -3 4 -5 6 l-4 2 -9 -2 c-5 -2 -9 -3 -10 -3 0 1 3 2 7 3 6
2 7 3 5 4 -2 2 -4 1 -13 -3 -8 -3 -20 -6 -21 -6 0 1 2 1 4 2 3 1 9 3 15 5 11
4 11 5 9 6 -1 2 -1 2 2 0 4 -2 4 -2 7 -1 2 1 3 1 3 2 0 0 -7 11 -8 12 0 0 -3
-2 -7 -5 -4 -2 -7 -4 -8 -4 0 0 2 2 5 4 3 2 5 4 5 4 0 1 -1 2 -3 3 l-2 2 -2
-2 c-2 -2 -5 -4 -7 -7 -4 -3 -4 -3 1 3 3 3 6 6 6 7 0 1 -3 3 -5 3 0 0 -2 -3
-5 -6 -2 -3 -5 -7 -7 -9 -4 -3 -23 -15 -21 -13 1 1 5 4 9 6 10 6 11 7 17 16 5
7 7 8 8 8 2 -1 3 0 5 2 4 3 3 4 -2 7 l-3 2 -4 -5 c-6 -7 -12 -14 -15 -16 -2
-1 0 2 5 7 5 4 10 10 11 12 l2 3 -4 2 c-2 1 -4 2 -4 2 0 -1 -2 -4 -4 -7 -2 -4
-7 -11 -11 -15 -4 -5 -7 -9 -8 -10 -1 -2 -1 -2 -1 -1 0 1 3 6 8 11 9 11 14 21
13 22 -2 1 -3 1 -6 -5 -3 -7 -4 -6 -1 1 l3 5 -2 0 c-2 0 -3 -1 -6 -8z m18 -50
c-3 -2 -7 -3 -9 -4 l-3 0 4 1 c2 1 5 3 8 4 6 3 6 2 0 -1z m-44 -22 c1 0 1 -1
0 0 -1 0 -1 1 -1 1 0 1 1 1 1 -1z m80 -9 c2 -3 2 -7 2 -12 0 -4 -2 -1 -2 3 0
2 -1 6 -1 8 -2 5 -2 5 -2 5 1 0 2 -2 3 -4z m-9 -6 l4 -4 -4 3 c-5 3 -4 1 2 -5
3 -3 3 -4 1 -3 -3 1 -7 8 -8 11 0 1 0 2 1 2 0 0 1 -2 4 -4z m8 -9 c0 -1 -1 -1
-2 0 0 1 -1 1 -1 1 0 1 1 1 1 1 1 0 2 -1 2 -2z M99 401 c0 -1 2 -2 2 -2 1 0 0 1 0 2 -1 1 -3 2 -3 2 -1 0 0 -1 1 -2z" fill="white"/>
<path d="M101 517 l-5 -5 5 -3 4 -3 -5 -5 -4 -5 3 1 c3 0 3 0 5 -4 4 -6 6 -6
16 1 4 3 8 5 8 5 0 -1 1 -1 -7 -6 -5 -3 -6 -4 -4 -4 2 0 4 -1 5 -2 l2 -2 4 4
c3 2 5 3 5 4 0 1 -5 8 -6 9 -2 1 -3 0 -9 -4 -10 -6 -10 -6 -10 -5 0 0 4 3 8 6
4 2 8 5 8 5 0 0 -1 2 -2 3 -2 1 -2 1 -7 -2 -2 -2 -4 -3 -5 -3 0 1 2 2 5 4 5 3
5 4 4 6 l-2 2 -4 -4 c-2 -2 -4 -3 -5 -3 0 1 2 2 4 5 5 3 6 4 4 7 -1 1 -2 0 -7
-4 -8 -6 -10 -7 -4 -1 5 4 5 5 4 6 -2 3 -3 2 -8 -3z" fill="white"/>
<path d="M328 519 c-2 -2 -3 -9 -2 -9 1 0 11 6 11 6 0 1 -2 2 -4 3 -4 2 -4 2
-5 0z" fill="white"/>
<path d="M309 499 c-11 -11 -17 -17 -22 -19 -7 -4 -8 -5 -6 -10 0 -3 1 -3 23
0 l17 1 0 10 c1 5 1 15 2 21 0 6 1 12 1 12 0 0 -7 -7 -15 -15z" fill="white"/>
<path d="M91 507 l-3 -3 3 -3 c2 -2 4 -3 4 -3 0 0 2 2 4 3 4 3 4 4 3 5 -2 2
-8 5 -8 5 0 0 -2 -2 -3 -4z" fill="white"/>
<path d="M279 502 l0 -8 6 -1 c3 0 6 0 7 0 0 1 -12 17 -13 17 0 0 0 -4 0 -8z" fill="white"/>
<path d="M544 504 c1 -2 2 -6 3 -9 1 -5 3 -6 4 -4 1 3 -2 12 -5 14 -3 4 -4 4
-2 -1z" fill="white"/>
<path d="M530 506 c-1 0 -9 -1 -18 -3 -29 -4 -56 -10 -106 -24 -6 -1 -20 -5
-31 -8 -32 -8 -42 -11 -43 -12 -2 -1 2 -1 6 0 1 1 12 4 25 7 12 3 34 9 49 13
27 7 54 13 83 19 16 3 39 7 42 7 5 0 1 -1 -10 -2 -30 -5 -78 -15 -126 -28 -16
-4 -35 -10 -44 -12 -31 -8 -28 -7 -34 -15 -3 -4 -6 -8 -6 -8 1 0 3 1 6 2 27 8
108 29 134 35 20 5 51 11 58 12 6 1 29 4 30 4 2 0 1 4 -1 9 -3 5 -3 5 -7 5 -3
0 -6 0 -7 -1z" fill="white"/>
<path d="M153 501 c-3 -1 -5 -2 -4 -2 0 0 3 -2 6 -3 l6 -3 0 2 c-1 4 -3 8 -3
8 0 0 -3 -1 -5 -2z" fill="white"/>
<path d="M236 502 c-2 0 -2 0 -1 -2 2 -2 3 -1 4 1 1 1 1 2 0 2 0 0 -2 0 -3 -1z" fill="white"/>
<path d="M227 501 c-2 0 -4 0 -4 -1 0 0 2 -2 5 -3 5 -3 5 -3 7 -1 1 1 1 2 -1
4 -1 1 -3 2 -3 2 0 0 -2 -1 -4 -1z" fill="white"/>
<path d="M357 494 c-4 -3 -8 -6 -8 -6 0 0 2 -3 5 -6 l5 -5 2 4 c2 4 6 18 6 19
0 1 -5 -2 -10 -6z" fill="white"/>
<path d="M182 495 l-3 0 4 -3 c2 -1 5 -3 7 -4 l3 -2 1 2 c3 8 3 8 -3 8 -3 0
-7 -1 -9 -1z" fill="white"/>
<path d="M133 491 c-1 -1 1 -4 6 -11 3 -5 8 -13 10 -18 2 -5 4 -9 5 -9 0 0 2
1 5 2 2 1 5 1 5 1 2 -2 0 -8 -3 -9 -2 -2 -2 -2 0 -3 3 -3 34 -19 36 -19 2 0 3
0 3 -1 1 -1 6 1 8 3 0 1 2 2 2 2 1 0 2 1 4 2 1 1 4 2 5 2 2 0 4 1 6 3 2 2 4 3
4 3 1 0 3 1 5 3 2 1 4 2 5 2 1 0 4 -2 6 -5 l4 -4 -1 4 c0 3 0 4 2 5 4 3 6 2
10 -1 l4 -4 4 5 c1 3 3 5 3 6 0 2 5 5 9 6 3 1 4 2 4 2 -1 2 -1 2 -15 -1 -24
-6 -47 -6 -62 -1 l-7 2 0 -4 c0 -3 0 -3 -4 -3 -5 0 -7 1 -7 6 0 4 0 4 -6 7 -3
1 -8 3 -10 4 -3 2 -5 2 -5 2 0 -1 12 -17 17 -23 3 -3 6 -6 7 -6 1 0 6 2 12 5
5 3 8 4 7 3 -3 -3 -17 -10 -19 -10 -1 0 -4 2 -7 5 -3 4 -5 5 -5 4 0 -4 -11 -4
-13 0 -1 2 -1 3 1 4 2 1 4 1 9 0 l3 -2 -4 6 c-3 3 -6 8 -8 11 -3 4 -5 7 -8 8
l-4 2 3 -6 c2 -3 3 -6 3 -7 0 0 -3 4 -5 8 -4 6 -6 8 -11 12 -4 2 -7 4 -7 5 -2
2 -5 3 -6 2z m92 -50 c2 -4 -6 -7 -11 -4 -1 1 -2 1 -2 2 0 4 11 6 13 2z" fill="white"/>
<path d="M541 491 c-26 -3 -33 -4 -74 -13 -17 -4 -84 -20 -103 -26 -7 -2 -21
-6 -30 -9 -10 -2 -18 -5 -19 -5 -2 -2 0 -3 6 -1 7 2 41 12 61 18 35 10 121 29
148 33 15 2 16 2 16 3 0 1 -1 1 -1 1 -1 0 -3 0 -4 -1z" fill="white"/>
<path d="M235 487 l-6 -4 5 -1 c5 -1 5 -1 9 2 3 3 3 4 1 5 -2 1 -1 1 -9 -2z" fill="white"/>
<path d="M129 487 c-1 -1 1 -4 5 -10 8 -12 14 -26 14 -28 -1 -5 0 -5 6 -3 7 3
9 4 9 7 0 2 0 2 -5 0 -6 -2 -5 -3 -10 7 -3 7 -16 28 -17 28 0 0 -1 0 -2 -1z
m5 -6 c1 -2 2 -3 2 -3 -1 0 -6 8 -6 9 0 0 1 -1 4 -6z m10 -15 c2 -5 4 -9 5
-10 0 -2 -2 1 -4 6 -3 5 -6 10 -7 12 -1 2 -2 3 -1 2 1 -2 4 -6 7 -10z m13 -17
c-3 -1 -6 -2 -6 -2 -1 0 9 5 11 5 0 0 -2 -1 -5 -3z" fill="white"/>
<path d="M110 486 c0 0 -1 -1 -1 -2 0 -1 -1 -2 -3 -3 l-2 -1 4 -2 c2 0 5 -2 7
-3 2 -2 4 -2 7 -1 4 0 5 1 3 5 -1 2 -2 2 -8 2 -5 -1 -7 -1 -5 0 1 0 4 1 6 1 3
0 5 1 3 4 -1 1 -8 1 -11 0z" fill="white"/>
<path d="M342 479 c-1 -4 -2 -8 -3 -11 -1 -5 -2 -5 17 0 l12 4 -4 1 c-2 1 -5
2 -5 2 -1 0 -4 2 -6 5 -3 3 -6 5 -7 5 -1 0 -2 -2 -4 -6z" fill="white"/>
<path d="M335 480 l-5 -3 3 -3 c2 -2 4 -2 4 -2 2 1 5 11 4 11 0 0 -3 -1 -6 -3z" fill="white"/>
<path d="M325 474 l-2 -2 6 -4 c6 -5 6 -5 7 -3 1 3 -1 7 -6 9 -3 2 -3 2 -5 0z" fill="white"/>
<path d="M190 470 c3 -2 6 -4 6 -4 1 0 3 1 4 3 l3 3 -5 0 c-2 1 -6 1 -8 1 l-4
0 4 -3z" fill="white"/>
<path d="M104 470 l-3 -1 5 0 c3 0 5 1 5 2 0 1 -2 1 -7 -1z" fill="white"/>
<path d="M321 467 c-1 -1 -2 -4 -2 -5 0 -3 -1 -4 -3 -4 -2 0 -4 -6 -2 -14 l1
-5 2 4 c2 2 6 7 9 11 6 8 6 8 4 10 -1 1 -3 3 -4 4 l-3 2 -2 -3z" fill="white"/>
<path d="M300 467 c-15 -1 -15 -1 -15 -4 0 -2 1 -3 5 -3 6 -1 20 -1 24 0 3 0
3 1 3 5 0 5 1 5 -17 2z" fill="white"/>
<path d="M246 463 c2 -3 5 -5 5 -4 10 6 11 7 6 7 -1 0 -6 0 -9 1 l-7 1 5 -5z" fill="white"/>
<path d="M191 457 c0 -3 0 -4 2 -4 1 0 1 1 1 4 0 2 0 3 -1 3 -2 0 -2 -1 -2 -3z" fill="white"/>
<path d="M195 456 c0 -3 2 -5 3 -3 1 1 1 2 0 3 -1 4 -3 4 -3 0z" fill="white"/>
<path d="M285 456 c-1 -1 -3 -2 -4 -2 -3 0 -6 -3 -9 -7 -1 -2 -3 -4 -3 -4 -1
0 -1 -1 -1 -1 0 -1 1 -2 3 -2 2 0 3 0 5 -3 2 -4 2 -6 2 -12 0 -7 -1 -7 -2 -7
-2 0 -3 -2 0 -4 3 -4 6 -2 9 3 2 4 2 3 0 -2 0 -1 0 -1 4 0 2 0 7 9 8 15 1 1 1
1 1 -1 0 -1 -1 -4 -2 -6 -1 -3 -2 -5 -2 -5 1 -1 6 3 8 6 5 10 6 11 6 9 0 -1
-1 -3 -3 -5 -2 -4 -2 -5 2 -3 4 3 5 6 5 20 l0 12 -10 0 c-6 0 -11 0 -12 1 -2
0 -4 -1 -5 -2z m13 -21 c-1 -1 -1 -1 -1 0 1 1 1 3 1 4 0 1 0 1 1 0 0 -1 0 -3
-1 -4z m-10 -11 c0 -1 0 1 0 3 0 4 0 4 1 1 0 -2 0 -4 -1 -4z" fill="white"/>
<path d="M377 451 c-8 -2 -23 -7 -34 -10 -12 -3 -23 -7 -25 -7 -2 -1 -4 -2 -5
-5 -1 -2 -3 -5 -5 -6 -2 0 -5 -2 -6 -4 -1 -1 -4 -2 -5 -3 -1 0 -4 -1 -5 -2 -1
-1 -4 -2 -5 -2 -2 0 -3 -1 -4 -1 0 -1 -2 -1 -5 -1 -3 1 -4 0 -3 -1 0 -1 -1 -3
-3 -4 -4 -3 -4 -3 -7 0 l-2 2 0 -2 c0 -4 -4 -6 -9 -6 -3 1 -6 0 -10 -1 -5 -2
-8 -2 -12 -1 -5 0 -6 0 -10 -2 -2 -2 -4 -3 -5 -3 0 0 -1 -1 -2 -2 -1 -6 -5
-10 -9 -11 -3 -1 -6 -3 -8 -5 -1 -2 -3 -3 -4 -3 -1 0 -4 0 -7 -1 -4 -1 -5 -2
-11 -9 -4 -5 -15 -16 -25 -26 -10 -10 -18 -18 -18 -19 0 0 2 -5 5 -10 l5 -9
10 -1 c6 0 11 -1 11 0 1 0 4 1 8 2 5 1 20 8 29 13 2 1 3 2 3 1 0 -2 -23 -14
-29 -15 -8 -2 -9 -2 -6 -4 2 0 4 -3 5 -5 3 -6 3 -6 16 -6 l8 -1 7 8 c10 10 19
18 21 19 1 1 5 2 9 2 8 1 12 3 20 9 l3 3 -3 4 -4 5 -6 -3 c-12 -6 -8 -2 4 4
11 6 24 11 30 12 10 2 59 -1 74 -5 2 0 -1 3 -10 12 -6 7 -14 15 -16 19 -3 4
-8 10 -11 15 -4 4 -7 8 -7 8 0 1 1 0 2 -2 15 -19 33 -38 56 -59 8 -7 12 -12
15 -17 2 -4 5 -8 7 -8 2 -1 7 -2 12 -3 5 0 10 -1 12 -1 3 -1 5 -1 11 2 4 1 8
2 8 1 1 0 2 -3 4 -6 1 -2 2 -5 3 -5 0 -1 2 0 4 1 2 0 7 1 10 2 5 0 6 1 7 3 1
2 3 5 5 8 3 2 4 5 5 9 2 9 4 13 11 19 7 6 10 11 9 17 -1 1 -1 5 0 7 1 4 0 5
-1 7 -2 2 -2 2 -2 -4 -1 -3 -1 -6 -1 -6 -1 -3 -1 10 0 18 l1 9 -3 4 c-2 2 -6
7 -10 12 -9 11 -11 12 -21 10 -11 -1 -12 -2 -7 -5 2 -2 4 -3 4 -4 -1 0 -10 6
-19 13 -3 3 -9 7 -13 9 -7 5 -18 17 -24 25 -2 3 -4 6 -4 6 0 0 -6 -2 -13 -4z
m-20 -26 c-15 -8 -29 -18 -29 -22 0 0 6 -7 13 -14 15 -14 15 -15 0 -1 -13 12
-15 14 -15 17 1 3 17 14 28 20 6 3 11 5 11 5 1 0 -3 -2 -8 -5z m39 -4 c6 -4
15 -11 21 -16 6 -5 12 -10 13 -11 2 -1 3 -2 2 -2 -2 0 -6 3 -14 10 -11 10 -16
13 -25 20 -10 6 -10 6 -8 6 0 0 5 -3 11 -7z m81 -35 c1 -3 2 -7 2 -7 0 -2 -5
12 -5 13 0 2 1 0 3 -6z m-166 -2 c2 -2 6 -7 9 -11 3 -5 8 -11 9 -13 2 -3 4 -6
4 -7 0 -1 0 -1 -1 1 -1 3 -22 30 -25 32 -2 1 -2 1 -4 -1 -9 -11 -17 -26 -16
-27 0 -1 2 -2 3 -3 4 -1 1 -2 -2 0 -5 2 -4 5 5 19 6 9 11 14 13 14 0 0 3 -2 5
-4z m159 -3 c3 -5 6 -22 6 -29 0 -4 0 -8 -2 -12 -3 -8 -4 -7 -1 1 2 5 2 8 2
13 -1 10 -5 27 -8 29 -1 2 -1 2 0 2 1 0 2 -2 3 -4z m-199 -16 c0 -5 0 -9 0 -9
-1 0 -1 5 -1 11 -1 6 -1 10 0 9 0 -2 1 -7 1 -11z m-10 8 c-1 -1 -10 -6 -20
-11 -19 -10 -43 -24 -42 -25 1 0 21 3 45 7 11 1 20 3 21 3 4 -1 -39 -9 -54
-10 -16 -2 -17 -1 -6 6 5 4 13 8 18 11 9 5 38 20 39 20 0 0 0 -1 -1 -1z m106
-16 l5 -6 -4 4 c-3 2 -7 7 -9 10 l-4 5 3 -4 c2 -2 6 -6 9 -9z m14 -2 c3 -3 10
-8 15 -11 8 -6 9 -6 12 -6 2 1 14 6 26 11 26 13 31 15 34 11 3 -2 2 -7 0 -11
-2 -3 -37 -41 -38 -41 -1 0 3 5 18 21 20 21 20 22 20 27 -1 7 -5 6 -32 -7 -30
-15 -29 -15 -42 -6 -9 6 -23 18 -23 19 0 0 2 -1 10 -7z m75 -44 c-2 -3 -15
-16 -16 -16 -1 0 16 18 17 18 0 0 0 -1 -1 -2z m-276 -2 c-3 0 -8 0 -11 0 -3 0
-1 1 6 1 6 0 8 -1 5 -1z m30 -10 c-3 -2 -5 -4 -5 -4 -1 0 0 1 1 3 l3 3 -10 -4
c-6 -2 -11 -4 -11 -4 -1 1 21 10 23 10 2 0 2 -1 -1 -4z M201 281 c-1 0 0 -2 1 -2 1 0 1 1 1 2 0 1 -1 1 -2 0z" fill="white"/>
<path d="M168 450 c0 -1 2 -2 3 -3 3 -1 4 -1 6 0 2 1 2 1 1 3 -3 1 -10 2 -10
0z" fill="white"/>
<path d="M152 443 c-3 -1 -3 -1 -2 -3 0 -1 0 -3 0 -5 0 -4 0 -5 -3 -6 -2 -1
-4 -3 -5 -3 -1 -1 -2 -2 -3 -2 0 0 -1 -1 -1 -2 0 -1 -1 -2 -2 -3 -3 -1 -5 -4
-5 -5 0 -1 1 -1 3 0 1 0 6 1 10 1 5 1 8 1 8 2 0 0 -2 1 -5 2 -6 3 -5 3 3 1 5
-2 6 -2 9 -1 14 5 21 7 26 7 3 0 5 -1 5 0 0 0 -5 2 -11 6 -7 3 -14 7 -17 9 -3
2 -6 4 -6 4 0 0 -2 -1 -4 -2z m15 -13 c2 -2 4 -4 4 -4 0 -1 -3 -1 -6 -1 l-5 1
-2 4 c-2 8 -1 8 9 0z" fill="white"/>
<path d="M255 442 c1 -1 3 -3 4 -5 5 -5 9 -14 10 -22 2 -6 3 -8 3 -7 1 0 1 2
0 5 -1 2 -1 5 -1 7 0 4 -6 16 -11 20 -5 4 -7 5 -5 2z" fill="white"/>
<path d="M251 442 c-1 -1 -1 -6 0 -8 0 0 2 -1 3 -1 2 0 3 0 5 -4 4 -7 5 -12 3
-14 -2 -1 -2 -2 2 -6 3 -2 5 -4 5 -3 1 1 -3 16 -6 22 -2 5 -10 15 -11 15 0 0
-1 0 -1 -1z" fill="white"/>
<path d="M215 441 c-2 -2 -1 -3 4 -3 4 0 6 2 4 3 -2 1 -5 1 -8 0z" fill="white"/>
<path d="M236 441 c-3 -2 -3 -2 1 -6 6 -5 7 -5 9 -5 3 1 3 2 -2 7 -5 5 -4 5
-8 4z" fill="white"/>
<path d="M267 438 c0 0 -1 -1 -1 -1 0 -1 2 -1 5 0 1 2 1 2 0 2 -2 0 -3 0 -4
-1z" fill="white"/>
<path d="M228 436 l-3 -2 3 -2 c1 -2 3 -5 4 -8 2 -4 4 -7 6 -6 1 1 -2 15 -4
18 -1 2 -2 2 -6 0z M238 430 c0 -1 1 -2 2 -2 0 0 1 0 1 1 0 0 -1 1 -1 2 -2 1 -2 1 -2 -1z" fill="white"/>
<path d="M270 436 l-3 -1 3 -6 c1 -3 3 -6 3 -6 0 0 1 0 2 0 3 1 3 6 0 11 -1 2
-2 3 -2 3 0 0 -2 -1 -3 -1z M275 422 c-2 0 -3 -3 -1 -3 1 0 3 3 3 3 0 1 -1 0 -2 0z" fill="white"/>
<path d="M159 433 c0 -1 0 -3 1 -4 1 -3 2 -3 5 -3 l4 0 -2 2 c-1 1 -3 3 -5 4
-3 2 -3 2 -3 1z" fill="white"/>
<path d="M254 432 c-1 0 5 -14 6 -15 2 -3 2 2 -1 8 -2 6 -4 8 -5 7z" fill="white"/>
<path d="M213 428 c-2 -2 -5 -4 -7 -8 -2 -3 -3 -6 -3 -6 0 -1 6 2 8 3 0 0 0 1
-1 1 -1 1 -1 1 1 1 3 -1 6 -3 6 -5 0 -3 3 -7 5 -7 2 0 2 0 2 3 -1 1 -1 5 -1 7
-1 4 -2 5 -4 7 -2 1 -2 2 -1 2 3 0 7 -4 8 -8 2 -5 5 -7 5 -3 0 4 -2 13 -3 15
-2 2 -10 1 -15 -2z" fill="white"/>
<path d="M245 428 c-6 -3 -7 -4 -2 -5 4 -1 4 -2 3 -6 -2 -4 -3 -4 -5 0 l-1 3
-3 -5 c-2 -5 -3 -6 -4 -4 -2 2 -6 0 -8 -3 0 -2 -2 -3 -2 -3 -3 0 -6 3 -7 7 -1
1 -2 3 -2 3 -2 0 -27 -10 -30 -12 -1 -1 -1 -1 2 -2 4 -2 4 -2 4 -4 -2 -6 -2
-7 0 -7 1 1 8 4 17 6 31 12 49 18 50 20 1 1 1 1 0 3 l-1 2 -2 -2 c0 -2 -1 -3
-2 -3 -1 0 -5 10 -5 11 1 0 2 0 4 -1 3 -1 4 0 2 3 -1 2 -1 2 -8 -1z m-31 -18
c3 -1 3 -4 0 -7 l-2 -2 -2 4 c-1 3 -2 5 -2 6 0 0 4 0 6 -1z m-7 -4 c1 -2 1 -2
-1 -5 -2 -3 -4 -4 -5 0 0 1 -1 3 -2 4 0 2 0 2 3 2 1 0 3 -1 5 -1z m-11 -3 c3
-1 3 -2 0 -6 -2 -2 -2 -2 -4 2 -3 5 -1 6 4 4z" fill="white"/>
<path d="M249 425 c0 -1 3 -7 3 -7 1 0 1 1 2 3 1 3 1 3 -2 4 -2 0 -3 1 -3 0z" fill="white"/>
<path d="M177 423 c-2 -1 -5 -3 -6 -3 -1 -2 -2 -2 -2 -1 -1 1 -3 0 -7 -2 -8
-3 -9 -5 -4 -3 l4 0 -2 -2 c-7 -8 -10 -11 -12 -10 -1 1 -2 2 -3 3 -1 2 -1 2 3
4 2 1 3 2 1 1 -2 0 -2 0 -1 1 2 2 2 2 -3 2 -11 0 -17 -3 -24 -13 -2 -3 -2 -3
0 -3 1 1 3 1 6 2 l5 0 -7 -6 c-8 -8 -10 -9 -9 -3 l1 4 -4 -4 c-2 -2 -5 -5 -7
-7 -2 -4 -9 -9 -11 -9 -2 0 -1 2 3 8 3 3 4 4 6 4 1 -1 3 0 5 3 6 6 15 17 15
18 -1 0 -7 -2 -10 -4 -2 -1 -4 -5 -6 -8 -4 -7 -5 -8 -7 -5 -2 1 -2 1 -4 -3 -2
-4 -3 -5 -10 -8 -8 -4 -19 -13 -24 -19 l-3 -4 2 -4 c1 -3 4 -7 7 -11 4 -4 8
-10 10 -14 6 -14 5 -13 15 -7 4 3 8 6 9 6 0 0 3 -2 6 -5 7 -7 7 -8 -2 -8 l-5
1 0 5 c0 3 -1 5 -1 5 -3 -1 -14 -10 -14 -11 0 -2 4 -2 8 1 6 4 6 3 0 -1 -2 -2
-4 -4 -4 -4 0 0 1 -1 2 -2 3 -1 3 -1 7 2 2 2 4 3 5 3 0 -1 -2 -2 -4 -4 -4 -3
-5 -4 -4 -5 1 -1 3 -1 8 0 1 1 1 1 -1 -1 -2 -1 -2 -2 -1 -2 2 -1 7 2 15 7 12
10 52 50 58 58 l1 3 -3 -2 c-1 -1 -4 -4 -5 -6 -4 -5 -26 -23 -28 -23 -2 0 -1
2 2 16 1 6 3 16 3 22 1 13 2 16 8 23 11 16 26 27 31 24 1 -1 3 -1 4 0 1 0 1 0
-1 1 -3 1 -7 1 -11 0z m-41 -24 c-1 -1 -3 -5 -5 -8 -2 -4 -3 -5 -2 -4 1 4 7
15 9 15 0 0 -1 -1 -2 -3z m5 1 c-1 -1 -3 -5 -5 -8 -1 -4 -3 -6 -3 -5 0 2 8 16
9 15 0 -1 0 -2 -1 -2z m1 -6 c-2 -3 -3 -5 -3 -5 0 2 3 8 4 10 2 2 2 0 -1 -5z
m5 0 c-1 -3 -3 -5 -3 -4 0 0 4 9 5 9 0 0 0 -2 -2 -5z m-2 -9 c0 -1 -12 -17
-13 -17 0 0 -7 11 -7 12 1 0 4 1 8 3 8 3 12 4 12 2z m-23 -20 c-1 -9 -3 -15
-3 -12 0 1 2 15 4 20 0 1 0 2 1 2 0 -1 -1 -5 -2 -10z m19 5 c-1 -11 -2 -19 -3
-19 0 -1 0 0 0 3 1 2 1 7 2 12 0 4 0 8 1 8 1 2 1 1 0 -4z m-55 -3 c2 -2 4 -3
4 -3 0 -1 -3 -2 -6 -2 -3 -1 -6 -2 -7 -3 -1 0 -2 0 -2 1 0 1 6 11 7 11 0 0 2
-2 4 -4z m27 0 c2 0 3 -1 3 -1 0 -1 -14 -10 -15 -10 -1 0 -1 2 1 8 l1 5 4 -1
c2 0 5 0 6 -1z m16 1 c-1 -1 -1 -5 -2 -9 -1 -4 -2 -7 -2 -7 0 -1 0 3 1 7 1 8
2 10 2 10 1 0 1 -1 1 -1z m5 -9 c-1 -3 -2 -7 -2 -8 -1 -1 -1 -1 -1 0 1 1 1 4
1 7 1 7 2 9 3 9 0 -1 0 -4 -1 -8z m-42 -12 c4 -2 6 -3 6 -3 0 -1 -13 -7 -15
-7 -1 0 -1 0 1 7 0 3 1 5 2 5 1 0 3 -1 6 -2z m43 -1 c0 -1 -10 -9 -13 -10 -2
-1 -2 -1 -3 0 0 1 -2 -1 -5 -4 -2 -4 -5 -6 -5 -6 -1 0 1 3 4 6 5 6 5 6 4 10
l0 5 9 0 c5 0 9 0 9 -1z m-23 -9 c-2 -3 -5 -5 -6 -6 -1 -1 0 0 1 2 1 2 4 5 5
7 1 2 3 3 3 3 0 -1 -1 -3 -3 -6z m23 3 c-4 -7 -16 -23 -17 -22 0 1 2 4 5 7 3
4 7 9 9 12 3 5 5 7 3 3z m-12 -7 c-1 -3 -8 -10 -9 -10 0 1 2 3 4 5 2 2 4 5 4
6 1 0 1 1 2 1 0 0 0 -1 -1 -2z m15 -2 c-2 -4 -18 -20 -24 -24 -6 -4 -5 -3 5 5
3 3 10 9 13 13 4 5 7 8 7 8 0 0 0 -1 -1 -2z M180 419 c-2 0 -3 -1 -3 -1 0 -1 6 1 7 2 2 2 -1 1 -4 -1z" fill="white"/>
<path d="M195 422 c-1 0 -6 -2 -13 -5 l-11 -5 -4 -7 c-4 -7 -6 -7 -2 0 1 2 2
4 1 4 -1 0 -14 -16 -15 -20 -1 -3 -4 -25 -3 -26 1 -1 19 3 27 5 5 2 11 4 14 4
3 1 6 2 7 3 1 1 1 2 0 2 0 0 -1 -1 -1 -1 -1 -3 -5 2 -6 7 -1 4 -1 4 -4 3 -1 0
-4 0 -5 0 -3 0 -4 -1 -6 -5 -3 -6 -4 -7 -7 -5 -1 2 -1 2 0 4 1 1 1 1 -1 0 -1
0 -2 -1 -2 0 -2 1 0 4 6 8 5 4 6 5 5 7 -2 4 -1 6 6 9 7 4 8 4 8 8 1 2 2 5 4 7
2 2 3 4 3 4 0 0 -1 0 -1 -1z" fill="white"/>
<path d="M200 420 c-2 -1 -3 -3 -3 -5 -1 -4 -1 -4 1 -3 2 0 8 10 6 10 0 0 -2
-1 -4 -2z" fill="white"/>
<path d="M241 422 c0 -1 1 -2 1 -3 1 -2 2 -3 3 -2 1 1 1 4 0 4 0 0 -2 0 -2 1
-1 0 -2 0 -2 0z" fill="white"/>
<path d="M193 415 c-3 -5 -2 -7 0 -5 2 1 4 9 3 10 -1 0 -2 -2 -3 -5z" fill="white"/>
<path d="M232 416 c0 -1 0 -2 1 -3 1 -1 1 -1 2 0 2 2 1 4 -1 4 -1 0 -2 -1 -2
-1z" fill="white"/>
<path d="M114 414 c-1 -2 -1 -2 0 -3 0 -1 1 -2 0 -4 l-1 -2 6 2 c5 2 6 3 5 4
-1 1 -2 2 -4 3 -4 1 -3 1 -6 0z" fill="white"/>
<path d="M254 412 c-4 -2 -5 -3 -1 -2 1 0 4 0 7 -1 l3 -2 -2 3 c-2 2 -3 3 -3
3 0 0 -2 -1 -4 -1z" fill="white"/>
<path d="M152 412 c-1 -1 0 -1 2 0 1 1 1 1 0 1 -1 0 -2 0 -2 -1z M152 409 c-3 -1 -6 -2 -6 -3 -1 0 2 -3 3 -3 2 0 9 8 8 8 0 1 -3 0 -5
-2z" fill="white"/>
<path d="M107 410 c-1 -1 -1 -1 1 -3 2 -2 2 -2 4 0 0 1 1 2 1 2 -1 2 -4 2 -6
1z" fill="white"/>
<path d="M210 409 c0 0 1 -2 2 -3 1 -3 1 -3 2 -1 1 1 1 3 1 3 -1 1 -5 2 -5 1z" fill="white"/>
<path d="M243 408 c-1 -1 -11 -4 -21 -8 -10 -4 -18 -7 -17 -7 6 -1 10 0 16 4
4 2 5 2 11 2 4 -1 7 -1 10 1 2 1 6 1 10 1 6 0 8 1 8 2 2 3 0 4 -6 4 -3 0 -5 1
-6 1 0 1 -2 1 -5 0z" fill="white"/>
<path d="M102 406 c-2 0 -3 -1 -3 -2 0 0 6 -6 8 -6 0 0 1 1 2 3 2 4 -3 8 -7 5z" fill="white"/>
<path d="M201 406 c0 -1 0 -2 1 -4 1 -2 1 -2 3 -1 1 1 2 4 0 4 0 0 -2 0 -2 1
-1 0 -2 0 -2 0z" fill="white"/>
<path d="M192 402 c0 0 1 -2 1 -3 l2 -2 1 2 c1 1 1 2 1 2 -1 1 -5 2 -5 1z" fill="white"/>
<path d="M179 401 c-2 -1 -3 -1 -3 -2 0 0 3 -10 4 -11 2 -1 6 1 6 3 0 1 -1 1
-2 1 0 0 -2 1 -3 2 -1 2 -1 2 0 4 2 4 1 5 -2 3z M182 397 c-1 0 0 -3 1 -3 1 0 1 3 0 3 0 1 -1 1 -1 0z" fill="white"/>
<path d="M184 399 c0 0 1 -2 1 -3 l2 -2 1 2 c1 1 1 2 1 2 -1 1 -5 2 -5 1z" fill="white"/>
<path d="M103 398 c0 -1 -1 -2 -2 -3 l-3 0 3 -2 c2 -2 2 -2 4 0 2 2 1 4 -1 5
-2 1 -2 1 -1 0z" fill="white"/>
<path d="M123 397 c-4 -2 -5 -3 -5 -7 0 -2 1 -1 5 3 6 5 6 5 0 4z" fill="white"/>
<path d="M201 391 c0 0 1 -1 1 -2 1 -2 2 -2 5 0 2 2 2 2 1 2 -2 0 -4 0 -5 1
-1 0 -2 0 -2 -1z" fill="white"/>
<path d="M171 387 c-6 -5 -8 -8 -3 -4 2 2 4 3 5 3 0 -1 -1 -3 -2 -5 -2 -4 -3
-5 0 -2 1 2 6 11 6 11 0 2 -2 1 -6 -3z" fill="white"/>
<path d="M194 390 c-4 -2 -5 -3 -3 -8 l1 -3 5 0 c7 1 8 2 7 4 -1 1 -2 3 -3 5
-2 3 -2 3 -7 2z" fill="white"/>
<path d="M208 388 c-5 -3 -5 -3 -3 -4 2 -2 2 -2 4 -1 1 1 4 7 4 7 0 1 -3 0 -5
-2z" fill="white"/>
<path d="M86 389 c-1 -1 -1 -1 0 -2 2 -2 4 -1 3 1 0 2 -1 2 -3 1z" fill="white"/>
<path d="M99 381 c-4 -6 -3 -6 2 -2 3 2 4 4 4 5 -2 2 -2 1 -6 -3z" fill="white"/>
<path d="M136 382 c-4 -1 -8 -2 -8 -3 -1 -1 3 -9 5 -9 0 0 10 14 10 14 0 1 -4
0 -7 -2z" fill="white"/>
<path d="M79 365 c-1 -2 -2 -3 -2 -4 1 0 6 1 10 3 1 0 1 1 -1 3 -2 1 -4 2 -4
2 0 0 -2 -2 -3 -4z" fill="white"/>
<path d="M103 363 c-1 -2 -2 -5 -1 -5 0 0 3 2 6 4 4 2 6 4 6 4 -1 0 -3 0 -6 1
l-4 1 -1 -5z" fill="white"/>
<path d="M156 362 l-9 -1 -3 -11 c-1 -5 -2 -10 -1 -10 1 0 11 9 19 16 5 5 6 7
5 7 -2 0 -7 -1 -11 -1z" fill="white"/>
<path d="M492 355 c0 -9 -2 -13 -9 -19 -6 -6 -9 -10 -11 -17 -1 -5 -1 -6 3
-10 l3 -4 9 3 c5 1 10 2 11 2 0 -1 1 -3 2 -5 1 -4 1 -4 3 -2 2 1 3 1 7 -2 2
-3 3 -5 0 -5 -1 0 -1 0 0 -1 1 0 4 1 8 2 4 0 8 1 8 1 1 -1 2 -4 2 -9 1 -12 2
-13 5 -9 2 4 4 3 7 -2 1 -4 1 -4 -4 -6 -2 -1 -4 -2 -4 -3 0 0 1 -1 1 -1 1 1 3
1 4 1 2 1 4 3 8 9 3 5 8 11 11 14 3 3 5 7 5 8 0 3 -5 14 -9 18 -3 4 -4 4 -9 4
-3 0 -7 0 -9 1 -2 1 -3 1 -4 1 0 -1 8 -12 9 -12 0 0 1 0 1 -1 0 -1 -5 -10 -6
-11 -1 0 -5 8 -7 13 l0 3 4 -2 c2 0 4 -1 5 -1 0 0 -1 2 -3 4 -2 2 -5 8 -8 14
-6 10 -7 11 -7 6 0 -5 -2 -4 -5 2 -2 3 -4 6 -4 7 -2 1 -1 2 3 2 2 -1 4 -1 4 0
0 0 -1 2 -2 4 -1 3 -3 4 -6 5 -4 2 -14 5 -15 5 -1 0 -1 -3 -1 -7z m10 -13 c-1
-3 -2 -6 -3 -9 l-2 -4 -3 5 c-5 8 -5 8 0 10 3 1 5 2 6 2 2 0 2 -1 2 -4z m-13
-21 c0 -2 -5 -12 -6 -12 -1 0 -8 10 -8 11 0 1 8 3 12 3 1 0 2 -1 2 -2z m21 1
c1 -1 -2 -12 -4 -14 0 -1 -1 0 -3 6 -2 4 -3 8 -3 8 0 1 9 1 10 0z m43 -9 c5
-4 5 -5 2 -10 -1 -2 -3 -4 -3 -4 0 0 -1 3 -2 7 -1 4 -1 8 -2 9 -1 2 2 1 5 -2z
m-8 -22 c-1 -4 -4 -10 -5 -10 -1 0 -5 8 -5 10 0 1 3 2 8 2 3 0 3 0 2 -2z" fill="white"/>
<path d="M85 345 c0 -2 -1 -4 -2 -5 0 -2 0 -2 9 2 l4 2 -5 2 -5 2 -1 -3z" fill="white"/>
<path d="M119 345 c-1 -1 -1 -3 0 -5 l1 -4 3 2 c1 1 4 3 7 5 l4 3 -8 0 c-4 0
-7 0 -7 -1z" fill="white"/>
<path d="M511 345 c1 -2 3 -4 4 -6 1 -3 1 -3 2 -1 2 6 1 7 -3 8 -4 1 -4 1 -3
-1z" fill="white"/>
<path d="M496 343 c-2 -1 -4 -2 -4 -2 0 -1 4 -9 5 -9 1 0 4 10 4 12 0 1 -1 1
-5 -1z" fill="white"/>
<path d="M103 319 l0 -5 5 1 c2 0 5 0 5 1 0 0 -2 2 -5 4 l-5 4 0 -5z" fill="white"/>
<path d="M482 321 c-3 -1 -5 -1 -5 -2 0 0 1 -2 3 -5 l2 -4 3 5 c4 8 4 8 -3 6z" fill="white"/>
<path d="M503 316 c1 -3 3 -6 3 -5 1 1 3 9 3 10 -1 0 -2 0 -4 1 l-4 0 2 -6z" fill="white"/>
<path d="M529 313 c0 -1 1 -4 2 -6 l3 -5 2 3 c1 2 2 4 2 5 0 0 -2 2 -4 2 -4 1
-5 2 -5 1z" fill="white"/>
<path d="M550 312 c1 -1 1 -4 2 -6 l0 -4 2 2 c3 3 2 4 -1 8 l-3 3 0 -3z" fill="white"/>
<path d="M247 310 c-2 -1 -4 -2 -4 -2 0 0 0 -1 1 -1 0 -1 1 -2 1 -2 0 -1 -12
-9 -12 -8 -1 0 -1 3 0 6 0 5 0 5 -2 5 -2 0 -6 -3 -13 -9 -5 -5 -5 -5 -4 -8 1
-2 2 -3 4 -4 3 0 3 -1 3 -6 l0 -3 2 2 c0 2 1 3 2 3 1 0 7 -7 7 -8 0 -1 -3 -2
-5 -2 l-4 -2 2 -2 c2 -2 4 -3 6 -4 l4 -1 0 -6 c-1 -7 0 -8 7 -3 4 3 13 7 13 7
0 -1 -2 -2 -4 -3 -2 -2 -3 -2 -2 -3 2 -1 13 -2 17 -2 3 1 4 2 6 5 3 5 2 8 -3
11 -5 4 -6 6 -7 16 0 6 -1 10 -1 10 0 0 -2 -1 -4 -2 -2 -1 -4 -2 -4 -1 -1 0 0
12 1 13 0 0 2 -1 4 -3 3 -4 5 -3 3 0 -1 3 -9 9 -11 9 0 0 -2 -1 -3 -2z m-7
-22 c6 -4 5 -5 -1 -7 -6 -3 -6 -2 -6 1 0 3 1 9 2 9 0 0 2 -2 5 -3z m19 -17 c4
-5 5 -6 2 -6 -2 -1 -10 -1 -10 -1 -1 1 3 11 4 11 0 0 2 -2 4 -4z" fill="white"/>
<path d="M467 307 c-2 -3 -3 -4 -1 -4 1 -1 10 0 10 1 1 1 -4 7 -5 7 0 0 -2 -2
-4 -4z" fill="white"/>
<path d="M234 303 l0 -5 3 2 c2 1 4 3 5 4 2 1 2 1 0 3 -1 0 -4 1 -5 1 -3 0 -3
0 -3 -5z" fill="white"/>
<path d="M488 306 c-18 -5 -17 -8 1 -7 l12 0 -2 4 c-1 3 -2 5 -3 5 0 0 -4 -1
-8 -2z" fill="white"/>
<path d="M254 299 c0 -3 0 -5 1 -5 0 0 2 1 3 2 l3 2 -4 3 -3 3 0 -5z" fill="white"/>
<path d="M503 300 c-2 -3 -1 -3 2 -3 5 0 5 1 3 3 -2 3 -3 2 -5 0z" fill="white"/>
<path d="M462 299 c-1 -2 2 -4 4 -4 2 0 2 0 1 2 -1 1 -2 2 -2 3 0 2 -3 1 -3
-1z" fill="white"/>
<path d="M467 300 c0 -2 2 -3 8 -5 8 -2 17 -2 20 0 2 2 2 2 -7 2 -9 0 -11 0
-15 2 -6 2 -6 2 -6 1z" fill="white"/>
<path d="M563 296 c0 -1 0 -3 1 -5 1 -2 2 -8 2 -14 l2 -10 4 7 c6 12 6 15 -4
21 -4 2 -5 2 -5 1z" fill="white"/>
<path d="M499 295 c-3 0 -2 -1 1 -3 2 -2 2 -2 2 0 0 3 -1 4 -3 3z" fill="white"/>
<path d="M518 294 c-3 0 -7 -1 -8 0 -2 0 -2 0 -1 -3 1 -2 3 -4 5 -5 1 -1 5 -3
8 -5 5 -3 6 -4 6 -2 -1 1 -1 5 -2 9 0 9 0 9 -8 6z" fill="white"/>
<path d="M504 293 c0 -1 3 -6 7 -10 2 -3 3 -5 3 -6 0 -4 9 -7 13 -4 1 1 1 1
-2 4 -2 2 -6 4 -9 6 -4 2 -6 4 -8 7 -2 4 -4 5 -4 3z" fill="white"/>
<path d="M557 290 c-3 -3 -3 -4 -2 -11 1 -8 5 -21 6 -22 4 -3 4 -1 4 13 -1 12
-2 24 -4 24 0 0 -2 -2 -4 -4z" fill="white"/>
<path d="M209 289 c-4 -3 -4 -4 0 -3 4 2 5 3 4 5 0 2 -1 1 -4 -2z" fill="white"/>
<path d="M540 291 c-2 0 -3 -1 -3 -1 0 -1 3 -7 3 -7 1 0 2 2 3 5 1 3 2 4 1 4
-1 0 -3 0 -4 -1z" fill="white"/>
<path d="M235 286 c0 -2 0 -4 -1 -4 0 -2 0 -2 4 0 2 1 4 2 4 2 0 1 -5 5 -6 5
-1 0 -1 -1 -1 -3z" fill="white"/>
<path d="M211 285 c-1 -1 -3 -1 -4 -1 -3 0 -4 -1 -1 -4 2 -2 9 -5 12 -5 1 0 2
2 2 5 0 4 -1 5 -2 5 -3 1 -5 1 -7 0z" fill="white"/>
<path d="M578 284 c0 -2 -5 -13 -8 -17 -2 -2 -3 -5 -4 -10 0 -4 -1 -7 -1 -8
-3 -2 -3 -6 -3 -12 0 -5 0 -6 -2 -8 -4 -3 -17 -4 -33 -4 -12 0 -14 0 -14 -1 0
-2 4 -3 18 -3 13 0 25 2 29 4 4 2 5 4 6 15 1 13 3 18 9 28 6 11 8 15 6 17 -2
2 -3 1 -3 -1z" fill="white"/>
<path d="M547 276 c-5 -6 -7 -8 -9 -9 -7 -1 -8 -2 -7 -4 0 -1 0 -6 1 -9 0 -4
0 -9 0 -10 l0 -2 3 2 c7 6 12 8 17 9 6 0 8 3 6 6 -1 3 -4 14 -5 20 l0 6 -6 -9z" fill="white"/>
<path d="M223 277 c-1 -1 -2 -3 -2 -3 1 -1 8 1 9 1 0 1 -4 6 -5 6 0 0 -1 -2
-2 -4z" fill="white"/>
<path d="M533 278 c-2 -2 -3 -6 -2 -6 2 0 8 3 8 4 0 0 -1 2 -2 3 l-2 2 -2 -3z" fill="white"/>
<path d="M202 276 c1 -1 4 -2 8 -2 5 -1 6 -1 4 0 -2 1 -5 2 -6 2 -1 1 -4 1 -5
1 -3 0 -3 0 -1 -1z" fill="white"/>
<path d="M217 272 c-2 -2 -2 -2 0 -3 2 -1 2 -1 3 0 2 3 0 5 -3 3z" fill="white"/>
<path d="M254 270 c-1 -1 -2 -3 -2 -4 0 -1 5 -1 7 0 2 1 2 1 -1 4 l-3 3 -1 -3z" fill="white"/>
<path d="M526 271 c-3 -2 -3 -3 0 -4 3 -1 4 -1 4 3 0 2 0 2 -4 1z" fill="white"/>
<path d="M221 266 c-2 -5 -2 -8 -1 -8 1 -1 2 0 2 1 0 2 0 4 1 6 1 2 1 3 0 4 0
1 -1 0 -2 -3z" fill="white"/>
<path d="M224 263 c0 -1 -1 -3 -1 -4 0 -2 4 -4 7 -3 2 0 3 1 3 3 0 3 0 3 -4 5
-4 2 -4 2 -5 -1z" fill="white"/>
<path d="M560 254 c-1 -3 0 -4 2 -4 3 0 3 4 0 5 -2 1 -2 1 -2 -1z" fill="white"/>
<path d="M228 253 c0 -1 4 -4 4 -4 2 1 0 5 -2 5 -1 0 -2 0 -2 -1z" fill="white"/>
<path d="M221 254 c0 -1 1 -2 1 -2 3 0 3 2 1 2 -2 1 -2 1 -2 0z M241 252 c-1 -1 -3 -2 -4 -2 -1 0 -3 -1 -4 -2 -1 -1 -1 -1 -4 1 -3 3
-3 3 -6 2 -3 -2 -9 -7 -8 -8 0 0 2 0 4 1 2 1 6 1 10 1 8 0 13 -3 17 -8 3 -5 4
-5 7 -1 1 1 3 6 6 9 l4 7 -5 0 c-3 0 -8 1 -10 1 -4 1 -5 1 -7 -1z" fill="white"/>
<path d="M266 252 c-1 -1 -3 -3 -4 -5 -1 -2 -4 -6 -6 -9 -5 -7 -5 -9 1 -6 6 4
10 8 11 14 2 7 2 8 -2 6z" fill="white"/>
<path d="M549 251 c-4 -2 -12 -7 -14 -9 -2 -2 -1 -2 4 0 3 0 8 2 13 2 8 0 9 1
9 3 0 1 -1 2 -3 3 -3 2 -4 2 -9 1z" fill="white"/>
<path d="M213 247 c-4 -2 -7 -9 -3 -7 1 0 7 9 6 9 0 0 -2 -1 -3 -2z" fill="white"/>
<path d="M270 245 c-1 -5 -5 -9 -10 -13 -4 -1 -6 -3 -6 -4 0 0 10 1 15 2 l4 1
0 8 c-1 8 -2 11 -3 6z" fill="white"/>
<path d="M527 245 c-3 -2 -4 -5 -2 -8 2 -3 6 3 6 8 0 3 -1 2 -4 0z" fill="white"/>
<path d="M218 242 c-3 0 -2 -2 2 -2 3 -1 6 -2 10 -5 10 -7 15 -8 16 -5 1 2 -2
8 -5 10 -3 2 -5 3 -12 3 -5 0 -10 0 -11 -1z M248 231 c-1 -2 -1 -2 1 -2 1 0 2 0 1 2 0 0 0 1 0 1 -1 0 -1 -1 -2
-1z" fill="white"/>
<path d="M548 242 c-7 -1 -16 -5 -21 -7 -2 -2 -3 -3 -3 -5 l1 -2 14 0 c10 0
14 0 17 1 4 2 4 2 4 8 l0 6 -3 0 c-2 0 -6 -1 -9 -1z" fill="white"/>
<path d="M199 239 c-4 -2 -7 -4 -8 -5 -2 -1 1 -5 4 -5 2 0 2 1 2 3 0 2 5 6 8
6 1 0 2 1 2 2 0 1 0 2 0 2 0 0 -4 -2 -8 -3z" fill="white"/>
<path d="M206 237 c-9 -3 -10 -6 -4 -9 4 -1 8 -1 27 1 l6 0 -5 4 c-8 6 -14 7
-24 4z" fill="white"/>
<path d="M516 235 c-2 -2 -3 -3 -3 -5 0 -2 1 -3 5 -3 5 0 5 0 5 2 -1 1 -1 3 0
4 2 4 -1 5 -7 2z" fill="white"/>
<path d="M268 228 c-1 0 -11 -1 -22 -1 -11 0 -24 0 -29 -1 -6 -1 -11 -1 -14 0
-4 1 -10 1 -11 0 0 0 0 -1 1 -1 1 -2 18 -2 60 -1 15 0 18 1 19 2 2 3 1 4 -4 2z" fill="white"/>
</g>
</svg>
