<?xml version="1.0" encoding="UTF-8"?>
<svg width="600" height="800" viewBox="0 0 600 800" fill="none" xmlns="http://www.w3.org/2000/svg">
<g transform="translate(0,800) scale(1,-1)">
<path d="M188 767 c-1 0 -3 -1 -5 -1 -2 -1 -6 -3 -8 -5 -7 -6 -23 -28 -29 -40
-3 -7 -9 -16 -18 -28 -19 -27 -23 -34 -25 -52 -1 -5 -2 -13 -3 -16 -1 -6 -1
-8 0 -11 2 -5 6 -11 13 -16 3 -2 13 -12 23 -22 21 -21 28 -26 50 -35 20 -8 23
-11 25 -27 1 -12 3 -18 9 -26 3 -5 4 -8 4 -12 2 -9 6 -24 10 -33 5 -10 8 -20
8 -24 0 -1 -1 -5 -2 -7 -2 -7 -4 -6 -9 1 -2 3 -7 8 -10 12 -3 4 -11 15 -19 25
l-13 18 3 8 c4 10 3 11 -5 11 l-5 -1 -3 6 c-3 7 -4 8 -7 6 -2 -2 -6 -10 -6
-13 0 -1 -1 -3 -2 -4 -4 -2 -9 -10 -9 -13 0 -4 1 -7 9 -17 24 -31 44 -58 46
-62 4 -5 3 -6 -4 -12 -6 -6 -11 -8 -20 -10 -10 -2 -11 -5 -5 -8 2 -1 3 -3 3
-3 0 -1 -5 -3 -11 -6 -5 -3 -10 -6 -11 -6 0 -2 4 -6 7 -6 1 0 -1 -2 -4 -6 -5
-6 -10 -16 -10 -19 0 -1 1 -2 2 -3 2 0 2 0 -1 -6 -1 -3 -2 -7 -2 -8 0 -2 -2
-6 -7 -13 -4 -5 -10 -14 -14 -21 -3 -6 -9 -14 -12 -17 -6 -9 -9 -15 -9 -23 0
-6 3 -27 4 -30 1 -4 7 -10 13 -15 6 -5 7 -6 7 -9 0 -4 2 -9 5 -12 2 -1 6 -3
11 -4 6 -2 7 -3 8 -5 1 -2 1 -15 1 -24 -1 -5 2 -6 6 -3 l4 3 0 -2 c1 -2 1 -4
1 -7 0 -4 1 -8 3 -8 0 0 2 1 4 3 l3 3 1 -4 c2 -7 2 -7 5 -7 2 1 2 0 6 -6 5
-11 5 -13 1 -15 -2 -1 -5 -3 -6 -4 -3 -3 -5 -3 -9 -4 -6 0 -7 -1 -7 -3 0 -1
-1 -2 -3 -3 -1 -1 -2 -2 -3 -3 -1 -1 -2 -2 -4 -2 -3 0 -17 -6 -19 -9 -3 -3 -3
-15 -1 -18 3 -4 10 -5 26 -6 11 0 17 0 26 1 6 1 19 3 29 3 25 1 28 3 26 18 0
5 0 11 0 13 0 2 -1 6 -2 7 -1 2 -1 2 0 3 3 2 2 4 -3 9 -6 8 -8 12 -9 20 0 5 0
6 3 8 2 3 2 3 1 7 0 3 -1 5 -1 5 0 1 2 0 5 -1 5 -1 5 -1 7 0 1 2 1 3 -6 13 -1
3 -3 6 -3 6 0 1 2 1 4 1 8 0 9 4 2 10 -5 4 -12 13 -12 16 0 0 1 1 2 2 2 0 4 3
6 7 1 3 4 8 6 11 3 4 4 6 4 10 0 5 0 6 -4 10 l-4 4 2 2 c1 0 5 4 8 6 4 3 8 7
11 9 4 3 17 10 19 10 0 0 2 -2 3 -3 2 -2 4 -4 4 -4 2 0 3 -2 2 -5 0 -2 7 -18
10 -20 2 -1 3 -2 3 -3 0 -4 5 -14 7 -14 2 -1 4 -5 3 -7 0 -3 9 -20 12 -21 5
-3 11 6 12 17 0 7 0 8 -3 16 -2 5 -7 15 -10 21 -4 7 -7 14 -8 15 -1 3 -1 3 1
2 4 -3 30 -27 34 -31 4 -5 7 -10 8 -21 1 -9 3 -12 8 -16 11 -9 13 -9 29 -12 2
0 3 -1 4 -3 2 -6 6 -9 13 -9 3 -1 6 -1 7 -2 2 -1 3 -6 3 -18 1 -13 2 -14 7
-10 l4 3 1 -3 c1 -1 2 -5 2 -7 3 -10 4 -11 8 -5 l3 3 1 -4 c1 -2 3 -4 3 -5 2
-1 2 -1 3 1 1 2 1 2 5 -3 11 -12 12 -16 8 -25 -2 -6 -2 -8 1 -8 2 0 2 0 2 -2
-1 -1 -1 -5 0 -10 1 -10 2 -11 11 -13 3 -1 8 -2 12 -3 12 -3 19 -4 31 -4 14 1
22 3 26 7 2 2 2 3 2 8 0 8 -1 10 -8 15 -7 4 -11 7 -9 8 1 1 1 5 0 5 -1 1 -3 1
-6 2 -4 1 -4 1 -3 3 2 3 0 5 -7 5 -9 2 -15 9 -18 26 -1 3 -1 3 1 3 4 0 4 1 1
6 -2 3 -3 5 -3 5 0 0 2 0 4 0 6 0 6 1 1 8 -2 3 -4 6 -4 6 0 1 2 1 4 2 6 1 6 3
-2 10 -4 4 -8 10 -9 13 l-3 5 4 7 c4 9 5 16 3 21 -1 2 -1 3 0 9 3 9 2 20 -1
27 -3 5 -5 7 -13 13 -12 9 -13 10 -22 27 -3 6 -7 12 -8 13 -1 2 -1 2 0 2 1 -1
2 -2 3 -3 1 -1 3 -1 5 -1 4 0 7 -4 6 -7 0 -2 1 -4 7 -11 8 -9 11 -11 13 -11 3
-1 4 -2 4 -5 0 -2 2 -6 10 -15 6 -6 13 -15 17 -19 7 -10 9 -10 13 -6 3 3 3 4
3 11 0 10 -2 17 -10 28 -9 12 -29 35 -56 64 -8 9 -11 13 -12 15 -1 3 -2 7 -4
9 l-3 5 3 0 c7 0 -4 14 -18 24 l-3 1 2 2 c3 1 4 3 3 5 0 2 -2 3 -8 3 -11 2
-20 8 -28 18 -6 9 -14 15 -21 18 -7 3 -7 3 -9 8 -1 2 -3 7 -5 10 l-4 7 1 8 c1
5 3 10 5 15 4 8 8 19 10 27 l1 4 7 -5 c14 -9 25 -14 47 -18 7 -1 19 -4 26 -5
17 -4 26 -4 32 -1 6 3 8 7 10 19 1 6 3 14 4 19 2 13 0 27 -11 53 -5 11 -8 22
-10 32 -1 5 -3 10 -4 11 -3 7 -19 29 -27 37 -7 8 -9 9 -14 11 l-7 2 -8 -3 c-5
-1 -10 -3 -12 -4 -8 -3 -11 -8 -8 -18 1 -5 1 -5 -1 -7 -2 -3 -2 -10 1 -14 1
-1 3 -3 5 -4 2 -2 6 -4 8 -7 7 -5 10 -7 16 -7 9 -2 10 -3 13 -17 1 -8 1 -19 0
-21 -1 0 -3 1 -4 3 -7 6 -15 9 -25 9 l-6 1 -3 4 c-3 6 -13 16 -20 19 -2 1 -5
3 -6 4 -2 2 -2 3 1 4 4 1 5 3 2 5 -1 2 -1 2 0 3 1 1 1 1 -1 4 -2 1 -2 3 -2 5
0 1 -1 3 -1 4 -3 2 -2 2 2 4 1 1 3 3 3 3 0 1 -3 4 -7 7 -6 5 -6 5 -5 6 4 2 7
5 7 6 0 0 -3 3 -6 5 -8 6 -11 11 -14 23 -2 8 -2 9 0 10 1 0 2 1 4 3 2 1 2 2 1
4 -1 1 0 2 1 4 2 2 2 3 1 4 -1 1 -1 3 1 5 2 4 3 9 0 9 -1 0 -1 1 -1 3 1 1 1 6
2 11 0 7 0 9 -1 11 -1 2 -3 3 -3 3 -1 0 -4 -2 -8 -4 -3 -2 -8 -5 -13 -6 -8 -2
-13 -4 -16 -6 -1 -1 -3 -1 -8 1 -11 5 -15 5 -27 5 -14 0 -24 -2 -35 -7 l-7 -4
-5 3 c-2 1 -7 2 -10 3 -4 1 -10 3 -15 5 l-8 4 3 3 c4 3 5 7 3 12 -1 2 -1 4 1
7 2 5 3 9 1 12 -2 3 -3 4 -14 11 -9 5 -9 5 -17 5 -4 0 -8 0 -9 -1z m13 -6 c2
0 4 -1 9 -7 3 -3 6 -7 6 -7 0 -1 -1 -3 -2 -5 -1 -4 -2 -4 -5 -5 -3 0 -3 0 -1
2 2 4 1 7 -3 14 -3 3 -5 5 -5 4 0 -1 2 -3 4 -6 1 -2 3 -5 3 -6 0 -5 -7 -13
-11 -13 l-2 0 3 5 c3 7 3 7 -2 14 -5 7 -5 5 0 -2 l3 -5 -2 -4 c-2 -5 -6 -8 -8
-7 -3 0 -6 5 -6 6 1 3 4 2 4 0 0 -1 0 -1 1 0 0 1 1 2 1 2 1 0 1 0 1 1 0 1 -1
1 -1 1 -1 0 -3 1 -3 3 -1 1 -2 2 -3 2 0 -1 0 -2 1 -2 1 -2 1 -2 -2 -2 -3 0 -3
0 -1 -1 1 -1 2 -2 1 -2 -2 -2 -1 -5 2 -7 3 -4 3 -6 0 -11 -2 -6 -13 -8 -19 -5
-2 2 -2 2 -1 0 2 -3 6 -4 12 -3 4 1 5 2 8 6 2 3 4 6 4 7 0 2 1 2 8 2 4 -1 8
-1 8 -1 1 0 1 -1 1 -2 -1 -1 -1 -3 0 -4 1 -1 1 -1 1 1 0 2 0 2 3 1 2 -1 4 -2
5 -1 1 0 0 -1 -2 -3 -5 -4 -16 -7 -24 -6 -4 0 -6 0 -6 -1 1 0 0 -1 -1 -2 -2
-2 -8 -12 -12 -22 -3 -9 -3 -10 -3 -21 0 -14 -1 -21 -5 -30 -3 -7 -6 -9 -12
-11 -3 -1 -6 -3 -7 -4 -1 -2 -1 -2 1 -1 5 3 14 5 16 4 1 0 6 -1 11 -1 17 -1
25 -7 35 -26 2 -5 4 -7 3 -3 -1 1 -1 2 4 1 l6 -1 -4 -5 c-4 -7 -7 -13 -6 -14
0 -1 2 -1 5 0 2 1 4 1 5 1 0 -1 -1 -3 -3 -7 -3 -3 -4 -6 -3 -6 1 -1 3 -1 7 0
4 0 7 1 7 1 0 -1 -1 -3 -2 -5 -2 -7 -1 -8 5 -6 2 1 4 2 5 2 0 0 -1 -3 -1 -5
-2 -7 -1 -8 3 -7 3 1 3 1 2 -2 -2 -3 0 -4 5 -2 6 3 7 1 7 -6 0 -4 0 -7 1 -7 1
-1 2 0 4 1 2 1 2 1 6 -3 l4 -3 -3 4 c-3 3 -3 4 -2 5 2 1 2 1 6 -4 3 -4 3 -5 3
-3 -1 2 -2 5 -3 6 -2 3 -2 3 0 4 1 2 2 2 2 0 1 -1 1 -3 1 -4 0 -4 1 -6 3 -6 2
1 2 0 2 -2 0 -5 2 -4 6 0 2 3 4 5 4 5 2 0 1 -3 0 -4 -1 -1 -2 -2 -2 -2 0 -1 1
0 2 1 2 1 2 1 2 0 0 -1 1 -2 1 -3 2 -2 2 -2 4 -1 1 1 2 2 2 2 -1 0 1 2 3 4 2
2 3 3 4 2 1 -2 6 -10 7 -10 0 0 2 3 3 7 l3 6 7 -6 c3 -4 6 -6 7 -5 0 0 1 3 2
6 l1 6 4 -3 c2 -2 5 -3 5 -2 0 0 1 3 1 6 1 4 1 7 1 7 1 0 3 -1 6 -2 4 -2 7 -3
8 -3 2 0 2 0 2 6 -1 3 -1 7 -2 9 0 3 0 3 2 3 1 -1 3 -1 5 -2 5 0 5 0 2 6 l-1
3 8 0 c8 -1 10 0 6 5 -5 6 -5 6 2 6 11 -1 21 -8 29 -20 4 -6 5 -6 -3 -8 -3 -1
-1 -1 8 0 18 0 25 -2 35 -13 l5 -5 -2 -6 c-3 -11 0 -27 7 -33 l2 -2 -3 6 c-4
9 -4 18 0 35 5 17 5 27 2 41 -3 12 -5 15 -14 16 -4 1 -8 2 -10 2 -3 2 -11 10
-10 10 1 0 3 1 3 2 1 1 2 2 3 2 1 -1 1 -2 0 -3 -1 0 -1 -1 -1 -2 1 0 1 0 2 1
0 2 2 2 5 0 4 -1 6 -1 9 0 2 1 2 1 3 -4 1 -8 7 -14 16 -14 2 0 4 1 6 1 1 2 1
2 -2 1 -4 0 -11 1 -14 4 -3 2 -6 13 -5 15 1 1 1 2 1 3 0 2 1 3 3 3 2 1 2 1 -1
1 -3 0 -3 0 -2 2 0 2 0 2 -3 -1 -3 -1 -4 -3 -3 -4 0 -2 0 -2 1 -1 1 2 3 2 3
-1 0 -1 -6 -4 -8 -4 -2 1 -6 9 -6 12 0 0 2 3 6 6 3 3 5 6 5 6 0 1 0 1 -1 0 0
0 -3 -2 -6 -5 -6 -5 -7 -6 -5 -12 1 -3 1 -4 1 -4 -2 0 -3 1 -7 8 l-2 5 7 7 c4
3 7 7 7 7 0 1 -13 -9 -14 -11 -1 -1 -2 -3 -1 -5 0 -2 0 -2 -1 -1 -3 3 -3 9 -2
11 1 1 4 3 7 5 7 5 10 9 5 5 -14 -8 -15 -9 -15 -13 0 -3 0 -3 -1 -1 -1 1 -1 4
-1 6 0 3 1 3 11 7 10 4 12 4 16 3 2 0 2 0 0 -2 -1 -1 -1 -1 1 0 3 0 4 0 6 -3
3 -2 3 -2 1 -4 -1 -1 -1 -1 1 -1 1 0 2 0 3 0 1 0 16 -19 22 -29 3 -4 4 -8 5
-13 2 -11 5 -21 12 -40 9 -23 10 -29 10 -39 -1 -4 -1 -9 -2 -10 0 -2 0 -2 -1
1 0 2 -1 0 -1 -7 -1 -13 -3 -18 -6 -20 -4 -3 -12 -3 -28 1 -7 2 -18 4 -26 5
-22 5 -34 10 -50 22 -5 4 -11 7 -13 8 -5 1 -1 2 8 2 l8 0 -6 2 c-7 1 -15 1
-21 -3 -7 -3 -8 -3 -13 -11 -3 -4 -6 -8 -8 -9 -1 -2 -2 -3 -2 -3 1 -1 8 4 13
10 2 3 4 6 5 6 0 0 0 -3 0 -7 -1 -5 -1 -8 -1 -8 1 0 1 3 2 8 1 7 2 7 5 9 3 1
3 1 7 0 3 -1 5 -2 5 -3 0 -1 -5 -19 -7 -24 -1 -3 -5 -11 -8 -17 -5 -11 -6 -14
-4 -12 1 1 2 0 1 -4 -1 -7 -1 -8 4 -16 8 -13 6 -12 -15 9 l-21 21 2 3 c1 1 2
3 2 4 0 1 1 3 2 5 4 4 3 5 -4 5 -7 -1 -9 0 -4 2 1 1 2 1 2 2 -1 0 -2 0 -3 -1
-2 -1 -2 -1 -5 4 -1 3 -3 5 -3 5 -1 -1 -4 -7 -6 -12 0 -2 -2 -4 -4 -6 -4 -3
-8 -11 -6 -14 0 -1 9 -12 20 -23 33 -33 34 -35 33 -36 0 -1 -1 -1 -1 1 -1 2
-1 2 -5 -2 -3 -2 -6 -4 -7 -5 -2 -1 -2 -1 1 4 l2 4 -2 0 c-4 0 -10 -3 -16 -8
-3 -2 -5 -3 -5 -2 3 6 2 7 -1 4 -2 0 -6 -2 -11 -4 l-8 -3 2 3 c2 4 1 5 -2 4
-4 -1 -13 -5 -15 -8 l-2 -2 -5 4 c-7 6 -11 8 -11 7 -1 -1 -1 -2 0 -3 2 -4 0
-3 -10 4 -6 5 -10 6 -10 4 0 -2 -1 -2 -3 0 -1 1 -1 3 0 11 1 6 2 11 3 12 1 2
1 2 3 -1 1 -4 1 -1 0 4 -1 3 -3 8 -4 12 -1 5 -4 12 -6 16 -3 7 -7 17 -7 19 0
1 1 0 3 -2 l2 -2 -2 3 c-2 4 -6 15 -6 17 0 1 1 0 3 -1 l3 -1 -3 3 -3 4 6 -3
c4 -3 6 -3 12 -3 l8 0 -7 1 c-14 2 -25 10 -30 23 -2 6 -4 18 -4 27 0 3 0 8 -1
11 -2 7 -10 24 -15 30 -5 6 -5 6 -1 -1 8 -10 12 -20 13 -29 l1 -7 -2 2 c-6 8
-11 14 -14 16 l-3 2 3 -4 c5 -7 6 -7 -13 1 -18 7 -28 15 -47 35 -7 8 -16 16
-19 18 -7 4 -11 9 -12 13 0 1 0 5 1 9 2 4 2 10 3 14 0 8 4 20 9 29 5 8 17 25
20 28 3 2 15 24 15 26 0 1 2 4 4 8 3 3 7 8 9 12 7 10 14 17 17 17 1 0 4 1 5 2
2 0 3 1 5 0 1 0 4 0 6 0z m15 -8 c7 -4 7 -6 3 -12 -2 -4 -5 -5 -4 -2 4 7 3 10
-2 15 -5 4 -4 4 3 -1z m-8 -22 c1 -3 3 -4 5 -2 2 1 2 2 1 4 -1 2 -1 2 1 2 5 0
7 -7 3 -9 -2 -2 -3 -2 -6 -1 -5 2 -6 3 -6 6 0 3 1 5 2 3 0 0 0 -2 0 -3z m4 2
c1 -1 1 -2 0 -3 -1 -2 -2 -1 -3 2 0 3 0 3 1 3 1 0 2 -1 2 -2z m3 -23 c-1 -3
-1 -8 0 -12 1 -5 1 -7 0 -8 -1 -2 0 -6 2 -11 2 -3 2 -3 1 -5 -3 -2 -2 -4 1 -6
3 -1 3 -2 1 -3 -1 -1 -1 -2 1 -4 1 -1 3 -2 4 -2 4 0 -4 -14 -11 -20 -4 -3 -4
-3 -2 -5 1 0 2 -1 3 -1 3 0 2 -2 -4 -7 -10 -7 -10 -7 -14 -3 -6 6 -19 11 -27
11 l-4 0 3 6 c2 6 2 8 3 24 1 18 2 23 8 34 5 8 6 9 11 9 4 0 18 4 22 6 2 3 2
3 2 -3z m155 3 c0 -5 -5 -16 -9 -21 -4 -5 -4 -6 -2 -6 2 0 2 -1 -1 -4 -2 -2
-3 -3 -4 -2 -1 1 -1 -1 1 -5 1 -3 3 -12 5 -19 3 -15 6 -19 12 -24 l4 -3 -4 -1
c-2 0 -4 -1 -4 -1 0 -1 6 -9 7 -11 1 0 3 -2 4 -3 l3 -2 -3 0 c-1 0 -4 0 -4 -1
-2 0 -2 0 0 -3 1 -1 2 -3 3 -3 2 -2 1 -3 -2 -3 l-2 0 3 -4 c3 -4 3 -4 1 -3 -2
0 -2 0 1 -3 l4 -4 -4 0 c-3 0 -5 0 -6 -1 0 -1 1 -3 3 -5 2 -2 4 -4 4 -4 0 -1
-2 -1 -5 -1 -9 0 -10 -2 -5 -8 l2 -4 -4 0 c-3 0 -6 -1 -8 -1 -2 -1 -2 -2 -2
-4 1 -3 1 -3 -3 -2 l-4 0 0 -8 c0 -5 0 -9 0 -9 0 0 -3 1 -6 3 -3 1 -6 2 -7 2
0 -1 -1 -2 -1 -4 -1 -2 -1 -4 -2 -6 l0 -3 -3 2 c-4 3 -6 2 -7 -4 l-1 -4 -5 5
c-3 3 -6 5 -6 5 -2 0 -4 -3 -6 -7 l-2 -4 -3 5 c-3 6 -4 6 -10 -1 -2 -2 -3 -3
-3 -3 -1 0 -1 2 -2 5 -1 2 -2 4 -2 4 -1 0 -3 -2 -5 -4 l-4 -3 0 3 c0 3 -2 5
-3 3 -1 -2 -2 -1 -2 2 0 7 -3 8 -13 1 l-5 -3 0 8 c0 5 0 8 -1 8 -1 0 -3 -1 -6
-2 l-5 -2 1 3 c0 3 0 3 -3 3 -3 -1 -4 0 -2 6 1 5 0 6 -5 4 -5 -1 -5 -1 -4 2 1
1 1 3 1 5 0 2 0 2 -6 2 l-6 -1 2 5 c2 2 3 6 3 7 0 2 0 2 -5 2 l-4 -1 1 3 c1 1
3 5 5 7 2 2 3 5 3 6 0 1 -2 2 -7 2 l-4 0 4 6 c5 5 8 10 8 12 0 0 -2 0 -5 0
l-5 0 5 5 c5 4 7 7 10 13 1 3 1 4 -4 1 -1 0 -1 1 1 3 4 4 8 12 9 17 0 3 0 4
-2 5 -2 0 -2 0 -1 1 1 1 1 1 0 1 -2 0 -2 0 -1 1 2 2 1 3 -2 4 -2 1 -2 1 0 2 1
2 1 2 -2 5 -3 4 -4 6 -1 6 1 0 1 1 1 2 -2 3 -4 11 -4 16 l-1 5 4 -7 c4 -8 6
-11 11 -14 l4 -3 -4 0 c-5 1 -5 1 1 -6 l3 -3 -2 -1 c-3 0 -3 -1 -2 -2 3 -2 2
-3 -1 -3 l-2 -1 2 -2 c2 0 4 -1 4 -1 1 1 0 1 -1 2 -2 1 -2 1 0 1 2 0 3 1 2 3
-1 1 -1 1 1 2 3 0 4 1 2 2 0 0 -2 2 -3 4 -3 3 -3 3 -1 3 4 -1 4 0 0 5 -3 2 -6
6 -8 9 -3 4 -9 14 -9 15 0 1 2 0 5 -2 3 -2 9 -4 13 -5 10 -2 13 -4 17 -8 2 -2
3 -2 3 -1 0 1 1 2 2 1 1 0 2 0 1 2 0 1 1 2 7 5 14 5 15 6 30 5 11 0 15 0 19
-1 9 -4 19 -9 24 -14 7 -6 6 -3 0 4 l-6 6 4 2 c2 1 7 3 10 4 7 1 14 4 16 7 2
2 3 1 3 -1z m-4 -21 c-1 -2 -1 -2 1 -3 2 0 2 0 -1 -3 -1 -2 -2 -4 -2 -5 1 -1
0 -2 -1 -3 -1 -2 -1 -2 0 -4 1 -1 1 -2 -1 -2 -2 -1 -3 0 -3 4 0 3 1 5 3 7 2 4
3 5 0 5 -1 0 0 1 2 3 1 2 3 4 3 4 0 0 0 -1 -1 -3z m53 -82 c-1 -1 -1 -1 -1 0
0 1 0 2 1 2 0 -1 0 -1 0 -2z m-210 -5 c-1 -1 -3 -2 -4 -2 0 0 -1 1 -1 2 0 2 1
2 3 2 3 0 3 0 2 -2z m211 1 c1 -1 1 -1 0 -1 -2 0 -4 -5 -2 -6 2 -3 4 -2 5 1 1
3 2 4 3 1 2 -4 -5 -7 -9 -4 -3 2 -4 6 -1 8 2 2 2 2 4 1z m2 -4 c0 -3 -3 -4 -3
-1 0 2 1 3 3 3 0 0 1 -1 0 -2z m-172 -58 c0 -1 0 -1 -1 -1 -1 0 -1 0 -1 1 0 1
0 1 1 1 1 0 1 0 1 -1z m-74 -56 c1 -4 2 -12 0 -10 0 0 -1 2 -2 5 l-1 4 0 -4
c1 -4 1 -4 -1 -3 0 1 -1 2 -1 4 0 2 2 7 3 7 0 0 1 -2 2 -3z m11 -8 c-1 -4 -3
-7 -5 -7 -4 -1 -4 0 0 3 3 2 2 3 -2 0 -2 -1 -3 -1 -1 2 1 1 7 4 8 4 1 0 1 -1
0 -2z m-18 -4 c-2 -3 -5 -8 -6 -8 -2 0 -1 2 2 5 3 4 6 5 4 3z m6 -3 c0 -1 -8
-11 -9 -11 -1 0 -4 3 -4 4 0 1 1 1 1 1 1 0 3 2 5 5 3 5 3 5 5 3 1 -1 2 -2 2
-2z m1 -4 c0 -2 0 -3 1 -3 1 1 1 0 1 -1 0 -3 -1 -4 -3 -2 -1 2 -1 3 0 5 2 5 2
5 1 1z m146 -7 c0 -5 -2 -4 -3 0 l-1 5 0 -4 c1 -4 0 -4 -1 -3 -2 2 -2 5 0 10
l1 3 2 -4 c1 -3 2 -6 2 -7z m-139 1 c3 -4 3 -6 0 -14 -2 -6 -4 -6 -6 -3 -2 3
-2 3 0 6 3 4 5 12 4 14 -1 1 -1 1 -1 1 1 0 2 -2 3 -4z m-11 -3 c-5 -4 -7 -2
-2 2 2 3 3 3 3 1 1 -1 1 -2 -1 -3z m159 1 c-2 -6 -3 -6 -5 -7 -4 -1 -4 0 0 3
2 3 1 3 -2 0 -2 -1 -2 -1 -1 2 1 2 4 4 5 4 2 1 4 2 4 2 0 -1 -1 -2 -1 -4z
m-154 -1 c0 -1 1 -1 1 0 2 1 1 -2 -1 -6 -2 -4 -3 -4 -5 -1 -3 2 -2 2 0 5 3 3
4 3 5 2z m135 -2 c0 0 0 -1 -1 -1 -1 -1 -1 -2 -1 -3 0 -1 1 0 2 2 l2 3 2 -2 2
-3 -3 -5 c-4 -5 -5 -5 -7 -3 -2 1 -2 1 0 3 1 1 1 1 -1 0 -2 0 -2 0 -2 1 1 1 1
3 1 3 0 0 1 2 2 3 2 3 4 4 4 2z m-120 -14 c0 -2 -2 -5 -3 -7 -2 -2 -2 -2 -4 0
-5 4 -4 5 0 9 3 2 5 5 5 5 0 1 -2 0 -4 -2 l-3 -3 2 4 c1 2 2 5 2 6 0 2 1 1 3
-2 4 -5 4 -5 2 -10z m129 6 c-1 -2 0 -3 1 -2 1 0 1 -2 0 -3 -1 0 -2 0 -3 1 -1
2 -1 2 0 4 1 4 2 4 2 0z m7 -5 c2 -2 2 -3 1 -8 0 -3 -1 -7 -1 -8 -1 -1 -1 -2
0 -2 1 0 7 7 7 8 0 1 -1 0 -2 -1 l-3 -3 1 5 c0 2 0 5 1 5 0 1 7 -7 7 -9 0 -3
-3 -12 -4 -13 -1 0 -4 3 -7 7 -7 6 -7 7 -5 9 0 2 1 5 1 8 0 3 1 5 1 5 1 0 2
-1 3 -3z m-128 -7 c0 -1 -1 -5 -2 -8 -1 -3 -2 -5 -1 -5 0 0 3 6 4 10 l1 3 4
-6 5 -6 -4 -6 c-2 -3 -4 -6 -4 -6 -1 0 -2 1 -3 3 l-3 3 2 3 c4 3 6 8 6 9 -1 0
-2 -1 -3 -3 -1 -2 -3 -4 -4 -5 -2 -2 -2 -2 -6 3 -2 3 -4 5 -4 6 0 0 1 1 3 2 2
0 5 2 6 4 l3 2 -5 -2 c-5 -3 -6 -3 -3 1 1 1 2 3 2 4 0 1 0 2 1 2 1 1 5 -5 5
-8z m116 4 c-2 -1 -3 -2 -3 -1 -1 0 0 2 1 3 1 1 2 2 2 1 1 -1 1 -2 0 -3z m7
-1 c0 -1 -1 -2 -2 -4 -1 -3 -2 -3 -5 0 -2 1 -2 1 0 3 3 3 7 3 7 1z m22 -22
c-1 -4 -1 -8 -1 -9 -1 0 -3 1 -5 3 l-4 4 4 5 c2 2 4 5 4 5 0 1 -1 0 -2 -1 -2
-2 -2 -2 -2 -1 1 1 1 3 1 5 l0 2 3 -2 c2 -2 2 -3 2 -11z m15 -6 c0 0 -2 -3 -5
-5 l-5 -5 -2 2 c-4 3 -4 4 -1 7 2 2 5 7 5 8 -1 0 -2 -1 -2 -3 -1 -1 -3 -3 -3
-4 -2 -1 -2 -1 -1 3 1 2 1 5 1 7 l-1 3 7 -6 c3 -4 7 -7 7 -7z m-149 6 c-1 -3
-2 -7 -3 -8 -1 -2 -1 -2 -3 -1 -1 2 -1 2 1 5 1 1 2 4 3 6 3 6 4 4 2 -2z m6 -2
c-1 -1 -2 -3 -4 -4 -2 -1 -3 -2 -3 -1 1 1 1 3 2 6 1 4 1 4 3 2 1 -1 2 -2 2 -3z
m4 -4 c2 -2 2 -2 0 -4 -1 -3 -9 -9 -9 -8 -1 0 -2 2 -3 3 l-2 3 5 3 c2 2 4 4 5
5 0 2 2 1 4 -2z m138 -11 l-1 -7 -4 3 -3 3 4 5 c3 3 5 4 5 4 0 0 0 -3 -1 -8z
m9 -2 c-1 -6 -3 -11 -4 -11 0 0 -2 1 -3 2 l-2 3 3 4 c1 2 3 5 3 6 1 2 0 1 -2
-2 -3 -6 -4 -6 -3 -1 1 2 1 5 1 7 l0 3 4 -3 c3 -3 3 -4 3 -8z m-144 1 c-2 -3
-3 -5 -3 -5 0 0 0 3 1 6 2 6 3 7 4 5 1 -2 1 -3 -2 -6z m-3 0 c-2 -3 -3 -7 -4
-7 0 0 -1 1 -2 2 -2 3 -2 3 3 7 2 3 5 5 5 5 0 0 -1 -3 -2 -7z m7 -4 c-1 -3 -3
-6 -5 -7 -3 -2 -3 -2 -4 0 -1 1 0 2 2 5 2 2 4 5 5 6 1 3 1 3 3 2 1 -2 1 -2 -1
-6z m144 1 c0 -1 -2 -2 -2 -3 -2 -2 -2 -2 -2 1 1 2 1 4 1 5 0 2 0 2 2 1 1 -2
2 -3 1 -4z m12 0 c4 -2 12 -9 23 -21 5 -6 15 -12 19 -12 3 0 3 -2 -1 -2 -1 -1
-3 -2 -3 -2 0 -1 4 -4 8 -6 8 -4 19 -11 18 -12 0 0 -2 1 -4 1 -2 1 -4 1 -5 0
-1 0 2 -3 6 -7 3 -4 7 -9 8 -11 1 -2 -12 11 -30 29 -18 18 -33 33 -33 34 0 0
-2 3 -5 6 -3 3 -6 5 -5 5 0 0 2 -1 4 -2z m-143 -3 c0 -2 0 -2 -1 -2 -3 1 -2
-1 1 -4 6 -6 14 -11 14 -9 0 0 0 2 -1 3 -2 4 0 3 4 -1 3 -2 7 -5 10 -7 l6 -3
0 4 -1 3 3 -3 c2 -1 5 -4 6 -5 l2 -2 4 3 c2 2 6 5 8 6 l4 2 -2 -4 c-2 -5 -2
-6 1 -4 1 1 6 2 11 4 7 3 8 3 7 1 -1 -1 -1 -2 -2 -3 -1 0 -1 -1 -1 -1 2 -2 8
1 16 7 5 3 9 6 9 6 1 0 0 -2 -1 -4 -2 -5 -2 -5 0 -5 3 0 8 3 11 7 l2 2 0 -2
c0 -4 1 -4 5 -1 l4 3 8 -8 c4 -4 8 -8 9 -8 1 0 6 -4 11 -9 5 -6 9 -9 10 -8 0
2 2 1 5 -2 3 -3 3 -3 1 -4 -1 -1 -1 -1 2 -5 1 -2 5 -5 7 -8 4 -4 5 -4 6 -3 2
1 3 1 6 -2 3 -3 3 -4 2 -5 -1 -2 0 -3 7 -11 7 -7 9 -9 11 -8 2 0 3 -1 6 -3 3
-3 4 -5 2 -5 -1 0 -1 -1 -1 -2 0 -1 0 -1 -3 1 -2 1 -3 1 -3 1 -1 0 0 -3 1 -7
2 -8 1 -8 -3 -3 -4 3 -12 9 -12 7 0 0 1 -2 3 -5 1 -3 2 -5 2 -6 0 0 -2 1 -4 3
-2 1 -5 4 -7 5 -4 2 -4 2 0 -6 2 -4 3 -10 3 -10 -1 0 -4 1 -8 3 -10 5 -17 7
-17 6 0 -1 1 -4 3 -7 1 -3 2 -5 2 -6 0 0 -2 1 -4 3 -2 1 -7 4 -12 6 -7 3 -8 4
-11 9 -4 6 -5 7 -2 1 1 -2 3 -7 5 -11 1 -3 3 -8 4 -9 l1 -3 -3 1 c-9 2 -20 8
-29 15 -3 3 -6 5 -7 5 0 -1 1 -3 1 -6 1 -3 2 -6 2 -6 0 -1 -3 2 -6 5 -3 4 -6
7 -6 8 -2 1 4 -10 7 -14 1 -2 2 -3 1 -3 -1 0 -14 9 -19 13 -2 2 -4 4 -5 4 0
-1 1 -4 3 -8 1 -5 3 -8 2 -8 0 0 -3 2 -6 4 -6 4 -14 12 -20 19 l-2 3 0 -6 c1
-3 2 -8 2 -10 1 -2 1 -4 1 -4 -1 0 -4 3 -9 8 -7 7 -8 7 -8 2 -1 -3 -1 -3 -3 2
-2 3 -3 7 -3 8 0 0 0 1 -1 1 -1 0 -1 0 -1 -1 0 -1 -11 -13 -12 -13 0 0 1 3 2
5 1 7 1 8 -3 4 -4 -4 -18 -13 -19 -13 0 1 3 12 5 16 0 1 -3 -2 -8 -5 -8 -7
-19 -14 -19 -12 0 0 1 3 3 6 1 3 2 6 2 7 -1 0 -2 -1 -4 -2 -4 -3 -16 -9 -16
-8 0 0 1 2 3 4 3 6 1 5 -4 -1 -2 -3 -5 -6 -5 -6 -1 0 0 8 2 15 1 3 2 6 2 7 -1
0 -2 0 -3 -1 -1 -1 -5 -2 -7 -3 -2 -1 -6 -2 -9 -4 -2 -1 -4 -2 -4 -1 0 0 1 3
3 6 2 3 3 6 3 6 -1 0 -3 -1 -7 -3 -6 -3 -6 -3 -1 4 3 3 4 6 3 6 -2 0 -14 -5
-18 -6 -3 -2 -5 -2 -5 -2 0 1 5 7 9 12 3 2 4 4 4 5 -1 0 -3 0 -6 -1 -3 0 -5
-1 -6 -1 -1 1 9 12 16 17 7 5 11 10 6 7 -1 -1 -4 -1 -6 -1 l-4 0 6 4 c4 2 10
6 12 8 l5 3 -4 2 -4 1 4 1 c6 2 12 6 19 14 5 5 9 9 12 10 5 3 6 4 7 8 1 3 1 4
3 4 3 0 3 0 3 -3z m133 -2 c0 -5 -2 -10 -4 -10 0 0 -1 1 -3 2 l-2 2 4 5 c2 2
4 4 4 5 0 1 0 1 1 1 1 0 1 -2 0 -5z m4 2 c1 0 -2 -6 -2 -6 0 0 0 2 0 4 0 3 1
4 2 2z m-148 -1 c0 -1 0 -2 -1 -2 -1 0 -1 1 0 2 0 0 0 1 1 1 0 0 0 -1 0 -1z
m153 -4 l3 -3 -3 -6 c-3 -6 -5 -7 -7 -5 -1 1 -1 1 0 2 3 1 8 9 7 11 0 2 -2 1
-2 -2 -1 -1 -2 -4 -4 -6 -3 -3 -3 -3 -5 -2 -1 2 -1 3 1 5 2 1 4 4 5 6 1 2 2 3
2 3 0 0 2 -1 3 -3z m9 -10 c1 -1 15 -16 31 -31 56 -57 100 -106 102 -114 2
-10 3 -10 -6 -1 -6 5 -9 9 -9 11 -1 4 -9 13 -13 14 -3 0 -11 9 -11 12 0 5 -12
18 -15 16 -2 0 -8 6 -8 9 -2 6 -11 15 -16 16 -4 2 -10 8 -12 13 -2 5 -10 13
-13 13 -2 0 -10 8 -10 11 -1 4 -9 11 -11 11 -2 0 -5 3 -10 7 l-7 8 2 4 c2 2 3
4 3 4 1 0 2 -1 3 -3z m-1 -14 c4 -4 8 -7 9 -7 2 0 10 -8 11 -11 0 -3 9 -12 11
-12 2 0 9 -7 12 -11 2 -4 11 -14 13 -14 2 0 10 -8 13 -13 3 -7 8 -12 10 -12 2
0 3 -1 5 -2 3 -3 10 -12 10 -14 0 -2 8 -11 12 -13 4 -2 11 -10 12 -14 0 -2 2
-4 5 -7 6 -4 12 -12 15 -17 0 -2 1 -4 1 -4 -1 0 -6 6 -12 13 -6 7 -11 13 -11
13 -1 0 -1 2 -1 3 0 4 -7 11 -10 11 -3 0 -15 14 -14 16 1 4 -9 15 -13 14 -2
-1 -11 9 -12 13 -1 4 -7 10 -10 10 -3 0 -16 14 -16 17 0 3 -7 10 -10 10 -4 0
-12 9 -13 13 0 3 -6 9 -9 9 -2 0 -5 3 -10 8 -4 5 -7 8 -6 8 0 0 4 -3 8 -7z
m-214 -65 c-2 -3 -3 -6 -3 -6 0 -2 3 -3 3 -1 1 0 2 1 4 2 3 1 3 1 2 -1 -1 -2
-2 -9 -1 -10 0 -1 3 1 6 3 5 4 12 7 14 7 0 0 0 -1 0 -4 -1 -6 -1 -13 1 -17 l1
-3 2 3 c1 2 3 3 9 6 4 1 8 3 8 2 0 0 -1 -2 -2 -4 -1 -2 -2 -4 -1 -4 2 -1 10 2
18 7 2 1 5 3 6 3 1 1 1 0 0 -4 -1 -9 0 -10 4 -6 2 2 6 6 10 9 l8 5 -2 -4 c-2
-7 -2 -7 3 -5 2 1 6 5 9 7 l5 5 1 -3 c3 -4 9 -11 10 -11 1 0 1 2 1 4 l-1 5 5
-5 c4 -4 11 -8 13 -8 2 0 2 0 0 6 l-2 6 7 -6 c7 -6 16 -11 21 -12 4 -1 4 0 0
5 -1 3 -2 5 -2 5 1 0 4 -2 7 -4 6 -3 16 -8 18 -8 0 0 0 3 0 6 l-1 6 4 -3 c8
-5 22 -11 31 -13 5 0 7 1 4 3 -1 0 -4 6 -5 10 -1 2 -1 2 3 1 5 -3 16 -11 18
-14 3 -5 4 -1 1 9 -2 4 -2 7 -2 7 0 0 3 -1 5 -2 5 -1 7 -3 13 -11 4 -5 11 -13
14 -18 12 -16 15 -19 20 -22 9 -6 9 -7 10 -22 0 -11 0 -13 2 -15 3 -3 2 -3 -8
-10 -11 -7 -17 -11 -26 -14 -5 -1 -6 -2 -3 -2 7 0 21 6 34 16 l6 4 0 -4 -1 -4
2 5 c1 2 3 7 6 10 5 6 5 7 0 2 -3 -2 -5 -4 -6 -4 0 0 -2 1 -3 2 -2 3 -2 4 -1
14 0 14 -1 17 -9 23 -8 6 -9 7 -15 15 -3 5 -8 11 -11 15 -4 4 -8 9 -10 11 l-3
4 3 -2 c3 -2 3 -2 4 0 0 0 0 4 -1 7 -1 3 -2 6 -2 7 0 0 2 -1 4 -4 3 -2 5 -4 5
-3 0 0 0 2 0 4 0 3 -1 5 -1 5 1 0 3 -3 6 -6 4 -5 5 -6 6 -4 0 1 3 -3 11 -16 5
-9 12 -18 14 -20 2 -3 3 -4 2 -3 -1 1 -1 2 0 2 1 0 15 -11 16 -13 0 -1 1 -5 2
-8 1 -6 1 -8 -1 -15 -2 -10 -3 -14 -1 -14 1 1 2 -2 2 -6 0 -3 -7 -16 -9 -17
-3 -1 -14 -5 -15 -5 0 0 4 5 8 9 10 12 6 10 -9 -5 -7 -7 -14 -13 -16 -14 -3
-2 -6 -2 -20 -2 -9 0 -18 1 -19 1 -2 1 -7 7 -6 8 0 0 4 -1 8 -1 6 -2 6 -2 5 0
-3 2 -15 5 -23 6 -4 1 -9 1 -10 2 -4 0 -15 7 -16 10 -1 2 -3 6 -3 11 -1 5 -2
9 -2 11 -1 1 0 0 3 -3 5 -5 5 -4 0 4 -7 8 -35 34 -47 43 -2 2 -4 3 -3 3 3 0
13 -2 33 -6 23 -6 26 -6 24 -5 -2 1 -28 8 -40 11 -11 2 -36 5 -61 8 -21 1 -52
1 -56 -1 -1 -1 0 -1 5 0 7 0 50 -2 52 -3 1 0 0 -1 -3 -2 -5 -2 -14 -8 -26 -18
-14 -11 -23 -16 -41 -22 l-8 -2 6 0 c5 1 12 3 22 7 1 0 1 0 -1 -3 l-2 -2 2 1
c1 1 4 3 5 4 l3 2 2 -3 c0 -1 2 -4 4 -6 4 -5 4 -7 -1 -13 -2 -3 -4 -6 -5 -7 0
-4 -3 -6 -16 -12 -10 -5 -12 -5 -20 -6 -8 0 -8 0 -6 1 3 3 23 13 25 13 1 0 2
0 2 1 -1 0 -4 0 -7 -1 -6 -1 -20 -8 -38 -17 -4 -3 -8 -4 -10 -4 -5 0 -20 5
-22 7 0 1 -1 3 -1 5 l0 4 3 -2 3 -1 -3 2 c-1 2 -6 6 -10 9 -13 10 -14 12 -16
30 -2 15 -1 19 5 26 3 4 9 13 14 21 16 24 30 43 35 46 2 1 4 2 4 1 0 0 -1 -2
-2 -4z m122 -62 c3 -4 5 -9 5 -13 0 -4 3 -10 8 -13 1 -2 3 -5 4 -6 1 -4 2 -12
1 -12 -1 0 -3 6 -2 8 0 2 -2 8 -5 9 -1 0 -8 13 -7 14 1 2 -3 10 -6 12 -2 0 -3
1 -3 2 0 2 3 1 5 -1z m18 -15 c11 -22 18 -37 19 -41 0 -4 -2 -15 -4 -15 -1 0
-4 7 -3 8 3 5 -1 15 -7 18 -3 3 -4 3 -4 8 0 5 -2 11 -6 13 -4 2 -6 7 -6 11 0
4 -2 10 -5 13 l-2 2 4 0 5 0 9 -17z m215 2 c2 -5 3 -19 1 -15 -1 1 -2 5 -3 10
-1 5 -2 10 -3 11 l0 3 1 -3 c1 -1 3 -4 4 -6z m-205 -40 c0 -1 1 -5 1 -7 0 -3
0 -3 -1 -2 -1 1 -2 4 -2 5 0 2 -1 5 -2 7 -1 3 -1 3 1 2 0 -1 2 -3 3 -5z m-97
-24 c1 -3 4 -7 6 -9 3 -4 3 -5 -2 -3 -4 1 -4 1 0 -10 2 -5 4 -9 4 -9 -1 0 -2
1 -4 3 -2 2 -3 3 -4 3 0 0 1 -11 2 -14 0 -1 0 -1 -2 0 -2 1 -2 1 -2 -1 1 -3 1
-4 1 -18 0 -10 1 -14 7 -22 1 -2 2 -3 1 -3 -1 -1 -1 -2 1 -5 2 -4 2 -4 0 -3
-2 0 -2 0 -2 -2 0 -2 0 -4 -1 -6 0 -3 0 -3 -1 -1 -2 3 -4 4 -4 1 0 -2 -1 -3
-1 -3 -1 -1 -2 -3 -3 -6 -1 -5 -4 -11 -5 -9 -1 0 -2 1 -3 0 -1 0 -1 0 0 1 1 1
1 2 0 3 0 1 -2 0 -5 -3 -2 -2 -4 -4 -4 -3 0 0 -1 1 -1 1 -1 0 -2 1 -2 2 0 2
-6 8 -9 8 -1 0 -2 0 -1 1 0 1 -1 1 -3 1 -2 -1 -3 -1 -3 0 0 1 -2 1 -6 1 -7 -1
-9 -1 -4 1 3 1 3 3 0 3 -2 0 -2 0 2 2 2 2 5 3 8 4 2 1 6 3 9 6 5 5 6 6 6 10 0
5 -2 12 -9 23 -3 5 -5 11 -5 13 0 2 0 2 -1 -1 -1 -4 -2 -5 -2 -3 0 3 -5 12 -6
12 0 0 -1 -1 -2 -3 l-1 -3 -1 6 c-1 3 -2 8 -3 10 l-1 4 -2 -4 -3 -4 0 7 c-1 3
-1 8 -2 9 0 2 0 3 4 3 2 1 6 3 9 4 l6 4 13 0 c12 0 12 0 19 3 4 2 8 4 9 4 0 0
2 -2 3 -5z m269 -17 l3 -4 -4 1 c-1 1 -3 1 -3 1 -1 0 1 -4 2 -8 4 -6 4 -9 2
-6 -3 2 -4 1 -3 -3 1 -2 2 -5 2 -6 1 -3 1 -3 -1 -2 -2 1 -3 0 -1 -2 1 0 2 -4
3 -9 2 -14 5 -22 10 -27 2 -3 6 -6 8 -6 3 -2 4 -2 3 -3 -1 -1 0 -2 4 -4 3 -1
5 -3 5 -4 0 0 1 -2 3 -3 l3 -2 -3 0 c-2 0 -3 -1 -4 -2 0 -1 -1 -2 -1 -2 -6 2
-7 2 -5 -2 1 -2 0 -1 -4 1 -6 3 -6 3 -6 2 0 -2 -1 -2 -3 -1 0 1 -2 0 -4 -3 -2
-2 -3 -4 -3 -4 0 -1 0 -1 -1 -1 -1 1 -1 0 -1 -2 l0 -2 -1 2 c-2 2 -2 2 -2 1 0
-4 -3 0 -6 8 -2 6 -2 7 -4 5 -1 -1 -1 -1 -1 1 0 1 0 4 0 5 0 3 -1 4 -3 2 0 -1
-1 1 0 5 0 8 -2 13 -12 25 -7 8 -8 9 -8 13 0 5 -2 5 -3 1 -1 -5 -1 -5 -4 -1
-2 3 -3 5 -4 5 0 0 -1 -1 -1 -3 -1 -2 -1 -3 -2 -3 0 -1 -2 4 -4 9 -2 6 -4 11
-4 11 0 1 -2 -1 -3 -3 l-1 -4 -2 8 c0 4 -1 9 -1 10 l-1 3 10 0 c11 0 15 1 22
7 2 2 8 5 14 7 l11 4 3 -6 c2 -3 4 -7 6 -9z m-258 -82 c1 -4 1 -12 0 -14 -1
-2 -8 -4 -11 -4 l-4 0 2 4 c0 2 1 5 1 6 0 2 0 2 1 1 1 -1 1 -1 2 0 1 1 1 1 1
-1 0 -1 0 -2 1 -2 1 -1 4 6 4 11 0 4 2 4 3 -1z m-68 -8 c-1 -1 -1 -2 -2 -2 0
1 0 2 1 2 2 3 2 2 1 0z m-4 0 c0 -1 -2 -3 -5 -4 -4 -1 -5 -1 -2 1 l3 1 -3 0
c-3 -1 -3 -1 -2 0 1 1 3 1 4 0 1 0 2 0 2 1 -1 0 0 1 0 1 2 1 3 1 3 0z m374 -4
c4 -3 6 -5 5 -5 -1 -1 -1 -1 0 -1 1 0 1 0 1 -1 -1 0 -3 1 -5 3 -2 2 -4 3 -5 3
-1 -1 -1 -1 1 -2 1 -1 2 -2 1 -3 0 -1 -1 0 -4 2 -2 2 -4 3 -5 3 -1 0 -1 0 0
-2 2 -1 2 -1 1 -2 -1 -2 -1 -2 1 -3 1 -1 3 -1 3 0 1 0 1 0 1 -2 0 -1 -1 -1 -3
-1 -3 0 -3 0 -4 2 0 2 -1 4 -2 5 l-2 2 2 2 c1 1 2 2 2 3 -1 1 0 1 2 1 2 0 6
-2 10 -4z m-358 2 c0 -1 1 -1 4 -1 3 1 5 0 8 -1 5 -2 7 -6 5 -7 -2 -1 -10 -2
-18 -2 -4 0 -9 0 -13 -1 -7 0 -9 1 -9 5 0 2 0 2 3 1 2 -1 3 -1 5 0 1 0 1 0 -2
1 -5 0 -3 2 3 3 5 0 7 1 6 2 0 1 1 1 4 1 2 0 4 0 4 -1z m301 -3 c1 0 1 1 1 2
0 1 4 -5 4 -7 0 -2 -3 -1 -6 1 -1 1 -2 2 -2 5 0 3 0 3 1 1 1 -1 1 -2 2 -2z
m33 -4 c0 -2 0 -2 5 -2 4 0 5 0 5 -2 0 -4 -8 -5 -13 -3 -2 1 -5 1 -7 1 -5 0
-5 1 -5 3 0 3 4 8 6 8 0 -1 2 -1 3 -2 1 0 1 0 1 1 -1 3 0 3 3 1 1 -2 2 -4 2
-5z m-361 5 c-1 -1 -2 -1 -2 -1 -1 0 -1 0 0 1 0 1 1 1 1 1 1 0 1 0 1 -1z m2
-3 c-1 0 -1 0 -2 0 -1 1 -1 1 0 1 1 0 2 0 2 -1z m-7 -3 c0 -2 0 -2 -1 -1 -1 0
-1 2 -1 2 1 3 2 2 2 -1z m6 0 c1 -1 1 -3 0 -3 0 -1 -3 2 -4 3 0 3 4 2 4 0z
m84 -3 c-2 -2 -13 -3 -25 -3 -5 0 -16 -1 -24 -2 -22 -3 -44 -1 -45 3 0 2 0 2
2 2 3 -2 12 -3 18 -3 20 0 27 0 30 1 3 1 7 1 9 1 3 0 5 0 5 1 1 0 6 1 12 1 9
0 11 0 15 2 3 1 4 1 4 0 0 -1 0 -2 -1 -3z m282 4 c2 -1 2 -1 -1 -1 -4 -1 -6 0
-4 1 2 1 3 1 5 0z m12 -1 c1 -1 1 -1 -1 -1 -2 0 -3 0 -2 1 0 1 1 1 3 0z m8 -1
c-1 0 -1 0 -2 0 -1 1 -1 1 0 1 1 0 2 0 2 -1z m-54 -3 c2 0 5 -1 5 0 0 0 1 -1
2 -1 1 -1 2 -2 3 -2 1 0 5 0 9 -1 3 -1 8 -1 10 -2 2 0 5 0 7 1 2 0 6 1 10 1 4
1 8 1 10 2 3 0 4 0 4 -1 0 -3 -10 -6 -25 -5 -12 0 -14 0 -23 3 -6 2 -12 3 -13
3 -2 0 -4 0 -5 1 -2 1 -3 3 0 3 1 -1 4 -2 6 -2z m54 1 c-1 -2 -4 -2 -4 -1 0 1
1 2 2 2 1 0 2 -1 2 -1z m5 0 c0 -1 -1 -1 -1 -1 -1 0 -2 0 -2 1 0 1 1 1 2 1 0
0 1 0 1 -1z M171 710 c-2 -1 -4 -4 -5 -5 -1 -3 0 -2 3 1 5 6 7 10 2 4z M118 620 c0 -2 0 -5 1 -5 1 -1 1 0 0 2 0 2 -1 4 -1 6 -1 1 -1 -1 0
-3z M152 612 c3 -8 8 -18 10 -21 2 -3 12 -11 16 -13 2 -1 0 1 -2 3 -12
10 -15 14 -18 22 -3 6 -7 14 -6 9z M460 573 c1 -2 3 -6 5 -10 1 -4 2 -6 1 -4 0 6 -3 13 -5 15 -2 1 -2 1
-1 -1z M386 535 c-3 -1 -6 -2 -7 -3 -3 -3 -11 -10 -11 -11 0 -1 2 1 5 3 5 5
8 7 17 11 7 2 4 3 -4 0z M294 523 c-1 -1 -1 -1 0 -1 0 0 1 0 2 1 1 1 1 1 1 1 -1 0 -2 0 -3 -1z M272 506 c-1 -3 -1 -16 0 -19 0 -1 1 3 1 9 0 7 0 12 -1 12 0 0 0 -1
0 -2z M435 500 c-6 -3 -14 -3 -22 -2 l-3 1 3 -2 c6 -2 16 -2 22 1 9 5 10 7
0 2z M284 475 c4 -3 16 -7 22 -8 l5 0 -5 1 c-3 1 -10 3 -15 5 -6 3 -9 3
-7 2z M485 474 c-1 -2 -2 -4 -3 -5 -1 -2 -1 -2 1 -1 2 1 4 7 3 9 -1 0 -1
-1 -1 -3z M271 466 c-2 -6 1 -20 4 -24 1 -1 1 2 -1 6 -1 5 -2 10 -2 14 0 3 0 6
-1 6 0 0 0 -1 0 -2z M356 464 c-1 -2 -4 -7 -7 -9 -4 -5 -3 -5 2 0 3 2 5 6 7 10 1 4 0 3
-2 -1z M247 461 c0 -3 0 -4 1 -3 0 2 0 4 0 5 -1 1 -1 0 -1 -2z M352 447 c-1 -3 -2 -6 -3 -7 0 -1 0 -1 1 0 1 1 4 10 4 11 0 1 -1 -1
-2 -4z M248 449 c0 -2 8 -11 9 -11 1 0 -1 2 -3 5 -6 8 -6 8 -6 6z M265 438 c-2 -1 -3 -2 -2 -2 1 0 3 1 5 2 2 1 3 2 2 2 -1 0 -3 -1 -5
-2z M282 440 c0 -1 17 -8 21 -8 l5 -1 -6 2 c-3 1 -8 3 -12 4 -6 3 -8 4
-8 3z M277 428 c1 -5 1 -8 3 -13 2 -3 3 -6 4 -6 0 1 -1 4 -3 8 -1 4 -3 10
-3 13 -1 4 -1 4 -1 -2z M255 425 c0 -2 4 -12 6 -12 1 -1 0 1 -2 5 -1 3 -3 6 -3 7 -1 1 -1 1
-1 0z M321 422 c0 -1 1 -2 1 -3 1 -2 1 -2 1 -1 0 1 -1 2 -1 4 -1 1 -1 1 -1
0z M321 409 c-1 -2 -2 -5 -2 -5 1 0 4 7 4 9 0 0 -1 -1 -2 -4z M273 408 c-3 0 -4 -1 -3 -1 2 -1 8 0 8 1 0 1 0 1 -1 1 0 0 -2 -1 -4
-1z M294 407 c2 -3 7 -5 11 -5 l4 0 -4 1 c-2 0 -6 2 -8 3 -3 2 -4 2 -3 1z M253 403 c0 -1 0 -2 1 -1 0 0 0 2 0 2 -1 1 -1 0 -1 -1z M283 402 c1 -2 1 -4 1 -5 0 -1 0 -5 0 -8 -1 -6 -1 -6 0 -2 0 2 1 6 2
7 2 4 1 6 -2 8 -1 1 -1 1 -1 0z M332 401 c-4 -10 -5 -12 -4 -11 1 1 5 11 5 12 -1 0 -1 0 -1 -1z M345 700 c-1 -1 -1 -2 0 -2 0 0 1 1 2 2 2 0 2 1 1 1 0 0 -1 -1 -3 -1z M347 696 c-1 -1 -1 -1 1 0 3 2 4 2 2 2 0 0 -1 -1 -3 -2z M253 693 c0 0 1 -2 3 -4 l4 -2 -3 3 c-3 3 -4 3 -4 3z M253 688 c2 -3 5 -5 3 -2 0 1 -2 2 -3 4 l-2 2 2 -4z M325 676 c0 -1 0 -1 1 0 0 1 0 1 0 2 -1 0 -1 -1 -1 -2z M291 672 c1 -1 3 -4 5 -7 2 -3 4 -5 4 -5 0 2 -7 11 -9 13 -1 1 -1 1
0 -1z M324 670 c-1 -2 -1 -4 -1 -5 1 0 1 2 2 4 0 2 0 4 0 5 -1 0 -1 -2 -1
-4z M310 671 c0 -1 1 -4 1 -5 1 -3 1 -3 1 -1 0 1 -1 4 -1 6 -1 2 -1 2 -1
0z M302 671 c1 -3 7 -21 7 -22 1 -2 1 -2 1 0 0 2 -6 22 -8 23 0 0 0 0 0
-1z M341 665 c-2 -1 -4 -3 -4 -4 -1 -2 0 -1 3 1 2 3 4 5 4 5 0 0 -1 0 -3
-2z M336 663 c-4 -4 -7 -11 -7 -12 1 0 1 0 1 1 0 0 2 4 4 7 5 8 6 9 2 4z M317 660 c0 -3 0 -4 1 -3 0 2 0 4 0 6 -1 1 -1 0 -1 -3z M277 658 c3 -3 6 -6 6 -5 1 0 -10 10 -11 10 -1 0 1 -2 5 -5z M264 661 c1 0 4 -1 7 -3 3 -1 5 -2 5 -1 0 0 -10 5 -12 5 -1 0 -1 0 0
-1z M281 659 c2 -2 4 -6 6 -9 2 -3 3 -4 3 -3 -2 4 -6 11 -9 13 l-2 3 2
-4z M328 655 c-2 -3 -3 -9 -4 -12 l0 -5 1 6 c1 3 3 8 4 11 3 9 2 9 -1 0z M343 658 c-3 -2 -7 -4 -8 -6 -4 -5 -7 -15 -7 -23 0 -8 1 -10 3 -9 1
0 4 1 6 1 7 1 13 6 16 12 2 4 2 6 2 12 0 8 -2 15 -4 16 -1 0 -4 -1 -8 -3z m8
-5 c1 -1 2 -4 2 -8 0 -7 -1 -10 -5 -13 -3 -2 -3 -2 -5 -1 -8 3 -9 19 -2 23 3
2 8 1 10 -1z m-14 -21 c1 -1 3 -3 5 -4 l4 -1 -4 -1 -4 -2 -3 3 c-3 3 -3 3 -2
1 2 -3 2 -3 1 -4 -2 -2 -3 -1 -3 6 0 5 1 7 1 6 1 -1 1 -1 1 2 -1 1 -1 3 0 3 0
1 1 0 1 -2 0 -2 2 -5 3 -7z M343 651 c-5 -4 -2 -14 4 -14 3 0 5 3 5 5 0 2 0 2 -1 1 -1 -6 -5 -6
-8 -2 -2 3 -3 6 0 9 2 3 6 3 8 -1 0 -2 1 -3 1 -2 0 5 -6 8 -9 4z M345 647 c0 -2 2 -4 3 -2 1 1 1 4 -1 4 -1 0 -1 -1 -2 -2z M333 633 c0 -1 5 -8 6 -8 0 0 0 1 -1 2 0 1 0 1 2 0 1 -1 1 -1 -1 1
-1 2 -3 3 -3 2 0 0 -1 1 -2 2 0 1 -1 2 -1 1z M288 656 c0 -1 2 -5 4 -10 2 -5 3 -8 3 -6 -1 4 -5 13 -7 16 0 1 -1 1
0 0z M255 647 c0 -15 5 -24 15 -27 3 -1 9 -2 14 -2 l8 -1 0 6 c-2 10 -5
18 -10 24 -6 6 -10 7 -20 7 l-7 0 0 -7z m6 2 c-1 -1 -3 -3 -3 -3 0 0 0 1 0 3
1 1 1 3 1 3 0 0 1 0 2 0 2 0 2 0 0 -3z m14 0 c6 -5 8 -14 2 -20 -6 -7 -15 -4
-18 6 -1 5 0 10 4 13 4 4 8 4 12 1z m7 -21 c-1 -2 -2 -3 -3 -3 -1 0 -1 0 -1
-1 1 -1 -1 -3 -4 -2 l-3 0 4 2 c5 2 7 6 8 12 l1 5 0 -5 c0 -2 -1 -5 -2 -8z m6
-1 c1 -7 1 -8 -2 -6 -1 0 -3 1 -4 0 l-3 0 2 4 c2 2 3 5 4 8 0 2 1 3 1 2 0 -2
1 -5 2 -8z M270 646 c5 -5 3 -13 -3 -13 -5 0 -6 4 -5 10 1 2 1 2 0 0 -3 -6 0
-11 6 -11 4 0 6 3 6 7 0 4 -1 6 -4 8 -2 1 -2 1 0 -1z M265 642 c-2 -1 0 -4 2 -4 1 0 2 1 2 2 0 3 -2 3 -4 2z M276 623 c-1 -1 -1 -1 0 -1 0 0 1 0 2 1 0 1 0 1 -1 1 0 0 -1 0 -1 -1z M285 627 c-1 -1 -1 -2 -1 -3 -1 -2 0 -1 0 0 1 2 2 4 2 4 0 1 -1 1 -1
-1z M314 642 c0 -4 1 -5 1 -3 0 2 0 4 0 6 0 2 -1 1 -1 -3z M296 642 c0 -2 1 -6 1 -7 1 -1 1 -4 1 -5 1 -1 1 0 0 3 0 3 -1 7 -1
10 l-2 4 1 -5z M310 644 c0 -2 1 -5 1 -6 1 -5 1 -1 0 5 -1 3 -1 3 -1 1z M357 642 c0 -2 0 -3 1 -2 0 1 0 3 0 3 -1 1 -1 0 -1 -1z M321 637 c0 -4 1 -6 1 -4 0 2 0 5 0 7 0 2 -1 0 -1 -3z M305 641 c0 -2 0 -4 1 -6 l1 -4 0 3 c0 2 -1 5 -1 6 -1 2 -1 2 -1 1z M251 639 c1 -6 5 -14 8 -17 l3 -3 -4 0 c-2 1 -4 1 -6 2 -3 1 -4 1 -1
0 3 -3 8 -4 10 -3 2 1 3 1 3 0 1 -1 2 -1 2 -1 1 0 0 1 -3 3 -5 4 -7 6 -10 14
-2 4 -3 6 -2 5z M248 635 c0 -2 5 -10 5 -9 0 1 -1 3 -2 5 -2 3 -3 4 -3 4z M355 633 c1 -1 1 -2 0 -2 -1 0 -2 -3 -3 -6 0 -2 3 0 6 4 l3 3 -3 -3
c-4 -3 -5 -2 -2 1 1 2 2 3 2 4 -1 0 -1 0 -1 -1 0 -1 0 -1 -1 0 -1 1 -1 1 -1 0z M247 629 c0 0 1 -2 3 -4 l4 -2 -3 3 c-3 3 -4 3 -4 3z M311 619 c1 -2 2 -3 3 -3 1 0 0 2 -2 4 l-2 3 1 -4z M315 622 c0 -1 0 -2 1 -3 1 -1 1 -1 1 0 0 0 0 1 -1 2 -1 1 -1 1 -1 1z M319 622 c0 -1 0 -2 1 -3 1 -2 1 -2 -1 -2 -1 0 -5 -3 -8 -6 -5 -4 -6
-6 -8 -11 -2 -7 -4 -12 -6 -15 -2 -2 -2 -2 0 4 2 4 3 8 3 8 0 1 -3 -4 -5 -11
l-3 -7 -2 5 c-1 3 -3 10 -4 15 -1 5 -2 9 -2 9 -2 0 -7 -6 -10 -13 -3 -6 -4 -8
-9 -12 -8 -6 -10 -9 -2 -4 3 2 6 4 7 4 0 1 1 0 2 -2 1 -2 4 -5 6 -6 3 -1 3 -1
7 1 5 2 6 1 6 -4 0 -3 1 -5 4 -8 4 -4 4 -4 10 -4 3 1 8 2 11 2 4 1 6 2 11 1
11 -2 18 3 18 12 0 3 0 4 2 5 3 0 5 5 5 10 0 6 -8 20 -11 20 -1 0 -1 -2 -1 -4
0 -6 -2 -13 -2 -11 -1 1 -2 5 -3 8 -1 7 -6 14 -9 14 -1 0 -2 0 -3 0 -1 0 -2 2
-3 3 0 1 -1 2 -1 2z m10 -11 c2 -3 3 -6 5 -13 1 -5 3 -12 5 -15 4 -8 4 -10 0
-14 l-3 -3 -10 1 c-9 0 -11 0 -16 -2 -8 -3 -9 -3 -12 1 -4 4 -4 8 1 19 3 4 5
11 6 14 3 7 12 15 18 15 1 0 4 -1 6 -3z m-43 -26 c2 -4 2 -4 -1 -6 -3 -2 -3
-2 -5 -1 -2 0 -2 1 -2 7 l0 7 -1 -6 c-1 -6 -1 -6 -2 -4 -1 3 -1 4 0 8 1 3 3 8
5 10 l2 4 2 -8 c0 -4 2 -9 2 -11z m61 13 c2 -5 3 -12 1 -14 -1 -2 -2 -1 -1 4
0 4 0 5 -1 4 -1 -8 -1 -10 -2 -10 0 0 -1 2 -1 5 1 3 1 4 0 2 0 -2 -1 -4 -1 -4
-1 -2 -2 6 -1 9 1 2 1 5 1 7 0 3 0 3 2 2 1 -1 2 -3 3 -5z M326 601 c1 -2 0 -7 -1 -11 -1 -10 -1 -10 2 -14 l4 -4 2 3 3 3 -2 6
c-2 3 -4 9 -5 13 -2 7 -4 10 -3 4z m8 -23 c0 -2 -3 -3 -5 -2 -3 3 -3 5 -2 11
l1 6 3 -7 c2 -3 3 -7 3 -8z M315 601 c0 -1 -2 -4 -3 -7 -1 -3 -4 -8 -6 -11 -2 -3 -4 -6 -4 -6 0
-1 1 -3 2 -4 3 -2 5 -2 9 2 2 3 2 4 2 13 0 8 0 11 1 13 1 1 2 2 1 2 0 0 -1 -1
-2 -2z m-1 -17 c0 -4 0 -6 -3 -8 l-3 -3 -2 2 c-2 2 -2 3 0 5 0 1 2 3 4 6 1 2
3 4 3 4 1 0 1 -3 1 -6z M281 586 c0 -2 1 -4 1 -5 l1 -2 0 2 c0 1 -1 3 -1 5 l-1 3 0 -3z M344 620 c-2 0 -3 -1 -2 -1 1 0 1 0 0 -1 -2 -1 5 0 8 2 4 2 4 2 0 0
-5 -1 -7 -1 -4 1 3 1 1 1 -2 -1z M307 619 c0 0 1 -1 2 -3 1 -1 1 -1 0 1 -2 3 -2 4 -2 2z M338 618 c1 0 1 0 2 0 0 1 -1 1 -2 1 -1 0 -1 0 0 -1z M262 616 c2 -1 12 -3 13 -2 1 0 -1 1 -4 1 -3 1 -7 1 -8 2 -2 0 -2 0
-1 -1z M304 616 c2 -4 3 -6 3 -4 0 0 -1 2 -2 3 -2 2 -2 2 -1 1z M262 613 c1 0 4 -1 6 -1 l4 0 -4 1 c-3 1 -5 1 -6 1 -2 0 -2 0 0 -1z M367 613 c1 -1 2 -2 3 -2 0 0 0 1 -1 2 -2 0 -3 1 -3 1 -1 0 -1 -1 1
-1z M232 611 c-3 -1 -6 -3 -6 -3 -1 -1 -1 -1 1 -1 1 1 4 2 7 3 6 2 7 3 5
3 -1 0 -4 -1 -7 -2z M300 612 c0 0 1 -1 2 -3 1 -1 1 -1 0 1 -2 3 -2 4 -2 2z M367 608 c0 -1 1 -2 3 -2 2 -1 3 -2 3 -2 0 1 -1 2 -3 3 -2 0 -3 1 -3
1z M231 605 c-3 -1 -4 -2 -4 -2 1 0 8 3 8 4 0 0 0 0 -4 -2z M367 597 c2 -2 4 -3 4 -3 1 0 0 1 -2 2 -5 4 -6 4 -2 1z M229 594 c-2 -2 -4 -4 -4 -5 1 0 1 0 1 0 0 0 2 2 4 5 5 5 5 5 -1 0z M236 593 c-2 -1 -5 -4 -6 -6 -2 -2 2 1 10 8 3 2 0 1 -4 -2z M361 595 c0 -1 7 -5 8 -5 0 1 -2 2 -4 3 -2 1 -4 2 -4 2z M247 590 c-3 -2 -5 -3 -5 -4 1 0 6 3 9 6 2 2 0 1 -4 -2z M235 588 c-2 -1 -3 -2 -3 -2 0 -1 2 0 4 1 1 1 3 2 3 3 0 0 0 0 -4 -2z M355 587 c3 -3 10 -9 10 -9 0 1 -3 3 -6 6 -4 3 -5 4 -4 3z M361 586 c2 -2 4 -4 4 -4 0 0 -1 2 -3 4 -2 1 -4 3 -4 3 0 0 1 -2 3
-3z M242 576 c-3 -2 -5 -6 -6 -7 -1 -1 -1 -2 0 -1 9 10 12 13 11 13 0 0
-3 -2 -5 -5z M244 570 l-3 -4 4 3 c2 2 3 4 3 5 0 0 -2 -2 -4 -4z M353 573 c0 0 1 -2 3 -3 l4 -2 -3 2 c-2 3 -4 4 -4 3z M251 565 c-2 -1 -3 -4 -4 -5 -1 -3 -1 -2 4 4 4 5 4 5 0 1z M346 563 c0 -1 2 -2 3 -3 1 -1 1 -1 -1 2 -2 3 -4 4 -2 1z M262 560 c-1 -2 -2 -4 -2 -5 1 0 2 2 3 4 3 5 2 6 -1 1z M265 555 c-3 -6 -3 -9 0 -3 2 4 3 6 3 7 -1 0 -2 -2 -3 -4z M280 553 c-1 -4 -1 -7 -1 -6 1 0 4 10 4 11 0 1 -1 -2 -3 -5z M336 558 c0 -1 7 -12 8 -12 0 0 -1 2 -3 5 -3 6 -5 9 -5 7z M318 551 c0 -4 1 -7 1 -8 1 -1 1 -1 0 2 0 2 -1 5 -1 8 -1 3 -1 2 0
-2z M292 549 c-1 -3 -2 -6 -2 -6 1 0 4 10 4 11 0 1 -1 -2 -2 -5z M324 553 c0 -3 3 -11 5 -12 1 0 1 0 0 1 0 1 -2 4 -3 7 -1 3 -2 5 -2
4z M297 549 c0 -3 -1 -5 -1 -6 0 -2 1 0 2 3 0 2 1 5 1 6 -1 0 -1 -1 -2
-3z M310 547 c0 -3 0 -4 1 -3 0 2 0 4 0 6 -1 1 -1 0 -1 -3z M232 367 c-2 -1 -7 -5 -9 -7 -5 -5 -4 -4 5 3 4 2 8 5 9 6 1 0 1 1 1
1 -1 0 -4 -1 -6 -3z M368 359 c9 -10 10 -10 7 -6 -3 5 -9 11 -11 12 -2 1 0 -2 4 -6z M229 356 c-8 -8 -16 -21 -19 -30 l0 -2 2 2 c1 1 2 2 2 3 -1 1 -1 1 0
1 0 0 3 2 6 6 3 3 4 4 2 3 -1 -1 -4 -4 -5 -5 l-3 -3 2 3 c2 5 6 11 13 20 3 4
6 7 6 7 0 0 -3 -2 -6 -5z M351 358 c5 -3 18 -17 22 -23 4 -6 5 -4 1 2 -4 6 -15 17 -21 21 -5 4
-7 4 -2 0z M282 351 c-1 -6 -1 -21 0 -25 1 -2 1 0 0 5 0 4 0 11 1 16 0 5 1 9 1
9 -1 0 -1 -2 -2 -5z M277 348 c0 -4 0 -8 0 -9 0 -1 1 2 1 6 1 5 1 8 1 9 -1 0 -1 -3 -2 -6z M204 349 c-2 -1 -6 -4 -8 -7 l-3 -3 4 3 c2 2 6 5 8 6 2 2 4 3 4 4 0
0 0 0 -5 -3z M244 346 c-6 -5 -10 -10 -12 -14 -1 -1 3 3 9 8 5 6 10 11 10 11 0 0
-1 0 -7 -5z M262 339 c-3 -6 -5 -11 -5 -12 1 0 11 21 11 22 0 1 -3 -4 -6 -10z M296 344 c1 -10 6 -24 7 -24 1 0 0 2 -1 4 0 2 -2 8 -4 13 -2 10 -4
13 -2 7z M245 340 c-5 -6 -13 -20 -12 -21 0 0 2 2 3 5 2 3 5 8 8 12 7 9 7 10
7 10 -1 0 -3 -3 -6 -6z M322 340 c3 -7 9 -16 12 -18 1 -1 -1 1 -3 5 -3 4 -6 9 -8 12 -4 7 -5
8 -1 1z M200 338 c-3 -2 -6 -5 -6 -6 -1 -1 2 1 5 4 4 4 7 7 7 7 0 1 -1 0 -6
-5z M400 337 c3 -3 9 -9 12 -13 5 -5 6 -6 4 -3 -2 4 -15 17 -19 19 -3 2
-2 1 3 -3z M363 331 c4 -5 9 -12 11 -15 5 -8 6 -10 4 -5 -2 6 -11 19 -17 25 -5
4 -5 4 2 -5z M306 331 c1 -5 7 -21 9 -22 1 -1 0 0 -1 3 0 2 -3 8 -5 14 -2 7 -3 8
-3 5z M335 330 c3 -5 10 -13 13 -16 1 -1 -1 2 -4 7 -8 10 -11 13 -9 9z M242 324 c-4 -4 -11 -14 -11 -15 0 -1 3 2 6 7 3 4 6 9 7 10 1 1 2 2
1 2 0 0 -2 -2 -3 -4z M407 321 c3 -4 6 -8 6 -7 0 0 -6 8 -9 12 -2 1 -1 0 3 -5z M175 289 c-12 -13 -24 -30 -35 -50 -7 -12 -8 -16 -5 -27 3 -11 6 -18
13 -26 3 -4 5 -7 5 -8 0 0 -1 0 -3 0 l-2 1 2 -2 c1 -1 2 -2 2 -4 0 -2 1 -4 3
-5 2 -2 4 -3 4 -2 0 0 -1 1 -2 2 -2 1 -3 3 -3 4 0 2 0 3 10 3 9 0 12 0 20 3
11 4 32 13 30 14 0 0 -6 -2 -13 -5 -21 -8 -26 -9 -36 -10 l-9 0 -6 7 c-6 8 -8
13 -11 22 -3 10 -3 17 -2 22 2 7 20 36 30 48 11 14 15 19 15 19 -1 0 -4 -3 -7
-6z M281 284 c0 -5 -2 -10 -4 -14 -3 -4 -2 -6 2 -11 8 -7 10 -7 4 0 l-6
6 2 4 c3 5 4 10 3 16 l-1 4 0 -5z M256 262 c4 -1 8 -2 8 -2 2 0 -7 4 -11 4 -2 1 0 0 3 -2z M386 194 c9 -8 34 -18 47 -19 l9 0 -10 2 c-14 4 -29 9 -40 14 -7 4
-9 4 -6 3z M217 137 c0 -1 7 -14 7 -13 0 2 -3 9 -5 12 -1 1 -2 2 -2 1z M202 122 c0 -12 2 -12 2 0 l0 7 3 -4 c4 -6 5 -7 5 -5 0 1 -8 13 -9
13 -1 0 -1 -5 -1 -11z M191 126 c0 -1 6 -11 7 -11 0 0 -1 3 -3 6 -4 6 -4 7 -4 5z M216 121 c0 -3 0 -4 1 -3 0 2 0 4 0 5 -1 1 -1 0 -1 -2z M480 118 c3 -4 9 -14 10 -14 0 0 -3 7 -5 10 -2 3 -6 6 -5 4z M473 113 c-1 0 -1 -3 -1 -5 l0 -5 -4 4 c-3 3 -3 3 -2 1 1 -2 3 -5 5
-6 l3 -3 0 6 0 6 3 -3 c4 -5 4 -4 0 2 -3 4 -3 4 -4 3z M102 696 c-21 -14 -32 -50 -29 -90 1 -8 2 -20 2 -28 1 -7 1 -14 1
-16 1 -1 0 0 -1 3 -3 7 -7 26 -7 34 -2 17 -3 17 -5 0 -3 -31 7 -72 27 -101 7
-11 29 -37 29 -35 0 1 -1 1 -1 2 -1 1 -4 5 -8 9 -23 26 -36 54 -42 84 -3 11
-4 31 -3 37 l0 5 2 -9 c2 -18 11 -43 20 -59 5 -10 8 -15 5 -7 -4 7 -8 18 -10
25 -3 9 -5 20 -4 22 0 0 -1 8 -1 17 -3 32 -3 42 1 61 3 15 11 33 20 41 2 1 3
2 2 1 -2 -3 -9 -18 -11 -26 -13 -39 -7 -101 13 -147 7 -14 3 -8 -6 10 -5 10
-9 18 -10 18 -1 0 11 -24 18 -37 6 -8 12 -16 12 -13 0 0 0 1 -1 1 -1 1 -14 29
-17 40 -5 12 -9 29 -12 44 -1 8 -1 16 -1 35 0 23 0 25 2 36 4 18 10 30 18 43
1 2 2 3 2 3 0 0 -3 -1 -5 -3z M536 541 c2 -13 2 -34 1 -43 -5 -28 -18 -52 -42 -77 -7 -6 -12 -12
-11 -12 2 0 17 11 25 19 11 10 19 20 25 31 11 22 15 43 11 63 -1 10 -3 15 -7
20 l-2 4 0 -5z m8 -20 c1 -9 1 -16 0 -27 -5 -26 -20 -51 -42 -70 l-5 -4 7 9
c19 20 30 42 35 67 1 6 1 12 1 24 -1 14 0 15 1 12 1 -2 2 -7 3 -11z M542 466 c-2 -6 -4 -11 -4 -11 1 0 2 3 4 6 l3 6 -1 -4 c-2 -19 -19
-42 -42 -60 -10 -8 -14 -10 -6 -4 7 6 19 19 24 26 5 6 14 22 14 24 0 0 -4 -5
-8 -12 -15 -22 -32 -39 -55 -54 -9 -6 -10 -7 -2 -4 17 9 34 21 46 33 18 17 28
33 31 49 4 17 2 19 -4 5z M459 439 c-7 -7 -23 -20 -34 -26 l-9 -5 5 -1 c5 0 15 3 22 7 10 5 19
18 22 27 0 4 -1 4 -6 -2z m1 -4 c-5 -10 -17 -20 -29 -24 -8 -3 -10 -3 -4 1 7
3 19 13 28 20 3 4 7 7 7 7 0 0 -1 -2 -2 -4z M93 440 c2 -4 8 -15 14 -23 12 -16 28 -27 48 -33 3 0 7 -1 9 -1 l3 1
-4 2 c-16 9 -30 21 -42 34 -4 6 -9 10 -9 10 0 -1 4 -10 7 -14 l3 -4 -3 2 c-4
3 -15 14 -21 22 -6 7 -5 7 -5 4z m31 -32 l5 -3 -4 7 -5 7 11 -12 c6 -6 15 -13
20 -16 4 -3 7 -5 6 -5 -1 0 -14 5 -18 7 -12 6 -25 17 -33 29 l-4 7 9 -9 c4 -5
11 -10 13 -12z M119 291 c-9 -10 -19 -27 -22 -40 -3 -9 -2 -9 1 -1 3 8 10 24 11 24
0 -1 -1 -3 -2 -6 -4 -7 -8 -22 -9 -31 -1 -5 -1 -10 -2 -12 l0 -3 -1 4 c-1 2
-1 1 0 -4 0 -4 1 -10 1 -12 l2 -5 0 8 c0 30 10 58 26 80 4 5 1 4 -5 -2z M90 264 c-3 -4 -6 -13 -9 -21 -1 -6 -1 -11 -1 -20 0 -14 1 -22 7 -35
4 -8 14 -24 17 -27 2 -1 2 -1 0 4 -10 24 -14 40 -16 58 0 9 1 25 4 35 2 8 1
11 -2 6z m-3 -17 c-3 -20 1 -47 9 -66 3 -9 3 -10 1 -7 -3 3 -12 23 -14 31 -2
9 -2 27 0 37 2 6 5 14 5 14 1 0 0 -4 -1 -9z M94 240 c0 -1 0 -2 1 -1 0 0 0 2 0 2 -1 1 -1 0 -1 -1z M93 234 c0 -2 0 -3 1 -2 0 1 0 3 0 4 -1 1 -1 0 -1 -2z" fill="black"/>
<path d="M0 400 l0 -400 300 0 300 0 0 400 0 400 -300 0 -300 0 0 -400z m214
363 c11 -7 12 -8 14 -11 2 -3 1 -7 -1 -12 -2 -3 -2 -5 -1 -7 2 -5 1 -9 -3 -12
l-3 -3 8 -4 c5 -2 11 -4 15 -5 3 -1 8 -2 10 -3 l5 -3 7 4 c11 5 21 7 35 7 12
0 16 0 27 -5 5 -2 7 -2 8 -1 3 2 8 4 16 6 5 1 10 4 13 6 4 2 7 4 8 4 0 0 2 -1
3 -3 1 -2 1 -4 1 -11 -1 -5 -1 -10 -2 -11 0 -2 0 -3 1 -3 3 0 2 -5 0 -9 -2 -2
-2 -4 -1 -5 1 -1 1 -2 -1 -4 -1 -2 -2 -3 -1 -4 1 -2 1 -3 -1 -4 -2 -2 -3 -3
-4 -3 -2 -1 -2 -2 0 -10 3 -12 6 -17 14 -23 3 -2 6 -5 6 -5 0 -1 -3 -4 -7 -6
-1 -1 -1 -1 5 -6 4 -3 7 -6 7 -7 0 0 -2 -2 -3 -3 -4 -2 -5 -2 -2 -4 0 -1 1 -3
1 -4 0 -2 0 -4 2 -5 2 -3 2 -3 1 -4 -1 -1 -1 -1 0 -3 3 -2 2 -4 -2 -5 -3 -1
-3 -2 -1 -4 1 -1 4 -3 6 -4 7 -3 17 -13 20 -19 l3 -4 6 -1 c10 0 18 -3 25 -9
1 -2 3 -3 4 -3 1 2 1 13 0 21 -3 14 -4 15 -13 17 -6 0 -9 2 -16 7 -2 3 -6 5
-8 7 -2 1 -4 3 -5 4 -3 4 -3 11 -1 14 2 2 2 2 1 7 -3 10 0 15 8 18 2 1 7 3 12
4 l8 3 7 -2 c5 -2 7 -3 14 -11 8 -8 24 -30 27 -37 1 -1 3 -6 4 -11 2 -10 5
-21 10 -32 11 -26 13 -40 11 -53 -1 -5 -3 -13 -4 -19 -2 -12 -4 -16 -10 -19
-6 -3 -15 -3 -32 1 -7 1 -19 4 -26 5 -22 4 -33 9 -47 18 l-7 5 -1 -4 c-2 -8
-6 -19 -10 -27 -2 -5 -4 -10 -5 -15 l-1 -8 4 -7 c2 -3 4 -8 5 -10 2 -5 2 -5 9
-8 7 -3 15 -9 21 -18 8 -10 17 -16 28 -18 6 0 8 -1 8 -3 1 -2 0 -4 -3 -5 l-2
-2 3 -1 c7 -5 13 -10 16 -15 5 -6 5 -9 2 -9 l-3 0 3 -5 c2 -2 3 -6 4 -9 1 -2
4 -6 12 -15 27 -29 47 -52 56 -64 8 -11 10 -18 10 -28 0 -7 0 -8 -3 -11 -4 -4
-6 -4 -13 6 -4 4 -11 13 -17 19 -8 9 -10 13 -10 15 0 3 -1 4 -4 5 -2 0 -5 2
-13 11 -6 7 -7 9 -7 11 1 3 -2 7 -6 7 -2 0 -4 1 -5 2 -4 3 -3 0 4 -12 11 -18
11 -19 23 -28 8 -6 10 -8 13 -13 3 -7 4 -18 1 -27 -1 -6 -1 -7 0 -9 2 -5 1
-12 -3 -21 l-4 -7 3 -5 c1 -3 5 -9 9 -13 8 -7 8 -9 2 -10 -2 -1 -4 -1 -4 -2 0
0 2 -3 4 -6 5 -7 5 -8 -1 -8 -2 0 -4 0 -4 0 0 0 1 -2 3 -5 3 -5 3 -6 -1 -6 -2
0 -2 0 -1 -3 3 -17 9 -24 18 -26 7 0 9 -2 7 -5 -1 -2 -1 -2 3 -3 3 -1 5 -1 6
-2 1 0 1 -4 0 -5 -2 -1 2 -4 9 -8 7 -5 8 -7 8 -15 0 -5 0 -6 -2 -8 -4 -4 -12
-6 -26 -7 -12 0 -19 1 -31 4 -4 1 -9 2 -12 3 -9 2 -10 3 -11 13 -1 5 -1 9 0
10 0 2 0 2 -2 2 -3 0 -3 2 -1 8 4 9 3 13 -8 25 -4 5 -4 5 -5 3 -1 -2 -1 -2 -3
-1 0 1 -2 3 -3 5 l-1 4 -3 -3 c-4 -6 -5 -5 -8 5 0 2 -1 6 -2 7 l-1 3 -4 -3
c-5 -4 -6 -3 -7 10 0 12 -1 17 -3 18 -1 1 -4 1 -7 2 -7 0 -11 3 -13 9 -1 2 -2
3 -4 3 -16 3 -18 3 -29 12 -5 4 -7 7 -8 17 -1 9 -3 14 -7 19 -1 1 -8 8 -15 14
-18 16 -20 18 -21 18 0 -1 3 -7 7 -15 4 -7 8 -18 11 -22 3 -9 3 -10 3 -17 -1
-8 -3 -13 -7 -16 -5 -4 -7 -2 -13 9 -2 5 -4 10 -4 11 1 2 -1 6 -3 7 -2 0 -7
10 -7 14 0 1 -1 2 -3 3 -3 2 -10 18 -10 20 1 3 0 5 -2 5 0 0 -2 2 -4 4 -1 1
-3 3 -3 3 -2 0 -15 -7 -19 -10 -3 -2 -7 -6 -11 -9 -3 -2 -7 -6 -8 -6 l-2 -2 4
-4 c4 -4 4 -5 4 -10 0 -4 -1 -6 -4 -10 -2 -3 -5 -8 -6 -11 -2 -4 -4 -7 -6 -7
-1 -1 -2 -2 -2 -2 0 -3 7 -12 12 -16 7 -6 6 -10 -2 -10 -2 0 -4 0 -4 -1 0 0 2
-3 3 -6 7 -10 7 -11 6 -13 -2 -1 -2 -1 -7 0 -3 1 -5 2 -5 1 0 0 1 -2 1 -5 1
-4 1 -4 -1 -7 -3 -2 -3 -3 -3 -8 1 -8 3 -12 9 -20 5 -5 6 -7 3 -9 -1 -1 -1 -1
0 -3 1 -1 2 -5 2 -7 0 -2 0 -8 0 -13 2 -15 -1 -17 -26 -18 -10 0 -23 -2 -29
-3 -9 -1 -15 -1 -26 -1 -16 1 -23 2 -26 6 -2 3 -2 15 1 18 2 3 16 9 19 9 2 0
3 1 4 2 1 1 2 2 3 3 2 1 3 2 3 3 0 2 1 3 7 3 4 1 6 1 9 4 1 1 4 3 6 4 4 2 4 4
-1 15 -4 6 -4 7 -6 6 -3 0 -3 0 -5 7 l-1 4 -3 -3 c-2 -2 -4 -3 -4 -3 -2 0 -3
4 -3 8 0 3 0 5 -1 7 l0 2 -4 -3 c-4 -3 -7 -2 -6 3 0 9 0 22 -1 24 -1 2 -2 3
-8 5 -5 1 -9 3 -11 4 -3 3 -5 8 -5 12 0 3 -1 4 -7 9 -6 5 -12 11 -13 15 -1 3
-4 24 -4 30 0 8 3 14 9 23 3 3 9 11 12 17 4 7 10 16 14 21 5 7 7 11 7 13 0 1
1 5 2 8 3 6 3 6 1 6 -1 1 -2 2 -2 3 0 3 5 13 10 19 3 4 5 6 4 6 -3 0 -7 4 -7
6 1 0 6 3 11 6 6 3 11 5 11 6 0 0 -1 2 -3 3 -6 3 -5 6 5 8 9 2 14 4 20 10 7 6
8 7 4 12 -2 4 -22 31 -46 62 -8 10 -9 13 -9 17 0 3 5 11 9 13 1 1 2 3 2 4 0 3
4 11 6 13 3 2 4 1 7 -6 l3 -6 5 1 c8 0 9 -1 5 -11 l-3 -8 13 -18 c8 -10 16
-21 19 -25 3 -4 8 -9 10 -12 5 -7 7 -8 9 -1 1 2 2 6 2 7 0 4 -3 14 -8 24 -4 9
-8 24 -10 33 0 4 -1 7 -4 12 -6 8 -8 14 -9 26 -2 16 -5 19 -25 27 -22 9 -29
14 -50 35 -10 10 -20 20 -23 22 -7 5 -11 11 -13 16 -1 3 -1 5 0 11 1 3 2 11 3
16 2 18 6 25 25 52 9 12 15 21 18 28 6 12 22 34 29 40 2 2 6 4 8 5 2 0 4 1 5
1 1 1 5 1 9 1 8 0 8 0 17 -5z m-109 -67 c-8 -13 -14 -25 -18 -43 -2 -11 -2
-13 -2 -36 0 -19 0 -27 1 -35 3 -15 7 -32 12 -44 3 -11 16 -39 17 -40 1 0 1
-1 1 -1 0 -3 -6 5 -12 13 -7 13 -19 37 -17 37 0 0 4 -7 8 -16 9 -17 11 -21 6
-7 -20 45 -25 104 -12 142 1 5 4 12 6 16 2 5 4 8 4 9 -1 0 -3 -2 -5 -6 -17
-21 -22 -50 -18 -96 1 -9 2 -17 2 -17 -1 -2 1 -13 4 -22 2 -7 6 -18 10 -25 3
-8 0 -3 -5 7 -9 16 -18 41 -20 59 l-2 9 0 -5 c-1 -6 0 -26 3 -37 6 -30 19 -58
42 -84 4 -4 7 -8 8 -9 0 -1 1 -1 1 -2 0 -2 -22 24 -29 35 -20 29 -30 70 -27
101 2 17 3 17 5 0 0 -7 4 -27 7 -33 1 -3 1 -3 0 7 0 5 -1 14 -1 20 -3 29 -2
43 2 62 5 17 15 34 26 41 2 2 5 3 5 3 0 0 -1 -1 -2 -3z m437 -162 c3 -6 5 -19
5 -26 0 -20 -9 -45 -23 -64 -8 -10 -22 -24 -32 -30 -4 -3 -8 -5 -8 -5 -1 0 4
6 11 12 24 25 37 49 42 77 1 9 1 30 -1 43 l0 5 2 -4 c2 -2 3 -5 4 -8z m6 -62
c0 -12 -7 -29 -17 -42 -7 -10 -23 -26 -32 -32 -11 -8 -33 -21 -36 -21 0 0 3 3
8 6 23 15 40 32 55 54 4 7 8 12 8 12 0 -2 -10 -18 -14 -25 -3 -3 -10 -11 -15
-16 -5 -5 -9 -9 -8 -9 1 0 14 11 21 19 15 16 24 31 26 45 l1 4 -3 -6 c-2 -3
-3 -6 -4 -6 0 0 2 5 4 11 4 10 6 12 6 6z m-83 -31 c-3 -9 -12 -22 -22 -27 -7
-4 -17 -7 -22 -7 l-5 1 9 5 c11 6 27 19 34 26 5 6 6 6 6 2z m-367 -5 c6 -7 20
-22 21 -22 1 0 -1 3 -3 8 -2 4 -4 7 -4 8 0 0 5 -4 9 -10 12 -13 26 -25 42 -34
l4 -2 -3 -1 c-2 0 -6 1 -9 1 -20 6 -36 17 -48 33 -6 8 -12 19 -14 23 0 3 -1 3
5 -4z m26 -143 c-16 -22 -26 -50 -26 -80 l0 -8 -2 5 c0 2 -1 8 -1 12 -1 5 -1
6 0 4 l1 -4 0 3 c1 2 1 8 2 14 1 5 3 14 5 19 2 5 3 9 3 10 -1 0 -4 -8 -8 -19
-4 -9 -4 -5 0 5 4 14 12 27 21 37 6 6 9 7 5 2z m-32 -35 c-7 -28 -4 -55 12
-93 2 -5 2 -5 0 -4 -3 3 -13 19 -17 27 -6 13 -7 21 -7 35 0 9 0 14 1 20 4 12
11 27 12 23 0 -1 -1 -5 -1 -8z m3 -19 c-1 -1 -1 0 -1 1 0 1 0 2 1 1 0 0 0 -2
0 -2z m-1 -7 c-1 -1 -1 0 -1 2 0 2 0 3 1 2 0 -1 0 -3 0 -4z" fill="white"/>
<path d="M190 761 c-1 -1 -4 -2 -5 -2 -3 0 -10 -7 -17 -17 -2 -4 -6 -9 -9 -12
-2 -4 -4 -7 -4 -8 0 -2 -12 -24 -15 -26 -3 -3 -15 -20 -20 -28 -5 -9 -9 -21
-9 -29 -1 -4 -1 -10 -3 -14 -1 -4 -1 -8 -1 -9 1 -4 5 -9 12 -13 3 -2 12 -10
19 -18 15 -15 24 -23 35 -29 8 -5 27 -12 28 -12 0 1 -1 3 -3 5 l-3 4 3 -2 c3
-2 9 -9 13 -15 l2 -2 0 4 c0 8 -5 20 -13 31 -4 7 -4 7 1 1 5 -6 13 -23 15 -30
1 -3 1 -8 1 -11 0 -9 2 -21 4 -27 5 -13 16 -21 30 -23 l7 -1 -8 0 c-5 0 -8 0
-12 2 -2 2 -5 3 -5 3 0 0 1 -1 2 -3 l2 -3 -2 1 c-2 1 -3 2 -3 1 0 -2 4 -13 6
-17 l2 -3 -2 2 c-2 2 -3 3 -3 2 0 -2 4 -12 7 -19 2 -4 5 -11 6 -16 1 -4 3 -9
4 -12 1 -5 1 -8 0 -4 -2 3 -2 3 -3 1 -1 -1 -2 -6 -3 -12 -1 -8 -1 -10 0 -11 2
-2 3 -2 3 0 0 2 4 1 10 -4 10 -7 12 -8 10 -4 -1 1 -1 2 0 3 0 1 4 -1 11 -7 l5
-4 2 2 c2 3 11 7 15 8 3 1 4 0 2 -3 -1 -1 -1 -2 -1 -3 1 0 13 4 17 6 2 1 3 2
4 2 0 0 0 -2 -2 -6 0 -1 2 0 5 2 6 5 12 8 15 8 l3 0 -2 -4 c-1 -2 -2 -4 -1 -4
0 0 3 2 6 5 5 4 5 4 6 2 0 -2 1 -2 1 -1 1 1 0 3 -33 36 -11 11 -20 22 -20 23
-2 3 2 11 6 14 2 2 4 4 4 6 2 5 5 11 6 12 0 0 2 -2 3 -5 3 -5 3 -5 5 -4 1 1 2
1 3 1 0 -1 -1 -1 -2 -2 -5 -2 -3 -3 4 -2 7 0 8 -1 4 -5 -1 -2 -2 -4 -2 -5 0
-1 -1 -3 -2 -4 l-2 -3 21 -21 c21 -21 23 -22 15 -8 -4 6 -4 7 -4 13 0 4 0 6
-1 5 -2 -1 -1 2 4 13 3 6 7 14 8 17 2 5 7 23 7 24 0 1 -2 2 -5 3 -4 1 -4 1 -7
0 -3 -2 -4 -2 -5 -9 -1 -5 -1 -8 -2 -8 0 0 0 3 1 8 0 4 0 7 0 7 -1 0 -3 -3 -5
-6 -5 -6 -12 -11 -13 -10 0 0 1 1 2 3 2 1 5 5 8 9 5 8 6 8 13 11 6 4 14 4 21
3 l6 -2 -8 0 c-9 0 -13 -1 -8 -2 2 -1 8 -4 13 -8 16 -12 28 -17 50 -22 8 -1
19 -3 26 -5 16 -4 24 -4 28 -1 3 2 5 7 6 20 0 7 1 9 1 7 1 -3 1 -3 1 -1 1 1 1
6 2 10 0 10 -1 16 -10 39 -7 19 -10 29 -12 40 -1 5 -2 9 -5 13 -6 10 -21 29
-22 29 -1 0 -2 0 -3 0 -2 0 -2 0 -1 1 2 2 2 2 -1 4 -2 3 -3 3 -6 3 -2 -1 -2
-1 -1 0 2 2 2 2 0 2 -4 1 -8 1 -8 0 0 -1 -2 -3 -4 -5 -11 -8 -11 -8 -10 -12 0
-2 1 -5 2 -6 1 -1 1 -1 1 1 -1 2 0 4 1 5 1 2 14 12 14 11 0 0 -3 -4 -7 -7 l-7
-7 2 -5 c4 -7 5 -8 7 -8 0 0 0 1 -1 4 -2 6 -1 7 5 12 3 3 6 5 6 5 1 1 1 1 1 0
0 0 -2 -3 -5 -6 -4 -3 -6 -6 -6 -6 0 -3 4 -11 6 -12 2 0 8 3 8 4 0 3 -2 3 -3
1 -1 -1 -1 -1 -1 1 -1 1 0 3 3 4 3 3 3 3 3 1 -1 -2 -1 -2 2 -2 3 0 3 0 1 -1
-2 0 -3 -1 -3 -3 0 -1 0 -2 -1 -3 -1 -2 2 -13 5 -15 3 -3 10 -4 14 -4 3 1 3 1
2 -1 -3 -1 -9 -1 -14 1 -2 0 -2 0 -1 -2 2 -4 5 -19 5 -28 0 -7 -1 -12 -4 -23
-4 -17 -4 -26 0 -35 l3 -6 -2 2 c-7 6 -10 22 -7 33 l2 6 -5 5 c-10 11 -17 13
-35 13 -9 -1 -11 -1 -8 0 8 2 7 2 3 8 -8 12 -18 19 -29 20 -7 0 -7 0 -2 -6 4
-5 2 -6 -6 -5 l-8 0 1 -3 c3 -6 3 -6 -2 -6 -2 1 -4 1 -5 2 -2 0 -2 0 -2 -3 1
-2 1 -6 2 -9 0 -6 0 -6 -2 -6 -1 0 -4 1 -8 3 -3 1 -5 2 -6 2 0 0 0 -3 -1 -7 0
-3 -1 -6 -1 -6 0 -1 -3 0 -5 2 l-4 3 -1 -6 c-1 -3 -2 -6 -2 -6 -1 -1 -4 1 -7
5 l-7 6 -3 -6 c-1 -4 -3 -7 -3 -7 -1 0 -6 8 -7 10 -1 1 -2 0 -4 -2 -2 -2 -4
-4 -3 -4 0 0 -1 -1 -2 -2 -2 -1 -2 -1 -4 1 0 1 -1 2 -1 3 0 1 0 1 -2 0 -1 -1
-2 -2 -2 -1 0 0 1 1 2 2 1 1 2 4 0 4 0 0 -2 -2 -4 -5 -4 -4 -6 -5 -6 0 0 2 0
3 -2 2 -2 0 -3 2 -3 6 0 1 0 3 -1 4 0 2 -1 2 -2 0 -2 -1 -2 -1 0 -4 1 -1 2 -4
3 -6 0 -2 0 -1 -3 3 -4 5 -4 5 -6 4 -1 -1 -1 -2 2 -5 l3 -4 -4 3 c-4 4 -4 4
-6 3 -2 -1 -3 -2 -4 -1 -1 0 -1 3 -1 7 0 7 -1 9 -7 6 -5 -2 -7 -1 -5 2 1 3 1
3 -2 2 -4 -1 -5 0 -3 7 0 2 1 5 1 5 -1 0 -3 -1 -5 -2 -6 -2 -7 -1 -5 6 1 2 2
4 2 5 0 0 -3 -1 -7 -1 -4 -1 -6 -1 -7 0 -1 0 0 3 3 6 2 4 3 6 3 7 -1 0 -3 0
-5 -1 -3 -1 -5 -1 -5 0 -1 1 2 7 6 14 l4 5 -6 1 c-5 1 -5 0 -4 -1 1 -4 -1 -2
-3 3 -10 19 -18 25 -35 26 -5 0 -10 1 -11 1 -2 1 -11 -1 -16 -4 -2 -1 -2 -1
-1 1 1 1 4 3 7 4 6 2 9 4 12 11 4 9 5 16 5 30 0 11 0 12 3 21 4 10 10 20 12
22 1 1 2 2 1 2 0 1 2 1 6 1 8 -1 19 2 24 6 2 2 3 3 2 3 -1 -1 -3 0 -5 1 -3 1
-3 1 -3 -1 0 -2 0 -2 -1 -1 -1 1 -1 3 0 4 0 1 0 2 -1 2 0 0 -4 0 -8 1 -7 0 -8
0 -8 -2 0 -1 -2 -4 -4 -7 -3 -4 -4 -5 -8 -6 -6 -1 -10 0 -12 3 -1 2 -1 2 1 0
6 -3 17 -1 19 5 3 5 3 7 0 11 -3 2 -4 5 -2 7 1 0 0 1 -1 2 -2 1 -2 1 1 1 3 0
3 0 2 2 -1 0 -1 1 -1 2 1 0 2 -1 3 -2 0 -2 2 -3 3 -3 0 0 1 0 1 -1 0 -1 0 -1
-1 -1 0 0 -1 -1 -1 -2 -1 -1 -1 -1 -1 0 0 2 -3 3 -4 0 0 -1 3 -6 6 -6 2 -1 6
2 8 7 l2 4 -3 5 c-5 7 -5 9 0 2 5 -7 5 -7 2 -14 l-3 -5 2 0 c4 0 11 8 11 13 0
1 -2 4 -3 6 -2 3 -4 5 -4 6 0 1 2 -1 5 -4 4 -7 5 -10 3 -14 -2 -2 -2 -2 1 -2
3 1 4 1 5 5 1 2 2 4 2 5 0 0 -3 4 -6 7 -5 6 -7 7 -9 7 -2 0 -5 0 -6 0 -2 1 -3
0 -5 0z m-17 -49 c0 -1 -2 -4 -4 -6 -3 -3 -4 -4 -3 -1 2 2 7 8 8 8 0 0 0 -1
-1 -1z m-54 -95 c1 -2 1 -3 0 -2 -1 0 -1 3 -1 5 -1 2 -1 4 0 3 0 -2 1 -4 1 -6z
m39 -14 c3 -8 6 -12 18 -22 6 -5 3 -4 -6 2 -7 6 -10 10 -14 20 -4 11 -4 11 -3
9 1 -1 3 -5 5 -9z m306 -36 c1 -2 2 -6 2 -8 1 -2 0 0 -1 4 -2 4 -4 8 -5 10 -1
2 -1 2 1 1 1 -1 2 -4 3 -7z m-74 -32 c-9 -4 -12 -6 -17 -11 -3 -2 -5 -4 -5 -3
0 1 8 8 11 11 2 2 12 5 15 5 1 0 -1 -1 -4 -2z m-94 -12 c-1 -1 -2 -1 -2 -1 -1
0 -1 0 0 1 1 1 2 1 3 1 0 0 0 0 -1 -1z m-23 -27 c0 -6 -1 -10 -1 -9 -1 5 -1
21 0 21 1 0 1 -5 1 -12z m168 6 c-1 -1 -4 -2 -6 -4 -6 -3 -16 -3 -22 -1 l-3 2
3 -1 c8 -1 16 -1 22 2 6 3 9 4 6 2z m-135 -34 l5 -1 -5 0 c-6 1 -18 5 -22 8
-2 1 1 1 7 -2 5 -2 12 -4 15 -5z m180 5 c-1 -3 -2 -4 -3 -5 -2 -1 -2 -1 -1 1
1 1 2 3 3 5 0 2 0 3 1 3 0 -1 0 -2 0 -4z m-214 -11 c0 -4 1 -9 2 -14 2 -4 2
-7 1 -6 -2 2 -5 13 -5 17 0 4 1 9 1 9 1 0 1 -3 1 -6z m86 3 c-2 -4 -4 -8 -7
-10 -5 -5 -6 -5 -2 0 3 2 6 7 7 9 2 4 3 5 2 1z m-110 -7 c-1 -1 -1 0 -1 3 0 2
0 3 1 2 0 -1 0 -3 0 -5z m104 -13 c0 -2 -2 -5 -2 -5 -1 -1 -1 -1 -1 0 1 1 2 4
3 7 1 3 2 5 2 4 0 0 -1 -3 -2 -6z m-98 -2 c2 -3 4 -5 3 -5 -1 0 -9 9 -9 11 0
2 0 2 6 -6z m14 -5 c-2 -1 -4 -2 -5 -2 -1 0 0 1 2 2 2 1 4 2 5 2 1 0 0 -1 -2
-2z m22 -1 c4 -1 9 -3 12 -4 l6 -2 -5 1 c-4 0 -21 7 -21 8 0 1 2 0 8 -3z m-9
-20 c2 -4 3 -7 3 -8 -1 0 -2 3 -4 6 -2 5 -2 8 -3 13 0 6 0 6 1 2 0 -3 2 -9 3
-13z m-22 1 c2 -4 3 -6 2 -5 -2 0 -6 10 -6 12 0 1 0 1 1 0 0 -1 2 -4 3 -7z
m64 0 c0 -1 0 -1 -1 1 0 1 -1 2 -1 3 0 1 0 1 1 0 0 -2 1 -3 1 -4z m-2 -10 c-2
-5 -2 -4 0 1 1 3 2 4 2 4 0 -1 -1 -4 -2 -5z m-43 0 c0 -1 -6 -2 -8 -1 -1 0 0
1 3 1 2 0 4 1 4 1 1 0 1 0 1 -1z m27 -5 l4 -1 -4 0 c-4 0 -9 2 -11 5 -1 1 0 1
3 -1 2 -1 6 -3 8 -3z m-51 -1 c-1 -1 -1 0 -1 1 0 1 0 2 1 1 0 0 0 -2 0 -2z
m33 -3 c1 -1 0 -3 -1 -5 -1 -1 -2 -5 -2 -7 -1 -4 -1 -4 0 2 0 3 0 7 0 8 0 1 0
3 -1 5 0 1 0 1 1 0 1 -1 3 -2 3 -3z m44 -3 c-1 -3 -3 -6 -3 -6 -1 -1 0 1 4 11
0 1 0 1 1 1 0 -1 -1 -3 -2 -6z" fill="white"/>
<path d="M214 753 c4 -5 4 -7 1 -14 -1 -3 2 -2 4 2 4 5 4 8 -2 12 -2 2 -5 3
-5 3 -1 0 0 -1 2 -3z" fill="white"/>
<path d="M207 734 c-1 -1 -1 -6 0 -7 1 0 3 -1 5 -2 3 -1 4 -1 6 1 4 2 2 9 -3
9 -2 0 -2 0 -1 -2 1 -2 1 -3 -1 -4 -2 -2 -4 -1 -5 2 0 1 0 3 0 3 0 1 -1 1 -1
0z" fill="white"/>
<path d="M209 732 c1 -3 2 -4 3 -2 2 1 0 4 -2 5 -1 0 -1 0 -1 -3z" fill="white"/>
<path d="M213 713 c-4 -2 -18 -6 -22 -6 -5 0 -6 -1 -11 -9 -6 -11 -7 -16 -8
-34 -1 -16 -1 -18 -3 -24 l-3 -6 4 0 c8 0 21 -5 27 -11 4 -4 4 -4 14 3 6 5 7
7 4 7 -1 0 -2 1 -3 1 -2 2 -2 2 2 5 7 6 15 20 11 20 -1 0 -3 1 -4 2 -2 2 -2 3
-1 4 2 1 2 2 -1 3 -3 2 -4 4 -1 6 1 2 1 2 -1 5 -2 5 -3 9 -2 11 1 1 1 3 0 8
-1 4 -1 9 0 12 0 6 0 6 -2 3z" fill="white"/>
<path d="M367 714 c-2 -3 -9 -6 -16 -7 -3 -1 -8 -3 -10 -4 l-4 -2 6 -6 c6 -7
7 -10 0 -4 -5 5 -15 10 -24 14 -4 1 -8 1 -19 1 -15 1 -16 0 -30 -5 -6 -3 -7
-4 -7 -5 1 -2 0 -2 -1 -2 -1 1 -2 0 -2 -1 0 -1 -1 -1 -3 1 -4 4 -7 6 -17 8 -4
1 -10 3 -13 5 -3 2 -5 3 -5 2 0 -1 6 -11 9 -15 2 -3 5 -7 8 -9 4 -5 4 -6 0 -5
-2 0 -2 0 1 -3 1 -2 3 -4 3 -4 2 -1 1 -2 -2 -2 -2 -1 -2 -1 -1 -2 1 -2 0 -3
-2 -3 -2 0 -2 0 0 -1 1 -1 2 -1 1 -2 0 0 -2 1 -4 1 l-2 2 2 1 c3 0 4 1 1 3 -1
1 -1 2 2 2 l2 1 -3 3 c-6 7 -6 7 -1 6 l4 0 -4 3 c-5 3 -7 6 -11 14 l-4 7 1 -5
c0 -5 2 -13 4 -16 0 -1 0 -2 -1 -2 -3 0 -2 -2 1 -6 3 -3 3 -3 2 -5 -2 -1 -2
-1 0 -2 3 -1 4 -2 2 -4 -1 -1 -1 -1 1 -1 1 0 1 0 0 -1 -1 -1 -1 -1 1 -1 1 -1
2 -2 2 -3 0 -3 -4 -12 -6 -15 -4 -6 -4 -6 -2 -5 3 0 3 0 2 -3 -3 -6 -5 -9 -10
-13 l-5 -5 5 0 c3 0 5 0 5 0 0 -2 -3 -7 -8 -12 l-4 -6 4 0 c5 0 7 -1 7 -2 0
-1 -1 -4 -3 -6 -2 -2 -4 -6 -5 -7 l-1 -3 4 1 c5 0 5 0 5 -2 0 -1 -1 -5 -3 -7
l-2 -5 6 1 c6 0 6 0 6 -2 0 -2 0 -4 -1 -5 -1 -3 -1 -3 4 -2 5 2 6 1 5 -4 -2
-6 -1 -7 2 -6 3 0 3 0 3 -3 l-1 -3 5 2 c3 1 5 2 6 2 1 0 1 -3 1 -8 l0 -8 5 3
c10 7 13 6 13 -1 0 -3 1 -4 2 -2 1 2 3 0 3 -3 l0 -3 4 3 c2 2 4 4 5 4 0 0 1
-2 2 -4 1 -3 1 -5 2 -5 0 0 1 1 3 3 6 7 7 7 10 1 l3 -5 2 4 c2 4 4 7 6 7 0 0
3 -2 6 -5 l5 -5 1 4 c1 6 3 7 7 4 l3 -2 0 3 c1 2 1 4 2 6 0 2 1 3 1 4 1 0 4
-1 7 -2 3 -2 6 -3 6 -3 0 0 0 4 0 9 l0 8 4 0 c4 -1 4 -1 3 2 0 2 0 3 2 4 2 0
5 1 8 1 l4 0 -2 4 c-5 6 -4 8 5 8 3 0 5 0 5 1 0 0 -2 2 -4 4 -2 2 -3 4 -3 5 1
1 3 1 6 1 l4 0 -4 3 c-3 3 -3 4 -2 4 2 0 2 0 -1 4 l-2 3 2 0 c3 0 4 1 2 3 -1
0 -2 2 -3 3 -2 3 -2 3 0 3 0 1 3 1 4 1 l3 0 -3 2 c-1 1 -3 3 -4 3 -1 2 -7 10
-7 11 0 0 2 1 4 1 l4 1 -4 3 c-6 5 -9 9 -12 24 -2 7 -4 16 -5 19 -2 4 -2 6 -1
5 1 -1 2 0 4 2 3 3 3 4 1 4 -2 0 -2 1 2 6 6 7 11 23 8 23 0 0 -1 -1 -2 -1z
m-20 -14 c-1 -1 -2 -2 -2 -2 -1 0 -1 1 0 2 2 0 3 1 3 1 1 0 1 -1 -1 -1z m4 -2
c0 -1 -2 -1 -3 -2 -2 -1 -2 -1 -1 0 2 2 5 3 4 2z m-94 -8 l3 -3 -4 2 c-3 3 -3
4 -3 4 0 0 2 -1 4 -3z m-1 -4 c2 -3 -1 -1 -3 2 l-2 4 2 -2 c1 -2 3 -3 3 -4z
m70 -10 c-1 -1 -1 -1 -1 0 0 1 0 2 1 2 0 -1 0 -1 0 -2z m-29 -10 c1 -3 3 -5 3
-6 0 0 -2 2 -4 5 -2 3 -4 6 -5 7 -1 2 -1 2 0 1 1 -1 4 -4 6 -7z m28 3 c-1 -2
-1 -4 -2 -4 0 1 0 3 1 5 0 2 0 4 1 4 0 -1 0 -3 0 -5z m-13 -4 c0 -2 0 -2 -1 1
0 1 -1 4 -1 5 0 2 0 2 1 0 0 -2 1 -5 1 -6z m-5 -4 c1 -6 3 -11 3 -12 0 -2 0
-2 -1 0 0 1 -6 19 -7 22 0 1 0 1 0 1 1 -1 3 -5 5 -11z m37 6 c0 0 -2 -2 -4 -5
-3 -2 -4 -3 -3 -1 1 2 7 7 7 6z m-10 -8 c-2 -3 -4 -7 -4 -7 0 -1 0 -1 -1 -1 0
1 3 8 7 12 4 5 3 4 -2 -4z m-16 -2 c-1 -1 -1 0 -1 3 0 3 0 4 1 3 0 -2 0 -4 0
-6z m-40 1 c3 -3 5 -5 5 -5 0 -1 -3 2 -6 5 -4 3 -6 5 -5 5 0 0 3 -2 6 -5z m-7
2 c3 -2 5 -3 5 -3 0 -1 -2 0 -5 1 -3 2 -6 3 -7 3 -1 1 -1 1 0 1 1 0 4 -1 7 -2z
m15 -7 c4 -6 5 -9 1 -3 -2 3 -4 7 -6 9 l-2 4 2 -3 c2 -1 4 -4 5 -7z m43 2 c-1
-3 -3 -8 -4 -11 l-1 -6 0 5 c1 5 6 20 7 19 0 -1 -1 -3 -2 -7z m25 2 c0 -3 1
-8 1 -12 0 -6 0 -8 -2 -12 -3 -6 -9 -11 -16 -12 -2 0 -5 -1 -6 -1 -2 -1 -3 1
-3 9 0 8 3 18 7 23 2 3 13 9 16 9 1 0 2 -2 3 -4z m-62 -9 c1 -3 2 -7 3 -8 0
-2 -1 1 -3 6 -2 5 -4 9 -4 10 -1 1 0 1 0 0 1 -2 3 -5 4 -8z m-19 5 c2 -1 5 -3
9 -6 5 -6 8 -14 10 -24 l0 -6 -8 1 c-5 0 -11 1 -14 2 -10 3 -15 12 -15 27 l0
7 7 0 c3 0 8 -1 11 -1z m42 -14 c0 -2 -1 -1 -1 3 0 4 1 5 1 3 0 -2 0 -4 0 -6z
m-17 -6 c1 -3 1 -4 0 -3 0 1 0 4 -1 5 0 1 -1 5 -1 7 l-1 5 2 -4 c0 -3 1 -7 1
-10z m14 4 c0 -4 -2 3 -2 7 0 2 0 2 1 -1 1 -3 1 -5 1 -6z m46 3 c-1 -1 -1 0
-1 2 0 1 0 2 1 1 0 0 0 -2 0 -3z m-36 -7 c0 -2 -1 0 -1 4 0 3 1 5 1 3 0 -2 0
-5 0 -7z m-15 1 l0 -3 -1 4 c-1 2 -1 4 -1 6 0 1 0 1 1 -1 0 -1 1 -4 1 -6z
m-49 -9 c1 -1 3 -4 5 -5 3 -2 4 -3 3 -3 0 0 -1 0 -2 1 0 1 -1 1 -3 0 -2 -1 -7
0 -10 3 -3 1 -2 1 1 0 2 -1 4 -1 6 -2 l4 0 -3 3 c-3 3 -7 11 -8 17 -1 1 0 -1
2 -5 2 -4 4 -8 5 -9z m-5 1 c0 -1 -5 7 -5 9 0 0 1 -1 3 -4 1 -2 2 -4 2 -5z
m104 7 c0 1 0 1 1 1 0 -1 -1 -2 -2 -4 -3 -3 -2 -4 2 -1 l3 3 -3 -3 c-3 -4 -6
-6 -6 -4 1 3 2 6 3 6 1 0 1 1 0 2 0 1 0 1 1 0 1 -1 1 -1 1 0z m-106 -7 l3 -3
-4 2 c-3 3 -3 4 -3 4 0 0 2 -1 4 -3z m63 -9 c0 -2 -1 -1 -3 2 l-1 4 2 -3 c1
-1 2 -3 2 -3z m3 2 c0 -1 0 -1 -1 0 -1 1 -1 2 -1 3 0 0 0 0 1 -1 1 -1 1 -2 1
-2z m6 -2 c1 0 2 0 3 0 3 0 8 -7 9 -14 1 -3 2 -7 3 -8 0 -2 2 5 2 11 0 2 0 4
1 4 3 0 11 -14 11 -20 0 -5 -2 -10 -5 -10 -2 -1 -2 -2 -2 -5 0 -9 -7 -14 -18
-12 -5 1 -7 0 -11 -1 -3 0 -8 -1 -11 -2 -6 0 -6 0 -10 4 -3 3 -4 5 -4 8 0 5
-1 6 -6 4 -4 -2 -4 -2 -7 -1 -2 1 -5 4 -6 6 -1 2 -2 3 -2 2 -1 0 -4 -2 -7 -4
-8 -5 -6 -2 2 4 5 4 6 6 9 12 3 7 8 13 10 13 0 0 1 -4 2 -9 1 -5 3 -12 4 -15
l2 -5 3 7 c2 7 5 12 5 11 0 -1 -1 -3 -2 -6 -1 -3 -2 -6 -2 -6 1 -2 6 9 7 15 2
5 3 7 8 11 3 3 7 6 8 6 2 0 2 0 1 2 -1 1 -1 2 -1 3 0 0 1 -1 1 -2 1 -1 2 -3 3
-3z m23 4 c-3 -2 -1 -2 4 -1 4 2 4 2 0 0 -3 -2 -10 -3 -8 -2 1 1 1 1 0 1 -1 0
0 1 2 1 3 2 5 2 2 1z m-37 -4 c1 -2 1 -2 0 -1 -1 2 -2 3 -2 3 0 2 0 1 2 -2z
m31 1 c-1 0 -1 0 -2 0 -1 1 -1 1 0 1 1 0 2 0 2 -1z m-69 -3 c3 0 5 -1 4 -1 -1
-1 -11 1 -13 2 -1 1 -1 1 1 1 1 -1 5 -1 8 -2z m36 -3 c0 -2 -1 0 -3 4 -1 1 -1
1 1 -1 1 -1 2 -3 2 -3z m-39 1 l4 -1 -4 0 c-2 0 -5 1 -6 1 -2 1 -2 1 0 1 1 0
3 0 6 -1z m101 0 c1 -1 1 -2 1 -2 -1 0 -2 1 -3 2 -2 0 -2 1 -1 1 0 0 1 -1 3
-1z m-129 0 c0 -1 -3 -2 -6 -3 -3 -1 -6 -2 -7 -3 -2 0 -2 0 -1 1 1 2 14 6 14
5z m62 -3 c1 -2 1 -2 0 -1 -1 2 -2 3 -2 3 0 2 0 1 2 -2z m71 -6 c0 0 -1 1 -3
2 -2 0 -3 1 -3 2 0 0 1 -1 3 -1 2 -1 3 -2 3 -3z m-138 3 c0 -1 -7 -4 -8 -4 0
0 7 4 8 4 0 0 0 0 0 0z m134 -11 c2 -1 3 -2 2 -2 0 0 -2 1 -4 3 -4 3 -3 3 2
-1z m-139 -2 c-2 -3 -4 -5 -4 -5 0 0 0 0 -1 0 0 1 8 9 9 9 0 0 -1 -2 -4 -4z
m10 1 c-8 -7 -12 -10 -10 -8 2 3 10 9 11 9 0 0 0 0 -1 -1z m129 -5 c-1 0 -8 4
-8 5 0 0 2 -1 4 -2 2 -1 4 -2 4 -3z m-118 2 c-3 -3 -8 -6 -9 -6 0 1 2 2 5 4 4
3 6 4 4 2z m-12 -2 c0 -1 -2 -2 -3 -3 -2 -1 -4 -2 -4 -1 0 0 6 4 7 4 0 0 0 0
0 0z m126 -12 c0 0 -7 6 -10 9 -1 1 0 0 4 -3 3 -3 6 -5 6 -6z m-3 8 c2 -2 3
-4 3 -4 0 0 -2 2 -4 4 -2 1 -3 3 -3 3 0 0 2 -2 4 -3z m-120 -11 c-3 -4 -6 -7
-6 -7 -1 -1 -1 0 0 1 2 3 10 12 11 12 1 0 -1 -3 -5 -6z m3 -6 l-4 -3 3 4 c2 2
4 4 4 4 0 -1 -1 -3 -3 -5z m112 1 l3 -2 -4 2 c-3 2 -4 3 -2 3 0 0 2 -1 3 -3z
m-106 -6 c-5 -6 -5 -7 -4 -4 1 2 6 8 7 8 0 0 -1 -2 -3 -4z m97 -2 c2 -3 2 -3
1 -2 -2 1 -4 5 -4 5 1 0 2 -1 3 -3z m-85 -3 c-1 -2 -2 -4 -3 -4 0 1 1 3 2 5 3
5 4 4 1 -1z m2 -7 c-2 -3 -3 -4 -2 -3 1 4 4 10 5 10 0 -1 -1 -3 -3 -7z m17 0
c-1 -3 -3 -5 -3 -5 0 -1 0 2 1 6 2 3 3 6 3 5 0 -1 -1 -3 -1 -6z m59 -1 c2 -3
3 -5 3 -5 -1 0 -8 11 -8 12 0 2 2 -1 5 -7z m-22 -6 c1 -3 1 -3 0 -2 0 1 -1 4
-1 8 -1 4 -1 5 0 2 0 -3 1 -6 1 -8z m-27 3 c-2 -7 -2 -6 0 1 1 3 2 6 2 5 0 -1
-1 -3 -2 -6z m37 -6 c1 -1 1 -1 0 -1 -2 1 -5 9 -5 12 0 1 1 -1 2 -4 1 -3 3 -6
3 -7z m-31 4 c-1 -3 -2 -5 -2 -3 0 2 2 10 3 9 0 -1 -1 -4 -1 -6z m13 -2 c-1
-1 -1 0 -1 3 0 3 0 4 1 3 0 -2 0 -4 0 -6z" fill="white"/>
<path d="M363 691 c-2 -2 -2 -3 -1 -3 3 0 2 -1 0 -5 -2 -2 -3 -4 -3 -7 0 -4 1
-5 3 -4 2 0 2 1 1 2 -1 2 -1 2 0 4 1 1 2 2 1 3 0 1 1 3 2 5 3 3 3 3 1 3 -1 1
-2 1 -1 3 0 3 0 2 -3 -1z" fill="white"/>
<path d="M341 654 c-7 -4 -6 -20 2 -23 2 -1 2 -1 5 1 4 3 5 6 5 13 -1 7 -3 10
-7 10 -2 0 -4 -1 -5 -1z m9 -3 c1 -1 2 -3 2 -4 0 -1 -1 0 -1 2 -2 4 -6 4 -8 1
-3 -3 -2 -6 0 -9 3 -4 7 -4 8 2 1 1 1 1 1 -1 0 -2 -2 -5 -5 -5 -6 0 -9 10 -4
14 2 3 6 2 7 0z m-1 -4 c0 -2 -2 -4 -3 -2 -1 1 -1 4 1 4 1 0 1 -1 2 -2z" fill="white"/>
<path d="M263 648 c-4 -3 -5 -8 -4 -13 3 -10 12 -13 18 -6 6 6 4 15 -2 20 -4
3 -8 3 -12 -1z m10 -3 c2 -3 1 -9 -1 -11 -1 -1 -3 -2 -4 -2 -6 0 -9 5 -6 11 1
2 1 2 0 0 -1 -6 0 -10 5 -10 6 0 8 8 3 13 -2 2 -2 2 0 1 1 0 2 -2 3 -2z m-4
-5 c0 -1 -1 -2 -2 -2 -2 0 -4 3 -2 4 2 1 4 1 4 -2z" fill="white"/>
<path d="M333 641 c-1 0 -1 -2 0 -3 0 -3 0 -3 -1 -2 0 1 -1 0 -1 -4 0 -3 1 -6
2 -7 2 -3 2 0 0 3 -1 2 -1 2 1 -1 4 -4 6 -4 2 1 -2 2 -3 5 -3 5 0 1 1 0 1 -1
1 -1 2 -2 2 -1 1 0 0 1 0 2 -1 2 -2 4 -2 6 0 2 -1 3 -1 2z" fill="white"/>
<path d="M283 635 c-1 -2 -2 -5 -3 -7 -1 -2 -2 -3 -1 -3 2 -2 4 4 5 10 0 6 -1
7 -1 0z" fill="white"/>
<path d="M285 633 c-1 -3 -2 -6 -4 -8 -2 -3 -2 -4 0 -4 0 0 2 2 3 4 2 4 2 3 1
-1 -1 -1 0 -2 1 -3 1 -1 2 -1 3 -1 0 1 -1 3 -1 7 -1 3 -2 6 -2 8 0 1 -1 0 -1
-2z" fill="white"/>
<path d="M424 627 c-7 -2 -8 -3 -8 -6 0 -2 0 -5 1 -6 1 -2 1 -2 1 1 0 3 2 6
10 10 8 5 6 5 -4 1z" fill="white"/>
<path d="M318 612 c-6 -2 -11 -8 -13 -13 -1 -3 -3 -10 -6 -14 -5 -11 -5 -15
-1 -19 3 -4 4 -4 12 -1 5 2 7 2 16 2 l10 -1 3 3 c4 4 4 6 0 14 -2 3 -4 10 -5
15 -2 7 -3 10 -5 13 -4 3 -7 4 -11 1z m11 -15 c1 -4 3 -10 5 -13 l2 -6 -3 -3
-2 -3 -4 4 c-3 4 -3 4 -2 14 1 4 2 9 1 11 -1 6 1 3 3 -4z m-13 4 c-1 -2 -1 -5
-1 -13 0 -9 0 -10 -2 -13 -4 -4 -6 -4 -9 -2 -1 1 -2 3 -2 4 0 0 2 3 4 6 2 3 5
8 6 11 3 7 4 9 5 9 1 0 0 -1 -1 -2z" fill="white"/>
<path d="M204 605 c0 -1 1 -2 1 -2 1 0 3 1 4 2 1 2 1 2 -2 2 -2 0 -3 0 -3 -2z" fill="white"/>
<path d="M416 605 c-3 -2 -2 -6 1 -8 4 -3 11 0 9 4 -1 3 -2 2 -3 -1 -1 -3 -3
-4 -5 -1 -2 1 0 6 2 6 1 0 1 0 0 1 -2 1 -2 1 -4 -1z" fill="white"/>
<path d="M280 600 c-2 -2 -4 -7 -5 -10 -1 -4 -1 -5 0 -8 1 -2 1 -2 2 4 l1 6 0
-7 c0 -6 0 -7 2 -7 2 -1 2 -1 5 1 3 2 3 2 1 6 0 2 -2 7 -2 11 l-2 8 -2 -4z m3
-19 l0 -2 -1 2 c0 1 -1 3 -1 5 l0 3 1 -3 c0 -2 1 -4 1 -5z" fill="white"/>
<path d="M342 601 c0 -2 0 -5 -1 -7 -1 -3 0 -11 1 -9 0 0 1 2 1 4 1 2 1 1 0
-2 0 -3 1 -5 1 -5 1 0 1 2 2 10 1 1 1 0 1 -4 -1 -5 0 -6 1 -4 3 3 0 15 -4 19
-2 1 -2 1 -2 -2z" fill="white"/>
<path d="M420 603 c-1 0 -1 -1 -1 -2 0 -3 3 -2 3 1 1 2 -1 3 -2 1z" fill="white"/>
<path d="M427 596 c0 -1 -2 -2 -3 -2 -1 0 1 -2 4 -4 6 -6 7 -7 13 -7 2 -1 6
-1 7 -2 3 0 3 0 2 3 -1 1 -2 4 -2 7 -1 3 -1 4 -3 3 -2 -1 -7 -1 -7 0 -1 0 -2
1 -4 1 -1 1 -3 1 -4 -1 0 -1 -1 -1 -1 0 0 0 0 1 1 2 1 0 0 2 -1 2 0 0 -1 -1
-2 -2z" fill="white"/>
<path d="M327 587 c-1 -6 -1 -8 2 -11 2 -1 5 0 5 2 0 1 -1 5 -3 8 l-3 7 -1 -6z" fill="white"/>
<path d="M310 586 c-2 -3 -4 -5 -4 -6 -2 -2 -2 -3 0 -5 l2 -2 3 3 c3 2 3 4 3
8 0 3 0 6 -1 6 0 0 -2 -2 -3 -4z" fill="white"/>
<path d="M540 520 c0 -17 -1 -26 -6 -40 -5 -17 -15 -35 -27 -48 -8 -10 -5 -8
5 1 20 22 33 51 33 75 0 7 -2 19 -4 24 -1 3 -2 2 -1 -12z" fill="white"/>
<path d="M172 488 c-1 -3 -1 -7 0 -8 2 -1 2 -1 1 3 l0 4 1 -4 c1 -6 3 -7 3 -3
0 4 -2 11 -3 11 -1 0 -1 -1 -2 -3z" fill="white"/>
<path d="M183 480 c-3 -1 -5 -3 -5 -4 0 -1 1 0 2 0 4 3 5 2 2 0 -4 -3 -4 -4 0
-3 2 0 4 3 5 7 1 2 1 2 -4 0z" fill="white"/>
<path d="M165 473 c-3 -3 -4 -5 -2 -5 1 0 4 5 6 8 2 2 -1 1 -4 -3z" fill="white"/>
<path d="M168 472 c-2 -3 -4 -5 -5 -5 0 0 -1 0 -1 -1 0 -1 3 -4 4 -4 1 0 9 10
9 11 0 0 -1 1 -2 2 -2 2 -2 2 -5 -3z" fill="white"/>
<path d="M317 470 c-2 -4 -2 -8 0 -9 1 -1 1 -1 1 2 0 3 0 3 1 -1 1 -2 2 -4 2
-3 2 0 1 5 -1 10 l-2 4 -1 -3z" fill="white"/>
<path d="M175 467 c-1 -1 -1 -2 0 -4 2 -2 3 -1 3 2 0 1 0 2 -1 2 0 -1 -1 0 -1
1 -1 1 -1 1 -1 -1z" fill="white"/>
<path d="M181 461 c-1 -3 -2 -7 -4 -9 -2 -3 -2 -3 0 -6 2 -3 4 -3 6 3 3 8 3
10 1 14 l-3 3 0 -5z" fill="white"/>
<path d="M170 462 c-5 -4 -3 -6 2 -2 2 1 2 2 1 3 0 2 -1 2 -3 -1z" fill="white"/>
<path d="M328 463 c-2 -1 -5 -4 -5 -5 0 -1 1 0 3 1 l3 1 -3 -3 c-2 -1 -3 -3
-3 -3 0 -1 5 1 6 2 1 2 3 8 3 9 0 0 -2 -1 -4 -2z" fill="white"/>
<path d="M172 458 c-2 -3 -3 -3 0 -5 2 -3 3 -3 5 1 2 4 3 7 1 6 0 -1 -1 -1 -1
0 -1 1 -2 1 -5 -2z" fill="white"/>
<path d="M308 456 c-1 -1 -2 -3 -2 -3 0 0 0 -2 -1 -3 0 -1 0 -1 2 -1 2 1 2 1
1 0 -2 -2 -2 -2 0 -3 2 -2 3 -2 7 3 l3 5 -2 3 -2 2 -2 -3 c-1 -2 -2 -3 -2 -2
0 1 0 2 1 3 1 0 1 1 1 1 0 2 -2 1 -4 -2z" fill="white"/>
<path d="M186 454 c-1 -3 -1 -5 -2 -6 0 -1 1 0 3 1 2 2 3 3 3 2 0 0 -2 -3 -5
-5 -4 -4 -5 -5 0 -9 2 -2 2 -2 4 0 1 2 3 5 3 7 2 5 2 5 -1 9 l-4 5 -1 -4z" fill="white"/>
<path d="M319 450 c-1 -2 -1 -2 0 -4 1 -1 2 -1 3 -1 1 1 1 3 0 3 -1 -1 -2 0
-1 2 0 4 -1 4 -2 0z" fill="white"/>
<path d="M324 443 c0 -3 -1 -6 -1 -8 -2 -3 -2 -3 1 -6 l3 -2 1 2 c0 1 1 5 1 8
1 5 1 6 -1 8 -1 2 -2 3 -3 3 0 0 -1 -2 -1 -5z" fill="white"/>
<path d="M195 446 c-1 0 -1 -1 -1 -2 0 -1 -1 -3 -2 -4 -1 -2 -2 -3 -2 -3 2 0
9 4 9 5 0 1 -4 5 -4 4z" fill="white"/>
<path d="M314 444 c-1 -1 -2 -3 -1 -3 0 -1 1 0 3 1 1 1 1 2 0 3 0 1 -1 0 -2
-1z" fill="white"/>
<path d="M316 440 c-2 -2 -2 -2 0 -3 3 -3 4 -3 5 0 1 2 2 3 2 4 0 2 -4 2 -7
-1z" fill="white"/>
<path d="M197 439 c-1 -2 -4 -4 -6 -4 -2 -1 -3 -2 -3 -2 0 -1 2 -3 4 -6 4 -5
4 -5 6 -3 1 1 3 3 4 5 1 2 2 3 3 3 0 -1 -2 -6 -6 -9 l-2 -3 3 -3 c1 -2 2 -3 3
-3 0 0 2 3 4 6 l4 6 -5 6 -4 6 -1 -3 c-1 -4 -4 -10 -4 -10 -1 0 0 3 1 6 1 3 2
6 2 8 l0 2 -3 -2z" fill="white"/>
<path d="M331 438 c0 -1 0 -4 -1 -5 0 -2 0 -2 2 1 2 1 3 2 3 1 0 -1 -2 -3 -4
-5 l-4 -4 4 -4 c1 -2 3 -3 4 -3 1 1 4 10 4 13 0 2 -6 9 -7 9 -1 0 -1 -1 -1 -3z" fill="white"/>
<path d="M454 432 c-8 -7 -21 -17 -27 -20 -6 -4 -4 -4 4 -1 8 3 15 7 22 14 4
5 9 12 8 12 0 1 -3 -2 -7 -5z" fill="white"/>
<path d="M340 430 c0 -2 0 -4 -1 -5 0 -1 0 -1 2 1 1 1 2 2 2 1 0 0 -2 -3 -4
-5 l-4 -5 4 -4 c2 -2 4 -3 5 -3 0 1 0 5 1 9 0 8 0 9 -2 11 l-3 2 0 -2z" fill="white"/>
<path d="M104 425 c0 0 3 -4 6 -8 6 -8 16 -17 24 -22 6 -3 21 -9 23 -9 1 0 -2
2 -6 5 -5 3 -13 10 -19 15 -5 6 -10 10 -10 10 0 -1 2 -3 4 -6 l4 -5 -5 3 c-3
2 -9 7 -13 11 -5 4 -8 7 -8 6z" fill="white"/>
<path d="M346 419 c0 -6 1 -7 4 -2 l2 4 -3 2 -2 3 -1 -7z" fill="white"/>
<path d="M209 421 c-1 -2 -2 -5 -3 -6 -2 -3 -2 -3 -1 -5 2 -1 2 -1 3 1 2 4 5
13 4 14 -1 0 -2 -2 -3 -4z" fill="white"/>
<path d="M212 418 c-1 -3 -1 -5 -2 -6 0 -1 1 0 3 1 4 3 5 5 2 7 -2 2 -2 2 -3
-2z" fill="white"/>
<path d="M351 417 c-1 -2 -2 -4 -4 -5 -3 -3 -3 -4 1 -7 l2 -2 5 5 c3 2 5 5 5
5 0 0 -2 2 -4 4 l-4 3 -1 -3z" fill="white"/>
<path d="M217 415 c-1 -1 -3 -3 -5 -5 l-5 -3 2 -3 c1 -1 2 -3 3 -3 0 -1 8 5 9
8 2 2 2 2 0 4 -2 3 -4 4 -4 2z" fill="white"/>
<path d="M355 406 l-4 -5 3 -3 4 -3 1 7 c1 5 1 8 1 8 0 0 -2 -1 -5 -4z" fill="white"/>
<path d="M361 406 c-1 -3 -1 -6 -2 -7 -1 -4 2 -1 5 4 l2 4 -2 2 -3 2 0 -5z" fill="white"/>
<path d="M223 403 c-1 -3 -2 -6 -2 -6 1 0 2 2 3 4 3 4 3 4 2 6 -2 2 -2 2 -3
-4z" fill="white"/>
<path d="M217 403 c-4 -4 -4 -4 -2 -7 1 -1 2 -2 2 -2 1 1 5 11 5 12 0 1 -2 -1
-5 -3z" fill="white"/>
<path d="M365 404 c0 -1 -2 -4 -3 -6 l-3 -4 2 -3 c1 -1 3 -2 3 -2 2 0 5 15 3
16 0 1 -1 0 -2 -1z" fill="white"/>
<path d="M226 401 c-1 -1 -3 -4 -5 -6 -2 -3 -3 -4 -2 -5 1 -2 1 -2 4 0 2 1 4
4 5 7 2 4 2 4 1 6 -2 1 -2 1 -3 -2z" fill="white"/>
<path d="M369 401 c0 -1 0 -3 -1 -5 0 -3 0 -3 2 -1 3 4 3 5 1 7 -2 1 -2 1 -2
-1z" fill="white"/>
<path d="M385 394 c3 -2 5 -5 5 -6 0 0 14 -15 32 -32 18 -18 32 -32 32 -32 0
2 -4 7 -10 14 -7 6 -7 8 0 6 2 0 4 -1 4 -1 1 1 -10 8 -18 12 -4 2 -8 5 -8 6 0
0 2 1 3 2 4 0 4 2 1 2 -4 0 -14 6 -19 12 -14 15 -19 20 -24 21 -2 1 -2 0 2 -4z" fill="white"/>
<path d="M235 394 c-1 -4 -2 -5 -7 -8 -3 -1 -7 -5 -12 -10 -7 -8 -13 -12 -19
-14 l-4 -1 4 -1 4 -2 -5 -3 c-2 -2 -8 -6 -12 -8 l-6 -4 4 0 c2 0 5 0 6 1 5 3
1 -2 -6 -7 -7 -5 -17 -16 -16 -17 1 0 3 1 6 1 3 1 5 1 6 1 0 -1 -1 -3 -4 -5
-4 -5 -9 -11 -9 -12 0 0 2 0 5 2 4 1 16 6 18 6 1 0 0 -3 -3 -7 -2 -2 -3 -4 -3
-5 1 0 3 1 5 3 3 1 5 2 6 2 0 0 -1 -3 -3 -6 -2 -3 -3 -6 -3 -6 0 -1 2 0 4 1 3
2 7 3 9 4 2 1 6 2 7 3 1 1 2 1 3 1 0 -1 -1 -4 -2 -7 -2 -7 -3 -15 -2 -15 0 0
3 3 5 6 5 6 7 7 4 1 -2 -2 -3 -4 -3 -4 0 -1 12 5 16 8 2 1 3 2 4 2 0 -1 -1 -4
-2 -7 -2 -3 -3 -6 -3 -6 0 -2 11 5 19 12 5 3 8 6 8 5 -2 -4 -5 -15 -5 -16 1 0
15 9 19 13 4 4 4 3 3 -4 -1 -2 -2 -5 -2 -5 1 0 12 12 12 13 0 1 0 1 1 1 1 0 1
-1 1 -1 0 -1 1 -5 3 -8 2 -5 2 -5 3 -2 0 5 1 5 8 -2 5 -5 8 -8 9 -8 0 0 0 2
-1 4 0 2 -1 7 -2 10 l0 6 2 -3 c6 -7 14 -15 20 -19 3 -2 6 -4 6 -4 1 0 -1 3
-2 8 -2 4 -3 7 -3 8 1 0 3 -2 5 -4 5 -4 18 -13 19 -13 1 0 0 1 -1 3 -3 4 -9
15 -7 14 0 -1 3 -4 6 -8 3 -3 6 -6 6 -5 0 0 -1 3 -2 6 0 3 -1 5 -1 6 1 0 4 -2
7 -5 9 -7 20 -13 29 -15 l3 -1 -1 3 c-1 1 -3 6 -4 9 -2 4 -4 9 -5 11 -3 6 -2
5 2 -1 3 -5 4 -6 11 -9 5 -2 10 -5 12 -6 2 -2 4 -3 4 -3 0 1 -1 3 -2 6 -2 3
-3 6 -3 7 0 1 7 -1 17 -6 4 -2 7 -3 8 -3 0 0 -1 6 -3 10 -4 8 -4 8 0 6 2 -1 5
-4 7 -5 2 -2 4 -3 4 -3 0 1 -1 3 -2 6 -2 3 -3 5 -3 5 0 2 8 -4 12 -7 4 -5 5
-5 3 3 -1 4 -2 7 -1 7 0 0 1 0 3 -1 3 -2 3 -2 3 -1 0 1 0 2 1 2 2 0 1 2 -2 5
-3 2 -4 3 -6 3 -2 -1 -4 1 -11 8 -7 8 -8 9 -7 11 1 1 1 2 -2 5 -3 3 -4 3 -6 2
-1 -1 -2 -1 -6 3 -2 3 -6 6 -7 8 -3 4 -3 4 -2 5 2 1 2 1 -1 4 -3 3 -5 4 -5 2
-1 -1 -5 2 -10 8 -5 5 -10 9 -11 9 -1 0 -5 4 -9 8 l-8 8 -4 -3 c-4 -3 -5 -3
-5 1 l0 2 -2 -2 c-3 -4 -8 -7 -11 -7 -2 0 -2 0 0 5 1 2 2 4 1 4 0 0 -4 -3 -8
-6 -8 -5 -15 -8 -16 -7 -1 0 0 1 1 2 1 1 1 2 1 3 -1 0 -13 -4 -19 -6 -2 -1 -2
-1 -1 3 1 2 2 3 2 4 -1 0 -7 -3 -11 -7 l-4 -3 -2 2 c-1 1 -4 4 -6 5 l-3 3 1
-3 0 -4 -6 3 c-3 2 -7 5 -10 7 -4 4 -6 5 -4 1 1 -1 1 -3 1 -3 0 -2 -8 3 -14 9
-3 3 -4 5 -1 4 1 0 1 0 1 2 0 3 0 3 -3 3 -2 0 -2 -1 -3 -4z m2 -25 c-1 -1 -5
-4 -9 -6 -9 -7 -10 -8 -5 -3 5 4 13 10 15 10 0 0 0 -1 -1 -1z m132 -9 c4 -3
10 -12 7 -9 -8 8 -14 15 -12 14 1 0 3 -3 5 -5z m-140 -6 c-6 -8 -14 -20 -14
-21 0 -1 1 0 2 1 1 1 4 4 5 5 2 1 1 0 -2 -3 -2 -3 -6 -7 -7 -9 -3 -3 -3 -3 -2
-1 2 9 10 22 18 30 3 3 6 5 6 5 0 0 -3 -3 -6 -7z m124 4 c6 -4 17 -15 21 -21
4 -6 3 -8 -1 -2 -4 6 -17 20 -22 23 -5 4 -3 4 2 0z m-70 -11 c-1 -5 -1 -12 -1
-16 1 -5 1 -7 0 -5 -1 4 -1 19 0 25 1 3 1 5 2 5 0 0 -1 -4 -1 -9z m-5 -2 c0
-4 -1 -7 -1 -6 0 3 1 15 2 15 0 -1 0 -4 -1 -9z m-69 7 c0 -1 -2 -2 -4 -4 -2
-1 -6 -4 -8 -6 l-4 -3 3 3 c2 3 6 6 8 7 5 3 5 3 5 3z m42 -1 c0 0 -5 -5 -10
-11 -10 -9 -11 -10 -6 -3 3 4 16 15 16 14z m12 -14 c-3 -5 -5 -10 -6 -10 0 1
2 6 5 12 3 6 6 11 6 10 0 -1 -2 -6 -5 -12z m35 0 c2 -5 4 -11 4 -13 1 -2 2 -4
1 -4 -1 0 -6 14 -7 24 -2 6 0 3 2 -7z m-48 8 c0 -1 -3 -5 -6 -9 -3 -4 -6 -9
-8 -12 -1 -3 -3 -5 -3 -5 -1 1 7 15 12 21 5 5 7 8 5 5z m73 -6 c2 -3 5 -8 8
-12 2 -4 4 -6 3 -5 -3 2 -9 11 -12 18 -4 7 -3 6 1 -1z m-117 4 c0 0 -3 -3 -7
-7 -3 -3 -6 -5 -5 -4 1 2 12 12 12 11z m201 -12 c4 -3 8 -8 9 -10 2 -3 1 -2
-4 3 -3 4 -9 10 -12 13 -5 4 -6 5 -3 3 2 -1 7 -5 10 -9z m-36 -8 c3 -5 7 -10
7 -12 2 -5 1 -3 -4 5 -2 3 -7 10 -11 15 -7 9 -7 9 -2 5 3 -3 8 -9 10 -13z
m-57 -11 c1 -3 2 -4 1 -3 -2 1 -8 17 -9 22 0 3 1 2 3 -5 2 -6 5 -12 5 -14z
m30 9 c3 -5 5 -8 4 -7 -3 3 -10 11 -13 16 -2 4 1 1 9 -9z m-100 5 c-1 -1 -4
-6 -7 -10 -7 -9 -8 -10 -2 -1 4 7 9 13 10 13 1 0 0 -1 -1 -2z m166 -8 c5 -7 3
-5 -3 3 -4 5 -5 6 -3 5 2 -2 5 -5 6 -8z" fill="white"/>
<path d="M373 397 c0 -1 -2 -3 -4 -5 l-4 -5 2 -2 c3 -3 4 -3 5 0 2 3 4 13 2
13 -1 0 -1 0 -1 -1z" fill="white"/>
<path d="M378 390 c-1 -2 -3 -5 -5 -6 -2 -2 -2 -3 -1 -5 2 -1 2 -1 5 2 2 2 3
5 4 6 0 2 1 3 1 3 1 0 1 1 0 2 -2 2 -2 1 -4 -2z" fill="white"/>
<path d="M383 389 c0 -2 -4 -10 -7 -11 -1 -1 -1 -1 0 -2 2 -2 4 -1 7 5 3 6 3
6 2 8 -2 1 -2 1 -2 0z" fill="white"/>
<path d="M386 379 l-2 -4 7 -8 c5 -4 8 -7 10 -7 2 0 10 -7 11 -11 0 -3 8 -11
10 -11 3 0 11 -8 13 -13 2 -5 8 -11 12 -13 5 -1 14 -10 16 -16 0 -3 6 -9 8 -9
3 2 15 -11 15 -16 0 -3 8 -12 11 -12 4 -1 12 -10 13 -14 0 -2 3 -6 9 -11 9 -9
8 -9 6 1 -2 8 -46 57 -102 114 -16 15 -30 30 -31 31 -1 2 -2 3 -3 3 0 0 -1 -2
-3 -4z" fill="white"/>
<path d="M389 365 c5 -5 8 -8 10 -8 3 0 9 -6 9 -9 1 -4 9 -13 13 -13 3 -1 4
-1 3 0 0 1 -1 1 -2 1 -2 0 -11 9 -11 12 -1 3 -9 11 -11 11 -1 0 -5 3 -9 7 -4
4 -8 7 -8 7 -1 0 2 -3 6 -8z" fill="white"/>
<path d="M430 328 c1 -1 1 -3 1 -4 0 -2 13 -16 16 -16 3 0 9 -6 10 -10 1 -4
10 -14 12 -13 1 0 3 -1 5 -3 2 -2 4 -3 5 -3 1 1 -6 7 -8 7 -3 0 -8 5 -11 12
-3 5 -11 13 -13 13 -2 0 -11 10 -13 14 -2 3 -5 6 -4 3z" fill="white"/>
<path d="M175 304 c-5 -3 -19 -22 -35 -46 -5 -8 -11 -17 -14 -21 -6 -7 -7 -11
-5 -26 2 -18 3 -20 16 -30 4 -3 9 -7 10 -9 l3 -2 -3 1 -3 2 0 -4 c0 -2 1 -4 1
-5 2 -2 17 -7 22 -7 2 0 6 1 10 4 18 9 32 16 38 17 3 1 6 1 7 1 0 -1 -1 -1 -2
-1 -2 0 -22 -10 -25 -13 -2 -1 -2 -1 6 -1 8 1 10 1 20 6 13 6 16 8 16 12 1 1
3 4 5 7 5 6 5 8 1 13 -2 2 -4 5 -4 6 l-2 3 -3 -2 c-1 -1 -4 -3 -5 -4 l-2 -1 2
2 c2 3 2 3 1 3 -10 -4 -17 -6 -22 -7 l-6 0 8 2 c18 6 27 11 41 22 12 10 21 16
26 18 3 1 4 2 3 2 -2 1 -45 3 -52 3 -5 -1 -6 -1 -5 0 4 2 35 2 56 1 25 -3 50
-6 61 -8 12 -3 38 -10 40 -11 2 -1 -1 -1 -24 5 -20 4 -30 6 -33 6 -1 0 1 -1 3
-3 12 -9 40 -35 47 -43 5 -8 5 -9 0 -4 -3 3 -4 4 -3 3 0 -2 1 -6 2 -11 0 -5 2
-9 3 -11 1 -3 12 -10 16 -10 1 -1 6 -1 10 -2 8 -1 20 -4 23 -6 1 -2 1 -2 -5 0
-4 0 -8 1 -8 1 -1 -1 4 -7 6 -8 1 0 10 -1 19 -1 14 0 17 0 20 2 2 1 9 7 16 14
15 15 19 17 9 5 -4 -4 -8 -9 -8 -9 1 0 12 4 15 5 2 1 9 14 9 17 0 4 -1 7 -2 6
-2 0 -1 4 1 14 2 7 2 9 1 15 -1 3 -2 7 -2 8 -1 2 -15 13 -16 13 -1 0 -1 -1 0
-2 1 -1 0 0 -2 3 -2 2 -9 11 -14 20 -8 13 -11 17 -11 16 -1 -2 -2 -1 -6 4 -3
3 -5 6 -6 6 0 0 1 -2 1 -5 0 -2 0 -4 0 -4 0 -1 -2 1 -5 3 -2 3 -4 4 -4 4 0 -1
1 -4 2 -7 1 -7 1 -10 -2 -8 0 1 -1 1 -2 1 0 0 3 -4 8 -9 4 -5 10 -13 13 -17 7
-10 8 -11 16 -17 8 -6 9 -9 9 -23 -1 -10 -1 -11 1 -14 1 -1 3 -2 3 -2 1 0 3 2
6 4 5 5 5 4 0 -2 -3 -3 -5 -8 -6 -10 l-2 -5 1 4 0 4 -6 -4 c-13 -10 -27 -16
-34 -16 -3 0 -2 1 3 2 9 3 15 7 26 14 10 7 11 7 8 10 -2 2 -2 4 -2 15 -1 15
-1 16 -10 22 -5 3 -8 6 -20 22 -3 5 -10 13 -14 18 -6 8 -8 10 -13 11 -2 1 -5
2 -5 2 0 0 0 -3 2 -7 3 -10 2 -14 -1 -9 -2 3 -13 11 -18 14 -4 1 -4 1 -3 -1 1
-4 4 -10 5 -10 3 -2 1 -3 -4 -3 -9 2 -23 8 -31 13 l-4 3 1 -6 c0 -3 0 -6 0 -6
-2 0 -12 5 -18 8 -3 2 -6 4 -7 4 0 0 1 -2 2 -5 2 -2 3 -5 3 -5 0 -3 -14 4 -23
12 -4 3 -7 5 -7 4 0 0 1 -3 2 -5 1 -5 1 -5 -1 -5 -2 0 -9 4 -13 8 l-5 5 1 -5
c0 -2 0 -4 -1 -4 -1 0 -7 6 -9 11 l-3 3 -2 -3 c-2 -3 -14 -12 -15 -10 0 1 0 3
1 5 1 2 1 3 1 4 -1 0 -15 -10 -17 -13 -3 -3 -3 -3 -4 -2 0 1 0 5 0 8 1 4 1 5
0 4 -1 0 -4 -2 -6 -3 -8 -5 -16 -8 -18 -7 -1 0 0 2 1 4 1 2 2 4 2 4 0 1 -4 -1
-8 -2 -6 -3 -8 -4 -9 -6 l-2 -3 -1 3 c-2 4 -2 11 -1 17 0 3 0 4 0 4 -2 0 -9
-3 -14 -7 -3 -2 -6 -4 -6 -3 -1 1 0 8 1 10 1 2 1 2 -2 1 -2 -1 -3 -2 -4 -2 0
-2 -3 -1 -3 1 0 0 1 3 3 6 1 2 2 4 2 4 0 1 -2 0 -4 -1z m2 -16 c-3 -3 -8 -9
-10 -12 -10 -12 -28 -41 -30 -48 -1 -5 -1 -12 2 -22 3 -9 5 -14 11 -22 l6 -7
9 0 c10 1 15 2 36 10 7 3 13 5 13 5 2 -1 -19 -10 -30 -14 -8 -3 -11 -3 -20 -3
-10 0 -10 -1 -10 -3 0 -1 1 -3 3 -4 1 -1 2 -2 2 -2 0 -1 -2 0 -4 2 -2 1 -3 3
-3 5 0 2 -1 3 -2 4 l-2 2 2 -1 c2 0 3 0 3 0 0 1 -2 4 -5 8 -3 3 -7 9 -8 12 -4
7 -7 21 -7 27 1 7 18 35 31 51 5 7 17 19 18 19 0 0 -2 -3 -5 -7z m105 -11 c0
-2 -1 -5 -3 -8 l-2 -4 6 -6 c6 -7 4 -7 -4 0 -4 5 -5 7 -2 11 2 4 4 9 4 14 l0
5 1 -4 c1 -3 1 -6 0 -8z m-21 -15 c7 -3 3 -2 -5 0 -3 2 -5 3 -3 2 2 0 6 -1 8
-2z m151 -79 c5 -2 14 -4 20 -6 l10 -2 -9 0 c-13 1 -38 11 -47 19 -3 1 -1 1 6
-3 5 -2 14 -6 20 -8z" fill="white"/>
<path d="M481 273 c1 -3 2 -5 7 -11 3 -4 7 -7 8 -7 1 0 3 -1 5 -3 2 -1 3 -2 3
-1 0 1 -7 7 -8 7 -2 0 -11 11 -11 12 0 1 -1 3 -2 4 l-2 2 0 -3z" fill="white"/>
<path d="M85 247 c-4 -15 -5 -29 -1 -43 1 -7 10 -27 13 -30 2 -3 2 -2 -1 7 -8
17 -11 42 -9 61 1 6 1 11 1 12 -1 0 -2 -3 -3 -7z" fill="white"/>
<path d="M506 244 c0 -1 1 -3 2 -4 0 -1 5 -6 11 -13 5 -6 10 -11 10 -11 2 2
-8 15 -15 20 -3 3 -5 5 -5 7 -1 4 -3 5 -3 1z" fill="white"/>
<path d="M294 240 c0 -1 1 -2 3 -2 3 -2 6 -9 6 -12 -1 -1 -1 -2 0 -3 1 -1 1 0
1 3 0 4 -2 9 -5 13 -2 2 -5 3 -5 1z" fill="white"/>
<path d="M301 239 c3 -3 5 -9 5 -13 0 -4 2 -9 6 -11 4 -2 6 -8 6 -13 0 -5 1
-5 4 -8 6 -3 10 -13 7 -18 -1 -1 2 -8 3 -8 2 0 4 11 4 15 -1 4 -8 19 -19 41
l-9 17 -5 0 -4 0 2 -2z" fill="white"/>
<path d="M527 232 c1 -1 2 -6 3 -11 1 -5 2 -9 3 -10 1 -2 1 -2 1 4 0 6 -2 12
-6 17 l-1 3 0 -3z" fill="white"/>
<path d="M308 214 c0 0 1 -1 2 -2 3 -1 5 -7 5 -9 -1 -2 2 -9 2 -8 1 1 -1 13
-3 15 -2 3 -6 6 -6 4z" fill="white"/>
<path d="M323 190 c0 0 1 -1 1 -2 1 -1 1 -4 1 -6 0 -1 1 -4 2 -5 1 -1 1 -1 1
2 0 4 -2 10 -4 11 -1 1 -1 1 -1 0z" fill="white"/>
<path d="M218 163 c-7 -3 -7 -3 -19 -3 l-13 0 -6 -4 c-3 -1 -7 -3 -9 -4 -4 0
-4 -1 -4 -3 1 -1 1 -6 2 -9 l0 -7 3 4 2 4 1 -4 c1 -2 2 -7 3 -10 l1 -6 1 3 c1
2 2 3 2 3 1 0 6 -9 6 -12 0 -2 1 -1 2 3 1 3 1 3 1 1 0 -2 2 -8 5 -13 7 -11 9
-18 9 -23 0 -4 -1 -5 -6 -10 -3 -3 -7 -5 -9 -6 -3 -1 -6 -2 -8 -4 -4 -2 -4 -2
-2 -2 3 0 3 -2 0 -3 -5 -2 -3 -2 4 -1 4 0 6 0 6 -1 0 -1 1 -1 3 0 2 0 3 0 3
-1 -1 -1 0 -1 1 -1 3 0 9 -6 9 -8 0 -1 1 -2 2 -2 0 0 1 -1 1 -1 0 -1 2 1 4 3
3 3 5 4 5 3 1 -1 1 -2 0 -3 -1 -1 -1 -1 0 -1 1 1 2 0 3 0 1 -2 4 4 5 9 1 3 2
5 3 6 0 0 1 1 1 3 0 3 2 2 4 -1 1 -2 1 -2 1 1 1 2 1 4 1 6 0 2 0 2 2 2 2 -1 2
-1 0 3 -2 3 -2 4 -1 5 1 0 0 1 -1 3 -6 8 -7 12 -7 22 0 14 0 15 -1 18 0 2 0 2
2 1 2 -1 2 -1 2 0 -1 3 -2 14 -2 14 1 0 2 -1 4 -3 2 -2 3 -3 4 -3 0 0 -2 4 -4
9 -4 11 -4 11 0 10 5 -2 5 -1 2 3 -2 2 -5 6 -6 9 -1 3 -3 5 -3 5 -1 0 -5 -2
-9 -4z m5 -34 c0 -2 1 -5 1 -5 0 -1 -7 12 -7 13 0 2 4 -4 6 -8z m-15 -2 c2 -3
4 -7 4 -7 0 -2 -1 -1 -5 5 l-3 4 0 -7 c0 -12 -2 -12 -2 0 0 6 0 11 1 11 0 0 3
-3 5 -6z m-13 -6 c2 -3 3 -6 3 -6 -1 0 -7 10 -7 11 0 2 0 1 4 -5z m22 -3 c-1
-1 -1 0 -1 3 0 2 0 3 1 2 0 -1 0 -3 0 -5z" fill="white"/>
<path d="M479 156 c-6 -2 -12 -5 -14 -7 -7 -6 -11 -7 -22 -7 l-10 0 1 -3 c0
-1 1 -6 1 -10 l2 -8 1 4 c1 2 3 4 3 3 0 0 2 -5 4 -11 2 -5 4 -10 4 -9 1 0 1 1
2 3 0 2 1 3 1 3 1 0 2 -2 4 -5 3 -4 3 -4 4 1 1 4 3 4 3 -1 0 -4 1 -5 8 -13 10
-12 12 -17 12 -25 -1 -4 0 -6 0 -5 2 2 3 1 3 -2 0 -1 0 -4 0 -5 0 -2 0 -2 1
-1 2 2 2 1 4 -5 3 -8 6 -12 6 -8 0 1 0 1 2 -1 l1 -2 0 2 c0 2 0 3 1 2 1 0 1 0
1 1 0 0 1 2 3 4 2 3 4 4 4 3 2 -1 3 -1 3 1 0 1 0 1 5 -2 l5 -2 -1 2 c0 3 0 3
6 1 0 0 1 1 1 2 1 1 2 2 4 2 l3 0 -3 2 c-2 1 -3 3 -3 3 0 1 -2 3 -5 4 -4 2 -5
3 -4 4 1 1 0 1 -3 3 -2 0 -6 3 -8 6 -5 5 -8 13 -10 27 -1 5 -2 9 -3 9 -2 2 -1
3 1 2 2 -1 2 -1 1 2 0 1 -1 4 -2 6 -1 4 0 5 3 3 2 -3 2 0 -2 7 -1 3 -3 7 -3 7
0 0 2 0 4 0 l3 -1 -2 3 c-2 2 -4 6 -6 9 l-3 6 -11 -4z m6 -42 c2 -3 5 -10 5
-10 -1 0 -7 10 -10 14 -1 2 3 -1 5 -4z m-8 -4 c4 -6 4 -7 0 -2 l-3 3 0 -6 0
-6 -3 3 c-2 1 -4 4 -5 6 -1 2 -1 2 2 -1 l4 -4 0 5 c0 4 1 6 2 6 0 0 1 -2 3 -4z" fill="white"/>
<path d="M238 64 c0 -5 -3 -12 -4 -11 -1 0 -1 1 -1 2 0 2 0 2 -1 1 -1 -1 -1
-1 -2 0 -1 1 -1 1 -1 -1 0 -1 -1 -4 -1 -6 l-2 -4 4 0 c3 0 10 2 11 4 2 3 0 18
-2 18 -1 0 -1 -2 -1 -3z" fill="white"/>
<path d="M166 55 c-1 -1 -1 -1 0 -1 0 0 -1 -1 -2 -2 l-2 -1 2 1 c3 0 5 1 5 3
0 1 -1 1 -3 0z" fill="white"/>
<path d="M531 54 c0 -1 -1 -2 -2 -3 l-2 -2 2 -2 c1 -1 2 -3 2 -5 1 -2 1 -2 4
-2 2 0 3 0 3 1 0 2 0 2 -1 2 0 -1 -2 -1 -3 0 -2 1 -2 1 -1 3 1 1 1 1 -1 2 -1
2 -1 2 0 2 1 0 3 -1 5 -3 3 -2 4 -3 4 -2 1 1 0 2 -1 3 -2 1 -2 1 -1 2 0 0 3
-1 4 -2 2 -2 4 -3 5 -2 2 1 -11 9 -15 9 -2 0 -3 0 -2 -1z" fill="white"/>
<path d="M177 53 c1 -1 -1 -2 -6 -2 -6 -1 -8 -3 -3 -3 3 -1 3 -1 2 -1 -2 -1
-3 -1 -5 0 -3 1 -3 1 -3 -1 0 -4 2 -5 9 -5 4 1 9 1 13 1 8 0 16 1 18 2 2 1 0
5 -5 7 -3 1 -5 2 -8 1 -3 0 -4 0 -4 1 0 1 -2 1 -4 1 -3 0 -4 0 -4 -1z" fill="white"/>
<path d="M483 51 c0 -3 1 -4 2 -5 3 -2 6 -3 6 -1 0 2 -4 8 -4 7 0 -3 -2 -2 -3
0 -1 2 -1 2 -1 -1z" fill="white"/>
<path d="M514 52 c-1 0 -1 -1 0 -2 0 -1 0 -1 -1 -1 -1 1 -3 1 -3 2 -2 0 -6 -5
-6 -8 0 -2 0 -3 5 -3 2 0 5 0 7 -1 5 -2 13 -1 13 3 0 2 -1 2 -5 2 -5 0 -5 0
-5 2 0 2 -4 8 -5 6z" fill="white"/>
<path d="M155 45 c1 -1 4 -4 4 -3 1 0 1 2 0 3 0 2 -4 3 -4 0z" fill="white"/>
<path d="M240 45 c-4 -2 -6 -2 -15 -2 -6 0 -11 -1 -12 -1 0 -1 -2 -1 -5 -1 -2
0 -6 0 -9 -1 -3 -1 -10 -1 -30 -1 -6 0 -15 1 -18 3 -2 0 -2 0 -2 -2 1 -4 23
-6 45 -3 8 1 19 2 24 2 18 0 27 2 26 6 0 1 -1 1 -4 0z" fill="white"/>
<path d="M520 46 c-2 -1 0 -2 4 -1 3 0 3 0 1 1 -2 1 -3 1 -5 0z" fill="white"/>
<path d="M483 42 c0 -1 3 -3 7 -3 1 0 7 -1 13 -3 9 -3 11 -3 23 -3 15 -1 25 2
25 5 0 1 -1 1 -4 1 -2 -1 -6 -1 -10 -2 -4 0 -8 -1 -10 -1 -2 -1 -5 -1 -7 -1
-2 1 -7 1 -10 2 -4 1 -8 1 -9 1 -1 0 -2 1 -3 2 -1 0 -2 1 -2 1 -1 -1 -9 1 -11
2 -1 0 -2 0 -2 -1z" fill="white"/>
</g>
</svg>
