<?xml version="1.0" encoding="UTF-8"?>
<svg width="600" height="800" viewBox="0 0 600 800" fill="none" xmlns="http://www.w3.org/2000/svg">
<g transform="translate(0,800) scale(1,-1)">
<path d="M283 779 c0 -1 1 -2 1 -3 2 -2 0 -2 -7 -2 -7 0 -8 -1 -6 -4 1 -1 0
-2 -4 -3 -3 -2 -4 -3 -3 -4 0 -1 -1 0 -3 1 -2 2 -3 4 -4 5 0 1 -1 2 -2 2 -1 0
-1 -1 -1 -7 0 -6 0 -7 -2 -5 -1 2 -2 0 -2 -3 1 -2 1 -3 0 -3 -1 0 -5 3 -9 7
-4 3 -4 3 -4 1 -1 -3 2 -13 5 -18 3 -4 3 -4 1 -4 -2 0 -4 1 -6 2 -2 1 -4 1 -5
1 0 -1 4 -9 7 -13 2 -3 8 -6 10 -6 2 0 2 -1 2 -2 -1 -1 -1 -3 -1 -3 0 -1 -22
-1 -50 -1 -54 -1 -53 -1 -66 -7 -20 -8 -35 -27 -35 -42 0 -6 0 -7 3 -7 1 0 3
0 4 0 1 0 1 -19 1 -92 0 -51 0 -93 -1 -93 0 0 -4 1 -8 3 -12 4 -23 5 -31 4 -9
-1 -15 -3 -33 -11 -26 -11 -34 -14 -34 -15 0 -1 0 -1 0 -1 1 0 12 5 26 11 27
11 31 13 41 14 8 1 16 0 30 -4 l10 -3 0 -15 0 -15 -3 0 c-6 0 -8 -4 -8 -18 0
-5 0 -9 -1 -9 0 0 -10 2 -21 5 -14 3 -21 5 -25 7 -4 2 -11 6 -16 8 -9 4 -10 4
-21 5 -6 0 -12 1 -12 0 -1 -1 3 -2 12 -2 l12 -1 16 -7 c15 -8 24 -11 50 -16 5
-1 6 -1 6 -4 0 -1 1 -4 1 -6 2 -3 2 -3 6 -3 l4 0 0 -18 0 -18 -8 -7 c-5 -5
-10 -10 -11 -12 -2 -3 -3 -3 -7 -3 -2 0 -4 0 -4 -1 -1 -1 -3 -1 -6 -1 l-5 0 0
8 c-1 8 -2 10 -6 10 -3 0 -4 -2 -6 -12 -2 -15 -1 -43 3 -48 2 -1 5 -1 7 0 0 1
1 5 2 10 l0 8 5 0 c6 0 8 -1 8 -5 0 -3 3 -10 4 -8 0 0 1 3 2 6 l1 6 14 0 14 0
0 -3 c0 -1 -1 -4 -3 -6 -4 -4 -8 -13 -8 -19 0 -2 -1 -6 -1 -8 -1 -3 -2 -8 -3
-12 l0 -6 -16 1 c-8 0 -20 0 -25 0 -20 0 -58 -1 -58 -2 0 -1 19 -1 40 0 18 1
58 0 59 -2 0 -1 1 -4 1 -7 2 -11 9 -25 17 -34 l4 -4 -60 0 c-40 0 -61 0 -61
-1 0 -1 21 -1 62 -1 l61 0 3 -2 c2 -1 6 -4 9 -6 l7 -3 -71 0 c-64 0 -71 0 -71
-2 0 -1 7 -1 76 -1 79 0 100 0 101 -3 0 -1 -18 -1 -88 -1 -59 0 -89 0 -89 -1
0 -1 31 -1 90 -1 l89 0 4 -4 c4 -3 4 -3 3 -8 l-1 -4 -93 0 c-61 0 -92 0 -92
-1 0 -1 3 -1 7 -1 7 0 7 0 6 -2 -1 -1 -2 -3 -2 -5 l0 -4 18 0 18 0 7 6 7 5 23
0 c22 0 22 0 21 -2 -2 -1 -2 -3 -2 -5 l1 -3 17 -1 18 0 6 5 6 6 17 0 c18 0 18
0 22 -3 l5 -2 0 -8 c0 -5 1 -16 2 -24 1 -10 1 -21 1 -27 -1 -10 -1 -12 -3 -15
-3 -5 -4 -7 -2 -11 2 -4 2 -4 0 -5 -1 -1 -4 -3 -7 -6 -3 -2 -6 -4 -9 -4 -3 -1
-5 -2 -7 -4 -4 -4 -11 -8 -16 -10 -7 -2 -8 -4 -8 -12 0 -9 1 -10 12 -12 11 -3
29 -2 45 1 7 1 19 3 25 4 13 1 18 3 18 6 1 3 1 17 -1 25 -1 8 -1 8 1 12 1 3 2
6 2 13 0 8 0 9 7 26 7 18 9 23 10 38 l2 9 3 1 c2 1 4 3 5 5 2 2 3 3 4 3 2 0 3
0 3 -5 l0 -5 18 -1 18 0 0 6 -1 5 11 0 10 0 1 -4 c1 -4 4 -8 8 -9 3 -1 3 -1 5
-10 2 -11 5 -17 13 -34 8 -17 9 -22 7 -28 -2 -6 -1 -8 3 -14 3 -4 3 -5 3 -9
-1 -2 -1 -9 -2 -15 0 -12 0 -12 2 -14 1 -2 3 -3 5 -3 1 -1 4 -2 6 -4 8 -5 13
-6 30 -7 17 0 29 1 32 5 2 2 3 11 1 16 0 1 -3 4 -5 6 -3 3 -5 5 -5 6 0 2 -5 7
-8 8 -2 0 -4 3 -6 7 l-4 6 2 6 2 6 -3 6 -3 7 1 16 c1 9 1 25 1 35 0 16 0 19 2
20 1 0 5 1 9 1 l7 0 7 -6 6 -5 18 0 18 1 0 3 c0 2 0 4 -2 5 -1 2 -1 2 24 2
l25 0 7 -5 8 -6 17 0 18 0 0 4 c0 3 -1 5 -2 6 -1 1 0 1 6 1 5 0 8 0 8 1 0 1
-29 1 -86 1 -81 0 -85 0 -84 2 0 1 1 4 1 6 1 9 -6 8 87 8 54 0 82 0 82 1 0 1
-28 1 -81 1 l-81 0 1 2 2 2 40 0 c22 0 44 0 51 0 69 0 68 0 68 1 0 2 -3 2 -22
2 l-22 0 6 3 c3 2 7 5 9 6 3 2 4 2 16 2 8 0 13 0 13 1 0 1 -4 1 -11 1 -7 0
-12 0 -12 1 0 0 2 2 4 5 8 9 14 21 16 34 1 4 2 8 2 8 1 1 1 1 0 2 0 0 -1 4 -2
8 -4 26 -21 47 -45 55 -6 2 -6 2 -6 5 l0 3 16 0 16 0 2 -4 c1 -2 5 -8 8 -13 5
-8 6 -9 9 -9 2 0 3 0 3 1 0 1 -1 1 -2 1 -2 0 -4 2 -11 14 l-7 10 10 0 c8 0 10
0 10 2 0 1 -2 1 -17 1 -9 0 -21 0 -27 0 l-11 0 -2 6 -3 6 30 0 c19 0 30 0 30
1 0 1 -11 1 -31 1 l-30 0 -5 6 c-17 21 -25 33 -35 53 -6 11 -13 30 -17 43 -5
13 -9 24 -12 28 l-2 4 66 0 c43 0 66 0 66 1 0 1 -23 1 -67 1 l-67 0 -4 5 c-2
3 -4 6 -4 6 0 1 11 1 24 1 23 0 24 0 26 2 l2 3 0 70 0 71 -2 3 -3 3 -55 0 -55
0 -3 -3 c-2 -3 -3 -3 -7 -2 -4 1 -8 3 -7 5 1 0 3 0 5 -1 2 -1 4 -2 4 -1 0 0 0
2 -1 5 l-2 4 108 0 c95 0 108 0 108 2 0 1 -13 1 -109 1 -104 0 -111 0 -114 3
0 0 0 1 1 2 l1 2 111 0 c73 0 110 0 110 1 0 1 -38 1 -111 1 -73 0 -110 0 -109
1 1 2 -1 3 -3 2 -4 -3 -8 -2 -11 1 -4 4 -4 5 -1 6 3 1 6 5 6 6 0 1 -1 1 -3 1
-2 0 -4 1 -5 3 l-2 3 119 0 c79 0 120 0 120 1 0 1 -40 1 -117 1 -115 0 -117 0
-117 2 1 1 0 4 0 7 -1 4 -1 5 1 6 1 1 26 1 117 1 102 0 116 0 116 2 0 1 -13 1
-115 1 -76 0 -115 0 -115 1 0 1 -1 1 -2 1 -2 0 -3 1 -4 1 0 1 0 1 1 1 2 -2 2
1 0 4 l-2 4 3 2 c4 4 8 13 5 13 0 0 -1 -1 -2 -2 -3 -1 -4 -1 -3 0 0 1 -1 1 -1
1 -2 0 -2 0 0 4 2 5 4 14 4 16 -1 2 -2 2 -5 -1 -2 -2 -6 -4 -7 -5 -3 -1 -3 -1
-2 2 0 3 0 3 -2 2 -3 0 -3 0 -3 4 1 2 1 4 0 5 -1 1 -1 1 -3 0 -2 -2 -5 -2 -10
0 -3 1 -3 1 -2 3 2 3 1 3 -3 3 -3 0 -6 0 -8 0 -3 0 -4 0 -3 2 0 2 0 2 -5 2 -2
-1 -7 -2 -9 -4 -5 -2 -5 -2 -8 0 -3 2 -12 4 -15 4 -1 0 -1 -1 -1 -1z m10 -4
c2 -1 5 -2 6 -4 3 -3 3 -3 4 -1 1 2 8 6 10 6 2 0 2 0 1 -2 -1 -1 0 -2 3 -1 1
0 6 0 9 0 5 -1 5 -1 3 -3 -2 -1 -2 -2 1 -2 4 0 13 -3 10 -3 0 0 -1 -1 0 -1 0
-1 -1 -2 -4 -3 -3 -1 -6 -2 -9 -2 l-4 -2 0 4 c0 3 0 5 -1 6 -1 1 -1 1 -1 0 0
-3 -5 -8 -12 -11 -6 -3 -11 -8 -11 -12 0 -2 -2 -1 -2 1 -1 4 -6 9 -10 11 -3 1
-6 3 -7 4 -1 1 -2 2 -2 1 0 -1 4 -5 9 -7 3 -2 8 -6 8 -8 0 0 1 -2 2 -5 l1 -3
1 3 c3 6 6 11 13 14 4 2 8 4 9 6 l2 4 0 -4 c-1 -3 -1 -5 -2 -6 0 -2 0 -2 2 -1
1 0 5 1 9 1 l8 0 -4 -4 -4 -3 4 0 c2 0 3 0 2 1 -2 0 -2 0 0 3 1 1 2 3 2 4 1 0
-2 0 -6 0 l-7 0 6 1 c6 2 9 3 13 7 3 2 3 2 3 1 -1 -1 -1 -3 -1 -3 0 -1 -1 -3
-2 -5 -3 -4 -2 -5 2 -3 2 1 3 1 3 -1 0 0 0 -1 1 -1 2 0 10 3 12 5 2 3 3 2 2
-3 -2 -5 -6 -12 -9 -13 0 0 -1 -1 -1 -1 0 -1 1 -1 2 0 1 1 3 1 4 1 1 0 1 -1
-1 -2 -3 -1 -3 -1 -2 -2 1 0 4 0 6 0 3 1 3 1 2 -1 -2 -3 -8 -7 -12 -8 -3 -1
-5 -1 -7 0 -1 1 -3 2 -3 2 -1 0 1 -1 3 -2 3 -2 4 -3 3 -3 -3 0 -1 -2 4 -2 l4
-1 -3 2 c-1 1 -2 2 -1 2 0 0 2 0 4 1 2 0 3 0 4 -2 1 -2 1 -2 -1 -2 -1 1 -2 0
-2 0 0 -2 3 -6 5 -6 2 -1 -1 -3 -4 -3 -2 0 -4 1 -7 5 -2 2 -3 4 -4 4 -1 -1 5
-9 8 -10 2 -1 2 -1 1 -2 -1 -1 -3 -1 -4 -1 -4 0 -4 -1 0 -5 2 -3 2 -3 0 -3 -1
0 -3 1 -4 2 -1 0 -3 1 -3 1 -1 0 -1 -27 0 -29 1 -2 2 -4 3 -5 l2 -2 -2 0 c-1
0 -3 1 -4 2 l-2 2 1 -2 c0 -1 1 -2 1 -2 2 0 7 -10 8 -14 l0 -4 -2 2 c-2 2 -3
4 -4 7 0 2 0 5 -1 6 -1 2 -1 1 0 -2 l0 -5 -2 3 -2 3 0 -5 c0 -5 0 -5 1 -2 l1
4 1 -4 c2 -4 2 -10 1 -13 -1 -2 -1 -2 -2 1 l-1 4 -2 -4 -2 -4 -1 4 c0 2 -2 5
-3 7 l-2 4 -1 -4 c-1 -2 -1 -5 0 -5 0 -1 0 -1 -1 -1 -1 1 -1 12 0 16 1 1 1 1
1 -1 1 -2 1 -2 2 -1 1 1 1 2 1 3 0 0 0 0 -1 -1 -2 -2 -1 3 0 7 1 2 2 6 3 9 2
8 3 8 3 2 0 -5 0 -5 1 2 0 4 1 8 0 8 0 0 0 0 0 -1 0 -2 -5 -6 -9 -8 l-2 0 2 3
c8 8 11 24 7 35 0 1 0 2 -1 3 0 1 -1 2 -2 4 -1 1 -2 2 -2 2 2 0 -2 3 -5 5 -4
1 -4 2 -2 2 1 1 -2 1 -6 1 -5 -1 -7 0 -6 1 0 1 -1 1 -5 -1 -6 -2 -6 -2 -5 -1
1 2 -1 1 -5 -1 l-4 -3 -5 3 c-2 1 -4 2 -4 1 1 -1 1 -1 -3 1 -3 1 -4 1 -3 0 0
-1 -1 -1 -3 -1 -2 1 -3 1 -3 0 0 0 -2 -1 -4 -1 -3 -1 -4 -1 -3 -2 1 0 0 -2 -3
-3 -2 -2 -3 -4 -2 -4 1 0 0 -2 -3 -6 -3 -2 -3 -4 -2 -2 l3 2 0 -12 c0 -13 3
-31 8 -42 2 -5 5 -18 3 -18 0 0 -1 1 -1 3 -2 2 -2 2 -3 -4 l-1 -6 -2 4 c0 2
-1 4 -2 5 0 1 -1 0 -2 -2 -2 -2 -3 -4 -3 -3 -1 0 -1 3 -1 6 0 7 -1 7 -4 1 l-2
-3 0 3 c0 4 1 7 5 11 3 5 3 6 -2 5 l-3 0 3 3 c5 4 6 9 6 20 -1 10 -2 12 -5 10
-3 -3 -4 -2 -3 0 1 1 1 3 2 5 1 2 1 2 -1 2 -1 -1 -4 -1 -6 0 l-3 0 3 3 c2 1 4
4 5 7 1 2 3 6 4 7 1 1 2 2 1 2 0 0 -2 1 -5 2 -3 1 -3 1 -1 2 1 1 1 1 -2 1 -4
0 -3 -2 2 -4 l5 -2 -5 0 c-4 0 -9 3 -13 8 l-2 3 6 0 c4 0 7 0 8 0 0 1 -1 2 -3
3 -3 3 -8 12 -8 15 0 0 2 0 4 -2 5 -3 12 -5 12 -3 0 0 0 1 -1 2 -1 0 -1 1 -1
2 0 1 0 1 3 0 3 -2 3 -2 2 2 -1 2 -2 5 -2 6 0 2 0 2 4 -1 2 -2 6 -4 8 -5 l5
-1 -4 -1 c-3 -1 -3 -1 2 -1 5 0 6 0 5 1 0 1 0 4 -1 7 0 4 0 5 2 5 2 0 2 1 -1
3 l-3 2 7 0 c4 1 7 1 9 0 1 0 1 0 0 2 -2 3 -2 3 3 2z m-18 -14 c0 -3 0 -5 -1
-5 0 0 -2 1 -4 2 -3 2 -3 2 -1 3 1 1 1 1 0 2 -2 0 -2 0 1 2 5 2 5 1 5 -4z m76
-3 c-1 -1 -2 -1 -2 -1 -1 0 -1 0 0 1 0 1 1 1 1 1 1 0 1 0 1 -1z m-39 -22 c0
-2 1 -2 4 -1 2 1 5 1 7 0 4 -1 4 -1 3 -3 -1 -2 -1 -2 0 -1 2 2 2 2 5 1 1 0 2
-1 2 -2 -1 0 0 -2 2 -2 1 -1 2 -3 2 -3 -1 -1 0 -3 1 -4 2 -2 2 -4 2 -13 0 -8
-1 -10 -3 -15 -2 -3 -5 -7 -7 -9 l-3 -3 5 0 5 1 -2 -5 c-3 -11 -8 -18 -19 -27
-13 -9 -20 -8 -34 5 -10 9 -13 16 -18 38 -3 16 -2 23 2 31 2 6 5 9 6 7 1 -1 1
-1 1 1 0 1 1 2 6 3 4 1 6 0 9 -1 1 -1 3 -2 3 -1 0 1 1 0 3 -1 3 -1 3 -1 7 1 2
2 3 2 2 0 0 -1 1 -1 5 1 2 2 5 3 5 3 0 0 0 -1 -1 -1z m-65 -23 c0 0 -2 -1 -3
-2 -2 0 -4 -2 -4 -2 0 -2 5 -4 9 -4 2 0 3 -1 0 -5 l-1 -2 -65 0 -64 0 4 3 c3
2 8 5 12 7 12 5 16 6 66 6 25 0 46 0 46 -1z m116 -7 c0 -2 0 -2 -1 -1 -2 2 -4
1 -4 -1 0 -1 0 -1 -2 1 l-2 2 3 2 c3 2 4 2 5 0 0 -1 1 -2 1 -3z m-11 -7 c2 -4
-1 -16 -4 -16 -1 0 -1 1 0 2 1 2 1 2 0 2 -1 -1 -1 0 -1 3 0 6 1 8 2 8 0 0 1
-1 1 -2 1 -1 1 -1 1 1 0 1 -1 2 -1 2 -1 0 -2 1 -2 2 0 2 2 1 4 -2z m6 -3 c1
-4 3 -8 6 -9 2 0 2 0 1 -1 -1 -1 -3 -1 -4 -1 -2 0 -3 -1 0 -6 2 -5 6 -8 10 -8
5 0 5 -1 1 -4 -3 -1 -3 -2 -1 -2 0 -1 2 -1 3 -1 2 0 10 -7 9 -8 0 0 -2 1 -4 1
-2 1 -5 1 -5 1 -2 -1 -2 -1 -1 -4 3 -4 7 -8 12 -8 3 -1 5 -2 6 -4 4 -4 3 -4 0
-3 -2 1 -4 1 -5 1 -2 0 -2 0 1 -5 2 -2 4 -6 5 -7 1 -1 2 -2 2 -2 -1 0 -6 2
-11 4 -10 3 -10 4 -12 8 -1 2 -2 4 -3 4 0 -1 1 -2 2 -3 0 -2 1 -3 1 -4 0 0 -5
1 -10 3 -9 5 -10 6 -10 12 0 1 0 1 1 -1 2 -5 3 -2 3 5 0 4 0 7 -2 9 -3 4 -3 4
0 4 3 1 3 2 1 4 -2 0 -3 2 -4 4 -2 4 -2 4 1 9 2 4 2 6 2 11 0 5 1 6 3 6 1 0 2
-1 2 -5z m7 2 c0 0 -1 0 -2 0 -1 0 -2 1 -2 2 0 1 0 1 2 0 1 -1 2 -1 2 -2z
m-106 -18 c-1 -4 -4 -8 -9 -11 -1 -1 -1 -1 0 -2 1 -1 3 -1 4 -1 l2 0 -2 -3
c-2 -2 -4 -5 -4 -8 -1 -2 -2 -5 -3 -6 -2 -1 -2 -1 -1 -1 1 0 2 0 2 1 0 2 2 1
3 -3 l2 -4 1 3 c0 6 1 7 2 3 2 -7 2 -7 -5 -11 -4 -2 -8 -4 -8 -4 0 1 2 5 4 8
3 3 2 3 -3 -1 -3 -1 -3 -2 -2 -1 2 0 2 0 2 -2 -1 -1 -1 -2 -2 -3 0 -2 -6 -5
-12 -6 -2 -1 -2 -1 -1 1 1 1 2 2 2 2 1 0 1 1 1 1 0 1 -2 1 -5 1 -4 0 -6 0 -6
0 0 2 5 6 8 6 7 2 15 8 10 8 -2 0 -6 4 -6 5 0 1 1 1 2 1 2 -1 9 3 12 7 l3 3
-4 2 -3 1 3 2 c2 1 5 3 7 7 4 7 4 9 0 9 l-2 0 3 4 c3 3 4 5 4 8 0 2 1 0 1 -4
0 -4 0 -9 0 -12z m-5 14 c-1 -3 -3 -6 -6 -6 -3 -1 -2 -3 2 -5 l3 -2 -3 -4 -2
-4 -73 0 c-40 0 -73 0 -73 1 0 2 7 13 10 17 l4 5 70 0 69 0 -1 -2z m-12 -24
l-4 0 2 -3 1 -3 -70 0 -70 0 0 4 0 3 72 0 c40 0 71 -1 69 -1z m1 -11 c-3 -3
-7 -4 -10 -3 -3 1 -4 0 -3 -2 0 -1 -1 -3 -1 -4 -1 -1 -2 -4 -2 -5 0 -2 -1 -3
-3 -4 -2 -1 -4 -4 -5 -6 l-2 -3 0 8 c0 9 -1 12 -6 14 -1 0 -20 0 -42 0 l-39 0
-3 -3 -2 -3 0 -71 c0 -68 1 -71 2 -73 2 -2 3 -2 23 -2 13 0 20 0 20 -1 0 -1
-1 -3 -3 -6 l-2 -5 -28 0 -27 0 0 86 0 85 67 0 c66 0 67 0 66 -2z m85 -5 c0
-4 0 -5 -3 -6 -3 -1 -3 -1 -2 1 1 2 1 2 -1 0 -1 -2 -4 -3 -5 -4 -3 0 -2 1 4 7
4 4 8 7 8 7 0 0 -1 -2 -1 -5z m-49 -3 c-3 -1 -4 -1 -4 4 l0 3 3 -3 3 -2 -2 -2z
m-66 -1 c2 -2 2 -3 2 -16 l0 -14 -4 -4 -3 -4 0 11 c0 11 -1 16 -4 18 -1 1 -15
1 -33 1 l-31 0 -3 -2 c-2 -3 -2 -3 -2 -16 l0 -14 36 0 36 0 -2 -3 -1 -3 -35 0
-34 0 0 -44 c0 -42 1 -44 2 -46 2 -1 6 -1 20 -1 18 0 18 0 16 -6 l-1 -3 -20 0
c-11 0 -21 0 -22 1 -3 2 -3 5 -3 73 0 72 0 72 5 73 1 0 19 1 40 1 37 0 39 -1
41 -2z m293 -1 c2 -1 2 -3 2 -71 0 -64 0 -71 -2 -72 -1 -2 -3 -2 -26 -2 l-25
0 -2 4 c-1 2 -2 4 -2 4 0 1 9 1 21 1 17 0 21 0 23 2 l2 1 0 44 0 44 -40 0 -41
0 -1 3 -2 3 42 0 42 0 0 14 c0 15 0 16 -5 18 -2 0 -21 0 -44 0 l-42 0 -2 -3
c-2 -2 -2 -4 -2 -10 l0 -7 -3 2 c-2 1 -3 2 -3 3 0 1 -1 3 -2 4 -3 3 -2 5 0 2
5 -4 5 3 0 10 -2 4 -2 4 0 6 1 2 3 2 22 2 12 0 36 0 55 0 30 0 33 0 35 -2z
m-215 -5 c1 0 0 -1 -1 0 -1 0 -2 1 -3 2 0 0 -1 1 -2 0 -2 0 -2 0 -2 2 l0 3 4
-3 c2 -2 4 -4 4 -4z m46 -2 c0 -4 0 -4 2 -3 1 1 2 2 3 4 1 2 1 2 2 0 1 -1 1
-3 0 -4 0 -1 0 -1 2 0 1 1 2 3 3 5 0 2 0 2 1 -2 1 -3 3 -7 5 -11 6 -7 6 -12 3
-18 -1 -3 -4 -6 -3 -3 1 2 -2 12 -3 12 0 0 -1 -2 -2 -4 -2 -6 -6 -11 -10 -13
-5 -3 -6 -3 -4 1 2 2 3 5 3 10 0 6 -1 7 -3 5 -1 -1 -2 -2 -4 -3 l-3 -1 2 3 c4
6 5 10 4 14 -1 2 -1 6 0 11 0 6 0 6 2 4 0 -2 1 -5 0 -7z m-56 6 c0 0 0 -1 -1
0 -1 0 -1 0 -1 0 0 -1 7 -5 13 -6 l6 -2 0 -9 c0 -10 -2 -11 -2 -1 l0 7 -1 -7
c0 -8 -2 -10 -2 -3 0 7 -1 8 -8 11 -3 2 -6 4 -7 4 -1 2 1 2 4 1 5 -3 13 -6 13
-5 0 0 -2 1 -4 2 -5 1 -12 5 -12 6 -1 1 0 4 1 4 1 0 1 -1 1 -2z m-48 -1 c3 -2
2 -3 -1 -4 -3 -1 -3 -1 -3 1 0 2 1 5 2 5 0 0 1 -1 2 -2z m40 -5 c0 -3 -3 -11
-4 -11 0 0 -1 -1 -2 -2 0 -2 0 -2 -1 0 -1 1 -1 1 -1 -1 0 -3 0 -3 2 -1 2 1 2
1 2 -3 0 -2 1 -5 1 -6 2 -4 1 -4 -2 0 -2 2 -3 3 -3 2 0 -1 -1 -2 -2 -2 -1 0
-1 -1 -1 -6 1 -3 1 -7 2 -8 1 -3 0 -3 -4 1 -5 3 -7 10 -7 16 1 4 1 4 -1 3 -3
-3 -5 -5 -6 -8 -1 -3 -1 -3 -1 2 1 5 1 7 4 10 l2 3 1 -2 c0 -3 1 -3 2 -1 1 1
1 2 0 2 -2 -2 -1 1 3 6 2 3 4 7 4 8 2 4 3 2 4 -4 l1 -4 1 2 c1 1 3 4 3 6 1 5
3 4 3 -2z m57 5 c0 0 -4 -2 -9 -3 -11 -4 -11 -4 -6 -3 2 0 6 1 9 2 6 2 7 2 7
1 0 0 -2 -2 -5 -3 -5 -2 -9 -3 -17 -4 -3 -1 -3 -1 -3 -8 0 -5 0 -6 -2 -6 -1 0
-1 1 -1 7 l1 8 3 1 c2 0 3 1 1 1 -1 0 -3 -1 -4 -2 -2 -1 -2 -2 -2 -8 0 -6 0
-7 -1 -7 -2 0 -2 2 -2 8 l0 9 6 1 c9 2 20 5 22 6 2 1 3 1 3 0z m2 -10 c0 -4 0
-5 -2 -7 -4 -2 -12 -5 -17 -6 l-5 0 0 5 c0 6 0 6 3 7 1 0 6 1 11 3 5 1 9 3 9
3 1 0 1 -2 1 -5z m-58 -5 c-1 -2 -3 -4 -3 -4 0 1 1 3 2 6 2 4 3 5 3 4 0 -1 0
-3 -2 -6z m7 7 c0 0 3 -2 5 -2 l5 -2 0 -6 1 -5 -3 0 c-3 1 -3 1 -1 0 3 -2 3
-2 2 -3 0 -1 -1 -6 -2 -11 0 -4 -2 -12 -2 -15 -3 -10 -5 -25 -6 -40 0 -10 -1
-12 -2 -12 -1 -1 -4 -1 -7 -2 -3 -1 -5 -1 -4 -2 0 0 3 1 7 1 4 1 6 2 7 1 0 -1
0 -12 0 -26 0 -19 0 -25 -2 -29 0 -3 -1 -7 -1 -9 l1 -4 -4 -1 c-2 0 -4 -1 -5
-2 0 -1 -5 -1 -9 1 -2 0 -4 3 -5 5 -2 3 -3 4 -7 6 -3 1 -7 1 -9 1 -3 0 -4 1
-5 3 -1 2 -1 4 2 9 2 6 2 6 1 12 -1 3 -1 10 -1 15 0 5 0 10 -1 11 -2 6 -2 9 4
19 6 11 12 27 17 40 l3 10 4 -2 c5 -2 6 -1 3 3 -2 2 -2 5 -1 10 0 3 0 3 2 2 2
-2 8 -4 8 -2 0 0 -1 1 -2 2 -3 3 -3 7 0 13 2 3 3 5 3 4 0 -1 6 -7 7 -7 1 0 0
1 -2 3 -2 2 -3 4 -4 7 0 5 0 6 3 4z m91 -8 c27 -10 32 -14 41 -29 7 -13 8 -14
11 -29 2 -8 3 -16 4 -17 l0 -2 -3 2 c-7 6 -4 2 3 -4 4 -3 8 -6 9 -7 0 -1 1 -5
2 -9 0 -7 2 -11 5 -19 5 -11 10 -26 14 -45 2 -8 3 -13 3 -12 0 3 -5 26 -7 34
-2 5 -3 9 -3 9 1 0 17 -22 18 -26 1 -2 5 -11 8 -19 6 -20 12 -34 17 -44 5 -10
6 -18 3 -21 -3 -4 -8 -2 -10 3 -1 2 -1 5 -1 10 1 9 -1 14 -7 21 -9 8 -10 10
-10 16 0 6 -1 6 -5 0 -3 -7 -3 -13 2 -23 4 -10 5 -15 2 -24 -1 -5 -6 -11 -9
-11 -1 0 -3 1 -3 2 -2 2 -2 3 -2 10 2 16 0 21 -11 33 -9 11 -11 18 -8 31 1 3
2 6 1 6 -1 1 -7 -4 -11 -8 -6 -8 -7 -13 -7 -26 0 -8 -1 -13 -2 -14 -1 -2 -1
-2 -1 -1 0 4 -10 28 -17 41 -3 6 -9 17 -13 23 -19 29 -22 35 -28 47 -9 18 -18
46 -20 64 -1 2 -1 5 -2 6 0 1 1 2 4 3 6 2 11 8 12 12 1 6 2 3 2 -3 -1 -6 -1
-7 1 -6 3 2 7 9 8 14 0 5 -1 8 -6 15 -4 5 -4 6 0 4 2 -1 9 -4 16 -7z m-167 -6
l0 -13 -34 0 -33 1 -1 11 c0 6 0 12 1 13 1 2 2 2 34 2 l33 0 0 -14z m289 13
c1 -1 1 -5 1 -14 l0 -12 -42 0 -42 0 -3 4 c-4 4 -4 5 -4 11 0 4 0 8 1 9 l1 3
43 0 c33 0 44 0 45 -1z m-244 -6 c-4 -3 -7 -9 -7 -14 0 -7 4 -13 5 -6 0 1 0 4
1 6 l2 3 0 -3 c0 -4 3 -10 5 -13 l2 -2 -4 -13 c-7 -19 -21 -45 -31 -60 -12
-18 -19 -29 -19 -27 5 13 14 36 16 40 2 3 3 5 3 6 -2 1 -23 -51 -29 -69 -4
-10 -7 -27 -10 -45 -2 -15 -3 -29 -2 -58 0 -20 -3 -38 -10 -52 -4 -8 -8 -13
-14 -18 -13 -8 -16 -12 -19 -15 l-2 -4 0 5 c1 9 4 17 11 27 4 5 7 11 8 13 1 1
2 8 2 15 1 6 1 14 2 18 0 8 -1 12 -6 15 -5 2 -10 1 -15 -3 -4 -4 -6 -8 -11
-20 -3 -7 -9 -12 -15 -15 -8 -3 -18 -8 -22 -10 -2 -2 -4 -6 -6 -9 -3 -7 -4 -6
-1 5 2 9 6 17 14 24 14 14 21 22 28 32 3 6 11 21 13 28 2 4 4 8 8 12 8 8 10
15 7 27 -2 10 2 20 14 35 17 20 26 32 33 46 4 5 3 4 -6 -9 -6 -9 -21 -29 -22
-30 0 0 1 4 3 9 5 13 6 20 6 28 0 7 2 14 5 15 3 1 30 33 28 33 -1 0 -4 -4 -8
-9 -9 -11 -14 -16 -14 -14 0 1 1 6 3 12 6 31 16 48 32 55 4 2 11 5 16 8 10 5
10 5 6 1z m81 -8 c-1 -2 -2 -4 -3 -5 -2 -1 -2 -1 0 2 1 2 -2 0 -7 -6 -5 -5
-11 -10 -12 -11 l-2 -2 3 2 c1 1 5 4 8 7 5 4 6 4 10 4 l4 1 0 -6 c1 -5 0 -6
-1 -8 l-2 -2 2 0 c3 0 3 0 3 -4 l0 -4 -9 0 c-5 0 -9 0 -9 -1 -1 -1 -1 -3 -2
-6 l0 -5 5 0 c2 -1 7 -1 11 -1 l7 0 3 -12 c5 -20 13 -38 23 -55 1 -3 1 -3 -1
-9 -2 -5 -2 -5 -1 -10 2 -6 2 -7 0 -10 -2 -2 -2 -2 -10 -1 -6 1 -8 1 -11 0 -3
-1 -6 -2 -7 -2 -2 -1 -3 -2 -4 -4 -3 -6 -5 -7 -14 -8 -8 0 -9 0 -10 2 -2 1 -4
2 -13 2 l-11 1 -1 4 c0 2 1 7 1 10 3 8 3 35 2 49 -1 14 0 33 3 51 1 6 3 15 3
20 2 15 1 13 13 15 12 1 20 3 26 6 3 2 4 3 4 1 0 -1 0 -3 -1 -5z m-106 4 c-1
-2 -2 -3 -4 -4 -1 -1 -3 -2 -3 -2 0 0 -1 1 -1 2 0 2 1 3 3 4 5 3 6 3 5 0z
m112 -13 c0 -2 -1 -4 -1 -6 -2 -1 -2 -1 -2 3 0 3 0 5 1 5 1 2 2 1 2 -2z m-138
-19 c-2 -6 -7 -24 -9 -35 -1 -6 -2 -8 -6 -13 -5 -6 -6 -8 -6 -18 0 -3 -1 -8
-1 -10 l-1 -5 -19 0 c-17 0 -18 0 -19 2 -1 1 -1 17 -1 43 l0 42 32 0 33 0 -3
-6z m296 -36 c0 -37 0 -42 -2 -43 -1 -2 -4 -2 -22 -2 l-21 1 -4 6 c-2 5 -3 9
-4 15 l0 9 -5 4 -5 5 -3 13 c-2 8 -3 15 -3 16 0 1 -2 5 -4 10 l-4 8 39 0 38 0
0 -42z m-160 28 l0 -2 -9 0 c-5 1 -10 1 -10 2 0 0 0 1 0 1 1 2 2 2 10 2 8 0 9
-1 9 -3z m1 -5 l0 -3 -9 1 c-11 0 -12 0 -11 2 0 2 2 2 10 2 10 0 10 0 10 -2z
m-101 -53 c0 0 -2 -4 -5 -8 -3 -5 -5 -10 -6 -12 -1 -5 -3 -6 -6 -2 -5 4 -5 2
0 -4 3 -4 4 -5 3 -8 l0 -2 -3 2 c-3 3 -7 5 -8 5 0 0 2 -2 3 -3 2 -1 4 -2 4 -2
0 0 3 -4 6 -7 3 -4 6 -7 6 -7 0 -1 -1 0 -2 1 -1 2 -6 3 -11 1 -5 -2 -6 -3 -11
-11 -3 -8 -3 -8 -3 -15 1 -4 2 -8 3 -9 1 -1 1 -1 0 0 0 2 0 2 2 1 4 -2 2 -4
-1 -3 -3 1 -14 13 -14 15 0 3 7 23 10 30 2 4 8 14 14 22 6 8 12 17 13 20 l4 5
1 -4 c0 -3 1 -5 1 -5z m0 -20 c1 -9 1 -10 -1 -14 -2 -6 -3 -10 -1 -11 2 -1 1
-4 0 -4 -1 0 -2 1 -2 2 0 0 -2 3 -4 5 -3 4 -4 5 -3 8 0 1 0 3 0 5 0 1 0 2 1 4
1 1 2 3 2 4 0 3 6 14 7 12 0 -1 0 -6 1 -11z m136 -12 l5 -7 -4 -2 c-2 -1 -4
-3 -5 -4 0 -1 -2 -3 -3 -5 -2 -1 -2 -1 0 3 2 4 2 4 1 9 -1 2 -2 5 -2 6 0 1 3
8 3 8 1 0 3 -4 5 -8z m-208 -11 c0 0 -2 -2 -4 -5 -6 -7 -7 -10 -12 -31 -6 -23
-11 -36 -17 -49 -6 -12 -14 -25 -18 -28 l-2 -2 0 58 0 58 27 0 c14 0 26 0 26
-1z m220 -7 c3 -5 8 -13 10 -18 6 -10 6 -10 -1 -13 -3 -2 -5 -2 -6 -1 -2 1 -2
1 -1 2 1 0 2 0 3 -1 3 -4 1 14 -2 21 -3 9 -12 17 -15 15 -1 -1 -2 -1 -2 0 0 0
6 3 8 3 0 0 3 -4 6 -8z m-157 2 c1 -1 0 -2 -3 -2 -4 0 -8 -3 -11 -9 -3 -5 -3
-7 -3 -13 0 -6 -1 -7 -2 -5 -2 2 -3 9 -3 13 1 4 9 15 11 16 4 1 10 1 11 0z
m153 -4 c5 -5 7 -11 9 -20 0 -5 0 -6 -2 -6 -1 -1 -2 -1 -3 -1 -1 -1 -2 0 -2 6
-1 8 -6 19 -10 22 -1 1 -3 2 -3 2 0 0 0 1 1 1 3 2 6 1 10 -4z m-131 1 c3 -1 5
-2 6 -4 1 -2 2 -3 1 -3 -1 -2 -8 -1 -7 0 0 1 0 1 -2 0 -2 -1 -2 -1 -2 0 0 1 0
2 -1 2 -1 0 -1 -2 -1 -4 0 -2 0 -4 -1 -5 -1 0 -1 -2 0 -4 3 -5 10 -14 10 -13
0 0 1 0 2 -1 3 -2 1 -4 -3 -5 -4 0 -5 0 -10 5 -3 3 -6 6 -7 6 -1 0 -1 1 -1 2
0 1 0 2 -1 2 0 1 -1 0 0 -1 0 -2 13 -15 16 -16 1 -1 1 -1 -2 -2 -3 -2 -3 -2
-10 3 -3 2 -7 4 -8 4 -1 0 1 -1 4 -3 2 -2 6 -4 7 -5 2 -2 2 -2 0 -2 -1 -1 -4
0 -7 2 -7 3 -8 2 -2 -1 5 -3 5 -3 2 -3 -7 2 -10 4 -14 13 -3 4 -5 9 -6 9 -4 4
3 20 9 23 2 0 3 1 3 0 -1 -2 3 -1 10 1 8 2 9 2 15 0z m105 1 c4 -1 9 -2 10 -3
4 -1 6 -1 4 0 -1 1 -1 1 0 1 4 2 12 -12 12 -19 0 -2 -1 -4 -3 -6 -2 -2 -5 -6
-7 -9 -4 -6 -6 -8 -12 -8 l-3 -1 4 2 c2 1 4 3 5 4 l1 3 -2 -3 c-2 -2 -13 -6
-16 -6 -1 1 0 2 3 4 3 2 5 3 6 3 0 0 1 0 2 1 1 2 -4 0 -10 -4 -6 -3 -8 -4 -10
-2 0 1 2 3 5 7 4 3 6 5 5 5 -1 0 -3 -2 -6 -5 -3 -3 -6 -5 -7 -5 -1 0 -2 1 -4
2 -2 2 -3 5 -1 5 1 0 1 -1 1 -1 0 -1 2 2 5 6 6 9 11 18 9 16 -2 -1 -2 -1 -2 2
0 2 -1 3 -1 4 -1 0 -1 0 -1 -1 1 -1 0 -2 -1 -2 -4 -1 -12 -2 -12 -1 0 0 1 2 2
4 2 3 4 4 9 6 3 1 6 2 6 2 0 0 4 -1 9 -1z m-95 -11 c0 0 1 -4 0 -11 0 -10 -1
-10 -3 -9 -2 1 -2 2 -2 7 0 12 1 15 5 13z m44 -1 c2 -1 1 -21 0 -22 -1 -2 -27
-1 -29 1 -2 1 -2 3 -2 11 0 5 0 10 1 11 0 1 2 1 15 1 8 -1 15 -1 15 -2z m-50
0 c0 -1 -2 -1 -6 0 -2 1 -2 1 2 1 2 0 4 0 4 -1z m15 -1 c2 0 3 0 2 -1 -1 -1
-8 0 -8 1 0 1 1 1 2 1 0 -1 3 -1 4 -1z m55 -10 l0 -11 -2 0 -3 0 0 11 0 11 3
0 2 0 0 -11z m-70 8 c0 0 0 -2 0 -5 -1 -7 -3 -8 -6 -2 -3 3 -4 7 -2 8 0 1 7 0
8 -1z m89 2 c0 -1 -2 -1 -5 -2 l-3 -1 4 0 4 0 -2 -4 c-2 -4 -4 -6 -3 -3 1 3
-5 8 -8 8 -3 0 -3 0 0 -1 3 -1 5 -2 5 -3 3 -4 0 -8 -6 -10 l-2 -1 2 0 c2 0 3
1 4 2 1 0 2 1 2 1 1 0 0 -1 -1 -2 -1 -2 -3 -3 -5 -3 l-3 0 0 9 c0 8 0 9 2 9 3
1 15 1 15 1z m-26 -8 l0 -8 -5 0 -5 0 0 6 c0 6 0 6 3 6 2 0 2 0 1 1 -5 1 -4 2
1 2 l5 0 0 -7z m-47 5 c1 0 1 -2 1 -6 l0 -6 -4 0 -3 0 3 -1 c4 0 6 -2 2 -2 -6
0 -7 1 -7 9 l0 7 3 0 c2 -1 4 -1 5 -1z m165 -6 c-1 -7 -1 -14 2 -19 1 -2 4 -6
7 -10 6 -6 9 -10 11 -17 1 -3 1 -6 0 -12 -2 -10 -1 -14 4 -16 3 -1 3 -1 6 1 4
3 6 6 8 13 2 8 1 14 -4 23 -4 8 -4 15 -2 21 l1 3 1 -4 c1 -6 4 -9 9 -14 7 -6
9 -11 9 -22 0 -8 0 -9 2 -12 4 -6 12 -5 14 3 l1 4 4 -8 c5 -9 14 -22 23 -32 7
-9 11 -15 13 -24 2 -9 1 -17 -3 -25 l-2 -6 -1 9 c-1 17 -7 25 -25 36 -5 3 -12
9 -16 13 -5 5 -7 7 -6 5 4 -6 13 -13 20 -18 5 -2 8 -4 8 -5 -1 0 -13 3 -15 4
-2 1 -4 3 -7 5 -3 3 -5 4 -8 4 -4 0 -4 0 -7 6 -2 5 -2 7 -2 13 0 8 -1 8 -2 5
-2 -5 -1 -13 3 -20 2 -3 5 -9 7 -14 5 -9 5 -9 4 -39 0 -10 0 -12 2 -17 1 -3 3
-7 5 -9 3 -4 1 -4 -6 1 -7 5 -12 11 -16 19 -2 5 -2 6 -2 21 0 16 -1 24 -6 32
-6 11 -16 13 -21 4 -3 -6 -3 -9 -1 -18 l1 -9 -3 -10 c-4 -17 -4 -19 -3 -29 1
-9 3 -14 7 -21 1 -2 2 -4 2 -5 -1 -1 -9 4 -14 8 -5 5 -8 10 -11 20 -3 8 -3 21
-1 38 3 22 2 50 -4 73 -2 7 -3 9 -2 11 1 1 2 6 2 15 1 11 1 13 3 18 3 5 11 15
12 14 1 0 0 -3 -1 -7z m-226 -14 c1 1 3 1 5 2 1 0 2 -1 4 -5 2 -4 4 -6 5 -6 2
-1 2 -2 1 -3 0 -2 -2 -8 -2 -14 -1 -3 -3 -8 -6 -13 -3 -5 -5 -10 -5 -11 0 -4
-8 -46 -9 -46 -1 0 -3 6 -3 11 0 2 1 6 2 8 1 4 1 4 0 4 -2 0 -6 -5 -9 -10 -3
-6 -3 -12 -2 -21 2 -6 2 -8 1 -11 -2 -7 -8 -10 -12 -6 -2 1 -2 1 0 5 7 16 10
38 8 61 -1 16 -1 29 3 52 3 18 2 17 10 9 6 -5 7 -6 9 -6z m6 6 c0 -1 -1 -1 -1
0 -1 1 -2 2 -2 3 0 1 0 1 2 0 0 -2 1 -3 1 -3z m-60 -6 c0 -3 -1 -7 -1 -9 -1
-4 -6 -11 -8 -11 0 0 0 4 2 9 2 5 3 11 4 15 2 6 3 5 3 -4z m99 7 c-1 0 -2 0
-2 1 -1 1 -1 1 0 0 1 0 2 0 2 -1z m128 1 c0 -1 0 -2 -1 -2 -1 0 -2 2 -1 2 1 1
2 1 2 0z m-65 -3 c0 -1 -2 -1 -5 -1 -3 0 -5 0 -5 1 0 1 2 1 5 1 3 0 5 0 5 -1z
m91 -14 c9 -24 15 -47 16 -68 l0 -12 -2 5 c-3 7 -4 9 -8 12 -5 3 -5 2 -2 -3 2
-5 2 -7 2 -13 0 -6 0 -8 -2 -11 -1 -1 -2 -3 -3 -3 0 0 -2 4 -3 9 -2 5 -7 18
-11 30 -10 27 -13 35 -14 44 -1 6 -2 8 -5 12 l-4 5 2 3 c4 4 4 4 6 3 1 0 3 -2
6 -3 l4 -1 6 3 c4 2 6 2 6 2 1 -1 3 -7 6 -14z m-135 10 c1 0 2 -1 4 -1 1 0 3
0 5 -1 1 0 1 -1 1 -35 0 -27 0 -38 1 -49 1 -9 2 -16 3 -16 0 0 0 2 0 5 -3 18
-4 71 -2 88 l0 7 10 0 c7 0 10 0 11 2 1 1 11 2 12 0 0 -1 5 -1 8 0 1 1 2 0 3
-2 0 -2 2 -4 4 -5 1 -1 4 -2 5 -3 4 -1 15 -2 23 -2 4 1 6 2 8 4 l2 2 3 -4 c2
-2 3 -5 4 -7 1 -11 5 -24 13 -45 8 -23 21 -62 28 -87 1 -6 4 -13 5 -17 3 -6 3
-7 3 -19 0 -12 0 -13 1 -11 l2 3 3 -6 c2 -4 5 -9 8 -12 6 -8 6 -10 0 -26 -3
-8 -4 -9 -16 -18 -5 -3 -8 -5 -8 -6 1 0 3 2 6 4 4 2 6 3 7 3 1 -1 -2 -10 -4
-13 -3 -3 -13 -6 -11 -3 0 1 -6 -2 -13 -6 -5 -3 -9 -4 -24 -2 -7 1 -10 1 -16
0 -5 -1 -8 -1 -11 0 -4 1 -5 2 -6 7 -1 3 -1 3 1 3 0 -1 1 -1 0 0 0 1 -3 3 -7
4 -9 4 -17 12 -18 18 0 2 1 25 2 30 1 0 1 -2 2 -5 1 -3 2 -5 3 -5 0 1 -5 18
-9 32 -2 5 -5 19 -8 31 -8 31 -9 33 -15 40 -4 5 -6 8 -7 13 -1 4 -2 7 -2 6 0
-2 1 -5 1 -8 1 -3 2 -5 2 -5 0 -1 1 -3 3 -6 5 -6 7 -11 9 -19 l2 -7 -4 -19
c-6 -30 -9 -47 -9 -54 0 -3 1 -9 2 -13 2 -7 2 -8 1 -11 -2 -5 -8 -11 -14 -16
-3 -2 -5 -4 -5 -5 0 -4 -3 -6 -13 -7 l-9 -2 -9 3 -9 2 9 2 c5 1 11 2 12 3 1 0
2 0 2 1 -1 0 -19 -3 -33 -6 -7 -2 -14 -3 -16 -3 -1 0 -6 2 -10 4 -7 3 -7 4 -7
6 0 5 1 5 3 4 1 -1 -2 3 -8 9 -10 11 -14 17 -15 23 0 3 0 5 5 12 3 4 6 11 8
15 2 5 3 6 3 4 1 -1 1 5 1 12 -1 20 0 29 5 44 2 7 5 17 7 23 3 12 12 56 13 63
0 4 1 8 4 12 5 9 6 10 7 19 1 5 1 9 2 10 1 1 3 1 5 0 5 0 15 3 19 7 2 1 3 2 4
2 1 1 3 2 3 3 2 4 4 5 9 4 2 0 5 -1 6 -2z m-164 -21 l0 -18 -3 0 c-3 0 -4 0
-5 3 -1 3 -1 23 0 28 1 4 1 4 5 4 l3 0 0 -17z m45 -45 c5 -3 7 -8 5 -18 -1 -5
-2 -12 -2 -15 0 -9 -1 -13 -9 -24 -5 -7 -10 -18 -10 -21 0 0 -3 -2 -6 -3 -8
-3 -17 -11 -20 -19 l-2 -5 -1 5 c-1 8 0 17 3 22 1 2 6 8 10 12 10 10 14 16 14
23 0 5 -2 8 -6 11 l-3 2 3 5 c3 5 3 5 4 3 2 -5 6 -7 12 -6 4 1 11 6 11 8 0 1
-2 0 -4 -2 -5 -4 -9 -6 -13 -4 -11 4 -2 24 11 27 0 0 2 -1 3 -1z m267 -21 c4
-9 4 -10 0 -32 -2 -15 -1 -26 5 -39 2 -3 2 -6 2 -6 -2 1 -5 7 -9 23 -2 9 -5
20 -7 25 l-3 10 3 3 c5 5 6 14 3 23 l-2 5 3 -2 c1 -1 3 -6 5 -10z m-224 3 c0
-6 0 -7 2 -11 l3 -5 -3 -13 c-2 -7 -5 -18 -7 -26 -3 -7 -5 -15 -6 -18 0 -3 -1
-4 -2 -3 -3 0 -9 -2 -13 -5 -5 -4 -7 -10 -7 -18 0 -4 0 -7 0 -7 -2 0 -8 9 -10
13 -3 6 -3 15 0 23 2 4 3 8 3 9 0 1 2 3 5 5 4 4 11 11 14 16 1 1 1 1 3 0 5 -4
11 -1 14 6 1 5 1 5 -1 13 -2 9 -1 15 3 22 1 3 2 5 3 5 0 0 0 -3 -1 -6z m262 2
c5 -3 7 -5 7 -9 0 -7 -5 -14 -11 -14 -5 0 -6 1 -7 8 0 7 2 13 6 15 3 1 3 1 5
0z m-395 -6 c3 -5 2 -53 0 -55 -3 -2 -6 12 -6 27 0 11 2 25 3 28 1 2 3 2 3 0z
m407 -11 c1 -4 1 -10 1 -22 0 -17 1 -18 3 -23 2 -3 5 -8 7 -10 3 -4 3 -4 1 -4
-7 3 -13 7 -16 12 0 2 -2 7 -2 12 -2 10 -4 13 -8 13 -5 0 -6 -4 -6 -17 0 -10
0 -12 2 -15 1 -3 4 -8 6 -12 3 -7 4 -9 4 -14 0 -3 -1 -8 -2 -11 -2 -5 -3 -7
-3 -4 0 2 -4 10 -6 13 l-2 2 3 -1 3 0 -1 2 c-11 14 -14 32 -8 49 1 4 2 11 3
15 l0 8 4 -1 c6 0 11 4 13 12 1 3 2 2 4 -4z m26 3 c3 -3 8 -5 18 -7 3 -1 5 -1
5 -2 1 0 -5 0 -12 0 -11 0 -13 0 -13 2 0 1 -1 3 -2 6 -2 4 -2 4 0 4 1 0 3 -1
4 -3z m-367 -7 c1 -1 2 -2 2 -2 0 -1 -4 -1 -8 -1 l-8 0 4 3 c5 2 8 3 10 0z
m-45 -1 c0 -1 -1 -4 -2 -6 l-2 -5 0 6 c0 5 0 6 2 6 3 1 3 1 2 -1z m-7 -10 l0
-10 -5 0 -4 1 -1 9 0 9 3 0 c8 1 7 2 7 -9z m38 -2 l0 -8 -13 0 -13 0 1 3 c4 6
14 13 21 13 l4 0 0 -8z m16 5 c0 -1 -1 -4 -2 -6 -2 -4 -10 -13 -11 -13 -1 0
-1 5 -1 11 l0 11 7 0 c7 0 7 0 7 -3z m395 2 c2 -2 1 -4 -2 -4 -4 0 -14 -3 -21
-7 l-7 -3 0 5 c0 3 0 7 -1 8 l0 2 15 0 c10 0 15 0 16 -1z m5 -10 c1 -2 1 -3 1
-4 0 0 -3 0 -7 -1 -11 -1 -18 -5 -29 -13 l-2 -1 0 5 c1 6 1 6 11 11 7 4 15 6
21 6 3 0 4 0 5 -3z m32 -4 c24 -14 37 -42 32 -69 -5 -22 -20 -40 -42 -48 -5
-2 -9 -2 -17 -3 -13 0 -20 1 -32 7 -11 5 -22 17 -28 28 -7 14 -8 29 -5 44 2 6
2 6 6 4 2 -1 3 -2 2 -3 -1 -4 -2 -13 -2 -21 2 -22 18 -42 40 -49 8 -2 21 -3
29 0 18 4 33 18 39 36 2 5 2 9 2 18 0 12 -2 20 -8 30 -7 10 -15 17 -26 22 -3
1 -5 2 -5 3 0 1 0 2 0 4 l0 3 6 -2 c3 -1 7 -3 9 -4z m-105 -5 c1 -1 1 -4 2 -6
0 -3 0 -6 1 -8 0 -3 0 -3 -4 -2 l-4 0 0 9 c1 4 1 8 1 9 2 2 4 1 4 -2z m75 1
c0 -1 -2 -2 -7 -2 -8 -1 -20 -6 -26 -12 -5 -4 -6 -5 -6 -3 0 4 13 13 23 16 7
2 16 3 16 1z m23 -4 c12 -6 23 -19 27 -32 3 -8 3 -24 0 -33 -12 -37 -57 -49
-86 -24 -11 11 -17 24 -17 40 0 11 1 18 4 18 1 0 1 -1 1 -2 -5 -14 -3 -27 3
-39 11 -21 35 -31 57 -25 22 5 38 27 38 49 0 19 -12 37 -29 45 -4 2 -8 5 -8 5
0 2 4 1 10 -2z m-28 -16 c0 -8 0 -15 -1 -14 0 0 -4 6 -8 13 -8 14 -8 13 1 16
9 2 9 3 8 -15z m6 12 c-2 -11 -2 -14 -1 -14 1 -1 1 -4 1 -7 0 -4 0 -5 -1 -5
-2 0 -2 -1 -3 15 0 14 0 15 3 15 1 0 1 -1 1 -4z m17 1 c2 -2 2 -2 -6 -15 l-7
-13 -1 7 c0 7 0 8 3 12 1 2 3 5 4 7 1 3 3 4 7 2z m-33 -16 c5 -9 7 -13 6 -13
-1 -1 -2 -1 -2 -1 -1 0 -15 25 -14 26 1 2 3 0 10 -12z m39 12 c1 -1 -13 -26
-14 -26 0 0 -1 0 -2 1 -1 1 -1 1 1 4 1 1 4 7 7 12 5 9 7 11 8 9z m-44 -16 c4
-6 7 -12 6 -12 0 -1 -5 2 -11 6 -14 8 -15 10 -8 16 3 3 5 4 5 3 1 0 4 -6 8
-13z m54 8 l5 -5 -12 -8 c-12 -6 -15 -8 -14 -6 0 1 11 20 13 23 0 1 1 2 2 2 0
0 3 -3 6 -6z m-104 -3 c1 -1 3 -3 5 -5 l2 -2 -1 -6 c-1 -4 -2 -8 -2 -9 0 -4
-2 -3 -2 1 -1 1 -3 6 -6 11 -3 5 -5 10 -5 11 -1 2 -1 2 3 2 4 0 5 0 6 -3z
m-313 -2 c0 -2 -1 -2 -1 -1 -1 1 -1 1 0 2 2 2 2 2 1 -1z m-15 0 c0 -3 -2 -4
-4 -3 -2 1 -2 1 0 3 2 1 4 1 4 0z m13 -4 c0 0 0 -3 0 -4 -1 -4 -1 -4 -4 -3 -2
2 -3 2 0 6 1 3 3 4 4 1z m-17 -1 c2 -2 4 -4 4 -5 1 -3 1 -3 -6 1 -5 3 -6 4 -4
5 1 1 2 1 6 -1z m444 0 c0 0 -2 -2 -4 -3 -3 -2 -8 -5 -13 -8 -5 -3 -9 -5 -9
-4 -2 1 0 4 11 10 11 7 14 8 15 5z m-261 -34 c2 -7 2 -8 0 -11 -3 -4 -3 -4 -5
1 -1 3 -3 6 -6 9 l-5 5 3 15 3 15 4 -14 c2 -7 5 -17 6 -20z m202 22 c1 0 1 -2
1 -2 -1 -2 -2 -2 -5 1 -5 2 -12 9 -12 10 0 1 15 -7 16 -9z m-376 -1 c11 -6 10
-6 -7 -6 l-14 0 0 4 c1 3 1 6 2 8 l2 4 5 -3 c3 -2 9 -5 12 -7z m438 6 c0 -2 1
-5 2 -8 l0 -4 -15 0 c-11 0 -15 0 -14 1 1 1 23 15 24 15 1 0 2 -2 3 -4z m-460
-1 c-2 -6 -2 -23 0 -30 2 -7 8 -16 12 -21 8 -8 23 -15 33 -15 4 0 5 0 5 -1 0
-4 -16 -1 -26 4 -9 4 -19 15 -23 23 -3 7 -6 18 -6 25 0 5 2 13 4 17 3 3 3 3 1
-2z m26 0 c3 -2 4 -6 2 -6 -1 0 -7 5 -6 6 0 2 1 2 4 0z m352 -6 c2 -2 4 -4 5
-4 1 0 0 1 -1 2 -2 0 -3 2 -4 3 -1 2 -1 2 4 0 3 -1 7 -2 8 -2 2 0 4 -1 5 -2
l3 -2 -16 0 c-17 0 -16 0 -14 8 l1 4 3 -2 c1 0 4 -3 6 -5z m43 5 c7 -4 9 -8 9
-15 -1 -12 -12 -19 -23 -13 -5 3 -8 7 -8 13 0 8 3 13 11 16 5 1 6 1 11 -1z
m-357 0 c-1 -1 -2 -2 -2 -1 -1 0 0 2 2 2 1 0 1 0 0 -1z m-4 -3 c7 -9 4 -23 -7
-26 -2 -1 -2 -1 -3 2 -1 2 -1 3 0 3 1 0 2 1 4 3 4 3 4 8 0 13 l-2 3 2 2 c3 3
3 2 6 0z m261 -9 c0 0 -2 0 -5 0 l-4 -1 0 4 c-1 2 -1 4 -2 6 0 1 2 0 5 -3 3
-3 6 -6 6 -6z m-329 -2 c0 0 1 -1 1 -3 0 -5 3 -16 6 -23 4 -8 15 -19 24 -24 7
-4 16 -6 23 -6 4 0 5 0 7 -3 1 -2 2 -4 2 -5 0 -1 -20 1 -26 3 -16 5 -30 18
-37 32 -6 12 -8 26 -6 36 l0 4 2 -5 c1 -3 3 -5 4 -6z m73 9 c-1 -1 -1 -1 -1 0
0 1 0 2 1 2 0 -1 0 -1 0 -2z m-12 -5 c3 -2 3 -7 -1 -10 -2 -2 -2 -2 -3 0 -1 1
-1 9 1 11 0 1 1 1 3 -1z m-23 -4 c0 -2 -1 -2 -15 -2 -12 0 -15 0 -15 1 0 1 0
2 1 2 0 1 7 1 15 1 13 0 14 0 14 -2z m366 0 c0 -2 -1 -2 -15 -2 -12 0 -15 0
-15 1 0 1 0 2 1 2 0 1 7 1 15 1 13 0 14 0 14 -2z m67 0 c0 -2 -1 -2 -15 -2
-14 0 -15 0 -15 2 0 2 1 2 15 2 13 0 15 -1 15 -2z m-135 -3 c4 -4 7 -10 8 -16
0 -4 1 -5 2 -5 2 0 6 6 8 13 2 6 2 6 3 -1 2 -11 8 -24 16 -33 l5 -5 -20 0 -20
0 1 6 0 7 -6 7 c-9 12 -15 26 -12 29 0 1 3 1 6 1 5 0 6 0 9 -3z m-298 -2 c1
-1 -23 -15 -25 -15 -1 0 -4 9 -4 13 l0 3 14 0 c8 0 15 0 15 -1z m14 -9 c3 -2
1 -3 -3 0 -3 1 -8 7 -8 9 0 1 2 -1 4 -3 2 -2 5 -5 7 -6z m352 9 c1 0 -5 -4
-12 -8 l-13 -8 -2 4 c0 2 -1 5 -2 8 l0 5 14 0 c8 0 15 0 15 -1z m66 -2 c0 -4
-3 -14 -5 -13 -2 0 -25 14 -24 15 0 1 7 1 15 1 l14 0 0 -3z m-429 -3 c0 -1 -4
-4 -11 -8 -14 -8 -15 -9 -15 -7 -1 2 0 3 2 4 2 1 8 4 13 7 9 6 10 6 11 4z
m366 0 c0 -1 -5 -4 -13 -9 -10 -6 -12 -7 -13 -6 -1 2 -1 3 0 3 0 0 6 3 12 7 6
4 12 7 13 7 0 -1 1 -1 1 -2z m51 -9 c7 -4 7 -4 6 -6 -1 -1 -3 0 -13 6 -7 4
-13 8 -13 9 0 2 2 2 7 -2 4 -1 10 -5 13 -7z m-385 8 c0 0 0 -1 -1 0 -1 0 -1 1
0 1 0 1 1 1 1 -1z m-36 -15 c-4 -7 -8 -13 -8 -13 -1 -1 -3 1 -7 4 -3 4 -5 6
-5 7 2 1 26 15 26 14 1 0 -2 -6 -6 -12z m35 10 c0 -2 0 -2 -1 0 -2 2 -2 3 -1
3 1 0 2 -2 2 -3z m122 -2 c1 -3 3 -6 3 -9 0 -4 1 -5 2 -5 1 0 3 -2 5 -4 3 -3
4 -5 4 -8 0 -3 0 -5 -1 -5 -2 0 -12 12 -16 20 -4 7 -4 8 -4 12 1 5 3 5 7 -1z
m215 2 c-1 -2 -5 -7 -8 -13 -7 -12 -7 -12 -13 -6 -6 7 -6 6 8 14 12 8 15 9 13
5z m34 -1 c4 -2 10 -6 13 -8 l6 -3 -3 -4 c-1 -1 -4 -4 -5 -5 l-4 -3 -7 13 c-5
7 -8 13 -8 13 0 1 1 1 8 -3z m-373 -4 c0 -3 -2 -3 -4 0 -2 3 -2 4 0 5 1 1 2 1
3 -1 0 -1 1 -3 1 -4z m-22 4 c0 -1 -3 -7 -7 -14 -4 -8 -7 -12 -8 -12 -2 1 -2
3 6 15 4 8 7 12 8 12 0 0 1 -1 1 -1z m366 0 c1 -2 -13 -26 -15 -26 -3 0 -2 3
5 15 5 8 8 12 9 12 0 0 1 -1 1 -1z m27 -11 c7 -12 8 -15 5 -15 -2 0 -16 25
-15 26 1 3 4 0 10 -11z m-389 -21 c-1 0 -13 3 -15 4 -1 1 -1 1 10 20 l5 8 0
-16 c0 -8 0 -16 0 -16z m14 24 c1 -2 1 -3 -2 -8 -2 -3 -3 -5 -4 -5 0 0 0 10 1
20 0 1 4 -5 5 -7z m352 -9 l0 -15 -3 1 c-4 0 -12 3 -13 4 0 0 2 4 6 10 8 14 9
16 10 16 0 0 0 -7 0 -16z m17 3 c4 -7 8 -13 8 -13 0 -1 -7 -3 -13 -5 l-3 0 0
15 c-1 13 -1 16 0 16 1 0 4 -6 8 -13z m-377 2 c1 -11 -1 -20 -3 -20 -1 0 -1 4
-1 15 0 14 0 15 2 15 2 0 2 -1 2 -10z m366 -5 c0 -14 0 -15 -2 -15 -2 0 -2 1
-2 15 0 14 0 15 2 15 2 0 2 -1 2 -15z m-226 -11 l5 -5 -10 0 -9 0 0 10 c0 5 1
10 1 11 1 1 2 -1 5 -5 2 -3 5 -8 8 -11z m11 10 c0 -2 0 -2 -3 1 -2 2 -3 3 -3
5 1 1 1 1 4 -2 1 -1 2 -3 2 -4z m-2 -20 c-1 -2 -1 -4 -1 -6 0 -2 0 -2 -9 -2
-10 1 -9 0 -11 8 l-1 3 11 0 11 0 0 -3z m176 1 c2 -1 6 -4 9 -6 l7 -3 -33 0
c-26 0 -33 0 -33 1 1 1 2 3 2 6 l2 4 22 0 c20 0 21 0 24 -2z m-177 -14 c1 -2
0 -2 -10 -2 -5 0 -10 0 -10 0 0 3 2 4 10 4 9 0 10 0 10 -2z m5 -9 c2 -2 6 -6
8 -8 l5 -3 -27 0 -28 0 6 5 c3 3 7 6 8 8 l1 3 12 0 12 0 3 -5z m-274 -17 c0
-2 -1 -4 -1 -4 -2 -1 -27 -1 -30 0 -3 0 -2 4 1 6 2 2 4 2 17 2 l14 0 -1 -4z
m11 4 c0 -1 -2 -2 -4 -4 -5 -3 -5 -3 -5 -1 0 3 3 5 6 5 2 0 3 0 3 0z m82 -2
c-1 0 -1 -3 -1 -4 l0 -3 -16 0 c-9 1 -17 1 -17 1 0 0 0 1 0 2 0 1 1 3 3 4 2 2
4 2 17 2 13 0 14 0 14 -2z m5 -2 c-3 -3 -4 -3 -4 -1 0 3 2 5 5 5 l2 0 -3 -4z
m171 2 c1 -1 1 -3 1 -4 l0 -3 -16 0 c-10 0 -16 0 -17 1 0 1 0 3 0 5 l1 3 15 0
c14 0 15 0 16 -2z m137 0 c1 -1 2 -2 2 -3 0 -2 0 -2 -3 1 -2 1 -4 3 -4 3 0 2
3 1 5 -1z m34 0 c2 -1 3 -3 3 -4 0 -2 -1 -2 -16 -2 l-17 0 0 3 c0 1 -1 3 -1 4
-1 1 2 1 13 1 14 0 15 0 18 -2z m64 1 c1 -1 1 -3 1 -4 0 -2 -1 -2 -5 2 l-4 3
3 0 c2 0 4 -1 5 -1z m33 -1 c2 -1 3 -3 3 -4 0 -3 -4 -3 -19 -3 l-13 1 -1 4 -1
4 14 0 c13 0 14 0 17 -2z m-342 -5 c6 -2 9 -2 15 -2 l7 1 -1 -3 c0 -1 0 -6 -1
-10 -2 -11 -4 -20 -10 -35 -4 -7 -6 -14 -7 -16 0 -2 -1 -3 -2 -3 -1 1 -1 0 -1
-1 0 -7 -5 -11 -13 -10 -5 1 -7 2 -7 6 0 2 2 4 6 4 5 1 9 4 11 9 2 6 1 14 -2
18 l-1 3 -1 -5 c-2 -8 -6 -13 -12 -13 -5 1 -5 3 0 8 5 6 6 11 4 17 -1 5 -3 8
-7 10 -4 1 -5 1 -3 -3 3 -6 0 -12 -5 -12 -2 0 -2 1 -4 4 -3 7 1 18 9 22 l4 3
-4 0 c-5 0 -10 -2 -14 -6 l-3 -3 0 9 c0 9 0 9 2 9 5 -2 10 -2 17 0 9 2 13 2
23 -1z m180 -5 c0 -10 -1 -45 -3 -41 -1 2 -2 1 -2 -2 0 -3 -2 -9 -3 -9 -1 0
-2 0 -2 -1 -1 0 -2 1 -3 2 -1 2 0 3 2 10 6 13 5 23 -3 30 -5 4 -14 6 -18 4 -1
-1 0 -1 3 -3 4 -2 7 -6 9 -13 1 -6 0 -10 -4 -11 -4 0 -6 2 -6 9 0 3 0 5 0 5
-3 0 -9 -9 -9 -15 0 -4 1 -6 7 -12 5 -6 5 -8 1 -9 -4 0 -7 2 -9 7 l-3 6 -1 -3
c-1 -4 -1 -11 0 -14 2 -4 5 -6 9 -7 4 0 6 -2 6 -4 0 -2 -4 -5 -7 -5 -4 0 -7 4
-9 11 0 4 -3 12 -6 18 -8 17 -11 24 -13 33 -3 13 -3 13 4 15 4 1 8 0 19 -1
l13 -1 8 4 c8 4 10 4 17 5 2 0 2 -1 3 -8z m-210 -8 c-4 -5 -6 -9 -6 -16 0 -4
0 -6 2 -8 3 -3 6 -3 9 0 3 3 3 6 2 10 -1 4 -1 4 2 2 3 -2 5 -7 5 -12 0 -5 -1
-7 -5 -11 -3 -4 -4 -6 -3 -9 1 -1 2 -2 4 -2 7 0 13 5 14 12 l0 5 2 -3 c2 -5 1
-9 -2 -15 -2 -5 -4 -6 -11 -8 -5 -1 -7 -6 -3 -10 6 -5 18 -3 20 3 l2 3 0 -5
c1 -5 1 -6 -1 -10 -3 -4 -4 -5 -7 -6 -5 -1 -9 1 -16 6 -8 4 -14 6 -17 6 -2 -1
-2 -1 1 -1 l3 0 -4 -2 c-4 -1 -5 -1 -6 3 0 3 0 5 2 7 2 2 3 5 3 7 1 2 2 5 3 7
2 3 2 3 1 8 -3 6 -4 12 -5 24 0 9 0 10 2 12 2 3 9 7 11 7 1 0 0 -2 -2 -4z
m190 -2 c5 -2 7 -4 9 -8 3 -7 3 -14 -1 -22 -4 -9 -4 -14 2 -14 2 0 6 4 6 8 0
1 0 2 1 1 1 0 1 -2 0 -6 0 -5 -1 -6 -5 -10 -2 -3 -4 -5 -4 -6 0 -2 4 -5 7 -5
1 0 3 1 4 2 2 2 2 2 3 -1 1 -2 1 -3 0 -7 -2 -5 -2 -5 -12 -3 l-4 0 4 2 4 1 -6
0 c-5 -1 -11 -3 -17 -8 -3 -2 -5 -3 -8 -3 -3 0 -4 1 -6 5 -3 3 -3 5 -3 8 1 3
3 4 3 2 0 -2 7 -4 9 -3 2 0 4 1 5 3 2 2 2 2 1 5 -1 2 -2 3 -8 4 -4 1 -7 6 -7
13 l0 5 1 -4 c2 -4 7 -7 10 -7 6 0 7 6 1 12 -2 2 -4 4 -5 6 -2 3 -1 9 1 13 l2
5 1 -5 c1 -6 3 -9 7 -9 9 0 9 18 0 25 -3 3 -3 3 -1 3 1 0 4 -1 6 -2z m-197
-41 c0 -2 0 -4 -1 -4 -1 -1 -1 1 -1 5 0 7 2 6 2 -1z m215 -18 c-2 -2 -8 -1 -8
1 0 1 2 3 4 5 l4 4 0 -4 c1 -3 1 -5 0 -6z m-201 -16 c3 -2 8 -4 10 -5 l4 -1
-3 -6 c-2 -4 -7 -16 -9 -18 0 0 -2 2 -4 5 -10 10 -20 13 -31 8 -3 -1 -6 -2 -6
-2 -1 2 2 6 5 9 2 1 7 5 11 8 3 3 7 6 9 6 3 1 7 0 14 -4z m197 1 c2 -1 5 -2 6
-3 0 -2 3 -5 5 -8 l3 -5 -2 -3 c-2 -2 -3 -5 -4 -6 -2 -4 -3 -4 -10 1 -2 1 -6
3 -7 4 -5 0 -11 -2 -15 -6 -2 -4 -2 -4 -4 8 -2 9 -2 11 0 11 1 0 4 2 7 4 3 1
6 3 7 4 3 1 8 0 14 -1z m-177 -12 c-4 -11 -10 -20 -14 -20 -1 0 -2 0 -2 1 0 0
1 3 3 6 2 3 5 8 6 12 2 5 4 7 5 7 1 0 3 1 3 0 0 0 -1 -2 -1 -6z m4 -7 c0 -5 0
-8 -1 -9 -1 -1 -10 -4 -11 -3 0 0 1 2 3 4 3 5 7 15 7 18 0 2 0 2 1 0 1 -1 1
-6 1 -10z m144 -4 c1 -10 1 -13 -2 -7 -1 4 -3 18 -1 21 0 1 0 1 1 -1 0 -2 1
-8 2 -13z m-208 9 c0 -1 -1 -2 -1 -3 0 -1 -1 -3 -3 -5 l-3 -3 0 5 c0 3 0 4 3
5 3 2 6 3 4 1z m28 -7 c5 -2 12 -9 12 -11 0 -2 -5 -1 -9 1 -9 6 -21 9 -28 7
-2 0 -4 -1 -4 0 0 0 10 5 13 6 4 1 11 0 16 -3z m231 1 l2 -3 -4 -1 c-3 -1 -6
-3 -8 -5 -1 -2 -3 -3 -3 -3 -2 0 1 8 4 12 3 3 5 3 9 0z m-268 -4 c1 -3 1 -3
-3 -5 -3 -1 -5 -5 -3 -7 0 -1 -1 -1 -6 -1 -6 1 -7 2 -7 6 0 2 1 3 5 4 2 1 7 3
9 4 2 2 5 3 5 3 0 0 0 -2 0 -4z m214 -7 c1 -2 1 -2 -1 -2 -1 0 -2 2 -2 7 0 5
0 5 1 1 0 -2 1 -5 2 -6z m-208 7 c-1 -1 -2 -2 -2 -2 0 1 2 4 3 4 1 0 0 -1 -1
-2z m234 1 c1 -1 4 -3 6 -5 l3 -3 -4 1 c-8 4 -16 2 -21 -3 -1 -2 -3 -3 -3 -3
-2 0 -1 4 2 7 5 7 11 9 17 6z m-214 -3 c7 -2 16 -7 15 -8 -3 -2 -18 -4 -28 -5
-13 0 -17 1 -17 4 0 3 1 4 10 7 7 3 14 4 20 2z m249 -4 c5 -4 7 -8 5 -11 -2
-1 -16 -3 -20 -3 -2 1 -3 2 -4 5 -1 4 -1 4 2 7 3 4 10 7 11 6 1 0 3 -2 6 -4z
m-30 -2 c5 -2 9 -6 9 -8 0 -3 -2 -4 -10 -4 -8 0 -16 2 -19 5 l-2 2 3 3 c6 5
12 6 19 2z m-171 0 c0 -4 -2 -5 -15 -7 -6 0 -17 -2 -24 -4 -17 -3 -37 -3 -47
-1 -7 2 -7 2 -7 5 0 1 0 1 1 1 6 -1 18 -2 29 -2 10 0 15 0 25 2 7 2 17 4 22 4
5 0 10 1 12 2 4 2 4 2 4 0z m179 0 c1 -1 1 -2 0 -2 0 0 -1 1 -2 2 -1 1 -1 2 0
2 0 0 1 -1 2 -2z m-31 -7 c4 -4 11 -6 21 -7 5 0 10 0 10 1 2 0 4 0 6 0 4 -1
13 0 20 2 2 0 2 0 2 -2 0 -4 -9 -6 -27 -6 -17 0 -25 2 -31 6 -2 1 -5 3 -7 4
-4 1 -5 2 -5 4 l0 3 4 -2 c3 -1 5 -2 7 -3z M302 763 c-2 -3 -4 -4 -4 -4 -1 0 -1 0 -1 -1 0 -2 1 -2 4 2 4 4 7 7
6 4 0 -1 -1 -3 -1 -4 -1 -2 -1 -2 0 -1 1 1 2 2 1 2 0 1 0 2 1 3 2 4 -1 3 -6
-1z M294 763 c1 -2 3 -3 3 -2 0 0 -1 1 -2 3 l-3 3 2 -4z M311 763 c-1 -1 -2 -1 -2 -2 1 0 2 1 4 1 3 2 2 2 -2 1z M286 761 c2 0 3 -1 3 -1 1 0 1 1 -1 1 -1 1 -2 2 -2 2 -1 0 -1 -1 0
-2z M263 755 c2 -1 4 -1 2 0 -1 1 -2 1 -3 1 -1 0 -1 0 1 -1z M295 752 c1 -2 2 -3 2 -2 0 1 -1 2 -1 3 -2 1 -2 1 -1 -1z M265 749 c1 -2 0 -2 -3 -1 -2 1 -3 1 -3 0 1 -1 8 -3 9 -2 0 0 -1 2
-2 3 -2 1 -2 1 -1 0z M341 750 c0 -1 4 -2 4 -1 1 0 0 1 -2 1 -1 0 -2 0 -2 0z M280 748 c0 -2 2 -4 4 -5 l4 -3 -4 4 c-2 2 -4 4 -4 5 -1 0 -1 0 0 -1z M312 746 l-2 -2 2 2 c3 2 3 3 3 3 -1 0 -2 -1 -3 -3z M353 745 l-3 -4 4 3 c2 2 3 4 3 4 0 0 -2 -1 -4 -3z M257 747 c2 -2 2 -2 -2 -2 -4 -1 -4 -1 2 -1 6 0 6 0 1 3 -2 1 -2 1
-1 0z M341 747 c-1 -1 0 -1 4 -1 3 0 5 0 5 0 -1 1 -8 2 -9 1z M248 745 c0 -2 10 -9 12 -9 1 0 -1 1 -3 3 -6 3 -8 5 -7 6 0 1 0 1 -1
1 -1 0 -1 0 -1 -1z M315 744 c-1 -1 -1 -1 1 0 3 2 4 2 2 2 0 0 -1 -1 -3 -2z M276 744 c0 -1 1 -1 2 -2 1 -1 1 -1 0 0 -1 2 -2 2 -2 2z M330 741 c1 0 3 0 3 0 1 1 0 1 -1 1 -2 0 -3 0 -2 -1z M345 739 c-4 -2 -4 -2 -2 -2 1 0 3 1 4 2 3 2 3 2 -2 0z M349 737 c0 0 2 0 2 0 1 1 0 1 -1 1 -1 0 -2 0 -1 -1z M256 735 l3 -1 -3 -1 c-2 -1 -2 -1 0 -1 2 0 5 2 4 2 0 1 -2 1 -4 1
l-3 1 3 -1z M347 735 c-1 -1 0 -1 1 -1 0 0 1 0 1 1 -1 1 -1 1 -1 1 -1 0 -1 0 -1
-1z M351 733 c2 -1 2 -1 -1 -2 l-2 -1 2 1 c2 0 4 1 5 2 2 1 2 1 -2 1 -2
0 -3 0 -2 -1z M342 721 c0 0 2 -2 4 -3 l4 -3 -3 3 c-2 2 -4 3 -4 3 -1 0 -1 0 -1 0z M261 672 c-1 -1 -1 -1 0 -1 1 0 1 0 1 1 0 1 0 1 0 1 -1 0 -1 0 -1 -1z M259 665 c-1 -3 -2 -5 -1 -5 0 0 4 8 4 9 0 0 -1 -1 -3 -4z M263 664 c-2 -2 -3 -4 -3 -5 0 -1 1 0 2 2 l2 4 2 -5 c0 -2 1 -5 1 -5
0 -2 2 2 2 4 0 1 0 1 -1 0 -1 -1 -1 -1 -1 1 -1 1 -1 4 -1 6 l0 3 -3 -5z M337 667 c-1 -2 2 -12 4 -14 1 -1 2 -1 2 0 0 0 0 1 -1 1 -1 0 -4 7
-4 12 0 2 -1 2 -1 1z M270 660 c1 -3 1 -4 1 -1 0 2 0 3 -1 4 -1 0 -1 -1 0 -3z M272 718 l0 -5 -4 2 c-5 2 -5 2 -2 -3 3 -3 8 -7 11 -7 1 0 1 -1 0 -1
-2 -1 -2 -1 0 -1 2 1 3 0 2 0 0 -1 0 -1 1 -1 2 1 6 -1 6 -2 -1 0 0 -2 1 -3 l3
-1 -2 2 c-2 2 -2 3 1 1 2 -1 2 -1 0 4 -1 2 -4 6 -7 8 -3 2 -6 6 -8 8 l-2 5 0
-6z M323 720 c-2 -4 -3 -5 -10 -9 -3 -2 -9 -11 -9 -13 0 -1 2 0 4 2 3 2
6 3 8 3 2 0 3 1 2 1 0 0 2 1 4 2 4 0 6 1 10 6 5 5 7 8 2 5 -1 -1 -4 -2 -6 -3
l-3 0 1 4 c0 3 0 5 0 5 -1 0 -2 -2 -3 -3z M323 704 c1 0 3 0 3 0 1 1 0 1 -1 1 -2 0 -3 0 -2 -1z M335 704 c0 -1 -5 -1 -10 -1 -8 0 -15 -2 -15 -4 0 0 1 1 3 1 4 3 5 2
1 0 -3 -3 -6 -10 -5 -12 0 -2 14 -1 17 1 2 0 3 1 3 2 0 1 1 1 1 1 1 0 1 0 1 1
0 1 0 2 1 2 0 -1 1 0 0 1 0 1 1 3 3 5 2 3 3 5 0 3z m-10 -9 c1 -4 -5 -7 -8 -3
-1 0 -2 1 -2 0 0 -1 3 -3 6 -3 4 0 7 7 4 10 -1 1 -1 1 2 1 4 0 4 -1 2 -6 -2
-5 -5 -6 -13 -6 l-7 0 1 3 c1 1 2 4 3 5 2 1 2 1 1 -1 0 -1 0 -1 1 1 1 1 3 3 4
3 2 1 5 -1 6 -4z M322 695 c0 -1 0 -2 -2 -2 l-2 -1 2 0 c2 0 4 3 2 4 -1 1 -1 1 0 -1z M264 703 c0 0 1 -1 2 -2 1 -1 1 -3 1 -5 0 -2 1 -3 1 -2 1 1 1 1 1 0
0 -3 0 -4 1 -5 1 0 2 -1 3 -1 2 -1 18 -1 17 -1 0 1 -4 1 -8 1 -8 1 -10 2 -12
7 -2 4 0 5 4 5 3 0 4 -1 2 -3 -1 0 -2 -2 -2 -3 0 -1 0 -1 1 1 3 4 6 4 10 -2 3
-2 4 -4 4 -3 -1 1 -1 3 -1 3 0 0 -1 2 -3 4 -1 2 -2 3 -2 4 0 0 -3 1 -8 1 -5 0
-9 1 -10 1 0 1 -1 1 -1 0z M292 696 c0 -1 0 -2 1 -2 0 1 0 2 -1 2 -1 1 -1 1 0 0z M277 695 c-1 -2 2 -4 4 -3 1 0 2 1 2 2 -1 2 -3 1 -2 -1 0 -1 -1 -1
-1 -1 -1 1 -1 1 -1 2 0 2 -1 2 -2 1z M275 691 c0 -1 2 -2 3 -2 0 1 -1 1 -1 2 -1 1 -2 1 -2 0z M283 690 c-1 -1 -1 -1 0 0 1 1 2 1 2 2 0 0 -1 0 -2 -2z M294 679 c0 -1 0 -2 1 -1 0 0 0 2 0 2 -1 1 -1 0 -1 -1z M293 674 c-1 -1 -1 -1 0 -1 1 0 1 0 1 -1 0 -1 0 -1 1 -1 0 1 1 0 1 0
1 -1 1 -1 1 0 0 1 -4 4 -4 3z M301 673 c-1 -1 0 -1 0 0 2 0 2 1 1 1 0 0 -1 0 -1 -1z M285 667 c0 -2 9 -9 12 -9 4 -1 11 1 15 5 3 2 4 4 4 4 0 0 -5 0 -11
0 -7 -1 -12 -1 -15 0 -3 0 -5 0 -5 0z m27 -2 c-1 -1 -2 -2 -3 -2 -1 0 -2 -1
-2 -1 0 -1 -1 -2 -4 -3 -3 -1 -4 -1 -7 0 -2 1 -2 1 4 2 l7 1 -8 0 c-5 0 -8 0
-9 1 -1 2 0 2 8 2 5 0 11 1 12 1 3 0 3 0 2 -1z M296 654 c0 0 1 -1 1 -2 1 0 1 0 1 1 -1 1 0 1 2 1 2 0 3 0 2 -1 0 -1
0 -1 1 -1 2 2 1 3 -3 3 -2 0 -4 0 -4 -1z M349 692 c0 -4 1 -5 1 -2 0 1 0 3 -1 4 -1 1 -1 0 0 -2z M355 680 c0 -1 0 -2 1 -3 1 -1 1 -1 1 0 0 0 0 1 -1 2 -1 1 -1 1 -1 1z M358 667 c0 -2 7 -10 9 -10 1 0 0 1 -2 2 -2 1 -4 4 -5 6 -1 2 -2 3
-2 2z M358 655 c0 -1 1 -1 2 -1 0 1 -1 1 -2 1 -1 1 -1 1 0 0z M362 653 c1 0 3 0 4 0 1 1 0 1 -2 1 -2 0 -3 0 -2 -1z M368 646 c5 -6 8 -9 8 -8 0 0 -2 3 -6 7 l-6 7 4 -6z M339 631 c-1 -2 -2 -4 -2 -4 -1 0 -1 -1 -1 -2 0 -2 3 1 4 4 l0 4 2
-3 c0 -2 1 -3 1 -2 0 0 -1 2 -1 4 l-2 3 -1 -4z M347 629 c0 -3 -1 -6 -1 -8 l-1 -2 -1 4 c-1 3 -1 3 -1 -2 0 -3 0 -5
1 -5 2 2 4 8 4 12 0 3 0 3 2 1 0 -1 1 -2 1 -2 0 1 -3 7 -4 7 0 0 0 -2 0 -5z M354 627 c0 -4 1 -5 1 -2 0 1 0 3 -1 4 -1 1 -1 0 0 -2z M256 633 c-1 -1 -1 -5 1 -13 0 -3 0 -3 1 -1 1 2 1 4 0 2 -1 -1 -1 0
-1 6 1 4 1 7 1 7 0 0 -1 0 -2 -1z M262 630 c0 -1 -1 -2 0 -3 0 -1 1 0 1 1 1 3 1 4 -1 2z M275 621 c0 -3 6 -16 8 -19 1 -1 0 1 -2 5 -2 4 -4 9 -5 12 0 2 -1 3
-1 2z M253 498 c0 -1 18 -8 22 -8 1 0 -1 1 -5 2 -3 1 -8 3 -11 4 -4 2 -6 3
-6 2z M361 598 c11 -18 20 -29 32 -39 8 -8 37 -28 39 -28 1 0 -5 4 -14 10
-27 18 -37 28 -54 54 -4 7 -7 10 -3 3z M349 569 c0 -1 0 -2 1 -3 1 -1 1 -1 1 0 0 0 0 1 -1 2 -1 1 -1 1 -1 1z M351 564 c0 -3 12 -26 20 -37 8 -13 32 -48 36 -51 4 -6 -4 7 -14 21
-21 30 -28 40 -35 54 -4 7 -7 13 -7 13z M461 455 c0 -1 0 -2 1 -1 0 0 0 2 0 2 -1 1 -1 0 -1 -1z M232 589 c-16 -22 -20 -30 -9 -14 13 16 22 30 21 30 0 0 -6 -7 -12
-16z M166 457 c0 -1 0 -6 0 -10 0 -10 -2 -15 -14 -26 -6 -6 -9 -9 -11 -13
-2 -4 -3 -7 -3 -8 0 0 -2 -2 -4 -4 -4 -5 -3 -5 2 -1 1 1 4 5 5 8 2 7 6 12 13
18 11 9 16 19 15 30 l-1 6 3 -6 c5 -10 2 -22 -7 -32 -6 -8 -9 -13 -9 -18 0
-16 17 -11 21 5 1 3 1 7 1 8 -1 3 -1 3 0 0 2 -5 2 -4 1 3 -1 3 -2 5 -2 5 -1 0
-1 -3 -1 -8 0 -11 -4 -19 -12 -21 -2 0 -3 0 -5 3 -4 4 -2 9 9 24 6 8 8 15 8
23 -1 7 -5 14 -8 16 -2 1 -2 1 -1 -2z M294 616 c-2 -3 -1 -6 2 -8 5 -2 9 4 5 8 -2 3 -6 2 -7 0z m6 -1 c2
-1 2 -2 1 -4 -2 -3 -7 -2 -7 2 0 2 2 4 4 4 0 0 2 -1 2 -2z M288 574 c-4 -2 -1 -9 4 -9 2 0 5 3 5 6 0 1 -4 5 -5 5 -1 0 -3 -1 -4
-2z m7 -3 c0 -5 -3 -6 -6 -3 -3 3 -1 6 3 6 2 0 3 -1 3 -3z M290 543 c1 0 1 0 2 0 0 1 -1 1 -2 1 -1 0 -1 0 0 -1z M301 541 c10 -2 14 -2 5 0 -4 1 -9 2 -10 2 -2 0 0 -1 5 -2z M287 531 c-3 -2 -2 -4 0 -6 4 -4 9 -2 9 3 0 3 -3 5 -5 5 -2 0 -4 -1
-4 -2z m7 -1 c2 -4 -3 -8 -6 -5 -1 1 -1 5 0 6 1 2 5 1 6 -1z M321 501 c-1 0 -8 -2 -16 -4 -7 -1 -13 -3 -12 -3 2 -1 31 6 33 7 1 1
-2 1 -5 0z M285 488 c-1 -2 -1 -3 0 -5 1 -1 2 -3 3 -3 3 0 7 3 7 5 0 1 1 3 4 4
1 0 3 1 3 1 0 1 -5 -1 -7 -1 0 -1 -1 0 -2 1 -2 2 -6 1 -8 -2z m7 0 c3 -3 1 -6
-3 -6 -3 1 -4 5 -1 7 2 1 3 1 4 -1z M226 463 c0 0 0 -1 1 -1 1 -1 1 0 0 0 0 2 -1 2 -1 1z M229 451 c0 -1 0 -2 1 -2 0 1 0 2 -1 2 -1 1 -1 1 0 0z M224 450 c0 -1 0 -2 1 -3 1 -1 1 -1 1 0 0 0 0 1 -1 2 -1 1 -1 1 -1 1z M220 445 c0 -1 0 -2 1 -2 0 1 0 2 -1 2 -1 1 -1 1 0 0z M222 441 c0 -1 1 -1 2 -1 0 1 -1 1 -2 1 -1 1 -1 1 0 0z M353 457 c0 0 -2 -1 -2 -2 -1 -2 -1 -2 1 0 2 1 3 2 3 3 0 0 0 0 -2
-1z M360 451 c-1 0 -1 -1 -1 -1 0 -1 1 0 2 1 1 2 1 3 -1 0z M275 467 c-2 -5 -2 -10 -1 -14 1 -4 1 -5 6 -5 8 -1 17 -1 19 0 1 1 3
16 1 18 0 0 -6 1 -13 1 -9 1 -12 1 -12 0z m24 -2 c0 -1 -4 -1 -11 -1 -7 0 -12
0 -12 1 0 1 5 1 12 1 7 0 11 0 11 -1z m0 -3 c0 -1 -1 -2 -1 -2 -1 0 -2 -1 -2
-2 0 -1 1 -2 2 -3 0 0 1 -1 1 -2 0 -2 0 -2 -11 -2 -13 1 -12 0 2 -1 l10 -1
-11 0 c-12 1 -16 1 -13 3 1 1 1 1 0 1 0 0 -1 0 -1 1 0 1 1 1 2 1 4 0 6 2 3 4
0 1 -2 2 -3 2 -1 0 -2 0 -2 1 0 1 5 1 12 1 10 0 12 0 12 -1z m-19 -4 c0 -1 -1
-1 -3 -1 -2 0 -3 0 -3 1 0 1 1 1 2 1 2 0 3 0 4 -1z m19 0 c0 -1 0 -1 -1 -1 -1
0 -1 0 -1 1 0 1 0 1 0 1 1 0 1 0 2 -1z M426 441 c-1 -5 1 -11 4 -16 2 -2 4 -8 5 -11 5 -11 4 -27 -2 -37 -1
-2 -2 -3 -2 -4 1 -1 6 9 7 14 4 13 2 23 -6 37 -4 8 -4 9 -4 15 0 3 -1 6 -1 6
0 0 0 -2 -1 -4z M289 434 c0 -4 1 -19 2 -32 1 -14 2 -31 3 -38 0 -11 1 -13 1 -9 1 3
0 12 -1 22 0 10 -2 28 -3 41 -1 12 -2 19 -2 16z M275 434 c0 -2 0 -3 1 -2 0 1 0 3 0 3 -1 1 -1 0 -1 -1z M247 432 c-1 -1 -1 -2 -1 -3 0 0 -2 -6 -5 -13 -4 -11 -5 -15 -7 -29
-1 -9 -2 -18 -2 -19 0 -1 1 5 2 13 3 17 4 24 8 33 3 7 7 21 6 21 0 0 0 -1 -1
-3z M274 423 c-1 -4 -2 -19 -4 -32 -2 -17 -3 -26 -2 -28 1 -3 1 -1 1 7 1
6 2 20 3 32 2 12 3 23 3 25 0 2 -1 1 -1 -4z M331 422 c0 -1 6 -32 10 -47 6 -24 14 -54 18 -68 1 -2 3 -10 5 -17 2
-8 7 -24 11 -36 3 -12 6 -25 7 -28 0 -4 1 -8 2 -10 l2 -3 -4 -2 c-23 -9 -30
-12 -38 -10 -2 1 -4 1 -5 1 0 -1 2 -1 5 -2 8 -2 13 0 30 6 6 3 13 5 13 5 1 0
3 -2 4 -5 4 -6 4 -11 1 -21 l-3 -8 -3 -1 c-2 0 -10 1 -18 2 -8 2 -14 3 -15 3
-2 0 13 -4 21 -5 13 -3 16 -3 21 0 6 3 8 5 2 2 -3 -1 -5 -2 -6 -2 0 0 1 5 3
11 2 8 2 10 1 14 -1 2 -2 6 -4 8 -1 2 -2 3 -2 3 0 1 5 2 10 4 4 2 10 4 13 6 4
2 10 8 8 8 0 0 -2 -1 -3 -3 -1 -1 -4 -3 -6 -4 -4 -2 -22 -9 -23 -9 -2 0 -4 5
-5 12 -1 4 -3 13 -5 21 -2 8 -6 23 -9 34 -3 11 -8 26 -10 34 -6 18 -13 45 -23
87 -3 18 -5 24 -5 20z M231 364 c0 -1 0 -1 1 0 0 1 0 1 0 2 -1 0 -1 -1 -1 -2z M269 359 c0 -1 0 -2 1 -3 1 -1 1 -1 1 0 0 0 0 1 -1 2 -1 1 -1 1 -1 1z M260 352 c2 -3 16 -16 20 -19 3 -2 3 -2 0 2 -3 2 -9 7 -13 12 -5 5
-8 7 -7 5z M226 333 c-5 -19 -7 -33 -8 -57 l-2 -22 -7 -15 c-7 -14 -7 -15 -7
-22 0 -6 0 -7 4 -16 3 -5 5 -9 5 -10 0 -1 -3 -1 -6 -1 -5 0 -6 0 -5 -1 4 -2
13 -1 33 3 13 3 17 4 13 3 -4 0 -13 -1 -19 -3 -14 -2 -15 -2 -15 0 0 1 -2 6
-5 12 -7 13 -7 14 3 34 l7 14 2 18 c2 28 3 40 8 60 3 15 2 18 -1 3z M206 184 c-1 -3 0 -10 2 -12 1 0 1 0 1 2 -1 1 -2 4 -2 7 -1 5 -1 5
-1 3z M527 274 c-3 -2 -5 -7 -5 -10 1 -4 5 -7 10 -7 2 0 4 0 6 3 2 2 3 4 3
5 0 3 -3 8 -5 9 -2 1 -7 1 -9 0z m9 -4 c2 -2 3 -4 2 -5 -1 -4 -3 -6 -6 -6 -7
0 -10 7 -5 12 4 3 6 3 9 -1z M527 653 c-1 -1 -3 -3 -4 -4 -1 -2 -1 -20 -1 -72 l0 -69 3 -3 2 -3
37 0 c23 0 36 0 36 1 0 1 -13 1 -36 1 -34 0 -36 0 -37 2 -2 2 -2 7 -2 71 0 39
0 71 1 72 0 0 1 1 2 2 2 0 18 0 37 0 26 0 34 1 35 2 0 2 -68 1 -73 0z M539 641 c-3 -2 -4 -6 -4 -19 l1 -11 32 -1 c21 0 32 0 32 1 0 1 -11
1 -31 1 l-31 0 0 12 c0 9 0 13 1 14 1 1 9 1 31 1 26 0 30 0 30 2 0 1 -4 1 -29
1 -19 0 -30 -1 -32 -1z M535 560 l1 -43 2 -2 c2 -2 4 -2 32 -2 19 0 30 0 30 1 0 1 -10 1 -29
1 -18 0 -30 0 -31 1 -2 1 -2 3 -2 44 l0 42 31 0 c20 0 31 0 31 1 0 1 -12 1
-33 1 l-32 0 0 -44z M500 169 c-3 -2 -5 -5 -3 -6 3 -2 12 -1 12 2 0 4 -5 6 -9 4z m7 -3
c0 -1 -3 -2 -6 -2 -3 0 -3 2 0 3 3 1 6 0 6 -1z M62 164 c-3 -4 1 -7 6 -5 5 2 3 6 -2 6 -1 0 -3 -1 -4 -1z m7 -2 c0
-1 -3 -2 -5 -2 -2 1 0 3 2 3 1 0 2 0 3 -1z M75 158 c-1 -1 -2 -3 -2 -3 0 -2 5 -3 8 -3 4 1 5 4 2 6 -3 3 -6 2 -8
0z m7 -1 c0 -1 1 -2 1 -2 0 -1 -5 -1 -7 0 -1 1 -1 1 1 2 2 1 3 1 5 0z M135 144 c-7 -4 -8 -5 -6 -8 2 -1 4 -2 13 -2 10 0 11 0 12 2 0 2 -2
6 -5 8 -4 3 -8 3 -14 0z m15 -4 c1 -1 2 -3 2 -3 0 -1 -16 -1 -20 0 -3 1 -2 2
4 5 6 3 10 3 14 -2z M547 134 c-4 -4 -3 -6 2 -6 5 0 7 1 7 3 0 2 -3 5 -5 5 -1 0 -3 -1 -4
-2z m7 -3 c0 -1 -1 -1 -4 -1 -4 0 -4 0 -3 2 2 1 6 1 7 -1z M315 128 c-7 -3 -10 -8 -6 -10 1 0 5 0 9 0 11 0 12 1 7 8 -2 4 -4 5
-10 2z m9 -3 c1 -2 2 -3 2 -4 -1 -1 -5 -1 -9 -1 -7 0 -8 0 -8 2 1 0 1 1 1 2 0
0 8 4 10 4 1 0 3 -1 4 -3z M565 120 c-1 -1 -2 -2 -2 -3 0 -2 1 -3 6 -3 7 0 8 1 6 5 -1 2 -6 3
-10 1z m9 -3 c0 -1 -1 -1 -4 -1 -3 0 -5 0 -5 1 0 2 8 2 9 0z M501 109 c-4 -1 -15 -12 -15 -14 0 -3 7 -5 19 -6 10 0 11 0 11 -2 0
-4 13 -5 20 -2 2 1 1 4 -2 7 -3 3 -4 4 -7 4 -3 0 -4 0 -6 5 -4 8 -10 11 -20 8z
m15 -3 c1 -1 3 -4 4 -7 2 -4 2 -4 0 -6 -2 -2 -9 -2 -19 -2 -10 1 -13 2 -12 5
2 3 9 10 12 11 5 1 13 1 15 -1z m17 -15 c1 -1 2 -3 2 -4 0 -2 -16 -2 -17 1 0
0 1 2 3 3 4 4 8 4 12 0z M509 94 c1 -1 1 -2 2 -2 0 0 0 1 -1 2 -1 1 -1 2 -2 2 0 0 0 -1 1 -2z M273 105 c-3 -3 -3 -4 0 -5 3 -1 11 0 12 1 0 1 -1 2 -1 4 -2 3 -8 3
-11 0z m9 -1 c1 -1 0 -2 -3 -2 -2 -1 -4 -1 -5 0 -1 0 -1 0 1 2 2 1 5 1 7 0z M21 81 c-1 -1 -4 -5 -6 -8 -3 -5 -4 -7 -3 -8 2 -5 17 -7 27 -5 5 2 8
2 8 1 2 -2 13 -1 14 0 3 4 -3 11 -9 10 -1 -1 -2 -1 -2 0 0 2 -5 7 -9 9 -5 2
-17 2 -20 1z m21 -4 c1 0 4 -3 5 -5 2 -3 2 -3 0 -5 -1 -2 -7 -5 -10 -5 0 0 0
1 0 3 0 2 0 3 -1 4 -1 0 -1 0 -1 -1 1 -1 1 -2 1 -4 -1 -2 -1 -2 -8 -2 -8 0
-13 2 -14 4 0 2 6 11 9 13 2 1 14 0 19 -2z m16 -10 c4 -3 2 -5 -4 -5 -6 0 -7
2 -4 5 4 2 5 3 8 0z M29 76 c1 -2 3 -3 3 -3 0 0 -2 4 -4 5 -1 1 0 0 1 -2z M93 79 c-3 -1 -6 -5 -6 -7 1 -4 17 -4 18 0 0 1 -1 3 -3 5 -2 3 -5 4
-9 2z m8 -4 c2 -2 2 -2 0 -3 -4 -2 -12 -1 -12 2 0 1 5 4 8 4 1 0 3 -1 4 -3z M562 38 c-5 -3 -7 -6 -5 -8 2 -1 4 -1 11 -1 11 0 14 0 14 3 1 2 -2 5
-7 7 -6 3 -9 2 -13 -1z m13 -1 c2 -1 4 -2 5 -3 1 -2 1 -2 -1 -2 -3 -1 -20 -1
-21 -1 0 1 0 2 1 3 1 1 2 1 5 1 2 -1 3 0 2 0 0 1 -1 1 -2 1 -1 0 -1 0 0 2 3 1
6 1 11 -1z M61 35 c-5 -4 -4 -6 6 -6 5 0 7 0 7 3 0 6 -7 8 -13 3z m10 0 c0 -1 0
-2 1 -2 0 -2 -1 -2 -6 -2 -3 0 -6 0 -6 1 0 0 2 2 4 3 2 1 4 2 5 1 1 -1 2 -1 2
-1z" fill="black"/>
<path d="M0 629 c0 -94 0 -171 0 -171 1 0 5 2 10 4 19 8 40 17 45 18 15 5 26
4 43 -1 4 -2 8 -3 8 -3 1 0 1 42 1 93 0 73 0 92 -1 92 -1 0 -3 0 -4 0 -3 0 -3
1 -3 7 0 15 15 34 35 42 13 6 12 6 66 7 l50 0 0 2 c1 4 1 4 -1 4 -2 0 -8 4
-10 6 -3 4 -7 12 -7 13 1 0 3 0 5 -1 2 -1 4 -2 6 -2 2 0 2 0 -1 4 -3 5 -6 15
-5 18 0 2 0 2 4 -1 4 -4 8 -7 9 -7 1 0 1 1 0 3 0 3 1 5 2 3 2 -2 2 -1 2 5 0 6
0 7 1 7 1 0 2 0 2 -1 0 -2 5 -7 6 -6 0 0 2 2 5 3 3 1 4 2 3 3 -2 3 -1 4 6 4 4
0 7 0 8 0 0 1 0 2 -1 3 -1 1 -1 2 -1 3 1 1 12 -2 16 -4 3 -2 3 -2 8 0 2 2 7 3
9 4 5 0 5 0 5 -2 -1 -2 0 -2 3 -2 2 0 5 0 8 0 4 0 5 0 3 -3 -1 -2 -1 -2 2 -3
5 -2 8 -2 10 0 2 1 2 1 3 0 1 -1 1 -3 0 -5 0 -4 0 -4 3 -4 2 1 2 1 2 -2 -1 -3
-1 -3 2 -2 1 1 5 3 7 5 3 3 4 3 5 1 0 -2 -2 -11 -4 -16 -2 -4 -2 -4 0 -4 0 0
1 0 1 -1 -1 -1 0 -1 3 0 1 1 2 2 2 2 3 0 -1 -9 -5 -13 l-3 -2 2 -4 c2 -2 2 -3
1 -5 -1 -1 -1 -1 1 -1 2 0 3 0 3 -1 0 -1 39 -1 115 -1 l115 0 0 42 0 41 -300
0 -300 0 0 -171z" fill="white"/>
<path d="M290 773 c1 -2 1 -2 0 -2 -2 1 -5 1 -9 0 l-7 0 3 -2 c3 -2 3 -3 1 -3
-1 0 -2 0 -2 -1 0 -2 5 -6 9 -8 5 -3 10 -8 11 -12 0 -2 2 -3 2 -1 0 4 5 9 11
12 7 3 12 8 12 11 0 1 0 1 1 0 1 -1 1 -3 1 -6 l0 -4 4 2 c3 0 6 1 9 2 3 1 4 2
4 3 -1 0 0 1 0 1 3 0 -6 3 -10 3 -3 0 -3 1 -1 2 2 2 2 2 -3 3 -3 0 -8 0 -9 0
-3 -1 -4 0 -3 1 1 2 1 2 -1 2 -2 0 -9 -4 -10 -6 -1 -2 -1 -2 -4 1 -2 2 -7 5
-10 5 -1 0 0 -1 1 -3z m18 -9 c-1 -1 -1 -2 -1 -3 1 0 0 -1 -1 -2 -1 -1 -1 -1
0 1 0 1 1 3 1 4 1 3 -2 0 -6 -4 -3 -4 -4 -4 -4 -2 0 1 0 1 1 1 0 0 2 1 4 4 5
4 8 5 6 1z m-11 -3 c0 -1 -2 0 -3 2 l-2 4 3 -3 c1 -2 2 -3 2 -3z m16 1 c-2 0
-3 -1 -4 -1 0 1 1 1 2 2 4 1 5 1 2 -1z m-25 -1 c2 0 2 -1 1 -1 0 0 -1 1 -3 1
-1 1 -1 2 0 2 0 0 1 -1 2 -2z m9 -11 c0 -1 -1 0 -2 2 -1 2 -1 2 1 1 0 -1 1 -2
1 -3z" fill="white"/>
<path d="M270 765 c-3 -2 -3 -2 -1 -2 1 -1 1 -1 0 -2 -2 -1 -2 -1 1 -3 2 -1 4
-2 4 -2 1 0 1 2 1 5 0 5 0 6 -5 4z" fill="white"/>
<path d="M345 764 c-2 -3 -7 -5 -13 -7 l-6 -1 7 0 c4 0 7 0 6 0 0 -1 -1 -3 -2
-4 -2 -3 -2 -3 0 -3 1 -1 0 -1 -2 -1 l-4 0 4 3 4 4 -8 0 c-4 0 -8 -1 -9 -1 -2
-1 -2 -1 -2 1 1 1 1 3 2 6 l0 4 -2 -4 c-1 -2 -5 -4 -9 -6 -7 -3 -10 -8 -13
-14 l-1 -3 -1 3 c-1 3 -2 5 -2 5 0 2 -5 6 -9 9 -3 1 -6 3 -7 5 l-2 3 0 -4 c1
-2 1 -4 1 -5 1 -1 0 -1 -5 -1 -5 0 -5 0 -2 1 l4 1 -5 1 c-2 1 -6 3 -8 5 -4 3
-4 3 -4 1 0 -1 1 -4 2 -6 1 -4 1 -4 -2 -2 -3 1 -3 1 -3 0 0 -1 0 -2 1 -2 1 -1
1 -2 1 -2 0 -2 -7 0 -12 3 -2 2 -4 2 -4 2 0 -3 5 -12 8 -15 2 -1 3 -2 3 -3 -1
0 -4 0 -8 0 l-6 0 2 -3 c4 -5 9 -8 13 -8 l5 0 -5 2 c-5 2 -6 4 -2 4 3 0 3 0 2
-1 -2 -1 -2 -1 1 -2 3 -1 5 -2 5 -2 1 0 0 -1 -1 -2 -1 -1 -3 -5 -4 -7 -1 -3
-3 -6 -5 -7 l-3 -3 3 0 c2 -1 5 -1 6 0 2 0 2 0 1 -2 -1 -2 -1 -4 -2 -5 -1 -2
0 -3 3 0 3 2 4 0 5 -10 0 -11 -1 -16 -6 -20 l-3 -3 3 0 c5 1 5 0 2 -5 -4 -4
-5 -7 -5 -11 l0 -3 2 3 c3 6 4 6 4 -1 0 -3 0 -6 1 -6 0 -1 1 1 3 3 1 2 2 3 2
2 1 -1 2 -3 2 -5 l2 -4 1 6 c1 6 1 6 3 4 0 -2 1 -3 1 -3 2 0 -1 13 -3 18 -5
11 -8 29 -8 42 l0 12 -3 -2 c-1 -2 -1 0 2 2 3 4 4 6 3 6 -1 0 0 2 2 4 3 1 4 3
3 3 -1 1 0 1 3 2 2 0 4 1 4 1 0 1 1 1 3 0 2 0 3 0 3 1 -1 1 0 1 3 0 4 -2 4 -2
3 -1 0 1 2 0 4 -1 l5 -3 4 3 c4 2 6 3 5 1 -1 -1 -1 -1 5 1 4 2 5 2 5 1 -1 -1
1 -2 6 -1 4 0 7 0 6 -1 -2 0 -2 -1 2 -2 3 -2 7 -5 5 -5 0 0 1 -1 2 -2 1 -2 2
-3 2 -4 1 -1 1 -2 1 -3 2 -6 3 -9 1 -16 -1 -9 -4 -15 -8 -19 l-2 -3 2 0 c4 2
9 6 9 8 0 1 0 1 0 1 1 0 0 -4 0 -8 -1 -7 -1 -7 -1 -2 0 6 -1 6 -3 -2 -1 -3 -2
-7 -3 -9 -1 -4 -2 -9 0 -7 1 1 1 1 1 1 0 -1 0 -2 -1 -3 -1 -1 -1 -1 -2 1 0 2
0 2 -1 1 -1 -2 -1 -5 -1 -9 l0 -6 2 4 2 5 2 -5 c1 -2 2 -6 2 -7 l1 -3 2 4 2 4
1 -4 c1 -3 1 -3 2 -1 1 3 1 9 -1 13 l-1 4 -1 -4 c-1 -3 -1 -3 -1 2 l0 5 2 -3
2 -3 0 5 c0 3 -1 5 -1 5 0 0 -1 1 -1 2 l-1 2 2 -2 c1 -1 3 -2 4 -2 l2 0 -2 2
c-1 1 -2 3 -3 5 -1 2 -1 29 0 29 0 0 2 -1 3 -1 1 -1 3 -2 4 -2 2 0 2 0 0 3 -4
4 -4 5 0 5 1 0 3 0 4 1 1 1 1 1 -1 2 -3 1 -8 9 -8 10 1 0 0 1 0 1 -1 1 -1 1 1
1 1 0 0 1 -3 3 -2 1 -4 2 -3 2 0 0 2 -1 3 -2 2 -1 4 -1 7 0 4 1 10 5 12 8 1 2
1 2 -2 1 -2 0 -5 0 -6 0 -1 1 -1 1 2 2 2 1 2 2 1 2 -1 0 -3 0 -4 -1 -1 -1 -2
-1 -2 0 0 0 1 1 1 1 3 1 7 8 9 13 1 5 0 6 -2 3 -2 -2 -10 -5 -12 -5 -1 0 -1 1
-1 1 0 2 -1 2 -3 1 -4 -2 -5 -1 -3 2 2 2 4 9 4 10 -1 0 -2 -1 -3 -2z m-80 -9
c2 -1 0 -1 -2 0 -2 1 -2 1 -1 1 1 0 2 0 3 -1z m3 -9 c-1 -1 -8 1 -9 2 0 1 1 1
3 0 3 -1 4 -1 3 1 -1 1 -1 1 1 0 1 -1 2 -3 2 -3z m77 3 c0 -1 -4 0 -4 1 0 0 1
0 2 0 2 0 3 -1 2 -1z m-61 -5 l4 -4 -4 3 c-2 1 -4 3 -4 5 -1 1 -1 1 0 1 0 -1
2 -3 4 -5z m31 5 c0 -1 -1 -2 -3 -3 l-2 -2 2 2 c2 3 3 3 3 3z m39 -5 l-4 -3 3
4 c2 2 4 3 4 3 0 0 -1 -2 -3 -4z m-93 1 c1 -1 0 -1 -4 -1 -6 0 -6 0 -2 1 4 0
4 0 2 2 -1 1 -1 1 1 0 1 0 2 -1 3 -2z m89 1 c0 0 -2 0 -5 0 -4 0 -5 0 -4 1 1
1 8 0 9 -1z m-100 -1 c-1 -1 1 -3 7 -6 2 -2 4 -3 3 -3 -1 0 -6 3 -9 6 -3 2 -4
4 -2 4 1 0 1 0 1 -1z m69 1 c0 -1 -2 -1 -3 -2 -2 -1 -2 -1 -1 0 2 2 5 3 4 2z
m-41 -4 c1 -1 1 -1 0 0 -1 1 -2 1 -2 2 0 0 1 0 2 -2z m55 -1 c0 0 -2 0 -3 0
-1 1 0 1 2 1 1 0 2 0 1 -1z m14 -2 c-1 -1 -3 -2 -4 -2 -2 0 -2 0 2 2 5 2 5 2
2 0z m4 -2 c0 0 -2 0 -2 0 -1 1 0 1 1 1 1 0 2 0 1 -1z m-91 -3 c1 0 -2 -2 -4
-2 -2 0 -2 0 0 1 l3 1 -3 1 -3 1 3 -1 c2 0 4 0 4 -1z m89 1 c0 -1 -1 -1 -1 -1
-1 0 -2 0 -1 1 0 1 0 1 1 1 0 0 0 0 1 -1z m6 -2 c-1 -1 -3 -2 -5 -2 l-2 -1 2
1 c3 1 3 1 1 2 -1 1 0 1 2 1 4 0 4 0 2 -1z m-8 -15 l3 -3 -4 3 c-2 1 -4 3 -4
3 0 0 0 0 1 0 0 0 2 -1 4 -3z m-85 -46 c0 -1 0 -1 -1 -1 -1 0 -1 0 0 1 0 1 0
1 1 1 0 0 0 0 0 -1z m-2 -8 c-3 -6 -3 -5 -1 1 2 3 3 4 3 4 0 0 -1 -3 -2 -5z
m7 -4 c0 -2 0 -2 1 -1 1 1 1 1 1 0 0 -2 -2 -6 -2 -4 0 0 -1 3 -1 5 l-2 5 -2
-4 c-1 -2 -2 -3 -2 -2 0 1 1 3 3 5 l3 5 0 -3 c0 -2 0 -5 1 -6z m73 -2 c0 -2 2
-4 2 -4 1 0 1 -1 1 -1 0 -1 -1 -1 -2 0 -2 2 -5 12 -4 14 0 1 1 1 1 -1 0 -2 1
-5 2 -8z m-69 1 c0 -3 0 -2 -1 1 -1 2 -1 3 0 3 1 -1 1 -2 1 -4z" fill="white"/>
<path d="M307 734 c-2 -1 -4 -1 -4 -1 -1 1 -2 1 -3 0 -3 -2 -3 -2 -6 -1 -2 2
-3 2 -3 1 0 -1 -1 -1 -2 0 -2 2 -5 2 -14 1 -1 0 -2 -1 -2 -2 0 -1 0 -2 -1 -1
-1 2 -4 -1 -6 -7 -4 -8 -5 -15 -2 -31 5 -22 8 -29 18 -38 14 -13 21 -14 34 -5
11 9 16 16 19 27 l2 5 -5 -1 -5 0 3 3 c2 2 5 6 7 9 2 5 3 7 3 15 0 9 0 11 -2
13 -1 1 -2 3 -1 4 0 0 -1 2 -2 3 -2 0 -3 2 -2 2 0 1 -1 2 -2 2 -3 1 -3 1 -5
-1 -1 -1 -1 -1 0 1 1 2 1 2 -3 3 -2 1 -5 1 -7 0 -2 0 -4 0 -4 0 0 1 -1 1 -5
-1z m-25 -23 c3 -2 6 -6 7 -8 2 -5 2 -5 0 -4 -3 2 -3 1 -1 -1 l2 -2 -3 1 c-1
1 -2 3 -2 3 0 1 0 1 -1 2 -1 0 -1 -2 2 -5 1 -2 2 -4 2 -4 0 0 0 -2 1 -3 0 -1
-1 1 -4 3 -4 6 -7 6 -10 2 -1 -2 -1 -2 -1 -1 0 1 1 3 2 3 2 2 1 3 -2 3 -6 0
-6 -3 -2 -8 2 -3 4 -4 3 -1 0 1 0 1 2 0 1 -1 4 -3 8 -3 5 -1 5 -1 -2 -1 -9 1
-11 1 -13 2 -1 1 -1 2 -1 5 0 1 0 1 -1 0 0 -1 -1 0 -1 2 0 2 0 4 -1 5 -2 2 -3
4 -1 2 1 -1 4 -1 8 -1 5 0 6 0 4 1 -2 1 -2 1 0 1 1 0 1 0 0 1 -5 2 -8 4 -11 7
-3 5 -3 5 2 3 l4 -2 0 5 0 6 2 -5 c2 -2 5 -6 8 -8z m44 7 l-1 -4 3 0 c2 1 5 2
6 3 5 3 3 0 -2 -5 -4 -5 -6 -6 -10 -6 -2 -1 -4 -2 -3 -2 0 0 0 -1 -1 -1 -1 0
3 0 8 0 5 0 9 0 10 1 2 2 1 0 -2 -3 -1 -2 -2 -4 -2 -5 1 -1 0 -2 0 -1 -1 0 -1
-1 -1 -2 0 -1 0 -1 -1 -1 0 0 -1 0 -1 -1 0 -1 -1 -2 -3 -2 -3 -2 -17 -3 -17
-1 -1 1 2 8 4 11 3 2 2 3 -1 1 -1 -1 -2 -1 -2 -1 0 1 1 2 3 2 1 1 2 2 1 2 -1
0 -4 -1 -6 -3 -2 -2 -4 -3 -4 -2 0 2 6 11 9 13 7 4 8 5 10 9 1 1 2 3 3 3 0 0
0 -2 0 -5z m0 -14 c0 0 -2 0 -3 0 -1 1 0 1 2 1 1 0 2 0 1 -1z m-33 -10 c-1 0
-1 1 -1 2 -1 1 -1 1 0 0 1 0 1 -1 1 -2z m-14 0 c0 -1 0 -1 1 -2 0 0 1 0 1 1
-1 2 1 3 2 1 0 -1 -1 -2 -2 -2 -2 -1 -5 1 -4 3 1 1 2 1 2 -1z m6 -2 c0 -1 -1
-1 -2 -2 -1 -1 -1 -1 0 0 1 2 2 2 2 2z m10 -14 c-1 -1 -1 0 -1 1 0 1 0 2 1 1
0 0 0 -2 0 -2z m2 -7 c0 -1 0 -1 -1 0 0 0 -1 1 -1 0 -1 0 -1 0 -1 1 0 1 0 1
-1 1 -1 0 -1 0 0 1 0 1 4 -2 4 -3z m6 3 c0 -1 -1 -1 -2 -1 0 -1 -1 -1 0 0 0 1
2 1 2 1z m2 -7 c6 0 11 0 11 0 0 0 -1 -2 -4 -4 -4 -4 -11 -6 -15 -5 -3 0 -12
7 -12 9 0 0 2 0 5 0 3 -1 8 -1 15 0z m-1 -13 c0 0 -1 -1 -1 -2 -1 0 -1 0 -1 1
1 1 0 1 -2 1 -2 0 -3 0 -2 -1 0 -1 0 -1 -1 -1 -2 2 -1 3 3 3 2 0 4 0 4 -1z" fill="white"/>
<path d="M355 726 l-2 0 2 -2 3 -2 -4 1 -4 0 3 -4 c3 -3 5 -5 7 -5 3 0 6 2 4
3 -2 0 -5 4 -5 6 0 0 1 1 2 0 2 0 2 0 1 2 -1 2 -2 2 -7 1z" fill="white"/>
<path d="M149 712 c-9 -1 -19 -6 -26 -11 l-4 -3 64 0 65 0 1 2 c3 4 2 5 0 5
-4 0 -9 2 -9 4 0 0 2 2 4 2 1 1 3 2 3 2 0 1 -21 1 -46 1 -36 0 -47 0 -52 -2z" fill="white"/>
<path d="M367 713 c-2 -1 -2 -2 -1 -6 0 -3 1 -6 0 -7 0 -2 2 -2 117 -2 l117 0
0 8 0 8 -116 0 c-91 0 -116 0 -117 -1z" fill="white"/>
<path d="M357 709 l-3 -2 2 -2 c2 -2 2 -2 2 -1 0 2 2 3 4 1 1 -2 1 2 0 4 -1 2
-2 2 -5 0z" fill="white"/>
<path d="M348 701 c0 -1 1 -2 2 -2 0 0 1 -1 1 -2 0 -2 0 -2 -1 -1 0 1 -1 2 -1
2 -1 0 -2 -2 -2 -8 0 -3 0 -4 1 -3 1 0 1 0 0 -2 -1 -1 -1 -2 0 -2 3 0 6 12 4
16 -2 3 -4 4 -4 2z m2 -11 c0 -3 -1 -2 -1 2 -1 2 -1 3 0 2 1 -1 1 -3 1 -4z" fill="white"/>
<path d="M353 695 c0 -5 0 -7 -2 -11 -3 -5 -3 -5 -1 -9 1 -2 2 -4 4 -4 2 -2 2
-3 -1 -4 -3 0 -3 0 0 -4 2 -2 2 -5 2 -9 0 -7 -1 -10 -3 -5 -1 2 -1 2 -1 1 0
-6 1 -7 10 -12 5 -2 10 -3 10 -3 0 1 -1 2 -1 4 -1 1 -2 2 -2 3 1 0 2 -2 3 -4
2 -4 2 -5 12 -8 5 -2 10 -4 11 -4 0 0 -1 1 -2 2 -1 1 -3 5 -5 7 -3 5 -3 5 -1
5 1 0 3 0 5 -1 3 -1 4 -1 0 3 -1 2 -3 3 -6 4 -5 0 -9 4 -12 8 -1 3 -1 3 1 4 0
0 3 0 5 -1 2 0 4 -1 4 -1 1 1 -7 8 -9 8 -1 0 -3 0 -3 1 -2 0 -2 1 1 2 4 3 4 4
-1 4 -4 0 -8 3 -10 8 -3 5 -2 6 0 6 1 0 3 0 4 1 1 1 1 1 -1 1 -3 1 -5 5 -6 9
0 4 -1 5 -2 5 -2 0 -3 -1 -3 -6z m4 -18 c0 -1 0 -1 -1 0 -1 1 -1 2 -1 3 0 0 0
0 1 -1 1 -1 1 -2 1 -2z m8 -18 c2 -1 3 -2 2 -2 -2 0 -9 8 -9 10 0 1 1 0 2 -2
1 -2 3 -5 5 -6z m-5 -5 c-1 0 -2 0 -2 1 -1 1 -1 1 0 0 1 0 2 0 2 -1z m6 -1
c-1 0 -3 0 -4 0 -1 1 0 1 2 1 2 0 3 0 2 -1z m10 -15 c0 -1 -3 2 -8 8 l-4 6 6
-7 c4 -4 6 -7 6 -7z" fill="white"/>
<path d="M319 699 c-1 0 -3 -2 -4 -3 0 -1 -1 -2 -1 -1 0 2 -3 -1 -4 -4 l-1 -3
7 0 c6 0 7 0 4 1 -3 1 -5 2 -5 3 0 1 1 0 2 0 2 -2 5 -2 7 -1 3 4 -1 10 -5 8z
m4 -5 c-1 -1 -2 -2 -3 -2 l-2 0 2 1 c2 0 2 1 2 2 -1 2 -1 2 0 1 1 0 1 -2 1 -2z" fill="white"/>
<path d="M325 699 c1 -2 1 -7 -1 -8 -1 -2 -1 -2 1 -1 2 0 6 8 5 9 0 1 -2 1 -3
1 -3 0 -3 0 -2 -1z" fill="white"/>
<path d="M258 696 c0 -3 -1 -5 -4 -8 l-3 -4 2 0 c4 0 4 -2 0 -9 -4 -6 -2 -7 2
-2 3 4 4 8 4 19 0 4 -1 6 -1 4z" fill="white"/>
<path d="M112 691 c-3 -4 -10 -15 -10 -17 0 -1 33 -1 73 -1 l73 0 2 4 3 4 -3
2 c-4 2 -5 4 -2 5 3 0 5 3 6 6 l1 2 -69 0 -70 0 -4 -5z" fill="white"/>
<path d="M362 695 c1 -3 4 -5 6 -5 2 0 3 0 3 -1 0 -1 -3 -5 -6 -6 -3 -1 -3 -2
1 -6 3 -3 7 -4 11 -1 2 1 4 0 3 -2 -1 -1 36 -1 109 -1 l111 0 0 12 0 11 -120
0 c-95 0 -119 0 -118 -1z" fill="white"/>
<path d="M101 668 l0 -4 70 0 70 0 -1 3 -2 3 4 0 c2 0 -29 1 -69 1 l-72 0 0
-3z" fill="white"/>
<path d="M378 669 c-1 -1 -1 -2 -1 -2 3 -3 10 -3 114 -3 l109 0 0 4 0 3 -110
0 -111 0 -1 -2z" fill="white"/>
<path d="M245 667 l-2 -1 3 -1 4 -2 -3 -3 c-3 -4 -10 -8 -12 -7 -1 0 -2 0 -2
-1 0 -1 4 -5 6 -5 5 0 -3 -6 -10 -8 -3 0 -8 -4 -8 -6 0 0 2 0 6 0 3 0 5 0 5
-1 0 0 0 -1 -1 -1 0 0 -1 -1 -2 -2 -1 -2 -1 -2 1 -1 6 1 12 4 12 6 1 1 1 2 2
3 0 2 0 2 -2 2 -1 -1 -1 0 2 1 5 4 6 4 3 1 -2 -3 -4 -7 -4 -8 0 0 4 2 8 4 7 4
7 4 5 11 -1 4 -2 3 -2 -3 l-1 -3 -2 4 c-1 4 -3 5 -3 3 0 -1 -1 -1 -2 -1 -1 0
-1 0 1 1 1 1 2 4 3 6 0 3 2 6 4 8 l2 3 -2 0 c-2 0 -3 1 -4 1 -1 2 -2 2 -5 0z" fill="white"/>
<path d="M348 665 c0 -2 0 -5 0 -6 1 -2 2 -4 3 -6 l3 -2 0 4 c-1 3 -2 7 -4 9
l-3 5 1 -4z" fill="white"/>
<path d="M298 665 c-8 0 -9 0 -8 -2 1 -1 4 -1 9 -1 l8 0 -7 -1 c-6 -1 -6 -1
-4 -2 3 -1 4 -1 7 0 3 1 4 2 4 3 0 0 1 1 2 1 1 0 2 1 3 2 1 1 1 1 -2 1 -1 0
-7 -1 -12 -1z" fill="white"/>
<path d="M110 576 l0 -86 27 0 28 0 2 5 c2 3 3 5 3 6 0 1 -7 1 -20 1 -20 0
-21 0 -23 2 -1 2 -2 5 -2 73 l0 71 2 3 3 3 39 0 c22 0 41 0 42 0 5 -2 6 -5 6
-14 l0 -8 2 3 c1 2 3 5 5 6 2 1 3 2 3 4 0 1 1 4 2 5 0 1 1 3 1 4 -1 2 0 3 3 2
3 -1 7 0 10 3 1 2 0 2 -66 2 l-67 0 0 -85z" fill="white"/>
<path d="M386 657 c1 -3 1 -5 1 -5 0 -1 -2 0 -4 1 -2 1 -4 1 -5 1 -1 -2 3 -4
7 -5 4 -1 5 -1 7 2 l3 3 55 0 55 0 3 -3 2 -3 0 -71 0 -71 -2 -2 c-3 -2 -3 -2
-26 -2 -13 0 -24 0 -24 -1 0 0 2 -3 4 -6 l4 -5 67 0 67 0 0 6 0 6 -36 0 -37 0
-2 3 -3 3 0 69 c0 76 0 74 6 76 2 1 15 1 38 1 l34 0 0 4 0 3 -108 0 -108 0 2
-4z" fill="white"/>
<path d="M275 655 c0 -5 1 -5 4 -4 l2 2 -3 2 -3 3 0 -3z" fill="white"/>
<path d="M321 651 c-6 -5 -7 -6 -4 -6 1 1 4 2 5 4 1 1 2 2 1 1 0 -1 0 -2 1 -2
3 0 4 2 4 6 l0 4 -7 -7z" fill="white"/>
<path d="M132 651 c-5 -1 -5 -1 -5 -73 0 -68 0 -71 3 -73 1 -1 11 -1 22 -1
l20 0 1 3 c2 6 2 6 -16 6 -14 0 -18 0 -20 1 -1 2 -2 4 -2 46 l0 44 34 0 35 0
1 3 2 3 -36 0 -36 0 0 14 c0 13 0 13 2 16 l3 2 31 0 c18 0 32 0 33 -1 3 -2 4
-7 4 -18 l0 -11 3 4 4 4 0 14 c0 13 0 14 -2 16 -2 1 -4 2 -41 2 -21 0 -39 -1
-40 -1z" fill="white"/>
<path d="M416 651 c-19 0 -21 0 -22 -2 -2 -2 -2 -2 0 -6 5 -7 5 -14 0 -10 -2
3 -3 1 0 -2 1 -1 2 -3 2 -4 0 -1 1 -2 3 -3 l3 -2 0 7 c0 6 0 8 2 10 l2 3 42 0
c23 0 42 0 44 0 5 -2 5 -3 5 -18 l0 -14 -42 0 -42 0 2 -3 1 -3 41 0 40 0 0
-44 0 -44 -2 -1 c-2 -2 -6 -2 -23 -2 -12 0 -21 0 -21 -1 0 0 1 -2 2 -4 l2 -4
25 0 c23 0 25 0 26 2 2 1 2 8 2 72 0 68 0 70 -2 71 -2 2 -5 2 -35 2 -19 0 -43
0 -55 0z" fill="white"/>
<path d="M532 651 c-3 0 -5 -1 -6 -1 0 -1 -1 -33 -1 -71 0 -63 0 -70 1 -72 l2
-2 36 -1 36 0 0 4 0 5 -30 0 c-28 0 -30 0 -32 2 l-2 2 -1 43 0 44 32 0 33 0 0
3 0 3 -32 0 -32 1 -1 11 c0 14 1 17 5 19 1 1 12 1 31 1 l29 0 0 5 0 5 -31 0
c-17 0 -34 -1 -37 -1z" fill="white"/>
<path d="M283 649 c0 -2 0 -3 2 -3 1 0 2 0 3 -1 0 -1 1 -1 2 -1 1 0 0 2 -3 4
l-4 3 0 -2z" fill="white"/>
<path d="M335 645 c-1 -4 0 -9 0 -11 1 -4 1 -5 -2 -10 -3 -6 -2 -8 2 -4 2 1 3
2 4 2 0 0 0 -3 0 -6 0 -5 -1 -8 -3 -10 -2 -4 -1 -4 4 -1 4 2 8 7 10 13 1 2 2
4 2 4 1 0 4 -10 3 -12 -1 -3 2 0 3 3 3 6 3 11 -3 18 -2 4 -4 8 -5 11 -1 4 -1
4 -1 2 -1 -2 -2 -4 -3 -5 -2 -1 -2 -1 -2 0 1 1 1 3 0 4 -1 2 -1 2 -2 0 -1 -2
-2 -3 -3 -4 -2 -1 -2 -1 -2 3 1 2 0 5 0 7 -2 2 -2 2 -2 -4z m8 -17 c0 -1 -1 0
-1 2 l-2 3 0 -4 c-1 -3 -4 -6 -4 -4 0 1 0 2 1 2 0 0 1 2 2 4 l1 4 2 -3 c0 -2
1 -4 1 -4z m6 3 c2 -4 2 -5 1 -2 -2 2 -2 2 -2 -1 0 -4 -2 -10 -4 -12 -1 0 -1
2 -1 5 0 5 0 5 1 2 l1 -4 1 2 c0 2 1 5 1 8 0 3 0 5 0 5 1 0 2 -1 2 -3z m6 -6
c0 -3 -1 -2 -1 2 -1 2 -1 3 0 2 1 -1 1 -3 1 -4z" fill="white"/>
<path d="M230 647 c-1 0 -1 -2 -1 -3 0 -2 0 -2 3 -1 3 1 4 2 1 4 -2 2 -3 2 -3
0z" fill="white"/>
<path d="M270 644 c0 -2 -2 -5 -3 -6 l-1 -2 -1 4 c-1 6 -2 8 -4 4 0 -1 -2 -5
-4 -8 -4 -5 -5 -8 -3 -6 1 0 1 -1 0 -2 -1 -2 -2 -2 -2 1 l-1 2 -2 -3 c-3 -3
-3 -5 -4 -10 0 -5 0 -5 1 -2 1 3 3 5 6 8 2 1 2 1 1 -3 0 -6 2 -13 7 -16 4 -4
5 -4 4 -1 -1 1 -1 5 -2 8 0 5 0 6 1 6 1 0 2 1 2 2 0 1 1 0 3 -2 3 -4 4 -4 2 0
0 1 -1 4 -1 6 0 4 0 4 -2 3 -2 -2 -2 -2 -2 1 0 2 0 2 1 1 1 -2 1 -2 1 0 1 1 2
2 2 2 1 0 4 8 4 11 0 6 -2 7 -3 2z m-13 -17 c0 -6 0 -7 1 -6 1 2 1 0 0 -2 -1
-2 -1 -2 -1 1 -2 8 -2 12 -1 13 1 1 2 1 2 1 0 0 0 -3 -1 -7z m6 1 c0 -1 -1 -2
-1 -1 -1 1 0 2 0 3 2 2 2 1 1 -2z" fill="white"/>
<path d="M278 647 c0 -2 6 -5 12 -7 3 -1 5 -2 5 -2 0 -1 -8 2 -13 5 -3 1 -5 1
-4 -1 1 0 4 -2 7 -4 7 -3 8 -4 8 -11 0 -7 2 -5 2 3 l1 7 0 -7 c0 -10 2 -9 2 1
l0 9 -6 2 c-3 0 -7 2 -10 4 -2 1 -4 1 -4 1z" fill="white"/>
<path d="M327 647 c-2 -1 -13 -4 -22 -6 l-6 -1 0 -9 c0 -6 0 -8 2 -8 1 0 1 1
1 7 0 6 0 7 2 8 1 1 3 2 4 2 2 0 1 -1 -1 -1 l-3 -1 -1 -8 c0 -6 0 -7 1 -7 2 0
2 1 2 6 0 7 0 7 3 8 8 1 12 2 17 4 3 1 5 3 5 3 0 1 -1 1 -7 -1 -3 -1 -7 -2 -9
-2 -5 -1 -5 -1 6 3 5 1 9 3 9 3 0 1 -1 1 -3 0z" fill="white"/>
<path d="M322 639 c-5 -2 -10 -3 -11 -3 -3 -1 -3 -1 -3 -7 l0 -5 5 0 c5 1 13
4 17 6 2 2 2 3 2 7 0 3 0 5 -1 5 0 0 -4 -2 -9 -3z" fill="white"/>
<path d="M274 636 c-1 -4 -1 -5 1 -2 1 1 1 3 1 4 0 2 -1 1 -2 -2z" fill="white"/>
<path d="M278 635 c1 -3 2 -5 4 -7 2 -2 3 -3 2 -3 -1 0 -7 6 -7 7 0 1 -1 -1
-3 -4 -3 -6 -3 -10 0 -13 1 -1 2 -2 2 -2 0 -2 -6 0 -8 2 -2 1 -2 1 -2 -2 -1
-5 -1 -8 1 -10 3 -4 2 -5 -3 -3 l-4 2 -3 -10 c-5 -13 -11 -29 -17 -40 -6 -10
-6 -13 -4 -19 1 -1 1 -6 1 -11 0 -5 0 -12 1 -15 1 -6 1 -6 -1 -12 -3 -5 -3 -7
-2 -9 1 -2 2 -3 5 -3 2 0 6 0 9 -1 4 -2 5 -3 7 -6 1 -2 3 -5 5 -5 4 -2 9 -2 9
-1 1 1 3 2 5 2 l4 1 -1 4 c0 2 1 6 1 9 2 4 2 10 2 29 0 14 0 25 0 26 -1 1 -3
0 -7 -1 -4 0 -7 -1 -7 -1 -1 1 1 1 4 2 3 1 6 1 7 2 1 0 2 2 2 12 1 15 3 30 6
40 0 3 2 11 2 15 1 5 2 10 2 11 1 1 1 1 -2 3 -2 1 -2 1 1 0 l3 0 -1 5 0 6 -5
2 c-2 0 -5 2 -5 2 -3 2 -3 1 -3 -4z m3 -28 c2 -4 3 -6 2 -5 -2 3 -8 16 -8 19
0 1 1 0 1 -2 1 -3 3 -8 5 -12z m-11 -115 c4 -1 6 -2 5 -2 -3 0 -12 3 -17 6 -7
3 -6 3 1 0 3 -1 8 -3 11 -4z" fill="white"/>
<path d="M353 639 c0 0 1 -2 3 -5 5 -7 6 -10 6 -15 -1 -5 -5 -12 -8 -14 -2 -1
-2 0 -1 6 0 6 -1 9 -2 3 -1 -4 -6 -10 -12 -12 -3 -1 -4 -2 -4 -3 1 -1 1 -4 2
-6 2 -18 11 -46 20 -64 6 -12 9 -18 28 -47 4 -6 10 -17 13 -23 7 -13 17 -37
17 -41 0 -1 0 -1 1 1 1 1 2 6 2 14 0 13 1 18 7 26 4 4 10 9 11 8 1 0 0 -3 -1
-6 -3 -13 -1 -20 8 -31 11 -12 13 -17 11 -33 0 -7 0 -8 2 -10 0 -1 2 -2 3 -2
3 0 8 6 9 11 3 9 2 14 -2 24 -5 10 -5 16 -2 23 4 6 5 6 5 0 0 -6 1 -8 10 -16
6 -7 8 -12 7 -21 -1 -10 2 -15 8 -15 6 0 6 10 0 23 -5 10 -11 24 -17 44 -3 8
-7 17 -8 19 -1 4 -17 26 -18 26 0 0 1 -4 3 -9 2 -8 7 -31 7 -34 0 -1 -1 4 -3
12 -4 19 -9 34 -14 45 -3 8 -5 12 -5 19 -1 4 -2 8 -2 9 -1 1 -5 4 -9 7 -7 6
-10 10 -3 4 l3 -2 0 2 c-1 1 -2 9 -4 17 -3 15 -4 16 -11 29 -9 15 -14 19 -41
29 -7 3 -14 6 -16 7 -2 1 -3 2 -3 1z m11 -44 c17 -26 27 -36 54 -54 9 -6 15
-10 14 -10 -2 0 -31 20 -39 28 -12 10 -21 21 -32 39 -4 7 -1 4 3 -3z m-13 -29
c0 -1 0 -1 -1 0 -1 1 -1 2 -1 3 0 0 0 0 1 -1 1 -1 1 -2 1 -2z m23 -42 c5 -7
13 -19 19 -27 10 -14 18 -27 14 -21 -4 3 -28 38 -36 51 -8 11 -20 34 -20 37 0
0 3 -6 7 -13 4 -8 11 -20 16 -27z m88 -70 c-1 -1 -1 0 -1 1 0 1 0 2 1 1 0 0 0
-2 0 -2z" fill="white"/>
<path d="M138 637 c-1 -1 -1 -7 -1 -13 l1 -11 33 -1 34 0 0 13 0 14 -33 0
c-32 0 -33 0 -34 -2z" fill="white"/>
<path d="M405 636 c-1 -1 -1 -5 -1 -9 0 -6 0 -7 4 -11 l3 -4 42 0 42 0 0 12
c0 9 0 13 -1 14 -1 1 -12 1 -45 1 l-43 0 -1 -3z" fill="white"/>
<path d="M539 638 c-1 -1 -1 -5 -1 -14 l0 -12 31 0 31 0 0 14 0 13 -30 0 c-22
0 -30 0 -31 -1z" fill="white"/>
<path d="M242 629 c-4 -1 -11 -4 -14 -6 -12 -6 -22 -19 -28 -37 -2 -6 -7 -28
-7 -30 0 -2 5 3 14 14 4 5 7 9 8 9 0 0 -2 -3 -4 -6 -5 -7 -23 -27 -24 -27 0 0
-2 -1 -3 -3 -1 -2 -2 -5 -2 -13 -1 -9 -1 -13 -5 -22 -2 -7 -4 -13 -4 -13 1 0
15 18 22 29 9 13 10 14 6 9 -7 -14 -16 -26 -33 -46 -12 -15 -16 -25 -14 -35 3
-12 1 -19 -7 -27 -4 -4 -6 -8 -8 -12 -2 -7 -10 -22 -13 -28 -7 -10 -14 -18
-28 -32 -8 -7 -12 -15 -14 -24 -3 -11 -2 -12 1 -5 2 3 4 7 6 9 4 2 14 7 22 10
6 3 12 8 15 15 5 12 7 16 11 20 5 4 10 5 15 3 5 -3 6 -7 6 -15 -1 -4 -1 -12
-2 -18 0 -7 -1 -14 -2 -15 -1 -2 -4 -8 -8 -13 -7 -10 -10 -18 -11 -27 l0 -5 2
4 c3 3 6 7 19 15 6 5 10 10 14 18 7 14 10 32 10 52 -1 29 0 43 2 58 3 18 6 35
10 45 6 18 27 70 29 69 0 -1 -1 -3 -3 -7 -4 -7 -14 -35 -14 -36 1 0 14 18 22
31 8 13 19 37 26 53 l4 13 -2 2 c-2 3 -5 9 -5 13 l0 3 -2 -3 c-1 -2 -1 -5 -1
-6 -1 -7 -5 -1 -5 6 0 4 2 9 5 13 3 3 2 3 -6 -2z m1 -26 c0 -1 -4 -6 -8 -12
-12 -18 -21 -29 -16 -21 2 4 24 35 25 35 0 0 0 -1 -1 -2z m-71 -150 c5 -9 4
-22 -5 -33 -11 -15 -13 -20 -9 -24 2 -3 3 -3 5 -3 8 2 12 10 12 21 0 5 0 8 1
8 1 0 3 -11 3 -12 -1 0 -1 1 -1 2 0 1 -1 0 -2 -4 -1 -8 -5 -13 -10 -15 -6 -4
-11 0 -11 8 0 5 3 10 9 18 9 10 12 22 7 32 l-3 6 1 -6 c1 -11 -4 -21 -15 -30
-7 -6 -11 -11 -13 -18 -1 -3 -4 -7 -5 -8 -5 -4 -6 -4 -2 1 2 2 4 4 4 4 0 1 1
4 3 8 2 4 5 7 11 13 12 11 14 16 14 26 0 4 0 9 0 10 -1 3 -1 3 1 2 1 -1 3 -3
5 -6z" fill="white"/>
<path d="M328 628 c-6 -3 -14 -5 -26 -6 -12 -2 -11 0 -13 -15 0 -5 -2 -14 -3
-20 -3 -18 -4 -37 -3 -51 1 -14 1 -41 -2 -49 0 -3 -1 -8 -1 -10 l1 -4 11 -1
c9 0 11 -1 13 -2 1 -2 2 -2 10 -2 9 1 11 2 14 8 1 2 2 3 4 4 1 0 4 1 7 2 3 1
5 1 11 0 8 -1 8 -1 10 1 2 3 2 4 0 10 -1 5 -1 5 1 10 2 6 2 6 1 9 -10 17 -18
35 -23 55 l-3 12 -7 0 c-4 0 -9 0 -11 1 l-5 0 0 5 c1 3 1 5 2 6 0 1 4 1 9 1
l9 0 0 4 c0 4 0 4 -3 4 l-2 0 2 2 c1 2 2 3 1 8 l0 6 -4 -1 c-4 0 -5 0 -10 -4
-3 -3 -7 -6 -8 -7 -2 -1 0 1 3 4 4 4 9 9 12 11 2 3 5 5 5 4 1 0 2 4 2 6 0 1
-1 1 -4 -1z m-27 -12 c4 -4 0 -10 -5 -8 -3 2 -4 5 -2 8 1 2 5 3 7 0z m-6 -42
c2 -2 3 -4 0 -7 -1 -2 -5 -3 -7 0 -3 2 -2 6 0 7 3 3 5 2 7 0z m-3 -31 c-1 0
-1 0 -2 0 -1 1 -1 1 0 1 1 0 2 0 2 -1z m14 -2 c9 -2 5 -2 -5 0 -5 1 -7 2 -5 2
1 0 6 -1 10 -2z m-12 -10 c2 -1 2 -3 1 -6 -2 -4 -10 -1 -10 3 0 3 3 5 6 5 1 0
3 -1 3 -2z m32 -30 c-2 -1 -31 -8 -33 -7 -1 0 5 2 12 3 8 2 15 4 16 4 3 1 6 1
5 0z m-33 -11 c1 -1 2 -2 2 -1 2 0 7 2 7 1 0 0 -2 -1 -3 -1 -3 -1 -4 -3 -4 -4
0 -2 -4 -5 -7 -5 -1 0 -2 2 -3 3 -1 2 -1 3 0 5 2 3 6 4 8 2z" fill="white"/>
<path d="M220 628 c-2 -1 -3 -2 -3 -4 0 -1 1 -2 1 -2 0 0 2 1 3 2 3 1 6 6 4 6
-1 0 -3 -1 -5 -2z" fill="white"/>
<path d="M335 617 c-1 0 -1 -2 -1 -5 0 -4 0 -4 2 -3 2 4 1 11 -1 8z" fill="white"/>
<path d="M295 616 c-2 -3 0 -7 3 -7 1 0 2 1 3 2 1 2 1 3 -1 4 -1 2 -3 2 -5 1z" fill="white"/>
<path d="M137 560 c0 -26 0 -42 1 -43 1 -2 2 -2 19 -2 l19 0 1 5 c0 2 1 7 1
10 0 10 1 12 6 18 4 5 5 7 6 13 2 11 7 29 9 35 l3 6 -33 0 -32 0 0 -42z" fill="white"/>
<path d="M422 594 c2 -5 4 -9 4 -10 0 -1 1 -8 3 -16 l3 -13 5 -5 5 -4 0 -9 c1
-6 2 -10 4 -15 l4 -6 21 -1 c18 0 21 0 22 2 2 1 2 6 2 43 l0 42 -38 0 -39 0 4
-8z" fill="white"/>
<path d="M538 560 c0 -41 0 -43 2 -44 1 -1 13 -1 31 -1 l29 0 0 44 0 43 -31 0
-31 0 0 -42z" fill="white"/>
<path d="M316 589 c0 0 0 -1 0 -1 0 -1 5 -1 10 -2 l9 0 0 2 c0 2 -1 3 -9 3 -8
0 -9 0 -10 -2z" fill="white"/>
<path d="M316 583 c-1 -2 0 -2 11 -2 l9 -1 0 3 c0 2 0 2 -10 2 -8 0 -10 0 -10
-2z" fill="white"/>
<path d="M288 572 c-1 -2 -1 -3 1 -4 3 -3 6 -2 6 3 0 2 -1 3 -3 3 -2 0 -3 0
-4 -2z" fill="white"/>
<path d="M224 525 c-5 -7 -10 -14 -10 -14 0 0 2 -2 4 -3 4 -4 5 -3 6 2 1 2 3
7 6 12 3 4 5 8 5 8 0 0 -1 2 -1 5 l-1 4 -9 -14z" fill="white"/>
<path d="M288 531 c-1 -1 -1 -5 0 -6 3 -3 8 1 6 5 -1 2 -5 3 -6 1z" fill="white"/>
<path d="M230 517 c-2 -3 -3 -6 -3 -8 0 -1 -1 -3 -2 -4 -1 -2 -1 -3 -1 -4 0
-2 0 -4 0 -5 -1 -3 0 -4 3 -8 2 -2 4 -5 4 -5 0 -1 1 -2 2 -2 1 0 2 3 0 4 -2 1
-1 5 1 11 2 5 2 6 0 25 0 0 -2 -1 -4 -4z" fill="white"/>
<path d="M209 504 c-6 -9 -11 -19 -14 -30 -2 -6 -3 -11 -3 -12 0 -2 11 -14 12
-14 1 0 1 1 0 2 -1 1 -1 6 -1 10 0 7 0 8 4 15 4 8 7 9 15 9 3 0 5 1 5 1 0 0
-1 1 -3 3 -1 1 -4 3 -5 5 -1 2 -4 5 -6 6 -2 1 -3 2 -3 2 1 0 5 -2 8 -5 l3 -2
0 3 c1 2 0 5 -7 12 0 1 -3 -1 -5 -5z" fill="white"/>
<path d="M365 502 c-2 -4 -2 -4 0 -10 1 -5 1 -5 0 -8 -1 -2 -2 -3 -2 -4 1 0 3
3 4 5 1 2 3 3 5 4 l4 2 -5 7 c-2 4 -4 8 -5 8 0 0 -1 -1 -1 -4z" fill="white"/>
<path d="M288 489 c-3 -2 -2 -6 1 -7 4 0 6 3 3 6 -1 2 -2 2 -4 1z" fill="white"/>
<path d="M110 430 l0 -58 2 2 c4 3 12 16 18 28 6 13 11 26 17 49 5 21 6 24 12
31 2 3 4 5 4 5 0 1 -12 1 -26 1 l-27 0 0 -58z" fill="white"/>
<path d="M374 487 c-2 -1 -2 -1 1 -3 4 -2 9 -8 11 -14 3 -7 5 -25 2 -21 -1 1
-2 1 -3 1 -1 -1 -1 -1 1 -2 1 -1 3 -1 6 1 7 3 7 3 1 13 -7 13 -15 26 -16 26
-1 0 -2 0 -3 -1z" fill="white"/>
<path d="M470 484 c3 -4 7 -15 12 -28 4 -13 11 -32 17 -43 10 -20 18 -32 35
-53 l5 -6 30 0 31 0 0 67 0 67 -66 0 -66 0 2 -4z" fill="white"/>
<path d="M215 482 c-2 -1 -10 -12 -11 -16 0 -4 1 -11 3 -13 1 -2 2 -1 2 5 0
12 5 21 14 23 1 0 3 1 2 1 0 1 -7 1 -10 0z" fill="white"/>
<path d="M369 482 c-1 0 -1 -1 -1 -1 0 0 2 -1 3 -2 4 -3 9 -14 10 -22 0 -6 1
-7 2 -6 1 0 2 0 3 1 2 0 2 1 2 6 -2 9 -4 15 -9 20 -4 5 -7 6 -10 4z" fill="white"/>
<path d="M67 481 c-9 -1 -14 -3 -41 -14 l-26 -11 0 -7 c0 -7 0 -7 13 -7 9 0
12 -1 29 -9 12 -6 15 -7 33 -12 10 -2 20 -4 20 -4 1 0 1 4 1 9 0 14 2 18 8 18
l3 0 0 15 0 15 -10 3 c-9 3 -21 5 -24 5 -1 0 -4 -1 -6 -1z" fill="white"/>
<path d="M233 479 c-4 -1 -8 -2 -10 -2 -5 1 -7 -1 -11 -8 -2 -6 -3 -12 -1 -14
1 0 3 -5 6 -9 4 -9 7 -11 14 -13 3 0 3 0 -2 3 -6 3 -5 4 2 1 3 -2 6 -3 7 -2 2
0 2 0 0 2 -1 1 -5 3 -7 5 -3 2 -5 3 -4 3 1 0 5 -2 8 -4 7 -5 7 -5 10 -3 3 1 3
1 2 2 -3 1 -16 14 -16 16 -1 1 0 2 0 1 1 0 1 -1 1 -2 0 -1 0 -2 1 -2 1 0 4 -3
7 -6 5 -5 6 -5 10 -5 4 1 6 3 3 5 -1 1 -2 1 -2 1 0 -1 -7 8 -10 13 -1 2 -1 4
0 4 1 1 1 3 1 5 0 2 0 4 1 4 1 0 1 -1 1 -2 0 -1 0 -1 2 0 2 1 2 1 2 0 -1 -1 6
-2 7 0 1 0 0 1 -1 3 -1 2 -3 3 -6 4 -6 2 -7 2 -15 0z m-6 -17 c1 0 1 -1 0 0
-1 0 -1 1 -1 1 0 1 1 1 1 -1z m3 -13 c-1 0 -1 1 -1 2 -1 1 -1 1 0 0 1 0 1 -1
1 -2z m-4 -2 c0 -1 0 -1 -1 0 -1 1 -1 2 -1 3 0 0 0 0 1 -1 1 -1 1 -2 1 -2z
m-5 -4 c-1 0 -1 1 -1 2 -1 1 -1 1 0 0 1 0 1 -1 1 -2z m3 -3 c-1 0 -2 0 -2 1
-1 1 -1 1 0 0 1 0 2 0 2 -1z" fill="white"/>
<path d="M338 479 c-5 -2 -7 -3 -9 -6 -1 -2 -2 -4 -2 -4 0 -1 8 0 12 1 1 0 2
1 1 2 0 1 0 1 1 1 0 -1 1 -2 1 -4 0 -3 0 -3 2 -2 2 2 -3 -7 -9 -16 -3 -4 -5
-7 -5 -6 0 0 0 1 -1 1 -2 0 -1 -3 1 -5 2 -1 3 -2 4 -2 1 0 4 2 7 5 3 3 5 5 6
5 1 0 -1 -2 -5 -5 -3 -4 -5 -6 -5 -7 2 -2 4 -1 10 2 6 4 11 6 10 4 -1 -1 -2
-1 -2 -1 -1 0 -3 -1 -6 -3 -3 -2 -4 -3 -3 -4 3 0 14 4 16 6 l2 3 -1 -3 c-1 -1
-3 -3 -5 -4 l-4 -2 3 1 c6 0 8 2 12 8 2 3 5 7 7 9 2 2 3 4 3 6 0 7 -8 21 -12
19 -1 0 -1 0 0 -1 2 -1 0 -1 -4 0 -2 1 -18 4 -19 4 0 0 -3 -1 -6 -2z m17 -21
c0 -1 -1 -2 -3 -3 -2 -2 -2 -2 -1 0 1 1 2 2 4 3 0 0 0 0 0 0z m6 -7 c-1 -1 -2
-2 -2 -1 0 0 2 3 3 3 0 0 -1 -1 -1 -2z" fill="white"/>
<path d="M254 466 c-1 -2 -1 -6 -1 -10 0 -5 0 -6 2 -7 2 -1 3 -1 3 9 1 10 0
12 -3 12 0 0 -1 -2 -1 -4z" fill="white"/>
<path d="M272 469 c-1 -1 -1 -6 -1 -11 0 -8 0 -10 2 -11 2 -2 28 -3 29 -1 1 1
2 21 0 22 0 1 -7 1 -15 2 -13 0 -15 0 -15 -1z m28 -3 c2 -2 0 -17 -1 -18 -2
-1 -11 -1 -19 0 -5 0 -5 1 -6 5 -1 4 -1 4 0 9 1 6 0 6 13 5 7 0 13 -1 13 -1z" fill="white"/>
<path d="M246 468 c4 -1 6 -1 6 0 0 1 -2 1 -4 1 -4 0 -4 0 -2 -1z" fill="white"/>
<path d="M261 467 c0 -1 7 -2 8 -1 1 1 0 1 -2 1 -1 0 -4 0 -4 1 -1 0 -2 0 -2
-1z" fill="white"/>
<path d="M317 457 l0 -11 3 0 2 0 0 11 0 11 -2 0 -3 0 0 -11z" fill="white"/>
<path d="M244 466 c-2 -1 -1 -5 2 -8 3 -6 5 -5 6 2 0 3 0 5 0 5 -1 1 -8 2 -8
1z" fill="white"/>
<path d="M326 466 c-2 0 -2 -1 -2 -9 l0 -9 3 0 c2 0 4 1 5 3 1 1 2 2 1 2 0 0
-1 -1 -2 -1 -1 -1 -2 -2 -4 -2 l-2 0 2 1 c6 2 9 6 6 10 0 1 -2 2 -5 3 -3 1 -3
1 0 1 3 0 7 -4 8 -7 1 -2 1 -2 3 2 l2 4 -4 0 -4 0 3 1 c3 1 5 1 5 2 0 0 -12 0
-15 -1z" fill="white"/>
<path d="M276 465 c0 -1 5 -1 12 -1 7 0 11 0 11 1 0 1 -4 1 -11 1 -7 0 -12 0
-12 -1z" fill="white"/>
<path d="M306 465 c0 0 1 -1 3 -1 1 -1 1 -1 -1 -1 -3 0 -3 0 -3 -6 l0 -6 5 0
5 0 0 8 0 7 -5 0 c-3 0 -5 0 -4 -1z" fill="white"/>
<path d="M260 458 c0 -8 1 -9 7 -9 4 0 2 2 -2 2 l-3 1 3 0 4 0 0 6 c0 4 0 6
-1 6 -1 0 -3 0 -5 1 l-3 0 0 -7z" fill="white"/>
<path d="M430 461 c-3 -2 -6 -7 -8 -10 -2 -5 -2 -7 -3 -18 0 -9 -1 -14 -2 -15
-1 -2 0 -4 2 -11 6 -23 7 -51 4 -73 -2 -17 -2 -30 1 -38 3 -10 6 -15 11 -20 5
-4 13 -9 14 -8 0 1 -1 3 -2 5 -4 7 -6 12 -7 21 -1 10 -1 12 3 29 l3 10 -1 9
c-2 9 -2 12 1 18 5 9 15 7 21 -4 5 -8 6 -16 6 -32 0 -15 0 -16 2 -21 4 -8 9
-14 16 -19 7 -5 9 -5 6 -1 -2 2 -4 6 -5 9 -2 5 -2 7 -2 17 1 30 1 30 -4 39 -2
5 -5 11 -7 14 -4 7 -5 15 -3 20 1 3 2 3 2 -5 0 -6 0 -8 2 -13 3 -6 3 -6 7 -6
3 0 5 -1 8 -4 3 -2 5 -4 7 -5 2 -1 14 -4 15 -4 0 1 -3 3 -8 5 -7 5 -16 12 -20
18 -1 2 1 0 6 -5 4 -4 11 -10 16 -13 18 -11 24 -19 25 -36 l1 -9 2 6 c4 8 5
16 3 25 -2 9 -6 15 -13 24 -9 10 -18 23 -23 32 l-4 8 -1 -4 c-2 -8 -10 -9 -14
-3 -2 3 -2 4 -2 12 0 11 -2 16 -9 22 -5 5 -8 8 -9 14 l-1 4 -1 -3 c-2 -6 -2
-13 2 -21 5 -9 6 -15 4 -23 -2 -7 -4 -10 -8 -13 -3 -2 -3 -2 -6 -1 -5 2 -6 6
-4 16 1 6 1 9 0 12 -2 7 -5 11 -11 17 -3 4 -6 8 -7 10 -3 5 -3 12 -2 19 1 4 2
7 1 7 0 0 -2 -2 -4 -4z m-2 -22 c0 -6 0 -7 4 -15 8 -14 10 -24 6 -37 -1 -5 -6
-15 -7 -14 0 1 1 2 2 4 6 10 7 26 2 37 -1 3 -3 9 -5 11 -3 5 -5 11 -4 16 1 2
1 4 1 4 0 0 1 -3 1 -6z" fill="white"/>
<path d="M275 462 c0 -1 1 -1 2 -1 1 0 3 -1 3 -2 3 -2 1 -4 -3 -4 -1 0 -2 0
-2 -1 0 -1 1 -1 1 -1 1 0 1 0 0 -1 -3 -2 1 -2 13 -3 l11 0 -10 1 c-14 1 -15 2
-2 1 11 0 11 0 11 2 0 1 -1 2 -1 2 -1 1 -2 2 -2 3 0 1 1 2 2 2 0 0 1 1 1 2 0
1 -2 1 -12 1 -7 0 -12 0 -12 -1z" fill="white"/>
<path d="M191 455 c-2 -3 -5 -26 -6 -38 -1 -10 -1 -16 0 -28 2 -23 -1 -45 -8
-61 -2 -4 -2 -4 0 -5 4 -4 10 -1 12 6 1 3 1 5 -1 11 -1 9 -1 15 2 21 3 5 7 10
9 10 1 0 1 0 0 -4 -1 -2 -2 -6 -2 -8 0 -5 2 -11 3 -11 1 0 9 42 9 46 0 1 2 6
5 11 3 5 5 10 6 13 0 6 2 12 2 14 1 1 1 2 -1 3 -1 0 -3 2 -5 6 -2 4 -3 5 -4 5
-7 -3 -7 -3 -14 4 -6 6 -7 7 -7 5z" fill="white"/>
<path d="M150 448 c-1 -4 -2 -10 -4 -15 -2 -5 -2 -9 -2 -9 2 0 7 7 8 11 1 4 1
13 0 16 0 2 -1 1 -2 -3z" fill="white"/>
<path d="M205 449 c0 -1 1 -2 2 -2 3 0 3 2 1 3 -3 1 -3 1 -3 -1z" fill="white"/>
<path d="M305 449 c0 -1 2 -1 5 -1 3 0 5 0 5 1 0 1 -2 1 -5 1 -3 0 -5 0 -5 -1z" fill="white"/>
<path d="M394 447 l-6 -3 -4 1 c-3 1 -5 3 -6 3 -2 1 -2 1 -6 -3 l-2 -3 4 -5
c3 -4 4 -6 5 -12 1 -9 4 -17 14 -44 4 -12 9 -25 11 -30 1 -5 3 -9 3 -9 1 0 2
2 3 3 2 3 2 5 2 11 0 6 0 8 -2 13 -3 5 -3 6 2 3 4 -3 5 -5 8 -12 l2 -5 0 12
c-1 21 -7 44 -16 68 -3 7 -5 13 -6 14 0 0 -2 0 -6 -2z" fill="white"/>
<path d="M259 447 c-1 -1 -2 -2 -3 -4 0 -1 -2 -2 -3 -3 -1 0 -2 -1 -4 -2 -4
-4 -14 -7 -19 -7 -2 1 -4 1 -5 0 -1 -1 -1 -5 -2 -10 -1 -9 -2 -10 -7 -19 -3
-4 -4 -8 -4 -12 -1 -7 -10 -51 -13 -63 -2 -6 -5 -16 -7 -23 -5 -15 -6 -24 -5
-44 0 -7 0 -13 -1 -12 0 2 -1 1 -3 -4 -2 -4 -5 -11 -8 -15 -5 -7 -5 -9 -5 -12
1 -6 5 -12 15 -23 6 -6 9 -10 8 -9 -2 1 -3 1 -3 -4 0 -2 0 -3 7 -6 4 -2 9 -4
10 -4 2 0 9 1 16 3 14 3 32 6 33 6 0 -1 -1 -1 -2 -1 -1 -1 -7 -2 -12 -3 l-9
-2 9 -2 9 -3 9 2 c10 1 13 3 13 7 0 1 2 3 5 5 6 5 12 11 14 16 1 3 1 4 -1 11
-1 4 -2 10 -2 13 0 7 3 24 9 54 l4 19 -2 7 c-2 8 -4 13 -9 19 -2 3 -3 5 -3 6
0 0 -1 2 -2 5 0 3 -1 6 -1 8 0 1 1 -2 2 -6 1 -5 3 -8 7 -13 6 -7 7 -9 15 -40
3 -12 6 -26 8 -31 4 -14 9 -31 9 -32 -1 0 -2 2 -3 5 -1 3 -1 5 -2 5 -1 -5 -2
-28 -2 -30 1 -6 9 -14 18 -18 4 -1 7 -3 7 -4 1 -1 0 -1 0 0 -2 0 -2 0 -1 -3 1
-5 2 -6 6 -7 3 -1 6 -1 11 0 6 1 9 1 16 0 15 -2 19 -1 24 2 7 4 13 7 13 6 -2
-3 8 0 11 3 2 3 5 12 4 13 -1 0 -3 -1 -7 -3 -3 -2 -5 -4 -6 -4 0 1 3 3 8 6 12
9 13 10 16 18 6 16 6 18 0 26 -3 3 -6 8 -8 12 l-3 6 -2 -3 c-1 -2 -1 -1 -1 11
0 12 0 13 -3 19 -1 4 -4 11 -5 17 -7 25 -20 64 -28 87 -8 21 -12 34 -13 45 -1
2 -2 5 -4 7 l-3 4 -2 -2 c-2 -2 -4 -3 -8 -4 -8 0 -19 1 -23 2 -1 1 -4 2 -5 3
-2 1 -4 3 -4 5 -1 2 -2 3 -3 2 -3 -1 -8 -1 -8 0 -1 2 -11 1 -12 0 -1 -2 -4 -2
-11 -2 l-10 0 0 -7 c-2 -17 -1 -70 2 -88 0 -3 0 -5 0 -5 -1 0 -2 7 -3 16 -1
11 -1 22 -1 49 0 34 0 35 -1 35 -2 1 -4 1 -5 1 -2 0 -3 1 -4 1 -2 2 -10 3 -12
2z m35 -70 c1 -10 2 -19 1 -22 0 -4 -1 -2 -1 9 -1 7 -2 24 -3 38 -1 13 -2 28
-2 32 0 3 1 -4 2 -16 1 -13 3 -31 3 -41z m-18 55 c-1 -1 -1 0 -1 2 0 1 0 2 1
1 0 0 0 -2 0 -3z m-29 -4 c-1 -4 -3 -10 -5 -14 -4 -9 -5 -16 -8 -33 -1 -8 -2
-14 -2 -13 0 1 1 10 2 19 2 14 3 18 7 29 3 7 5 13 5 13 0 1 2 6 2 6 1 0 0 -3
-1 -7z m25 -26 c-1 -12 -2 -26 -3 -32 0 -8 0 -10 -1 -7 -1 2 0 11 2 28 2 13 3
28 4 32 0 5 1 6 1 4 0 -2 -1 -13 -3 -25z m64 0 c10 -42 17 -69 23 -87 2 -8 7
-23 10 -34 3 -11 7 -26 9 -34 2 -8 4 -17 5 -21 1 -7 3 -12 5 -12 1 0 19 7 23
9 2 1 5 3 6 4 1 2 3 3 3 3 2 0 -4 -6 -8 -8 -3 -2 -9 -4 -13 -6 -5 -2 -10 -3
-10 -4 0 0 1 -1 2 -3 2 -2 3 -6 4 -8 1 -4 1 -6 -1 -14 -2 -6 -3 -11 -3 -11 1
0 3 1 6 2 6 3 4 1 -2 -2 -5 -3 -8 -3 -21 0 -8 1 -23 5 -21 5 1 0 7 -1 15 -3 8
-1 16 -2 18 -2 l3 1 3 8 c3 10 3 15 -1 21 -1 3 -3 5 -4 5 0 0 -7 -2 -13 -5
-17 -6 -22 -8 -30 -6 -3 1 -5 1 -5 2 1 0 3 0 5 -1 8 -2 15 1 38 10 l4 2 -2 3
c-1 2 -2 6 -2 10 -1 3 -4 16 -7 28 -4 12 -9 28 -11 36 -2 7 -4 15 -5 17 -4 14
-12 44 -18 68 -4 15 -10 46 -10 47 0 4 2 -2 5 -20z m-104 -38 c-1 -1 -1 -1 -1
0 0 1 0 2 1 2 0 -1 0 -1 0 -2z m39 -8 c0 -1 0 -1 -1 0 -1 1 -1 2 -1 3 0 0 0 0
1 -1 1 -1 1 -2 1 -2z m9 -21 c3 -4 3 -4 0 -2 -4 3 -18 16 -20 19 -1 2 2 0 7
-5 4 -5 10 -10 13 -12z m-53 -5 c-5 -20 -6 -32 -8 -60 l-2 -18 -7 -14 c-10
-20 -10 -21 -3 -34 3 -6 5 -11 5 -12 0 -2 1 -2 15 0 6 2 15 3 19 3 4 1 0 0
-13 -3 -20 -4 -29 -5 -33 -3 -1 1 0 1 5 1 3 0 6 0 6 1 0 1 -2 5 -5 10 -4 9 -4
10 -4 16 0 7 0 8 7 22 l7 15 2 22 c1 24 3 38 8 57 3 15 4 12 1 -3z m-18 -156
c0 -2 0 -2 -1 -2 -2 2 -3 9 -2 12 0 2 0 2 1 -3 0 -3 1 -6 2 -7z" fill="white"/>
<path d="M0 352 l0 -88 24 1 c30 1 40 1 59 0 l16 -1 0 6 c1 4 2 9 3 12 0 2 1
6 1 8 0 6 4 15 8 19 2 2 3 5 3 6 l0 3 -14 0 -14 0 -1 -6 c-1 -3 -2 -6 -2 -6
-1 -2 -4 5 -4 8 0 4 -2 5 -8 5 l-5 0 0 -8 c-1 -5 -2 -9 -2 -10 -2 -1 -5 -1 -7
0 -4 5 -5 33 -3 48 2 10 3 12 7 12 3 0 4 -2 5 -10 l0 -8 5 0 c3 0 5 0 6 1 0 1
2 1 4 1 4 0 5 0 7 3 1 2 6 7 11 12 l8 7 0 18 0 18 -4 0 c-4 0 -4 0 -6 3 0 2
-1 5 -1 6 0 2 -1 3 -3 4 -25 5 -39 9 -49 14 -19 9 -21 10 -33 10 l-11 1 0 -89z" fill="white"/>
<path d="M99 437 c-1 -5 -1 -25 0 -28 1 -3 2 -3 5 -3 l3 0 0 18 0 17 -3 0 c-4
0 -4 0 -5 -4z" fill="white"/>
<path d="M146 379 c-9 -4 -16 -16 -12 -23 3 -5 11 -5 17 1 2 2 4 3 4 2 0 -2
-7 -7 -11 -8 -6 -1 -10 1 -12 6 -1 2 -1 2 -4 -3 l-3 -5 3 -2 c4 -3 6 -6 6 -11
0 -7 -4 -13 -14 -23 -4 -4 -9 -10 -10 -12 -3 -5 -4 -14 -3 -22 l1 -5 2 5 c3 8
12 16 20 19 3 1 6 3 6 3 0 3 5 14 10 21 8 11 9 15 9 24 0 3 1 10 2 15 2 10 0
15 -5 18 -1 0 -3 1 -3 1 0 0 -2 -1 -3 -1z" fill="white"/>
<path d="M412 369 c0 0 1 -3 2 -5 2 -9 1 -17 -4 -22 l-3 -3 3 -10 c2 -5 5 -16
7 -25 4 -16 7 -22 9 -23 0 0 0 3 -2 6 -6 13 -7 24 -5 39 4 22 4 23 0 32 -2 4
-4 8 -5 9 -1 2 -2 2 -2 2z" fill="white"/>
<path d="M193 362 c-4 -7 -5 -13 -3 -22 2 -8 2 -8 1 -13 -3 -7 -9 -10 -14 -6
-2 1 -2 1 -3 0 -3 -5 -10 -12 -14 -16 -3 -2 -5 -4 -5 -5 0 -1 -1 -5 -3 -9 -3
-8 -3 -17 0 -23 2 -4 8 -13 10 -13 0 0 0 3 0 7 0 8 2 14 7 18 4 3 10 5 13 5 1
-1 2 0 2 3 1 3 3 11 6 18 2 8 5 19 7 26 l3 13 -3 5 c-2 4 -2 5 -2 11 1 3 1 6
1 6 -1 0 -2 -2 -3 -5z" fill="white"/>
<path d="M452 363 c-4 -2 -6 -8 -6 -15 1 -7 2 -8 7 -8 6 0 11 7 11 14 0 4 -2
6 -7 9 -2 1 -2 1 -5 0z" fill="white"/>
<path d="M59 357 c-1 -3 -3 -17 -3 -28 0 -15 3 -29 6 -27 2 2 3 50 0 55 0 2
-2 2 -3 0z" fill="white"/>
<path d="M465 350 c-2 -8 -7 -12 -13 -12 l-4 1 0 -8 c-1 -4 -2 -11 -3 -15 -6
-17 -3 -35 8 -49 l1 -2 -3 0 -3 1 2 -2 c2 -3 6 -11 6 -13 0 -3 1 -1 3 4 1 3 2
8 2 11 0 5 -1 7 -4 14 -2 4 -5 9 -6 12 -2 3 -2 5 -2 15 0 13 1 17 6 17 4 0 6
-3 8 -13 0 -5 2 -10 2 -12 3 -5 9 -9 16 -12 2 0 2 0 -1 4 -2 2 -5 7 -7 10 -2
5 -3 6 -3 23 0 12 0 18 -1 22 -2 6 -3 7 -4 4z" fill="white"/>
<path d="M491 348 c1 -3 2 -5 2 -6 0 -2 1 -2 13 -2 12 0 12 0 8 2 -14 3 -16 4
-18 7 -2 2 -4 3 -5 3 -2 0 -2 0 0 -4z" fill="white"/>
<path d="M543 346 l2 -6 11 0 c9 0 21 0 39 0 l5 0 0 6 0 6 -30 0 -30 0 3 -6z" fill="white"/>
<path d="M118 342 l-4 -3 8 0 c4 0 8 0 8 1 0 1 -4 4 -6 4 -1 0 -4 -1 -6 -2z" fill="white"/>
<path d="M81 342 c-2 0 -2 -1 -2 -6 l0 -6 2 5 c1 2 2 5 2 6 1 2 1 2 -2 1z" fill="white"/>
<path d="M69 340 l-3 0 0 -9 1 -9 4 -1 5 0 0 10 c0 11 1 10 -7 9z" fill="white"/>
<path d="M102 335 c-5 -2 -11 -7 -13 -11 l-1 -3 13 0 13 0 0 8 0 8 -4 0 c-2 0
-5 -1 -8 -2z" fill="white"/>
<path d="M116 326 c0 -6 0 -11 1 -11 1 0 9 9 11 13 1 2 2 5 2 6 0 3 0 3 -7 3
l-7 0 0 -11z" fill="white"/>
<path d="M494 335 c1 -1 1 -5 1 -8 l0 -5 7 3 c7 4 17 7 21 7 2 0 3 1 3 1 0 3
-2 4 -17 4 l-15 0 0 -2z" fill="white"/>
<path d="M546 334 c0 -3 0 -3 6 -5 20 -6 36 -23 42 -43 2 -4 3 -10 3 -14 2
-12 3 -6 3 17 l0 22 -3 0 c-3 0 -4 1 -9 9 -3 5 -7 11 -8 13 l-2 4 -16 0 -16 0
0 -3z" fill="white"/>
<path d="M581 336 c3 -5 12 -20 14 -21 1 -1 2 -2 3 -2 2 0 2 1 2 12 l0 12 -10
0 c-8 0 -10 0 -9 -1z" fill="white"/>
<path d="M515 327 c-5 -1 -16 -6 -19 -9 -2 0 -2 -3 -3 -6 l0 -5 2 1 c11 8 18
12 29 13 4 1 7 1 7 1 0 1 0 2 -1 4 -1 3 -2 3 -5 3 -3 0 -7 -1 -10 -2z" fill="white"/>
<path d="M547 325 c0 -2 0 -3 0 -4 0 -1 2 -2 5 -3 11 -5 19 -12 26 -22 6 -10
8 -18 8 -30 0 -9 0 -13 -2 -18 -6 -18 -21 -32 -39 -36 -8 -3 -21 -2 -29 0 -22
7 -38 27 -40 49 0 8 1 17 2 21 1 1 0 2 -2 3 -4 2 -4 2 -6 -4 -3 -15 -2 -30 5
-44 6 -11 17 -23 28 -28 12 -6 19 -7 32 -7 17 1 30 7 42 20 32 33 19 88 -24
104 l-6 2 0 -3z" fill="white"/>
<path d="M453 319 c0 -1 0 -5 -1 -9 l0 -9 4 0 c4 -1 4 -1 4 2 -1 2 -1 5 -1 8
-2 7 -2 9 -4 9 0 0 -1 0 -2 -1z" fill="white"/>
<path d="M516 317 c-10 -3 -23 -12 -23 -16 0 -2 1 -1 6 3 6 6 18 11 26 12 5 0
7 1 7 2 0 2 -9 1 -16 -1z" fill="white"/>
<path d="M545 316 c0 0 4 -3 8 -5 21 -10 33 -33 28 -55 -4 -19 -19 -35 -37
-39 -22 -6 -46 4 -57 25 -6 12 -8 25 -3 39 0 1 0 2 -1 2 -3 0 -4 -7 -4 -18 0
-8 0 -11 2 -17 11 -31 46 -45 75 -30 12 7 22 18 26 31 2 5 2 8 2 17 0 16 -5
28 -17 39 -8 8 -22 15 -22 11z" fill="white"/>
<path d="M519 313 c-9 -3 -9 -2 -1 -16 4 -7 8 -13 8 -13 1 -1 1 6 1 14 1 18 1
17 -8 15z" fill="white"/>
<path d="M529 313 c0 -1 0 -23 1 -28 0 0 1 -1 2 -1 1 0 1 1 1 5 0 3 0 6 -1 7
-1 0 -1 3 1 14 0 3 0 4 -1 4 -1 0 -2 -1 -3 -1z" fill="white"/>
<path d="M543 309 c-1 -2 -3 -5 -4 -7 -3 -4 -3 -5 -3 -12 l1 -7 7 13 c8 13 8
13 6 15 -4 2 -6 1 -7 -2z" fill="white"/>
<path d="M507 307 c-1 -1 13 -26 14 -26 0 0 1 0 2 1 1 0 -1 4 -6 13 -7 12 -9
14 -10 12z" fill="white"/>
<path d="M548 298 c-3 -5 -6 -11 -7 -12 -2 -3 -2 -3 -1 -4 1 -1 2 -1 2 -1 1 0
15 25 14 26 -1 2 -3 0 -8 -9z" fill="white"/>
<path d="M499 301 c-7 -6 -6 -8 8 -16 6 -4 11 -7 11 -6 1 1 -12 23 -14 25 0 1
-2 0 -5 -3z" fill="white"/>
<path d="M558 303 c-2 -3 -13 -22 -13 -23 -1 -2 2 0 14 6 l12 8 -5 5 c-3 3 -6
6 -6 6 -1 0 -2 -1 -2 -2z" fill="white"/>
<path d="M453 297 c0 -1 2 -6 5 -11 3 -5 5 -10 6 -11 0 -4 2 -5 2 -1 0 1 1 5
2 9 l1 6 -2 2 c-2 2 -4 4 -5 5 -1 3 -2 3 -6 3 -4 0 -4 0 -3 -2z" fill="white"/>
<path d="M130 294 c-2 -2 -2 -2 0 -3 2 -1 2 -1 3 0 2 4 0 5 -3 3z" fill="white"/>
<path d="M143 289 c-3 -4 -2 -4 0 -6 3 -1 3 -1 4 3 1 6 -2 8 -4 3z" fill="white"/>
<path d="M124 290 c-2 -1 -1 -2 4 -5 7 -4 7 -4 6 -1 0 1 -2 3 -4 5 -4 2 -5 2
-6 1z" fill="white"/>
<path d="M559 284 c-11 -6 -13 -9 -11 -10 0 -1 4 1 9 4 5 3 10 6 13 8 4 2 5 4
2 5 -1 0 -7 -3 -13 -7z" fill="white"/>
<path d="M300 274 l-3 -15 5 -5 c3 -3 5 -6 6 -9 2 -5 2 -5 5 -1 2 4 3 1 -6 31
l-4 14 -3 -15z" fill="white"/>
<path d="M499 286 c0 -1 7 -8 12 -10 3 -3 4 -3 5 -1 0 0 0 2 -1 2 -1 2 -16 10
-16 9z" fill="white"/>
<path d="M120 282 c-1 -2 -1 -5 -2 -8 l0 -4 14 0 c17 0 18 0 7 6 -3 2 -9 5
-12 7 l-5 3 -2 -4z" fill="white"/>
<path d="M562 279 c-6 -4 -12 -7 -12 -8 -1 -1 3 -1 14 -1 l15 0 0 4 c-1 5 -4
12 -5 12 0 0 -6 -3 -12 -7z" fill="white"/>
<path d="M115 279 c-5 -10 -3 -25 3 -38 4 -8 14 -19 23 -23 10 -5 26 -8 26 -4
0 1 -1 1 -5 1 -10 0 -25 7 -33 15 -4 5 -10 14 -12 21 -2 7 -2 23 0 28 2 6 0 6
-2 0z" fill="white"/>
<path d="M139 281 c-1 -1 5 -6 6 -6 2 0 1 4 -2 6 -3 2 -4 2 -4 0z" fill="white"/>
<path d="M485 278 c-2 -8 -3 -8 14 -8 14 0 15 0 14 2 -1 0 -5 2 -8 2 -4 1 -7
2 -8 3 -3 1 -2 -2 1 -4 2 -1 3 -2 2 -2 -1 0 -3 2 -5 4 -2 2 -5 5 -6 5 l-3 2
-1 -4z" fill="white"/>
<path d="M527 281 c-8 -3 -11 -8 -11 -16 0 -6 3 -10 8 -13 11 -6 22 1 23 13 0
7 -2 11 -9 15 -5 2 -6 2 -11 1z m9 -7 c2 -1 5 -6 5 -9 0 -1 -1 -3 -3 -5 -2 -3
-4 -3 -6 -3 -5 0 -9 3 -10 7 0 3 2 8 5 10 2 1 7 1 9 0z" fill="white"/>
<path d="M171 277 l-2 -2 2 -3 c4 -5 4 -10 0 -13 -2 -2 -3 -3 -4 -3 -1 0 -1
-1 0 -3 1 -3 1 -3 3 -2 11 3 14 17 7 26 -3 2 -3 3 -6 0z" fill="white"/>
<path d="M427 277 c1 -2 1 -4 2 -6 l0 -4 4 1 c3 0 5 0 5 0 0 0 -3 3 -6 6 -3 3
-5 4 -5 3z" fill="white"/>
<path d="M103 273 c-2 -10 0 -24 6 -36 7 -14 21 -27 37 -32 6 -2 26 -4 26 -3
0 1 -1 3 -2 5 -2 3 -3 3 -7 3 -24 0 -46 20 -52 44 0 4 -1 8 -1 9 0 2 -1 3 -1
3 -1 1 -3 3 -4 6 l-2 5 0 -4z" fill="white"/>
<path d="M527 271 c-5 -5 -2 -12 5 -12 3 0 5 2 6 6 1 1 0 3 -2 5 -3 4 -5 4 -9
1z" fill="white"/>
<path d="M167 271 c-2 -2 -2 -10 -1 -11 1 -2 1 -2 3 0 4 3 4 8 1 10 -2 2 -3 2
-3 1z" fill="white"/>
<path d="M118 267 c-1 0 -1 -1 -1 -2 0 -1 3 -1 15 -1 14 0 15 0 15 2 0 2 -1 2
-14 2 -8 0 -15 0 -15 -1z" fill="white"/>
<path d="M484 267 c-1 0 -1 -1 -1 -2 0 -1 3 -1 15 -1 14 0 15 0 15 2 0 2 -1 2
-14 2 -8 0 -15 0 -15 -1z" fill="white"/>
<path d="M550 266 c0 -2 1 -2 15 -2 14 0 15 0 15 2 0 1 -2 2 -15 2 -14 0 -15
0 -15 -2z" fill="white"/>
<path d="M430 265 c-3 -3 3 -17 12 -29 l6 -7 0 -7 -1 -6 20 0 20 0 -5 5 c-8 9
-14 22 -16 33 -1 7 -1 7 -3 1 -2 -7 -6 -13 -8 -13 -1 0 -2 1 -2 5 -1 6 -4 12
-8 16 -3 3 -4 3 -9 3 -3 0 -6 0 -6 -1z" fill="white"/>
<path d="M38 263 c-7 0 -17 -1 -25 -1 l-13 0 0 -23 0 -23 61 0 60 0 -4 4 c-8
9 -15 23 -17 34 0 3 -1 6 -1 7 0 0 -9 1 -20 2 -21 1 -24 1 -41 0z" fill="white"/>
<path d="M597 258 c-1 -13 -8 -28 -16 -37 -2 -2 -4 -4 -4 -4 0 -1 5 -1 12 -1
l11 0 0 24 c0 14 0 24 -1 24 0 0 -1 -3 -2 -6z" fill="white"/>
<path d="M118 259 c0 -4 3 -13 4 -13 2 0 26 14 25 15 0 1 -7 1 -15 1 l-14 0 0
-3z" fill="white"/>
<path d="M484 257 c1 -3 2 -6 2 -8 l2 -4 13 8 c7 4 13 8 12 8 0 1 -7 1 -15 1
l-14 0 0 -5z" fill="white"/>
<path d="M550 261 c-1 -1 22 -15 24 -15 2 -1 5 9 5 13 l0 3 -14 0 c-8 0 -15 0
-15 -1z" fill="white"/>
<path d="M151 260 c0 -2 4 -7 7 -9 3 -1 7 -2 4 0 -2 1 -4 3 -7 5 -2 3 -4 4 -4
4z" fill="white"/>
<path d="M139 252 c-5 -3 -11 -6 -13 -7 -2 -1 -3 -2 -2 -4 0 -2 1 -1 15 7 7 4
11 7 11 8 -1 2 -2 2 -11 -4z" fill="white"/>
<path d="M502 251 c-6 -4 -12 -7 -12 -7 -1 0 -1 -1 0 -3 1 -1 3 0 13 6 12 7
15 10 12 11 -1 0 -7 -3 -13 -7z" fill="white"/>
<path d="M548 257 c-2 -1 0 -3 12 -10 10 -6 12 -7 13 -6 1 2 1 2 -6 6 -3 2 -9
6 -13 7 -3 2 -6 4 -6 3z" fill="white"/>
<path d="M139 246 c-7 -4 -12 -8 -13 -8 0 -1 2 -3 5 -7 4 -3 6 -5 7 -4 2 2 15
25 14 25 0 1 -6 -2 -13 -6z" fill="white"/>
<path d="M296 249 c0 -4 0 -5 4 -12 4 -8 14 -20 16 -20 1 0 1 2 1 5 0 3 -1 5
-4 8 -2 2 -4 4 -5 4 -1 0 -2 1 -2 5 -1 5 -5 12 -8 13 0 1 -1 0 -2 -3z" fill="white"/>
<path d="M505 245 c-14 -8 -14 -7 -8 -14 6 -6 6 -6 13 6 3 6 7 11 8 13 2 4 -1
3 -13 -5z" fill="white"/>
<path d="M544 252 c0 0 3 -6 8 -13 l7 -13 4 3 c1 1 4 4 5 5 l3 4 -6 3 c-10 7
-20 12 -20 12 -1 0 -1 0 -1 -1z" fill="white"/>
<path d="M175 250 c-2 -1 -2 -2 0 -5 3 -5 6 -2 3 4 -1 2 -2 2 -3 1z" fill="white"/>
<path d="M148 238 c-8 -12 -8 -14 -6 -15 1 0 4 4 8 12 4 7 7 13 7 14 0 0 -1 1
-1 1 -1 0 -4 -4 -8 -12z" fill="white"/>
<path d="M513 238 c-7 -12 -8 -15 -5 -15 2 0 16 24 15 26 0 0 -1 1 -1 1 -1 0
-4 -4 -9 -12z" fill="white"/>
<path d="M540 249 c-1 -1 13 -26 15 -26 3 0 2 3 -5 15 -6 11 -9 14 -10 11z" fill="white"/>
<path d="M156 241 c-11 -19 -11 -19 -10 -20 2 -1 14 -4 15 -4 0 0 0 8 0 16 l0
16 -5 -8z" fill="white"/>
<path d="M170 248 c-1 -10 -1 -20 -1 -20 1 0 2 2 4 5 3 5 3 6 2 8 -1 2 -5 8
-5 7z" fill="white"/>
<path d="M524 245 c-7 -12 -13 -23 -13 -23 1 -1 9 -4 13 -4 l3 -1 0 15 c0 9 0
16 0 16 -1 0 -2 -1 -3 -3z" fill="white"/>
<path d="M536 247 c-1 0 -1 -7 0 -15 l0 -15 3 0 c6 2 13 4 13 5 -1 2 -15 26
-16 26 0 0 0 0 0 -1z" fill="white"/>
<path d="M163 232 c0 -11 0 -15 1 -15 2 0 4 9 3 20 0 9 0 10 -2 10 -2 0 -2 -1
-2 -15z" fill="white"/>
<path d="M529 232 c0 -14 0 -15 2 -15 2 0 2 1 2 15 0 14 0 15 -2 15 -2 0 -2
-1 -2 -15z" fill="white"/>
<path d="M294 237 c0 -1 -1 -6 -1 -11 l0 -10 9 0 10 0 -5 5 c-3 3 -6 8 -8 11
-3 4 -4 6 -5 5z" fill="white"/>
<path d="M312 237 c0 -2 1 -3 3 -5 3 -3 3 -3 3 -1 0 1 -1 3 -2 4 -3 3 -3 3 -4
2z" fill="white"/>
<path d="M0 209 l0 -6 71 0 71 0 -7 3 c-3 2 -7 5 -9 6 l-3 2 -61 0 -62 0 0 -5z" fill="white"/>
<path d="M295 211 c2 -8 1 -7 11 -8 9 0 9 0 9 2 0 2 0 4 1 6 l0 3 -11 0 -11 0
1 -3z" fill="white"/>
<path d="M444 210 c0 -3 -1 -5 -2 -6 0 -1 7 -1 33 -1 l33 0 -7 3 c-3 2 -7 5
-9 6 -3 2 -4 2 -24 2 l-22 0 -2 -4z" fill="white"/>
<path d="M571 212 c-2 -1 -6 -4 -9 -6 l-6 -3 22 0 22 0 0 6 0 5 -13 0 c-12 0
-14 0 -16 -2z" fill="white"/>
<path d="M65 200 c-64 0 -65 0 -65 -2 0 -2 1 -2 89 -2 70 0 88 0 88 1 -1 3
-30 4 -112 3z" fill="white"/>
<path d="M440 200 c0 -1 -1 -2 -1 -3 -1 -1 15 -1 80 -1 80 0 81 0 81 2 0 2 -1
2 -18 2 -10 0 -22 0 -26 0 -27 0 -38 0 -75 0 -26 0 -40 0 -41 0z" fill="white"/>
<path d="M296 198 c-1 0 -1 -1 -1 -2 0 0 5 0 10 0 10 0 11 0 10 2 0 2 -1 2
-10 2 -7 0 -9 0 -9 -2z" fill="white"/>
<path d="M0 186 l0 -8 92 0 93 0 1 4 c1 5 1 5 -3 8 l-4 4 -89 0 -90 0 0 -8z" fill="white"/>
<path d="M292 191 c-1 -2 -5 -5 -8 -8 l-6 -5 28 0 27 0 -5 3 c-2 2 -6 6 -8 8
l-3 5 -12 0 -12 0 -1 -3z" fill="white"/>
<path d="M433 192 c-1 -1 -2 -3 -2 -6 0 -2 -1 -5 -1 -6 -1 -2 3 -2 84 -2 l86
0 0 8 0 8 -82 0 c-77 0 -83 0 -85 -2z" fill="white"/>
<path d="M0 88 l0 -88 300 0 300 0 0 88 0 88 -8 0 c-6 0 -7 0 -6 -1 1 -1 2 -3
2 -6 l0 -4 -18 0 -17 0 -8 6 -7 5 -25 0 c-25 0 -25 0 -24 -2 2 -1 2 -3 2 -5
l0 -3 -18 -1 -18 0 -6 5 -7 6 -7 0 c-4 0 -8 -1 -9 -1 -2 -1 -2 -4 -2 -20 0
-10 0 -26 -1 -35 l-1 -16 3 -7 3 -6 -2 -6 -2 -6 4 -6 c2 -4 4 -7 6 -7 3 -1 8
-6 8 -8 0 -1 2 -3 5 -6 2 -2 5 -5 5 -6 2 -5 1 -14 -1 -16 -3 -4 -15 -5 -32 -5
-17 1 -22 2 -30 7 -2 2 -5 3 -6 4 -2 0 -4 1 -5 3 -2 2 -2 2 -2 14 1 6 1 13 2
15 0 4 0 5 -3 9 -4 6 -5 8 -3 14 2 6 1 11 -7 28 -8 17 -11 23 -13 34 -2 9 -2
9 -5 10 -4 1 -7 5 -8 9 l-1 4 -10 0 -11 0 1 -5 0 -6 -18 0 -18 1 0 5 c0 5 -1
5 -3 5 -1 0 -2 -1 -4 -3 -1 -2 -3 -4 -5 -5 l-3 -1 -2 -9 c-1 -15 -3 -20 -10
-38 -7 -17 -7 -18 -7 -26 0 -7 -1 -10 -2 -13 -2 -4 -2 -4 -1 -12 2 -8 2 -22 1
-25 0 -3 -5 -5 -18 -6 -6 -1 -18 -3 -25 -4 -16 -3 -34 -4 -45 -1 -11 2 -12 3
-12 12 0 8 1 10 8 12 5 2 12 6 16 10 2 2 4 3 7 4 3 0 6 2 9 4 3 3 6 5 7 6 2 1
2 1 0 5 -2 4 -1 6 2 11 2 3 2 5 3 15 0 6 0 17 -1 27 -1 8 -2 19 -2 24 l0 8 -5
2 c-4 3 -4 3 -22 3 l-17 0 -6 -6 -6 -5 -18 0 -17 1 -1 3 c0 2 0 4 2 5 1 2 1 2
-21 2 l-23 0 -7 -5 -7 -6 -18 0 -18 0 0 4 c0 2 1 4 2 5 1 2 1 2 -6 2 l-7 0 0
-88z m508 80 c2 -4 -1 -6 -6 -6 -5 0 -7 1 -5 4 2 4 9 5 11 2z m-438 -4 c2 -2
1 -4 -2 -5 -3 -1 -7 0 -7 2 0 2 2 4 5 4 1 0 3 -1 4 -1z m13 -6 c3 -2 2 -5 -2
-6 -3 0 -8 1 -8 3 0 1 4 5 6 5 1 0 3 -1 4 -2z m66 -14 c3 -2 5 -6 5 -8 -1 -2
-2 -2 -12 -2 -9 0 -11 1 -13 2 -2 3 -1 4 6 8 6 3 10 3 14 0z m405 -10 c2 -1 3
-5 0 -5 0 -1 -3 -1 -5 -1 -5 0 -6 2 -2 6 3 2 4 3 7 0z m-229 -8 c5 -7 4 -8 -7
-8 -4 0 -8 0 -9 0 -4 2 -1 7 6 10 6 3 8 2 10 -2z m250 -7 c2 -4 1 -5 -6 -5 -5
0 -6 1 -6 3 0 2 3 4 8 4 2 0 3 -1 4 -2z m-59 -11 c2 -1 4 -4 5 -7 2 -5 3 -5 6
-5 3 0 4 -1 7 -4 3 -3 4 -6 2 -7 -7 -3 -20 -2 -20 2 0 2 -1 2 -11 2 -12 1 -19
3 -19 6 0 2 11 13 15 14 6 1 11 1 15 -1z m-232 -3 c0 -2 1 -3 1 -4 -1 -1 -9
-2 -12 -1 -3 1 -3 2 0 5 3 3 9 3 11 0z m-243 -25 c4 -2 9 -7 9 -9 0 -1 1 -1 2
0 6 1 12 -6 9 -10 -1 -1 -12 -2 -14 0 0 1 -3 1 -8 -1 -10 -2 -25 0 -27 5 -1 1
0 3 3 8 6 9 7 9 16 9 4 -1 8 -2 10 -2z m61 -3 c2 -2 3 -4 3 -5 -1 -4 -17 -4
-18 0 0 2 3 6 6 7 4 2 7 1 9 -2z m473 -38 c5 -2 8 -5 7 -7 0 -3 -3 -3 -14 -3
-7 0 -9 0 -11 1 -2 2 0 5 5 8 4 3 7 4 13 1z m-503 -3 c2 -3 2 -6 1 -7 -1 0
-11 0 -13 1 -3 0 -2 3 1 5 4 4 9 4 11 1z" fill="white"/>
<path d="M16 174 c-3 -2 -4 -6 -1 -6 3 -1 28 -1 30 0 0 0 1 2 1 4 l1 4 -14 0
c-13 0 -15 0 -17 -2z" fill="white"/>
<path d="M50 175 c-1 -1 -2 -3 -2 -4 0 -2 0 -2 5 1 2 2 4 3 4 4 0 1 -6 0 -7
-1z" fill="white"/>
<path d="M108 174 c-2 -1 -3 -3 -3 -4 0 -1 0 -2 0 -2 0 0 8 0 17 -1 l16 0 0 3
c0 1 0 4 1 4 0 2 -1 2 -14 2 -13 0 -15 0 -17 -2z" fill="white"/>
<path d="M141 175 c-1 -1 -1 -3 -1 -4 0 -2 1 -2 4 1 l3 4 -2 0 c-2 0 -3 -1 -4
-1z" fill="white"/>
<path d="M283 173 c0 -2 0 -4 0 -5 1 -1 7 -1 17 -1 l16 0 0 3 c0 1 0 3 -1 4
-1 2 -2 2 -16 2 l-15 0 -1 -3z" fill="white"/>
<path d="M447 175 c0 0 2 -2 4 -3 3 -3 3 -3 3 -1 0 1 -1 2 -2 3 -2 2 -5 3 -5
1z" fill="white"/>
<path d="M455 175 c0 -1 1 -3 1 -4 l0 -3 17 0 c15 0 16 0 16 2 0 1 -1 3 -3 4
-3 2 -4 2 -18 2 -11 0 -14 0 -13 -1z" fill="white"/>
<path d="M546 173 c4 -4 5 -4 5 -2 0 3 -2 5 -6 5 l-3 0 4 -3z" fill="white"/>
<path d="M553 172 l1 -4 13 -1 c15 0 19 0 19 3 0 1 -1 3 -3 4 -3 2 -4 2 -17 2
l-14 0 1 -4z" fill="white"/>
<path d="M218 170 c-7 -2 -12 -2 -17 0 -2 0 -2 0 -2 -9 l0 -9 3 3 c4 4 9 6 14
6 l4 0 -4 -3 c-8 -4 -12 -15 -9 -22 2 -3 2 -4 4 -4 5 0 8 6 5 12 -2 4 -1 4 3
3 4 -2 6 -5 7 -10 2 -6 1 -11 -4 -17 -5 -5 -5 -7 0 -8 6 0 10 5 12 13 l1 5 1
-3 c3 -4 4 -12 2 -18 -2 -5 -6 -8 -11 -9 -4 0 -6 -2 -6 -4 0 -4 2 -5 7 -6 8
-1 13 3 13 10 0 1 0 2 1 1 1 0 2 1 2 3 1 2 3 9 7 16 6 15 8 24 10 35 1 4 1 9
1 10 l1 3 -7 -1 c-6 0 -9 0 -15 2 -10 3 -14 3 -23 1z" fill="white"/>
<path d="M413 171 c-2 0 -7 -2 -12 -4 l-8 -4 -13 1 c-11 1 -15 2 -19 1 -7 -2
-7 -2 -4 -15 2 -9 5 -16 13 -33 3 -6 6 -14 6 -18 2 -7 5 -11 9 -11 3 0 7 3 7
5 0 2 -2 4 -6 4 -4 1 -7 3 -9 7 -1 3 -1 10 0 14 l1 3 3 -6 c2 -5 5 -7 9 -7 4
1 4 3 -1 9 -6 6 -7 8 -7 12 0 6 6 15 9 15 0 0 0 -2 0 -5 0 -7 2 -9 6 -9 8 1 4
20 -5 24 -3 2 -4 2 -3 3 4 2 13 0 18 -4 8 -7 9 -17 3 -30 -2 -7 -3 -8 -2 -10
1 -1 2 -2 3 -2 0 1 1 1 2 1 1 0 3 6 3 9 0 3 1 4 2 2 2 -4 3 31 3 41 -1 9 -1 8
-8 7z" fill="white"/>
<path d="M501 167 c-3 -1 -3 -3 0 -3 3 0 6 1 6 2 0 1 -3 2 -6 1z" fill="white"/>
<path d="M63 162 c0 -1 3 -2 5 -2 2 1 0 3 -2 3 -1 0 -2 0 -3 -1z" fill="white"/>
<path d="M208 158 c-2 -1 -5 -3 -6 -5 -2 -2 -2 -3 -2 -12 1 -12 2 -18 5 -24 1
-5 1 -5 -1 -8 -1 -2 -2 -5 -3 -7 0 -2 -1 -5 -3 -7 -2 -2 -2 -4 -2 -7 1 -4 2
-4 6 -3 l4 2 -3 0 c-3 0 -3 0 -1 1 3 0 9 -2 17 -6 7 -5 11 -7 16 -6 3 1 4 2 7
6 2 4 2 5 1 10 l0 5 -2 -3 c-2 -6 -14 -8 -20 -3 -4 4 -2 9 3 10 7 2 9 3 11 8
3 6 4 10 2 15 l-2 3 0 -5 c-1 -7 -7 -12 -14 -12 -2 0 -3 1 -4 2 -1 3 0 5 3 9
4 4 5 6 5 11 0 5 -2 10 -5 12 -3 2 -3 2 -2 -2 1 -4 1 -7 -2 -10 -3 -3 -6 -3
-9 0 -2 2 -2 4 -2 8 0 7 2 11 6 16 4 4 3 5 -3 2z" fill="white"/>
<path d="M77 157 c-2 -1 -2 -1 -1 -2 2 -1 7 -1 7 0 0 1 -2 3 -3 3 -1 0 -2 -1
-3 -1z" fill="white"/>
<path d="M396 153 c9 -7 9 -25 0 -25 -4 0 -6 3 -7 9 l-1 5 -2 -5 c-2 -4 -3
-10 -1 -13 1 -2 3 -4 5 -6 6 -6 5 -12 -1 -12 -3 0 -8 3 -10 7 l-1 4 0 -5 c0
-7 3 -12 7 -13 6 -1 7 -2 8 -4 1 -3 1 -3 -1 -5 -1 -2 -3 -3 -5 -3 -2 -1 -9 1
-9 3 0 2 -2 1 -3 -2 0 -3 0 -5 3 -8 2 -4 3 -5 6 -5 3 0 5 1 8 3 6 5 12 7 17 8
l6 0 -4 -1 -4 -2 4 0 c10 -2 10 -2 12 3 1 4 1 5 0 7 -1 3 -1 3 -3 1 -1 -1 -3
-2 -4 -2 -3 0 -7 3 -7 5 0 1 2 3 4 6 4 4 5 5 5 10 1 4 1 6 0 6 -1 1 -1 0 -1
-1 0 -4 -4 -8 -6 -8 -6 0 -6 5 -2 14 7 13 3 26 -8 30 -2 1 -5 2 -6 2 -2 0 -2
0 1 -3z" fill="white"/>
<path d="M136 142 c-6 -3 -7 -4 -4 -5 4 -1 20 -1 20 0 0 2 -5 6 -8 7 -2 1 -4
0 -8 -2z" fill="white"/>
<path d="M547 132 c-1 -2 -1 -2 3 -2 3 0 4 0 4 1 -1 2 -5 2 -7 1z" fill="white"/>
<path d="M314 126 c-2 -1 -4 -2 -4 -2 0 -1 0 -2 -1 -2 0 -2 1 -2 8 -2 4 0 8 0
9 1 0 1 -4 7 -6 7 -1 0 -3 -1 -6 -2z" fill="white"/>
<path d="M202 114 c0 -4 0 -6 1 -5 1 0 1 7 0 10 -1 1 -1 0 -1 -5z" fill="white"/>
<path d="M567 118 c-4 -1 -2 -2 3 -2 3 0 4 0 4 1 -1 2 -4 2 -7 1z" fill="white"/>
<path d="M501 107 c-3 -1 -10 -8 -12 -11 -1 -3 2 -4 12 -5 10 0 17 0 19 2 2 2
2 2 0 6 -1 3 -3 6 -4 7 -2 2 -10 2 -15 1z m9 -13 c1 -1 1 -2 1 -2 -1 0 -1 1
-2 2 -1 1 -1 2 -1 2 1 0 1 -1 2 -2z" fill="white"/>
<path d="M275 104 c-2 -2 -2 -2 -1 -2 1 -1 3 -1 5 0 3 0 4 1 3 2 -2 1 -5 1 -7
0z" fill="white"/>
<path d="M415 101 c-4 -4 -5 -5 -2 -6 5 -2 7 0 6 6 l0 4 -4 -4z" fill="white"/>
<path d="M521 91 c-2 -1 -3 -3 -3 -3 1 -3 17 -3 17 -1 0 1 -1 3 -2 4 -4 4 -8
4 -12 0z" fill="white"/>
<path d="M204 83 c-2 0 -6 -3 -9 -6 -4 -3 -9 -7 -11 -8 -3 -3 -6 -7 -5 -9 0 0
3 1 6 2 11 5 21 2 31 -8 2 -3 4 -5 4 -5 2 2 7 14 9 18 l3 6 -4 1 c-2 1 -7 3
-10 5 -7 4 -11 5 -14 4z" fill="white"/>
<path d="M401 81 c-1 -1 -4 -3 -7 -4 -3 -2 -6 -4 -7 -4 -2 0 -2 -2 0 -11 2
-12 2 -12 4 -8 4 4 10 6 15 6 1 -1 5 -3 7 -4 7 -5 8 -5 10 -1 1 1 2 4 4 6 l2
3 -3 5 c-2 3 -5 6 -5 8 -3 3 -15 6 -20 4z" fill="white"/>
<path d="M23 79 c-3 -2 -9 -11 -9 -13 1 -2 6 -4 14 -4 7 0 7 0 8 2 0 2 0 3 -1
4 0 1 0 1 1 1 1 -1 1 -2 1 -4 0 -2 0 -3 0 -3 3 0 9 3 10 5 2 2 2 2 0 5 -1 2
-4 5 -5 5 -5 2 -17 3 -19 2z m8 -4 c2 -3 1 -2 -2 1 -1 2 -2 3 -1 2 1 -1 3 -2
3 -3z" fill="white"/>
<path d="M92 76 c-5 -2 -3 -5 5 -5 1 0 3 0 4 1 2 1 2 1 0 3 -2 3 -5 4 -9 1z" fill="white"/>
<path d="M236 74 c-1 0 -3 -2 -5 -7 -1 -4 -4 -9 -6 -12 -2 -3 -3 -6 -3 -6 0
-1 1 -1 2 -1 3 0 6 4 10 11 2 4 5 15 5 15 0 1 -2 0 -3 0z" fill="white"/>
<path d="M240 71 c0 -3 -4 -13 -7 -18 -2 -2 -3 -4 -3 -4 1 -1 10 2 11 3 2 1 2
15 0 19 -1 2 -1 2 -1 0z" fill="white"/>
<path d="M383 71 c-2 -3 0 -17 1 -21 3 -6 3 -3 2 7 -1 5 -2 11 -2 13 -1 2 -1
2 -1 1z" fill="white"/>
<path d="M50 67 c-3 -3 -2 -5 4 -5 6 0 8 2 4 5 -3 3 -4 2 -8 0z" fill="white"/>
<path d="M174 65 c-3 -1 -3 -2 -3 -5 l0 -5 3 3 c2 2 3 4 3 5 0 1 1 2 1 3 2 2
-1 1 -4 -1z" fill="white"/>
<path d="M189 62 c-2 -1 -5 -3 -7 -4 l-4 -2 8 0 c9 0 15 -1 23 -6 4 -3 9 -4 9
-2 0 1 -2 3 -4 5 -9 8 -18 11 -25 9z" fill="white"/>
<path d="M428 60 c-3 -4 -6 -12 -4 -12 0 0 2 1 3 3 2 2 5 4 8 5 l4 1 -2 3 c-4
3 -6 3 -9 0z" fill="white"/>
<path d="M164 57 c-2 -1 -7 -3 -9 -4 -4 -1 -5 -2 -5 -4 0 -4 1 -5 7 -6 5 0 6
0 6 1 -2 2 0 6 3 7 4 2 4 2 3 5 0 2 0 4 0 4 0 0 -3 -1 -5 -3z" fill="white"/>
<path d="M380 54 c0 -5 1 -7 2 -7 2 0 2 0 1 2 -1 1 -2 4 -2 6 -1 4 -1 4 -1 -1z" fill="white"/>
<path d="M397 56 c-4 -2 -8 -8 -8 -10 0 -3 1 -2 4 1 2 2 5 3 6 4 3 1 10 1 15
-1 l3 0 -3 2 c-5 6 -11 7 -17 4z" fill="white"/>
<path d="M175 52 c-9 -3 -10 -4 -10 -7 0 -3 4 -4 17 -4 10 1 25 3 28 5 1 0 -1
2 -5 3 -12 7 -19 7 -30 3z" fill="white"/>
<path d="M433 53 c-2 -1 -5 -3 -6 -5 -3 -3 -3 -3 -2 -7 1 -3 2 -4 4 -5 4 0 18
2 20 3 2 3 0 7 -5 11 -6 5 -6 5 -11 3z" fill="white"/>
<path d="M402 50 c-2 -1 -5 -2 -7 -4 l-3 -3 2 -2 c1 -1 4 -3 7 -3 5 -2 17 -3
20 -1 3 1 2 5 -1 7 -6 6 -13 8 -18 6z" fill="white"/>
<path d="M239 48 c-2 -1 -7 -2 -12 -2 -5 0 -15 -2 -22 -4 -10 -2 -15 -2 -25
-2 -11 0 -23 1 -29 2 -1 0 -1 0 -1 -1 0 -3 0 -3 7 -5 10 -2 30 -2 47 1 7 2 18
4 24 4 13 2 15 3 15 7 0 2 0 2 -4 0z" fill="white"/>
<path d="M380 43 c0 -2 1 -3 5 -4 2 -1 5 -3 7 -4 6 -4 14 -6 31 -6 18 0 27 2
27 6 0 2 0 2 -2 2 -7 -2 -16 -3 -20 -2 -2 0 -4 0 -6 0 0 -1 -5 -1 -10 -1 -10
1 -17 3 -21 7 -2 1 -4 2 -7 3 l-4 2 0 -3z" fill="white"/>
<path d="M564 38 c-1 -2 -1 -2 0 -2 1 0 2 0 2 -1 1 0 0 -1 -2 0 -3 0 -4 0 -5
-1 -1 -1 -1 -2 -1 -3 1 0 18 0 21 1 2 0 2 0 1 2 -2 2 -9 5 -12 5 -1 0 -2 -1
-4 -1z" fill="white"/>
<path d="M64 35 c-2 -1 -4 -3 -4 -3 0 -1 3 -1 6 -1 5 0 6 0 6 2 -1 0 -1 1 -1
2 0 0 -1 0 -2 1 -1 1 -3 0 -5 -1z" fill="white"/>
</g>
</svg>
