<?xml version="1.0" encoding="UTF-8"?>
<svg width="600" height="800" viewBox="0 0 600 800" fill="none" xmlns="http://www.w3.org/2000/svg">
<g transform="translate(0,800) scale(1,-1)">
<path d="M280 700 c-34 -4 -72 -24 -99 -53 -12 -12 -17 -19 -31 -40 -19 -28
-28 -37 -43 -44 -6 -3 -9 -5 -9 -6 1 -2 11 -10 19 -14 4 -2 9 -4 12 -5 3 -1 5
-1 5 -2 0 -2 -11 -24 -17 -33 -3 -5 -6 -10 -6 -11 0 -1 9 -9 17 -14 3 -2 6 -4
6 -4 0 0 -1 -4 -2 -8 -2 -6 -3 -8 -2 -9 2 -2 18 -9 26 -12 l7 -2 0 -7 c1 -9 6
-20 13 -27 4 -4 5 -6 5 -8 0 -5 4 -16 8 -21 8 -10 27 -22 50 -29 7 -2 13 -4
14 -5 1 0 0 -1 -2 -2 -7 -2 -18 -8 -24 -14 -5 -3 -8 -5 -10 -5 -4 0 -7 -1 -11
-5 l-3 -3 -19 2 c-10 1 -20 2 -23 2 -4 0 -5 0 -7 3 -4 5 -9 7 -14 7 l-5 0 6 3
c10 3 13 8 10 16 -1 2 -2 3 -4 4 -2 0 -12 0 -16 -2 -2 0 -3 0 -4 6 -1 3 -3 7
-4 9 -4 4 -11 31 -32 113 -17 69 -32 139 -37 176 -1 6 -2 13 -3 15 0 2 -1 3
-1 3 -3 -1 -16 -22 -19 -31 -3 -8 -3 -9 -3 -24 0 -15 0 -16 5 -39 10 -45 40
-162 53 -207 3 -10 5 -16 4 -18 0 -2 1 -6 2 -9 0 -3 1 -5 1 -5 0 -1 -4 -3 -9
-5 -7 -4 -8 -4 -9 -7 -1 -6 2 -11 6 -12 3 -1 5 -1 9 0 7 2 8 2 5 0 -5 -6 -6
-14 -3 -25 1 -3 2 -7 2 -9 0 -1 1 -4 2 -7 1 -2 4 -6 6 -10 4 -8 9 -14 15 -14
l4 -1 3 -14 c7 -23 10 -34 11 -35 1 -2 7 -4 12 -3 3 0 4 0 5 -1 0 -3 5 -5 9
-5 4 0 24 5 30 8 3 1 5 2 6 2 0 0 -4 -4 -8 -9 -8 -9 -15 -18 -16 -23 -2 -6 2
-14 11 -23 6 -6 7 -7 7 -12 1 -9 6 -16 13 -19 3 -1 3 -1 3 -7 0 -4 0 -8 1 -10
0 -3 0 -3 -4 -7 -11 -9 -13 -12 -14 -16 -2 -8 2 -13 15 -15 16 -3 56 3 60 9 1
1 1 5 1 13 1 7 1 14 3 19 l1 7 7 3 c7 3 10 8 11 16 1 2 2 5 4 7 l4 3 7 -1 c5
-1 11 -1 15 -1 7 0 7 0 10 -4 3 -3 6 -7 8 -11 6 -11 14 -16 30 -18 8 -1 9 -2
15 -7 3 -3 7 -7 10 -8 4 -2 4 -3 4 -6 -3 -14 -3 -15 1 -18 5 -5 10 -6 23 -6
18 -1 25 3 29 15 2 5 2 7 2 14 -1 9 -3 18 -7 23 -1 1 -2 4 -2 7 -1 2 -2 5 -3
8 -2 4 -2 4 0 9 1 3 3 5 8 8 14 10 25 20 30 28 3 5 4 7 1 13 -1 4 -1 5 0 8 2
3 4 3 10 0 14 -8 20 -9 25 -6 6 3 11 9 10 14 -1 2 -1 6 -1 9 0 8 -3 12 -11 18
l-6 5 5 8 c7 11 9 18 9 25 0 5 0 6 -2 9 -5 7 -27 20 -53 32 -15 6 -17 7 -25
15 -10 9 -26 20 -36 25 -4 2 -10 4 -14 6 -4 1 -7 2 -6 2 1 1 6 2 12 3 12 1 16
2 17 4 1 1 6 3 10 4 5 1 12 3 15 4 4 3 5 3 5 6 0 2 0 3 1 2 2 0 9 3 22 9 4 1
8 4 8 5 2 2 2 3 0 8 -2 7 -3 10 -1 10 0 0 9 5 19 12 9 6 20 13 24 15 3 2 7 5
8 7 l3 3 -4 7 c-2 4 -4 7 -4 7 21 14 26 18 26 20 0 1 -3 6 -7 11 -11 14 -11
13 -4 18 4 3 9 7 12 10 7 6 8 9 2 12 -6 3 -19 16 -25 26 -7 11 -15 26 -23 43
-9 21 -21 37 -40 55 -30 28 -64 44 -100 46 -11 0 -29 -1 -34 -3 -1 -1 -4 0 -8
1 -7 1 -26 2 -36 1z m22 -6 c5 -1 11 -2 14 -3 4 -1 5 -1 12 1 10 3 33 3 47 1
24 -5 51 -18 69 -33 27 -24 41 -43 50 -66 3 -9 13 -28 21 -39 6 -10 16 -20 24
-26 l3 -3 -2 -3 c-3 -3 -15 -12 -16 -12 0 0 -5 4 -10 9 -6 5 -10 9 -10 8 0 -1
18 -28 26 -39 3 -5 6 -9 6 -9 -1 -2 -21 -15 -22 -14 -1 0 -4 7 -9 15 -4 8 -7
15 -8 15 0 0 1 -2 1 -4 1 -2 3 -7 4 -12 2 -10 5 -16 11 -26 3 -4 5 -7 5 -8 0
0 -6 -4 -12 -8 -12 -7 -13 -8 -14 -6 -2 2 -7 14 -10 22 -1 3 -2 6 -3 6 0 -1 1
-4 2 -9 2 -5 3 -11 4 -13 1 -3 2 -7 3 -8 1 -3 1 -3 -5 -7 -3 -2 -8 -5 -10 -6
l-5 -3 0 3 c-1 2 0 5 1 8 1 4 1 8 1 15 0 8 0 10 -2 15 l-3 5 6 1 c7 3 23 10
24 12 1 0 0 5 -2 10 -4 12 -12 44 -17 68 -2 10 -5 22 -7 27 -8 24 -11 28 -4 6
5 -15 8 -29 12 -54 3 -18 7 -35 11 -47 1 -4 2 -7 2 -8 0 -1 -9 -5 -10 -5 -1 2
-6 15 -10 30 -5 16 -7 23 -6 15 3 -13 6 -27 9 -36 3 -8 3 -10 2 -11 -1 -1 -14
-5 -16 -5 -2 -1 -5 11 -9 34 -2 11 -5 23 -5 27 -2 8 -4 11 -4 6 5 -28 10 -70
9 -72 -1 -2 -24 -11 -24 -10 -1 0 0 6 2 12 2 12 3 30 2 35 -1 2 -1 1 -1 -7 -1
-13 -3 -24 -7 -34 -2 -8 -3 -9 -9 -10 l-2 -1 0 20 c0 20 -1 37 -5 58 -2 13 -7
35 -10 42 -1 3 -3 7 -3 8 -1 1 -1 2 -2 2 0 0 1 -4 3 -9 5 -18 9 -40 10 -58 l1
-7 -4 4 c-5 6 -25 33 -30 42 -7 11 -9 17 -12 28 -1 5 -3 9 -3 10 -1 0 -1 -1
-1 -2 3 -9 7 -39 5 -39 0 0 -6 1 -12 2 l-11 1 -3 7 c-4 10 -10 25 -12 32 -1 6
-1 8 0 15 1 10 1 15 0 13 -1 0 -1 -4 -2 -9 -1 -4 -2 -13 -4 -20 -1 -7 -3 -17
-3 -22 -2 -11 -7 -56 -7 -63 0 -10 -1 -9 -7 6 -7 19 -12 34 -15 49 -1 6 -2 11
-3 11 0 -1 2 -20 5 -30 2 -13 8 -30 14 -43 2 -5 3 -9 4 -10 0 -1 -2 -1 -9 -1
-10 0 -10 0 -13 3 -6 7 -17 31 -21 46 -1 4 -3 8 -3 9 -1 0 -1 0 -1 -2 3 -11 5
-27 6 -37 l0 -12 -3 5 c-8 12 -17 35 -21 54 -4 20 -4 39 2 61 2 11 2 11 1 11
-2 -2 -9 -27 -9 -35 0 -2 -1 -5 -4 -9 -4 -7 -15 -29 -16 -33 0 -2 -2 -4 -4 -6
-3 -1 -6 -4 -8 -5 l-4 -3 0 11 c0 14 3 35 7 45 0 1 0 1 -1 0 -3 -2 -9 -25 -9
-35 0 -2 -1 -6 -2 -8 -2 -8 -10 -38 -13 -50 l-3 -13 -1 7 c-4 15 -4 20 -4 41
0 11 0 21 -1 21 -1 1 -2 -16 -2 -33 0 -16 2 -30 7 -50 2 -9 4 -17 4 -17 -1 -1
-16 2 -20 4 l-3 1 0 6 c1 3 1 10 0 15 0 5 -1 8 -1 7 -1 -18 -2 -26 -2 -27 -1
0 -5 2 -10 4 -6 3 -8 4 -8 6 5 12 14 45 12 43 0 0 -3 -6 -6 -12 -2 -6 -5 -12
-5 -13 0 -1 -3 1 -9 5 -4 3 -8 7 -9 7 0 1 1 4 3 7 9 13 20 38 30 65 1 4 4 11
5 13 1 2 2 5 2 6 0 3 -4 -4 -11 -21 -5 -9 -8 -18 -9 -19 -2 -2 -16 2 -26 9 -3
2 -5 4 -5 4 0 0 2 2 5 3 13 6 25 20 42 44 15 22 24 34 37 46 14 13 25 21 40
29 18 9 30 13 49 15 12 2 12 2 22 1z m-253 -42 c1 -7 1 -7 -1 -13 -4 -7 -6
-16 -6 -21 0 -9 16 -82 29 -130 6 -26 24 -92 30 -111 l4 -13 -5 -2 c-4 -1 -5
-2 -5 -1 -1 1 -2 4 -3 8 -12 38 -44 162 -54 208 -6 29 -7 37 -7 47 1 11 7 26
14 36 3 4 3 4 4 -8z m7 -35 c5 -26 12 -59 16 -78 10 -41 30 -120 38 -151 4
-11 6 -20 6 -20 -1 -1 -9 -3 -10 -3 0 1 -18 67 -26 96 -16 61 -36 147 -36 156
0 7 5 24 7 22 0 0 3 -10 5 -22z m274 -68 l2 -4 -6 -4 c-7 -4 -11 -10 -11 -13
0 -2 1 -3 14 -3 l14 0 6 -9 5 -9 -6 -1 c-10 -1 -21 -7 -21 -11 0 -1 3 -1 3 0
2 2 10 6 17 8 l7 2 2 -3 3 -2 1 3 c0 2 1 7 2 12 1 8 1 9 3 8 2 0 6 -1 10 -2 4
0 8 -1 8 -2 0 0 3 -3 6 -7 2 -4 7 -9 9 -12 8 -8 8 -9 8 -30 0 -9 0 -21 -1 -25
-1 -8 0 -8 4 -7 7 2 8 1 8 -3 l1 -3 2 4 c2 4 3 5 7 7 3 2 6 3 6 2 0 0 -1 -1
-2 -2 -4 -5 -5 -12 -2 -15 2 -3 1 -5 -1 -10 -3 -5 -3 -8 0 -8 1 0 2 0 1 1 -1
0 -1 2 1 5 3 4 3 7 2 13 -1 5 -1 5 1 9 4 5 8 8 12 8 3 0 4 -1 7 -4 4 -4 5 -3
2 2 -2 2 -4 4 -6 5 l-3 1 4 1 c2 1 5 2 6 4 2 3 6 3 8 -2 5 -7 4 -21 -1 -32 -3
-7 -16 -20 -23 -24 -8 -3 -17 -4 -25 -2 l-5 2 -3 -4 c-19 -22 -48 -37 -84 -44
-16 -2 -40 -2 -56 1 -40 7 -72 26 -77 44 -2 5 -2 9 -2 23 0 17 0 18 -3 31 -5
19 -4 27 3 56 2 11 3 11 5 11 2 0 3 -2 5 -9 2 -4 4 -8 4 -9 1 -1 5 5 8 14 l3
7 6 2 c4 1 10 2 15 2 l8 0 2 -6 c5 -14 19 -39 22 -38 1 1 2 4 2 11 l1 10 3 -7
c3 -4 6 -9 7 -12 l3 -4 14 0 14 1 0 11 c2 33 7 72 10 83 l1 4 4 -11 c3 -6 5
-13 6 -15z m-96 1 c1 -6 2 -11 2 -13 l1 -2 -5 3 c-3 1 -7 2 -9 2 -3 0 -4 0 -4
1 0 1 3 7 6 14 6 12 6 12 7 9 0 -3 1 -9 2 -14z m135 -11 l2 -3 -3 2 c-4 2 -4
3 -4 7 l0 4 2 -4 c1 -1 3 -4 3 -6z m-32 -4 l4 -7 -10 0 c-11 0 -13 1 -10 4 1
3 11 10 12 10 0 0 2 -3 4 -7z m18 5 l5 -2 0 -5 0 -6 -6 1 c-3 0 -6 0 -7 1 -1
0 -8 11 -8 13 0 1 11 -1 16 -2z m-122 -6 c3 -2 5 -3 5 -4 0 0 0 -1 1 -2 0 -1
-2 -2 -8 -2 -4 -1 -10 -2 -13 -2 -2 -1 -5 -2 -5 -2 -1 1 4 14 5 14 2 1 9 0 15
-2z m139 -2 c6 -5 8 -8 6 -8 -1 0 -5 1 -13 2 -1 1 -1 2 -1 5 0 3 1 5 1 5 0 0
3 -2 7 -4z m-165 -10 c-2 -7 -4 -13 -4 -14 -1 -2 -1 -2 -2 0 -1 1 -2 5 -2 9
l-2 6 4 3 c4 4 9 8 10 8 0 0 -2 -6 -4 -12z m-15 0 c-1 -1 -1 -1 -1 0 1 1 1 3
1 4 0 1 0 0 1 -1 0 -1 0 -3 -1 -3z m167 2 c1 0 0 -4 0 -8 l-2 -8 -3 7 c-3 4
-5 8 -5 9 -1 1 0 1 4 1 3 0 6 0 6 -1z m-183 -83 c5 -1 6 -5 6 -20 l0 -11 -4 5
c-6 6 -9 14 -10 21 l0 6 3 0 c1 0 4 -1 5 -1z m292 -47 c0 -1 -23 -11 -25 -11
0 0 -4 9 -4 9 7 5 13 9 18 14 l5 6 3 -9 c2 -5 3 -9 3 -9z m-43 -4 l9 0 1 -5
c0 -2 0 -6 1 -7 0 -3 0 -3 -3 -4 -4 -2 -20 -5 -21 -5 0 1 0 5 -1 11 l-1 10 -1
-6 c0 -3 -1 -9 -2 -13 l0 -7 -6 -1 c-11 -2 -11 -2 -11 4 0 4 0 5 5 8 3 2 8 6
11 10 5 5 6 6 8 5 1 0 6 0 11 0z m-37 -24 l0 -5 -6 -1 c-8 -1 -10 -1 -10 0 0
0 13 9 16 10 0 0 0 -2 0 -4z m-267 -5 c0 -1 0 -3 -1 -3 0 0 -5 -2 -11 -4 -6
-2 -11 -4 -12 -4 0 -1 -1 0 -2 2 -1 3 -1 3 4 5 7 3 16 6 19 6 1 0 2 -1 3 -2z
m3 -11 c0 0 -6 -2 -13 -4 -10 -3 -12 -4 -13 -3 -2 4 -1 5 11 9 l13 4 1 -3 c0
-1 1 -3 1 -3z m244 3 c2 -2 18 -7 20 -7 2 0 18 -8 26 -13 5 -3 13 -10 19 -15
9 -8 12 -10 20 -14 28 -12 51 -25 57 -31 3 -4 3 -5 3 -9 -1 -7 -12 -30 -15
-30 -2 0 -2 0 -1 4 0 4 -1 6 -7 14 l-4 5 6 4 c6 6 11 8 14 8 2 0 3 0 3 1 -2 2
-8 1 -13 -1 -16 -10 -45 -41 -54 -60 -4 -7 -5 -14 -2 -15 2 0 2 1 2 3 0 1 1 5
2 7 2 5 2 5 4 4 1 -1 2 -2 3 -2 1 0 3 -7 3 -8 -1 -2 -10 -5 -16 -5 -5 0 -6 1
-10 3 -8 6 -18 22 -25 39 -8 20 -10 25 -14 30 l-3 6 1 11 c0 6 1 13 2 15 l0 5
-2 -5 c0 -2 -1 -9 -2 -14 l0 -10 -4 6 c-6 14 -10 35 -9 57 1 13 1 13 -1 9 -1
-4 -1 -10 -1 -24 l1 -19 -4 7 c-2 4 -4 7 -5 8 -2 2 -2 2 -5 -2 -5 -6 -11 -21
-11 -23 1 -1 2 -1 10 -1 5 1 10 1 12 2 l4 0 2 -6 c2 -6 5 -14 11 -24 3 -4 7
-13 10 -20 14 -35 28 -54 41 -55 5 0 12 1 18 4 1 0 1 -1 1 -5 0 -11 7 -16 14
-9 2 2 4 3 4 2 3 -3 -9 -17 -23 -27 -8 -7 -24 -15 -33 -18 l-4 -2 -7 7 c-14
14 -33 42 -42 62 -7 17 -14 39 -16 58 -3 13 -4 43 -2 55 2 18 9 38 13 40 3 1
5 0 9 -2z m-17 -4 c-4 -6 -19 -12 -34 -14 -3 0 -6 -1 -6 -1 -1 -1 -1 -4 -1 -7
0 -6 0 -6 -3 -7 -2 0 -4 0 -5 0 -1 1 -1 13 0 16 1 4 5 5 16 7 5 1 15 3 21 5
14 5 15 5 12 1z m-204 -2 c0 -1 0 -2 0 -2 0 -1 -5 -1 -10 -2 -12 -2 -35 -10
-47 -16 -5 -2 -9 -4 -9 -4 0 0 0 2 0 3 0 2 0 3 11 8 13 7 23 10 37 13 12 3 17
3 18 0z m131 -4 c0 0 -2 -6 -4 -12 -2 -6 -4 -15 -6 -21 l-3 -11 0 6 c-1 3 -1
6 -2 7 -1 4 -5 1 -12 -8 -2 -3 -5 -6 -5 -6 0 1 11 33 14 38 4 7 2 6 -3 -1 -7
-13 -15 -33 -24 -66 -4 -15 -8 -25 -14 -38 l-4 -8 -4 6 c-3 4 -5 7 -6 7 -3 0
-15 -19 -15 -24 0 -3 4 -3 12 0 7 2 7 2 -1 -2 -17 -8 -44 -14 -44 -10 0 0 1 1
3 2 7 3 15 19 19 35 2 11 1 36 -2 47 -3 11 -9 24 -14 28 -4 4 -4 4 -2 4 3 0
35 -3 39 -4 3 0 4 0 8 4 5 4 5 4 12 3 5 0 8 -1 12 -3 4 -2 7 -3 7 -2 1 1 3 10
3 16 0 6 -1 5 14 10 7 3 9 4 15 3 3 0 6 0 7 0z m69 -7 l-3 -7 -6 -3 c-6 -2
-25 -5 -26 -5 0 1 0 3 1 6 l0 6 7 0 c8 1 18 4 24 7 2 2 4 3 4 3 0 0 0 -3 -1
-7z m-204 4 c-2 -1 -10 -4 -17 -6 -7 -2 -17 -5 -21 -6 -10 -4 -20 -7 -21 -7
-1 1 14 8 28 12 14 5 27 9 32 9 2 0 2 0 -1 -2z m151 1 c4 -2 5 -5 5 -15 0 -6
0 -6 -4 -5 -2 0 -2 1 -3 7 0 6 -1 6 -3 8 -2 1 -4 2 -6 4 l-2 2 5 0 c3 0 7 -1
8 -1z m8 -1 c-1 -1 -2 -1 -3 0 -2 2 -1 2 2 2 2 0 2 0 1 -2z m-13 -8 c1 -1 1
-4 1 -6 l0 -4 -7 3 c-3 2 -6 3 -6 4 1 0 1 2 2 5 l1 4 4 -2 c2 -1 5 -3 5 -4z
m-49 -3 c0 -4 -1 -12 -2 -13 -1 0 -3 1 -6 2 -2 2 -5 3 -6 3 0 0 -1 0 -1 1 0 1
12 11 14 11 1 0 1 -2 1 -4z m-111 0 c1 0 -1 -2 -3 -3 -2 -2 -4 -4 -5 -5 -1 -2
-1 -2 -4 0 -1 0 -4 1 -7 1 -2 0 -4 0 -4 1 2 1 18 7 21 7 1 0 2 0 2 -1z m17 -5
c8 -4 14 -18 11 -29 -2 -6 -2 -6 0 -6 2 -1 2 -1 2 -8 -1 -7 -5 -18 -8 -19 0 0
-3 7 -5 16 -3 9 -6 17 -6 18 -1 1 0 3 1 5 1 2 2 4 2 7 l-1 4 -2 -5 c-1 -3 -3
-6 -4 -7 -4 -2 -8 -1 -12 1 -2 2 -2 4 -2 8 0 6 3 11 9 15 6 3 10 3 15 0z m136
-1 c3 -1 6 -3 6 -3 0 0 0 -1 -1 -3 -1 -1 -2 -16 -4 -33 -1 -17 -3 -33 -3 -37
-2 -4 -2 -7 -1 -9 1 -3 1 -4 -1 -6 l-2 -2 -7 2 c-4 1 -9 3 -12 4 l-4 2 4 11
c1 6 5 20 7 30 4 18 12 47 13 47 0 0 2 -1 5 -3z m62 1 c-1 -1 -2 -9 -2 -17 -2
-17 -1 -16 -14 -16 -9 0 -10 -1 -11 -7 -1 -7 1 -8 14 -8 l11 0 1 -6 c1 -9 2
-17 4 -27 1 -6 2 -10 2 -11 0 0 -4 0 -8 0 -4 0 -12 -1 -17 -2 -8 -1 -9 -1 -11
0 -1 1 -3 3 -4 3 -2 1 -6 2 -14 2 l-12 1 -1 2 c-1 2 -1 5 0 7 0 3 2 14 2 27 2
22 3 34 5 43 1 4 1 5 3 4 3 -1 13 -2 18 -1 2 0 8 1 12 2 3 0 10 2 14 3 8 3 8
3 8 1z m-228 -7 c1 -1 2 -2 2 -3 -1 -2 -1 -4 -1 -6 0 -3 0 -3 -4 -4 -4 -1 -8
-4 -7 -4 0 -1 3 0 6 0 6 1 6 1 9 -2 2 -1 5 -3 7 -3 2 -1 4 -1 4 -2 0 0 0 -2 1
-3 0 -2 0 -2 -5 -2 -5 0 -11 -2 -15 -6 -4 -3 -2 -3 4 0 10 5 17 4 17 -2 0 -4
-3 -8 -9 -12 -4 -3 -5 -5 -6 -8 0 -3 0 -3 -3 -2 -4 1 -6 3 -10 11 -2 5 -5 9
-5 10 -1 0 -2 4 -2 7 -1 4 -2 8 -3 10 0 2 -1 5 -1 7 0 10 11 18 21 14z m247
-5 c2 -3 4 -7 5 -11 l3 -6 -9 0 c-5 -1 -10 -1 -11 -2 -3 0 -3 2 1 9 3 6 8 14
9 14 0 0 1 -2 2 -4z m-101 -7 c1 -10 1 -15 0 -15 -3 0 -14 2 -14 3 -2 1 10 18
13 18 0 0 1 -3 1 -6z m-95 -15 c2 -9 1 -17 -2 -25 -3 -8 -6 -11 -10 -11 -3 0
-4 3 0 8 5 6 6 11 6 22 1 5 1 12 1 15 l0 5 2 -4 c1 -2 2 -7 3 -10z m6 -6 c3
-12 5 -33 3 -36 0 -1 -3 0 -10 2 -5 1 -9 2 -8 2 2 0 6 4 9 11 4 8 4 23 0 36 0
1 1 -1 2 -3 1 -2 3 -8 4 -12z m-33 1 c0 -2 0 -3 -1 -3 0 0 -1 2 -2 4 0 2 0 4
-1 6 0 2 3 -4 4 -7z m115 4 c4 -1 7 -2 7 -2 0 -4 -7 -32 -12 -47 -7 -20 -12
-30 -23 -48 -9 -14 -24 -38 -27 -44 -1 -2 -3 -4 -3 -4 -1 0 -4 3 -8 7 -7 6
-11 13 -11 17 0 3 4 11 10 17 l5 6 4 -5 c5 -4 11 -7 12 -5 1 1 5 18 5 24 0 4
0 4 -1 4 -2 0 -2 0 2 7 2 2 4 7 6 11 3 4 4 8 4 8 1 0 4 -1 8 -3 4 -2 8 -3 8
-2 2 1 0 25 -2 28 -1 1 -2 1 -3 -1 -1 -1 -2 -1 -2 -1 0 1 8 31 10 34 0 1 1 1
2 1 1 -1 6 -1 9 -2z m86 -2 c1 0 1 -3 1 -5 l0 -3 -11 0 -11 0 0 4 c0 4 1 5 5
5 2 0 6 1 10 1 4 0 6 0 6 -2z m-199 -10 c1 -2 1 -5 1 -8 l1 -3 -7 0 -7 0 3 3
c2 2 4 5 5 7 1 5 3 5 4 1z m-2 -15 c0 -1 -3 -5 -6 -9 l-6 -7 -2 5 c-2 6 -2 10
-1 11 0 1 4 1 8 1 7 0 8 0 7 -1z m7 -5 c4 -10 2 -12 -9 -11 l-8 0 7 8 c3 4 7
8 8 8 0 0 2 -2 2 -5z m93 -19 c0 -6 0 -6 -2 -5 -5 1 -11 4 -11 5 0 2 6 13 8
16 l3 2 1 -6 c0 -4 1 -9 1 -12z m248 10 c0 0 -2 -1 -5 -2 -5 -3 -14 -9 -20
-15 -5 -5 -12 -16 -12 -18 0 -1 0 -2 -1 -2 -4 0 7 17 22 32 l10 11 3 -3 c2 -1
3 -3 3 -3z m-321 -2 c5 -1 8 -2 9 -2 1 0 -5 -21 -8 -26 -3 -4 -4 -5 -4 -2 -1
1 -3 8 -5 16 -2 7 -4 14 -4 15 0 1 1 1 2 1 1 -1 6 -2 10 -2z m-16 -1 c0 -1 0
-1 0 -1 -1 0 -1 0 -1 1 -1 1 -1 1 0 1 1 0 1 0 1 -1z m340 -1 c0 -1 1 -2 1 -2
0 0 -3 -3 -7 -5 -8 -5 -24 -21 -27 -27 l-2 -4 -1 2 c-2 3 -2 3 0 7 4 9 16 21
28 28 5 2 6 2 8 1z m-349 -1 c2 0 2 -1 -7 -11 l-3 -3 -2 7 c-1 4 -2 7 -2 7 0
1 12 1 14 0z m11 -5 c1 -4 1 -4 -1 -7 -2 -3 -2 -3 -9 -2 -4 0 -7 0 -7 1 0 0 2
3 5 6 5 6 6 7 8 6 1 0 3 -2 4 -4z m56 -10 c2 -3 4 -7 4 -8 -1 0 -2 -2 -4 -3
-4 -2 -16 -6 -17 -5 0 1 11 22 12 22 1 0 3 -3 5 -6z m49 4 c3 -1 7 -2 11 -3
l6 -1 0 -8 c0 -9 0 -9 -9 -6 -12 4 -13 4 -14 12 0 5 0 8 1 8 1 0 3 -1 5 -2z
m237 -2 c13 -6 21 -13 21 -20 0 -1 -2 0 -6 4 -3 3 -6 6 -6 6 -2 0 0 -3 5 -8 6
-7 9 -12 7 -15 -1 -1 -1 -2 -1 -2 -1 0 -2 2 -4 4 -3 5 -11 10 -16 10 l-4 0 6
-2 c6 -3 14 -10 14 -14 0 -5 -9 -4 -18 1 -12 8 -18 7 -21 -2 -3 -8 -4 -10 -7
-12 -3 -2 -5 0 -6 12 -1 11 -1 11 2 16 1 3 5 8 7 10 5 6 17 16 18 16 1 0 5 -2
9 -4z m-194 2 c8 0 9 -2 9 -14 0 -13 -1 -14 -13 -13 -12 0 -17 0 -18 3 -1 1
-1 6 -1 11 0 12 2 14 12 13 4 0 8 0 11 0z m-147 -5 c-2 0 -2 1 -1 3 1 1 1 1 2
-1 0 -1 0 -2 -1 -2z m185 -3 c1 -3 1 -8 1 -10 0 -5 0 -5 -3 -5 -2 -1 -4 -1 -4
0 -1 0 -1 18 0 19 0 1 2 1 3 1 3 0 3 0 3 -5z m14 -2 c1 -3 2 -7 3 -8 0 -1 -7
-3 -11 -3 -3 0 -3 0 -3 8 -1 10 -1 10 6 10 2 0 3 0 5 -7z m-23 -4 l0 -9 -8 0
-9 0 0 8 0 9 6 0 c11 1 10 2 11 -8z m-185 5 c-4 -5 -9 -8 -9 -7 -1 1 -1 3 -2
5 -1 2 -1 4 -1 4 0 1 3 1 7 1 l7 0 -2 -3z m11 1 c2 -2 1 -4 -2 -4 -2 0 -5 0
-7 -1 -3 -1 -3 -1 1 4 2 2 6 3 8 1z m92 -5 c-2 -1 -2 -1 -1 3 1 3 2 3 2 1 0
-1 -1 -3 -1 -4z m-89 -3 c0 0 0 -2 1 -4 0 -3 0 -4 -4 -5 -2 -1 -6 -2 -10 -3
-6 0 -8 0 -9 6 0 2 0 3 4 4 6 3 10 4 14 3 2 0 4 0 4 -1z m99 -2 c3 -2 8 -4 11
-4 4 -1 6 -2 9 -5 1 -2 4 -3 4 -3 2 0 2 -1 2 -7 0 -10 2 -19 5 -25 2 -3 3 -5
3 -4 -1 1 -2 5 -3 9 -1 4 -2 11 -3 17 0 10 0 10 1 10 1 -1 4 -1 7 -1 l6 0 -1
-8 c0 -9 1 -17 5 -25 2 -6 4 -6 2 -1 -3 6 -5 18 -5 26 l0 8 4 0 c2 1 4 2 5 3
2 1 5 1 16 1 7 1 14 1 15 1 1 1 15 4 15 4 1 0 3 -6 7 -13 3 -8 8 -17 11 -21 8
-13 21 -30 29 -38 8 -8 8 -8 12 -8 2 1 7 2 11 4 3 1 7 3 7 2 1 0 -5 -9 -9 -13
-3 -3 -10 -7 -12 -7 -1 0 0 1 1 4 1 3 1 3 -5 -3 -10 -11 -17 -11 -33 -4 -7 3
-8 4 -6 2 1 -1 3 -3 6 -5 2 -1 4 -2 4 -3 -1 0 -20 3 -24 4 -7 3 -10 6 -16 16
-7 10 -19 23 -23 25 -1 1 -5 2 -7 3 -3 1 -8 3 -12 5 -8 4 -9 4 -6 0 l3 -3 -7
-3 c-5 -2 -8 -4 -9 -4 0 -1 5 1 13 4 l5 2 4 -2 c2 -1 4 -2 3 -3 0 0 -4 -4 -8
-7 -11 -9 -16 -14 -13 -14 2 1 2 1 1 -2 -1 -6 -3 -8 -8 -11 -7 -3 -15 -4 -30
-4 -12 0 -21 2 -26 6 -2 1 -5 6 -7 10 -3 5 -4 8 -5 8 0 -1 3 -10 5 -14 0 -2 0
-2 -3 -2 -5 1 -8 3 -11 10 -3 6 -3 9 0 9 1 0 3 3 7 9 6 11 20 34 30 48 6 10
15 20 16 20 0 0 3 -2 7 -3z m-46 -12 c-2 -13 -4 -19 -5 -19 -1 0 -4 2 -7 5
l-5 4 3 3 c3 4 13 12 14 12 0 0 0 -2 0 -5z m106 -56 c2 -2 4 -3 4 -4 -1 -1
-20 1 -21 2 0 0 2 2 4 4 4 4 7 3 13 -2z m117 -32 c2 -6 1 -9 -3 -13 -4 -4 -9
-7 -17 -8 l-6 -2 0 4 c0 3 -1 6 -2 9 l-2 4 3 2 c2 1 6 3 8 4 3 1 8 4 10 6 l6
5 1 -3 c0 -1 1 -5 2 -8z m-217 0 c2 -1 3 -2 3 -3 -1 -2 -2 -5 -2 -8 -1 -5 -2
-6 -4 -5 -1 1 -2 2 -3 7 0 7 0 11 2 11 1 0 2 -1 4 -2z m32 -5 c16 1 15 1 12
-9 -2 -5 -2 -6 -7 -8 -3 -1 -7 -1 -13 -1 -8 0 -10 0 -16 2 -4 2 -7 4 -7 4 0 0
3 12 3 14 1 0 3 0 7 -1 5 -1 10 -1 21 -1z m156 -8 c1 -3 1 -6 1 -7 0 -3 0 -3
-4 -3 -5 0 -13 4 -17 9 -4 4 -3 5 3 4 3 0 7 1 9 1 5 2 6 1 8 -4z m38 -6 c0 -4
-3 -18 -5 -18 0 0 -1 1 -2 2 -3 2 -13 5 -20 5 -6 0 -9 -1 -15 -3 -2 -1 -2 -1
-2 3 l1 4 6 0 c15 2 25 7 30 15 l2 4 2 -4 c1 -2 2 -6 3 -8z m-218 -5 c5 -2 7
-2 15 -2 6 0 11 0 14 1 3 2 5 2 5 1 1 -2 1 -10 -1 -11 0 -1 -23 -6 -26 -6 -1
0 -2 1 -3 3 -2 4 -11 10 -18 11 l-5 1 3 4 c4 4 2 5 16 -2z m219 -9 c-3 -13 -8
-17 -24 -18 -9 0 -19 2 -20 4 -1 0 1 0 3 0 2 -1 8 -1 14 -1 9 0 11 0 15 2 5 2
9 8 11 14 2 5 2 4 1 -1z m-226 1 c5 -3 11 -9 10 -10 -1 0 -5 0 -10 0 -9 0 -16
1 -21 3 -3 1 -3 1 -2 4 4 5 6 6 13 6 4 -1 7 -2 10 -3z m205 -1 c7 -2 13 -5 13
-7 0 -1 -2 -2 -4 -3 -3 -2 -5 -2 -15 -2 -14 0 -19 1 -19 5 0 2 3 5 10 7 6 1 9
1 15 0z m-164 -6 c0 -2 -4 -4 -18 -6 -20 -4 -40 -3 -46 1 -3 3 -1 3 4 1 8 -2
23 -3 37 0 6 1 14 3 17 3 6 2 6 2 6 1z M323 679 c-3 -2 -2 -3 6 -2 12 1 20 -1 30 -7 22 -12 43 -40 57 -75 2
-4 4 -8 4 -7 1 0 -5 16 -10 26 -7 15 -20 35 -32 45 -10 10 -23 18 -34 21 -7 2
-18 1 -21 -1z M292 678 c-15 -5 -31 -21 -41 -40 -4 -9 -4 -14 0 -6 10 19 30 37 45
42 3 1 8 1 11 1 7 -1 8 1 3 3 -4 2 -11 2 -18 0z M425 570 c1 -2 3 -8 5 -15 2 -6 4 -12 4 -12 1 2 -6 25 -8 28 -1 0 -1
0 -1 -1z M220 504 c-1 -1 -1 -1 2 -2 5 -1 14 -4 18 -5 5 -2 5 -1 2 2 -5 4 -19
7 -22 5z M353 498 c-6 -1 -15 -6 -19 -9 -3 -4 -10 -13 -9 -14 0 0 4 2 8 4 17
12 35 12 50 1 3 -3 5 -5 9 -11 3 -8 4 -9 4 -17 0 -9 1 -9 3 1 3 16 -5 33 -19
41 -10 4 -18 6 -27 4z M210 496 c-8 -3 -12 -8 -16 -15 -2 -5 -2 -7 -2 -15 0 -6 0 -12 1 -13
1 -3 1 -3 2 4 1 13 9 25 18 29 7 3 18 2 24 -2 1 -2 1 -2 -3 -1 -9 2 -17 -2
-22 -13 -7 -16 -1 -40 12 -45 4 -3 13 -3 16 -1 5 2 9 7 11 13 3 9 3 24 -2 33
-1 2 -1 2 0 1 2 -1 2 -1 1 2 -4 19 -23 30 -40 23z m27 -18 c13 -7 18 -32 8
-46 -5 -7 -17 -8 -24 -1 -9 10 -11 32 -2 42 6 7 11 9 18 5z M232 468 c-2 -1 -3 -3 -4 -6 0 -2 -1 -5 -1 -6 -2 -4 -2 -13 1 -16 2
-3 6 -4 9 -2 4 2 6 6 6 16 1 10 1 10 -2 13 -3 4 -6 4 -9 1z m6 -1 c3 -2 4 -3
4 -7 0 -5 -2 -7 -5 -7 -6 0 -9 9 -4 13 3 2 3 2 5 1z M351 482 c-12 -5 -18 -20 -15 -36 2 -16 11 -24 25 -24 11 0 18 4 23
16 2 5 2 7 2 15 0 6 0 11 -1 14 -6 15 -20 22 -34 15z m22 -5 c14 -11 13 -43
-2 -50 -5 -3 -13 -2 -18 0 -2 1 -5 4 -7 6 -12 13 -8 38 7 46 6 3 15 2 20 -2z M358 467 c-6 -6 -7 -8 -7 -15 0 -10 4 -15 11 -15 4 0 9 3 10 7 1 4 1
17 -1 21 -2 6 -8 7 -13 2z m9 0 c1 -1 3 -5 3 -7 0 -6 -7 -9 -10 -5 -5 4 1 16
7 12z M265 423 c0 -2 1 -5 3 -5 0 0 1 1 1 3 0 3 -2 4 -4 2z M283 404 c-18 -5 -21 -6 -24 -12 -2 -4 0 -11 5 -19 5 -8 14 -14 20
-14 2 0 1 1 -2 2 -9 5 -18 15 -18 22 0 9 5 16 13 17 27 5 35 3 39 -7 5 -13 0
-25 -13 -31 -4 -3 -4 -3 -1 -2 5 1 12 5 14 9 7 10 6 27 -2 33 -3 2 -5 3 -14 3
-7 0 -14 -1 -17 -1z M403 328 c-2 -5 -5 -18 -5 -22 0 -5 1 -5 16 0 9 3 16 6 16 7 2 3 0 5
-11 12 -13 8 -14 8 -16 3z m12 -4 c11 -7 14 -9 13 -10 -1 -1 -25 -10 -27 -10
-1 0 2 20 5 24 0 2 1 1 9 -4z M448 293 c-1 -4 0 -27 2 -28 1 -2 5 0 17 10 12 8 12 10 5 14 -5 2
-19 7 -22 7 0 0 -1 -1 -2 -3z m20 -5 c3 -1 5 -3 6 -3 1 -1 -2 -4 -11 -10 l-11
-9 -1 5 c-1 7 -1 19 0 21 0 2 1 2 6 0 3 -1 8 -3 11 -4z M407 260 c-1 -6 0 -26 1 -27 1 -2 5 0 15 6 11 7 13 9 11 12 -1 2 -14
11 -19 13 -6 2 -7 1 -8 -4z m8 1 c7 -4 17 -10 17 -12 0 -2 -20 -15 -22 -14 -2
1 -1 28 1 28 0 0 2 -1 4 -2z M366 255 c-2 -5 -5 -18 -5 -22 l0 -4 4 0 c5 0 19 4 21 6 2 2 2 2 -2
9 -6 7 -13 15 -15 15 -1 0 -2 -2 -3 -4z m16 -13 c2 -3 3 -5 3 -5 -1 -1 -18 -6
-20 -6 -2 0 -2 0 -2 2 0 4 4 17 5 20 l1 3 4 -4 c3 -2 7 -7 9 -10z M393 204 c0 -1 -1 -8 -2 -15 -1 -12 -1 -14 0 -15 2 -1 14 3 22 8 7 4
8 5 6 8 -1 2 -22 16 -24 16 0 0 -1 -1 -2 -2z m10 -5 c4 -2 8 -5 11 -7 3 -4 3
-4 2 -6 -3 -2 -18 -9 -21 -9 -3 -1 -3 -1 -3 3 1 2 1 7 2 11 0 8 1 12 2 12 0 0
3 -2 7 -4z M207 311 c2 -1 8 -7 13 -15 6 -8 6 -7 1 2 -5 8 -11 14 -14 14 -2 0
-2 0 0 -1z M193 289 c0 -11 4 -28 7 -28 2 0 7 3 13 9 6 6 7 8 7 11 -1 2 -23 14
-26 14 -1 0 -1 -2 -1 -6z m14 -2 c5 -3 10 -6 10 -7 0 -2 -5 -8 -11 -13 -6 -5
-6 -5 -9 8 -2 10 -3 17 -1 17 0 0 5 -2 11 -5z M295 313 c-1 0 -4 -5 -4 -8 0 -1 1 -3 2 -4 3 -4 7 -4 11 -1 5 5 2 14
-5 14 -1 0 -3 0 -4 -1z m7 -3 c3 -2 2 -6 0 -8 -4 -4 -8 -2 -8 3 0 6 5 9 8 5z M290 275 c-2 0 -4 -5 -4 -9 0 -3 5 -8 9 -8 4 0 8 4 8 9 0 5 -3 9 -8
9 -2 0 -4 0 -5 -1z m8 -3 c5 -4 3 -11 -3 -11 -5 0 -8 7 -4 11 2 2 5 3 7 0z M283 225 c-1 -3 -1 -6 0 -11 0 -4 1 -4 5 -5 5 -1 15 -1 16 1 1 1 2 4
2 8 0 9 -1 10 -13 10 -9 0 -9 0 -10 -3z m17 0 c2 -1 3 -1 3 -7 l0 -6 -9 0 c-7
0 -9 0 -9 1 0 1 1 2 3 2 2 1 2 2 2 4 0 2 -1 3 -3 3 -1 0 -2 1 -2 2 0 2 1 2 6
2 4 0 8 -1 9 -1z m-12 -6 c0 -1 -1 -1 -2 -1 -2 0 -3 0 -3 1 0 1 1 1 3 1 1 0 2
0 2 -1z" fill="black"/>
<path d="M0 400 l0 -400 300 0 300 0 0 400 0 400 -300 0 -300 0 0 -400z m316
299 c4 -1 7 -2 8 -1 5 2 23 3 34 3 36 -2 70 -18 100 -46 19 -18 31 -34 40 -55
8 -17 16 -32 23 -43 6 -10 19 -23 25 -26 6 -3 5 -6 -2 -12 -3 -3 -8 -7 -12
-10 -7 -5 -7 -4 4 -18 4 -5 7 -10 7 -11 0 -2 -5 -6 -26 -20 0 0 2 -3 4 -7 l4
-7 -3 -3 c-1 -2 -5 -5 -8 -7 -4 -2 -15 -9 -24 -15 -10 -7 -19 -12 -19 -12 -2
0 -1 -3 1 -10 3 -8 2 -9 -21 -19 -4 -2 -8 -3 -9 -3 -1 1 -1 0 -1 -2 0 -3 -1
-3 -5 -6 -3 -1 -10 -3 -15 -4 -4 -1 -9 -3 -10 -4 -1 -2 -5 -3 -17 -4 -6 -1
-11 -2 -12 -3 -1 0 2 -1 6 -2 4 -2 10 -4 14 -6 10 -5 26 -16 36 -25 8 -8 10
-9 25 -15 26 -12 48 -25 53 -32 5 -7 3 -17 -7 -34 l-5 -8 6 -5 c8 -6 11 -10
11 -18 0 -3 0 -7 1 -9 1 -5 -4 -11 -10 -14 -5 -3 -11 -2 -25 6 -6 3 -8 3 -10
0 -1 -3 -1 -4 0 -8 3 -6 2 -8 -1 -13 -5 -8 -16 -18 -30 -28 -5 -3 -7 -5 -8 -8
-2 -5 -2 -5 0 -9 1 -3 2 -6 3 -8 0 -3 1 -6 2 -7 4 -5 6 -14 7 -23 0 -7 0 -9
-2 -14 -4 -12 -11 -16 -29 -15 -13 0 -18 1 -23 6 -4 3 -4 4 -1 18 0 3 0 4 -4
6 -3 1 -7 5 -10 8 -6 5 -7 6 -15 7 -16 2 -24 7 -30 18 -2 4 -5 8 -8 11 -3 4
-3 4 -10 4 -4 0 -10 0 -15 1 l-7 1 -4 -3 c-2 -2 -3 -5 -4 -7 -1 -8 -4 -13 -11
-16 l-7 -3 -1 -7 c-2 -5 -2 -12 -3 -19 0 -8 0 -12 -1 -13 -4 -6 -44 -12 -60
-9 -13 2 -17 7 -15 15 1 4 3 7 14 16 4 4 4 4 4 7 -1 2 -1 6 -1 10 0 6 0 6 -3
7 -7 3 -12 10 -13 19 0 5 -1 6 -7 12 -9 9 -13 17 -11 23 1 5 8 14 16 23 4 5 8
9 8 9 -1 0 -3 -1 -6 -2 -6 -3 -26 -8 -30 -8 -4 0 -9 2 -9 5 -1 1 -2 1 -5 1 -5
-1 -11 1 -12 3 -1 1 -4 12 -11 35 l-3 14 -4 1 c-6 0 -11 6 -15 14 -2 4 -5 8
-6 10 -1 3 -2 6 -2 7 0 2 -1 6 -2 9 -3 11 -2 19 3 25 3 2 2 2 -5 0 -4 -1 -6
-1 -9 0 -4 1 -7 6 -6 12 1 3 2 3 9 7 5 2 9 4 9 5 0 0 -1 2 -1 5 -1 3 -2 7 -2
9 1 2 -1 8 -4 18 -13 45 -43 162 -53 207 -5 23 -5 24 -5 39 0 15 0 16 3 24 3
9 16 30 19 31 0 0 1 -1 1 -3 1 -2 2 -9 3 -15 5 -37 20 -107 37 -176 21 -82 28
-109 32 -113 1 -2 3 -6 4 -9 1 -6 2 -6 4 -6 4 2 14 2 16 2 2 -1 3 -2 4 -4 3
-8 0 -13 -10 -16 l-6 -3 5 0 c5 0 10 -2 14 -7 2 -3 3 -3 7 -3 3 0 13 -1 23 -2
l19 -2 3 3 c4 4 7 5 11 5 2 0 5 2 10 5 6 6 17 12 24 14 2 1 3 2 2 2 -1 1 -7 3
-14 5 -23 7 -42 19 -50 29 -4 5 -8 16 -8 21 0 2 -1 4 -5 8 -7 7 -12 18 -13 27
l0 7 -7 2 c-8 3 -24 10 -26 12 -1 1 0 3 2 9 1 4 2 8 2 8 0 0 -3 2 -6 4 -8 5
-17 13 -17 14 0 1 3 6 6 11 6 9 17 31 17 33 0 1 -2 1 -5 2 -3 1 -8 3 -12 5 -8
4 -18 12 -19 14 0 1 3 3 9 6 15 7 24 16 43 44 14 21 19 28 31 40 27 29 65 49
99 53 10 1 29 0 36 -1z" fill="white"/>
<path d="M280 693 c-19 -2 -31 -6 -49 -15 -15 -8 -26 -16 -40 -29 -13 -12 -22
-24 -37 -46 -17 -24 -29 -38 -42 -44 -3 -1 -5 -3 -5 -3 0 0 2 -2 5 -4 10 -7
24 -11 26 -9 1 1 4 10 9 19 7 17 11 24 11 21 0 -1 -1 -4 -2 -6 -1 -2 -4 -9 -5
-13 -10 -27 -21 -52 -30 -65 -2 -3 -3 -6 -3 -7 1 0 5 -4 9 -7 6 -4 9 -6 9 -5
0 1 3 7 5 13 3 6 6 12 6 12 2 2 -7 -31 -12 -43 0 -2 2 -3 8 -6 5 -2 9 -4 10
-4 0 1 1 9 2 27 0 1 1 -2 1 -7 1 -5 1 -12 0 -15 l0 -6 3 -1 c4 -2 19 -5 20 -4
0 0 -2 8 -4 17 -5 20 -7 34 -7 50 0 17 1 34 2 33 1 0 1 -10 1 -21 0 -21 0 -26
4 -41 l1 -7 3 13 c3 12 11 42 13 50 1 2 2 6 2 8 0 10 6 33 9 35 1 1 1 1 1 0
-4 -10 -7 -31 -7 -45 l0 -11 4 3 c2 1 5 4 8 5 2 2 4 4 4 6 1 4 12 26 16 33 3
4 4 7 4 9 0 8 7 33 9 35 1 0 1 0 -1 -11 -6 -22 -6 -41 -2 -61 4 -19 13 -42 21
-54 l3 -5 0 12 c-1 10 -3 26 -6 37 0 2 0 2 1 2 0 -1 2 -5 3 -9 4 -15 15 -39
21 -46 3 -3 3 -3 13 -3 7 0 9 0 9 1 -1 1 -2 5 -4 10 -6 13 -12 30 -14 43 -3
10 -5 29 -5 30 1 0 2 -5 3 -11 3 -15 8 -30 15 -49 6 -15 7 -16 7 -6 0 7 5 52
7 63 0 5 2 15 3 22 2 7 3 16 4 20 1 5 1 9 2 9 1 2 1 -3 0 -13 -1 -7 -1 -9 0
-15 2 -7 8 -22 12 -32 l3 -7 11 -1 c6 -1 12 -2 12 -2 2 0 -2 30 -5 39 0 1 0 2
1 2 0 -1 2 -5 3 -10 3 -11 5 -17 12 -28 5 -9 25 -36 30 -42 l4 -4 -1 7 c-1 18
-5 40 -10 58 -2 5 -3 9 -3 9 1 0 1 -1 2 -2 0 -1 2 -5 3 -8 3 -7 8 -29 10 -42
4 -21 5 -38 5 -58 l0 -20 2 1 c6 1 7 2 9 10 4 10 6 21 7 34 0 8 0 9 1 7 1 -5
0 -23 -2 -35 -2 -6 -3 -12 -2 -12 0 -1 23 8 24 10 1 2 -4 44 -9 72 0 5 2 2 4
-6 0 -4 3 -16 5 -27 4 -23 7 -35 9 -34 2 0 15 4 16 5 1 1 1 3 -2 11 -3 9 -6
23 -9 36 -1 8 1 1 6 -15 4 -15 9 -28 10 -30 1 0 10 4 10 5 0 1 -1 4 -2 8 -4
12 -8 29 -11 47 -4 25 -7 39 -12 54 -7 22 -4 18 4 -6 2 -5 5 -17 7 -27 5 -24
13 -56 17 -68 2 -5 3 -10 2 -10 -1 -2 -17 -9 -24 -12 l-6 -1 3 -5 c2 -5 2 -7
2 -15 0 -7 0 -11 -1 -15 -1 -3 -2 -6 -1 -8 l0 -3 5 3 c2 1 7 4 10 6 6 4 6 4 5
7 -1 1 -2 5 -3 8 -1 2 -2 8 -4 13 -1 5 -2 8 -2 9 1 0 2 -3 3 -6 3 -8 8 -20 10
-22 1 -2 2 -1 14 6 6 4 12 8 12 8 0 1 -2 4 -5 8 -6 10 -9 16 -11 26 -1 5 -3
10 -4 12 0 2 -1 4 -1 4 1 0 4 -7 8 -15 5 -8 8 -15 9 -15 1 -1 21 12 22 14 0 0
-3 4 -6 9 -8 11 -26 38 -26 39 0 1 4 -3 10 -8 5 -5 10 -9 10 -9 1 0 13 9 16
12 l2 3 -3 3 c-8 6 -18 16 -24 26 -8 11 -18 30 -21 39 -9 23 -23 42 -50 66
-18 15 -45 28 -69 33 -14 2 -37 2 -47 -1 -7 -2 -8 -2 -12 -1 -5 2 -21 4 -24 4
-2 0 -7 -1 -12 -2z m64 -13 c11 -3 24 -11 34 -21 12 -10 25 -30 32 -45 5 -10
11 -26 10 -26 0 -1 -2 3 -4 7 -14 35 -35 63 -57 75 -10 6 -18 8 -30 7 -8 -1
-9 0 -6 2 3 2 14 3 21 1z m-34 -2 c5 -2 4 -4 -3 -3 -3 0 -8 0 -11 -1 -15 -5
-35 -23 -45 -42 -2 -4 -3 -5 -3 -3 0 6 14 27 24 37 14 12 29 17 38 12z m119
-114 c2 -6 5 -20 5 -21 0 0 -2 6 -4 12 -2 7 -4 13 -5 15 0 1 0 1 1 1 0 -1 2
-4 3 -7z" fill="white"/>
<path d="M45 660 c-7 -10 -13 -25 -14 -36 0 -10 1 -18 7 -47 10 -46 42 -170
54 -208 1 -4 2 -7 3 -8 0 -1 1 0 5 1 l5 2 -4 13 c-6 19 -24 85 -30 111 -13 48
-29 121 -29 130 0 5 2 14 6 21 2 6 2 6 1 13 -1 12 -1 12 -4 8z" fill="white"/>
<path d="M49 636 c-3 -7 -5 -14 -5 -19 0 -9 20 -95 36 -156 8 -29 26 -95 26
-96 1 0 9 2 10 3 0 0 -2 9 -6 20 -8 31 -28 110 -38 151 -4 19 -11 52 -16 78
-2 12 -5 22 -5 22 0 1 -1 -1 -2 -3z" fill="white"/>
<path d="M319 571 c-3 -11 -8 -50 -10 -83 l0 -11 -14 -1 -14 0 -3 4 c-1 3 -4
8 -7 12 l-3 7 -1 -10 c0 -7 -1 -10 -2 -11 -3 -1 -17 24 -22 38 l-2 6 -8 0 c-5
0 -11 -1 -15 -2 l-6 -2 -3 -7 c-3 -9 -7 -15 -8 -14 0 1 -2 5 -4 9 -2 7 -3 9
-5 9 -2 0 -3 0 -5 -11 -7 -29 -8 -37 -3 -56 3 -13 3 -14 3 -31 0 -22 1 -27 8
-35 10 -11 25 -19 47 -26 18 -6 33 -8 53 -8 32 0 59 7 85 23 8 4 19 14 26 22
l3 4 5 -2 c8 -2 17 -1 25 2 7 4 20 17 23 24 5 11 6 25 1 32 -2 5 -6 5 -8 2 -1
-2 -4 -3 -6 -4 l-4 -1 3 -1 c2 -1 4 -3 6 -5 3 -5 2 -6 -2 -2 -3 3 -4 4 -7 4
-4 0 -8 -3 -12 -8 -2 -4 -2 -4 -1 -9 1 -6 1 -9 -2 -13 -2 -3 -2 -5 -1 -5 1 -1
0 -1 -1 -1 -3 0 -3 3 0 8 2 5 3 7 1 10 -3 3 -2 10 2 15 1 1 2 2 2 2 0 1 -3 0
-6 -2 -4 -2 -5 -3 -7 -7 l-2 -4 -1 3 c0 4 -1 5 -8 3 -4 -1 -5 -1 -4 7 1 4 1
16 1 25 0 21 0 22 -8 30 -2 3 -7 8 -9 12 -3 4 -6 7 -6 7 0 1 -4 2 -8 2 -4 1
-8 2 -10 2 -2 1 -2 0 -3 -8 -1 -5 -2 -10 -2 -12 l-1 -3 -3 2 -2 3 -7 -2 c-7
-2 -15 -6 -17 -8 0 -1 -3 -1 -3 0 0 4 11 10 21 11 l6 1 -5 9 -6 9 -14 0 c-13
0 -14 1 -14 3 0 3 4 9 11 13 l6 4 -2 4 c-1 2 -3 9 -6 15 l-4 11 -1 -4z m-84
-68 c4 -1 9 -5 9 -7 0 -1 -1 0 -4 1 -4 1 -13 4 -18 5 -3 1 -3 1 -2 2 2 1 9 1
15 -1z m134 -5 c22 -6 34 -25 30 -45 -2 -10 -3 -10 -3 -1 0 8 -1 9 -4 17 -4 6
-6 8 -9 11 -15 11 -33 11 -50 -1 -4 -2 -8 -4 -8 -4 -1 1 6 10 9 14 6 5 17 10
27 10 1 0 5 -1 8 -1z m-135 -4 c8 -4 14 -12 16 -21 1 -2 1 -3 0 -2 -1 0 -1 0
-1 -2 5 -10 5 -23 2 -32 -2 -6 -6 -11 -11 -13 -3 -2 -12 -2 -16 1 -9 4 -15 16
-14 30 0 8 0 9 3 16 2 4 5 8 7 9 4 3 5 3 11 3 l6 0 -3 2 c-4 3 -14 4 -19 2
-10 -3 -19 -16 -20 -30 -1 -7 -1 -7 -2 -4 -1 1 -1 7 -1 13 0 8 0 10 2 15 4 7
8 12 16 15 8 3 16 3 24 -2z m138 -12 c9 -4 14 -14 14 -29 0 -8 0 -10 -2 -15
-5 -12 -12 -16 -23 -16 -14 0 -23 8 -25 24 -3 16 3 31 15 36 7 4 14 4 21 0z
m-103 -61 c0 -3 -2 -4 -3 -1 -1 2 0 4 2 4 0 0 1 -1 1 -3z m45 -19 c8 -6 9 -23
2 -33 -2 -4 -9 -8 -14 -9 -3 -1 -3 -1 1 2 13 6 18 18 13 31 -4 10 -12 12 -39
7 -8 -1 -13 -8 -13 -17 0 -7 9 -17 18 -22 3 -1 4 -2 2 -2 -6 0 -15 6 -20 14
-5 8 -7 15 -5 19 2 5 5 7 13 9 13 3 17 4 28 4 9 0 11 -1 14 -3z" fill="white"/>
<path d="M225 555 c-3 -7 -6 -13 -6 -14 0 -1 1 -1 4 -1 2 0 5 -1 8 -2 2 -1 4
-2 5 -2 0 0 -1 4 -2 9 0 4 -1 11 -2 15 l-1 8 -6 -13z" fill="white"/>
<path d="M364 544 c0 -3 0 -4 3 -5 4 -3 4 -2 0 5 l-3 5 0 -5z" fill="white"/>
<path d="M327 539 c-6 -5 -9 -9 -7 -10 1 -1 6 -1 11 -1 l10 0 -4 7 c-2 4 -4 7
-4 7 0 0 -3 -2 -6 -3z" fill="white"/>
<path d="M339 542 c0 -2 7 -13 8 -13 1 -1 4 -1 7 -1 l6 -1 0 6 0 5 -5 2 c-5 1
-16 3 -16 2z" fill="white"/>
<path d="M218 536 c-1 0 -6 -13 -5 -14 0 0 3 1 5 2 3 0 9 1 13 2 6 0 8 1 8 2
-1 1 -1 2 -1 2 0 3 -16 8 -20 6z" fill="white"/>
<path d="M364 531 c0 -3 0 -4 1 -5 14 -2 14 -3 13 0 0 1 -12 10 -13 10 0 0 -1
-2 -1 -5z" fill="white"/>
<path d="M207 532 c-1 -1 -4 -4 -6 -6 l-4 -3 2 -6 c0 -4 1 -8 2 -9 1 -2 1 -2
2 0 1 2 8 25 8 26 0 0 -2 -1 -4 -2z" fill="white"/>
<path d="M349 524 c0 -1 2 -5 5 -9 l3 -7 2 8 c0 4 1 8 0 8 0 1 -3 1 -6 1 -4 0
-5 0 -4 -1z" fill="white"/>
<path d="M353 479 c-15 -8 -19 -33 -7 -46 4 -5 10 -8 16 -8 7 0 11 2 15 7 5 7
6 13 6 22 -1 10 -4 19 -10 23 -5 4 -14 5 -20 2z m15 -10 c2 -1 4 -5 4 -14 1
-9 0 -13 -4 -16 -5 -4 -12 -2 -16 4 -2 4 -1 15 1 18 5 7 11 10 15 8z" fill="white"/>
<path d="M224 478 c-13 -8 -15 -34 -3 -47 7 -7 19 -6 24 1 10 14 5 39 -8 46
-5 2 -9 3 -13 0z m17 -11 c3 -3 3 -3 2 -13 0 -10 -2 -14 -6 -16 -3 -2 -7 -1
-9 2 -3 3 -3 12 -1 16 0 1 1 4 1 6 1 4 5 8 9 8 1 0 3 -1 4 -3z" fill="white"/>
<path d="M233 466 c-5 -4 -2 -13 4 -13 3 0 5 2 5 7 0 4 -1 5 -4 7 -2 1 -2 1
-5 -1z" fill="white"/>
<path d="M360 466 c-2 -3 -3 -9 0 -11 0 -1 2 -2 4 -2 5 0 8 6 5 11 -2 5 -6 5
-9 2z" fill="white"/>
<path d="M168 436 c1 -7 4 -15 10 -21 l4 -5 0 11 c0 6 -1 13 -1 15 -2 5 -3 6
-10 6 l-3 0 0 -6z" fill="white"/>
<path d="M457 406 c-5 -5 -11 -9 -18 -14 0 0 4 -9 4 -9 2 0 25 10 25 11 0 0
-1 4 -3 9 l-3 9 -5 -6z" fill="white"/>
<path d="M411 391 c-1 -1 1 -21 1 -22 1 0 17 3 21 5 3 1 3 1 3 4 -1 1 -1 5 -1
7 l-1 5 -9 0 c-5 0 -10 0 -11 0 -2 1 -3 1 -3 1z" fill="white"/>
<path d="M405 384 c-3 -3 -7 -7 -10 -9 -5 -3 -5 -4 -5 -8 0 -6 0 -6 11 -4 l6
1 0 4 c0 3 1 8 1 12 1 5 2 8 2 9 0 0 -3 -3 -5 -5z" fill="white"/>
<path d="M380 365 c-11 -6 -11 -7 2 -5 l6 1 0 5 c0 2 0 4 0 4 0 0 -4 -2 -8 -5z" fill="white"/>
<path d="M110 361 c-3 -1 -8 -3 -11 -4 -5 -2 -5 -2 -4 -5 1 -2 2 -3 2 -2 1 0
6 2 12 4 6 2 11 4 11 4 1 0 1 2 1 3 -1 2 -3 2 -11 0z" fill="white"/>
<path d="M109 352 c-12 -4 -13 -5 -11 -9 1 -1 3 0 13 3 7 2 13 4 13 4 0 0 -1
2 -1 3 l-1 3 -13 -4z" fill="white"/>
<path d="M359 355 c-4 -2 -11 -22 -13 -40 -2 -12 -1 -42 2 -55 2 -19 9 -41 16
-58 9 -20 28 -48 42 -62 l7 -7 4 2 c9 3 25 11 33 18 14 10 26 24 23 27 0 1 -2
0 -4 -2 -7 -7 -14 -2 -14 9 0 4 0 5 -1 5 -6 -3 -13 -4 -18 -4 -13 1 -27 20
-41 55 -3 7 -7 16 -10 20 -6 10 -9 18 -11 24 l-2 6 -4 0 c-2 -1 -7 -1 -12 -2
-8 0 -9 0 -10 1 0 2 6 17 11 23 3 4 3 4 5 2 1 -1 3 -4 5 -8 l4 -7 -1 19 c0 14
0 20 1 24 2 4 2 4 1 -9 -1 -22 3 -43 9 -57 l4 -6 0 10 c1 5 2 12 2 14 l2 5 0
-5 c-1 -2 -2 -9 -2 -15 l-1 -11 3 -6 c4 -5 6 -10 14 -30 7 -17 17 -33 25 -39
4 -2 5 -3 10 -3 6 0 15 3 16 5 0 1 -2 8 -3 8 -1 0 -2 1 -3 2 -2 1 -2 1 -4 -4
-1 -2 -2 -6 -2 -7 0 -2 0 -3 -2 -3 -3 1 -2 8 2 15 9 19 38 50 54 60 5 2 11 3
13 1 0 -1 -1 -1 -3 -1 -3 0 -8 -2 -14 -8 l-6 -4 4 -5 c6 -8 7 -10 7 -14 -1 -4
-1 -4 1 -4 3 0 14 23 15 30 0 4 0 5 -3 9 -6 6 -29 19 -57 31 -8 4 -11 6 -20
14 -6 5 -14 12 -19 15 -8 5 -24 13 -26 13 -2 0 -18 5 -20 7 -4 2 -6 3 -9 2z
m60 -30 c11 -7 13 -9 11 -12 0 -1 -7 -4 -16 -7 -15 -5 -16 -5 -16 0 0 4 3 17
5 22 2 5 3 5 16 -3z m41 -32 c11 -3 16 -6 17 -9 0 -1 -2 -4 -10 -9 -12 -10
-16 -12 -17 -10 -2 1 -3 24 -2 28 1 4 2 4 12 0z m-45 -29 c5 -2 18 -11 19 -13
2 -3 0 -5 -11 -12 -10 -6 -14 -8 -15 -6 -1 1 -2 21 -1 27 1 5 2 6 8 4z m-40
-9 c2 -3 6 -8 9 -11 4 -7 4 -7 2 -9 -2 -2 -16 -6 -21 -6 l-4 0 0 4 c0 9 6 26
8 26 1 0 3 -2 6 -4z m32 -56 c10 -6 13 -9 13 -12 0 -3 -26 -15 -29 -13 -1 1
-1 3 0 15 1 14 2 17 4 17 1 0 6 -3 12 -7z" fill="white"/>
<path d="M339 348 c-6 -2 -16 -4 -21 -5 -11 -2 -15 -3 -16 -7 -1 -3 -1 -15 0
-16 1 0 3 0 5 0 3 1 3 1 3 7 0 3 0 6 1 7 0 0 3 1 6 1 15 2 30 8 34 14 3 4 2 4
-12 -1z" fill="white"/>
<path d="M129 347 c-14 -3 -24 -6 -37 -13 -11 -5 -11 -6 -11 -8 0 -1 0 -3 0
-3 0 0 4 2 9 4 12 6 35 14 47 16 5 1 10 1 10 2 0 0 0 1 0 2 -1 3 -6 3 -18 0z" fill="white"/>
<path d="M256 340 c-15 -5 -14 -4 -14 -10 0 -6 -2 -15 -3 -16 0 -1 -3 0 -7 2
-4 2 -7 3 -12 3 -7 1 -7 1 -12 -3 -4 -4 -5 -4 -8 -4 -4 1 -36 4 -39 4 -2 0 -2
0 2 -4 5 -4 11 -17 14 -28 3 -11 4 -36 2 -47 -4 -16 -12 -32 -19 -35 -2 -1 -3
-2 -3 -2 0 -4 24 2 43 10 7 3 7 4 1 2 -7 -3 -11 -3 -11 0 0 5 12 24 15 24 1 0
3 -3 6 -7 l4 -6 4 8 c6 13 10 23 14 38 9 33 17 53 24 66 5 7 7 8 3 1 -3 -5
-14 -37 -14 -38 0 0 3 3 5 6 7 9 11 12 12 8 1 -1 1 -4 2 -7 l0 -6 3 11 c2 6 4
15 6 21 2 6 4 12 4 12 -1 0 -4 0 -7 0 -6 1 -8 0 -15 -3z m-43 -32 c4 -5 10
-14 12 -17 0 -2 -2 1 -5 5 -5 8 -11 14 -13 15 -2 1 -2 1 0 1 2 0 4 -1 6 -4z
m-6 -19 c12 -6 14 -8 12 -12 -1 -2 -11 -12 -15 -14 -4 -3 -5 -3 -7 2 -3 8 -6
30 -3 30 1 0 7 -3 13 -6z" fill="white"/>
<path d="M344 340 c-6 -3 -16 -6 -24 -7 l-7 0 0 -6 c-1 -3 -1 -5 -1 -6 1 0 20
3 26 5 l6 3 3 7 c1 4 1 7 1 7 0 0 -2 -1 -4 -3z" fill="white"/>
<path d="M134 340 c-17 -4 -52 -17 -50 -19 1 0 11 3 21 7 4 1 14 4 21 6 14 4
23 8 18 8 -1 0 -6 -1 -10 -2z" fill="white"/>
<path d="M283 340 c2 -2 4 -3 6 -4 2 -2 3 -2 3 -8 1 -6 1 -7 3 -7 4 -1 4 -1 4
5 0 10 -1 13 -5 15 -1 0 -5 1 -8 1 l-5 0 2 -2z" fill="white"/>
<path d="M279 334 c-1 -3 -1 -5 -2 -5 0 -1 3 -2 6 -4 l7 -3 0 4 c0 5 -1 7 -6
10 l-4 2 -1 -4z" fill="white"/>
<path d="M236 331 c-5 -3 -11 -8 -11 -9 0 -1 1 -1 1 -1 1 0 4 -1 6 -3 3 -1 5
-2 6 -2 1 2 3 17 1 17 0 0 -2 -1 -3 -2z" fill="white"/>
<path d="M116 327 c-5 -2 -9 -4 -10 -4 0 -1 2 -1 4 -1 3 0 6 -1 7 -1 3 -2 3
-2 4 0 1 1 3 3 5 5 7 5 3 5 -10 1z" fill="white"/>
<path d="M406 328 c-3 -4 -6 -24 -5 -24 2 0 26 9 27 10 1 1 -2 3 -13 10 -8 5
-9 6 -9 4z" fill="white"/>
<path d="M131 324 c-6 -4 -9 -9 -9 -15 0 -4 0 -6 2 -8 4 -2 8 -3 12 -1 1 1 3
4 4 7 l2 5 1 -4 c0 -3 -1 -5 -2 -7 -1 -2 -2 -4 -1 -5 0 -1 3 -9 6 -18 2 -9 5
-16 5 -16 3 1 7 12 8 19 0 7 0 7 -2 8 -2 0 -2 0 0 6 3 14 -6 31 -18 31 -1 0
-5 -1 -8 -2z" fill="white"/>
<path d="M272 311 c-2 -8 -6 -23 -8 -32 -2 -10 -6 -24 -7 -30 l-4 -11 4 -2 c3
-1 8 -3 12 -4 l7 -2 2 2 c2 2 2 3 1 6 -1 2 -1 5 1 9 0 4 2 20 3 37 2 17 3 32
4 33 1 2 1 3 1 3 0 0 -3 2 -6 3 -3 2 -5 3 -5 3 -1 0 -3 -7 -5 -15z" fill="white"/>
<path d="M336 323 c-4 -1 -11 -3 -14 -3 -4 -1 -10 -2 -12 -2 -5 -1 -15 0 -18
1 -2 1 -2 0 -3 -4 -2 -9 -3 -21 -5 -43 0 -13 -2 -24 -2 -27 -1 -2 -1 -5 0 -7
l1 -2 12 -1 c8 0 12 -1 14 -2 1 0 3 -2 4 -3 2 -1 3 -1 11 0 5 1 13 2 17 2 4 0
8 0 8 0 0 1 -1 5 -2 11 -2 10 -3 18 -4 27 l-1 6 -11 0 c-13 0 -15 1 -14 8 1 6
2 7 11 7 13 0 12 -1 14 16 0 8 1 16 2 17 0 2 0 2 -8 -1z m-32 -11 c3 -3 3 -9
0 -12 -4 -3 -8 -3 -11 1 -1 1 -2 3 -2 4 0 3 3 8 4 8 3 1 7 1 9 -1z m-3 -39 c3
-4 3 -9 -1 -13 -3 -3 -7 -3 -11 1 -3 3 -4 7 -2 11 2 3 3 4 8 4 3 0 4 -1 6 -3z" fill="white"/>
<path d="M103 316 c-7 -4 -10 -13 -7 -20 1 -2 2 -6 3 -10 0 -3 1 -7 2 -7 0 -1
3 -5 5 -10 4 -8 6 -10 10 -11 3 -1 3 -1 3 2 1 3 2 5 6 8 6 4 9 8 9 12 0 6 -7
7 -17 2 -6 -3 -8 -3 -4 0 4 4 10 6 15 6 5 0 5 0 5 2 -1 1 -1 3 -1 3 0 1 -2 1
-4 2 -2 0 -5 2 -7 3 -3 3 -3 3 -9 2 -3 0 -6 -1 -6 0 -1 0 3 3 7 4 4 1 4 1 4 4
0 2 0 4 1 6 1 4 -9 5 -15 2z" fill="white"/>
<path d="M358 312 c-4 -5 -9 -16 -9 -18 0 -1 1 -1 2 -1 1 1 6 1 11 2 l9 0 -3
6 c-2 6 -7 15 -7 15 -1 0 -2 -2 -3 -4z" fill="white"/>
<path d="M296 310 c-4 -3 -2 -10 2 -10 2 0 6 4 6 6 0 5 -5 8 -8 4z" fill="white"/>
<path d="M256 307 c-5 -7 -9 -13 -8 -14 0 -1 11 -3 14 -3 1 0 1 1 1 4 0 8 -1
17 -2 17 -1 0 -3 -2 -5 -4z" fill="white"/>
<path d="M162 299 c0 -3 0 -10 -1 -15 0 -11 -1 -16 -6 -22 -2 -3 -3 -6 -3 -6
1 -3 5 -2 8 0 3 4 7 14 8 21 0 6 -2 17 -4 23 l-2 4 0 -5z" fill="white"/>
<path d="M169 294 c0 -2 0 -9 0 -15 0 -9 0 -11 -2 -16 -3 -7 -7 -11 -9 -11 -1
0 3 -1 8 -2 7 -2 10 -3 10 -2 2 2 0 22 -2 32 -1 5 -3 11 -4 14 l-2 5 1 -5z" fill="white"/>
<path d="M451 292 c-1 -2 -1 -14 0 -21 l1 -5 11 9 c9 6 12 9 11 10 -1 1 -10 5
-17 7 -5 2 -6 2 -6 0z" fill="white"/>
<path d="M195 288 c0 -4 3 -21 5 -23 1 -2 1 -2 6 2 6 5 11 11 11 13 0 1 -19
12 -21 12 -1 0 -1 -2 -1 -4z" fill="white"/>
<path d="M137 287 c1 -4 2 -6 3 -5 0 1 -1 3 -1 5 l-2 5 0 -5z" fill="white"/>
<path d="M244 290 c-2 -3 -10 -33 -10 -34 0 0 1 0 2 1 1 2 2 2 3 1 2 -3 4 -27
2 -28 0 -1 -4 0 -8 2 -4 2 -7 3 -8 3 0 0 -1 -4 -4 -8 -2 -4 -4 -9 -6 -11 -4
-7 -4 -7 -2 -7 1 0 1 0 1 -4 0 -6 -4 -23 -5 -24 -1 -2 -7 1 -12 5 l-4 5 -5 -6
c-6 -6 -10 -14 -10 -17 0 -4 4 -11 11 -17 4 -4 7 -7 8 -7 0 0 2 2 3 4 3 6 18
30 27 44 11 18 16 28 23 48 5 15 12 43 12 47 0 0 -3 1 -7 2 -3 1 -8 1 -9 2 -1
0 -2 0 -2 -1z" fill="white"/>
<path d="M325 288 c-4 0 -5 -1 -5 -5 l0 -4 11 0 11 0 0 3 c0 7 -1 7 -7 7 -4 0
-8 -1 -10 -1z" fill="white"/>
<path d="M138 276 c-1 -2 -3 -5 -4 -6 l-3 -4 6 0 c3 -1 6 -1 6 0 2 1 -1 14 -3
14 0 0 -1 -2 -2 -4z" fill="white"/>
<path d="M291 272 c-4 -4 -1 -11 4 -11 4 0 6 4 6 7 -2 6 -6 8 -10 4z" fill="white"/>
<path d="M125 262 c-1 -1 -1 -5 1 -11 l2 -5 6 7 c8 11 8 10 -1 10 -4 0 -8 0
-8 -1z" fill="white"/>
<path d="M410 260 c-1 -5 -1 -25 0 -25 2 -1 22 12 22 14 0 2 -19 14 -21 14 -1
0 -1 -1 -1 -3z" fill="white"/>
<path d="M137 254 l-7 -8 8 0 c11 -1 13 1 9 11 0 3 -2 5 -2 5 -1 0 -5 -4 -8
-8z" fill="white"/>
<path d="M235 254 c-2 -3 -8 -14 -8 -16 0 -1 6 -4 11 -5 2 -1 2 -1 2 5 0 3 -1
8 -1 12 l-1 6 -3 -2z" fill="white"/>
<path d="M368 253 c-1 -3 -5 -16 -5 -20 0 -2 0 -2 2 -2 2 0 19 5 20 6 1 0 -7
11 -12 15 l-4 4 -1 -3z" fill="white"/>
<path d="M473 244 c-10 -10 -16 -17 -16 -19 0 0 2 2 5 5 7 7 16 13 21 16 3 1
5 2 5 2 0 0 -1 2 -3 3 l-3 3 -9 -10z" fill="white"/>
<path d="M155 247 c0 -1 2 -8 4 -15 2 -8 4 -15 5 -16 0 -3 1 -2 4 2 3 5 9 26
8 26 -1 0 -15 3 -19 4 -1 0 -2 0 -2 -1z" fill="white"/>
<path d="M483 243 c-12 -7 -24 -19 -28 -28 -2 -4 -2 -4 0 -7 l1 -2 2 4 c3 6
19 22 27 27 4 2 7 5 7 5 0 1 -2 3 -3 3 -1 0 -3 -1 -6 -2z" fill="white"/>
<path d="M128 243 c0 0 1 -3 2 -7 l2 -7 3 3 c9 10 9 11 7 11 -2 1 -14 1 -14 0z" fill="white"/>
<path d="M141 236 c-3 -3 -5 -6 -5 -6 0 -1 3 -1 7 -1 7 -1 7 -1 9 2 2 3 2 3 1
7 -1 2 -3 4 -4 4 -2 1 -3 0 -8 -6z" fill="white"/>
<path d="M201 229 c-5 -7 -9 -16 -9 -17 1 -1 13 3 17 5 2 1 3 3 4 3 0 2 -7 14
-9 14 0 0 -1 -2 -3 -5z" fill="white"/>
<path d="M252 233 c0 -1 0 -4 0 -7 1 -8 2 -8 14 -12 9 -3 9 -3 9 6 l0 8 -6 1
c-4 1 -8 2 -11 3 -5 2 -5 2 -6 1z" fill="white"/>
<path d="M479 229 c-8 -7 -15 -14 -18 -21 -3 -5 -3 -5 -2 -16 1 -12 3 -14 6
-12 3 2 4 4 7 12 3 9 9 10 21 2 9 -5 18 -6 18 -1 0 4 -8 11 -14 14 l-6 2 4 0
c5 0 13 -5 16 -10 2 -2 3 -4 4 -4 0 0 0 1 1 2 2 3 -1 8 -7 15 -5 5 -7 8 -5 8
0 0 3 -3 6 -6 4 -4 6 -5 6 -4 0 4 -3 9 -8 13 -5 4 -20 11 -22 11 0 0 -4 -2 -7
-5z" fill="white"/>
<path d="M282 232 c-4 -2 -4 -4 -4 -13 0 -5 0 -10 1 -11 1 -3 6 -3 18 -3 12
-1 13 0 13 13 0 12 -1 14 -9 14 -3 0 -7 0 -11 0 -3 1 -6 1 -8 0z m22 -5 c1 -2
2 -3 2 -9 0 -4 -1 -7 -2 -8 -1 -2 -11 -2 -16 -1 -4 1 -5 1 -5 5 -1 5 -1 8 0
11 1 3 1 3 10 3 6 0 9 0 11 -1z" fill="white"/>
<path d="M333 228 c-1 -1 -1 -19 0 -19 0 -1 2 -1 4 0 3 0 3 0 3 5 0 2 0 7 -1
10 0 5 0 5 -3 5 -1 0 -3 0 -3 -1z" fill="white"/>
<path d="M343 228 c-1 0 -1 -2 -1 -9 0 -8 0 -8 3 -8 4 0 11 2 11 3 -1 1 -2 5
-3 8 -2 7 -3 7 -5 7 -2 0 -4 0 -5 -1z" fill="white"/>
<path d="M319 226 l-6 0 0 -9 0 -8 9 0 8 0 0 9 c-1 10 0 9 -11 8z" fill="white"/>
<path d="M133 225 c0 0 0 -2 1 -4 1 -2 1 -4 2 -5 0 -1 5 2 9 7 l2 3 -7 0 c-4
0 -7 0 -7 -1z" fill="white"/>
<path d="M285 224 c0 -1 1 -2 2 -2 2 0 3 -1 3 -3 0 -2 0 -3 -2 -4 -2 0 -3 -1
-3 -2 0 -1 2 -1 9 -1 l9 0 0 6 c0 7 -1 8 -12 8 -5 0 -6 0 -6 -2z" fill="white"/>
<path d="M147 222 c-1 -1 -2 -2 -2 -3 1 0 12 1 12 2 0 5 -7 5 -10 1z" fill="white"/>
<path d="M453 220 c-4 -5 -5 -9 -3 -9 1 0 1 1 1 2 0 1 1 4 3 6 4 7 3 7 -1 1z" fill="white"/>
<path d="M148 217 c-2 0 -5 -2 -7 -3 -4 -1 -4 -2 -4 -4 1 -6 3 -6 9 -6 4 1 8
2 10 3 4 1 4 2 4 5 -1 2 -1 4 -1 4 -1 1 -8 2 -11 1z" fill="white"/>
<path d="M246 212 c-7 -8 -28 -40 -41 -63 -4 -6 -6 -9 -7 -9 -3 0 -3 -3 0 -9
3 -7 6 -9 11 -10 3 0 3 0 3 2 -2 4 -5 13 -5 14 1 0 2 -3 5 -8 2 -4 5 -9 7 -10
5 -4 14 -6 26 -6 15 0 23 1 30 4 5 3 7 5 8 11 1 3 1 3 -1 2 -3 0 2 5 13 14 4
3 8 7 8 7 1 1 -1 2 -3 3 l-4 2 -5 -2 c-8 -3 -13 -5 -13 -4 1 0 4 2 9 4 l7 3
-3 3 c-3 4 -2 4 6 0 4 -2 9 -4 12 -5 2 -1 6 -2 7 -3 4 -2 16 -15 23 -25 6 -10
9 -13 16 -16 4 -1 23 -4 24 -4 0 1 -2 2 -4 3 -3 2 -5 4 -6 5 -2 2 -1 1 6 -2
16 -7 23 -7 33 4 6 6 6 6 5 3 -1 -3 -2 -4 -1 -4 2 0 9 4 12 7 4 4 10 13 9 13
0 1 -4 -1 -7 -2 -4 -2 -9 -3 -11 -4 -4 0 -4 0 -12 8 -8 8 -21 25 -29 38 -3 4
-8 13 -11 21 -4 7 -6 13 -7 13 0 0 -14 -3 -15 -4 -1 0 -8 0 -15 -1 -11 0 -14
0 -16 -1 -1 -1 -3 -2 -5 -3 l-4 0 0 -8 c0 -8 2 -20 5 -26 2 -5 0 -5 -2 1 -4 8
-5 16 -5 25 l1 8 -6 0 c-3 0 -6 0 -7 1 -1 0 -1 0 -1 -10 1 -6 2 -13 3 -17 1
-4 2 -8 3 -9 0 -1 -1 1 -3 4 -3 6 -5 15 -5 25 0 6 0 7 -2 7 0 0 -3 1 -4 3 -3
3 -5 4 -9 5 -4 1 -13 4 -18 7 0 0 -3 -2 -5 -5z" fill="white"/>
<path d="M206 203 c-3 -3 -7 -6 -8 -8 l-3 -3 5 -4 c3 -3 6 -5 7 -5 0 0 1 3 2
7 3 12 4 17 3 17 0 0 -3 -2 -6 -4z" fill="white"/>
<path d="M395 200 c-1 -1 -1 -6 -1 -9 -1 -4 -1 -9 -2 -11 0 -4 0 -4 3 -3 3 0
18 7 21 9 1 2 1 2 -2 6 -4 3 -17 11 -18 11 -1 0 -1 -1 -1 -3z" fill="white"/>
<path d="M305 148 c-2 -2 -4 -4 -4 -4 1 -1 20 -3 21 -2 0 1 -8 8 -11 8 -2 1
-4 0 -6 -2z" fill="white"/>
<path d="M426 120 c-2 -2 -7 -5 -10 -6 -2 -1 -6 -3 -8 -4 l-3 -2 2 -4 c1 -3 2
-6 2 -9 l0 -4 6 2 c3 0 8 2 10 3 5 2 10 8 11 11 0 2 -1 11 -3 15 l-1 3 -6 -5z" fill="white"/>
<path d="M212 114 c0 -1 0 -5 0 -9 1 -5 2 -6 3 -7 2 -1 3 0 4 5 0 3 1 6 2 8 0
1 -1 2 -3 3 -4 2 -5 2 -6 0z" fill="white"/>
<path d="M222 111 c0 -2 -3 -14 -3 -14 0 0 3 -2 7 -4 6 -2 8 -2 16 -2 6 0 10
0 13 1 5 2 5 3 7 8 3 10 4 10 -12 9 -11 0 -16 0 -21 1 -4 1 -6 1 -7 1z" fill="white"/>
<path d="M398 105 c-2 0 -6 -1 -9 -1 -6 1 -7 0 -3 -4 4 -5 12 -9 17 -9 4 0 4
0 4 3 0 3 -2 11 -3 12 -1 0 -3 0 -6 -1z" fill="white"/>
<path d="M437 103 c-5 -8 -15 -13 -30 -15 l-6 0 -1 -4 c0 -4 0 -4 2 -3 6 2 9
3 15 3 7 0 17 -3 20 -5 1 -1 2 -2 2 -2 1 0 2 3 3 7 2 8 2 12 -1 19 l-2 4 -2
-4z" fill="white"/>
<path d="M210 92 l-3 -4 5 -1 c7 -1 16 -7 18 -11 1 -2 2 -3 3 -3 3 0 26 5 26
6 2 1 2 9 1 11 0 1 -2 1 -5 -1 -3 -1 -8 -1 -14 -1 -8 0 -10 0 -15 2 -14 7 -12
6 -16 2z" fill="white"/>
<path d="M200 83 c-1 -1 -3 -3 -4 -4 -1 -3 -1 -3 2 -4 5 -2 12 -3 21 -3 5 0 9
0 10 0 1 1 -5 7 -10 10 -6 3 -16 4 -19 1z" fill="white"/>
<path d="M443 79 c-3 -6 -7 -11 -12 -12 -4 -2 -16 -2 -24 -1 l-6 1 3 -2 c3 -1
6 -1 15 -1 10 0 12 0 16 2 4 2 5 3 8 7 1 3 2 7 2 8 0 2 -1 1 -2 -2z" fill="white"/>
<path d="M409 81 c-7 -2 -10 -5 -10 -7 0 -4 5 -5 19 -5 10 0 12 0 15 2 2 1 4
2 4 3 0 2 -6 5 -13 7 -6 1 -9 1 -15 0z" fill="white"/>
<path d="M254 74 c-3 0 -11 -2 -17 -3 -14 -3 -29 -2 -37 0 -5 2 -7 2 -4 -1 6
-4 26 -5 46 -1 14 2 18 4 18 6 0 1 0 1 -6 -1z" fill="white"/>
</g>
</svg>
