<?xml version="1.0" encoding="UTF-8"?>
<svg width="600" height="800" viewBox="0 0 600 800" fill="none" xmlns="http://www.w3.org/2000/svg">
<g transform="translate(0,800) scale(1,-1)">
<path d="M66 777 c-1 -1 -2 -2 -1 -3 0 0 7 -4 15 -8 65 -32 138 -76 199 -120
15 -10 34 -24 35 -25 0 0 -2 0 -5 1 -4 0 -5 0 -8 -2 -1 -2 -4 -3 -5 -3 -1 0
-4 -1 -7 -2 -3 -1 -5 -3 -7 -7 -1 -3 -4 -7 -6 -10 -2 -2 -5 -6 -6 -9 -1 -2 -2
-4 -3 -4 -5 2 -10 3 -17 3 l-7 -1 -4 5 c-6 6 -17 14 -23 16 -10 3 -23 0 -27
-6 -3 -4 -4 -10 -2 -12 1 -1 2 0 5 2 7 4 13 2 25 -8 l6 -5 -4 -4 c-4 -4 -6 -8
-5 -9 0 0 3 1 5 3 3 1 6 2 7 2 2 0 12 -8 11 -9 0 -1 -3 -2 -6 -3 l-5 -3 -12 2
c-32 5 -47 5 -63 -3 -12 -6 -24 -22 -26 -34 0 -6 0 -6 -5 -9 -13 -8 -23 -20
-27 -31 -3 -7 -3 -22 0 -29 2 -7 4 -7 4 0 l1 6 14 14 c13 13 14 14 22 18 5 2
9 4 9 4 1 0 -2 -2 -5 -5 -6 -5 -17 -18 -21 -27 -2 -4 -5 -11 -6 -16 -2 -7 -2
-10 -2 -21 l1 -13 -3 0 c-3 1 -3 -1 0 -6 5 -9 11 -5 17 12 3 10 21 25 43 36 7
3 13 6 14 6 0 0 -1 -2 -3 -5 -4 -6 -8 -13 -10 -22 -3 -11 -3 -29 0 -40 1 -5 2
-9 3 -11 0 -1 0 -2 -3 -2 -6 -2 -33 -12 -34 -14 -1 -1 -2 -3 -2 -6 0 -5 1 -9
4 -11 3 -1 4 -1 20 5 9 3 19 6 22 7 l5 2 6 -4 c10 -7 19 -8 29 -2 4 3 6 5 4 5
0 0 -1 3 -1 7 0 5 0 6 2 6 1 0 4 -2 7 -4 2 -2 5 -5 7 -5 3 -2 3 -4 -3 -16 -6
-12 -9 -15 -16 -17 -8 -2 -10 -3 -15 -10 -2 -5 -4 -7 -5 -6 -7 2 -27 2 -41 0
-14 -3 -33 -8 -49 -13 -9 -3 -20 -6 -24 -7 -11 -2 -11 -3 -12 -20 0 -16 1 -28
7 -54 3 -11 4 -21 5 -28 0 -10 0 -11 -2 -12 -1 -1 -2 -3 -2 -3 0 -1 3 -4 6 -7
3 -3 9 -11 13 -16 12 -17 18 -24 28 -34 16 -16 33 -25 48 -26 6 0 7 0 11 3 3
2 8 5 12 7 8 4 12 4 35 2 17 -2 22 -2 24 1 1 1 3 7 5 13 3 12 9 27 11 31 0 1
4 4 7 6 3 2 7 6 9 8 3 5 6 17 10 46 7 42 7 45 9 31 1 -16 0 -32 -5 -57 -3 -13
-5 -26 -5 -29 l0 -7 10 -9 c5 -5 16 -14 23 -20 17 -12 26 -22 29 -30 l1 -5 10
-3 c6 -2 18 -5 28 -8 16 -4 19 -4 31 -4 13 -1 17 0 38 9 l7 3 4 -2 c5 -3 22
-4 27 -2 8 2 10 10 6 17 l-2 3 3 1 c2 1 5 2 6 2 1 1 3 4 6 11 3 5 5 10 5 11 0
1 -2 8 -4 15 -3 7 -5 15 -5 16 0 1 3 6 8 13 11 15 12 16 12 19 0 3 -8 24 -13
36 -4 9 -24 41 -34 55 -4 6 -9 12 -11 14 -5 4 -17 10 -27 13 -13 4 -37 17 -50
27 -18 13 -17 13 -18 19 0 5 -1 6 -4 7 -2 0 -3 1 -2 3 l1 2 7 -4 c13 -7 27
-14 40 -18 14 -4 18 -5 20 -2 2 2 7 15 8 23 1 8 1 8 4 8 3 -1 6 2 6 7 0 2 -1
7 -3 12 l-2 8 1 8 c4 19 3 27 -3 44 -6 13 -6 13 1 18 3 3 7 5 8 5 1 1 3 3 5 4
l2 3 6 -6 c3 -3 8 -8 10 -11 4 -4 5 -5 7 -5 3 1 13 11 13 13 0 2 -2 4 -4 7
l-5 4 1 6 c1 7 0 14 -3 20 -2 4 -8 10 -14 14 -2 1 -4 4 -5 5 -6 9 -11 15 -14
16 -4 3 -10 2 -17 -1 -8 -4 -9 -3 -8 2 0 5 -1 10 -4 10 -1 1 -2 2 -3 3 -1 3
-1 3 3 7 5 5 11 15 12 21 0 5 -3 10 -8 11 -6 2 -9 1 -15 -6 l-5 -5 -2 2 c-3 2
-5 3 -7 1 0 -1 -1 -1 -3 0 -1 1 -3 1 -5 1 -1 0 -4 0 -6 1 -2 1 -4 1 -9 -1 l-5
-2 -4 3 c-2 1 -8 6 -13 10 -9 7 -9 7 -9 11 0 2 -1 6 -1 8 -2 2 -2 3 -5 3 -2 0
-4 -1 -6 -2 -3 -1 -3 -1 -6 1 -32 24 -49 36 -99 70 -46 31 -122 73 -151 83
-12 5 -23 5 -27 2z m31 -5 c39 -16 110 -57 171 -99 4 -3 13 -10 20 -14 18 -12
56 -40 56 -41 -1 0 -2 1 -4 2 -1 1 -4 2 -7 2 -2 0 -4 1 -5 2 -1 0 -2 1 -4 1
-1 0 -9 5 -21 13 -51 37 -96 67 -132 87 -33 19 -64 36 -77 41 -3 1 -8 3 -12 3
-4 1 -9 3 -11 4 -6 3 -4 4 7 4 6 -1 10 -2 19 -5z m-4 -7 c16 -6 70 -35 106
-58 28 -18 91 -60 114 -77 7 -5 8 -6 6 -7 -2 -2 0 -2 -28 17 -65 47 -119 80
-192 118 -10 6 -19 10 -19 11 -1 1 5 -1 13 -4z m234 -144 c1 -1 2 -1 4 -1 4 1
9 -1 9 -2 0 -1 -1 -1 -1 -1 -1 0 -3 -1 -4 -2 l-2 -2 3 2 c4 2 13 1 16 -2 4 -2
3 -3 -2 -1 -6 1 -8 1 -8 0 0 -1 1 -1 2 -1 1 0 5 -1 9 -2 5 -2 7 -4 11 -8 3 -3
8 -8 11 -11 6 -6 6 -6 7 -12 0 -9 -3 -20 -9 -26 l-2 -3 1 4 c0 2 1 6 3 9 2 4
2 6 2 12 -1 4 -2 8 -3 11 -1 2 -2 3 -1 2 3 -16 3 -16 2 -21 -1 -2 -3 -5 -4 -7
-1 -1 -1 -1 0 1 0 1 0 4 1 7 0 3 0 4 -1 3 -1 -6 -3 -14 -5 -17 l-2 -3 -2 6 c0
3 -1 9 -1 13 0 4 -1 10 -2 13 -2 7 -2 6 0 -1 3 -11 0 -25 -7 -35 l-4 -6 0 16
c0 15 0 15 -1 7 0 -5 -2 -12 -2 -15 -1 -4 -2 -9 -2 -11 l0 -5 -3 3 c-4 3 -12
17 -15 25 -1 2 -2 3 -2 2 0 -1 2 -5 3 -9 4 -8 6 -16 5 -16 -1 0 -9 11 -11 16
l-2 5 1 -7 c0 -4 1 -9 2 -11 1 -5 0 -5 -7 -1 -6 4 -11 9 -15 17 -3 6 -3 14 -2
27 1 4 1 5 0 3 -1 -2 -1 -7 -2 -12 0 -8 1 -16 5 -23 2 -3 7 -21 7 -22 -1 0 -2
1 -4 3 -5 4 -9 10 -11 18 -2 5 -2 5 -1 2 1 -7 5 -15 10 -21 3 -2 5 -5 5 -6 0
-2 12 -19 18 -25 9 -8 13 -10 20 -10 7 0 12 1 24 7 13 6 17 6 20 2 3 -4 4 -6
1 -7 -1 -1 -2 -2 -2 -3 -1 -1 -2 -2 -3 -2 -1 0 -3 -1 -4 -2 -2 -2 -3 -2 -12
-2 -5 0 -9 0 -10 1 -1 1 -1 1 1 1 1 0 2 0 3 0 0 0 1 0 1 1 0 0 3 1 5 3 4 2 5
2 8 0 l4 -1 -3 2 -3 3 3 1 c3 2 5 2 7 2 1 -1 2 -1 2 0 -2 2 -7 1 -11 -2 -2 -1
-6 -3 -9 -4 -11 -5 -13 -5 -23 -5 -9 0 -11 0 -16 2 -8 5 -22 22 -32 40 -2 5
-4 8 -4 8 0 -2 8 -18 13 -24 4 -7 4 -7 1 -6 -3 2 -25 38 -27 45 -1 4 -1 4 2 8
5 6 4 7 0 2 -6 -6 -6 -7 -2 -16 2 -5 3 -6 1 -10 -1 -6 -4 -11 -11 -21 -9 -13
-14 -20 -19 -29 -9 -18 -13 -32 -13 -42 0 -3 -1 -7 -1 -9 -1 -3 -2 -8 -2 -11
l0 -7 -3 6 c-2 3 -4 9 -5 13 -1 3 -2 7 -2 7 -1 1 2 10 7 20 4 7 7 11 19 28 l3
5 -4 -5 c-10 -11 -22 -31 -26 -43 -1 -4 -2 -10 -4 -14 l-2 -7 -1 6 c-2 8 -2 8
-2 4 0 -4 2 -11 4 -10 0 0 1 2 2 4 l1 4 0 -7 c1 -6 1 -6 1 2 0 11 1 13 3 5 3
-9 9 -21 10 -21 0 1 1 3 0 4 0 2 0 7 0 11 2 10 3 6 4 -9 1 -10 1 -15 3 -21 6
-18 20 -33 33 -35 l4 -1 -3 -1 c-12 -5 -36 3 -48 17 -17 18 -25 49 -17 71 2 8
3 8 3 5 1 -3 1 -3 1 2 1 3 2 7 3 10 3 5 17 20 25 26 3 2 6 5 7 6 1 2 1 2 -6
-2 -2 -2 -9 -5 -16 -8 -7 -2 -15 -5 -17 -7 -3 -1 -7 -2 -11 -2 -3 0 -8 0 -10
-1 -5 -1 -5 -1 -3 1 1 1 6 5 13 10 8 5 11 7 10 8 -1 1 -2 1 -2 1 -1 0 -1 0 0
-1 1 0 -4 -1 -11 -1 l-12 0 3 3 c1 1 5 4 8 7 3 3 4 4 3 5 -2 2 4 4 15 6 18 3
30 8 38 15 l5 4 -8 -5 c-11 -6 -20 -9 -39 -13 -8 -1 -16 -2 -18 -3 -5 -2 -3 0
4 3 7 3 9 5 5 5 -2 0 -2 0 -1 -1 1 0 -2 -2 -6 -3 -3 -2 -7 -4 -7 -4 -1 -1 -5
-3 -9 -4 -5 -2 -13 -5 -17 -8 -5 -2 -12 -5 -15 -6 -3 0 -9 -3 -13 -5 -9 -4 -9
-4 -26 -22 -7 -7 -7 -6 -2 4 5 10 16 19 30 25 4 1 6 2 5 2 -5 0 -22 -9 -29
-15 -6 -6 -12 -18 -15 -30 l0 -3 -1 3 c-2 4 -1 19 0 24 7 19 30 37 56 44 9 3
27 5 34 5 10 -1 36 3 43 7 l3 1 -3 -1 c-4 -1 -11 0 -15 1 -1 1 -4 2 -5 2 -2 1
-2 1 1 -1 2 -1 2 -1 0 -1 -16 3 -38 4 -48 2 -11 -3 -23 -11 -24 -16 -1 -2 -8
-6 -9 -5 -1 1 1 10 5 16 8 17 26 26 50 26 10 0 31 -2 32 -4 0 0 -3 0 -8 0 -5
1 -9 1 -9 1 0 -1 3 -3 6 -4 4 -2 8 -5 9 -6 1 -1 2 -1 2 0 -1 0 -4 3 -7 5 -3 2
-6 3 -6 3 0 1 21 0 33 -1 12 0 19 1 25 4 5 2 3 2 -3 0 -5 -2 -25 -3 -25 -2 0
1 2 2 4 3 4 2 5 3 6 1 1 0 2 -2 3 -2 3 -1 -14 18 -25 28 -11 11 -20 13 -27 9
-2 -1 -3 -2 -4 -2 0 1 0 3 1 5 1 3 2 5 5 7 4 2 5 3 12 3 11 0 18 -4 32 -17 6
-6 12 -12 15 -14 2 -1 4 -3 4 -3 0 -1 2 -2 4 -2 5 -2 6 -4 4 -9 l-2 -3 3 3 c1
1 4 7 6 11 4 11 7 16 12 21 3 2 4 3 3 2 -7 -3 -13 -12 -17 -25 -1 -3 -2 -5 -3
-5 0 1 5 22 6 25 3 6 13 12 21 14 l3 1 -4 0 c-1 0 -5 -1 -7 -2 l-5 -3 2 4 c4
8 11 11 19 9 4 -1 5 -1 1 1 l-2 1 2 2 c3 2 4 2 9 1 2 -1 4 0 7 2 5 2 6 3 8 0z
m31 -3 c1 -3 1 -9 0 -9 -1 0 -1 0 -1 1 0 2 -6 7 -8 7 -2 0 -2 0 0 2 3 3 8 3 9
-1z m29 -33 c5 -4 8 -7 8 -8 0 0 -1 -2 -2 -3 l-2 -2 -4 3 c-3 3 -3 4 -4 9 -1
2 -3 4 -5 6 -3 2 -6 5 -7 6 -2 3 -2 3 3 -1 3 -2 9 -7 13 -10z m56 10 c5 -1 8
-6 6 -11 -5 -14 -17 -27 -20 -20 0 2 1 3 4 6 5 4 9 10 10 14 1 1 0 1 -1 -2 -3
-6 -13 -16 -16 -15 -1 0 -2 1 -2 3 -1 1 -2 2 -3 3 -2 0 -2 0 0 4 2 1 3 4 3 4
0 2 12 15 14 15 1 0 3 0 5 -1z m-43 -8 c-1 -2 -3 -3 -5 -4 -2 -1 -2 -1 -5 1
l-2 2 3 2 c2 0 5 1 7 1 l4 0 -2 -2z m12 0 c2 -1 2 -1 -2 -6 -2 -3 -4 -6 -4 -7
0 0 0 -1 0 -1 -1 0 -10 7 -11 8 0 0 2 2 5 4 5 3 9 4 12 2z m8 -1 c2 -2 2 -7
-1 -10 -1 -2 -2 -3 -2 -2 0 0 1 1 2 2 0 1 1 2 1 2 0 1 -1 1 -2 0 -1 -1 -1 -1
1 2 3 4 3 5 0 2 -7 -9 -8 -9 -10 -8 -1 1 0 2 4 8 2 3 5 6 5 6 0 0 1 -1 2 -2z
m-157 -1 c2 -1 5 -2 5 -2 1 0 0 -3 0 -6 -1 -4 -2 -5 -3 -5 -3 1 -8 3 -13 8 -6
4 -6 4 -4 5 2 1 10 1 15 0z m-36 -11 c0 0 -1 -1 -3 -1 -1 -1 -3 -1 -4 -1 -2
-1 -1 0 1 2 3 2 4 3 5 2 0 -1 1 -2 1 -2z m175 -1 c2 -2 2 -2 -2 -7 -2 -3 -4
-5 -5 -6 -2 0 -7 4 -7 5 0 1 2 4 5 7 4 5 5 5 9 1z m-13 0 c1 -2 1 -2 -1 -4 -3
-4 -5 -2 -4 3 0 3 0 4 2 3 1 0 2 -2 3 -2z m25 -3 c0 -1 -2 -3 -3 -4 -1 0 -4
-3 -7 -6 -4 -5 -5 -7 -5 -9 1 -3 -2 -8 -3 -6 -1 1 -2 1 -3 -1 -3 -2 -2 -4 0
-1 l2 2 -2 -3 c-1 -2 -2 -2 -2 -2 0 1 -1 1 -1 0 -1 0 -4 2 -4 4 0 1 1 1 2 -1
1 -1 2 -2 2 -1 0 1 6 9 15 20 3 4 7 9 8 11 3 4 4 2 1 -3z m-5 2 c1 -1 -1 -4
-4 -7 -4 -5 -6 -7 -6 -6 -1 2 -1 2 4 9 5 5 5 6 6 4z m13 -4 c0 -2 1 -3 3 -3 1
0 2 -1 3 -2 1 -2 2 -3 4 -3 1 -1 3 -2 4 -4 0 -1 2 -2 3 -2 1 0 3 -3 3 -7 0 -3
-7 -19 -10 -23 l-3 -3 -5 3 c-6 4 -10 5 -16 3 l-3 -2 -4 6 c-3 6 -4 10 -1 14
2 5 2 4 4 3 1 -1 1 -1 -1 -3 -1 -2 -1 -2 1 -1 1 1 3 3 3 5 2 5 7 18 9 20 2 3
5 2 6 -1z m-37 -8 l-2 -3 -1 4 c0 2 0 4 0 5 1 1 1 1 3 -1 l2 -2 -2 -3z m27 5
c0 0 -2 -3 -4 -5 -2 -3 -4 -6 -5 -7 0 -1 -1 -1 -2 -1 -1 0 1 3 4 7 6 7 7 8 7
6z m-22 -5 c2 -2 2 -2 -1 -7 -2 -2 -4 -5 -4 -7 0 -1 -1 0 -2 3 -1 6 -1 6 2 10
3 4 3 4 5 1z m8 -2 c1 -2 -8 -13 -9 -13 0 0 -1 1 -2 1 -1 1 0 3 4 7 4 6 6 7 7
5z m9 -4 c-1 -5 -2 -6 -4 -4 0 1 5 10 6 9 0 0 -1 -3 -2 -5z m-47 1 c-1 -1 -1
-1 -1 1 0 2 0 2 1 1 1 -1 1 -1 0 -2z m23 -10 c3 -13 8 -27 10 -30 l2 -3 -2 -3
c-2 -2 -3 -5 -3 -6 0 -2 0 -2 -2 -1 -1 1 -4 2 -5 2 -4 0 -10 7 -13 16 l-3 7 2
9 c0 5 2 10 2 11 2 1 2 0 3 -5 2 -7 5 -18 9 -24 3 -7 4 -5 0 2 -3 6 -7 19 -8
25 -1 3 -1 5 2 8 2 3 3 4 3 3 0 -1 1 -6 3 -11z m-15 0 c0 -4 -1 -8 -2 -9 0 -1
0 -2 0 -3 0 -1 0 -2 -1 -4 l0 -2 -1 2 c-1 2 -1 1 -1 -2 1 -3 0 -6 -1 -8 -2 -5
-3 -5 -2 -1 0 2 0 3 -1 3 0 0 -1 -2 -1 -4 1 -4 0 -6 -4 -10 -6 -10 -8 -11 -14
-11 -8 1 -15 5 -20 11 -3 3 -3 4 -2 5 1 1 1 1 0 1 -1 -1 -3 0 -4 2 -2 3 -3 4
0 3 2 -1 7 -5 6 -6 0 0 1 -1 2 -1 0 -1 1 -1 1 0 0 1 -7 8 -10 9 -3 1 -7 7 -5
7 1 0 2 1 2 2 0 2 3 1 3 -1 1 -1 1 0 1 1 0 4 1 4 3 0 2 -5 8 -3 7 2 -1 1 0 2
1 2 4 0 2 -7 -3 -9 -2 -1 -3 -1 -5 0 -3 2 -3 2 -2 0 1 -1 1 -1 -1 -1 -2 1 -2
1 -1 0 3 -2 11 -3 13 -1 1 1 1 1 -1 1 -3 -1 -3 -1 -1 0 2 1 4 5 4 8 0 2 0 2 3
0 3 -1 3 -1 2 1 -1 1 -3 2 -5 3 -3 1 -5 2 -5 3 -1 1 0 2 1 2 2 0 3 -2 2 -2 -1
-1 -1 -1 1 -1 1 0 2 0 3 -1 0 -1 1 -1 2 -1 1 0 2 1 1 2 0 2 0 2 3 -1 1 -2 4
-4 6 -5 l3 -2 0 7 c0 3 0 8 1 9 1 2 1 2 0 -3 0 -4 0 -5 2 -4 1 0 1 0 1 -2 -1
-2 -1 -2 0 -1 1 1 1 1 2 -1 1 -1 2 -2 3 -2 2 0 2 0 1 -1 -2 -1 -2 -1 -1 -1 1
0 4 1 6 2 3 1 4 2 4 1 1 -1 1 -1 0 1 0 1 0 2 1 2 1 1 1 2 1 3 0 2 0 2 -1 0 -1
-3 -4 -6 -5 -6 -1 0 0 1 1 3 0 1 1 3 1 5 0 1 -1 0 -1 -2 -1 -3 -2 -5 -3 -5 -2
-1 -5 -1 -6 1 -1 2 -1 2 2 4 2 3 3 3 3 1 0 -2 -2 -4 -3 -3 -1 0 -1 0 0 -1 2
-2 4 1 4 4 0 3 0 3 1 3 1 0 2 1 2 1 0 1 1 1 2 1 1 0 3 0 4 1 1 1 1 1 -1 1 -1
0 -2 0 -2 0 0 1 4 6 5 6 0 0 0 -3 -1 -8z m-8 4 c-1 -1 -2 -1 -3 -1 -1 0 -1 1
1 2 2 2 3 2 3 1 0 -1 0 -2 -1 -2z m-1 -3 c-2 -1 -4 -2 -5 -3 -2 -1 -2 -1 -1 1
1 1 3 3 4 3 4 1 5 1 2 -1z m-37 -2 c2 -1 2 -2 1 -2 -1 0 -2 2 -2 3 -1 3 -1 3
1 -1z m-15 -3 c-1 -2 -2 -1 -2 1 0 2 0 2 1 1 1 -1 2 -2 1 -2z m161 2 c1 -1 1
-1 0 -1 -2 0 -5 -3 -8 -6 l-5 -5 -4 3 c-2 2 -4 4 -4 4 0 0 3 2 6 3 6 3 11 4
15 2z m-71 -10 c1 -1 0 -3 -3 -5 l-4 -3 -2 7 c-2 8 -2 9 -1 7 2 -2 6 -1 7 1 1
1 2 1 2 -2 0 -2 1 -4 1 -5z m72 6 c0 -2 -1 -4 -2 -5 -1 -1 -2 -4 -3 -6 l-2 -3
-3 2 c-1 1 -2 3 -2 3 0 1 9 11 11 11 0 0 1 -1 1 -2z m5 -2 c2 -3 3 -5 3 -5 0
0 -1 -1 -3 -2 -1 0 -4 -2 -6 -4 -2 -2 -4 -3 -5 -3 0 1 2 6 5 10 1 2 2 4 2 5 0
2 0 3 1 3 0 0 1 -2 3 -4z m-161 1 c1 -1 2 -2 3 -2 1 0 0 -1 -3 -3 -2 -1 -4 -2
-4 -2 -1 2 -3 6 -3 7 0 2 6 1 7 0z m139 -7 c7 -7 8 -8 7 -9 -1 -2 -1 -2 -3 1
-2 2 -3 3 -5 3 -2 0 -2 1 -2 3 1 3 0 4 -4 2 -3 -1 -6 -7 -5 -9 1 0 3 1 5 2 l4
2 -1 -3 c0 -4 -2 -8 -3 -8 0 0 -3 2 -5 5 -6 5 -6 7 -1 10 2 2 3 3 3 6 0 1 0 3
1 3 0 0 4 -4 9 -8z m-248 4 c5 -1 9 -2 9 -2 0 -2 -13 -3 -27 -3 -18 0 -33 -2
-46 -8 -4 -1 3 6 9 9 10 5 15 6 32 6 8 -1 18 -1 23 -2z m82 -5 l4 -6 -4 -10
c-3 -5 -7 -12 -8 -15 -7 -10 -9 -15 -12 -23 -2 -7 -2 -9 -2 -19 0 -11 0 -12 3
-19 5 -13 15 -23 32 -33 15 -9 35 -15 56 -17 l12 -2 -7 -3 c-10 -4 -14 -5 -28
-5 -15 1 -25 4 -39 11 -5 2 -8 3 -7 2 6 -5 20 -10 36 -15 l4 -1 -6 -1 c-7 -1
-19 -1 -27 0 -14 4 -31 15 -41 28 -7 9 -7 9 -4 7 2 -1 3 -2 4 -2 0 0 -1 4 -6
24 0 1 3 -2 6 -6 4 -3 9 -8 11 -10 l5 -4 -5 10 c-3 5 -5 11 -6 15 -1 3 -2 7
-2 9 -1 3 -1 3 0 -1 0 -7 3 -16 5 -22 2 -3 3 -5 2 -5 0 0 -4 4 -9 9 -4 5 -8 8
-8 7 0 -1 1 -7 3 -13 1 -6 3 -11 2 -11 -2 0 -6 4 -8 8 -3 8 -4 16 -4 26 1 17
12 43 28 64 9 12 15 23 15 26 0 1 1 3 2 3 0 0 1 -3 3 -6z m155 3 c-1 -1 -2 -2
-2 -2 -1 0 0 1 0 3 2 2 2 2 2 -1z m-118 -3 c0 -3 -4 -4 -5 -1 -1 3 1 4 3 4 1
0 2 -2 2 -3z m125 -2 c0 -1 -2 -3 -4 -4 -3 -1 -4 -1 -2 3 3 5 7 6 6 1z m32 1
c0 -1 -2 -4 -5 -7 l-5 -5 -3 2 -2 2 2 3 c2 2 9 6 12 6 0 0 1 -1 1 -1z m-79 -2
c2 -3 2 -3 0 -4 -1 -1 -3 -4 -4 -6 l-1 -3 -3 4 c-2 5 -2 5 -1 6 1 1 3 2 4 3 3
2 3 2 5 0z m20 -3 c9 -6 21 -21 26 -34 1 -4 3 -12 5 -19 2 -7 5 -17 7 -23 6
-16 7 -24 3 -42 -1 -4 -3 -15 -4 -26 -3 -19 -6 -33 -9 -37 -1 -2 -2 -2 -5 -2
-5 1 -26 8 -33 12 -8 3 -36 19 -43 24 l-6 4 4 3 c2 2 4 4 3 4 0 1 -3 1 -6 1
-3 0 -7 0 -9 1 -4 1 -20 12 -33 24 -5 4 -10 8 -11 9 l-3 2 5 1 c3 1 11 3 17 5
6 2 11 4 11 4 -1 0 -9 -2 -20 -5 -10 -3 -19 -5 -20 -5 -1 0 -2 0 -2 -1 -1 0 1
-1 3 0 5 0 5 0 21 -13 9 -8 11 -11 11 -12 0 -2 0 -2 1 -1 0 1 0 2 1 2 0 0 11
-7 12 -9 1 0 -2 0 -6 1 -6 1 -8 2 -8 3 0 1 0 1 -1 0 -1 -1 -2 -1 -10 2 -17 6
-36 17 -45 27 -3 5 -4 6 -4 10 0 3 0 5 -1 5 -1 0 -1 -1 0 -3 0 -3 0 -3 -1 -3
-1 1 -1 2 -1 3 1 0 1 1 0 1 -1 0 -4 8 -4 10 0 0 1 1 3 1 4 1 5 3 5 6 0 3 -6
15 -7 14 0 -1 0 -4 -1 -7 l-1 -5 0 4 c0 2 1 7 2 10 1 5 1 6 5 6 1 1 3 2 4 2 1
2 2 7 1 12 -1 4 -1 4 5 10 4 3 8 6 9 7 7 1 17 -4 24 -12 4 -5 8 -8 12 -10 5
-2 6 -3 19 -3 7 0 14 0 16 -1 4 -1 11 -1 17 0 2 1 4 1 5 1 2 -3 -9 -16 -24
-29 -5 -4 -9 -7 -9 -7 4 0 27 21 31 28 4 5 4 8 1 9 l-2 1 2 1 c6 3 12 0 14 -8
2 -6 2 -18 1 -25 -2 -9 -2 -10 0 -2 3 9 3 15 2 23 -2 8 -4 12 -9 14 l-3 2 2 1
c3 2 7 2 9 1 0 -1 2 -6 4 -10 7 -16 12 -26 14 -27 1 -1 1 -1 -1 2 -1 2 -5 10
-8 18 -7 17 -9 20 -13 20 -3 0 -3 0 -3 4 -1 4 -1 5 5 13 1 3 3 6 4 8 2 4 9 7
14 7 2 0 4 -1 6 -2z m73 -9 c7 -6 7 -8 9 -18 1 -3 1 -3 0 -2 -1 1 -1 0 0 -5
l0 -6 -9 9 c-9 8 -10 10 -10 12 1 2 2 4 3 5 2 2 3 4 0 5 -1 1 -2 3 -3 4 -1 2
-2 2 -5 2 l-4 -1 3 3 3 3 4 -3 c2 -1 6 -5 9 -8z m-40 8 c1 -4 1 -3 1 -11 0 -7
0 -8 3 -12 2 -3 4 -6 5 -7 l1 -3 -1 3 c0 2 0 2 6 -3 3 -4 6 -7 6 -7 0 -1 -1
-2 -3 -4 -2 -2 -3 -3 -6 -3 -2 0 -3 0 -2 -1 1 0 0 -2 -3 -4 -3 -2 -5 -4 -5 -4
-1 0 -2 3 -4 10 0 3 0 3 1 2 1 0 1 0 0 1 0 1 -2 5 -3 8 -3 6 -3 9 -3 17 0 6 0
10 2 12 0 2 1 4 1 6 0 3 3 3 4 0z m-87 -2 c0 -2 5 -11 8 -14 2 -3 2 -4 -1 -3
-1 0 -4 3 -7 5 l-5 5 2 4 c1 4 3 6 3 3z m-69 -10 c1 -2 2 -3 2 -3 0 0 -4 -1
-8 -1 l-8 0 3 6 c1 2 3 6 3 7 1 2 1 2 3 -2 2 -2 4 -5 5 -7z m142 6 c5 -5 5 -6
5 -11 l0 -6 -3 4 c-2 5 -9 13 -10 14 -2 1 0 4 1 4 1 0 4 -2 7 -5z m27 0 c5 -4
5 -5 4 -5 -6 -2 -7 -3 -8 -6 -1 -4 0 -5 5 -3 2 1 3 2 4 5 l1 4 3 -4 4 -4 -3 0
c-4 0 -6 -2 -7 -6 0 -3 0 -3 2 -3 1 1 3 1 4 1 1 0 3 5 3 6 -1 0 -1 -1 -1 -2
-1 -2 -6 -5 -7 -4 0 1 0 2 1 4 1 2 2 3 5 3 4 1 4 0 11 -6 l6 -7 -3 0 c-3 -1
-4 -2 -5 -5 -2 -3 -2 -4 0 -4 3 -1 6 1 7 4 1 2 1 4 2 4 0 0 2 -2 3 -4 l3 -3
-2 0 c-4 0 -6 -1 -6 -2 0 -1 0 -1 1 0 1 0 2 1 3 1 2 0 2 0 0 -3 -2 -1 -4 -2
-4 -1 -1 1 -1 1 -1 0 -2 -5 -1 -5 4 -1 3 3 5 5 6 5 3 0 2 -3 -4 -7 l-5 -5 -18
17 c-18 19 -21 22 -15 24 2 0 5 5 5 7 0 2 -5 1 -6 -1 l-2 -2 0 2 c0 2 3 6 4 6
0 0 3 -2 6 -5z m17 -1 c5 -5 2 -9 -3 -4 -2 2 -3 2 -4 0 -1 -1 -1 -1 -3 0 -3 3
-3 4 1 6 5 2 5 2 9 -2z m-21 -2 c-1 -2 -5 -5 -6 -4 -1 1 3 7 5 7 2 0 2 0 1 -3z
m-265 -2 c-2 0 -3 -2 -2 -2 0 -1 0 -1 -1 -1 0 1 -2 1 -2 0 -1 0 -1 -1 1 -1 2
0 2 -1 -6 -8 -8 -6 -10 -9 -6 -7 1 1 5 1 9 1 6 0 6 0 4 -2 -2 0 -3 -1 -1 -1 8
2 11 3 12 3 0 -1 -2 -2 -5 -4 -7 -4 -19 -13 -19 -14 0 -1 1 -1 3 -1 2 1 7 1
11 2 6 0 6 0 4 -2 -1 -1 -5 -3 -7 -5 -3 -2 -11 -7 -20 -11 -15 -7 -27 -14 -37
-23 -8 -7 -12 -12 -15 -19 -5 -12 -7 -15 -11 -11 -3 2 -3 4 0 3 2 0 2 1 2 16
-1 18 0 23 7 36 9 18 24 31 45 42 14 6 43 14 34 9z m169 -6 c3 -2 5 -4 5 -4 0
0 -1 -1 -2 -2 -2 -1 -4 0 -8 2 l-6 3 2 3 c1 2 3 3 3 3 1 0 3 -2 6 -5z m114 4
c3 -1 3 -2 2 -4 -1 -1 -1 -1 -3 1 -2 1 -3 3 -2 3 0 1 0 1 3 0z m-10 -1 c0 -2
-2 -5 -5 -5 -2 -1 -2 -1 -1 2 0 1 1 3 1 3 2 1 5 1 5 0z m-186 -4 c0 -1 -1 -2
-2 -3 -2 -1 -2 -1 -1 1 1 2 3 3 3 2z m72 -6 c1 -2 1 -4 0 -4 -1 -1 -1 -1 -1 0
-1 1 -1 3 -2 4 -1 3 -1 4 1 4 1 0 1 -2 2 -4z m5 1 l3 -2 -3 -1 -3 -2 -1 4 c-1
3 -1 4 4 1z m-9 -2 c2 -4 0 -6 -6 -6 -4 0 -4 1 1 4 1 1 3 2 3 3 0 2 2 1 2 -1z
m-15 -4 c2 -2 -2 -1 -4 1 -1 1 -1 1 1 0 1 0 3 -1 3 -1z m5 -1 c0 -1 -1 -1 -1
-1 -1 0 -2 0 -2 1 0 1 1 1 2 1 0 0 1 0 1 -1z m-67 -8 c0 -6 0 -6 -3 -7 -2 -1
-4 -1 -4 -1 0 1 5 13 6 13 1 0 1 -2 1 -5z m-45 -2 c-14 -13 -24 -29 -26 -44 0
-3 -2 -9 -4 -14 -5 -12 -6 -23 -6 -34 1 -16 7 -26 18 -30 l5 -2 -4 -2 c-14 -6
-30 3 -39 22 -6 12 -7 20 -7 37 1 19 5 30 17 44 6 7 13 12 21 16 4 3 28 13 30
13 1 0 -2 -3 -5 -6z m261 4 c-1 -4 -2 -5 -4 -5 -3 0 -3 2 0 5 3 3 5 3 4 0z
m19 -15 c0 -1 -10 -10 -11 -10 -1 0 1 3 5 6 5 5 5 5 0 1 -2 -2 -5 -5 -6 -6 -1
-1 -2 -1 -4 1 l-2 2 3 3 c1 2 4 5 6 6 l4 3 3 -2 c1 -1 2 -3 2 -4z m-240 -11
c4 -6 3 -10 -3 -12 -3 0 -3 0 -3 2 0 1 0 3 1 4 0 1 1 3 1 5 1 2 1 4 1 4 1 0 2
-2 3 -3z m-68 -44 c-1 -7 -1 -22 1 -25 0 -1 -1 -2 -3 -3 l-4 -1 0 6 c0 4 0 9
1 12 1 7 5 20 6 20 0 -1 0 -4 -1 -9z m10 -24 c4 -9 7 -20 6 -29 0 -3 -3 -3 -3
1 -1 1 -3 6 -5 10 -5 14 -8 27 -7 38 l1 5 2 -8 c2 -5 4 -12 6 -17z m34 12 c2
-1 0 -3 -3 -3 -3 0 -3 1 -4 9 l0 7 3 -6 c2 -3 4 -6 4 -7z m4 -6 c2 -1 2 -3 1
-9 l-2 -8 -3 7 c-5 8 -5 11 -2 11 4 1 5 1 6 -1z m6 -14 l0 -8 8 -5 c9 -6 17
-9 26 -10 4 -1 8 -2 8 -3 1 -2 10 -1 11 1 0 2 3 1 5 -1 2 -2 3 -2 5 -2 2 1 2
1 2 -7 0 -10 -5 -39 -14 -75 -5 -21 -8 -41 -11 -62 -2 -20 -6 -37 -10 -43 -2
-5 -4 -6 -16 -13 -10 -5 -21 -12 -26 -16 -2 -2 0 -1 4 1 7 5 20 13 21 13 0 0
-2 -5 -3 -10 -2 -4 -5 -14 -7 -20 -2 -7 -4 -13 -5 -14 -1 -2 -10 -2 -27 0 -7
1 -15 2 -17 2 -6 0 -14 -3 -20 -7 -3 -2 -5 -3 -5 -2 0 0 3 4 7 10 14 19 46 69
51 79 3 5 -2 -2 -8 -12 -4 -6 -18 -27 -31 -47 l-23 -35 -6 0 c-12 1 -27 8 -39
18 -11 8 -23 22 -36 41 -4 5 -9 12 -12 16 -3 3 -6 6 -6 6 0 1 4 3 9 6 5 3 20
13 33 21 34 23 36 24 50 31 26 12 32 15 37 20 3 2 5 6 6 7 l2 2 5 -4 c6 -5 10
-7 11 -6 0 1 -1 2 -2 3 l-2 3 1 -3 c1 -1 2 -2 2 -2 -1 0 -8 5 -12 8 l-2 2 3 7
c2 3 3 6 3 7 0 0 -2 -3 -4 -7 l-3 -6 -5 4 c-7 7 -26 30 -27 33 0 3 2 5 5 5 2
0 3 0 2 -2 0 -4 3 -10 11 -18 l7 -7 -7 8 c-4 4 -8 10 -9 12 -1 3 -1 3 1 6 1 1
4 6 6 9 5 9 8 11 16 12 3 1 9 2 11 3 4 1 15 7 15 8 0 1 -3 -1 -7 -3 -4 -2 -9
-4 -10 -5 l-2 0 2 3 c3 4 12 23 12 25 0 1 1 1 2 0 7 -2 11 -4 16 -5 6 -1 6 -1
5 -3 -1 -1 -4 -7 -7 -13 -3 -6 -8 -18 -12 -26 -4 -8 -7 -14 -7 -14 1 0 8 13
12 21 2 4 6 12 9 19 3 7 6 13 6 14 1 0 3 1 6 2 3 1 6 1 7 2 2 1 3 4 1 4 -3 0
-13 4 -17 6 -2 2 -5 5 -6 7 -3 3 -4 7 -2 16 0 4 0 4 2 2 2 -1 2 -2 1 -9z m207
4 c2 -8 3 -12 0 -14 -1 -2 -2 -2 -4 -1 -1 0 -1 3 0 11 1 5 1 10 2 10 0 0 1 -3
2 -6z m-189 -9 c4 -2 8 -4 11 -5 3 -1 4 -2 5 -4 1 -3 4 -4 6 -1 2 3 4 1 3 -3
-1 -2 -1 -2 -5 -2 -12 2 -21 6 -31 12 -2 1 -4 2 -4 2 0 -1 3 -3 7 -5 7 -4 19
-8 28 -10 3 0 4 -1 2 -1 -6 -1 -25 6 -34 12 -4 3 -5 3 -4 7 1 9 0 8 6 5 2 -2
7 -6 10 -7z m-68 2 c1 -3 2 -6 2 -7 1 -1 0 -2 -2 -3 -2 0 -4 -1 -4 -1 -1 0 -5
11 -5 13 0 3 1 4 5 4 1 0 2 -2 4 -6z m14 -2 c2 -3 2 -3 1 -3 -1 0 -2 1 -2 3
-1 1 -1 2 0 2 0 0 1 -1 1 -2z m148 -6 c5 -3 9 -6 10 -6 2 -1 2 -2 1 -6 -2 -4
-1 -6 2 -5 3 2 4 0 4 -5 0 -6 0 -6 21 -21 13 -10 36 -22 51 -27 18 -7 25 -12
35 -27 11 -15 29 -45 33 -53 7 -14 13 -34 13 -36 -1 -1 -4 -7 -9 -12 -4 -6 -8
-12 -9 -14 l-2 -3 -4 10 c-2 5 -7 15 -10 22 -6 13 -22 42 -23 42 0 0 6 -11 13
-25 15 -30 21 -43 28 -66 l5 -17 -4 -9 c-5 -9 -5 -10 -9 -11 -2 -1 -12 -5 -21
-9 -38 -18 -55 -23 -68 -22 -9 1 -29 6 -47 11 -15 4 -17 5 -17 8 0 6 -11 19
-30 33 -8 5 -18 14 -23 19 l-9 9 0 7 c1 4 3 17 5 28 6 32 7 38 3 70 0 4 1 9 4
23 6 27 11 55 12 66 l1 10 5 2 c7 1 11 4 13 7 2 5 6 5 9 0 1 -2 2 -3 3 -3 0 1
-1 2 -3 4 -2 3 -2 4 -1 5 0 1 1 2 1 3 0 1 4 4 7 4 0 0 5 -3 10 -6z m-195 3 c0
-1 2 -5 4 -7 4 -5 4 -5 2 -6 -1 0 -9 -3 -18 -6 -8 -3 -16 -5 -17 -5 -3 0 -5 5
-5 10 l1 4 15 6 c9 3 16 6 16 6 0 0 1 -1 2 -2z m176 -2 c-1 -2 -3 -3 -3 -1 0
2 1 3 3 3 1 0 1 0 0 -2z m-15 0 c2 0 3 0 2 -1 0 0 -1 -1 -1 -2 0 -1 1 -2 1 -2
3 -1 -10 -7 -15 -7 -3 0 -2 2 1 4 4 1 4 4 0 4 -3 0 -3 0 2 2 2 2 5 3 6 2 1 0
3 0 4 0z m7 -2 c0 -5 -1 -7 -5 -9 -5 -2 -18 -5 -20 -5 -2 1 -3 9 -1 12 2 1 2
1 2 -4 l0 -5 6 0 c7 1 14 4 15 7 1 0 1 2 1 4 0 2 0 3 1 3 1 0 1 -1 1 -3z m4 2
c0 -2 -2 -4 -3 -3 0 1 1 4 2 4 1 0 1 -1 1 -1z m-7 -2 c0 -1 0 -1 -1 -1 -1 -1
-1 -1 -1 0 0 1 0 1 1 1 1 0 1 0 1 0z m-43 -2 c0 -2 -2 -2 -3 0 -1 1 -1 1 1 1
1 0 2 0 2 -1z m-83 -4 c0 -2 1 -3 1 -4 -1 -1 -9 4 -9 6 0 1 2 2 5 2 1 0 2 -2
3 -4z m96 2 c0 -1 0 -3 -1 -5 0 -4 -1 -4 -4 -4 l-3 0 0 6 0 5 4 0 c3 0 4 0 4
-2z m5 0 c0 -2 -1 -3 -1 -3 -1 0 -1 0 0 -1 2 0 1 -2 -1 -2 -1 0 -2 1 -2 3 1 1
1 3 1 4 0 2 3 1 3 -1z m11 0 c-1 -1 -2 -1 -4 -1 -1 0 -2 0 -1 1 0 1 1 1 3 1 1
0 2 0 2 -1z m-186 -6 c0 -3 0 -6 2 -8 2 -3 2 -4 0 -4 -3 -2 -7 3 -7 9 0 3 1 4
2 5 1 1 3 2 3 2 0 0 0 -2 0 -4z m52 -47 c3 -1 7 -1 7 -2 2 -1 -2 -2 -6 -2 -3
0 -5 -2 -6 -8 -1 -2 -1 -2 -5 -2 -5 0 -5 0 -8 -4 -1 -3 -3 -7 -4 -9 -2 -3 -3
-4 -6 -5 -6 -2 -18 -1 -35 1 -18 2 -23 2 -7 0 20 -4 32 -5 39 -3 6 1 8 3 12
11 l3 5 1 -3 c2 -5 7 -12 12 -17 9 -8 9 -7 1 1 -8 9 -14 19 -13 21 1 1 3 1 4
1 3 0 4 0 4 -3 0 -4 4 -14 8 -18 3 -3 3 -3 1 0 -6 9 -9 16 -7 22 l1 3 3 -4 c4
-6 16 -20 23 -27 l5 -6 -1 -3 c-4 -5 -10 -10 -21 -15 -6 -3 -18 -9 -25 -12 -7
-4 -19 -11 -25 -15 -16 -11 -51 -34 -56 -37 l-4 -2 1 3 c0 5 -1 16 -6 38 -7
31 -9 50 -6 63 l2 5 8 2 c4 1 15 4 24 7 16 5 34 10 47 12 6 1 22 3 26 2 1 0 5
0 9 0z m319 -219 c1 -2 2 -4 2 -5 0 -2 -5 -4 -8 -4 -6 0 -6 7 0 10 2 1 4 2 4
2 0 0 1 -1 2 -3z m-12 -3 c0 -1 0 -1 0 -1 -1 0 -1 0 -1 1 -1 1 -1 1 0 1 1 0 1
0 1 -1z m-2 -3 c3 -4 -5 -7 -10 -4 -2 1 -2 1 2 4 5 2 7 2 8 0z m14 -5 c-2 -2
-5 -3 -8 -4 -8 -1 -23 1 -23 4 0 1 3 1 5 -1 3 -1 10 -1 12 0 2 1 4 2 7 1 2 0
5 0 6 1 3 2 4 1 1 -1z M326 617 c-1 -2 -1 -2 1 -1 1 1 1 2 1 3 -1 0 -1 -1 -2 -2z M314 613 c-2 -2 -1 -17 3 -28 1 -4 2 -8 3 -8 0 0 -1 3 -2 7 -2 8 -4
21 -4 26 1 3 1 3 5 3 4 -1 4 -1 3 1 -3 1 -5 1 -8 -1z M333 611 c0 -1 2 -2 6 -4 6 -3 7 -3 0 1 -4 3 -6 4 -6 3z M300 605 c-2 -2 -6 -6 -8 -9 -2 -4 -5 -8 -6 -9 -2 -1 -4 -4 -5 -5 -1
-4 -4 -13 -4 -15 0 -1 1 2 2 5 2 6 6 15 9 16 0 1 0 -1 0 -3 -1 -3 -2 -6 -2 -8
-1 -5 1 -2 2 4 2 7 7 16 12 22 2 3 4 5 4 5 0 0 -2 -1 -4 -3z M307 599 c-1 -4 -1 -14 0 -17 0 -1 1 3 1 9 0 6 0 11 -1 11 0 0 0 -1
0 -3z M342 597 c1 -1 3 -4 5 -7 2 -4 4 -6 4 -5 0 1 -8 13 -9 14 -1 0 -1 0
0 -2z M208 595 c1 0 1 0 2 0 0 1 -1 1 -2 1 -1 0 -1 0 0 -1z M211 595 c1 -1 7 -4 7 -4 0 1 -6 4 -7 4 0 0 0 0 0 0z M298 590 c0 -1 0 -1 1 0 0 1 0 1 0 2 -1 0 -1 -1 -1 -2z M345 578 c0 -1 1 -3 1 -4 1 -2 1 -2 1 0 0 1 -1 2 -1 4 -1 1 -1 1 -1
0z M246 575 c0 0 2 -3 4 -5 2 -3 4 -5 3 -5 -2 0 -11 3 -11 4 0 1 0 1 -1
1 -1 0 -1 -1 0 -2 1 -1 1 -2 2 -2 0 0 3 0 5 -1 3 -1 5 -1 6 -1 0 1 1 0 2 0 1
-1 1 -1 1 0 0 0 0 1 -1 1 0 0 -2 2 -5 5 -3 4 -3 4 -1 4 5 -2 6 -2 6 -2 -1 1
-10 4 -10 3z M243 566 c0 -2 6 -9 7 -9 0 1 -1 2 -2 3 -1 1 -3 3 -3 5 -1 1 -2 1 -2
1z M266 549 c-6 -6 -14 -8 -25 -8 -11 0 -10 -2 1 -2 9 0 18 3 24 8 2 3
4 5 4 5 0 0 -2 -1 -4 -3z M172 549 c3 0 7 0 10 0 2 0 0 1 -5 1 -6 0 -8 -1 -5 -1z M163 548 c1 0 1 0 2 0 0 1 -1 1 -2 1 -1 0 -1 0 0 -1z M188 548 c1 0 3 0 3 0 1 1 0 1 -1 1 -2 0 -3 0 -2 -1z M208 543 c2 0 4 0 5 0 1 1 0 1 -2 1 -3 0 -4 0 -3 -1z M198 542 c-1 -1 0 -1 2 -2 2 0 4 -1 4 -1 0 1 -1 1 -2 2 -2 0 -2 0 1
1 l3 1 -3 0 c-2 0 -4 0 -5 -1z M141 536 c-4 -4 -10 -11 -10 -13 0 -1 1 0 2 2 1 3 5 7 8 10 6 6 6 7
0 1z M259 525 c-5 -6 -13 -12 -22 -17 -9 -5 -8 -5 0 -1 11 6 23 15 26 21
2 3 1 3 -4 -3z M179 526 c0 -1 1 -1 11 -3 3 -1 6 -1 7 -1 0 1 -11 3 -15 3 -1 0 0 1
2 1 2 1 2 1 -1 1 -2 0 -4 0 -4 -1z M212 444 c0 -3 0 -4 1 -3 0 2 0 4 0 6 -1 1 -1 0 -1 -3z M221 416 c0 -1 0 -1 1 0 0 1 0 1 0 2 -1 0 -1 -1 -1 -2z M432 583 c0 -1 0 -3 -1 -4 0 -1 0 -1 1 0 1 1 1 3 1 4 -1 1 -1 1 -1 0z M428 573 c-3 -3 -3 -3 -1 -2 2 2 5 6 4 6 0 0 -2 -2 -3 -4z M346 523 c0 0 0 -1 1 -1 1 -1 1 -1 1 0 0 0 0 1 -1 2 -1 0 -1 0 -1 -1z M357 522 c-3 -3 -3 -4 -2 -3 1 0 2 1 2 1 0 1 1 2 2 3 2 0 2 1 1 1 -1
0 -2 -1 -3 -2z M343 508 c-4 -2 -3 -2 2 0 2 0 3 1 2 1 -1 0 -3 -1 -4 -1z M312 535 c1 0 1 0 2 0 0 1 -1 1 -2 1 -1 0 -1 0 0 -1z M264 498 c-5 -11 -9 -26 -10 -38 -1 -8 0 -4 2 9 2 10 6 23 9 29 1 2
2 4 2 5 -1 0 -2 -2 -3 -5z M294 498 c-4 -3 -12 -14 -11 -16 1 0 2 2 3 5 1 2 5 6 7 9 6 5 6 5 1
2z M409 496 c4 -2 9 -6 13 -9 3 -3 5 -5 4 -3 -2 3 -10 10 -15 12 -8 3
-10 3 -2 0z M403 492 c2 -3 5 -7 8 -9 2 -3 5 -8 7 -11 2 -3 3 -5 3 -4 0 3 -6 11
-13 20 -8 9 -10 11 -5 4z M342 474 c-5 -3 -14 -5 -25 -5 -9 0 -10 0 -5 -1 12 -1 28 2 33 7 2 3
1 2 -3 -1z M279 467 c0 -3 1 -14 2 -18 1 -3 1 -2 0 3 0 3 0 8 0 12 0 3 -1 6 -1
6 0 0 0 -1 -1 -3z M425 454 c-1 -9 -1 -12 -4 -19 -2 -5 -4 -9 -3 -9 0 0 1 2 2 5 4 7 6
16 6 25 l0 8 -1 -10z M386 423 c-3 -7 -13 -18 -15 -18 -3 0 -2 3 0 11 4 8 3 9 0 1 -3 -7
-4 -12 -2 -14 1 0 8 5 12 9 3 4 9 16 9 17 0 0 -2 -3 -4 -6z M499 502 c2 -3 3 -4 3 -4 0 1 -4 9 -4 9 -1 0 0 -2 1 -5z M481 496 c-2 -1 -5 -7 -4 -8 1 0 2 0 4 1 3 0 4 1 5 3 1 2 1 4 1 4 0
1 -3 1 -6 0z m3 -5 c0 0 -2 -1 -3 -2 l-3 0 1 3 c2 3 5 4 6 2 0 -1 0 -3 -1 -3z M167 480 c-15 -8 -27 -17 -34 -26 -2 -3 0 -1 4 3 8 8 17 15 31 22 9
5 11 6 10 6 -1 0 -5 -2 -11 -5z M288 329 c-16 -62 -25 -97 -31 -109 -3 -6 -5 -12 -5 -12 1 0 3 5 6
11 5 11 10 26 23 75 8 33 12 50 12 51 0 1 -2 -6 -5 -16z M369 366 c-3 -1 -5 -3 -6 -4 -1 -1 -3 -2 -4 -2 0 0 -1 0 -1 -1 1 0
-3 -7 -9 -14 l-9 -13 -2 11 c-1 11 -2 16 -4 16 0 0 0 -1 1 -3 0 -1 1 -7 2 -13
0 -5 1 -10 2 -11 0 -1 -2 -5 -5 -9 -5 -8 -7 -12 -7 -12 1 0 4 4 7 10 3 5 7 9
8 9 2 0 3 -3 3 -8 0 -3 -1 -5 -3 -8 -3 -4 -10 -15 -10 -16 0 0 2 3 5 7 7 10
12 16 24 29 l11 10 0 -5 c0 -4 1 -5 10 -13 6 -5 10 -7 9 -6 -1 1 -4 4 -8 7
-10 9 -10 10 -10 14 0 3 1 5 5 8 2 2 4 5 4 5 -1 0 -3 -1 -5 -3 -3 -4 -4 -4 -7
-4 -5 1 -5 1 -5 10 l-1 6 5 2 c6 3 6 4 0 1z m-5 -8 c-1 -1 -1 -4 0 -7 0 -3 0
-4 4 -4 l3 -1 -12 -12 c-11 -13 -13 -14 -13 -8 0 1 -1 3 -2 4 l-2 2 3 4 c5 9
18 25 19 25 0 0 0 -1 0 -3z M354 307 c3 -6 40 -59 47 -69 10 -12 12 -17 14 -24 2 -7 9 -41 16
-79 3 -16 6 -29 6 -29 1 2 -11 69 -18 99 -3 14 -5 20 -17 34 -5 6 -14 20 -21
31 -25 36 -30 43 -27 37z M430 306 c1 -1 8 -6 17 -11 20 -12 22 -13 28 -23 6 -9 8 -11 5 -5 -6
9 -11 16 -16 19 -12 8 -36 22 -34 20z M426 286 c6 -7 16 -18 23 -25 12 -13 13 -14 17 -27 7 -17 10 -25 21
-48 6 -12 13 -29 16 -36 5 -13 7 -19 6 -13 -4 12 -12 31 -20 49 -6 12 -13 28
-16 36 -12 29 -9 25 -32 49 -11 12 -21 23 -23 24 -1 1 3 -3 8 -9z M314 264 c0 -1 7 -15 14 -27 3 -5 8 -14 11 -18 5 -10 10 -19 10 -18
0 1 -2 4 -4 8 -2 3 -6 11 -8 16 -7 13 -21 37 -22 38 -1 1 -1 1 -1 1z M489 247 c0 -2 8 -29 9 -29 0 1 -6 24 -8 28 0 1 -1 2 -1 1z M354 182 c0 0 1 -7 2 -14 2 -9 3 -21 4 -35 1 -12 1 -22 2 -22 1 -1
-1 37 -3 47 -1 10 -5 27 -5 24z M510 132 c0 -1 1 -3 1 -4 1 -1 1 -1 0 1 0 1 -1 3 -1 4 -1 1 -1 1 0
-1z M105 287 c1 0 3 0 3 0 1 1 0 1 -1 1 -2 0 -3 0 -2 -1z" fill="black"/>
<path d="M0 400 l0 -400 300 0 300 0 0 400 0 400 -300 0 -300 0 0 -400z m93
375 c29 -10 105 -52 151 -83 50 -34 67 -46 99 -70 3 -2 3 -2 6 -1 2 1 4 2 6 2
3 0 3 -1 5 -3 0 -2 1 -6 1 -8 0 -4 0 -4 9 -11 5 -4 11 -9 13 -10 l4 -3 5 2 c5
2 7 2 9 1 2 -1 5 -1 6 -1 2 0 4 0 5 -1 2 -1 3 -1 3 0 2 2 4 1 7 -1 l2 -2 5 5
c6 7 9 8 15 6 5 -1 8 -6 8 -11 -1 -6 -7 -16 -12 -21 -4 -4 -4 -4 -3 -7 1 -1 2
-2 3 -3 3 0 4 -5 4 -10 -1 -5 0 -6 8 -2 7 3 13 4 17 1 3 -1 8 -7 14 -16 1 -1
3 -4 5 -5 14 -9 19 -20 17 -34 l-1 -6 5 -4 c2 -3 4 -5 4 -7 0 -2 -10 -12 -13
-13 -2 0 -3 1 -7 5 -2 3 -7 8 -10 11 l-6 6 -2 -3 c-2 -1 -4 -3 -5 -4 -1 0 -5
-2 -8 -5 -7 -5 -7 -5 -1 -18 6 -17 7 -25 3 -44 l-1 -8 2 -8 c2 -5 3 -10 3 -12
0 -5 -3 -8 -6 -7 -3 0 -3 0 -4 -8 -1 -8 -6 -21 -8 -23 -2 -3 -6 -2 -20 2 -13
4 -27 11 -40 18 l-7 4 -1 -2 c-1 -2 0 -3 2 -3 3 -1 4 -2 4 -7 1 -6 0 -6 18
-19 13 -10 37 -23 50 -27 10 -3 22 -9 27 -13 2 -2 7 -8 11 -14 10 -14 30 -46
34 -55 5 -12 13 -33 13 -36 0 -3 -1 -4 -12 -19 -5 -7 -8 -12 -8 -13 0 -1 2 -9
5 -16 2 -7 4 -14 4 -15 0 -1 -2 -6 -5 -11 -3 -7 -5 -10 -6 -11 -1 0 -4 -1 -6
-2 l-3 -1 2 -3 c4 -7 2 -15 -6 -17 -5 -2 -22 -1 -27 2 l-4 2 -7 -3 c-21 -9
-25 -10 -38 -9 -12 0 -15 0 -31 4 -10 3 -22 6 -28 8 l-10 3 -1 5 c-3 8 -12 18
-29 30 -7 6 -18 15 -23 20 l-10 9 0 7 c0 3 2 16 5 29 5 25 6 41 5 57 -2 14 -2
11 -9 -31 -4 -29 -7 -41 -10 -46 -2 -2 -6 -6 -9 -8 -3 -2 -7 -5 -7 -6 -2 -4
-8 -19 -11 -31 -2 -6 -4 -12 -5 -13 -2 -3 -7 -3 -24 -1 -23 2 -27 2 -35 -2 -4
-2 -9 -5 -12 -7 -4 -3 -5 -3 -11 -3 -25 2 -48 21 -76 60 -4 5 -10 13 -13 16
-3 3 -6 6 -6 7 0 0 1 2 2 3 2 1 2 2 2 12 -1 7 -2 17 -5 28 -6 26 -7 38 -7 54
1 17 1 18 12 20 4 1 15 4 24 7 16 5 35 10 49 13 14 2 34 2 41 0 1 -1 3 1 5 6
5 7 7 8 15 10 7 2 10 5 16 17 6 12 6 14 3 16 -2 0 -5 3 -7 5 -3 2 -6 4 -7 4
-2 0 -2 -1 -2 -6 0 -4 1 -7 1 -7 2 0 0 -2 -4 -5 -10 -6 -19 -5 -29 2 l-6 4 -5
-2 c-3 -1 -13 -4 -22 -7 -16 -6 -17 -6 -20 -5 -3 2 -4 6 -4 11 0 3 1 5 2 6 1
2 28 12 34 14 3 0 3 1 3 2 -1 2 -2 6 -3 11 -3 11 -3 29 0 40 2 9 6 16 10 22 2
3 3 5 3 5 -1 0 -7 -3 -14 -6 -22 -11 -40 -26 -43 -36 -6 -17 -12 -21 -17 -12
-3 5 -3 7 0 6 l3 0 -1 13 c0 11 0 14 2 21 1 5 4 12 6 16 4 9 15 22 21 27 3 3
6 5 5 5 0 0 -4 -2 -9 -4 -8 -4 -9 -5 -22 -18 l-14 -14 -1 -6 c0 -7 -2 -7 -4 0
-3 7 -3 22 0 29 4 11 14 23 27 31 5 3 5 3 5 9 2 12 14 28 26 34 16 8 31 8 63
3 l12 -2 5 3 c3 1 6 2 6 3 1 1 -9 9 -11 9 -1 0 -4 -1 -7 -2 -2 -2 -5 -3 -5 -3
-1 1 1 5 5 9 l4 4 -6 5 c-12 10 -18 12 -25 8 -3 -2 -4 -3 -5 -2 -2 2 -1 8 2
12 4 6 17 9 27 6 6 -2 17 -10 23 -16 l4 -5 7 1 c7 0 12 -1 17 -3 1 0 2 2 3 4
1 3 4 7 6 9 2 3 5 7 6 10 2 4 4 6 7 7 3 1 6 2 7 2 1 0 4 1 5 3 3 2 4 2 8 2 3
-1 5 -1 5 -1 -1 1 -20 15 -35 25 -61 44 -134 88 -199 120 -8 4 -15 8 -15 8 -1
1 0 2 1 3 4 3 15 3 27 -2z" fill="white"/>
<path d="M68 776 c-2 -1 6 -5 14 -7 13 -2 31 -11 75 -35 41 -24 88 -55 146
-96 11 -7 20 -13 21 -13 1 0 3 -1 4 -1 2 -2 13 -3 11 -2 -2 2 -39 28 -50 36
-7 5 -17 12 -21 15 -47 33 -97 63 -139 84 -29 14 -41 19 -51 20 -5 0 -9 0 -10
-1z" fill="white"/>
<path d="M82 768 c0 -1 8 -5 18 -10 72 -38 127 -72 191 -118 28 -19 26 -19 28
-17 2 1 1 2 -6 7 -23 17 -86 59 -114 77 -36 23 -90 52 -106 58 -7 3 -12 4 -11
3z" fill="white"/>
<path d="M319 621 c-3 -2 -5 -3 -7 -2 -5 1 -6 1 -9 -1 l-2 -2 2 -1 c4 -2 3 -2
-1 -1 -8 2 -15 -1 -19 -8 -2 -4 -1 -4 3 -2 3 1 6 2 8 2 l3 0 -3 -1 c-8 -2 -18
-8 -21 -14 -1 -3 -5 -21 -5 -22 1 -1 1 1 2 4 4 11 10 20 17 23 1 1 0 0 -3 -2
-5 -5 -8 -10 -12 -21 -2 -4 -5 -10 -6 -11 l-3 -3 2 3 c2 5 1 7 -4 9 -2 0 -4 1
-4 2 0 0 -2 2 -4 3 -3 2 -9 8 -15 14 -14 13 -21 17 -32 17 -7 0 -8 -1 -12 -3
-3 -2 -4 -4 -5 -7 -1 -2 -1 -4 -1 -5 1 0 2 1 4 2 2 1 5 2 7 2 9 0 15 -5 36
-28 6 -6 11 -12 12 -12 2 -1 4 -1 8 1 7 2 9 2 4 0 -6 -3 -13 -4 -25 -4 -12 1
-33 2 -33 1 0 0 3 -1 6 -3 3 -2 6 -5 7 -5 0 -1 -1 -1 -2 0 -1 1 -5 4 -9 6 -3
1 -6 3 -6 4 0 0 4 0 9 -1 5 0 8 0 8 0 -1 2 -22 4 -32 4 -24 0 -42 -9 -50 -26
-4 -6 -6 -15 -5 -16 1 -1 8 3 9 5 0 3 7 9 13 11 12 7 24 8 53 4 4 0 5 0 4 1
-1 1 -1 1 1 0 1 0 4 -1 5 -2 4 -1 11 -2 15 -1 l3 1 -3 -1 c-7 -4 -33 -8 -43
-7 -7 0 -25 -2 -34 -5 -15 -4 -28 -11 -40 -21 -6 -6 -13 -17 -16 -23 -1 -5 -2
-20 0 -24 l1 -3 0 3 c3 12 9 24 15 30 7 6 24 15 29 15 1 0 -1 -1 -5 -2 -14 -6
-25 -15 -30 -25 -5 -10 -5 -11 2 -4 17 18 17 18 26 22 4 2 10 5 13 5 3 1 10 4
15 6 4 3 12 6 17 8 4 1 8 3 9 4 0 0 4 2 7 4 4 1 7 3 6 3 -1 1 -1 1 1 1 4 0 2
-2 -5 -5 -7 -3 -9 -5 -4 -3 2 1 10 2 18 3 19 4 28 7 39 13 l8 5 -5 -4 c-8 -7
-20 -12 -38 -15 -11 -2 -17 -4 -15 -6 1 -1 0 -2 -3 -5 -3 -3 -7 -6 -8 -7 l-3
-3 12 0 c7 0 12 1 11 1 -1 1 -1 1 0 1 0 0 1 0 2 -1 1 -1 -2 -3 -10 -8 -17 -11
-17 -11 -4 -10 8 0 12 1 15 3 2 1 10 4 17 6 7 3 14 6 16 8 7 4 7 4 6 2 -1 -1
-4 -4 -7 -6 -8 -6 -22 -21 -25 -26 -1 -3 -2 -7 -3 -10 0 -5 0 -5 -1 -2 0 3 -1
3 -3 -5 -6 -16 -4 -36 6 -55 8 -16 20 -27 38 -33 6 -2 16 -2 21 0 l3 1 -4 1
c-13 2 -27 17 -33 35 -2 6 -2 11 -3 21 -1 15 -2 19 -4 9 0 -4 0 -9 0 -11 1 -1
0 -3 0 -4 -1 0 -7 12 -10 21 -2 8 -3 6 -3 -5 0 -8 0 -8 -1 -2 l0 7 -1 -4 c-1
-2 -2 -4 -2 -4 -2 -1 -4 6 -4 10 0 4 0 4 2 -4 l1 -6 2 7 c2 4 3 10 4 14 4 12
16 32 26 43 l4 5 -3 -5 c-12 -17 -15 -21 -19 -28 -5 -10 -8 -19 -7 -20 0 0 1
-4 2 -7 1 -4 3 -10 5 -13 l3 -6 0 7 c0 3 1 8 2 11 0 2 1 6 1 9 0 18 12 44 32
71 7 10 10 15 11 21 2 4 1 5 -1 10 -4 9 -4 10 2 16 4 5 5 4 0 -2 -3 -4 -3 -4
-2 -8 2 -6 24 -43 26 -44 3 -2 3 -1 -1 5 -3 6 -12 22 -12 24 0 0 2 -3 4 -8 10
-18 24 -35 32 -40 5 -2 7 -2 16 -2 10 0 12 0 23 5 3 1 7 3 9 4 4 3 9 4 11 2 0
-1 -1 -1 -2 0 -2 0 -4 0 -7 -2 l-3 -1 3 -3 3 -2 -4 1 c-3 2 -4 2 -8 0 -2 -2
-5 -3 -5 -3 0 -1 -1 -1 -1 -1 -1 0 -2 0 -3 0 -2 0 -2 0 -1 -1 1 -1 5 -1 10 -1
9 0 10 0 12 2 1 1 3 2 4 2 1 0 2 1 3 2 0 1 1 2 2 3 3 1 2 3 -1 7 -3 4 -7 4
-20 -2 -12 -6 -17 -7 -24 -7 -7 0 -11 2 -20 10 -6 6 -18 23 -18 25 0 1 -2 4
-5 6 -5 6 -9 14 -10 21 -1 3 -1 3 1 -2 2 -8 6 -14 11 -18 2 -2 3 -3 4 -3 0 1
-5 19 -7 22 -4 7 -5 15 -5 23 1 5 1 10 2 12 1 2 1 1 0 -3 -1 -13 -1 -21 2 -27
4 -8 9 -13 15 -17 7 -4 8 -4 7 1 -1 2 -2 7 -2 11 l-1 7 2 -5 c2 -5 10 -16 11
-16 1 0 -1 8 -5 16 -1 4 -3 8 -3 9 0 1 1 0 2 -2 3 -8 11 -22 15 -25 l3 -3 0 5
c0 2 1 7 2 11 0 3 2 10 2 15 1 8 1 8 1 -7 l0 -16 4 6 c7 10 10 24 7 35 -2 7
-2 8 0 1 1 -3 2 -9 2 -13 0 -4 1 -10 1 -13 l2 -6 2 3 c2 3 4 11 5 17 1 1 1 0
1 -3 -1 -3 -1 -6 -1 -7 -1 -2 -1 -2 0 -1 1 2 3 5 4 7 1 5 1 5 -2 21 -1 1 0 0
1 -2 1 -3 2 -7 3 -11 0 -6 0 -8 -2 -12 -2 -3 -3 -7 -3 -9 l-1 -4 2 3 c6 6 9
17 9 26 -1 6 -1 6 -7 12 -3 3 -8 8 -11 11 -4 4 -6 6 -11 8 -4 1 -8 2 -9 2 -1
0 -2 0 -2 1 0 1 2 1 8 0 5 -2 6 -1 2 1 -3 3 -12 4 -16 2 l-3 -2 2 2 c1 1 3 2
4 2 0 0 1 0 1 1 0 1 -5 3 -9 2 -2 0 -3 0 -4 1 -2 3 -3 2 -8 0z m8 -5 c-2 -1
-2 -1 -1 1 1 1 1 2 2 2 0 -1 0 -2 -1 -3z m-5 -2 c1 -2 1 -2 -3 -1 -4 0 -4 0
-5 -3 0 -5 2 -18 4 -26 1 -4 2 -7 2 -7 -1 0 -2 4 -3 8 -4 11 -5 26 -3 28 3 2
5 2 8 1z m17 -6 c7 -4 6 -4 0 -1 -4 2 -6 3 -6 4 0 1 2 0 6 -3z m-39 -5 c-5 -6
-10 -15 -12 -22 -1 -3 -2 -6 -2 -6 -1 -2 -1 0 1 8 1 2 1 4 1 5 -1 1 -7 -9 -9
-16 -1 -3 -2 -6 -2 -5 0 2 3 11 4 15 1 1 3 4 5 5 1 1 4 5 6 9 3 5 10 12 12 12
0 0 -2 -2 -4 -5z m8 -12 c0 -11 -2 -12 -2 -1 0 5 1 12 1 12 1 0 1 -5 1 -11z
m39 1 c2 -4 4 -7 4 -7 0 -1 -2 1 -4 5 -2 3 -4 6 -5 7 -1 2 -1 2 0 2 1 -1 3 -4
5 -7z m-137 3 c-1 0 -1 0 -2 0 -1 1 -1 1 0 1 1 0 2 0 2 -1z m5 -2 c2 0 3 -1 3
-2 0 0 -6 3 -7 4 -1 1 1 0 4 -2z m84 -3 c-1 -1 -1 -1 -1 0 0 1 0 2 1 2 0 -1 0
-1 0 -2z m48 -16 c0 -2 0 -2 -1 0 -1 3 -1 6 0 4 0 -2 1 -3 1 -4z m-91 -2 c0 0
-1 0 -6 2 -2 0 -2 0 1 -4 3 -3 5 -5 5 -5 1 0 1 0 1 -1 0 -1 -1 -1 -1 0 -1 0
-3 0 -4 0 -1 1 -4 1 -5 1 -3 1 -3 1 -2 -1 0 -1 2 -3 3 -4 1 -1 2 -2 2 -3 -1 0
-3 3 -5 6 -3 3 -5 7 -4 7 0 0 0 0 1 -1 1 -1 8 -4 11 -4 1 0 0 2 -3 5 -2 2 -4
5 -4 5 0 1 9 -2 10 -3z m10 -25 c-6 -5 -15 -8 -24 -8 -11 0 -12 2 -1 2 11 0
19 2 25 8 2 2 4 3 4 3 0 0 -2 -2 -4 -5z m-84 2 c-3 0 -7 0 -10 0 -3 0 -1 1 5
1 5 0 7 -1 5 -1z m-17 -1 c-1 0 -1 0 -2 0 -1 1 -1 1 0 1 1 0 2 0 2 -1z m26 0
c0 0 -2 0 -3 0 -1 1 0 1 2 1 1 0 2 0 1 -1z m22 -5 c-1 0 -3 0 -5 0 -1 1 0 1 3
1 2 0 3 0 2 -1z m-10 -1 c-3 -1 -3 -1 -1 -1 1 -1 2 -1 2 -2 0 0 -2 1 -4 1 -4
1 -2 3 3 3 l3 0 -3 -1z m-62 -7 c-3 -3 -7 -7 -8 -10 -1 -2 -2 -3 -2 -2 0 2 6
9 10 13 6 6 6 5 0 -1z m122 -7 c-3 -6 -15 -15 -26 -21 -8 -4 -9 -4 0 1 9 5 17
11 22 17 5 6 6 6 4 3z m-79 -2 c-2 0 -3 -1 -2 -1 4 0 15 -2 15 -3 -1 0 -10 1
-16 3 -3 0 -2 2 2 2 3 0 3 0 1 -1z m29 -85 c-1 -1 -1 0 -1 3 0 3 0 4 1 3 0 -2
0 -4 0 -6z m9 -25 c-1 -1 -1 -1 -1 0 0 1 0 2 1 2 0 -1 0 -1 0 -2z" fill="white"/>
<path d="M349 619 c-2 -2 -2 -2 0 -2 2 0 8 -5 8 -7 0 -1 0 -1 1 -1 1 0 1 6 0
9 -1 4 -6 4 -9 1z" fill="white"/>
<path d="M371 596 c0 0 2 -3 5 -5 2 -2 5 -4 5 -4 1 0 2 -3 2 -5 1 -3 2 -5 4
-7 l4 -3 2 2 c1 1 2 3 2 3 0 1 -5 5 -11 10 -12 10 -13 10 -13 9z" fill="white"/>
<path d="M430 589 c-3 -3 -6 -7 -6 -8 0 0 -1 -3 -3 -4 -2 -4 -2 -4 0 -4 1 -1
2 -2 3 -3 0 -2 1 -3 2 -3 3 -1 13 9 16 15 1 3 2 3 1 2 -1 -4 -5 -10 -10 -14
-3 -3 -4 -4 -4 -6 3 -7 15 6 20 20 2 5 -1 10 -6 11 -6 2 -6 1 -13 -6z m2 -10
c-1 -1 -1 -1 -1 0 1 1 1 3 1 4 0 1 0 1 1 0 0 -1 0 -3 -1 -4z m-2 -4 c0 -1 -2
-2 -3 -4 -2 -1 -2 -1 1 2 3 4 4 5 2 2z" fill="white"/>
<path d="M391 588 l-3 -2 2 -2 c3 -2 3 -2 5 -1 2 1 4 2 5 4 l2 2 -4 0 c-2 0
-5 -1 -7 -1z" fill="white"/>
<path d="M400 585 c-3 -2 -5 -4 -5 -4 1 -1 10 -8 11 -8 0 0 0 1 0 1 0 1 2 4 4
7 4 5 4 5 2 6 -3 2 -7 1 -12 -2z" fill="white"/>
<path d="M413 582 c-4 -6 -5 -7 -4 -8 2 -1 2 -1 5 2 7 8 7 9 6 11 -1 0 -2 1
-2 1 0 0 -3 -3 -5 -6z" fill="white"/>
<path d="M248 585 c-2 -1 -2 -1 4 -5 5 -5 10 -7 13 -8 1 0 2 1 3 5 0 3 1 6 0
6 -2 2 -16 4 -20 2z" fill="white"/>
<path d="M221 574 c-2 -2 -3 -3 -1 -2 1 0 3 0 4 1 3 0 4 1 2 3 -1 1 -2 0 -5
-2z" fill="white"/>
<path d="M393 572 c-3 -3 -5 -6 -5 -7 0 -1 5 -5 7 -5 1 1 3 3 5 6 4 5 4 5 2 7
-4 4 -5 4 -9 -1z" fill="white"/>
<path d="M384 572 c-1 -5 1 -7 4 -3 2 2 2 4 -2 6 -2 1 -2 0 -2 -3z" fill="white"/>
<path d="M411 571 c-2 -4 -4 -6 -4 -6 0 -2 6 3 8 6 3 5 0 5 -4 0z" fill="white"/>
<path d="M403 568 c-5 -7 -5 -7 -4 -9 0 -1 2 1 6 6 4 5 6 8 3 8 0 0 -2 -2 -5
-5z" fill="white"/>
<path d="M416 569 c-2 -2 -7 -15 -9 -20 0 -2 -2 -4 -3 -5 -2 -1 -2 -1 -1 1 2
2 2 2 1 3 -2 1 -2 2 -4 -3 -3 -4 -2 -8 1 -14 l4 -6 3 2 c6 2 10 1 16 -3 l5 -3
3 3 c3 4 10 20 10 23 0 4 -2 7 -3 7 -1 0 -3 1 -3 2 -1 2 -3 3 -4 4 -2 0 -3 1
-4 3 -1 1 -2 2 -3 2 -2 0 -3 1 -3 3 -1 3 -4 4 -6 1z" fill="white"/>
<path d="M382 566 c0 -1 0 -3 0 -5 l1 -4 2 3 2 3 -2 2 c-2 2 -2 2 -3 1z" fill="white"/>
<path d="M405 559 c-3 -4 -5 -7 -4 -7 1 0 2 0 2 1 1 1 3 4 5 7 4 4 5 6 4 6 -1
0 -3 -3 -7 -7z" fill="white"/>
<path d="M385 559 c-3 -4 -3 -4 -2 -10 1 -3 2 -4 2 -3 0 2 2 5 4 7 3 5 3 5 1
7 -2 3 -2 3 -5 -1z" fill="white"/>
<path d="M235 558 l-4 -2 4 -1 c2 0 6 0 8 0 l3 1 -3 2 -3 3 -5 -3z" fill="white"/>
<path d="M391 553 c-4 -4 -5 -6 -4 -7 1 0 2 -1 2 -1 1 0 10 11 9 13 -1 2 -3 1
-7 -5z" fill="white"/>
<path d="M405 555 c-2 -4 -2 -6 0 -6 1 0 4 9 4 10 -1 0 -2 -2 -4 -4z" fill="white"/>
<path d="M377 553 c-3 -3 -3 -5 -2 -8 1 -6 5 -19 8 -25 4 -7 3 -9 0 -2 -4 6
-7 17 -9 24 -1 5 -1 6 -3 5 0 -1 -2 -6 -2 -11 l-2 -9 3 -7 c3 -9 9 -16 13 -16
1 0 4 -1 5 -2 2 -1 2 -1 2 1 0 1 1 4 3 6 l2 3 -2 3 c-3 4 -10 27 -13 41 0 1
-1 0 -3 -3z" fill="white"/>
<path d="M395 549 c-5 -6 -7 -11 -3 -6 2 2 3 3 4 2 1 -2 3 2 3 7 1 2 1 4 0 4
0 0 -2 -3 -4 -7z" fill="white"/>
<path d="M366 550 c-3 -3 -3 -3 0 -3 3 -1 3 0 3 3 1 4 0 4 -3 0z" fill="white"/>
<path d="M345 543 c0 -2 0 -6 0 -9 l0 -5 -3 2 c-2 1 -5 3 -6 5 -3 3 -3 3 -3 1
1 -2 0 -2 -1 -2 -2 0 -2 0 -1 -1 0 0 1 -1 2 -2 1 -2 1 -2 -2 -1 -3 2 -3 2 -3
0 0 -3 -2 -7 -4 -8 -2 -1 -2 -1 1 0 2 0 2 0 1 -1 -2 -2 -10 -1 -13 1 -1 1 -1
1 1 0 2 0 2 0 1 1 -1 2 -1 2 2 0 2 -1 3 -1 5 0 5 2 7 9 3 9 -1 0 -2 -1 -1 -2
1 -5 -5 -7 -7 -2 -2 4 -3 4 -3 0 0 -1 0 -2 -1 -1 0 2 -3 3 -3 1 0 -1 -1 -2 -2
-2 -2 0 2 -6 5 -7 3 -1 10 -8 10 -9 0 -1 -1 -1 -1 0 -1 0 -2 1 -2 1 1 1 -4 5
-6 6 -3 1 -2 0 0 -3 1 -2 3 -3 4 -2 1 0 1 0 0 -1 -1 -1 -1 -2 2 -5 5 -6 12
-10 20 -11 6 0 8 1 14 11 4 4 5 6 4 10 0 2 1 4 1 4 1 0 1 -1 1 -3 -1 -4 0 -4
2 1 1 2 2 5 1 8 0 3 0 4 1 2 1 -2 1 -2 1 -1 1 1 1 3 1 4 0 2 0 2 -1 1 -1 -1
-1 -1 -1 0 0 1 -1 0 -4 -1 -2 -1 -5 -2 -6 -2 -1 0 -1 0 1 1 1 1 1 1 -1 1 -1 0
-2 1 -3 2 -1 2 -1 2 -2 1 -1 -1 -1 -1 0 1 0 2 0 2 -1 2 -2 -1 -2 0 -1 4 0 6
-1 7 -2 1z m3 -21 c0 -1 0 -1 -1 0 -1 0 -1 1 -1 1 0 1 0 1 1 1 1 -1 1 -2 1 -2z
m11 1 c-1 -1 -2 -2 -2 -3 0 0 -1 -1 -2 -1 -1 -1 -1 -1 0 0 1 3 3 5 5 5 1 0 1
-1 -1 -1z m-14 -15 c-5 -2 -6 -2 -2 0 1 0 3 1 4 1 1 0 0 -1 -2 -1z" fill="white"/>
<path d="M364 545 c-2 0 -3 -1 -3 -1 0 -1 -1 -1 -1 0 -1 0 -3 -2 -5 -4 -5 -4
-5 -6 2 -7 4 0 6 1 8 5 1 3 1 3 1 1 0 -1 0 -2 -1 -2 -1 -1 -1 -2 -1 -2 0 -1 1
-1 1 0 2 2 4 11 2 11 0 0 -2 0 -3 -1z m-7 -9 c-2 -1 -2 -1 -3 0 -1 0 -1 1 0 1
1 -1 3 1 3 3 0 2 0 2 1 0 0 -1 0 -3 -1 -4z m4 1 c-2 -5 -2 -3 -1 1 1 2 2 4 2
3 0 -1 0 -3 -1 -4z" fill="white"/>
<path d="M453 541 c-3 -1 -6 -3 -6 -3 0 0 2 -2 4 -4 l4 -3 5 5 c3 3 6 6 8 6 1
0 1 0 0 1 -4 2 -9 1 -15 -2z" fill="white"/>
<path d="M394 540 c-1 -2 -5 -3 -7 -1 -1 2 -1 1 1 -7 l2 -7 4 3 c3 2 4 4 3 5
0 1 -1 3 -1 5 0 3 -1 3 -2 2z" fill="white"/>
<path d="M462 536 c-3 -3 -5 -6 -5 -6 0 0 1 -2 2 -3 l3 -2 2 3 c1 2 2 5 3 6 2
3 3 7 1 7 -1 0 -4 -2 -6 -5z" fill="white"/>
<path d="M470 538 c0 -1 -1 -3 -2 -5 -3 -4 -5 -9 -5 -10 1 0 3 1 5 3 2 2 5 4
6 4 2 1 3 2 3 2 0 1 -6 9 -6 9 -1 0 -1 -1 -1 -3z" fill="white"/>
<path d="M323 538 c0 -2 3 -3 6 -3 2 0 0 2 -2 2 -2 0 -2 0 -1 1 1 0 0 2 -2 2
-1 0 -2 -1 -1 -2z" fill="white"/>
<path d="M306 538 c0 -1 2 -5 3 -7 0 0 2 1 4 2 3 2 4 3 3 3 -1 0 -2 1 -3 2 -1
1 -7 2 -7 0z m8 -3 c-1 0 -1 0 -2 0 -1 1 -1 1 0 1 1 0 2 0 2 -1z" fill="white"/>
<path d="M442 536 c0 -3 -1 -4 -3 -6 -5 -3 -5 -5 1 -10 2 -3 5 -5 5 -5 1 0 3
4 3 8 l1 3 -4 -2 c-2 -1 -4 -2 -5 -2 0 1 0 2 1 4 1 4 4 6 8 6 1 0 0 1 -2 4 -2
1 -4 3 -4 3 -1 0 -1 -2 -1 -3z" fill="white"/>
<path d="M160 535 c-9 -2 -16 -6 -19 -10 -3 -3 -3 -3 -1 -3 13 6 28 8 46 8 14
0 27 1 27 3 0 1 -17 3 -32 4 -13 0 -17 0 -21 -2z" fill="white"/>
<path d="M282 535 c-1 0 -1 -1 -1 -2 0 -3 -6 -14 -15 -26 -16 -21 -27 -47 -28
-64 0 -14 4 -29 9 -32 2 -1 2 -1 1 -2 -2 -1 8 -12 15 -19 7 -6 22 -13 30 -16
8 -1 20 -1 27 0 l6 1 -4 1 c-16 5 -30 10 -36 15 -1 1 2 0 7 -2 14 -7 24 -10
39 -11 14 0 18 1 28 5 l7 3 -12 2 c-21 2 -41 8 -56 17 -17 10 -27 20 -32 33
-3 7 -3 8 -3 19 0 15 2 23 14 42 1 3 5 10 8 15 l4 10 -4 6 c-4 7 -3 6 -4 5z
m-17 -37 c-3 -6 -7 -19 -9 -29 -2 -13 -3 -17 -2 -9 0 8 2 15 5 24 2 9 7 19 8
19 0 -1 -1 -3 -2 -5z m-8 -62 c1 -4 3 -10 6 -15 l5 -10 -5 4 c-2 2 -7 7 -11
10 -3 4 -6 7 -6 6 2 -7 5 -20 6 -22 0 -2 -1 -3 -2 -1 -1 1 -1 1 0 1 0 0 -1 5
-2 11 -2 6 -3 12 -3 13 0 1 4 -2 8 -7 5 -5 9 -9 9 -9 1 0 0 2 -2 5 -2 6 -5 15
-5 22 -1 4 -1 4 0 1 0 -2 1 -6 2 -9z" fill="white"/>
<path d="M318 532 c0 0 -1 -2 0 -3 1 -3 5 -2 5 1 0 3 -3 4 -5 2z" fill="white"/>
<path d="M450 530 c-1 -2 -1 -4 1 -4 2 0 3 -1 5 -3 1 -3 2 -3 3 -1 1 1 1 2 -3
6 -5 4 -6 5 -6 2z" fill="white"/>
<path d="M445 530 c-1 0 -4 -5 -4 -6 0 -1 1 0 3 0 2 1 4 3 4 4 1 3 0 3 -3 2z" fill="white"/>
<path d="M474 528 c-3 -1 -6 -3 -7 -4 l-2 -3 2 -2 3 -2 5 5 c7 7 7 10 -1 6z" fill="white"/>
<path d="M396 527 c-1 -1 -3 -2 -4 -3 -1 -1 -1 -1 1 -6 l3 -4 1 3 c1 2 3 5 4
6 2 1 2 1 0 4 -2 2 -2 2 -5 0z" fill="white"/>
<path d="M407 524 c-2 -1 -5 -3 -6 -5 -1 -2 -3 -5 -4 -8 -6 -8 -6 -9 -5 -13 0
-4 0 -4 3 -4 4 0 6 -3 13 -20 3 -8 7 -16 8 -18 2 -3 2 -3 1 -2 -2 1 -7 11 -14
27 -2 4 -4 9 -4 10 -2 1 -6 1 -9 -1 l-2 -1 3 -2 c5 -2 7 -6 9 -14 1 -8 1 -14
-2 -23 -2 -8 -2 -7 0 2 1 7 1 19 -1 25 -2 8 -8 11 -14 8 l-2 -1 2 -1 c3 -1 3
-4 -1 -9 -4 -7 -27 -28 -31 -28 0 0 4 3 9 7 15 13 26 26 24 29 -1 0 -3 0 -5
-1 -6 -1 -13 -1 -17 0 -2 1 -9 1 -16 1 -13 0 -14 1 -19 3 -4 2 -8 5 -12 10 -7
8 -17 13 -24 12 -1 -1 -5 -4 -9 -7 -6 -6 -6 -6 -5 -10 1 -5 0 -10 -1 -12 -1 0
-3 -1 -4 -2 -4 0 -4 -1 -5 -6 -1 -3 -2 -8 -2 -10 l0 -4 1 5 c1 3 1 6 1 7 1 1
7 -11 7 -14 0 -3 -1 -5 -5 -6 -3 0 -3 0 -1 -6 1 -5 3 -7 3 -4 0 1 0 1 1 1 1 0
1 -2 1 -5 0 -4 1 -5 4 -10 9 -10 28 -21 45 -27 8 -3 9 -3 10 -2 1 1 1 1 1 0 0
-1 2 -2 6 -3 9 -2 9 -1 2 4 -3 2 -6 4 -6 4 -1 0 -1 -1 -1 -2 -1 -1 -1 -1 -1 1
0 1 -2 4 -11 12 -16 13 -16 13 -21 13 -2 -1 -4 0 -3 0 0 1 1 1 2 1 1 0 10 2
20 5 11 3 19 5 20 5 0 0 -5 -2 -11 -4 -6 -2 -14 -4 -17 -5 l-5 -1 3 -2 c1 -1
6 -5 11 -9 13 -12 29 -23 33 -24 2 -1 6 -1 9 -1 3 0 6 0 6 -1 1 0 -1 -2 -3 -4
l-4 -3 6 -4 c7 -5 35 -21 43 -24 7 -4 28 -11 33 -12 3 0 4 0 5 2 3 4 6 18 9
37 1 11 3 22 4 26 4 18 3 26 -3 42 -2 6 -5 16 -7 23 -2 7 -4 15 -5 19 -3 8
-11 21 -17 27 -10 9 -14 11 -23 7z m-114 -28 c-2 -3 -6 -7 -7 -9 -1 -3 -2 -5
-3 -5 -1 2 7 13 11 16 5 3 5 3 -1 -2z m118 0 c5 -2 13 -9 15 -12 1 -2 -1 0 -4
3 -4 3 -9 7 -13 9 -8 3 -6 3 2 0z m-3 -8 c7 -9 13 -17 13 -20 0 -1 -1 1 -3 4
-2 3 -5 8 -7 11 -7 7 -11 13 -11 13 1 0 4 -4 8 -8z m-63 -13 c-5 -5 -21 -8
-33 -7 -5 1 -4 1 5 1 11 0 20 2 25 5 4 3 5 4 3 1z m-64 -11 c0 -4 0 -9 0 -12
1 -5 1 -6 0 -3 -2 6 -2 21 -1 21 0 0 1 -3 1 -6z m143 -22 c-1 -6 -5 -16 -6
-16 -1 0 1 4 3 9 3 7 3 10 4 19 l1 10 0 -8 c0 -5 -1 -10 -2 -14z m-37 -20 c-2
-4 -4 -8 -6 -10 -4 -4 -11 -9 -12 -9 -2 2 -1 7 2 14 3 8 4 7 0 -1 -2 -8 -3
-11 0 -11 2 0 12 11 15 18 2 3 4 6 4 6 0 -1 -1 -4 -3 -7z" fill="white"/>
<path d="M479 523 l-2 -2 3 0 c2 0 3 -1 4 -2 1 -1 2 -3 3 -4 3 -1 2 -3 0 -5
-1 -1 -2 -3 -3 -5 0 -2 1 -4 9 -12 l10 -9 0 10 c-1 6 -1 11 -2 13 -2 4 -8 10
-16 16 l-4 3 -2 -3z m21 -20 c1 -2 2 -5 2 -5 0 0 -1 1 -3 4 -2 6 -2 7 1 1z" fill="white"/>
<path d="M450 523 c0 -2 -1 -4 -1 -6 -2 -2 -2 -6 -2 -12 0 -8 0 -11 3 -17 1
-3 3 -7 3 -8 1 -1 1 -1 0 -1 -1 1 -1 1 -1 -2 2 -7 3 -10 4 -10 0 0 2 2 5 4 3
2 4 4 3 4 -1 1 0 1 2 1 3 0 4 1 6 3 2 2 3 3 3 4 0 0 -3 3 -6 7 -6 5 -6 5 -6 3
l1 -3 -1 3 c-1 1 -3 4 -5 7 -3 4 -3 5 -3 12 0 8 0 7 -1 11 -1 3 -4 3 -4 0z" fill="white"/>
<path d="M364 518 l-2 -4 5 -5 c3 -2 6 -5 7 -5 3 -1 3 0 1 3 -3 3 -8 12 -8 14
0 3 -2 1 -3 -3z" fill="white"/>
<path d="M290 520 c0 -1 -2 -5 -3 -7 l-3 -6 8 0 c4 0 8 1 8 1 0 0 -1 1 -2 3
-1 2 -3 5 -5 7 -2 4 -2 4 -3 2z" fill="white"/>
<path d="M431 520 c0 0 0 -1 1 -2 1 -1 8 -9 10 -14 l3 -4 0 6 c0 5 0 6 -5 11
-6 5 -8 6 -9 3z" fill="white"/>
<path d="M459 520 c-1 -1 -2 -3 -2 -4 l0 -2 2 2 c0 1 2 2 4 2 2 0 2 0 1 2 -3
2 -3 2 -5 0z" fill="white"/>
<path d="M475 518 c-4 -2 -4 -3 -1 -6 2 -1 2 -1 3 0 1 2 2 2 4 0 5 -5 8 -1 3
4 -4 4 -4 4 -9 2z" fill="white"/>
<path d="M464 514 c-1 -2 -2 -3 -4 -4 -5 -2 -4 -5 15 -24 l18 -17 5 5 c6 4 7
7 4 7 -1 0 -3 -2 -6 -5 -5 -4 -6 -4 -4 1 0 1 0 1 1 0 0 -1 2 0 4 1 2 3 2 3 0
3 -1 0 -2 -1 -3 -1 -1 -1 -1 -1 -1 0 0 1 2 2 6 2 l2 0 -3 3 c-1 2 -3 4 -3 4
-1 0 -1 -2 -2 -4 -1 -3 -4 -5 -7 -4 -2 0 -2 1 0 4 1 3 2 4 5 5 l3 0 -14 14
c-7 8 -14 14 -14 14 -1 0 -1 -2 -2 -4z m8 -6 c-1 -3 -2 -4 -4 -5 -6 -2 -6 -1
-5 3 1 3 2 4 5 5 2 0 4 1 4 0 0 0 0 -1 0 -3z m5 -5 c-3 0 -4 -1 -5 -3 -1 -2
-1 -3 -1 -4 1 -1 6 2 7 4 0 1 0 2 1 2 0 -1 -2 -6 -3 -6 -1 0 -3 0 -4 -1 -2 0
-2 0 -2 3 1 4 3 6 7 6 3 0 3 0 0 -1z m10 -7 c0 0 0 -2 -1 -4 -1 -2 -2 -3 -5
-3 -2 -1 -3 -1 -4 -1 -1 1 2 7 4 8 3 1 6 1 6 0z" fill="white"/>
<path d="M458 514 c-1 -4 -1 -4 2 -3 1 0 2 1 3 3 1 3 1 3 -1 3 -1 0 -3 -1 -4
-3z" fill="white"/>
<path d="M194 513 c-39 -11 -63 -27 -75 -52 -7 -13 -8 -18 -7 -36 0 -15 0 -16
-2 -16 -3 1 -3 -1 0 -3 4 -4 6 -1 11 11 3 7 7 12 15 19 10 9 22 16 37 23 9 4
17 9 20 11 2 2 6 4 7 5 2 2 2 2 -4 2 -4 -1 -9 -1 -11 -2 -2 0 -3 0 -3 1 0 1
12 10 19 14 7 5 6 5 -7 1 -2 0 -1 1 1 1 2 2 2 2 -4 2 -4 0 -8 0 -9 -1 -4 -2
-2 1 6 7 8 7 8 8 6 8 -2 1 -2 1 2 3 5 3 4 4 -2 2z m-16 -28 c0 -1 -4 -3 -10
-6 -14 -7 -23 -14 -31 -22 -4 -4 -6 -6 -4 -3 7 9 19 18 34 26 10 5 11 5 11 5z" fill="white"/>
<path d="M358 508 l-2 -3 6 -3 c4 -2 6 -3 8 -2 1 1 2 2 2 2 0 1 -9 8 -11 9 0
0 -2 -1 -3 -3z" fill="white"/>
<path d="M478 510 c-1 0 0 -2 2 -3 2 -2 2 -2 3 -1 1 2 1 3 -2 4 -3 1 -3 1 -3
0z" fill="white"/>
<path d="M466 509 c0 0 -1 -2 -1 -3 -1 -3 -1 -3 1 -2 3 0 5 3 5 5 0 1 -3 1 -5
0z" fill="white"/>
<path d="M354 502 c-1 0 0 -1 0 -3 1 -1 1 -3 2 -4 0 -1 0 -1 1 0 1 0 1 2 0 4
-1 4 -2 5 -3 3z" fill="white"/>
<path d="M358 499 l1 -4 3 2 3 1 -3 2 c-5 3 -5 2 -4 -1z" fill="white"/>
<path d="M351 499 c0 -1 -2 -2 -3 -3 -5 -3 -5 -4 -1 -4 6 0 8 2 6 6 0 2 -2 3
-2 1z" fill="white"/>
<path d="M483 495 c-1 0 -3 -2 -4 -3 l-1 -3 3 0 c3 1 4 2 4 5 0 1 -1 1 -2 1z" fill="white"/>
<path d="M272 484 c-2 -3 -3 -6 -3 -7 0 0 2 0 4 1 3 1 3 1 3 7 0 3 0 5 -1 5 0
0 -2 -3 -3 -6z" fill="white"/>
<path d="M488 487 c-3 -3 -3 -5 0 -5 2 0 3 1 4 5 1 3 -1 3 -4 0z" fill="white"/>
<path d="M223 484 c-19 -7 -29 -13 -38 -24 -12 -14 -16 -25 -17 -44 0 -17 1
-25 7 -37 9 -19 25 -28 39 -22 l4 2 -5 2 c-18 6 -23 33 -12 64 2 5 4 11 4 14
1 7 4 13 8 21 4 8 8 13 16 21 3 4 6 7 5 7 0 0 -5 -2 -11 -4z" fill="white"/>
<path d="M502 475 c-2 -1 -5 -4 -6 -6 l-3 -3 2 -2 c2 -2 3 -2 4 -1 1 1 4 4 6
6 5 4 5 4 0 -1 -4 -3 -6 -6 -5 -6 1 0 11 9 11 10 0 1 -1 3 -2 4 l-3 2 -4 -3z" fill="white"/>
<path d="M267 460 c0 -2 -1 -4 -1 -5 -1 -1 -1 -3 -1 -4 0 -2 0 -2 3 -2 4 1 5
3 5 6 0 2 -3 9 -5 9 0 0 0 -2 -1 -4z" fill="white"/>
<path d="M201 419 c-3 -10 -4 -17 -4 -25 l0 -6 4 1 c2 1 3 2 3 3 -2 3 -2 18
-1 25 1 5 1 8 1 9 -1 0 -2 -3 -3 -7z" fill="white"/>
<path d="M204 413 c-1 -11 2 -24 7 -38 2 -4 4 -9 5 -10 0 -4 3 -4 3 -1 1 9 -2
20 -6 29 -2 5 -4 12 -6 17 l-2 8 -1 -5z" fill="white"/>
<path d="M240 411 c1 -8 1 -9 4 -9 3 0 5 2 3 3 0 1 -2 4 -4 7 l-3 6 0 -7z" fill="white"/>
<path d="M245 400 c-3 0 -3 -3 2 -11 l3 -7 2 8 c1 6 1 8 -1 9 -1 2 -2 2 -6 1z" fill="white"/>
<path d="M254 392 c-2 -9 -1 -13 2 -16 1 -2 4 -5 6 -7 4 -2 14 -6 17 -6 2 0 1
-3 -1 -4 -1 -1 -4 -1 -7 -2 -3 -1 -5 -2 -6 -2 0 -1 -3 -7 -6 -14 -3 -7 -7 -15
-9 -19 -4 -8 -11 -21 -12 -21 0 0 3 6 7 14 4 8 9 20 12 26 3 6 6 12 7 13 1 2
1 2 -5 3 -5 1 -9 3 -16 5 -1 1 -2 1 -2 0 0 -2 -9 -21 -12 -25 l-2 -3 2 0 c1 1
6 3 10 5 4 2 7 4 7 3 0 -1 -11 -7 -15 -8 -2 -1 -8 -2 -11 -3 -8 -1 -11 -3 -16
-12 -2 -3 -5 -8 -6 -9 -2 -3 -2 -3 -1 -6 1 -2 5 -8 9 -12 l7 -8 -7 7 c-8 8
-11 14 -11 18 1 2 0 2 -2 2 -3 0 -5 -2 -5 -5 1 -3 20 -26 27 -33 l5 -4 3 6 c2
4 4 7 4 7 0 -1 -1 -4 -3 -7 l-3 -7 2 -2 c4 -3 11 -8 12 -8 0 0 -1 1 -2 2 l-1
3 2 -3 c1 -1 2 -2 2 -3 -1 -1 -5 1 -11 6 l-5 4 -2 -2 c-1 -1 -3 -5 -6 -7 -5
-5 -11 -8 -37 -20 -14 -7 -16 -8 -50 -31 -13 -8 -28 -18 -33 -21 -5 -3 -9 -5
-9 -6 0 0 3 -3 6 -6 3 -4 8 -11 12 -16 13 -19 25 -33 36 -41 12 -10 27 -17 39
-18 l6 0 23 35 c13 20 27 41 31 47 6 10 11 17 8 12 -5 -10 -37 -60 -51 -79 -4
-6 -7 -10 -7 -10 0 -1 2 0 5 2 6 4 14 7 20 7 2 0 10 -1 17 -2 17 -2 26 -2 27
0 1 1 3 7 5 14 2 6 5 16 7 20 1 5 3 10 3 10 -1 0 -14 -8 -21 -13 -4 -2 -6 -3
-4 -1 5 4 16 11 26 16 12 7 14 8 16 13 4 6 8 23 10 43 3 21 6 41 11 62 9 36
14 65 14 75 0 8 0 8 -2 7 -2 0 -3 0 -5 2 -2 2 -5 3 -5 1 -1 -2 -10 -3 -11 -1
0 1 -4 2 -8 3 -9 1 -17 4 -26 10 l-8 5 0 8 c1 7 1 8 -1 9 -2 2 -2 2 -2 -2z
m37 -58 c-4 -14 -17 -66 -23 -87 -3 -11 -7 -21 -10 -28 -3 -6 -5 -11 -6 -11 0
0 2 6 5 12 6 12 15 47 31 109 5 19 6 22 3 5z" fill="white"/>
<path d="M460 385 c-1 -10 -1 -12 2 -12 2 0 4 3 4 6 0 3 -4 16 -4 16 -1 0 -1
-5 -2 -10z" fill="white"/>
<path d="M260 388 c-2 -9 -2 -10 3 -13 9 -6 28 -13 34 -12 2 0 1 1 -2 1 -9 2
-21 6 -28 10 -4 2 -7 4 -7 5 0 0 2 -1 4 -2 10 -6 19 -10 31 -12 4 0 4 0 5 2 1
4 -1 6 -3 3 -2 -3 -5 -2 -6 1 -1 2 -2 3 -5 4 -5 1 -15 7 -21 12 -5 3 -5 3 -5
1z" fill="white"/>
<path d="M200 387 c-1 0 -2 -1 -2 -3 0 -2 4 -13 5 -13 0 0 2 1 4 1 2 1 3 2 2
3 0 1 -1 4 -2 7 -2 6 -3 6 -7 5z" fill="white"/>
<path d="M355 379 c-2 -1 -3 -2 -3 -3 0 -1 -1 -2 -1 -3 -1 -1 -1 -2 1 -5 2 -2
3 -3 3 -4 -1 0 -2 1 -3 3 -3 5 -7 5 -9 0 -2 -3 -6 -6 -13 -7 l-5 -2 -1 -10
c-1 -11 -6 -39 -12 -66 -3 -14 -4 -19 -4 -23 4 -32 3 -38 -3 -70 -2 -11 -4
-24 -5 -28 l0 -7 9 -9 c5 -5 15 -14 23 -19 19 -14 30 -27 30 -33 0 -3 2 -4 17
-8 18 -5 38 -10 47 -11 13 -1 30 4 68 22 9 4 19 8 21 9 4 1 4 2 9 11 l4 9 -5
17 c-7 23 -13 36 -28 66 -7 14 -13 25 -13 25 1 0 17 -29 23 -42 3 -7 8 -17 10
-22 l4 -10 2 3 c1 2 5 8 9 14 5 5 8 11 9 12 0 2 -6 22 -13 36 -4 8 -22 38 -33
53 -10 15 -17 20 -35 27 -15 5 -38 17 -51 27 -21 15 -21 15 -21 21 0 5 -1 7
-4 5 -3 -1 -4 1 -2 5 1 4 1 5 -1 6 -1 0 -5 3 -10 6 -10 6 -10 6 -14 5z m14
-14 l-5 -2 1 -6 c0 -9 0 -9 5 -10 3 0 4 0 7 4 2 2 4 3 5 3 0 0 -2 -3 -4 -5 -4
-3 -5 -5 -5 -8 0 -4 0 -5 10 -14 4 -3 7 -6 8 -7 1 -1 -3 1 -9 6 -9 8 -10 9
-10 13 l0 5 -11 -10 c-12 -13 -17 -19 -24 -29 -3 -4 -5 -7 -5 -7 0 1 7 12 10
16 2 3 3 5 3 8 0 5 -1 8 -3 8 -1 0 -5 -4 -8 -9 -3 -6 -6 -10 -7 -10 0 0 2 4 7
12 3 4 5 8 5 9 -1 1 -2 6 -2 11 -1 6 -2 12 -2 13 -1 2 -1 3 -1 3 2 0 3 -5 4
-16 l2 -11 9 13 c6 7 10 14 9 14 0 1 1 1 1 1 1 0 3 1 4 2 1 1 3 3 6 4 6 3 6 2
0 -1z m-8 -67 c4 -5 12 -18 20 -28 7 -11 16 -25 21 -31 12 -14 14 -20 17 -34
7 -30 19 -97 18 -99 0 0 -3 13 -6 29 -7 38 -14 72 -16 79 -2 7 -4 12 -14 24
-7 10 -44 63 -47 69 -2 4 0 1 7 -9z m88 -2 c20 -12 22 -15 31 -29 3 -6 1 -4
-5 5 -6 10 -8 11 -28 23 -9 5 -16 10 -17 11 -2 1 4 -1 19 -10z m-8 -25 c23
-24 20 -20 32 -49 3 -8 10 -24 16 -36 8 -18 16 -37 20 -49 1 -6 -1 0 -6 13 -3
7 -10 24 -16 36 -11 23 -14 31 -21 48 -4 13 -5 14 -17 27 -21 23 -33 37 -31
34 2 -1 12 -12 23 -24z m-117 -23 c4 -8 10 -19 13 -23 2 -5 6 -13 8 -16 2 -4
4 -7 4 -8 0 -1 -5 8 -10 18 -3 4 -8 13 -11 18 -10 18 -16 30 -13 26 0 0 4 -7
9 -15z m171 -17 c2 -7 3 -12 3 -13 -1 0 -9 27 -9 29 0 2 2 -2 6 -16z m-136
-73 c2 -10 4 -48 3 -47 -1 0 -1 10 -2 22 -1 14 -2 26 -4 35 -1 7 -2 14 -2 14
0 3 4 -14 5 -24z m152 -29 c1 -2 1 -2 0 -1 0 1 -1 3 -1 4 -1 2 -1 2 0 1 0 -1
1 -3 1 -4z" fill="white"/>
<path d="M156 373 l-15 -6 -1 -4 c0 -5 2 -10 5 -10 1 0 9 2 17 5 9 3 17 6 18
6 2 1 2 1 -2 6 -2 2 -4 6 -4 7 -1 1 -2 2 -2 2 0 0 -7 -3 -16 -6z" fill="white"/>
<path d="M325 373 c-5 -2 -5 -2 -2 -2 4 0 4 -3 0 -4 -3 -2 -4 -4 -1 -4 5 0 18
6 15 7 0 0 -1 1 -1 2 0 1 1 2 1 2 1 1 0 1 -2 1 -1 0 -3 0 -4 0 -1 1 -4 0 -6
-2z" fill="white"/>
<path d="M340 373 c0 -2 0 -4 -1 -4 -1 -3 -8 -6 -15 -7 l-6 0 0 5 c0 5 0 5 -2
4 -2 -3 -1 -11 1 -12 2 0 15 3 20 5 2 1 4 3 4 4 1 4 1 8 0 8 -1 0 -1 -1 -1 -3z" fill="white"/>
<path d="M207 370 c-1 0 -2 0 -2 -1 0 -2 8 -7 9 -6 0 1 -1 2 -1 4 -2 4 -3 4
-6 3z" fill="white"/>
<path d="M301 366 l0 -6 3 0 c3 0 4 0 4 4 2 7 1 7 -3 7 l-4 0 0 -5z" fill="white"/>
<path d="M311 370 c0 -1 0 -3 -1 -4 0 -2 1 -3 2 -3 2 0 3 2 1 2 -1 1 -1 1 0 1
2 0 1 5 0 5 -1 0 -2 -1 -2 -1z" fill="white"/>
<path d="M136 365 c-4 -2 -3 -12 2 -14 1 -1 3 -1 3 0 2 0 2 1 0 4 -2 2 -2 5
-2 8 0 2 0 4 0 4 0 0 -2 -1 -3 -2z" fill="white"/>
<path d="M361 359 c-2 -3 -13 -18 -16 -23 l-3 -4 2 -2 c1 -1 2 -3 2 -4 0 -6 2
-5 13 8 l12 12 -3 1 c-4 0 -4 1 -4 4 -1 3 -1 6 0 7 0 4 0 4 -3 1z" fill="white"/>
<path d="M171 316 c-14 -1 -34 -5 -62 -14 -9 -3 -20 -6 -24 -7 l-8 -2 -2 -5
c-3 -13 -1 -32 6 -63 5 -22 6 -33 6 -38 l-1 -3 4 2 c5 3 40 26 56 37 6 4 18
11 25 15 7 3 19 9 25 12 11 5 17 10 21 15 l1 3 -5 6 c-7 7 -19 21 -23 27 l-3
4 -1 -3 c-2 -6 1 -13 7 -22 2 -3 2 -3 -1 0 -4 4 -8 14 -8 18 0 3 -1 3 -4 3 -1
0 -3 0 -4 -1 -1 -2 5 -12 13 -21 8 -8 8 -9 -1 -1 -5 5 -10 12 -12 17 l-1 3 -3
-5 c-4 -8 -6 -10 -12 -11 -7 -2 -19 -1 -39 3 -16 2 -11 2 7 0 17 -2 29 -3 35
-1 3 1 4 2 6 5 1 2 3 6 4 9 3 4 3 4 8 4 4 0 4 0 5 2 1 6 3 8 6 8 4 0 8 1 6 2
0 1 -4 1 -7 2 -4 0 -8 0 -9 0 -1 1 -7 0 -11 0z m-63 -29 c0 0 -2 0 -3 0 -1 1
0 1 2 1 1 0 2 0 1 -1z" fill="white"/>
<path d="M504 98 c-6 -3 -6 -10 0 -10 3 0 8 2 8 4 0 1 -4 8 -4 8 0 0 -2 -1 -4
-2z" fill="white"/>
<path d="M488 91 c-4 -3 -4 -3 -2 -4 5 -3 13 0 10 4 -1 2 -3 2 -8 0z" fill="white"/>
<path d="M509 87 c-1 -1 -4 -1 -6 -1 -3 1 -5 0 -7 -1 -2 -1 -9 -1 -12 0 -2 2
-5 2 -5 1 0 -3 15 -5 23 -4 3 1 6 2 8 4 3 2 2 3 -1 1z" fill="white"/>
</g>
</svg>
