<?xml version="1.0" encoding="UTF-8"?>
<svg width="600" height="800" viewBox="0 0 600 800" fill="none" xmlns="http://www.w3.org/2000/svg">
<g transform="translate(0,800) scale(1,-1)">
<path d="M290 710 c-11 -4 -20 -13 -26 -24 -4 -10 -6 -18 -7 -29 -1 -20 4 -37
13 -51 7 -10 8 -15 6 -20 -1 -2 -3 -5 -4 -5 -2 -1 -12 -4 -23 -6 -24 -4 -33
-6 -43 -10 l-7 -3 -1 34 c-1 35 -1 40 -5 48 -2 3 -7 8 -11 9 -7 1 -15 -3 -19
-10 -4 -10 -7 -32 -6 -60 2 -47 6 -63 17 -73 8 -8 16 -10 40 -14 15 -2 20 -4
24 -9 5 -6 5 -7 5 -74 1 -59 1 -73 4 -127 4 -71 10 -133 15 -151 3 -15 10 -22
19 -22 8 0 14 4 17 12 l3 5 1 -4 c3 -7 10 -13 18 -13 12 0 19 11 23 40 8 61
14 167 15 262 0 69 0 67 7 73 4 3 6 4 24 7 23 4 33 7 39 15 11 12 14 27 16 71
1 49 -4 70 -19 72 -5 0 -8 0 -12 -4 -9 -7 -10 -17 -10 -56 0 -17 0 -31 0 -31
-1 0 -3 1 -6 2 -10 5 -27 9 -51 12 -17 3 -19 4 -21 12 -1 5 0 9 6 18 6 10 10
18 11 29 6 32 -5 62 -26 72 -5 3 -8 3 -14 4 -5 0 -9 -1 -12 -1z m16 -3 c22 -5
35 -25 35 -56 0 -18 -4 -31 -14 -45 -4 -7 -4 -7 -4 -15 0 -8 1 -11 7 -14 1 -1
11 -3 21 -5 22 -4 35 -7 45 -11 4 -2 8 -3 9 -3 0 0 0 9 0 27 0 39 2 54 8 60 9
9 21 4 24 -9 3 -10 4 -26 4 -54 -1 -36 -3 -50 -9 -61 -3 -6 -4 -8 -10 -12 -6
-5 -14 -7 -34 -10 -20 -4 -25 -6 -29 -14 l-3 -5 -1 -68 c0 -38 -1 -78 -2 -90
-5 -93 -7 -125 -12 -163 -3 -19 -4 -27 -8 -33 -3 -6 -7 -9 -14 -9 -6 0 -11 3
-14 10 l-2 5 -1 95 c0 83 0 95 -2 95 -1 0 -1 -12 -1 -95 l0 -95 -3 -5 c-3 -7
-8 -10 -14 -10 -7 0 -10 2 -13 7 -6 10 -8 20 -12 63 -7 68 -10 135 -11 223 l0
71 -3 5 c-5 9 -10 11 -32 14 -20 3 -27 5 -35 12 -5 4 -10 15 -12 26 -5 26 -5
82 0 98 3 13 15 18 24 9 6 -6 9 -23 8 -62 -1 -13 -1 -25 0 -25 0 -1 3 0 6 2
10 4 23 8 47 12 23 4 25 5 28 11 2 4 3 12 1 16 -1 2 -4 7 -6 10 -9 13 -12 26
-12 46 1 10 1 14 3 21 6 17 17 28 31 31 6 1 6 1 12 0z" fill="black"/>
<path d="M0 400 l0 -400 300 0 300 0 0 400 0 400 -300 0 -300 0 0 -400z m316
307 c21 -10 32 -40 26 -72 -1 -11 -5 -19 -11 -29 -6 -9 -7 -13 -6 -18 2 -8 4
-9 21 -12 24 -3 41 -7 51 -12 3 -1 5 -2 6 -2 0 0 0 14 0 31 0 39 1 49 10 56 4
4 7 4 12 4 15 -2 20 -23 19 -72 -2 -44 -5 -59 -16 -71 -6 -8 -16 -11 -39 -15
-18 -3 -20 -4 -24 -7 -7 -6 -7 -4 -7 -73 -1 -95 -7 -201 -15 -262 -4 -29 -11
-40 -23 -40 -8 0 -15 6 -18 13 l-1 4 -3 -5 c-3 -8 -9 -12 -17 -12 -9 0 -16 7
-19 22 -5 18 -11 80 -15 151 -3 54 -3 68 -4 127 0 67 0 68 -5 74 -4 5 -9 7
-24 9 -24 4 -32 6 -40 14 -9 8 -13 20 -15 43 -3 31 -2 69 1 82 3 11 8 17 16
18 10 1 16 -4 20 -17 1 -4 1 -14 2 -40 l1 -34 7 3 c10 4 19 6 43 10 11 2 21 5
23 6 1 0 3 3 4 5 2 5 1 10 -6 20 -9 14 -14 31 -13 51 1 17 7 31 15 41 9 9 18
13 30 13 6 -1 9 -1 14 -4z" fill="white"/>
<path d="M294 707 c-14 -3 -25 -14 -31 -31 -2 -7 -2 -11 -3 -21 0 -20 3 -33
12 -46 2 -3 5 -8 6 -10 2 -4 1 -12 -1 -16 -3 -6 -5 -7 -28 -11 -24 -4 -37 -8
-47 -12 -3 -2 -6 -3 -6 -2 -1 0 -1 12 0 25 1 39 -2 56 -8 62 -9 9 -21 4 -24
-9 -5 -16 -5 -72 0 -98 2 -11 7 -22 12 -26 8 -7 15 -9 35 -12 22 -3 27 -5 32
-14 l3 -5 0 -71 c1 -88 4 -155 11 -223 4 -43 6 -53 12 -63 3 -5 6 -7 13 -7 6
0 11 3 14 10 l3 5 0 95 c0 83 0 95 1 95 2 0 2 -12 2 -95 l1 -95 2 -5 c3 -7 8
-10 14 -10 13 0 18 9 22 42 5 38 7 70 12 163 1 12 2 52 2 90 l1 68 3 5 c4 8 9
10 29 14 20 3 28 5 34 10 6 4 7 6 10 12 6 11 8 25 9 61 0 28 -1 44 -4 54 -3
13 -15 18 -24 9 -6 -6 -8 -21 -8 -60 0 -18 0 -27 0 -27 -1 0 -5 1 -9 3 -10 4
-23 7 -45 11 -10 2 -20 4 -21 5 -6 3 -7 6 -7 14 0 8 0 8 4 15 10 14 14 27 14
45 0 31 -13 51 -35 56 -6 1 -6 1 -12 0z" fill="white"/>
</g>
</svg>
