<?xml version="1.0" encoding="UTF-8"?>
<svg width="600" height="800" viewBox="0 0 600 800" fill="none" xmlns="http://www.w3.org/2000/svg">
<g transform="translate(0,800) scale(1,-1)">
<path d="M262 731 c-6 -3 -11 -8 -16 -16 -13 -20 -32 -70 -35 -90 -3 -17 -2
-24 14 -117 10 -54 16 -99 18 -125 0 -8 1 -31 1 -51 2 -98 4 -179 5 -186 2
-19 8 -34 14 -38 3 -2 5 -2 10 -2 14 0 18 5 24 28 1 4 2 9 2 11 1 3 1 2 3 -7
4 -23 11 -32 24 -32 11 0 17 7 21 25 4 15 5 26 6 76 3 135 4 171 7 192 5 35 8
55 21 125 17 92 17 96 6 128 -10 31 -23 59 -32 70 -7 8 -12 11 -20 11 -9 0
-16 -5 -19 -15 -1 -6 -1 -20 1 -28 0 -3 1 -6 1 -7 0 0 -3 1 -6 2 -5 1 -16 1
-20 -1 -2 -1 -3 -1 -4 -1 0 1 1 4 2 8 2 10 1 25 -2 31 -3 7 -8 10 -16 11 -5 0
-7 0 -10 -2z m17 -2 c2 -1 4 -3 5 -5 4 -6 5 -10 5 -21 -1 -13 -4 -23 -8 -27
-11 -13 -19 -37 -19 -56 0 -17 6 -61 9 -69 2 -6 10 -5 12 3 1 4 1 12 0 15 0 2
-3 6 -6 9 -2 4 -5 9 -7 11 -11 23 -7 59 11 83 6 7 11 10 20 11 10 0 16 -2 24
-10 22 -25 23 -71 2 -95 -7 -9 -7 -9 -7 -17 0 -8 2 -13 5 -14 4 0 7 1 8 3 1 3
9 45 11 64 2 21 -5 46 -19 62 -3 4 -4 6 -6 13 -3 13 -3 25 1 32 4 6 8 9 15 9
9 0 15 -5 24 -18 7 -11 22 -47 30 -70 3 -12 3 -13 3 -29 0 -18 0 -21 -16 -104
-10 -55 -18 -103 -20 -132 -1 -4 -1 -24 -2 -46 -4 -163 -4 -180 -7 -192 -5
-24 -10 -30 -23 -30 -10 1 -13 4 -17 20 -6 18 -6 22 -6 97 0 47 0 70 -1 70 -1
-1 -1 -25 -1 -69 0 -70 0 -78 -4 -92 -5 -18 -8 -24 -16 -26 -11 -3 -19 2 -23
16 -5 15 -6 25 -7 77 -3 175 -3 181 -5 199 -4 33 -13 88 -21 131 -14 79 -14
87 -2 120 16 46 29 70 42 76 3 2 12 2 16 1z m-2 -154 c5 -7 7 -16 3 -23 -1 -3
-6 -2 -7 0 -2 2 -5 20 -7 36 l0 5 3 -7 c2 -3 6 -8 8 -11z m58 -5 c-2 -10 -3
-18 -4 -19 -2 -2 -6 -1 -7 1 -2 3 -3 13 -1 16 1 2 3 5 5 7 2 2 5 7 7 9 1 3 3
4 3 4 0 -1 -1 -9 -3 -18z" fill="black"/>
<path d="M0 400 l0 -400 300 0 300 0 0 400 0 400 -300 0 -300 0 0 -400z m282
330 c6 -4 8 -10 9 -22 0 -7 0 -12 -1 -17 -1 -4 -2 -7 -2 -8 1 0 2 0 4 1 4 2
15 2 20 1 3 -1 6 -2 6 -2 0 1 -1 4 -1 7 -2 8 -2 22 -1 28 3 10 10 15 19 15 15
0 25 -14 41 -52 9 -20 16 -41 18 -50 3 -18 2 -30 -13 -107 -13 -70 -16 -90
-21 -125 -3 -21 -4 -57 -7 -192 -1 -50 -2 -61 -6 -76 -4 -18 -10 -25 -21 -25
-13 0 -20 9 -24 32 -2 9 -2 10 -3 7 0 -2 -1 -7 -2 -11 -6 -23 -10 -28 -24 -28
-5 0 -7 0 -10 2 -6 4 -12 19 -14 38 -1 7 -3 88 -5 186 0 20 -1 43 -1 51 -2 26
-8 71 -18 125 -16 93 -17 100 -14 117 3 20 22 70 35 90 5 8 10 13 16 16 5 3
14 2 20 -1z" fill="white"/>
<path d="M263 728 c-13 -6 -26 -30 -42 -76 -12 -33 -12 -41 2 -120 8 -43 17
-98 21 -131 2 -18 2 -24 5 -199 1 -52 2 -62 7 -77 4 -14 12 -19 23 -16 8 2 11
8 16 26 4 14 4 22 4 92 0 44 0 68 1 69 1 0 1 -23 1 -70 0 -75 0 -79 6 -97 4
-16 7 -19 17 -20 7 0 12 2 15 6 3 4 6 13 8 24 3 12 3 29 7 192 1 22 1 42 2 46
2 29 10 77 20 132 16 83 16 86 16 104 0 16 0 17 -3 29 -8 23 -23 59 -30 70 -9
13 -15 18 -24 18 -7 0 -11 -3 -15 -9 -4 -7 -4 -19 -1 -32 2 -7 3 -9 6 -13 14
-16 21 -41 19 -62 -2 -19 -10 -61 -11 -64 -1 -2 -4 -3 -8 -3 -3 1 -5 6 -5 14
0 8 0 8 7 17 21 24 20 70 -2 95 -8 8 -14 10 -24 10 -9 -1 -14 -4 -20 -11 -18
-24 -22 -60 -11 -83 2 -2 5 -7 7 -11 3 -3 6 -7 6 -9 1 -3 1 -11 0 -15 -2 -8
-10 -9 -12 -3 -3 8 -9 52 -9 69 0 19 8 43 19 56 4 4 7 14 8 27 0 11 -1 15 -5
21 -1 2 -3 4 -5 5 -4 1 -13 1 -16 -1z" fill="white"/>
<path d="M266 588 c2 -16 5 -34 7 -36 1 -2 6 -3 7 0 4 7 2 16 -3 23 -2 3 -6 8
-8 11 l-3 7 0 -5z" fill="white"/>
<path d="M335 584 c-2 -2 -5 -7 -7 -9 -2 -2 -4 -5 -5 -7 -2 -3 -1 -13 1 -16 1
-2 5 -3 7 -1 1 2 7 34 7 37 0 0 -2 -1 -3 -4z" fill="white"/>
</g>
</svg>
