<?xml version="1.0" encoding="UTF-8"?>
<svg width="600" height="800" viewBox="0 0 600 800" fill="none" xmlns="http://www.w3.org/2000/svg">
<g transform="translate(0,800) scale(1,-1)">
<path d="M290 718 c-20 -7 -31 -29 -31 -61 0 -20 4 -35 13 -50 10 -17 9 -23
-8 -34 -12 -8 -19 -15 -24 -25 -8 -15 -10 -27 -15 -70 -2 -16 -6 -43 -8 -59
-6 -55 -4 -74 9 -80 8 -4 16 1 20 13 1 3 2 9 3 11 0 3 1 -32 0 -98 0 -108 0
-118 4 -133 4 -14 9 -19 20 -19 10 0 15 5 19 19 4 14 5 27 7 110 1 45 2 83 3
85 1 3 1 3 1 -4 1 -4 1 -28 2 -52 3 -113 3 -126 9 -143 4 -11 9 -15 19 -15 8
0 12 3 16 11 7 14 7 13 6 134 0 91 0 107 2 101 2 -12 5 -18 12 -21 9 -4 18 4
21 20 2 14 2 24 -5 75 -1 16 -4 39 -6 52 -6 55 -13 71 -38 88 -12 8 -14 12
-14 18 0 5 0 7 5 15 11 18 14 29 13 53 0 12 0 17 -2 24 -4 16 -13 28 -24 34
-5 2 -7 2 -15 3 -7 0 -11 0 -14 -2z m27 -3 c19 -9 28 -32 27 -63 -1 -19 -5
-32 -14 -46 -5 -6 -6 -12 -5 -19 1 -5 5 -9 15 -16 12 -8 19 -15 24 -25 8 -17
9 -23 19 -103 5 -41 5 -50 5 -66 1 -22 -1 -28 -7 -33 -2 -3 -4 -4 -7 -4 -12 0
-16 10 -19 52 -1 8 -1 18 -2 23 -1 11 -11 71 -12 75 l-1 3 0 -4 c0 -2 2 -17 5
-34 6 -39 8 -55 8 -70 0 -8 1 -56 1 -108 1 -120 0 -137 -7 -152 -3 -7 -6 -9
-14 -10 -5 0 -6 0 -9 2 -4 3 -7 8 -10 16 -4 14 -5 35 -7 129 -1 46 -2 63 -3
68 0 2 -3 3 -3 0 -1 -2 -3 -39 -4 -100 -2 -71 -3 -88 -8 -101 -4 -10 -8 -14
-17 -14 -6 0 -11 3 -14 10 -8 15 -8 28 -7 165 1 124 0 115 8 164 6 31 7 38 5
38 0 0 -1 -5 -2 -10 0 -6 -2 -18 -4 -27 -4 -21 -7 -43 -8 -61 -2 -32 -5 -45
-11 -51 -5 -5 -12 -4 -17 2 -8 9 -9 28 -2 84 3 21 6 47 7 59 3 24 5 33 9 46 6
17 13 26 29 37 5 3 10 7 11 9 6 6 5 16 0 25 -11 17 -15 30 -15 52 0 18 2 28 8
39 4 10 15 19 25 21 5 2 18 1 23 -2z" fill="black"/>
<path d="M0 400 l0 -400 300 0 300 0 0 400 0 400 -300 0 -300 0 0 -400z m319
317 c11 -6 20 -18 24 -34 2 -7 2 -12 2 -24 1 -24 -2 -35 -13 -53 -5 -8 -5 -10
-5 -15 0 -6 2 -10 14 -18 25 -17 32 -33 38 -88 2 -13 5 -36 6 -52 7 -51 7 -61
5 -75 -3 -16 -12 -24 -21 -20 -7 3 -10 9 -12 21 -2 6 -2 -10 -2 -101 1 -121 1
-120 -6 -134 -4 -8 -8 -11 -16 -11 -10 0 -15 4 -19 15 -6 17 -6 30 -9 143 -1
24 -1 48 -2 52 0 7 0 7 -1 4 -1 -2 -2 -40 -3 -85 -2 -83 -3 -96 -7 -110 -4
-14 -9 -19 -19 -19 -11 0 -16 5 -20 19 -4 15 -4 25 -4 133 1 66 0 101 0 98 -1
-2 -2 -8 -3 -11 -4 -12 -12 -17 -20 -13 -13 6 -15 25 -9 80 2 16 6 43 8 59 5
43 7 55 15 70 5 10 12 17 24 25 17 11 18 17 8 34 -9 15 -13 30 -13 50 0 32 11
54 31 61 3 2 7 2 14 2 8 -1 10 -1 15 -3z" fill="white"/>
<path d="M294 717 c-10 -2 -21 -11 -25 -21 -6 -11 -8 -21 -8 -39 0 -22 4 -35
15 -52 5 -9 6 -19 0 -25 -1 -2 -6 -6 -11 -9 -16 -11 -23 -20 -29 -37 -4 -13
-6 -22 -9 -46 -1 -12 -4 -38 -7 -59 -7 -56 -6 -75 2 -84 5 -6 12 -7 17 -2 6 6
9 19 11 51 1 18 4 40 8 61 2 9 4 21 4 27 1 5 2 10 2 10 2 0 1 -7 -5 -38 -8
-49 -7 -40 -8 -164 -1 -137 -1 -150 7 -165 3 -7 8 -10 14 -10 9 0 13 4 17 14
5 13 6 30 8 101 1 61 3 98 4 100 0 3 3 2 3 0 1 -5 2 -22 3 -68 2 -94 3 -115 7
-129 3 -8 6 -13 10 -16 3 -2 4 -2 9 -2 8 1 11 3 14 10 7 15 8 32 7 152 0 52
-1 100 -1 108 0 15 -2 31 -8 70 -3 17 -5 32 -5 34 l0 4 1 -3 c1 -4 11 -64 12
-75 1 -5 1 -15 2 -23 3 -42 7 -52 19 -52 3 0 5 1 7 4 6 5 8 11 7 33 0 16 0 25
-5 66 -10 80 -11 86 -19 103 -5 10 -12 17 -24 25 -10 7 -14 11 -15 16 -1 7 0
13 5 19 9 14 13 27 14 46 1 31 -8 54 -27 63 -5 3 -18 4 -23 2z" fill="white"/>
</g>
</svg>
