<?xml version="1.0" encoding="UTF-8"?>
<svg width="600" height="800" viewBox="0 0 600 800" fill="none" xmlns="http://www.w3.org/2000/svg">
<g transform="translate(0,800) scale(1,-1)">
<path d="M332 672 c-22 -6 -37 -24 -45 -53 -2 -7 -2 -11 -2 -25 0 -15 0 -19 2
-26 3 -12 6 -19 12 -27 l5 -8 -5 -1 c-23 -5 -36 -23 -45 -58 -5 -21 -17 -88
-19 -112 -2 -19 1 -37 6 -45 1 -2 2 -3 2 -4 0 0 -6 -6 -14 -14 -23 -22 -39
-42 -47 -59 -11 -23 -9 -45 4 -56 11 -11 25 -9 42 5 l7 6 0 -8 c0 -16 6 -28
17 -34 11 -7 24 -4 39 9 10 9 64 67 77 84 l7 10 4 -4 c5 -6 9 -7 15 -7 15 2
24 21 27 58 2 18 3 116 1 134 -3 40 -13 60 -38 77 -10 6 -15 11 -15 15 0 1 2
4 5 8 9 11 15 24 19 41 2 12 2 36 -1 46 -6 21 -17 37 -31 44 -10 5 -20 6 -29
4z m22 -4 c12 -4 22 -13 29 -27 8 -14 9 -22 9 -41 0 -14 0 -18 -2 -26 -10 -37
-36 -60 -60 -54 -9 2 -15 6 -23 13 -5 6 -8 10 -11 17 -8 15 -9 23 -9 44 0 14
0 18 2 25 6 22 18 39 34 47 8 4 21 5 31 2z m-44 -141 c2 -1 6 -4 10 -6 6 -3 7
-3 17 -3 9 0 11 0 17 2 3 2 7 4 9 6 l4 3 1 -3 c1 -4 5 -8 16 -15 13 -9 20 -16
26 -29 7 -15 10 -29 11 -66 1 -30 0 -91 -2 -113 -3 -31 -9 -47 -20 -54 -10 -6
-20 1 -26 18 -4 11 -4 20 -4 55 0 33 -1 82 -3 93 -1 9 -2 4 -1 -7 1 -6 1 -35
2 -64 0 -58 1 -67 5 -79 l2 -7 -5 -7 c-6 -8 -13 -16 -44 -50 -38 -42 -47 -49
-61 -49 -18 0 -30 19 -27 41 4 26 20 49 62 93 6 5 10 10 10 11 -1 2 -25 -24
-41 -42 -16 -18 -25 -34 -30 -48 -2 -8 -5 -11 -13 -18 -9 -6 -15 -9 -22 -9
-11 0 -18 5 -23 16 -2 5 -2 6 -2 17 0 9 0 12 2 18 4 10 9 18 17 30 15 20 37
42 63 62 12 10 15 15 17 26 2 15 5 82 4 88 -1 4 -1 3 -1 -3 0 -2 0 -15 -1 -27
-2 -52 -4 -64 -8 -70 -1 -2 -7 -7 -13 -12 l-12 -10 -3 3 c-6 7 -8 25 -6 45 2
23 14 91 19 110 5 21 12 36 21 45 9 8 17 12 26 12 4 0 5 0 7 -3z" fill="black"/>
<path d="M0 400 l0 -400 300 0 300 0 0 400 0 400 -300 0 -300 0 0 -400z m349
272 c20 -4 36 -21 43 -48 3 -10 3 -34 1 -46 -4 -17 -10 -30 -19 -41 -3 -4 -5
-7 -5 -8 0 -4 5 -9 15 -15 25 -17 35 -37 38 -77 2 -18 1 -116 -1 -134 -3 -37
-12 -56 -27 -58 -6 0 -10 1 -15 7 l-4 4 -7 -10 c-13 -17 -67 -75 -77 -84 -15
-13 -28 -16 -39 -9 -11 6 -17 18 -17 34 l0 8 -7 -6 c-17 -14 -31 -16 -42 -5
-13 11 -15 33 -4 56 8 17 24 37 47 59 8 8 14 14 14 14 0 1 -1 2 -2 4 -5 8 -8
26 -6 45 2 24 14 91 19 112 9 35 22 53 45 58 l5 1 -5 8 c-6 8 -9 15 -12 27 -2
7 -2 11 -2 26 0 14 0 18 2 25 8 29 23 47 45 53 6 1 10 1 17 0z" fill="white"/>
<path d="M331 669 c-19 -4 -35 -24 -42 -50 -2 -7 -2 -11 -2 -25 0 -15 0 -19 2
-26 8 -31 30 -51 52 -49 21 3 41 24 49 55 2 8 2 12 2 26 0 13 0 17 -2 24 -4
17 -15 32 -26 40 -9 5 -23 7 -33 5z" fill="white"/>
<path d="M294 529 c-18 -6 -31 -25 -38 -56 -5 -19 -17 -87 -19 -110 -2 -20 0
-38 6 -45 l3 -3 12 10 c6 5 12 10 13 12 4 6 6 18 8 70 1 12 1 25 1 27 0 6 0 7
1 3 1 -6 -2 -73 -4 -88 -2 -11 -5 -16 -17 -26 -26 -20 -48 -42 -63 -62 -8 -12
-13 -20 -17 -30 -2 -6 -2 -9 -2 -18 0 -11 0 -12 2 -17 5 -11 12 -16 23 -16 7
0 13 3 22 9 8 7 11 10 13 18 5 14 14 30 30 48 16 18 40 44 41 42 0 -1 -4 -6
-10 -11 -42 -44 -58 -67 -62 -93 -3 -22 9 -41 27 -41 14 0 23 7 61 49 31 34
38 42 44 50 l5 7 -2 7 c-4 12 -5 21 -5 79 -1 29 -1 58 -2 64 -1 11 0 16 1 7 2
-11 3 -60 3 -93 0 -22 0 -36 1 -41 2 -15 7 -26 13 -31 14 -10 29 5 33 33 3 14
4 29 5 67 1 41 0 88 -2 104 -5 28 -14 43 -35 57 -11 7 -15 11 -16 15 l-1 3 -4
-3 c-2 -2 -6 -4 -9 -6 -6 -2 -8 -2 -17 -2 -10 0 -11 0 -17 3 -4 2 -8 5 -10 6
-2 3 -3 3 -7 3 -2 0 -6 -1 -9 -1z" fill="white"/>
</g>
</svg>
