<?xml version="1.0" encoding="UTF-8"?>
<svg width="600" height="800" viewBox="0 0 600 800" fill="none" xmlns="http://www.w3.org/2000/svg">
<g transform="translate(0,800) scale(1,-1)">
<path d="M124 523 c-9 -4 -17 -11 -23 -20 -7 -10 -12 -29 -12 -43 0 -5 0 -5
-2 -4 -1 1 -4 1 -6 1 -10 -2 -18 -17 -18 -35 0 -9 2 -16 7 -26 10 -21 25 -40
38 -51 13 -9 22 -12 49 -14 24 -2 43 -4 63 -7 68 -11 239 -28 283 -28 20 -1
25 1 32 8 10 10 13 31 6 44 l-2 4 3 3 c5 6 7 12 7 23 0 11 -2 16 -9 23 -10 10
-17 12 -84 29 -26 7 -49 13 -50 14 -3 1 -4 1 -4 9 0 6 -1 10 -3 13 -5 9 -20
19 -36 23 -5 1 -20 4 -35 7 -15 2 -37 6 -49 9 -27 5 -35 6 -45 4 -15 -3 -25
-11 -37 -31 -7 -12 -9 -14 -11 -12 -1 0 -2 5 -4 10 -3 14 -10 27 -18 35 -9 9
-16 12 -27 13 -6 0 -11 -1 -13 -1z m26 -6 c15 -7 26 -24 31 -45 2 -11 1 -29
-2 -40 -5 -16 -15 -30 -27 -36 -5 -2 -7 -2 -14 -2 -8 0 -10 0 -15 2 -16 8 -28
28 -31 51 -5 48 26 86 58 70z m126 -16 c13 -2 35 -6 50 -9 15 -2 31 -5 36 -7
17 -4 29 -12 35 -21 2 -4 2 -5 2 -13 0 -7 0 -9 -2 -13 -2 -4 -8 -10 -12 -11
-5 -2 -24 -1 -43 2 -21 4 -68 13 -83 16 -7 2 -11 3 -11 2 -1 -1 -1 -1 0 -2 1
-1 25 -7 52 -12 76 -15 90 -15 99 3 1 3 2 5 3 5 0 0 16 -4 79 -21 15 -4 31 -8
36 -10 21 -7 30 -16 30 -32 0 -12 -5 -21 -12 -24 -8 -3 -20 -3 -71 5 -52 8
-69 10 -88 11 -16 0 -18 0 -18 -1 0 -1 3 -2 14 -2 20 -1 37 -3 79 -9 57 -9 71
-11 82 -9 4 1 4 1 6 -3 2 -4 2 -6 2 -15 1 -13 -2 -19 -9 -25 -6 -5 -11 -7 -27
-7 -38 0 -219 18 -278 28 -23 3 -45 6 -68 7 -22 2 -29 3 -36 6 -17 7 -36 29
-50 57 -7 14 -9 22 -7 32 1 10 4 16 9 20 4 4 5 4 10 4 3 0 4 -2 5 -10 3 -16 9
-30 19 -40 9 -10 15 -12 28 -13 9 0 9 0 16 3 18 9 30 31 32 59 0 8 1 10 2 10
2 0 6 4 11 13 9 16 18 25 28 28 7 3 8 3 18 3 7 0 14 -1 32 -5z" fill="black"/>
<path d="M0 400 l0 -400 300 0 300 0 0 400 0 400 -300 0 -300 0 0 -400z m151
121 c4 -2 9 -6 13 -10 8 -8 15 -21 18 -35 2 -5 3 -10 4 -10 2 -2 4 0 11 12 12
20 22 28 37 31 10 2 18 1 45 -4 12 -3 34 -7 49 -9 15 -3 30 -6 35 -7 16 -4 31
-14 36 -23 2 -3 3 -7 3 -13 0 -8 1 -8 4 -9 1 -1 24 -7 50 -14 67 -17 74 -19
84 -29 7 -7 9 -12 9 -23 0 -11 -2 -17 -7 -23 l-3 -3 2 -4 c7 -13 4 -34 -6 -44
-7 -7 -12 -9 -32 -8 -44 0 -215 17 -283 28 -20 3 -39 5 -63 7 -27 2 -36 5 -49
14 -13 11 -28 30 -38 51 -5 10 -7 17 -7 26 0 18 8 33 18 35 2 0 5 0 6 -1 2 -1
2 -1 2 4 0 19 8 41 19 52 9 9 16 12 29 12 7 0 9 -1 14 -3z" fill="white"/>
<path d="M126 520 c-19 -7 -32 -28 -34 -55 -1 -18 1 -30 8 -45 5 -10 14 -19
23 -24 5 -2 7 -2 15 -2 11 -1 18 2 26 11 11 11 17 27 18 47 1 23 -6 43 -21 57
-9 10 -24 14 -35 11z" fill="white"/>
<path d="M233 505 c-15 -3 -24 -11 -35 -30 -5 -9 -9 -13 -11 -13 -1 0 -2 -2
-2 -10 -2 -28 -14 -50 -32 -59 -7 -3 -7 -3 -16 -3 -13 1 -19 3 -28 13 -10 10
-16 24 -19 40 -1 8 -2 10 -5 10 -5 0 -6 0 -10 -4 -5 -4 -8 -10 -9 -20 -2 -10
0 -18 7 -32 14 -28 33 -50 50 -57 7 -3 14 -4 36 -6 23 -1 45 -4 68 -7 59 -10
240 -28 278 -28 16 0 21 2 27 7 7 6 10 12 9 25 0 9 0 11 -2 15 -2 4 -2 4 -6 3
-11 -2 -25 0 -82 9 -42 6 -59 8 -79 9 -11 0 -14 1 -14 2 0 1 2 1 18 1 19 -1
36 -3 88 -11 51 -8 63 -8 71 -5 7 3 12 12 12 24 0 16 -9 25 -30 32 -5 2 -21 6
-36 10 -63 17 -79 21 -79 21 -1 0 -2 -2 -3 -5 -9 -18 -23 -18 -99 -3 -27 5
-51 11 -52 12 -1 1 -1 1 0 2 0 1 4 0 11 -2 15 -3 62 -12 83 -16 19 -3 38 -4
43 -2 4 1 10 7 12 11 2 4 2 6 2 13 0 8 0 9 -2 13 -6 9 -18 17 -35 21 -5 2 -21
5 -36 7 -15 3 -37 7 -50 9 -18 4 -25 5 -32 5 -5 0 -10 0 -11 -1z" fill="white"/>
</g>
</svg>
