<?xml version="1.0" encoding="UTF-8"?>
<svg width="600" height="800" viewBox="0 0 600 800" fill="none" xmlns="http://www.w3.org/2000/svg">
<g transform="translate(0,800) scale(1,-1)">
<path d="M273 661 c-14 -4 -26 -15 -32 -32 -2 -6 -2 -10 -3 -21 0 -12 0 -15 2
-22 2 -9 7 -20 13 -28 4 -6 4 -6 -5 -11 -16 -9 -29 -8 -86 4 -15 3 -31 6 -35
7 -10 0 -21 -2 -27 -6 -9 -6 -15 -17 -14 -30 1 -17 11 -29 31 -35 4 -2 22 -6
40 -10 35 -7 45 -9 61 -17 11 -6 21 -14 23 -19 2 -6 14 -47 15 -53 2 -12 0
-29 -7 -46 -2 -5 -12 -24 -21 -44 -43 -89 -52 -113 -51 -137 1 -9 1 -11 4 -16
8 -16 23 -18 37 -4 8 8 17 23 39 67 12 23 25 48 29 56 10 15 22 32 29 38 4 4
5 5 9 5 6 0 12 -3 24 -11 12 -8 25 -20 45 -41 19 -20 45 -45 54 -52 18 -14 34
-14 43 0 9 14 8 34 -4 55 -12 19 -36 48 -71 86 -33 35 -41 46 -44 64 -3 9 -4
64 -3 71 1 6 4 9 13 20 15 18 18 21 48 43 23 18 36 32 41 41 3 7 4 8 4 18 0
10 -1 12 -3 17 -8 15 -22 16 -41 4 -4 -3 -16 -11 -26 -19 -53 -39 -57 -42 -76
-38 -5 0 -10 1 -10 1 0 1 1 5 2 10 3 8 3 9 3 24 0 12 0 17 -1 23 -6 23 -21 37
-39 39 -3 0 -8 -1 -10 -1z m21 -5 c15 -7 25 -23 27 -47 1 -9 1 -12 0 -20 -1
-5 -3 -12 -4 -15 l-2 -6 -5 1 c-2 0 -9 1 -15 1 -13 0 -20 -3 -30 -10 l-6 -5
-2 3 c-5 5 -11 16 -14 25 -2 7 -2 9 -2 22 0 12 0 14 2 22 5 14 13 23 24 28 9
4 18 5 27 1z m168 -33 c5 -3 9 -11 10 -18 0 -7 -2 -16 -6 -23 -6 -10 -13 -17
-57 -51 -16 -13 -35 -33 -41 -45 -2 -4 -3 -6 -3 -17 0 -7 0 -23 1 -35 2 -42 5
-47 50 -96 37 -39 64 -73 72 -90 3 -7 6 -19 6 -25 0 -9 -5 -20 -12 -24 -5 -4
-14 -4 -21 -1 -12 5 -20 13 -62 55 -35 36 -45 44 -59 52 -15 8 -19 8 -30 -4
-15 -16 -28 -38 -54 -89 -24 -48 -31 -60 -41 -69 -6 -6 -10 -8 -16 -8 -10 0
-17 7 -19 21 -4 21 5 48 45 130 29 60 32 66 34 85 1 13 0 18 -13 62 -1 6 -4
12 -5 14 -5 7 -18 15 -34 21 -12 5 -24 8 -48 12 -39 8 -52 12 -61 21 -8 9 -12
20 -9 31 2 8 5 12 10 16 11 8 25 8 55 2 37 -9 51 -11 65 -12 19 0 27 2 43 15
17 14 30 17 55 11 14 -4 20 -5 28 -3 12 3 16 6 56 36 15 11 30 21 33 24 12 7
21 7 28 2z" fill="black"/>
<path d="M0 400 l0 -400 300 0 300 0 0 400 0 400 -300 0 -300 0 0 -400z m297
258 c11 -6 20 -19 25 -35 1 -6 1 -11 1 -23 0 -15 0 -16 -3 -24 -1 -5 -2 -9 -2
-10 0 0 5 -1 10 -1 19 -4 23 -1 76 38 10 8 22 16 26 19 19 12 33 11 41 -4 2
-5 3 -7 3 -17 0 -10 -1 -11 -4 -18 -5 -9 -18 -23 -41 -41 -30 -22 -33 -25 -48
-43 -9 -11 -12 -14 -13 -20 -1 -7 0 -62 3 -71 3 -18 11 -29 44 -64 35 -38 59
-67 71 -86 12 -21 13 -41 4 -55 -9 -14 -25 -14 -43 0 -9 7 -35 32 -54 52 -20
21 -33 33 -45 41 -12 8 -18 11 -24 11 -4 0 -5 -1 -9 -5 -7 -6 -19 -23 -29 -38
-4 -8 -17 -33 -29 -56 -12 -23 -25 -47 -28 -53 -13 -19 -23 -26 -34 -23 -6 2
-11 6 -14 13 -3 5 -3 7 -4 16 -1 24 8 48 51 137 9 20 19 39 21 44 7 17 9 34 7
46 -1 6 -13 47 -15 53 -2 5 -12 13 -23 19 -16 8 -26 10 -61 17 -18 4 -36 8
-40 10 -20 6 -30 18 -31 35 -1 13 5 24 14 30 6 4 17 6 27 6 4 -1 20 -4 35 -7
57 -12 70 -13 86 -4 9 5 9 5 5 11 -6 8 -11 19 -13 28 -2 7 -2 10 -2 22 1 16 3
25 10 35 12 17 32 23 49 15z" fill="white"/>
<path d="M275 658 c-15 -3 -26 -14 -32 -31 -2 -8 -2 -10 -2 -22 0 -13 0 -15 2
-22 3 -9 9 -20 14 -25 l2 -3 6 5 c10 7 17 10 30 10 6 0 13 -1 15 -1 l5 -1 2 6
c1 3 3 10 4 15 4 23 -4 50 -18 61 -8 7 -19 10 -28 8z" fill="white"/>
<path d="M445 626 c-7 -2 -15 -7 -44 -29 -40 -30 -44 -33 -56 -36 -8 -2 -14
-1 -28 3 -25 6 -38 3 -55 -11 -16 -13 -24 -15 -43 -15 -14 1 -28 3 -65 12 -30
6 -44 6 -55 -2 -5 -4 -8 -8 -10 -16 -3 -11 1 -22 9 -31 9 -9 22 -13 61 -21 24
-4 36 -7 48 -12 16 -6 29 -14 34 -21 1 -2 4 -8 5 -14 13 -44 14 -49 13 -62 -2
-19 -5 -25 -34 -85 -40 -82 -49 -109 -45 -130 2 -14 9 -21 19 -21 6 0 10 2 16
8 10 9 17 21 41 69 26 51 39 73 54 89 11 12 15 12 30 4 14 -8 24 -16 59 -52
42 -42 50 -50 62 -55 7 -3 16 -3 21 1 7 4 12 15 12 24 0 6 -3 18 -6 25 -8 17
-35 51 -72 90 -45 49 -48 54 -50 96 -1 12 -1 28 -1 35 0 11 1 13 3 17 6 12 25
32 41 45 29 23 43 34 48 40 14 14 18 30 12 44 -5 10 -14 14 -24 11z" fill="white"/>
</g>
</svg>
