<?xml version="1.0" encoding="UTF-8"?>
<svg width="600" height="800" viewBox="0 0 600 800" fill="none" xmlns="http://www.w3.org/2000/svg">
<g transform="translate(0,800) scale(1,-1)">
<path d="M269 560 c-32 -4 -56 -15 -76 -33 -24 -23 -38 -57 -36 -87 l1 -9 -5
-4 c-13 -11 -22 -24 -27 -43 -3 -9 -4 -24 -4 -35 4 -53 37 -85 75 -72 7 3 13
7 17 12 2 2 4 3 4 3 0 0 3 -3 7 -7 14 -18 30 -32 41 -37 6 -2 17 -3 22 -1 9 4
18 17 20 27 0 2 0 4 1 4 0 0 2 -2 4 -3 11 -9 21 -12 42 -11 20 1 45 6 71 13
19 6 26 10 30 22 2 5 2 8 2 17 0 16 -1 22 -8 28 l-5 5 3 5 c5 7 12 20 14 29 3
10 4 32 2 43 -8 60 -50 113 -101 128 -25 7 -68 10 -94 6z m64 -3 c29 -4 45
-10 64 -23 30 -20 55 -59 64 -100 2 -13 2 -39 -1 -49 -5 -17 -12 -29 -23 -39
-7 -7 -25 -16 -49 -25 -23 -9 -27 -11 -31 -14 -5 -4 -4 -5 1 -2 3 2 10 5 18 7
27 11 53 23 62 31 l5 4 5 -5 c7 -6 8 -11 8 -26 0 -14 -2 -20 -9 -26 -6 -5 -12
-8 -35 -13 -31 -8 -64 -12 -78 -9 -8 2 -17 6 -21 11 -4 4 -4 4 -3 10 1 9 1 29
0 48 l-1 17 3 6 c5 8 16 20 20 21 32 6 63 14 62 15 -1 0 -4 0 -8 -1 -8 -1 -58
-12 -67 -15 -12 -3 -14 -9 -12 -32 3 -47 2 -69 -6 -84 -4 -10 -12 -15 -22 -15
-7 0 -14 2 -22 7 -8 5 -22 20 -31 31 l-6 8 3 4 c6 8 14 26 16 37 0 4 1 5 2 5
3 -1 4 -6 8 -36 3 -18 4 -18 2 0 -2 23 -8 51 -14 67 -3 9 -9 22 -12 24 -1 1 0
-2 3 -8 5 -9 10 -23 12 -34 2 -5 2 -6 0 -8 -1 0 -2 -4 -3 -7 -1 -3 -2 -10 -4
-15 -16 -50 -65 -63 -93 -24 -15 21 -20 52 -12 81 6 24 19 41 38 51 7 4 10 7
8 7 -1 0 -4 -1 -7 -3 -3 -2 -6 -3 -7 -3 0 1 0 6 0 12 0 29 10 54 31 76 22 22
48 34 86 37 8 1 44 0 56 -1z m-14 -184 c-3 -4 -7 -8 -8 -10 -1 -2 -2 -4 -3 -4
-1 0 1 10 2 12 2 4 6 6 14 8 0 0 -2 -3 -5 -6z" fill="black"/>
<path d="M0 400 l0 -400 300 0 300 0 0 400 0 400 -300 0 -300 0 0 -400z m320
161 c16 -1 33 -4 43 -7 39 -12 74 -45 91 -89 5 -13 8 -27 10 -39 2 -11 1 -33
-2 -43 -2 -9 -9 -22 -14 -29 l-3 -5 5 -5 c7 -6 8 -12 8 -28 0 -9 0 -12 -2 -17
-4 -12 -11 -16 -30 -22 -26 -7 -51 -12 -71 -13 -21 -1 -31 2 -42 11 -2 1 -4 3
-4 3 -1 0 -1 -2 -1 -4 -2 -10 -11 -23 -20 -27 -5 -2 -16 -1 -22 1 -11 5 -27
19 -41 37 -4 4 -7 7 -7 7 0 0 -2 -1 -4 -3 -4 -5 -10 -9 -17 -12 -28 -10 -55 5
-68 39 -6 15 -8 35 -6 52 3 26 13 45 30 59 l5 4 -1 9 c-3 41 24 86 65 107 24
12 60 17 98 14z" fill="white"/>
<path d="M277 558 c-38 -3 -64 -15 -86 -37 -21 -22 -31 -47 -31 -76 0 -6 0
-11 0 -12 1 0 4 1 7 3 3 2 6 3 7 3 2 0 -1 -3 -8 -7 -19 -10 -32 -27 -38 -51
-11 -41 4 -86 33 -99 28 -14 60 5 72 42 2 5 3 12 4 15 1 3 2 7 3 7 2 2 2 3 0
8 -2 11 -7 25 -12 34 -3 6 -4 9 -3 8 3 -2 9 -15 12 -24 6 -16 12 -44 14 -67 2
-18 1 -18 -2 0 -4 30 -5 35 -8 36 -1 0 -2 -1 -2 -5 -2 -11 -10 -29 -16 -37
l-3 -4 6 -8 c9 -11 23 -26 31 -31 15 -9 29 -10 39 0 12 13 15 36 11 92 -2 23
0 29 12 32 9 3 59 14 67 15 24 4 -11 -6 -54 -14 -4 -1 -15 -13 -20 -21 l-3 -6
1 -17 c1 -19 1 -39 0 -48 -1 -6 -1 -6 3 -10 4 -5 13 -9 21 -11 14 -3 47 1 78
9 23 5 29 8 35 13 7 6 9 12 9 26 0 15 -1 20 -8 26 l-5 5 -5 -4 c-9 -8 -35 -20
-62 -31 -8 -2 -15 -5 -18 -7 -5 -3 -6 -2 -1 2 4 3 8 5 31 14 24 9 42 18 49 25
11 10 18 22 23 39 3 10 3 36 1 49 -7 33 -25 66 -47 87 -28 26 -60 37 -113 37
-11 1 -22 1 -24 0z" fill="white"/>
<path d="M319 377 c-5 -1 -7 -3 -9 -6 -1 -2 -3 -12 -2 -12 1 0 2 2 3 4 1 2 5
6 8 10 3 3 5 6 5 6 0 0 -3 -1 -5 -2z" fill="white"/>
</g>
</svg>
