<?xml version="1.0" encoding="UTF-8"?>
<svg width="600" height="800" viewBox="0 0 600 800" fill="none" xmlns="http://www.w3.org/2000/svg">
<g transform="translate(0,800) scale(1,-1)">
<path d="M308 685 c-12 -5 -22 -22 -35 -56 -12 -29 -17 -51 -16 -64 2 -14 7
-26 20 -42 12 -16 13 -21 11 -35 -3 -19 -19 -64 -31 -86 -5 -10 -12 -19 -31
-42 -27 -33 -41 -52 -55 -76 -15 -27 -21 -44 -21 -60 0 -18 7 -31 19 -37 5 -2
10 -3 16 0 8 4 14 11 34 44 11 17 27 42 34 51 7 9 17 21 18 21 0 -1 -7 -16
-16 -35 -27 -54 -34 -71 -36 -88 -2 -15 1 -29 10 -39 10 -10 22 -12 34 -4 11
8 19 22 55 91 18 35 22 42 34 62 5 7 10 16 13 21 5 10 13 35 22 66 9 30 14 44
16 48 4 5 8 7 23 10 22 4 30 8 38 17 8 8 13 21 17 41 2 13 2 56 0 70 -4 24
-12 36 -25 36 -8 0 -14 -5 -19 -15 -5 -11 -8 -25 -10 -55 l0 -12 -3 -1 c-7 -1
-19 5 -22 10 -1 2 0 3 4 6 20 16 31 45 28 74 -1 12 -3 20 -9 31 -10 21 -30 34
-48 30 -33 -6 -56 -51 -47 -93 1 -5 2 -10 2 -10 0 -1 -6 3 -11 7 -9 8 -8 13 3
44 9 23 11 31 11 43 0 13 -3 21 -11 26 -5 3 -12 4 -16 1z m15 -4 c5 -3 9 -12
10 -20 1 -10 -2 -20 -11 -43 -11 -29 -12 -35 -8 -43 2 -4 10 -11 17 -15 3 -2
4 -4 7 -10 12 -22 37 -33 56 -25 2 1 4 2 5 2 0 0 0 -2 1 -4 2 -3 8 -7 16 -9 7
-2 10 -2 12 -1 1 1 2 10 3 22 1 23 3 35 7 43 6 17 20 23 30 12 9 -9 12 -23 11
-61 0 -30 -1 -40 -6 -55 -7 -21 -17 -29 -46 -35 -18 -4 -22 -5 -25 -11 -3 -4
-8 -19 -17 -50 -9 -28 -17 -52 -21 -62 -2 -4 -9 -16 -16 -27 -7 -11 -19 -33
-26 -47 -20 -39 -36 -68 -43 -79 -14 -24 -27 -32 -41 -24 -8 4 -14 12 -16 23
-4 20 2 38 42 119 11 22 20 41 19 41 -1 2 -2 0 -6 -7 -1 -4 -4 -7 -4 -7 -1 0
-4 -2 -7 -5 -11 -12 -25 -32 -48 -67 -18 -30 -20 -33 -25 -39 -10 -11 -22 -11
-31 0 -11 11 -12 30 -5 49 10 31 33 66 68 108 30 36 33 41 45 70 14 33 21 59
21 72 0 11 -1 14 -12 29 -22 29 -24 44 -11 82 7 23 21 53 29 64 8 11 18 15 26
10z m70 -18 c7 -2 13 -6 20 -13 7 -8 12 -17 16 -30 2 -7 2 -10 2 -22 0 -12 0
-16 -2 -22 -5 -21 -18 -38 -33 -46 -7 -3 -8 -3 -16 -3 -9 0 -10 0 -17 3 -14 7
-24 20 -29 40 -2 6 -2 10 -2 23 0 14 0 16 2 24 11 34 34 52 59 46z" fill="black"/>
<path d="M0 400 l0 -400 300 0 300 0 0 400 0 400 -300 0 -300 0 0 -400z m324
284 c8 -5 11 -13 11 -26 0 -12 -2 -20 -11 -43 -11 -31 -12 -36 -3 -44 5 -4 11
-8 11 -7 0 0 -1 5 -2 10 -4 18 -2 36 5 54 10 27 33 43 54 39 10 -2 17 -5 25
-13 15 -16 23 -41 20 -67 -2 -22 -13 -42 -28 -55 -4 -3 -5 -4 -4 -6 3 -5 15
-11 22 -10 l3 1 0 12 c1 6 1 16 2 23 3 30 13 47 27 47 13 0 21 -12 25 -36 2
-14 2 -57 0 -70 -4 -20 -9 -33 -17 -41 -8 -9 -16 -13 -38 -17 -15 -3 -19 -5
-23 -10 -2 -4 -7 -18 -16 -48 -9 -31 -17 -56 -22 -66 -3 -5 -8 -14 -13 -21
-12 -20 -16 -27 -34 -62 -36 -69 -44 -83 -55 -91 -12 -8 -24 -6 -34 4 -9 10
-12 24 -10 39 2 17 9 34 36 88 9 19 16 34 16 35 -1 0 -11 -12 -18 -21 -7 -9
-23 -34 -34 -51 -20 -33 -26 -40 -34 -44 -10 -5 -21 0 -29 12 -6 9 -8 28 -4
43 6 18 18 42 35 67 11 16 19 27 39 51 19 23 26 32 31 42 12 22 28 67 31 86 2
14 1 19 -11 35 -13 16 -18 28 -20 42 -1 13 4 35 16 64 13 34 23 51 35 56 4 3
11 2 16 -1z" fill="white"/>
<path d="M306 680 c-3 -2 -6 -5 -9 -9 -8 -11 -22 -41 -29 -64 -13 -38 -11 -53
11 -82 11 -15 12 -18 12 -29 0 -13 -7 -39 -21 -72 -12 -29 -15 -34 -45 -70
-35 -42 -58 -77 -68 -108 -7 -19 -6 -38 5 -49 9 -11 21 -11 31 0 5 6 7 9 25
39 23 35 37 55 48 67 3 3 6 5 7 5 0 0 3 3 4 7 4 7 5 9 6 7 1 0 -8 -19 -19 -41
-40 -81 -46 -99 -42 -119 2 -11 8 -19 16 -23 14 -8 27 0 41 24 7 11 23 40 43
79 7 14 19 36 26 47 7 11 14 23 16 27 4 10 12 34 21 62 9 31 14 46 17 50 3 6
7 7 25 11 29 6 39 14 46 35 5 15 6 25 6 55 1 38 -2 52 -11 61 -10 11 -24 5
-30 -12 -4 -8 -6 -20 -7 -43 -1 -12 -2 -21 -3 -22 -4 -4 -24 3 -28 10 -1 2 -1
4 -1 4 -1 0 -3 -1 -5 -2 -19 -8 -44 3 -56 25 -3 6 -4 8 -7 10 -7 4 -15 11 -17
15 -4 8 -3 14 8 43 9 23 12 33 11 43 -2 18 -15 27 -27 19z" fill="white"/>
<path d="M373 663 c-17 -5 -32 -22 -39 -46 -2 -8 -2 -10 -2 -24 0 -13 0 -17 2
-23 5 -20 15 -33 29 -40 7 -3 8 -3 17 -3 8 0 9 0 16 3 15 8 28 25 33 46 2 6 2
10 2 22 0 12 0 15 -2 22 -2 5 -5 12 -6 16 -4 8 -14 19 -21 23 -8 5 -20 6 -29
4z" fill="white"/>
</g>
</svg>
